<svg xmlns="http://www.w3.org/2000/svg" width="431" height="48.5" viewBox="0 0 431 48.5">
  <g id="Grupo_14246" data-name="Grupo 14246" transform="translate(-543 -1384)">
    <text id="_3_4_2_5_1_4_8_9_12_6_5_20_8_9" data-name="3(4 − 2) − 5(1 − 4) − (8 + 9) = 12 − 6 − 5 + 20 − 8 – 9" transform="translate(543 1405.5)" fill="#00223d" font-size="20" font-family="OpenSans, Open Sans" letter-spacing="-0.028em"><tspan x="0" y="21">3(4 − 2) − 5(1 − 4) − (8 + 9) = 12 − 6 − 5 + 20 − 8 – 9</tspan></text>
    <g id="Grupo_14242" data-name="Grupo 14242" transform="translate(-258.897 1003.349)">
      <g id="Trazado_23530" data-name="Trazado 23530">
        <path id="Trazado_23532" data-name="Trazado 23532" d="M805.9,406.158h-.039a1,1,0,0,1-.961-1.037c.008-.2.958-19.983,18.046-23.766a29.525,29.525,0,0,1,6.465-.7c23.3,0,24.492,24.224,24.5,24.469a1,1,0,0,1-2,.077,30.328,30.328,0,0,0-3.2-11.39c-3.867-7.4-10.365-11.156-19.313-11.156a27.111,27.111,0,0,0-6.026.655c-6.506,1.441-11.252,5.527-14.106,12.148A30.742,30.742,0,0,0,806.9,405.2,1,1,0,0,1,805.9,406.158Z" fill="#00223d"/>
      </g>
      <g id="Trazado_23531" data-name="Trazado 23531">
        <path id="Trazado_23533" data-name="Trazado 23533" d="M826.667,406.158a1,1,0,0,1-1-.959c-.013-.287-.376-6.925-6.885-6.925s-6.873,6.642-6.885,6.925a1,1,0,0,1-2-.079c.117-3.059,2.123-8.846,8.884-8.846s8.767,5.787,8.884,8.846a1,1,0,0,1-.962,1.038Z" fill="#00223d"/>
      </g>
    </g>
  </g>
</svg>
