<svg xmlns="http://www.w3.org/2000/svg" width="632" height="105" viewBox="0 0 632 105">
  <g id="Grupo_14529" data-name="Grupo 14529" transform="translate(-2123 -6244)">
    <path id="Trazado_24008" data-name="Trazado 24008" d="M0,0H632V105H0Z" transform="translate(2123 6244)" fill="#d5f4fc"/>
    <path id="Trazado_24009" data-name="Trazado 24009" d="M15.466-5.605q-.137.649-.265,1.461t-.222,1.606q-.094.795-.154,1.478T14.766,0H11.86q.017-.342.051-.82t.094-.991q.06-.513.12-1.008t.128-.854h-.068q-.53.837-1.077,1.581A7.609,7.609,0,0,1,9.9-.786,5.313,5.313,0,0,1,8.408.1,5.233,5.233,0,0,1,6.477.427,5.22,5.22,0,0,1,4.384.017,4.388,4.388,0,0,1,2.751-1.2,5.631,5.631,0,0,1,1.7-3.239a9.913,9.913,0,0,1-.367-2.845A14.258,14.258,0,0,1,1.538-8.34,13.8,13.8,0,0,1,2.23-10.92a13.139,13.139,0,0,1,1.3-2.572A9.768,9.768,0,0,1,5.546-15.74a9.62,9.62,0,0,1,2.845-1.589,11.05,11.05,0,0,1,3.794-.6,20.169,20.169,0,0,1,2.82.205q1.453.205,2.888.5Zm-.8-9.587q-.6-.137-1.4-.239a11.915,11.915,0,0,0-1.5-.1,6.822,6.822,0,0,0-2.623.47,6.731,6.731,0,0,0-1.974,1.23,7.246,7.246,0,0,0-1.41,1.752,10.861,10.861,0,0,0-.914,2.025,11.919,11.919,0,0,0-.487,2.042A12.928,12.928,0,0,0,4.2-6.187a8.19,8.19,0,0,0,.171,1.752A3.825,3.825,0,0,0,4.913-3.11a2.528,2.528,0,0,0,.94.846,2.9,2.9,0,0,0,1.359.3,3.7,3.7,0,0,0,1.6-.35A5.539,5.539,0,0,0,10.2-3.264a7.787,7.787,0,0,0,1.179-1.384,13.618,13.618,0,0,0,.957-1.666,14.251,14.251,0,0,0,.726-1.794q.3-.914.487-1.769Zm8.682,2.5v-2.29H39.409v2.29Zm0,7.28v-2.29H39.409v2.29Zm37.239-5.964A14.025,14.025,0,0,1,60.344-8.9a13.285,13.285,0,0,1-.769,2.632,13.643,13.643,0,0,1-1.35,2.521,9.627,9.627,0,0,1-1.974,2.136A9.437,9.437,0,0,1,53.585-.128a9.893,9.893,0,0,1-3.427.555A12.347,12.347,0,0,1,48.535.316,14.145,14.145,0,0,1,46.895,0a12.775,12.775,0,0,1-1.538-.5,8.083,8.083,0,0,1-1.333-.667l5.264-24.746h2.837l-1.76,8.374q-.188.837-.385,1.76t-.385,1.641h.034a12.22,12.22,0,0,1,1.162-1.572,7.425,7.425,0,0,1,1.324-1.2,5.764,5.764,0,0,1,1.521-.76,5.673,5.673,0,0,1,1.769-.265,4.591,4.591,0,0,1,3.837,1.709A7.671,7.671,0,0,1,60.583-11.382Zm-2.871.068a7.929,7.929,0,0,0-.179-1.76,3.74,3.74,0,0,0-.564-1.333,2.54,2.54,0,0,0-.983-.837,3.3,3.3,0,0,0-1.453-.291,3.79,3.79,0,0,0-2.068.632,7.34,7.34,0,0,0-1.812,1.675,11.466,11.466,0,0,0-1.418,2.358,12.3,12.3,0,0,0-.872,2.683L47.219-2.734a6.047,6.047,0,0,0,1.461.547,7.408,7.408,0,0,0,1.82.222,5.953,5.953,0,0,0,2.222-.4,6.254,6.254,0,0,0,1.812-1.1,7.693,7.693,0,0,0,1.4-1.624,10.348,10.348,0,0,0,.991-1.957,11.852,11.852,0,0,0,.59-2.136A12.12,12.12,0,0,0,57.712-11.313Zm21.841-.068a13.29,13.29,0,0,1-.273,2.623,13.576,13.576,0,0,1-.837,2.675,13.17,13.17,0,0,1-1.41,2.5,10.118,10.118,0,0,1-1.991,2.076,9.232,9.232,0,0,1-2.6,1.418,9.456,9.456,0,0,1-3.213.521A10.572,10.572,0,0,1,67.24.239a12.238,12.238,0,0,1-1.718-.444L63.779,8.118H60.942l4.272-20.234q.12-.547.222-1.316t.179-1.547q.077-.778.128-1.461T65.8-17.5h2.871q0,.291-.043.786t-.111,1.034q-.068.538-.137,1.042t-.12.812h.068A9.233,9.233,0,0,1,71.06-16.91a5.845,5.845,0,0,1,3.315-1.017,5.416,5.416,0,0,1,2.153.41,4.263,4.263,0,0,1,1.632,1.23,5.693,5.693,0,0,1,1.034,2.051A10.226,10.226,0,0,1,79.553-11.382Zm-2.871.12a8.453,8.453,0,0,0-.162-1.709,3.791,3.791,0,0,0-.538-1.35,2.725,2.725,0,0,0-.966-.889,2.957,2.957,0,0,0-1.444-.325,3.851,3.851,0,0,0-1.666.367,5.738,5.738,0,0,0-1.444.983,8.055,8.055,0,0,0-1.213,1.427,14.183,14.183,0,0,0-.974,1.683,14.791,14.791,0,0,0-.726,1.752,13.206,13.206,0,0,0-.453,1.649L66.018-2.6a4.8,4.8,0,0,0,.735.248q.427.111.889.2t.94.137a8.378,8.378,0,0,0,.889.051,5.9,5.9,0,0,0,2.179-.393,6.323,6.323,0,0,0,1.794-1.068,7.538,7.538,0,0,0,1.4-1.589,10.547,10.547,0,0,0,1.017-1.948A11.467,11.467,0,0,0,76.477-9.1,11.8,11.8,0,0,0,76.682-11.262Zm17.756,2.2V-2.17H92.2V-9.058H85.261v-2.29H92.2v-6.887h2.239v6.887h6.887v2.29Zm23.516-5.469h-.068a5.046,5.046,0,0,0-.9-.4,3.288,3.288,0,0,0-1.1-.2,3.236,3.236,0,0,0-1.9.641,6.974,6.974,0,0,0-1.649,1.692,12.138,12.138,0,0,0-1.3,2.4,16.4,16.4,0,0,0-.863,2.769L108.538,0h-2.8L108.2-11.621q.154-.718.308-1.5t.282-1.572q.128-.786.231-1.5t.154-1.3h2.769q-.051.513-.12,1.085t-.137,1.111q-.068.538-.137.974t-.1.675h.068a18.864,18.864,0,0,1,1.111-1.76,8.132,8.132,0,0,1,1.188-1.342,5.035,5.035,0,0,1,1.324-.863,3.742,3.742,0,0,1,1.521-.308,4.825,4.825,0,0,1,.948.094q.47.094.846.2Zm.205,19.038h-2.2l3.435-8.391h2.8Zm34.009-15.894a13.29,13.29,0,0,1-.273,2.623,13.577,13.577,0,0,1-.837,2.675,13.17,13.17,0,0,1-1.41,2.5,10.118,10.118,0,0,1-1.991,2.076,9.232,9.232,0,0,1-2.6,1.418,9.456,9.456,0,0,1-3.213.521,10.572,10.572,0,0,1-1.991-.188,12.239,12.239,0,0,1-1.718-.444l-1.743,8.323h-2.837l4.272-20.234q.12-.547.222-1.316t.179-1.547q.077-.778.128-1.461t.051-1.06h2.871q0,.291-.043.786t-.111,1.034q-.068.538-.137,1.042t-.12.812h.068a9.233,9.233,0,0,1,2.734-3.085,5.845,5.845,0,0,1,3.315-1.017,5.416,5.416,0,0,1,2.153.41,4.263,4.263,0,0,1,1.632,1.23,5.693,5.693,0,0,1,1.034,2.051A10.226,10.226,0,0,1,152.168-11.382Zm-2.871.12a8.453,8.453,0,0,0-.162-1.709,3.791,3.791,0,0,0-.538-1.35,2.725,2.725,0,0,0-.966-.889,2.957,2.957,0,0,0-1.444-.325,3.851,3.851,0,0,0-1.666.367,5.738,5.738,0,0,0-1.444.983,8.055,8.055,0,0,0-1.213,1.427,14.185,14.185,0,0,0-.974,1.683,14.791,14.791,0,0,0-.726,1.752,13.2,13.2,0,0,0-.453,1.649L138.633-2.6a4.8,4.8,0,0,0,.735.248q.427.111.889.2t.94.137a8.378,8.378,0,0,0,.889.051,5.9,5.9,0,0,0,2.179-.393,6.323,6.323,0,0,0,1.794-1.068,7.538,7.538,0,0,0,1.4-1.589,10.547,10.547,0,0,0,1.017-1.948,11.467,11.467,0,0,0,.615-2.136A11.8,11.8,0,0,0,149.3-11.262Zm19.67,5.657q-.137.649-.265,1.461t-.222,1.606q-.094.795-.154,1.478T168.267,0h-2.905q.017-.342.051-.82t.094-.991q.06-.513.12-1.008t.128-.854h-.068q-.53.837-1.077,1.581A7.608,7.608,0,0,1,163.4-.786,5.313,5.313,0,0,1,161.909.1a5.233,5.233,0,0,1-1.931.325,5.22,5.22,0,0,1-2.094-.41A4.388,4.388,0,0,1,156.252-1.2,5.631,5.631,0,0,1,155.2-3.239a9.913,9.913,0,0,1-.367-2.845,14.258,14.258,0,0,1,.205-2.256,13.8,13.8,0,0,1,.692-2.581,13.139,13.139,0,0,1,1.3-2.572,9.768,9.768,0,0,1,2.017-2.247,9.62,9.62,0,0,1,2.845-1.589,11.05,11.05,0,0,1,3.794-.6,20.17,20.17,0,0,1,2.82.205q1.453.205,2.888.5Zm-.8-9.587q-.6-.137-1.4-.239a11.915,11.915,0,0,0-1.5-.1,6.822,6.822,0,0,0-2.623.47,6.731,6.731,0,0,0-1.974,1.23,7.246,7.246,0,0,0-1.41,1.752,10.861,10.861,0,0,0-.914,2.025,11.92,11.92,0,0,0-.487,2.042,12.927,12.927,0,0,0-.145,1.829,8.19,8.19,0,0,0,.171,1.752,3.825,3.825,0,0,0,.538,1.324,2.528,2.528,0,0,0,.94.846,2.9,2.9,0,0,0,1.359.3,3.7,3.7,0,0,0,1.6-.35,5.539,5.539,0,0,0,1.393-.948,7.788,7.788,0,0,0,1.179-1.384,13.618,13.618,0,0,0,.957-1.666,14.251,14.251,0,0,0,.726-1.794q.3-.914.487-1.769Zm17.4.667h-.068a5.045,5.045,0,0,0-.9-.4,3.288,3.288,0,0,0-1.1-.2,3.236,3.236,0,0,0-1.9.641,6.974,6.974,0,0,0-1.649,1.692,12.139,12.139,0,0,0-1.3,2.4,16.4,16.4,0,0,0-.863,2.769L176.145,0h-2.8L175.8-11.621q.154-.718.308-1.5t.282-1.572q.128-.786.231-1.5t.154-1.3h2.769q-.051.513-.12,1.085T179.29-15.3q-.068.538-.137.974t-.1.675h.068a18.862,18.862,0,0,1,1.111-1.76,8.133,8.133,0,0,1,1.188-1.342,5.035,5.035,0,0,1,1.324-.863,3.742,3.742,0,0,1,1.521-.308,4.825,4.825,0,0,1,.948.094q.47.094.846.2Zm14.8,8.921q-.137.649-.265,1.461t-.222,1.606q-.094.795-.154,1.478T199.661,0h-2.905q.017-.342.051-.82t.094-.991q.06-.513.12-1.008t.128-.854h-.068q-.53.837-1.077,1.581A7.608,7.608,0,0,1,194.79-.786,5.313,5.313,0,0,1,193.3.1a5.233,5.233,0,0,1-1.931.325,5.22,5.22,0,0,1-2.094-.41A4.388,4.388,0,0,1,187.646-1.2,5.631,5.631,0,0,1,186.6-3.239a9.913,9.913,0,0,1-.367-2.845,14.258,14.258,0,0,1,.205-2.256,13.8,13.8,0,0,1,.692-2.581,13.139,13.139,0,0,1,1.3-2.572,9.768,9.768,0,0,1,2.017-2.247,9.62,9.62,0,0,1,2.845-1.589,11.05,11.05,0,0,1,3.794-.6,20.17,20.17,0,0,1,2.82.205q1.453.205,2.888.5Zm-.8-9.587q-.6-.137-1.4-.239a11.915,11.915,0,0,0-1.5-.1,6.822,6.822,0,0,0-2.623.47,6.731,6.731,0,0,0-1.974,1.23,7.246,7.246,0,0,0-1.41,1.752,10.861,10.861,0,0,0-.914,2.025,11.92,11.92,0,0,0-.487,2.042,12.927,12.927,0,0,0-.145,1.829,8.19,8.19,0,0,0,.171,1.752,3.825,3.825,0,0,0,.538,1.324,2.528,2.528,0,0,0,.94.846,2.9,2.9,0,0,0,1.359.3,3.7,3.7,0,0,0,1.6-.35,5.539,5.539,0,0,0,1.393-.948,7.788,7.788,0,0,0,1.179-1.384,13.618,13.618,0,0,0,.957-1.666,14.251,14.251,0,0,0,.726-1.794q.3-.914.487-1.769Zm25.72.068h-4.409L218.9-5.845q-.1.53-.205,1.145a6.327,6.327,0,0,0-.1.991,1.726,1.726,0,0,0,.385,1.256,1.672,1.672,0,0,0,1.222.385,2.686,2.686,0,0,0,.53-.068q.325-.068.667-.171t.675-.231q.333-.128.59-.231l-.53,2.461a8.286,8.286,0,0,1-1.359.436,6.294,6.294,0,0,1-1.444.179A4.886,4.886,0,0,1,217.673.06a2.84,2.84,0,0,1-1.119-.709,2.747,2.747,0,0,1-.632-1.119,5.159,5.159,0,0,1-.2-1.478,8.285,8.285,0,0,1,.094-1.154,11.961,11.961,0,0,1,.231-1.2l2.017-9.519h-2.905l.53-2.375h2.871l.906-4.272a5.268,5.268,0,0,1,.521-.162q.453-.128.991-.291l.991-.3.5-.154L221.4-17.5h4.409Zm16.919,4.1a14.566,14.566,0,0,1-.658,4.409,11.274,11.274,0,0,1-1.9,3.649,9.166,9.166,0,0,1-3.008,2.478,8.562,8.562,0,0,1-3.99.914,7.285,7.285,0,0,1-2.709-.479,5.635,5.635,0,0,1-2.051-1.376,6.1,6.1,0,0,1-1.3-2.17,8.558,8.558,0,0,1-.453-2.88,14.26,14.26,0,0,1,.692-4.5,11.371,11.371,0,0,1,1.948-3.64,9.1,9.1,0,0,1,3.008-2.427,8.5,8.5,0,0,1,3.871-.88,7.236,7.236,0,0,1,2.692.479,5.717,5.717,0,0,1,2.059,1.376,6.23,6.23,0,0,1,1.324,2.17A8.275,8.275,0,0,1,242.2-11.023Zm-2.871.137a6.533,6.533,0,0,0-.273-1.974,4.2,4.2,0,0,0-.769-1.453,3.336,3.336,0,0,0-1.2-.906,3.781,3.781,0,0,0-1.572-.316,4.97,4.97,0,0,0-2.717.769,6.876,6.876,0,0,0-2.051,2.025,10.042,10.042,0,0,0-1.29,2.854A11.944,11.944,0,0,0,229-6.614a6.537,6.537,0,0,0,.265,1.923,4.365,4.365,0,0,0,.752,1.47,3.246,3.246,0,0,0,1.2.931,3.8,3.8,0,0,0,1.6.325,5.042,5.042,0,0,0,2.734-.76A6.78,6.78,0,0,0,237.6-4.742,9.856,9.856,0,0,0,238.882-7.6,12.252,12.252,0,0,0,239.326-10.886Zm19.6,5.5q-.12.547-.231,1.316t-.2,1.547q-.085.778-.145,1.461T258.3,0h-2.905q0-.291.043-.778t.1-1.017q.06-.53.128-1.017t.12-.795h-.068a17.261,17.261,0,0,1-1.23,1.752,7.122,7.122,0,0,1-1.3,1.265,5.219,5.219,0,0,1-1.453.76,5.324,5.324,0,0,1-1.692.256A5.227,5.227,0,0,1,247.888,0a4.387,4.387,0,0,1-1.632-1.256,5.788,5.788,0,0,1-1.034-2.051,10,10,0,0,1-.359-2.811,13.836,13.836,0,0,1,.265-2.632,13.477,13.477,0,0,1,.82-2.683,12.576,12.576,0,0,1,1.41-2.5A9.718,9.718,0,0,1,249.392-16a9.644,9.644,0,0,1,2.7-1.41,10.446,10.446,0,0,1,3.4-.521,11.535,11.535,0,0,1,1.777.128q.82.128,1.418.265l1.777-8.374h2.769Zm-.735-9.741a11.01,11.01,0,0,0-1.359-.3,9.78,9.78,0,0,0-1.512-.111,6.934,6.934,0,0,0-2.623.461,6.616,6.616,0,0,0-1.982,1.23,7.365,7.365,0,0,0-1.418,1.752,11.038,11.038,0,0,0-.923,2.017,11.48,11.48,0,0,0-.5,2.034,12.654,12.654,0,0,0-.145,1.8,8.639,8.639,0,0,0,.162,1.743,3.892,3.892,0,0,0,.53,1.35,2.531,2.531,0,0,0,.948.872,2.96,2.96,0,0,0,1.4.308,3.627,3.627,0,0,0,1.6-.359,5.5,5.5,0,0,0,1.393-.974,8.043,8.043,0,0,0,1.179-1.418,13.76,13.76,0,0,0,.957-1.709,15.187,15.187,0,0,0,.726-1.837q.3-.931.487-1.786Zm21.7,4.1a14.566,14.566,0,0,1-.658,4.409,11.273,11.273,0,0,1-1.9,3.649,9.166,9.166,0,0,1-3.008,2.478,8.562,8.562,0,0,1-3.99.914,7.285,7.285,0,0,1-2.709-.479,5.635,5.635,0,0,1-2.051-1.376,6.094,6.094,0,0,1-1.3-2.17,8.558,8.558,0,0,1-.453-2.88,14.26,14.26,0,0,1,.692-4.5,11.371,11.371,0,0,1,1.948-3.64,9.1,9.1,0,0,1,3.008-2.427,8.5,8.5,0,0,1,3.871-.88,7.236,7.236,0,0,1,2.692.479,5.717,5.717,0,0,1,2.059,1.376,6.23,6.23,0,0,1,1.324,2.17A8.274,8.274,0,0,1,279.9-11.023Zm-2.871.137a6.534,6.534,0,0,0-.273-1.974,4.2,4.2,0,0,0-.769-1.453,3.336,3.336,0,0,0-1.2-.906,3.781,3.781,0,0,0-1.572-.316,4.97,4.97,0,0,0-2.717.769,6.876,6.876,0,0,0-2.051,2.025,10.042,10.042,0,0,0-1.29,2.854,11.945,11.945,0,0,0-.453,3.273,6.536,6.536,0,0,0,.265,1.923,4.366,4.366,0,0,0,.752,1.47,3.247,3.247,0,0,0,1.2.931,3.8,3.8,0,0,0,1.6.325,5.042,5.042,0,0,0,2.734-.76A6.779,6.779,0,0,0,275.3-4.742,9.856,9.856,0,0,0,276.582-7.6,12.252,12.252,0,0,0,277.026-10.886Zm29.292,5.281q-.137.649-.265,1.461t-.222,1.606q-.094.795-.154,1.478T305.618,0h-2.905q.017-.342.051-.82t.094-.991q.06-.513.12-1.008t.128-.854h-.068q-.53.837-1.077,1.581a7.609,7.609,0,0,1-1.213,1.307A5.313,5.313,0,0,1,299.26.1a5.233,5.233,0,0,1-1.931.325,5.22,5.22,0,0,1-2.094-.41A4.387,4.387,0,0,1,293.6-1.2a5.631,5.631,0,0,1-1.051-2.034,9.913,9.913,0,0,1-.367-2.845,14.258,14.258,0,0,1,.205-2.256,13.8,13.8,0,0,1,.692-2.581,13.14,13.14,0,0,1,1.3-2.572A9.767,9.767,0,0,1,296.4-15.74a9.62,9.62,0,0,1,2.845-1.589,11.05,11.05,0,0,1,3.794-.6,20.169,20.169,0,0,1,2.82.205q1.453.205,2.888.5Zm-.8-9.587q-.6-.137-1.4-.239a11.915,11.915,0,0,0-1.5-.1,6.822,6.822,0,0,0-2.623.47,6.731,6.731,0,0,0-1.974,1.23,7.247,7.247,0,0,0-1.41,1.752,10.861,10.861,0,0,0-.914,2.025,11.917,11.917,0,0,0-.487,2.042,12.93,12.93,0,0,0-.145,1.829,8.191,8.191,0,0,0,.171,1.752,3.824,3.824,0,0,0,.538,1.324,2.528,2.528,0,0,0,.94.846,2.9,2.9,0,0,0,1.359.3,3.7,3.7,0,0,0,1.6-.35,5.539,5.539,0,0,0,1.393-.948,7.787,7.787,0,0,0,1.179-1.384,13.618,13.618,0,0,0,.957-1.666,14.251,14.251,0,0,0,.726-1.794q.3-.914.487-1.769ZM325.083-2.17V-4.717l10.989-5.332v-.1L325.083-16.2v-2.6l14.663,8.237v1.008Zm35.974-9.211a14.024,14.024,0,0,1-.239,2.487,13.287,13.287,0,0,1-.769,2.632,13.642,13.642,0,0,1-1.35,2.521,9.627,9.627,0,0,1-1.974,2.136,9.437,9.437,0,0,1-2.666,1.478,9.894,9.894,0,0,1-3.427.555,12.347,12.347,0,0,1-1.624-.111A14.146,14.146,0,0,1,347.368,0a12.773,12.773,0,0,1-1.538-.5,8.084,8.084,0,0,1-1.333-.667l5.264-24.746H352.6l-1.76,8.374q-.188.837-.385,1.76t-.385,1.641h.034a12.221,12.221,0,0,1,1.162-1.572,7.426,7.426,0,0,1,1.324-1.2,5.764,5.764,0,0,1,1.521-.76,5.673,5.673,0,0,1,1.769-.265,4.591,4.591,0,0,1,3.837,1.709A7.671,7.671,0,0,1,361.057-11.382Zm-2.871.068a7.929,7.929,0,0,0-.179-1.76,3.74,3.74,0,0,0-.564-1.333,2.539,2.539,0,0,0-.983-.837,3.3,3.3,0,0,0-1.453-.291,3.79,3.79,0,0,0-2.068.632,7.34,7.34,0,0,0-1.812,1.675,11.467,11.467,0,0,0-1.418,2.358,12.3,12.3,0,0,0-.872,2.683l-1.145,5.452a6.047,6.047,0,0,0,1.461.547,7.408,7.408,0,0,0,1.82.222,5.953,5.953,0,0,0,2.222-.4,6.254,6.254,0,0,0,1.812-1.1,7.693,7.693,0,0,0,1.4-1.624A10.348,10.348,0,0,0,357.4-7.05a11.85,11.85,0,0,0,.59-2.136A12.121,12.121,0,0,0,358.186-11.313Zm20.1,14.219a20.579,20.579,0,0,1-1.589,2.264,10.541,10.541,0,0,1-1.683,1.666,6.37,6.37,0,0,1-4.076,1.384,5.693,5.693,0,0,1-.88-.077,6.414,6.414,0,0,1-.778-.162l.53-2.478a2.528,2.528,0,0,0,.667.222,3.932,3.932,0,0,0,.8.085,3.68,3.68,0,0,0,2.128-.649,6.616,6.616,0,0,0,1.786-1.982l2.1-3.247L374.114-17.5h2.905l2.034,13.433a6.566,6.566,0,0,1,.06.726,3.932,3.932,0,0,1-.026.607h.1q.085-.205.265-.581a6.275,6.275,0,0,1,.4-.718L387.615-17.5h3.093Zm37.922-14.287a14.024,14.024,0,0,1-.239,2.487,13.287,13.287,0,0,1-.769,2.632,13.642,13.642,0,0,1-1.35,2.521,9.627,9.627,0,0,1-1.974,2.136,9.437,9.437,0,0,1-2.666,1.478,9.894,9.894,0,0,1-3.427.555,12.347,12.347,0,0,1-1.624-.111A14.146,14.146,0,0,1,402.517,0a12.773,12.773,0,0,1-1.538-.5,8.084,8.084,0,0,1-1.333-.667l5.264-24.746h2.837l-1.76,8.374q-.188.837-.385,1.76t-.385,1.641h.034a12.221,12.221,0,0,1,1.162-1.572,7.426,7.426,0,0,1,1.324-1.2,5.764,5.764,0,0,1,1.521-.76,5.673,5.673,0,0,1,1.769-.265,4.591,4.591,0,0,1,3.837,1.709A7.671,7.671,0,0,1,416.206-11.382Zm-2.871.068a7.929,7.929,0,0,0-.179-1.76,3.74,3.74,0,0,0-.564-1.333,2.539,2.539,0,0,0-.983-.837,3.3,3.3,0,0,0-1.453-.291,3.79,3.79,0,0,0-2.068.632,7.34,7.34,0,0,0-1.812,1.675,11.467,11.467,0,0,0-1.418,2.358,12.3,12.3,0,0,0-.872,2.683l-1.145,5.452a6.047,6.047,0,0,0,1.461.547,7.408,7.408,0,0,0,1.82.222,5.953,5.953,0,0,0,2.222-.4,6.254,6.254,0,0,0,1.812-1.1,7.693,7.693,0,0,0,1.4-1.624,10.348,10.348,0,0,0,.991-1.957,11.85,11.85,0,0,0,.59-2.136A12.121,12.121,0,0,0,413.335-11.313Zm9.844,9.143V-4.717l10.989-5.332v-.1L423.179-16.2v-2.6l14.663,8.237v1.008Zm31.428-12.356h-.068a5.046,5.046,0,0,0-.9-.4,3.288,3.288,0,0,0-1.1-.2,3.236,3.236,0,0,0-1.9.641,6.974,6.974,0,0,0-1.649,1.692,12.138,12.138,0,0,0-1.3,2.4,16.4,16.4,0,0,0-.863,2.769L445.19,0h-2.8l2.461-11.621q.154-.718.308-1.5t.282-1.572q.128-.786.231-1.5t.154-1.3h2.769q-.051.513-.12,1.085t-.137,1.111q-.068.538-.137.974t-.1.675h.068a18.865,18.865,0,0,1,1.111-1.76,8.132,8.132,0,0,1,1.188-1.342,5.035,5.035,0,0,1,1.324-.863,3.742,3.742,0,0,1,1.521-.308,4.825,4.825,0,0,1,.948.094q.47.094.846.2Z" transform="translate(2212 6311)" fill="#002b45"/>
  </g>
</svg>
