<svg xmlns="http://www.w3.org/2000/svg" width="930.211" height="200.848" viewBox="0 0 930.211 200.848">
  <g id="Grupo_14469" data-name="Grupo 14469" transform="translate(-235 -2151)">
    <path id="Trazado_23863" data-name="Trazado 23863" d="M0,0H930.211V200.848H0Z" transform="translate(235 2151)" fill="#d5f4fc"/>
    <path id="Trazado_23877" data-name="Trazado 23877" d="M-324.949-1.433h4.3V0h-5.871V-12.375h1.573Zm8.341,1.6A2.94,2.94,0,0,1-318.5-.426a2.13,2.13,0,0,1-.743-1.771,2.517,2.517,0,0,1,.237-1.129,1.991,1.991,0,0,1,.7-.787A4.218,4.218,0,0,1-317.29-4.6a9.384,9.384,0,0,1,1.314-.312l1.4-.229q.765-.141.765-.8a1.51,1.51,0,0,0-.541-1.288,2.2,2.2,0,0,0-1.367-.409,2.243,2.243,0,0,0-1.354.4,1.655,1.655,0,0,0-.642,1.213l-1.371-.29a2.639,2.639,0,0,1,1.081-1.85,4.039,4.039,0,0,1,2.355-.62,4.777,4.777,0,0,1,1.252.154,3.4,3.4,0,0,1,1.046.483,2.168,2.168,0,0,1,.747.932,3.466,3.466,0,0,1,.268,1.419v3.568a1.46,1.46,0,0,0,.2.9.854.854,0,0,0,.681.233h.141V0h-.756a1.442,1.442,0,0,1-1.635-1.169h-.07A3.3,3.3,0,0,1-316.608.167Zm.352-1.23A2.305,2.305,0,0,0-314.4-1.9a3.438,3.438,0,0,0,.7-2.285l-2.285.439a3.076,3.076,0,0,0-1.34.479,1.114,1.114,0,0,0-.435.945,1.1,1.1,0,0,0,.417.949A1.785,1.785,0,0,0-316.257-1.063Zm13.245-6.056a2.612,2.612,0,0,1,1.072-1.16,3.229,3.229,0,0,1,1.661-.457V-7.3a2.846,2.846,0,0,0-2.008.642,2.68,2.68,0,0,0-.69,2.048V0H-304.5V-8.64h1.485Zm11.971,2.628-.018.413h-6.75a3.053,3.053,0,0,0,.826,2.21,2.713,2.713,0,0,0,1.969.769,2.59,2.59,0,0,0,1.433-.413,2.68,2.68,0,0,0,.984-1.143l1.371.29A3.9,3.9,0,0,1-292.7-.51,4.028,4.028,0,0,1-295,.167a4.174,4.174,0,0,1-3.111-1.2,4.479,4.479,0,0,1-1.187-3.287A4.458,4.458,0,0,1-298.1-7.6a4.122,4.122,0,0,1,3.063-1.2,3.9,3.9,0,0,1,2.9,1.107A4.376,4.376,0,0,1-291.041-4.491Zm-4-3.146a2.694,2.694,0,0,0-1.8.611,2.8,2.8,0,0,0-.91,1.78h5.177a2.567,2.567,0,0,0-.756-1.78A2.441,2.441,0,0,0-295.04-7.638ZM-288.659,0V-13.5h1.538V0Zm6.627.167a2.94,2.94,0,0,1-1.894-.593,2.13,2.13,0,0,1-.743-1.771,2.517,2.517,0,0,1,.237-1.129,1.991,1.991,0,0,1,.7-.787,4.218,4.218,0,0,1,1.015-.488,9.384,9.384,0,0,1,1.314-.312l1.4-.229q.765-.141.765-.8a1.51,1.51,0,0,0-.541-1.288,2.2,2.2,0,0,0-1.367-.409,2.243,2.243,0,0,0-1.354.4,1.655,1.655,0,0,0-.642,1.213l-1.371-.29a2.639,2.639,0,0,1,1.081-1.85,4.039,4.039,0,0,1,2.355-.62,4.777,4.777,0,0,1,1.252.154,3.4,3.4,0,0,1,1.046.483,2.168,2.168,0,0,1,.747.932,3.466,3.466,0,0,1,.268,1.419v3.568a1.46,1.46,0,0,0,.2.9.854.854,0,0,0,.681.233h.141V0h-.756a1.442,1.442,0,0,1-1.635-1.169h-.07A3.3,3.3,0,0,1-282.032.167Zm.352-1.23a2.305,2.305,0,0,0,1.854-.835,3.438,3.438,0,0,0,.7-2.285l-2.285.439a3.076,3.076,0,0,0-1.34.479,1.114,1.114,0,0,0-.435.945,1.1,1.1,0,0,0,.417.949A1.785,1.785,0,0,0-281.681-1.063ZM-271.187.158a4.161,4.161,0,0,1-3.094-1.239A4.421,4.421,0,0,1-275.5-4.324a4.43,4.43,0,0,1,1.217-3.243,4.158,4.158,0,0,1,3.1-1.239,4.191,4.191,0,0,1,2.5.756,3.815,3.815,0,0,1,1.455,2.1l-1.424.229a2.63,2.63,0,0,0-.976-1.345,2.656,2.656,0,0,0-1.564-.475,2.554,2.554,0,0,0-2,.888,3.382,3.382,0,0,0-.787,2.329A3.365,3.365,0,0,0-273.195-2a2.56,2.56,0,0,0,2,.883,2.656,2.656,0,0,0,1.564-.475,2.63,2.63,0,0,0,.976-1.345l1.424.237a3.819,3.819,0,0,1-1.463,2.1A4.185,4.185,0,0,1-271.187.158Zm6.97-10.828a.989.989,0,0,1-.725-.3.989.989,0,0,1-.3-.725.975.975,0,0,1,.3-.721,1,1,0,0,1,.725-.3.987.987,0,0,1,.716.3.975.975,0,0,1,.3.721.989.989,0,0,1-.3.725A.979.979,0,0,1-264.217-10.67ZM-264.99,0V-8.64h1.529V0Zm7.682-10.125,2.206-2.865.809.589-1.969,2.276Zm.58,10.292a4.554,4.554,0,0,1-2.215-.536,3.9,3.9,0,0,1-1.56-1.569,4.819,4.819,0,0,1-.576-2.386,4.4,4.4,0,0,1,1.226-3.256,4.232,4.232,0,0,1,3.125-1.226A4.228,4.228,0,0,1-253.6-7.581a4.41,4.41,0,0,1,1.222,3.256A4.413,4.413,0,0,1-253.6-1.059,4.232,4.232,0,0,1-256.729.167Zm-.009-1.266a2.654,2.654,0,0,0,2.043-.888,3.326,3.326,0,0,0,.813-2.338,3.314,3.314,0,0,0-.813-2.329,2.654,2.654,0,0,0-2.043-.888,2.617,2.617,0,0,0-2.026.888,3.336,3.336,0,0,0-.8,2.329,3.348,3.348,0,0,0,.8,2.338A2.617,2.617,0,0,0-256.737-1.1Zm10.819-7.708a3.005,3.005,0,0,1,2.175.782,2.918,2.918,0,0,1,.813,2.206V0h-1.521V-5.476a2.043,2.043,0,0,0-.527-1.547,1.885,1.885,0,0,0-1.354-.5,2.09,2.09,0,0,0-1.538.593,2.407,2.407,0,0,0-.606,1.762V0H-250V-8.64h1.521v1.107A2.885,2.885,0,0,1-245.918-8.807ZM-231.732.158a4.161,4.161,0,0,1-3.094-1.239,4.421,4.421,0,0,1-1.222-3.243,4.43,4.43,0,0,1,1.217-3.243,4.158,4.158,0,0,1,3.1-1.239,4.191,4.191,0,0,1,2.5.756,3.815,3.815,0,0,1,1.455,2.1l-1.424.229a2.63,2.63,0,0,0-.976-1.345,2.656,2.656,0,0,0-1.564-.475,2.554,2.554,0,0,0-2,.888,3.382,3.382,0,0,0-.787,2.329A3.365,3.365,0,0,0-233.741-2a2.56,2.56,0,0,0,2,.883,2.656,2.656,0,0,0,1.564-.475,2.63,2.63,0,0,0,.976-1.345l1.424.237a3.819,3.819,0,0,1-1.463,2.1A4.185,4.185,0,0,1-231.732.158Zm9.835.009a4.554,4.554,0,0,1-2.215-.536,3.9,3.9,0,0,1-1.56-1.569,4.819,4.819,0,0,1-.576-2.386,4.4,4.4,0,0,1,1.226-3.256A4.232,4.232,0,0,1-221.9-8.807a4.228,4.228,0,0,1,3.129,1.226,4.41,4.41,0,0,1,1.222,3.256,4.413,4.413,0,0,1-1.226,3.265A4.232,4.232,0,0,1-221.9.167Zm-.009-1.266a2.654,2.654,0,0,0,2.043-.888,3.326,3.326,0,0,0,.813-2.338,3.314,3.314,0,0,0-.813-2.329,2.654,2.654,0,0,0-2.043-.888,2.617,2.617,0,0,0-2.026.888,3.336,3.336,0,0,0-.8,2.329,3.348,3.348,0,0,0,.8,2.338A2.617,2.617,0,0,0-221.906-1.1Zm15.574-7.708a2.785,2.785,0,0,1,2.013.734,2.722,2.722,0,0,1,.765,2.061V0h-1.521V-5.616a1.952,1.952,0,0,0-.475-1.424,1.616,1.616,0,0,0-1.2-.483,1.706,1.706,0,0,0-1.318.545,2.343,2.343,0,0,0-.5,1.635V0h-1.547V-5.555a2.042,2.042,0,0,0-.479-1.472,1.629,1.629,0,0,0-1.226-.5,1.69,1.69,0,0,0-1.314.558,2.424,2.424,0,0,0-.505,1.674V0h-1.521V-8.64h1.521v1.116a2.625,2.625,0,0,1,.989-.949,2.82,2.82,0,0,1,1.375-.334,2.935,2.935,0,0,1,1.477.365,2.271,2.271,0,0,1,.958,1.05,2.689,2.689,0,0,1,1.037-1.05A2.966,2.966,0,0,1-206.332-8.807Zm10.283,0a3.93,3.93,0,0,1,1.564.316A3.849,3.849,0,0,1-193.2-7.6a4.149,4.149,0,0,1,.866,1.424,5.25,5.25,0,0,1,.321,1.863,4.568,4.568,0,0,1-1.165,3.261,3.782,3.782,0,0,1-2.87,1.239,3.42,3.42,0,0,1-1.806-.492,3.226,3.226,0,0,1-1.235-1.327V4.351h-1.521V-8.64h1.468l.035,1.679a3.163,3.163,0,0,1,1.23-1.349A3.452,3.452,0,0,1-196.049-8.807Zm-.3,7.673a2.623,2.623,0,0,0,2-.875,3.253,3.253,0,0,0,.813-2.307,3.237,3.237,0,0,0-.813-2.3,2.629,2.629,0,0,0-2-.87,2.636,2.636,0,0,0-2.03.91,3.24,3.24,0,0,0-.826,2.263,3.252,3.252,0,0,0,.826,2.272A2.636,2.636,0,0,0-196.348-1.134Zm12.111-7.506h1.521V0h-1.459l-.035-1.143a2.7,2.7,0,0,1-1.072.971,3.3,3.3,0,0,1-1.512.338,3.005,3.005,0,0,1-2.175-.782,2.918,2.918,0,0,1-.813-2.206V-8.64h1.521v5.476a2.05,2.05,0,0,0,.532,1.547,1.882,1.882,0,0,0,1.358.51,2.067,2.067,0,0,0,1.534-.6,2.434,2.434,0,0,0,.6-1.767Zm12.173,4.148-.018.413h-6.75A3.053,3.053,0,0,0-178-1.868a2.713,2.713,0,0,0,1.969.769,2.59,2.59,0,0,0,1.433-.413,2.68,2.68,0,0,0,.984-1.143l1.371.29A3.9,3.9,0,0,1-173.725-.51a4.028,4.028,0,0,1-2.294.677,4.174,4.174,0,0,1-3.111-1.2,4.479,4.479,0,0,1-1.187-3.287A4.458,4.458,0,0,1-179.125-7.6a4.122,4.122,0,0,1,3.063-1.2,3.9,3.9,0,0,1,2.9,1.107A4.376,4.376,0,0,1-172.063-4.491Zm-4-3.146a2.694,2.694,0,0,0-1.8.611,2.8,2.8,0,0,0-.91,1.78h5.177a2.567,2.567,0,0,0-.756-1.78A2.441,2.441,0,0,0-176.062-7.638Zm9.114,7.8a4.1,4.1,0,0,1-2.329-.624,2.581,2.581,0,0,1-1.134-1.775l1.327-.378a1.851,1.851,0,0,0,.708,1.2,2.3,2.3,0,0,0,1.419.426,2.832,2.832,0,0,0,.831-.114,1.331,1.331,0,0,0,.637-.426,1.142,1.142,0,0,0,.255-.787,1.147,1.147,0,0,0-.07-.356,1.526,1.526,0,0,0-.141-.286.87.87,0,0,0-.246-.237,3.245,3.245,0,0,0-.3-.185,3.067,3.067,0,0,0-.391-.163q-.259-.092-.417-.141t-.483-.141q-.325-.092-.5-.145a9.372,9.372,0,0,1-.9-.316,3.932,3.932,0,0,1-.729-.417,1.679,1.679,0,0,1-.567-.681,2.3,2.3,0,0,1-.189-.967,2.234,2.234,0,0,1,.422-1.38,2.374,2.374,0,0,1,1.094-.813,4.374,4.374,0,0,1,1.534-.25,3.754,3.754,0,0,1,2.1.563,2.4,2.4,0,0,1,1.05,1.688l-1.248.316a1.655,1.655,0,0,0-.659-1.094,2.1,2.1,0,0,0-1.239-.365,2.139,2.139,0,0,0-1.16.3,1.019,1.019,0,0,0-.483.927.923.923,0,0,0,.127.479,1.521,1.521,0,0,0,.259.338,1.594,1.594,0,0,0,.475.259q.343.136.51.185t.633.163q.088.026.132.035.51.132.831.233a5.105,5.105,0,0,1,.747.316,2.484,2.484,0,0,1,.672.47,2.178,2.178,0,0,1,.422.668,2.358,2.358,0,0,1,.176.932,2.516,2.516,0,0,1-.259,1.165,2.028,2.028,0,0,1-.708.8,3.422,3.422,0,0,1-1.006.435A4.8,4.8,0,0,1-166.948.167ZM-158.616,0A2.271,2.271,0,0,1-160.3-.62a2.344,2.344,0,0,1-.615-1.727v-5.08h-1.767V-8.64h.65a1.249,1.249,0,0,0,.954-.3,1.492,1.492,0,0,0,.277-1.015v-1.564h1.415V-8.64h1.986v1.213h-1.986V-2.5a1.31,1.31,0,0,0,.33.954,1.154,1.154,0,0,0,.866.338h.791V0Zm5.3.167a2.94,2.94,0,0,1-1.894-.593,2.13,2.13,0,0,1-.743-1.771,2.517,2.517,0,0,1,.237-1.129,1.991,1.991,0,0,1,.7-.787A4.218,4.218,0,0,1-154-4.6a9.384,9.384,0,0,1,1.314-.312l1.4-.229q.765-.141.765-.8a1.51,1.51,0,0,0-.541-1.288,2.2,2.2,0,0,0-1.367-.409,2.243,2.243,0,0,0-1.354.4,1.655,1.655,0,0,0-.642,1.213l-1.371-.29a2.639,2.639,0,0,1,1.081-1.85,4.039,4.039,0,0,1,2.355-.62,4.777,4.777,0,0,1,1.252.154,3.4,3.4,0,0,1,1.046.483,2.168,2.168,0,0,1,.747.932,3.466,3.466,0,0,1,.268,1.419v3.568a1.46,1.46,0,0,0,.2.9.854.854,0,0,0,.681.233h.141V0h-.756a1.442,1.442,0,0,1-1.635-1.169h-.07A3.3,3.3,0,0,1-153.316.167Zm.352-1.23A2.305,2.305,0,0,0-151.11-1.9a3.438,3.438,0,0,0,.7-2.285l-2.285.439a3.076,3.076,0,0,0-1.34.479,1.114,1.114,0,0,0-.435.945,1.1,1.1,0,0,0,.417.949A1.785,1.785,0,0,0-152.965-1.063ZM-134.824-13.5h1.521V0h-1.468l-.035-1.679a3.179,3.179,0,0,1-1.23,1.362,3.429,3.429,0,0,1-1.828.5,3.883,3.883,0,0,1-1.564-.321,3.92,3.92,0,0,1-1.288-.9,4.16,4.16,0,0,1-.87-1.428,5.225,5.225,0,0,1-.321-1.854,4.543,4.543,0,0,1,1.173-3.243,3.788,3.788,0,0,1,2.87-1.248,3.443,3.443,0,0,1,1.806.488A3.2,3.2,0,0,1-134.824-7Zm-2.725,12.366a2.587,2.587,0,0,0,2.008-.91,3.283,3.283,0,0,0,.813-2.272,3.277,3.277,0,0,0-.817-2.268,2.586,2.586,0,0,0-2-.914,2.644,2.644,0,0,0-2.021.883,3.25,3.25,0,0,0-.817,2.3,3.25,3.25,0,0,0,.817,2.3A2.644,2.644,0,0,0-137.549-1.134Zm8.112-9.536a.989.989,0,0,1-.725-.3.989.989,0,0,1-.3-.725.975.975,0,0,1,.3-.721,1,1,0,0,1,.725-.3.987.987,0,0,1,.716.3.975.975,0,0,1,.3.721.989.989,0,0,1-.3.725A.979.979,0,0,1-129.437-10.67ZM-130.21,0V-8.64h1.529V0Zm6.108-7.119a2.612,2.612,0,0,1,1.072-1.16,3.229,3.229,0,0,1,1.661-.457V-7.3a2.846,2.846,0,0,0-2.008.642,2.68,2.68,0,0,0-.69,2.048V0h-1.521V-8.64h1.485Zm11.971,2.628-.018.413h-6.75a3.053,3.053,0,0,0,.826,2.21A2.713,2.713,0,0,0-116.1-1.1a2.59,2.59,0,0,0,1.433-.413,2.68,2.68,0,0,0,.984-1.143l1.371.29A3.9,3.9,0,0,1-113.792-.51a4.028,4.028,0,0,1-2.294.677,4.174,4.174,0,0,1-3.111-1.2,4.479,4.479,0,0,1-1.187-3.287A4.458,4.458,0,0,1-119.193-7.6a4.122,4.122,0,0,1,3.063-1.2,3.9,3.9,0,0,1,2.9,1.107A4.376,4.376,0,0,1-112.131-4.491Zm-4-3.146a2.694,2.694,0,0,0-1.8.611,2.8,2.8,0,0,0-.91,1.78h5.177a2.567,2.567,0,0,0-.756-1.78A2.441,2.441,0,0,0-116.13-7.638Zm9.967,7.8a4.161,4.161,0,0,1-3.094-1.239,4.421,4.421,0,0,1-1.222-3.243,4.43,4.43,0,0,1,1.217-3.243,4.158,4.158,0,0,1,3.1-1.239,4.191,4.191,0,0,1,2.5.756,3.815,3.815,0,0,1,1.455,2.1l-1.424.229a2.63,2.63,0,0,0-.976-1.345,2.656,2.656,0,0,0-1.564-.475,2.554,2.554,0,0,0-2,.888,3.382,3.382,0,0,0-.787,2.329A3.365,3.365,0,0,0-108.171-2a2.56,2.56,0,0,0,2,.883,2.656,2.656,0,0,0,1.564-.475,2.63,2.63,0,0,0,.976-1.345l1.424.237a3.819,3.819,0,0,1-1.463,2.1A4.185,4.185,0,0,1-106.163.158ZM-97.207,0a2.271,2.271,0,0,1-1.687-.62,2.344,2.344,0,0,1-.615-1.727v-5.08h-1.767V-8.64h.65a1.249,1.249,0,0,0,.954-.3A1.492,1.492,0,0,0-99.4-9.958v-1.564h1.415V-8.64h1.986v1.213H-97.98V-2.5a1.31,1.31,0,0,0,.33.954,1.154,1.154,0,0,0,.866.338h.791V0Zm5.3.167A2.94,2.94,0,0,1-93.8-.426,2.13,2.13,0,0,1-94.544-2.2a2.517,2.517,0,0,1,.237-1.129,1.991,1.991,0,0,1,.7-.787A4.218,4.218,0,0,1-92.588-4.6a9.384,9.384,0,0,1,1.314-.312l1.4-.229q.765-.141.765-.8a1.51,1.51,0,0,0-.541-1.288,2.2,2.2,0,0,0-1.367-.409,2.243,2.243,0,0,0-1.354.4,1.655,1.655,0,0,0-.642,1.213l-1.371-.29A2.639,2.639,0,0,1-93.3-8.169a4.039,4.039,0,0,1,2.355-.62,4.777,4.777,0,0,1,1.252.154,3.4,3.4,0,0,1,1.046.483,2.168,2.168,0,0,1,.747.932A3.466,3.466,0,0,1-87.636-5.8v3.568a1.46,1.46,0,0,0,.2.9.854.854,0,0,0,.681.233h.141V0h-.756a1.442,1.442,0,0,1-1.635-1.169h-.07A3.3,3.3,0,0,1-91.907.167Zm.352-1.23A2.305,2.305,0,0,0-89.7-1.9,3.438,3.438,0,0,0-89-4.184l-2.285.439a3.076,3.076,0,0,0-1.34.479,1.114,1.114,0,0,0-.435.945,1.1,1.1,0,0,0,.417.949A1.785,1.785,0,0,0-91.556-1.063Zm19.318-3.428-.018.413H-79a3.053,3.053,0,0,0,.826,2.21A2.713,2.713,0,0,0-76.21-1.1a2.59,2.59,0,0,0,1.433-.413,2.68,2.68,0,0,0,.984-1.143l1.371.29A3.9,3.9,0,0,1-73.9-.51a4.028,4.028,0,0,1-2.294.677,4.174,4.174,0,0,1-3.111-1.2A4.479,4.479,0,0,1-80.49-4.324,4.458,4.458,0,0,1-79.3-7.6a4.122,4.122,0,0,1,3.063-1.2,3.9,3.9,0,0,1,2.9,1.107A4.376,4.376,0,0,1-72.237-4.491Zm-4-3.146a2.694,2.694,0,0,0-1.8.611,2.8,2.8,0,0,0-.91,1.78h5.177a2.567,2.567,0,0,0-.756-1.78A2.441,2.441,0,0,0-76.236-7.638Zm9.114,7.8a4.1,4.1,0,0,1-2.329-.624,2.581,2.581,0,0,1-1.134-1.775l1.327-.378a1.851,1.851,0,0,0,.708,1.2,2.3,2.3,0,0,0,1.419.426A2.832,2.832,0,0,0-66.3-1.1a1.331,1.331,0,0,0,.637-.426,1.142,1.142,0,0,0,.255-.787,1.147,1.147,0,0,0-.07-.356,1.526,1.526,0,0,0-.141-.286.87.87,0,0,0-.246-.237,3.245,3.245,0,0,0-.3-.185,3.067,3.067,0,0,0-.391-.163q-.259-.092-.417-.141t-.483-.141q-.325-.092-.5-.145a9.372,9.372,0,0,1-.9-.316,3.932,3.932,0,0,1-.729-.417,1.679,1.679,0,0,1-.567-.681,2.3,2.3,0,0,1-.189-.967,2.234,2.234,0,0,1,.422-1.38,2.374,2.374,0,0,1,1.094-.813,4.374,4.374,0,0,1,1.534-.25,3.754,3.754,0,0,1,2.1.563,2.4,2.4,0,0,1,1.05,1.688l-1.248.316a1.655,1.655,0,0,0-.659-1.094,2.1,2.1,0,0,0-1.239-.365,2.139,2.139,0,0,0-1.16.3,1.019,1.019,0,0,0-.483.927.923.923,0,0,0,.127.479,1.521,1.521,0,0,0,.259.338,1.594,1.594,0,0,0,.475.259q.343.136.51.185t.633.163q.088.026.132.035.51.132.831.233a5.105,5.105,0,0,1,.747.316,2.484,2.484,0,0,1,.672.47,2.178,2.178,0,0,1,.422.668,2.358,2.358,0,0,1,.176.932A2.516,2.516,0,0,1-64.2-1.208a2.028,2.028,0,0,1-.708.8,3.422,3.422,0,0,1-1.006.435A4.8,4.8,0,0,1-67.122.167ZM-51.5-8.64h1.521V0h-1.459l-.035-1.143a2.7,2.7,0,0,1-1.072.971,3.3,3.3,0,0,1-1.512.338,3.005,3.005,0,0,1-2.175-.782,2.918,2.918,0,0,1-.813-2.206V-8.64h1.521v5.476a2.05,2.05,0,0,0,.532,1.547,1.882,1.882,0,0,0,1.358.51,2.067,2.067,0,0,0,1.534-.6,2.434,2.434,0,0,0,.6-1.767Zm8.692-.167a3.005,3.005,0,0,1,2.175.782,2.918,2.918,0,0,1,.813,2.206V0h-1.521V-5.476a2.043,2.043,0,0,0-.527-1.547,1.885,1.885,0,0,0-1.354-.5,2.09,2.09,0,0,0-1.538.593,2.407,2.407,0,0,0-.606,1.762V0h-1.521V-8.64h1.521v1.107A2.885,2.885,0,0,1-42.8-8.807ZM-34.884.167a2.94,2.94,0,0,1-1.894-.593A2.13,2.13,0,0,1-37.521-2.2a2.517,2.517,0,0,1,.237-1.129,1.991,1.991,0,0,1,.7-.787A4.218,4.218,0,0,1-35.565-4.6a9.384,9.384,0,0,1,1.314-.312l1.4-.229q.765-.141.765-.8a1.51,1.51,0,0,0-.541-1.288A2.2,2.2,0,0,0-34-7.638a2.243,2.243,0,0,0-1.354.4,1.655,1.655,0,0,0-.642,1.213l-1.371-.29a2.639,2.639,0,0,1,1.081-1.85,4.039,4.039,0,0,1,2.355-.62,4.777,4.777,0,0,1,1.252.154,3.4,3.4,0,0,1,1.046.483,2.168,2.168,0,0,1,.747.932A3.466,3.466,0,0,1-30.612-5.8v3.568a1.46,1.46,0,0,0,.2.9.854.854,0,0,0,.681.233h.141V0h-.756a1.442,1.442,0,0,1-1.635-1.169h-.07A3.3,3.3,0,0,1-34.884.167Zm.352-1.23A2.305,2.305,0,0,0-32.678-1.9a3.438,3.438,0,0,0,.7-2.285l-2.285.439a3.076,3.076,0,0,0-1.34.479,1.114,1.114,0,0,0-.435.945,1.1,1.1,0,0,0,.417.949A1.785,1.785,0,0,0-34.532-1.063ZM-20.039.167a4.1,4.1,0,0,1-2.329-.624A2.581,2.581,0,0,1-23.5-2.232l1.327-.378a1.851,1.851,0,0,0,.708,1.2,2.3,2.3,0,0,0,1.419.426,2.832,2.832,0,0,0,.831-.114,1.331,1.331,0,0,0,.637-.426,1.142,1.142,0,0,0,.255-.787,1.147,1.147,0,0,0-.07-.356,1.526,1.526,0,0,0-.141-.286.87.87,0,0,0-.246-.237,3.245,3.245,0,0,0-.3-.185,3.067,3.067,0,0,0-.391-.163q-.259-.092-.417-.141t-.483-.141q-.325-.092-.5-.145a9.372,9.372,0,0,1-.9-.316A3.932,3.932,0,0,1-22.5-4.7a1.679,1.679,0,0,1-.567-.681,2.3,2.3,0,0,1-.189-.967,2.234,2.234,0,0,1,.422-1.38,2.374,2.374,0,0,1,1.094-.813,4.374,4.374,0,0,1,1.534-.25,3.754,3.754,0,0,1,2.1.563,2.4,2.4,0,0,1,1.05,1.688l-1.248.316a1.655,1.655,0,0,0-.659-1.094A2.1,2.1,0,0,0-20.2-7.682a2.139,2.139,0,0,0-1.16.3,1.019,1.019,0,0,0-.483.927.923.923,0,0,0,.127.479,1.521,1.521,0,0,0,.259.338,1.594,1.594,0,0,0,.475.259q.343.136.51.185t.633.163q.088.026.132.035.51.132.831.233a5.105,5.105,0,0,1,.747.316,2.484,2.484,0,0,1,.672.47,2.178,2.178,0,0,1,.422.668,2.358,2.358,0,0,1,.176.932,2.516,2.516,0,0,1-.259,1.165,2.028,2.028,0,0,1-.708.8,3.422,3.422,0,0,1-1.006.435A4.8,4.8,0,0,1-20.039.167ZM-9.088-8.64h1.521V0H-9.026l-.035-1.143a2.7,2.7,0,0,1-1.072.971,3.3,3.3,0,0,1-1.512.338,3.005,3.005,0,0,1-2.175-.782,2.918,2.918,0,0,1-.813-2.206V-8.64h1.521v5.476a2.05,2.05,0,0,0,.532,1.547,1.882,1.882,0,0,0,1.358.51,2.067,2.067,0,0,0,1.534-.6,2.434,2.434,0,0,0,.6-1.767Zm8.2,8.8A4.161,4.161,0,0,1-3.981-1.081,4.421,4.421,0,0,1-5.2-4.324,4.43,4.43,0,0,1-3.986-7.567a4.158,4.158,0,0,1,3.1-1.239,4.191,4.191,0,0,1,2.5.756,3.815,3.815,0,0,1,1.455,2.1l-1.424.229A2.63,2.63,0,0,0,.668-7.066,2.656,2.656,0,0,0-.9-7.541a2.554,2.554,0,0,0-2,.888,3.382,3.382,0,0,0-.787,2.329A3.365,3.365,0,0,0-2.9-2a2.56,2.56,0,0,0,2,.883A2.656,2.656,0,0,0,.668-1.591a2.63,2.63,0,0,0,.976-1.345L3.067-2.7A3.819,3.819,0,0,1,1.6-.6,4.185,4.185,0,0,1-.888.158ZM12.867-4.491l-.018.413H6.1a3.053,3.053,0,0,0,.826,2.21A2.713,2.713,0,0,0,8.895-1.1a2.59,2.59,0,0,0,1.433-.413,2.68,2.68,0,0,0,.984-1.143l1.371.29A3.9,3.9,0,0,1,11.206-.51,4.028,4.028,0,0,1,8.912.167,4.174,4.174,0,0,1,5.8-1.037,4.479,4.479,0,0,1,4.614-4.324,4.458,4.458,0,0,1,5.805-7.6a4.122,4.122,0,0,1,3.063-1.2,3.9,3.9,0,0,1,2.9,1.107A4.376,4.376,0,0,1,12.867-4.491Zm-4-3.146a2.694,2.694,0,0,0-1.8.611,2.8,2.8,0,0,0-.91,1.78h5.177a2.567,2.567,0,0,0-.756-1.78A2.441,2.441,0,0,0,8.868-7.638Zm9.114,7.8a4.1,4.1,0,0,1-2.329-.624A2.581,2.581,0,0,1,14.52-2.232l1.327-.378a1.851,1.851,0,0,0,.708,1.2,2.3,2.3,0,0,0,1.419.426A2.832,2.832,0,0,0,18.8-1.1a1.331,1.331,0,0,0,.637-.426,1.142,1.142,0,0,0,.255-.787,1.147,1.147,0,0,0-.07-.356,1.526,1.526,0,0,0-.141-.286.87.87,0,0,0-.246-.237,3.245,3.245,0,0,0-.3-.185,3.067,3.067,0,0,0-.391-.163q-.259-.092-.417-.141t-.483-.141q-.325-.092-.5-.145a9.372,9.372,0,0,1-.9-.316,3.932,3.932,0,0,1-.729-.417,1.679,1.679,0,0,1-.567-.681,2.3,2.3,0,0,1-.189-.967,2.234,2.234,0,0,1,.422-1.38,2.374,2.374,0,0,1,1.094-.813,4.374,4.374,0,0,1,1.534-.25,3.754,3.754,0,0,1,2.1.563,2.4,2.4,0,0,1,1.05,1.688l-1.248.316a1.655,1.655,0,0,0-.659-1.094,2.1,2.1,0,0,0-1.239-.365,2.139,2.139,0,0,0-1.16.3,1.019,1.019,0,0,0-.483.927.923.923,0,0,0,.127.479,1.521,1.521,0,0,0,.259.338,1.594,1.594,0,0,0,.475.259q.343.136.51.185t.633.163q.088.026.132.035.51.132.831.233a5.105,5.105,0,0,1,.747.316,2.484,2.484,0,0,1,.672.47,2.178,2.178,0,0,1,.422.668,2.358,2.358,0,0,1,.176.932A2.516,2.516,0,0,1,20.9-1.208a2.028,2.028,0,0,1-.708.8,3.422,3.422,0,0,1-1.006.435A4.8,4.8,0,0,1,17.982.167ZM24.328-10.67a.989.989,0,0,1-.725-.3.989.989,0,0,1-.3-.725.975.975,0,0,1,.3-.721,1,1,0,0,1,.725-.3.987.987,0,0,1,.716.3.975.975,0,0,1,.3.721.989.989,0,0,1-.3.725A.979.979,0,0,1,24.328-10.67ZM23.555,0V-8.64h1.529V0Zm7.682-10.125,2.206-2.865.809.589-1.969,2.276ZM31.816.167A4.554,4.554,0,0,1,29.6-.369a3.9,3.9,0,0,1-1.56-1.569,4.819,4.819,0,0,1-.576-2.386,4.4,4.4,0,0,1,1.226-3.256,4.232,4.232,0,0,1,3.125-1.226,4.228,4.228,0,0,1,3.129,1.226,4.41,4.41,0,0,1,1.222,3.256,4.413,4.413,0,0,1-1.226,3.265A4.232,4.232,0,0,1,31.816.167ZM31.808-1.1a2.654,2.654,0,0,0,2.043-.888,3.326,3.326,0,0,0,.813-2.338,3.314,3.314,0,0,0-.813-2.329,2.654,2.654,0,0,0-2.043-.888,2.617,2.617,0,0,0-2.026.888,3.336,3.336,0,0,0-.8,2.329,3.348,3.348,0,0,0,.8,2.338A2.617,2.617,0,0,0,31.808-1.1ZM42.627-8.807a3.005,3.005,0,0,1,2.175.782,2.918,2.918,0,0,1,.813,2.206V0H44.095V-5.476a2.043,2.043,0,0,0-.527-1.547,1.885,1.885,0,0,0-1.354-.5,2.09,2.09,0,0,0-1.538.593,2.407,2.407,0,0,0-.606,1.762V0H38.549V-8.64h1.521v1.107A2.885,2.885,0,0,1,42.627-8.807ZM59.607-13.5h1.521V0H59.66l-.035-1.679a3.179,3.179,0,0,1-1.23,1.362,3.429,3.429,0,0,1-1.828.5A3.883,3.883,0,0,1,55-.136a3.92,3.92,0,0,1-1.288-.9,4.16,4.16,0,0,1-.87-1.428,5.225,5.225,0,0,1-.321-1.854A4.543,4.543,0,0,1,53.7-7.559a3.788,3.788,0,0,1,2.87-1.248,3.443,3.443,0,0,1,1.806.488A3.2,3.2,0,0,1,59.607-7ZM56.883-1.134a2.587,2.587,0,0,0,2.008-.91A3.283,3.283,0,0,0,59.7-4.315a3.277,3.277,0,0,0-.817-2.268,2.586,2.586,0,0,0-2-.914,2.644,2.644,0,0,0-2.021.883,3.25,3.25,0,0,0-.817,2.3,3.25,3.25,0,0,0,.817,2.3A2.644,2.644,0,0,0,56.883-1.134Zm14.9-3.357-.018.413h-6.75a3.053,3.053,0,0,0,.826,2.21,2.713,2.713,0,0,0,1.969.769,2.59,2.59,0,0,0,1.433-.413,2.68,2.68,0,0,0,.984-1.143l1.371.29A3.9,3.9,0,0,1,70.119-.51a4.028,4.028,0,0,1-2.294.677,4.174,4.174,0,0,1-3.111-1.2,4.479,4.479,0,0,1-1.187-3.287A4.458,4.458,0,0,1,64.718-7.6a4.122,4.122,0,0,1,3.063-1.2,3.9,3.9,0,0,1,2.9,1.107A4.376,4.376,0,0,1,71.78-4.491Zm-4-3.146a2.694,2.694,0,0,0-1.8.611,2.8,2.8,0,0,0-.91,1.78h5.177a2.567,2.567,0,0,0-.756-1.78A2.441,2.441,0,0,0,67.781-7.638Zm12.542.519A2.612,2.612,0,0,1,81.4-8.279a3.229,3.229,0,0,1,1.661-.457V-7.3a2.846,2.846,0,0,0-2.008.642,2.68,2.68,0,0,0-.69,2.048V0H78.838V-8.64h1.485ZM92.294-4.491l-.018.413h-6.75a3.053,3.053,0,0,0,.826,2.21,2.713,2.713,0,0,0,1.969.769,2.59,2.59,0,0,0,1.433-.413,2.68,2.68,0,0,0,.984-1.143l1.371.29A3.9,3.9,0,0,1,90.633-.51a4.028,4.028,0,0,1-2.294.677,4.174,4.174,0,0,1-3.111-1.2,4.479,4.479,0,0,1-1.187-3.287A4.458,4.458,0,0,1,85.232-7.6a4.122,4.122,0,0,1,3.063-1.2A3.9,3.9,0,0,1,91.2-7.7,4.376,4.376,0,0,1,92.294-4.491Zm-4-3.146a2.694,2.694,0,0,0-1.8.611,2.8,2.8,0,0,0-.91,1.78h5.177a2.567,2.567,0,0,0-.756-1.78A2.441,2.441,0,0,0,88.295-7.638Zm12.639-1h1.477v8.2a4.706,4.706,0,0,1-1.116,3.366A4.058,4.058,0,0,1,98.2,4.1a4.084,4.084,0,0,1-4.192-2.646L95.265.844a2.856,2.856,0,0,0,2.892,2A2.48,2.48,0,0,0,100.182,2a3.591,3.591,0,0,0,.7-2.355v-1.6A3.045,3.045,0,0,1,99.65-.716a3.58,3.58,0,0,1-1.8.47,3.7,3.7,0,0,1-2.795-1.217A4.293,4.293,0,0,1,93.9-4.535,4.253,4.253,0,0,1,95.058-7.6a3.74,3.74,0,0,1,2.808-1.208,3.49,3.49,0,0,1,1.811.483A3.112,3.112,0,0,1,100.9-7.049Zm-2.742,7.1a2.614,2.614,0,0,0,1.991-.888A3,3,0,0,0,101-4.535a3.02,3.02,0,0,0-.817-2.118,2.61,2.61,0,0,0-2-.888A2.632,2.632,0,0,0,96.2-6.68a3,3,0,0,0-.813,2.145A2.978,2.978,0,0,0,96.209-2.4,2.634,2.634,0,0,0,98.191-1.538ZM105.5,0V-13.5h1.538V0Zm6.627.167a2.94,2.94,0,0,1-1.894-.593,2.13,2.13,0,0,1-.743-1.771,2.517,2.517,0,0,1,.237-1.129,1.991,1.991,0,0,1,.7-.787A4.218,4.218,0,0,1,111.45-4.6a9.384,9.384,0,0,1,1.314-.312l1.4-.229q.765-.141.765-.8a1.51,1.51,0,0,0-.541-1.288,2.2,2.2,0,0,0-1.367-.409,2.243,2.243,0,0,0-1.354.4,1.655,1.655,0,0,0-.642,1.213l-1.371-.29a2.639,2.639,0,0,1,1.081-1.85,4.039,4.039,0,0,1,2.355-.62,4.777,4.777,0,0,1,1.252.154,3.4,3.4,0,0,1,1.046.483,2.168,2.168,0,0,1,.747.932A3.466,3.466,0,0,1,116.4-5.8v3.568a1.46,1.46,0,0,0,.2.9.854.854,0,0,0,.681.233h.141V0h-.756a1.442,1.442,0,0,1-1.635-1.169h-.07A3.3,3.3,0,0,1,112.131.167Zm.352-1.23a2.305,2.305,0,0,0,1.854-.835,3.438,3.438,0,0,0,.7-2.285l-2.285.439a3.076,3.076,0,0,0-1.34.479,1.114,1.114,0,0,0-.435.945,1.1,1.1,0,0,0,.417.949A1.785,1.785,0,0,0,112.482-1.063ZM122.3.167a4.1,4.1,0,0,1-2.329-.624,2.581,2.581,0,0,1-1.134-1.775l1.327-.378a1.851,1.851,0,0,0,.708,1.2,2.3,2.3,0,0,0,1.419.426,2.832,2.832,0,0,0,.831-.114,1.331,1.331,0,0,0,.637-.426,1.142,1.142,0,0,0,.255-.787,1.147,1.147,0,0,0-.07-.356,1.526,1.526,0,0,0-.141-.286.87.87,0,0,0-.246-.237,3.245,3.245,0,0,0-.3-.185,3.067,3.067,0,0,0-.391-.163q-.259-.092-.417-.141t-.483-.141q-.325-.092-.5-.145a9.372,9.372,0,0,1-.9-.316,3.932,3.932,0,0,1-.729-.417,1.679,1.679,0,0,1-.567-.681,2.3,2.3,0,0,1-.189-.967,2.234,2.234,0,0,1,.422-1.38,2.374,2.374,0,0,1,1.094-.813,4.374,4.374,0,0,1,1.534-.25,3.754,3.754,0,0,1,2.1.563,2.4,2.4,0,0,1,1.05,1.688l-1.248.316a1.655,1.655,0,0,0-.659-1.094,2.1,2.1,0,0,0-1.239-.365,2.139,2.139,0,0,0-1.16.3,1.019,1.019,0,0,0-.483.927.923.923,0,0,0,.127.479,1.521,1.521,0,0,0,.259.338,1.594,1.594,0,0,0,.475.259q.343.136.51.185t.633.163q.088.026.132.035.51.132.831.233a5.105,5.105,0,0,1,.747.316,2.484,2.484,0,0,1,.672.47,2.178,2.178,0,0,1,.422.668,2.358,2.358,0,0,1,.176.932,2.516,2.516,0,0,1-.259,1.165,2.028,2.028,0,0,1-.708.8,3.422,3.422,0,0,1-1.006.435A4.8,4.8,0,0,1,122.3.167ZM138.929-13.5h1.521V0h-1.468l-.035-1.679a3.179,3.179,0,0,1-1.23,1.362,3.429,3.429,0,0,1-1.828.5,3.883,3.883,0,0,1-1.564-.321,3.92,3.92,0,0,1-1.288-.9,4.16,4.16,0,0,1-.87-1.428,5.225,5.225,0,0,1-.321-1.854,4.543,4.543,0,0,1,1.173-3.243,3.788,3.788,0,0,1,2.87-1.248,3.443,3.443,0,0,1,1.806.488A3.2,3.2,0,0,1,138.929-7ZM136.2-1.134a2.587,2.587,0,0,0,2.008-.91,3.283,3.283,0,0,0,.813-2.272,3.277,3.277,0,0,0-.817-2.268,2.586,2.586,0,0,0-2-.914,2.644,2.644,0,0,0-2.021.883,3.25,3.25,0,0,0-.817,2.3,3.25,3.25,0,0,0,.817,2.3A2.644,2.644,0,0,0,136.2-1.134Zm14.9-3.357-.018.413h-6.75a3.053,3.053,0,0,0,.826,2.21,2.713,2.713,0,0,0,1.969.769,2.59,2.59,0,0,0,1.433-.413,2.68,2.68,0,0,0,.984-1.143l1.371.29A3.9,3.9,0,0,1,149.44-.51a4.028,4.028,0,0,1-2.294.677,4.174,4.174,0,0,1-3.111-1.2,4.479,4.479,0,0,1-1.187-3.287A4.458,4.458,0,0,1,144.04-7.6a4.122,4.122,0,0,1,3.063-1.2,3.9,3.9,0,0,1,2.9,1.107A4.376,4.376,0,0,1,151.1-4.491Zm-4-3.146a2.694,2.694,0,0,0-1.8.611,2.8,2.8,0,0,0-.91,1.78h5.177a2.567,2.567,0,0,0-.756-1.78A2.441,2.441,0,0,0,147.1-7.638ZM160.919,0a2.271,2.271,0,0,1-1.687-.62,2.344,2.344,0,0,1-.615-1.727v-5.08H156.85V-8.64h.65a1.249,1.249,0,0,0,.954-.3,1.492,1.492,0,0,0,.277-1.015v-1.564h1.415V-8.64h1.986v1.213h-1.986V-2.5a1.31,1.31,0,0,0,.33.954,1.154,1.154,0,0,0,.866.338h.791V0Zm4.9-7.119a2.612,2.612,0,0,1,1.072-1.16,3.229,3.229,0,0,1,1.661-.457V-7.3a2.846,2.846,0,0,0-2.008.642,2.68,2.68,0,0,0-.69,2.048V0h-1.521V-8.64h1.485Zm11.971,2.628-.018.413h-6.75a3.053,3.053,0,0,0,.826,2.21,2.713,2.713,0,0,0,1.969.769,2.59,2.59,0,0,0,1.433-.413,2.68,2.68,0,0,0,.984-1.143l1.371.29A3.9,3.9,0,0,1,176.124-.51a4.028,4.028,0,0,1-2.294.677,4.174,4.174,0,0,1-3.111-1.2,4.479,4.479,0,0,1-1.187-3.287A4.458,4.458,0,0,1,170.723-7.6a4.122,4.122,0,0,1,3.063-1.2,3.9,3.9,0,0,1,2.9,1.107A4.376,4.376,0,0,1,177.785-4.491Zm-4-3.146a2.694,2.694,0,0,0-1.8.611,2.8,2.8,0,0,0-.91,1.78h5.177a2.567,2.567,0,0,0-.756-1.78A2.441,2.441,0,0,0,173.786-7.638ZM182.9.167a4.1,4.1,0,0,1-2.329-.624,2.581,2.581,0,0,1-1.134-1.775l1.327-.378a1.851,1.851,0,0,0,.708,1.2,2.3,2.3,0,0,0,1.419.426,2.832,2.832,0,0,0,.831-.114,1.331,1.331,0,0,0,.637-.426,1.142,1.142,0,0,0,.255-.787,1.147,1.147,0,0,0-.07-.356,1.526,1.526,0,0,0-.141-.286.87.87,0,0,0-.246-.237,3.245,3.245,0,0,0-.3-.185,3.067,3.067,0,0,0-.391-.163q-.259-.092-.417-.141t-.483-.141q-.325-.092-.5-.145a9.372,9.372,0,0,1-.9-.316,3.932,3.932,0,0,1-.729-.417,1.679,1.679,0,0,1-.567-.681,2.3,2.3,0,0,1-.189-.967,2.234,2.234,0,0,1,.422-1.38,2.374,2.374,0,0,1,1.094-.813,4.374,4.374,0,0,1,1.534-.25,3.754,3.754,0,0,1,2.1.563,2.4,2.4,0,0,1,1.05,1.688l-1.248.316a1.655,1.655,0,0,0-.659-1.094,2.1,2.1,0,0,0-1.239-.365,2.139,2.139,0,0,0-1.16.3,1.019,1.019,0,0,0-.483.927.923.923,0,0,0,.127.479,1.521,1.521,0,0,0,.259.338,1.594,1.594,0,0,0,.475.259q.343.136.51.185t.633.163q.088.026.132.035.51.132.831.233a5.105,5.105,0,0,1,.747.316,2.484,2.484,0,0,1,.672.47,2.178,2.178,0,0,1,.422.668,2.358,2.358,0,0,1,.176.932,2.516,2.516,0,0,1-.259,1.165,2.028,2.028,0,0,1-.708.8,3.422,3.422,0,0,1-1.006.435A4.8,4.8,0,0,1,182.9.167Zm12.981,0a4.1,4.1,0,0,1-2.329-.624,2.581,2.581,0,0,1-1.134-1.775l1.327-.378a1.851,1.851,0,0,0,.708,1.2,2.3,2.3,0,0,0,1.419.426A2.832,2.832,0,0,0,196.7-1.1a1.331,1.331,0,0,0,.637-.426,1.142,1.142,0,0,0,.255-.787,1.147,1.147,0,0,0-.07-.356,1.526,1.526,0,0,0-.141-.286.87.87,0,0,0-.246-.237,3.245,3.245,0,0,0-.3-.185,3.067,3.067,0,0,0-.391-.163q-.259-.092-.417-.141t-.483-.141q-.325-.092-.5-.145a9.372,9.372,0,0,1-.9-.316,3.932,3.932,0,0,1-.729-.417,1.679,1.679,0,0,1-.567-.681,2.3,2.3,0,0,1-.189-.967,2.234,2.234,0,0,1,.422-1.38,2.374,2.374,0,0,1,1.094-.813,4.374,4.374,0,0,1,1.534-.25,3.754,3.754,0,0,1,2.1.563,2.4,2.4,0,0,1,1.05,1.688l-1.248.316a1.655,1.655,0,0,0-.659-1.094,2.1,2.1,0,0,0-1.239-.365,2.139,2.139,0,0,0-1.16.3,1.019,1.019,0,0,0-.483.927.923.923,0,0,0,.127.479,1.521,1.521,0,0,0,.259.338,1.594,1.594,0,0,0,.475.259q.343.136.51.185t.633.163q.088.026.132.035.51.132.831.233a5.105,5.105,0,0,1,.747.316,2.484,2.484,0,0,1,.672.47,2.178,2.178,0,0,1,.422.668,2.358,2.358,0,0,1,.176.932,2.516,2.516,0,0,1-.259,1.165,2.028,2.028,0,0,1-.708.8,3.422,3.422,0,0,1-1.006.435A4.8,4.8,0,0,1,195.882.167Zm6.346-10.837a.989.989,0,0,1-.725-.3.989.989,0,0,1-.3-.725.975.975,0,0,1,.3-.721,1,1,0,0,1,.725-.3.987.987,0,0,1,.716.3.975.975,0,0,1,.3.721.989.989,0,0,1-.3.725A.979.979,0,0,1,202.228-10.67ZM201.454,0V-8.64h1.529V0ZM214.91-8.807a2.785,2.785,0,0,1,2.013.734,2.722,2.722,0,0,1,.765,2.061V0h-1.521V-5.616a1.952,1.952,0,0,0-.475-1.424,1.616,1.616,0,0,0-1.2-.483,1.706,1.706,0,0,0-1.318.545,2.343,2.343,0,0,0-.5,1.635V0h-1.547V-5.555a2.042,2.042,0,0,0-.479-1.472,1.629,1.629,0,0,0-1.226-.5,1.69,1.69,0,0,0-1.314.558,2.424,2.424,0,0,0-.505,1.674V0h-1.521V-8.64H207.6v1.116a2.625,2.625,0,0,1,.989-.949,2.82,2.82,0,0,1,1.375-.334,2.935,2.935,0,0,1,1.477.365,2.271,2.271,0,0,1,.958,1.05,2.689,2.689,0,0,1,1.037-1.05A2.966,2.966,0,0,1,214.91-8.807Zm10.283,0a3.93,3.93,0,0,1,1.564.316,3.849,3.849,0,0,1,1.283.888,4.149,4.149,0,0,1,.866,1.424,5.25,5.25,0,0,1,.321,1.863,4.568,4.568,0,0,1-1.165,3.261,3.782,3.782,0,0,1-2.87,1.239,3.42,3.42,0,0,1-1.806-.492,3.226,3.226,0,0,1-1.235-1.327V4.351h-1.521V-8.64H222.1l.035,1.679a3.163,3.163,0,0,1,1.23-1.349A3.452,3.452,0,0,1,225.193-8.807Zm-.3,7.673a2.623,2.623,0,0,0,2-.875,3.253,3.253,0,0,0,.813-2.307,3.237,3.237,0,0,0-.813-2.3,2.629,2.629,0,0,0-2-.87,2.636,2.636,0,0,0-2.03.91,3.24,3.24,0,0,0-.826,2.263,3.252,3.252,0,0,0,.826,2.272A2.636,2.636,0,0,0,224.895-1.134ZM231.627,0V-13.5h1.538V0Zm12.19-4.491-.018.413h-6.75a3.053,3.053,0,0,0,.826,2.21,2.713,2.713,0,0,0,1.969.769,2.59,2.59,0,0,0,1.433-.413,2.68,2.68,0,0,0,.984-1.143l1.371.29A3.9,3.9,0,0,1,242.156-.51a4.028,4.028,0,0,1-2.294.677,4.174,4.174,0,0,1-3.111-1.2,4.479,4.479,0,0,1-1.187-3.287A4.458,4.458,0,0,1,236.755-7.6a4.122,4.122,0,0,1,3.063-1.2,3.9,3.9,0,0,1,2.9,1.107A4.376,4.376,0,0,1,243.817-4.491Zm-4-3.146a2.694,2.694,0,0,0-1.8.611,2.8,2.8,0,0,0-.91,1.78h5.177a2.567,2.567,0,0,0-.756-1.78A2.441,2.441,0,0,0,239.818-7.638Zm9.114,7.8A4.1,4.1,0,0,1,246.6-.457a2.581,2.581,0,0,1-1.134-1.775L246.8-2.61a1.851,1.851,0,0,0,.708,1.2,2.3,2.3,0,0,0,1.419.426,2.832,2.832,0,0,0,.831-.114,1.331,1.331,0,0,0,.637-.426,1.142,1.142,0,0,0,.255-.787,1.147,1.147,0,0,0-.07-.356,1.526,1.526,0,0,0-.141-.286.87.87,0,0,0-.246-.237,3.245,3.245,0,0,0-.3-.185,3.067,3.067,0,0,0-.391-.163q-.259-.092-.417-.141t-.483-.141q-.325-.092-.5-.145a9.372,9.372,0,0,1-.9-.316,3.932,3.932,0,0,1-.729-.417,1.679,1.679,0,0,1-.567-.681,2.3,2.3,0,0,1-.189-.967,2.234,2.234,0,0,1,.422-1.38,2.374,2.374,0,0,1,1.094-.813,4.374,4.374,0,0,1,1.534-.25,3.754,3.754,0,0,1,2.1.563,2.4,2.4,0,0,1,1.05,1.688l-1.248.316a1.655,1.655,0,0,0-.659-1.094,2.1,2.1,0,0,0-1.239-.365,2.139,2.139,0,0,0-1.16.3,1.019,1.019,0,0,0-.483.927.923.923,0,0,0,.127.479,1.521,1.521,0,0,0,.259.338,1.594,1.594,0,0,0,.475.259q.343.136.51.185t.633.163q.088.026.132.035.51.132.831.233a5.105,5.105,0,0,1,.747.316,2.484,2.484,0,0,1,.672.47,2.178,2.178,0,0,1,.422.668,2.358,2.358,0,0,1,.176.932,2.516,2.516,0,0,1-.259,1.165,2.028,2.028,0,0,1-.708.8,3.422,3.422,0,0,1-1.006.435A4.8,4.8,0,0,1,248.933.167ZM265.562-13.5h1.521V0h-1.468l-.035-1.679a3.179,3.179,0,0,1-1.23,1.362,3.429,3.429,0,0,1-1.828.5,3.883,3.883,0,0,1-1.564-.321,3.92,3.92,0,0,1-1.288-.9,4.16,4.16,0,0,1-.87-1.428,5.225,5.225,0,0,1-.321-1.854,4.543,4.543,0,0,1,1.173-3.243,3.788,3.788,0,0,1,2.87-1.248,3.443,3.443,0,0,1,1.806.488A3.2,3.2,0,0,1,265.562-7ZM262.837-1.134a2.587,2.587,0,0,0,2.008-.91,3.283,3.283,0,0,0,.813-2.272,3.277,3.277,0,0,0-.817-2.268,2.586,2.586,0,0,0-2-.914,2.644,2.644,0,0,0-2.021.883,3.25,3.25,0,0,0-.817,2.3,3.25,3.25,0,0,0,.817,2.3A2.644,2.644,0,0,0,262.837-1.134Zm8.112-9.536a.989.989,0,0,1-.725-.3.989.989,0,0,1-.3-.725.975.975,0,0,1,.3-.721,1,1,0,0,1,.725-.3.987.987,0,0,1,.716.3.975.975,0,0,1,.3.721.989.989,0,0,1-.3.725A.979.979,0,0,1,270.949-10.67ZM270.176,0V-8.64h1.529V0Zm6.108-7.119a2.612,2.612,0,0,1,1.072-1.16,3.229,3.229,0,0,1,1.661-.457V-7.3a2.846,2.846,0,0,0-2.008.642,2.68,2.68,0,0,0-.69,2.048V0H274.8V-8.64h1.485Zm11.971,2.628-.018.413h-6.75a3.053,3.053,0,0,0,.826,2.21,2.713,2.713,0,0,0,1.969.769,2.59,2.59,0,0,0,1.433-.413,2.68,2.68,0,0,0,.984-1.143l1.371.29A3.9,3.9,0,0,1,286.594-.51,4.028,4.028,0,0,1,284.3.167a4.174,4.174,0,0,1-3.111-1.2A4.479,4.479,0,0,1,280-4.324,4.458,4.458,0,0,1,281.193-7.6a4.122,4.122,0,0,1,3.063-1.2,3.9,3.9,0,0,1,2.9,1.107A4.376,4.376,0,0,1,288.255-4.491Zm-4-3.146a2.694,2.694,0,0,0-1.8.611,2.8,2.8,0,0,0-.91,1.78h5.177a2.567,2.567,0,0,0-.756-1.78A2.441,2.441,0,0,0,284.256-7.638Zm9.967,7.8a4.161,4.161,0,0,1-3.094-1.239,4.421,4.421,0,0,1-1.222-3.243,4.43,4.43,0,0,1,1.217-3.243,4.158,4.158,0,0,1,3.1-1.239,4.191,4.191,0,0,1,2.5.756,3.815,3.815,0,0,1,1.455,2.1l-1.424.229a2.63,2.63,0,0,0-.976-1.345,2.656,2.656,0,0,0-1.564-.475,2.554,2.554,0,0,0-2,.888,3.382,3.382,0,0,0-.787,2.329A3.365,3.365,0,0,0,292.214-2a2.56,2.56,0,0,0,2,.883,2.656,2.656,0,0,0,1.564-.475,2.63,2.63,0,0,0,.976-1.345l1.424.237a3.819,3.819,0,0,1-1.463,2.1A4.185,4.185,0,0,1,294.223.158ZM303.179,0a2.271,2.271,0,0,1-1.687-.62,2.344,2.344,0,0,1-.615-1.727v-5.08h-1.767V-8.64h.65a1.249,1.249,0,0,0,.954-.3,1.492,1.492,0,0,0,.277-1.015v-1.564h1.415V-8.64h1.986v1.213h-1.986V-2.5a1.31,1.31,0,0,0,.33.954,1.154,1.154,0,0,0,.866.338h.791V0Zm5.3.167a2.94,2.94,0,0,1-1.894-.593,2.13,2.13,0,0,1-.743-1.771,2.517,2.517,0,0,1,.237-1.129,1.991,1.991,0,0,1,.7-.787A4.218,4.218,0,0,1,307.8-4.6a9.384,9.384,0,0,1,1.314-.312l1.4-.229q.765-.141.765-.8a1.51,1.51,0,0,0-.541-1.288,2.2,2.2,0,0,0-1.367-.409,2.243,2.243,0,0,0-1.354.4,1.655,1.655,0,0,0-.642,1.213L306-6.319a2.639,2.639,0,0,1,1.081-1.85,4.039,4.039,0,0,1,2.355-.62,4.777,4.777,0,0,1,1.252.154,3.4,3.4,0,0,1,1.046.483,2.168,2.168,0,0,1,.747.932A3.466,3.466,0,0,1,312.75-5.8v3.568a1.46,1.46,0,0,0,.2.9.854.854,0,0,0,.681.233h.141V0h-.756a1.442,1.442,0,0,1-1.635-1.169h-.07A3.3,3.3,0,0,1,308.479.167Zm.352-1.23a2.305,2.305,0,0,0,1.854-.835,3.438,3.438,0,0,0,.7-2.285l-2.285.439a3.076,3.076,0,0,0-1.34.479,1.114,1.114,0,0,0-.435.945,1.1,1.1,0,0,0,.417.949A1.785,1.785,0,0,0,308.83-1.063Zm9.817,1.23a4.1,4.1,0,0,1-2.329-.624,2.581,2.581,0,0,1-1.134-1.775l1.327-.378a1.851,1.851,0,0,0,.708,1.2,2.3,2.3,0,0,0,1.419.426,2.832,2.832,0,0,0,.831-.114,1.331,1.331,0,0,0,.637-.426,1.142,1.142,0,0,0,.255-.787,1.147,1.147,0,0,0-.07-.356,1.526,1.526,0,0,0-.141-.286.87.87,0,0,0-.246-.237,3.245,3.245,0,0,0-.3-.185,3.067,3.067,0,0,0-.391-.163q-.259-.092-.417-.141t-.483-.141q-.325-.092-.5-.145a9.372,9.372,0,0,1-.9-.316,3.932,3.932,0,0,1-.729-.417,1.679,1.679,0,0,1-.567-.681,2.3,2.3,0,0,1-.189-.967,2.234,2.234,0,0,1,.422-1.38,2.374,2.374,0,0,1,1.094-.813,4.374,4.374,0,0,1,1.534-.25,3.754,3.754,0,0,1,2.1.563,2.4,2.4,0,0,1,1.05,1.688l-1.248.316a1.655,1.655,0,0,0-.659-1.094,2.1,2.1,0,0,0-1.239-.365,2.139,2.139,0,0,0-1.16.3,1.019,1.019,0,0,0-.483.927.923.923,0,0,0,.127.479,1.521,1.521,0,0,0,.259.338,1.594,1.594,0,0,0,.475.259q.343.136.51.185t.633.163q.088.026.132.035.51.132.831.233a5.105,5.105,0,0,1,.747.316,2.484,2.484,0,0,1,.672.47,2.178,2.178,0,0,1,.422.668,2.358,2.358,0,0,1,.176.932,2.516,2.516,0,0,1-.259,1.165,2.028,2.028,0,0,1-.708.8,3.422,3.422,0,0,1-1.006.435A4.8,4.8,0,0,1,318.647.167Zm6.908.009a.987.987,0,0,1-.716-.3.975.975,0,0,1-.3-.721.979.979,0,0,1,.3-.716.979.979,0,0,1,.716-.3.994.994,0,0,1,.721.3.973.973,0,0,1,.308.716.975.975,0,0,1-.3.721A1,1,0,0,1,325.556.176Z" transform="translate(700.106 2325.274)" fill="#00223d"/>
    <path id="Trazado_23868" data-name="Trazado 23868" d="M13.563-3.814A13.148,13.148,0,0,0,13.9-.383V0H10.227L9.912-1.531A4.57,4.57,0,0,1,7.943-.178,7.256,7.256,0,0,1,5.4.273,6.687,6.687,0,0,1,4.088.15,4.462,4.462,0,0,1,2.905-.267,3.589,3.589,0,0,1,1.928-1a3.208,3.208,0,0,1-.656-1.114,4.439,4.439,0,0,1-.246-1.524,4.227,4.227,0,0,1,.26-1.524A3.573,3.573,0,0,1,1.969-6.3a4.146,4.146,0,0,1,1.107-.834,8.474,8.474,0,0,1,1.395-.6,16.663,16.663,0,0,1,1.668-.437L8.449-8.7A2.548,2.548,0,0,0,9.5-9.14a.886.886,0,0,0,.308-.7,1.45,1.45,0,0,0-.69-1.354,3.224,3.224,0,0,0-1.675-.41q-2.42,0-2.748,2.146L1.2-10.09A4.719,4.719,0,0,1,3.24-13.3a8.1,8.1,0,0,1,4.416-1.032q5.906,0,5.906,5.072ZM6.631-2.393A3.167,3.167,0,0,0,9.064-3.411a4.292,4.292,0,0,0,.943-3.015l-3.336.943a3.942,3.942,0,0,0-1.4.574A1.179,1.179,0,0,0,4.785-3.9,1.309,1.309,0,0,0,5.3-2.782,2.15,2.15,0,0,0,6.631-2.393Zm13.284-.131H22.1V9H19.811V-.163L17.164,2.3V-.059Z" transform="translate(629 2214)" fill="#002b45"/>
    <path id="Trazado_23869" data-name="Trazado 23869" d="M13.563-3.814A13.148,13.148,0,0,0,13.9-.383V0H10.227L9.912-1.531A4.57,4.57,0,0,1,7.943-.178,7.256,7.256,0,0,1,5.4.273,6.687,6.687,0,0,1,4.088.15,4.462,4.462,0,0,1,2.905-.267,3.589,3.589,0,0,1,1.928-1a3.208,3.208,0,0,1-.656-1.114,4.439,4.439,0,0,1-.246-1.524,4.227,4.227,0,0,1,.26-1.524A3.573,3.573,0,0,1,1.969-6.3a4.146,4.146,0,0,1,1.107-.834,8.474,8.474,0,0,1,1.395-.6,16.663,16.663,0,0,1,1.668-.437L8.449-8.7A2.548,2.548,0,0,0,9.5-9.14a.886.886,0,0,0,.308-.7,1.45,1.45,0,0,0-.69-1.354,3.224,3.224,0,0,0-1.675-.41q-2.42,0-2.748,2.146L1.2-10.09A4.719,4.719,0,0,1,3.24-13.3a8.1,8.1,0,0,1,4.416-1.032q5.906,0,5.906,5.072ZM6.631-2.393A3.167,3.167,0,0,0,9.064-3.411a4.292,4.292,0,0,0,.943-3.015l-3.336.943a3.942,3.942,0,0,0-1.4.574A1.179,1.179,0,0,0,4.785-3.9,1.309,1.309,0,0,0,5.3-2.782,2.15,2.15,0,0,0,6.631-2.393ZM19.365,6.95h4.912V9H16.151V7.269l4.586-4.681a2.886,2.886,0,0,0,1-1.986,1.4,1.4,0,0,0-.411-1.069,1.617,1.617,0,0,0-1.16-.391Q18.527-.857,18.527,1v.853l-2.289-.231V1.049a3.594,3.594,0,0,1,1.053-2.771A4.032,4.032,0,0,1,20.146-2.7a4.223,4.223,0,0,1,2.779.885A2.983,2.983,0,0,1,24,.618,3.449,3.449,0,0,1,23.635,2.2a6.6,6.6,0,0,1-1.152,1.539Z" transform="translate(629 2266.717)" fill="#002b45"/>
    <path id="Trazado_23870" data-name="Trazado 23870" d="M0,0H38.526V1.605H0Z" transform="translate(620.594 2234.583)"/>
    <path id="Trazado_23878" data-name="Trazado 23878" d="M8.395.26A7.509,7.509,0,0,1,2.967-1.764,6.989,6.989,0,0,1,.861-7.041a6.973,6.973,0,0,1,2.1-5.277,7.533,7.533,0,0,1,5.435-2.01,7.489,7.489,0,0,1,4.553,1.354A6.043,6.043,0,0,1,15.3-9.16l-3.637.4a3.116,3.116,0,0,0-1.176-1.846,3.575,3.575,0,0,0-2.133-.615,3.224,3.224,0,0,0-2.57,1.148A4.5,4.5,0,0,0,4.8-7.041a4.508,4.508,0,0,0,.984,3.028,3.216,3.216,0,0,0,2.57,1.155,3.544,3.544,0,0,0,2.126-.615,3.188,3.188,0,0,0,1.183-1.846l3.637.4a6.059,6.059,0,0,1-2.372,3.814A7.458,7.458,0,0,1,8.395.26ZM20.626-2.524h2.185V9H20.522V-.163L17.875,2.3V-.059Z" transform="translate(765 2214)" fill="#002b45"/>
    <path id="Trazado_23879" data-name="Trazado 23879" d="M8.395.26A7.509,7.509,0,0,1,2.967-1.764,6.989,6.989,0,0,1,.861-7.041a6.973,6.973,0,0,1,2.1-5.277,7.533,7.533,0,0,1,5.435-2.01,7.489,7.489,0,0,1,4.553,1.354A6.043,6.043,0,0,1,15.3-9.16l-3.637.4a3.116,3.116,0,0,0-1.176-1.846,3.575,3.575,0,0,0-2.133-.615,3.224,3.224,0,0,0-2.57,1.148A4.5,4.5,0,0,0,4.8-7.041a4.508,4.508,0,0,0,.984,3.028,3.216,3.216,0,0,0,2.57,1.155,3.544,3.544,0,0,0,2.126-.615,3.188,3.188,0,0,0,1.183-1.846l3.637.4a6.059,6.059,0,0,1-2.372,3.814A7.458,7.458,0,0,1,8.395.26ZM20.076,6.95h4.912V9H16.862V7.269l4.586-4.681a2.886,2.886,0,0,0,1-1.986,1.4,1.4,0,0,0-.411-1.069,1.617,1.617,0,0,0-1.16-.391Q19.238-.857,19.238,1v.853L16.95,1.623V1.049A3.594,3.594,0,0,1,18-1.722,4.032,4.032,0,0,1,20.857-2.7a4.223,4.223,0,0,1,2.779.885A2.983,2.983,0,0,1,24.709.618,3.449,3.449,0,0,1,24.346,2.2a6.6,6.6,0,0,1-1.152,1.539Z" transform="translate(765 2266.717)" fill="#002b45"/>
    <path id="Trazado_23880" data-name="Trazado 23880" d="M0,0H38.526V1.605H0Z" transform="translate(756.594 2234.583)"/>
    <path id="Trazado_23872" data-name="Trazado 23872" d="M10.295-14.328a6.8,6.8,0,0,1,2.611.506,6.516,6.516,0,0,1,2.153,1.429,6.512,6.512,0,0,1,1.456,2.317A8.548,8.548,0,0,1,17.049-7a8.548,8.548,0,0,1-.533,3.076A6.512,6.512,0,0,1,15.06-1.606,6.516,6.516,0,0,1,12.906-.178a6.8,6.8,0,0,1-2.611.506A6.07,6.07,0,0,1,7.636-.239,3.931,3.931,0,0,1,5.865-1.832L5.77,0H2.037V-21H5.975v8.654a3.924,3.924,0,0,1,1.757-1.463A6.18,6.18,0,0,1,10.295-14.328ZM9.379-2.939a3.542,3.542,0,0,0,2.673-1.107A4.093,4.093,0,0,0,13.111-7a4.112,4.112,0,0,0-1.06-2.967,3.542,3.542,0,0,0-2.673-1.107A3.5,3.5,0,0,0,6.727-9.946,4.113,4.113,0,0,0,5.66-7,4.1,4.1,0,0,0,6.72-4.061,3.505,3.505,0,0,0,9.379-2.939Zm13.161.416h2.185V9H22.436V-.163L19.789,2.3V-.059Z" transform="translate(697 2214)" fill="#002b45"/>
    <path id="Trazado_23873" data-name="Trazado 23873" d="M10.295-14.328a6.8,6.8,0,0,1,2.611.506,6.516,6.516,0,0,1,2.153,1.429,6.512,6.512,0,0,1,1.456,2.317A8.548,8.548,0,0,1,17.049-7a8.548,8.548,0,0,1-.533,3.076A6.512,6.512,0,0,1,15.06-1.606,6.516,6.516,0,0,1,12.906-.178a6.8,6.8,0,0,1-2.611.506A6.07,6.07,0,0,1,7.636-.239,3.931,3.931,0,0,1,5.865-1.832L5.77,0H2.037V-21H5.975v8.654a3.924,3.924,0,0,1,1.757-1.463A6.18,6.18,0,0,1,10.295-14.328ZM9.379-2.939a3.542,3.542,0,0,0,2.673-1.107A4.093,4.093,0,0,0,13.111-7a4.112,4.112,0,0,0-1.06-2.967,3.542,3.542,0,0,0-2.673-1.107A3.5,3.5,0,0,0,6.727-9.946,4.113,4.113,0,0,0,5.66-7,4.1,4.1,0,0,0,6.72-4.061,3.505,3.505,0,0,0,9.379-2.939ZM21.99,6.95H26.9V9H18.776V7.269l4.586-4.681a2.886,2.886,0,0,0,1-1.986,1.4,1.4,0,0,0-.411-1.069,1.617,1.617,0,0,0-1.16-.391Q21.152-.857,21.152,1v.853l-2.289-.231V1.049a3.594,3.594,0,0,1,1.053-2.771A4.032,4.032,0,0,1,22.771-2.7a4.223,4.223,0,0,1,2.779.885A2.983,2.983,0,0,1,26.623.618,3.449,3.449,0,0,1,26.26,2.2a6.6,6.6,0,0,1-1.152,1.539Z" transform="translate(697 2266.717)" fill="#002b45"/>
    <path id="Trazado_23874" data-name="Trazado 23874" d="M0,0H38.526V1.605H0Z" transform="translate(688.594 2234.583)"/>
    <path id="Trazado_23882" data-name="Trazado 23882" d="M12-21h3.938V0H12.209l-.1-1.832A4.014,4.014,0,0,1,10.329-.239,6.006,6.006,0,0,1,7.7.328,6.836,6.836,0,0,1,5.072-.178,6.516,6.516,0,0,1,2.919-1.606,6.512,6.512,0,0,1,1.463-3.924,8.548,8.548,0,0,1,.93-7a7.99,7.99,0,0,1,.93-3.917,6.37,6.37,0,0,1,2.454-2.55A6.758,6.758,0,0,1,7.7-14.328a6.156,6.156,0,0,1,2.55.513A3.981,3.981,0,0,1,12-12.359ZM8.6-2.939a3.505,3.505,0,0,0,2.659-1.121A4.1,4.1,0,0,0,12.318-7a4.113,4.113,0,0,0-1.066-2.946A3.5,3.5,0,0,0,8.6-11.074,3.542,3.542,0,0,0,5.927-9.967,4.112,4.112,0,0,0,4.867-7a4.093,4.093,0,0,0,1.06,2.953A3.542,3.542,0,0,0,8.6-2.939Z" transform="translate(833 2214)" fill="#002b45"/>
    <path id="Trazado_23883" data-name="Trazado 23883" d="M.109,0l5.77-7.041L.109-14.055H5.031l3.227,4.43,3.254-4.43h4.881L10.609-7.027,16.393,0H11.512L8.285-4.4,5.045,0Z" transform="translate(833 2268.717)" fill="#002b45"/>
    <path id="Trazado_23884" data-name="Trazado 23884" d="M0,0H38.526V1.605H0Z" transform="translate(824.594 2234.583)"/>
    <path id="Trazado_23887" data-name="Trazado 23887" d="M13.563-3.814A13.148,13.148,0,0,0,13.9-.383V0H10.227L9.912-1.531A4.57,4.57,0,0,1,7.943-.178,7.256,7.256,0,0,1,5.4.273,6.687,6.687,0,0,1,4.088.15,4.462,4.462,0,0,1,2.905-.267,3.589,3.589,0,0,1,1.928-1a3.208,3.208,0,0,1-.656-1.114,4.439,4.439,0,0,1-.246-1.524,4.227,4.227,0,0,1,.26-1.524A3.573,3.573,0,0,1,1.969-6.3a4.146,4.146,0,0,1,1.107-.834,8.474,8.474,0,0,1,1.395-.6,16.663,16.663,0,0,1,1.668-.437L8.449-8.7A2.548,2.548,0,0,0,9.5-9.14a.886.886,0,0,0,.308-.7,1.45,1.45,0,0,0-.69-1.354,3.224,3.224,0,0,0-1.675-.41q-2.42,0-2.748,2.146L1.2-10.09A4.719,4.719,0,0,1,3.24-13.3a8.1,8.1,0,0,1,4.416-1.032q5.906,0,5.906,5.072ZM6.631-2.393A3.167,3.167,0,0,0,9.064-3.411a4.292,4.292,0,0,0,.943-3.015l-3.336.943a3.942,3.942,0,0,0-1.4.574A1.179,1.179,0,0,0,4.785-3.9,1.309,1.309,0,0,0,5.3-2.782,2.15,2.15,0,0,0,6.631-2.393ZM19.365,6.95h4.912V9H16.151V7.269l4.586-4.681a2.886,2.886,0,0,0,1-1.986,1.4,1.4,0,0,0-.411-1.069,1.617,1.617,0,0,0-1.16-.391Q18.527-.857,18.527,1v.853l-2.289-.231V1.049a3.594,3.594,0,0,1,1.053-2.771A4.032,4.032,0,0,1,20.146-2.7a4.223,4.223,0,0,1,2.779.885A2.983,2.983,0,0,1,24,.618,3.449,3.449,0,0,1,23.635,2.2a6.6,6.6,0,0,1-1.152,1.539ZM39.644-14.328a6.8,6.8,0,0,1,2.611.506,6.516,6.516,0,0,1,2.153,1.429,6.512,6.512,0,0,1,1.456,2.317A8.548,8.548,0,0,1,46.4-7a8.548,8.548,0,0,1-.533,3.076,6.512,6.512,0,0,1-1.456,2.317A6.516,6.516,0,0,1,42.256-.178a6.8,6.8,0,0,1-2.611.506,6.07,6.07,0,0,1-2.659-.567,3.931,3.931,0,0,1-1.771-1.593L35.119,0H31.386V-21h3.937v8.654a3.924,3.924,0,0,1,1.757-1.463A6.18,6.18,0,0,1,39.644-14.328ZM38.728-2.939A3.542,3.542,0,0,0,41.4-4.047,4.093,4.093,0,0,0,42.461-7,4.112,4.112,0,0,0,41.4-9.967a3.542,3.542,0,0,0-2.673-1.107,3.5,3.5,0,0,0-2.652,1.128A4.113,4.113,0,0,0,35.009-7a4.1,4.1,0,0,0,1.06,2.939A3.505,3.505,0,0,0,38.728-2.939ZM51.339,6.95h4.912V9H48.125V7.269l4.586-4.681a2.886,2.886,0,0,0,1-1.986A1.4,1.4,0,0,0,53.3-.466a1.617,1.617,0,0,0-1.16-.391Q50.5-.857,50.5,1v.853l-2.289-.231V1.049a3.594,3.594,0,0,1,1.053-2.771A4.032,4.032,0,0,1,52.121-2.7a4.223,4.223,0,0,1,2.779.885A2.983,2.983,0,0,1,55.972.618,3.449,3.449,0,0,1,55.61,2.2a6.6,6.6,0,0,1-1.152,1.539ZM69.718.26A7.509,7.509,0,0,1,64.29-1.764a6.989,6.989,0,0,1-2.105-5.277,6.973,6.973,0,0,1,2.1-5.277,7.533,7.533,0,0,1,5.435-2.01,7.489,7.489,0,0,1,4.553,1.354A6.043,6.043,0,0,1,76.622-9.16l-3.637.4a3.116,3.116,0,0,0-1.176-1.846,3.575,3.575,0,0,0-2.133-.615,3.224,3.224,0,0,0-2.57,1.148,4.5,4.5,0,0,0-.984,3.035,4.508,4.508,0,0,0,.984,3.028,3.216,3.216,0,0,0,2.57,1.155A3.544,3.544,0,0,0,71.8-3.473a3.188,3.188,0,0,0,1.183-1.846l3.637.4A6.059,6.059,0,0,1,74.25-1.107,7.458,7.458,0,0,1,69.718.26ZM81.4,6.95h4.912V9H78.186V7.269l4.586-4.681a2.886,2.886,0,0,0,1-1.986,1.4,1.4,0,0,0-.411-1.069A1.617,1.617,0,0,0,82.2-.857Q80.562-.857,80.562,1v.853l-2.289-.231V1.049a3.594,3.594,0,0,1,1.053-2.771A4.032,4.032,0,0,1,82.181-2.7a4.223,4.223,0,0,1,2.779.885A2.983,2.983,0,0,1,86.033.618,3.449,3.449,0,0,1,85.67,2.2a6.6,6.6,0,0,1-1.152,1.539ZM103.388-21h3.938V0h-3.732l-.1-1.832a4.014,4.014,0,0,1-1.784,1.593,6.006,6.006,0,0,1-2.632.567,6.836,6.836,0,0,1-2.625-.506A6.516,6.516,0,0,1,94.3-1.606a6.512,6.512,0,0,1-1.456-2.317A8.548,8.548,0,0,1,92.314-7a7.99,7.99,0,0,1,.93-3.917,6.37,6.37,0,0,1,2.454-2.55,6.758,6.758,0,0,1,3.384-.861,6.156,6.156,0,0,1,2.55.513,3.981,3.981,0,0,1,1.757,1.456Zm-3.4,18.061a3.505,3.505,0,0,0,2.659-1.121A4.1,4.1,0,0,0,103.7-7a4.113,4.113,0,0,0-1.066-2.946,3.5,3.5,0,0,0-2.652-1.128,3.542,3.542,0,0,0-2.673,1.107A4.112,4.112,0,0,0,96.251-7a4.093,4.093,0,0,0,1.06,2.953A3.542,3.542,0,0,0,99.983-2.939Z" transform="translate(978 2214)" fill="#002b45"/>
    <path id="Trazado_23888" data-name="Trazado 23888" d="M13.563-3.814A13.148,13.148,0,0,0,13.9-.383V0H10.227L9.912-1.531A4.57,4.57,0,0,1,7.943-.178,7.256,7.256,0,0,1,5.4.273,6.687,6.687,0,0,1,4.088.15,4.462,4.462,0,0,1,2.905-.267,3.589,3.589,0,0,1,1.928-1a3.208,3.208,0,0,1-.656-1.114,4.439,4.439,0,0,1-.246-1.524,4.227,4.227,0,0,1,.26-1.524A3.573,3.573,0,0,1,1.969-6.3a4.146,4.146,0,0,1,1.107-.834,8.474,8.474,0,0,1,1.395-.6,16.663,16.663,0,0,1,1.668-.437L8.449-8.7A2.548,2.548,0,0,0,9.5-9.14a.886.886,0,0,0,.308-.7,1.45,1.45,0,0,0-.69-1.354,3.224,3.224,0,0,0-1.675-.41q-2.42,0-2.748,2.146L1.2-10.09A4.719,4.719,0,0,1,3.24-13.3a8.1,8.1,0,0,1,4.416-1.032q5.906,0,5.906,5.072ZM6.631-2.393A3.167,3.167,0,0,0,9.064-3.411a4.292,4.292,0,0,0,.943-3.015l-3.336.943a3.942,3.942,0,0,0-1.4.574A1.179,1.179,0,0,0,4.785-3.9,1.309,1.309,0,0,0,5.3-2.782,2.15,2.15,0,0,0,6.631-2.393Zm13.284-.131H22.1V9H19.811V-.163L17.164,2.3V-.059Zm19.729-11.8a6.8,6.8,0,0,1,2.611.506,6.516,6.516,0,0,1,2.153,1.429,6.512,6.512,0,0,1,1.456,2.317A8.548,8.548,0,0,1,46.4-7a8.548,8.548,0,0,1-.533,3.076,6.512,6.512,0,0,1-1.456,2.317A6.516,6.516,0,0,1,42.256-.178a6.8,6.8,0,0,1-2.611.506,6.07,6.07,0,0,1-2.659-.567,3.931,3.931,0,0,1-1.771-1.593L35.119,0H31.386V-21h3.937v8.654a3.924,3.924,0,0,1,1.757-1.463A6.18,6.18,0,0,1,39.644-14.328ZM38.728-2.939A3.542,3.542,0,0,0,41.4-4.047,4.093,4.093,0,0,0,42.461-7,4.112,4.112,0,0,0,41.4-9.967a3.542,3.542,0,0,0-2.673-1.107,3.5,3.5,0,0,0-2.652,1.128A4.113,4.113,0,0,0,35.009-7a4.1,4.1,0,0,0,1.06,2.939A3.505,3.505,0,0,0,38.728-2.939Zm13.161.416h2.185V9H51.786V-.163L49.138,2.3V-.059ZM69.718.26A7.509,7.509,0,0,1,64.29-1.764a6.989,6.989,0,0,1-2.105-5.277,6.973,6.973,0,0,1,2.1-5.277,7.533,7.533,0,0,1,5.435-2.01,7.489,7.489,0,0,1,4.553,1.354A6.043,6.043,0,0,1,76.622-9.16l-3.637.4a3.116,3.116,0,0,0-1.176-1.846,3.575,3.575,0,0,0-2.133-.615,3.224,3.224,0,0,0-2.57,1.148,4.5,4.5,0,0,0-.984,3.035,4.508,4.508,0,0,0,.984,3.028,3.216,3.216,0,0,0,2.57,1.155A3.544,3.544,0,0,0,71.8-3.473a3.188,3.188,0,0,0,1.183-1.846l3.637.4A6.059,6.059,0,0,1,74.25-1.107,7.458,7.458,0,0,1,69.718.26ZM81.95-2.524h2.185V9H81.846V-.163L79.2,2.3V-.059Z" transform="translate(992 2266.717)" fill="#002b45"/>
    <path id="Trazado_23886" data-name="Trazado 23886" d="M0,0H130.526V1.605H0Z" transform="translate(967 2234.583)"/>
    <path id="Trazado_23875" data-name="Trazado 23875" d="M4.427.437A2.107,2.107,0,0,1,2.869-.218a2.156,2.156,0,0,1-.645-1.568,2.189,2.189,0,0,1,.645-1.578A2.092,2.092,0,0,1,4.427-4.03a2.146,2.146,0,0,1,1.588.665A2.173,2.173,0,0,1,6.67-1.787,2.14,2.14,0,0,1,6.015-.218,2.163,2.163,0,0,1,4.427.437Z" transform="translate(670 2237)"/>
    <path id="Trazado_23881" data-name="Trazado 23881" d="M4.427.437A2.107,2.107,0,0,1,2.869-.218a2.156,2.156,0,0,1-.645-1.568,2.189,2.189,0,0,1,.645-1.578A2.092,2.092,0,0,1,4.427-4.03a2.146,2.146,0,0,1,1.588.665A2.173,2.173,0,0,1,6.67-1.787,2.14,2.14,0,0,1,6.015-.218,2.163,2.163,0,0,1,4.427.437Z" transform="translate(806 2237)"/>
    <path id="Trazado_23876" data-name="Trazado 23876" d="M4.427.437A2.107,2.107,0,0,1,2.869-.218a2.156,2.156,0,0,1-.645-1.568,2.189,2.189,0,0,1,.645-1.578A2.092,2.092,0,0,1,4.427-4.03a2.146,2.146,0,0,1,1.588.665A2.173,2.173,0,0,1,6.67-1.787,2.14,2.14,0,0,1,6.015-.218,2.163,2.163,0,0,1,4.427.437Z" transform="translate(738 2237)"/>
    <path id="Trazado_23885" data-name="Trazado 23885" d="M4.949-8.682a2.161,2.161,0,0,1-1.593-.67,2.195,2.195,0,0,1-.663-1.6,2.145,2.145,0,0,1,.67-1.579,2.179,2.179,0,0,1,1.586-.663,2.2,2.2,0,0,1,1.593.663,2.135,2.135,0,0,1,.677,1.579,2.172,2.172,0,0,1-.677,1.6A2.19,2.19,0,0,1,4.949-8.682ZM1.49,5.031,3.2-3.91H7.246L4.307,5.031ZM38.309,0l5.77-7.041-5.77-7.014H43.23l3.227,4.43,3.254-4.43h4.881L48.809-7.027,54.592,0H49.711L46.484-4.4,43.244,0ZM65.051-11.129v-2.994H77.123v2.994Zm0,6V-8.121H77.123v2.994Z" transform="translate(872 2243)" fill="#002b45"/>
    <path id="Trazado_23864" data-name="Trazado 23864" d="M13.563-3.814A13.148,13.148,0,0,0,13.9-.383V0H10.227L9.912-1.531A4.57,4.57,0,0,1,7.943-.178,7.256,7.256,0,0,1,5.4.273,6.687,6.687,0,0,1,4.088.15,4.462,4.462,0,0,1,2.905-.267,3.589,3.589,0,0,1,1.928-1a3.208,3.208,0,0,1-.656-1.114,4.439,4.439,0,0,1-.246-1.524,4.227,4.227,0,0,1,.26-1.524A3.573,3.573,0,0,1,1.969-6.3a4.146,4.146,0,0,1,1.107-.834,8.474,8.474,0,0,1,1.395-.6,16.663,16.663,0,0,1,1.668-.437L8.449-8.7A2.548,2.548,0,0,0,9.5-9.14a.886.886,0,0,0,.308-.7,1.45,1.45,0,0,0-.69-1.354,3.224,3.224,0,0,0-1.675-.41q-2.42,0-2.748,2.146L1.2-10.09A4.719,4.719,0,0,1,3.24-13.3a8.1,8.1,0,0,1,4.416-1.032q5.906,0,5.906,5.072ZM6.631-2.393A3.167,3.167,0,0,0,9.064-3.411a4.292,4.292,0,0,0,.943-3.015l-3.336.943a3.942,3.942,0,0,0-1.4.574A1.179,1.179,0,0,0,4.785-3.9,1.309,1.309,0,0,0,5.3-2.782,2.15,2.15,0,0,0,6.631-2.393Zm13.284-.131H22.1V9H19.811V-.163L17.164,2.3V-.059Zm80.947-11.8a6.8,6.8,0,0,1,2.611.506,6.516,6.516,0,0,1,2.153,1.429,6.512,6.512,0,0,1,1.456,2.317A8.548,8.548,0,0,1,107.616-7a8.548,8.548,0,0,1-.533,3.076,6.512,6.512,0,0,1-1.456,2.317,6.516,6.516,0,0,1-2.153,1.429,6.8,6.8,0,0,1-2.611.506A6.07,6.07,0,0,1,98.2-.239a3.931,3.931,0,0,1-1.771-1.593L96.337,0H92.6V-21h3.938v8.654A3.924,3.924,0,0,1,98.3-13.809,6.18,6.18,0,0,1,100.863-14.328ZM99.947-2.939a3.542,3.542,0,0,0,2.673-1.107A4.093,4.093,0,0,0,103.679-7a4.112,4.112,0,0,0-1.06-2.967,3.542,3.542,0,0,0-2.673-1.107,3.5,3.5,0,0,0-2.652,1.128A4.113,4.113,0,0,0,96.228-7a4.1,4.1,0,0,0,1.06,2.939A3.505,3.505,0,0,0,99.947-2.939Zm13.161.416h2.185V9H113V-.163L110.356,2.3V-.059ZM192.155.26a7.509,7.509,0,0,1-5.428-2.023,6.989,6.989,0,0,1-2.105-5.277,6.973,6.973,0,0,1,2.1-5.277,7.533,7.533,0,0,1,5.435-2.01,7.489,7.489,0,0,1,4.553,1.354,6.043,6.043,0,0,1,2.352,3.814l-3.637.4a3.116,3.116,0,0,0-1.176-1.846,3.575,3.575,0,0,0-2.133-.615,3.224,3.224,0,0,0-2.57,1.148,4.5,4.5,0,0,0-.984,3.035,4.508,4.508,0,0,0,.984,3.028,3.216,3.216,0,0,0,2.57,1.155,3.544,3.544,0,0,0,2.126-.615,3.188,3.188,0,0,0,1.183-1.846l3.637.4a6.059,6.059,0,0,1-2.372,3.814A7.458,7.458,0,0,1,192.155.26Zm12.232-2.783h2.185V9h-2.289V-.163L201.635,2.3V-.059ZM287.043-21h3.938V0h-3.732l-.1-1.832a4.014,4.014,0,0,1-1.784,1.593,6.006,6.006,0,0,1-2.632.567,6.836,6.836,0,0,1-2.625-.506,6.516,6.516,0,0,1-2.153-1.429A6.512,6.512,0,0,1,276.5-3.924,8.548,8.548,0,0,1,275.969-7a7.991,7.991,0,0,1,.93-3.917,6.37,6.37,0,0,1,2.454-2.55,6.758,6.758,0,0,1,3.384-.861,6.156,6.156,0,0,1,2.55.513,3.981,3.981,0,0,1,1.757,1.456Zm-3.4,18.061A3.505,3.505,0,0,0,286.3-4.061,4.1,4.1,0,0,0,287.357-7a4.113,4.113,0,0,0-1.066-2.946,3.5,3.5,0,0,0-2.652-1.128,3.542,3.542,0,0,0-2.673,1.107A4.112,4.112,0,0,0,279.906-7a4.093,4.093,0,0,0,1.06,2.953A3.542,3.542,0,0,0,283.638-2.939Z" transform="translate(277.405 2214)" fill="#002b45"/>
    <path id="Trazado_23866" data-name="Trazado 23866" d="M13.563-3.814A13.148,13.148,0,0,0,13.9-.383V0H10.227L9.912-1.531A4.57,4.57,0,0,1,7.943-.178,7.256,7.256,0,0,1,5.4.273,6.687,6.687,0,0,1,4.088.15,4.462,4.462,0,0,1,2.905-.267,3.589,3.589,0,0,1,1.928-1a3.208,3.208,0,0,1-.656-1.114,4.439,4.439,0,0,1-.246-1.524,4.227,4.227,0,0,1,.26-1.524A3.573,3.573,0,0,1,1.969-6.3a4.146,4.146,0,0,1,1.107-.834,8.474,8.474,0,0,1,1.395-.6,16.663,16.663,0,0,1,1.668-.437L8.449-8.7A2.548,2.548,0,0,0,9.5-9.14a.886.886,0,0,0,.308-.7,1.45,1.45,0,0,0-.69-1.354,3.224,3.224,0,0,0-1.675-.41q-2.42,0-2.748,2.146L1.2-10.09A4.719,4.719,0,0,1,3.24-13.3a8.1,8.1,0,0,1,4.416-1.032q5.906,0,5.906,5.072ZM6.631-2.393A3.167,3.167,0,0,0,9.064-3.411a4.292,4.292,0,0,0,.943-3.015l-3.336.943a3.942,3.942,0,0,0-1.4.574A1.179,1.179,0,0,0,4.785-3.9,1.309,1.309,0,0,0,5.3-2.782,2.15,2.15,0,0,0,6.631-2.393ZM19.365,6.95h4.912V9H16.151V7.269l4.586-4.681a2.886,2.886,0,0,0,1-1.986,1.4,1.4,0,0,0-.411-1.069,1.617,1.617,0,0,0-1.16-.391Q18.527-.857,18.527,1v.853l-2.289-.231V1.049a3.594,3.594,0,0,1,1.053-2.771A4.032,4.032,0,0,1,20.146-2.7a4.223,4.223,0,0,1,2.779.885A2.983,2.983,0,0,1,24,.618,3.449,3.449,0,0,1,23.635,2.2a6.6,6.6,0,0,1-1.152,1.539ZM79.042-14.328a6.8,6.8,0,0,1,2.611.506,6.516,6.516,0,0,1,2.153,1.429,6.512,6.512,0,0,1,1.456,2.317A8.548,8.548,0,0,1,85.8-7a8.548,8.548,0,0,1-.533,3.076,6.512,6.512,0,0,1-1.456,2.317A6.516,6.516,0,0,1,81.654-.178a6.8,6.8,0,0,1-2.611.506,6.07,6.07,0,0,1-2.659-.567,3.931,3.931,0,0,1-1.771-1.593L74.517,0H70.784V-21h3.938v8.654a3.924,3.924,0,0,1,1.757-1.463A6.18,6.18,0,0,1,79.042-14.328ZM78.126-2.939A3.542,3.542,0,0,0,80.8-4.047,4.093,4.093,0,0,0,81.859-7,4.112,4.112,0,0,0,80.8-9.967a3.542,3.542,0,0,0-2.673-1.107,3.5,3.5,0,0,0-2.652,1.128A4.113,4.113,0,0,0,74.407-7a4.1,4.1,0,0,0,1.06,2.939A3.505,3.505,0,0,0,78.126-2.939ZM90.737,6.95H95.65V9H87.523V7.269l4.586-4.681a2.886,2.886,0,0,0,1-1.986,1.4,1.4,0,0,0-.411-1.069,1.617,1.617,0,0,0-1.16-.391Q89.9-.857,89.9,1v.853l-2.289-.231V1.049a3.594,3.594,0,0,1,1.053-2.771A4.032,4.032,0,0,1,91.519-2.7a4.223,4.223,0,0,1,2.779.885A2.983,2.983,0,0,1,95.371.618,3.449,3.449,0,0,1,95.008,2.2a6.6,6.6,0,0,1-1.152,1.539ZM148.514.26a7.509,7.509,0,0,1-5.428-2.023,6.989,6.989,0,0,1-2.105-5.277,6.973,6.973,0,0,1,2.1-5.277,7.533,7.533,0,0,1,5.435-2.01,7.489,7.489,0,0,1,4.553,1.354,6.043,6.043,0,0,1,2.352,3.814l-3.637.4a3.116,3.116,0,0,0-1.176-1.846,3.575,3.575,0,0,0-2.133-.615,3.224,3.224,0,0,0-2.57,1.148,4.5,4.5,0,0,0-.984,3.035,4.508,4.508,0,0,0,.984,3.028,3.216,3.216,0,0,0,2.57,1.155,3.544,3.544,0,0,0,2.126-.615,3.188,3.188,0,0,0,1.183-1.846l3.637.4a6.059,6.059,0,0,1-2.372,3.814A7.458,7.458,0,0,1,148.514.26ZM160.2,6.95h4.912V9h-8.126V7.269l4.586-4.681a2.886,2.886,0,0,0,1-1.986,1.4,1.4,0,0,0-.411-1.069,1.617,1.617,0,0,0-1.16-.391q-1.635,0-1.635,1.858v.853l-2.289-.231V1.049a3.594,3.594,0,0,1,1.053-2.771,4.032,4.032,0,0,1,2.855-.977,4.223,4.223,0,0,1,2.779.885A2.983,2.983,0,0,1,164.829.618a3.449,3.449,0,0,1-.363,1.579,6.6,6.6,0,0,1-1.152,1.539ZM209.687,0l5.77-7.041-5.77-7.014h4.922l3.227,4.43,3.254-4.43h4.881l-5.783,7.027L225.971,0H221.09l-3.227-4.4L214.623,0Z" transform="translate(277 2264.717)" fill="#002b45"/>
    <g id="Grupo_14461" data-name="Grupo 14461" transform="translate(9 546)">
      <rect id="Rectngulo_3375" data-name="Rectngulo 3375" width="30.98" height="1.766" transform="translate(318.433 1657.874)" fill="#ff9100"/>
      <g id="Grupo_13933" data-name="Grupo 13933" transform="translate(-290.122 1145.333)">
        <g id="Grupo_13932" data-name="Grupo 13932">
          <path id="Trazado_21578" data-name="Trazado 21578" d="M633.684,520.643l-1.2-1.293,6.377-5.926L632.48,507.5l1.2-1.293,7.765,7.221Z" fill="#ff9100"/>
        </g>
      </g>
    </g>
    <g id="Grupo_14466" data-name="Grupo 14466" transform="translate(-11 600)">
      <rect id="Rectngulo_3375-2" data-name="Rectngulo 3375" width="30.98" height="1.766" transform="translate(318.433 1657.874)" fill="#ff9100"/>
      <g id="Grupo_13933-2" data-name="Grupo 13933" transform="translate(-290.122 1145.333)">
        <g id="Grupo_13932-2" data-name="Grupo 13932">
          <path id="Trazado_21578-2" data-name="Trazado 21578" d="M633.684,520.643l-1.2-1.293,6.377-5.926L632.48,507.5l1.2-1.293,7.765,7.221Z" fill="#ff9100"/>
        </g>
      </g>
    </g>
    <g id="Grupo_14462" data-name="Grupo 14462" transform="translate(62 600)">
      <rect id="Rectngulo_3375-3" data-name="Rectngulo 3375" width="30.98" height="1.766" transform="translate(318.433 1657.874)" fill="#ff9100"/>
      <g id="Grupo_13933-3" data-name="Grupo 13933" transform="translate(-290.122 1145.333)">
        <g id="Grupo_13932-3" data-name="Grupo 13932">
          <path id="Trazado_21578-3" data-name="Trazado 21578" d="M633.684,520.643l-1.2-1.293,6.377-5.926L632.48,507.5l1.2-1.293,7.765,7.221Z" fill="#ff9100"/>
        </g>
      </g>
    </g>
    <g id="Grupo_14457" data-name="Grupo 14457" transform="translate(132 600)">
      <rect id="Rectngulo_3375-4" data-name="Rectngulo 3375" width="30.98" height="1.766" transform="translate(318.433 1657.874)" fill="#ff9100"/>
      <g id="Grupo_13933-4" data-name="Grupo 13933" transform="translate(-290.122 1145.333)">
        <g id="Grupo_13932-4" data-name="Grupo 13932">
          <path id="Trazado_21578-4" data-name="Trazado 21578" d="M633.684,520.643l-1.2-1.293,6.377-5.926L632.48,507.5l1.2-1.293,7.765,7.221Z" fill="#ff9100"/>
        </g>
      </g>
    </g>
    <g id="Grupo_14463" data-name="Grupo 14463" transform="translate(103 546)">
      <rect id="Rectngulo_3375-5" data-name="Rectngulo 3375" width="30.98" height="1.766" transform="translate(318.433 1657.874)" fill="#ff9100"/>
      <g id="Grupo_13933-5" data-name="Grupo 13933" transform="translate(-290.122 1145.333)">
        <g id="Grupo_13932-5" data-name="Grupo 13932">
          <path id="Trazado_21578-5" data-name="Trazado 21578" d="M633.684,520.643l-1.2-1.293,6.377-5.926L632.48,507.5l1.2-1.293,7.765,7.221Z" fill="#ff9100"/>
        </g>
      </g>
    </g>
    <g id="Grupo_14464" data-name="Grupo 14464" transform="translate(197 546)">
      <rect id="Rectngulo_3375-6" data-name="Rectngulo 3375" width="30.98" height="1.766" transform="translate(318.433 1657.874)" fill="#ff9100"/>
      <g id="Grupo_13933-6" data-name="Grupo 13933" transform="translate(-290.122 1145.333)">
        <g id="Grupo_13932-6" data-name="Grupo 13932">
          <path id="Trazado_21578-6" data-name="Trazado 21578" d="M633.684,520.643l-1.2-1.293,6.377-5.926L632.48,507.5l1.2-1.293,7.765,7.221Z" fill="#ff9100"/>
        </g>
      </g>
    </g>
    <path id="Trazado_23865" data-name="Trazado 23865" d="M2.557,0V-19.756h7.15a11.147,11.147,0,0,1,4.122.711,7.592,7.592,0,0,1,2.953,2.017,8.773,8.773,0,0,1,1.75,3.11,12.841,12.841,0,0,1,.595,4.033,12.889,12.889,0,0,1-.595,4.047,8.773,8.773,0,0,1-1.75,3.11A7.592,7.592,0,0,1,13.829-.711,11.147,11.147,0,0,1,9.707,0Zm4.1-3.623H9.5a4.853,4.853,0,0,0,3.992-1.606,7.2,7.2,0,0,0,1.313-4.655,7.2,7.2,0,0,0-1.312-4.655A4.853,4.853,0,0,0,9.5-16.146H6.658Z" transform="translate(301 2215)" fill="#002b45"/>
    <path id="Trazado_23867" data-name="Trazado 23867" d="M2.557,0V-19.756h7.15a11.147,11.147,0,0,1,4.122.711,7.592,7.592,0,0,1,2.953,2.017,8.773,8.773,0,0,1,1.75,3.11,12.841,12.841,0,0,1,.595,4.033,12.889,12.889,0,0,1-.595,4.047,8.773,8.773,0,0,1-1.75,3.11A7.592,7.592,0,0,1,13.829-.711,11.147,11.147,0,0,1,9.707,0Zm4.1-3.623H9.5a4.853,4.853,0,0,0,3.992-1.606,7.2,7.2,0,0,0,1.313-4.655,7.2,7.2,0,0,0-1.312-4.655A4.853,4.853,0,0,0,9.5-16.146H6.658Z" transform="translate(395 2215)" fill="#002b45"/>
    <path id="Trazado_23871" data-name="Trazado 23871" d="M2.557,0V-19.756h7.15a11.147,11.147,0,0,1,4.122.711,7.592,7.592,0,0,1,2.953,2.017,8.773,8.773,0,0,1,1.75,3.11,12.841,12.841,0,0,1,.595,4.033,12.889,12.889,0,0,1-.595,4.047,8.773,8.773,0,0,1-1.75,3.11A7.592,7.592,0,0,1,13.829-.711,11.147,11.147,0,0,1,9.707,0Zm4.1-3.623H9.5a4.853,4.853,0,0,0,3.992-1.606,7.2,7.2,0,0,0,1.313-4.655,7.2,7.2,0,0,0-1.312-4.655A4.853,4.853,0,0,0,9.5-16.146H6.658Z" transform="translate(489 2215)" fill="#002b45"/>
  </g>
</svg>
