<svg xmlns="http://www.w3.org/2000/svg" width="538.211" height="200.848" viewBox="0 0 538.211 200.848">
  <g id="Grupo_14455" data-name="Grupo 14455" transform="translate(-5378 2302)">
    <g id="Grupo_14440" data-name="Grupo 14440">
      <path id="Trazado_23923" data-name="Trazado 23923" d="M0,0H538.211V200.848H0Z" transform="translate(5378 -2302)" fill="#d5f4fc"/>
      <path id="Trazado_23924" data-name="Trazado 23924" d="M-207.6.167a5.648,5.648,0,0,1-3.23-.875,3.7,3.7,0,0,1-1.613-2.4l1.591-.378A2.609,2.609,0,0,0-209.738-1.8a3.775,3.775,0,0,0,2.188.615,4.566,4.566,0,0,0,.817-.07,3.127,3.127,0,0,0,.743-.233,2.274,2.274,0,0,0,.611-.4,1.669,1.669,0,0,0,.4-.606,2.076,2.076,0,0,0,.141-.826,1.786,1.786,0,0,0-.11-.584,1.855,1.855,0,0,0-.246-.461,1.657,1.657,0,0,0-.417-.374,5.6,5.6,0,0,0-.5-.3,4.529,4.529,0,0,0-.62-.25q-.391-.132-.655-.207l-.712-.2q-.088-.026-.132-.035-.51-.132-.831-.229t-.769-.268a5.06,5.06,0,0,1-.734-.338,4.968,4.968,0,0,1-.6-.422,2.161,2.161,0,0,1-.5-.549,2.9,2.9,0,0,1-.3-.7,3.11,3.11,0,0,1-.119-.879,3.138,3.138,0,0,1,.576-1.9,3.368,3.368,0,0,1,1.485-1.16,5.392,5.392,0,0,1,2.043-.369,5.6,5.6,0,0,1,2.975.76,3.388,3.388,0,0,1,1.578,2.246l-1.529.387a2.328,2.328,0,0,0-1.028-1.521,3.523,3.523,0,0,0-1.934-.51,3.83,3.83,0,0,0-.949.114,2.82,2.82,0,0,0-.822.352,1.706,1.706,0,0,0-.593.646,1.965,1.965,0,0,0-.22.945,1.519,1.519,0,0,0,.088.523,1.605,1.605,0,0,0,.22.417,1.564,1.564,0,0,0,.378.343,3.839,3.839,0,0,0,.461.272,4.676,4.676,0,0,0,.576.224q.36.119.615.193t.677.18a14.318,14.318,0,0,1,2.382.791A3.014,3.014,0,0,1-203.26-3.9a3.924,3.924,0,0,1,.035.536,3.458,3.458,0,0,1-.356,1.6,2.885,2.885,0,0,1-.976,1.107,4.664,4.664,0,0,1-1.389.62A6.368,6.368,0,0,1-207.6.167Zm14.511-4.658-.018.413h-6.75a3.053,3.053,0,0,0,.826,2.21,2.713,2.713,0,0,0,1.969.769,2.59,2.59,0,0,0,1.433-.413,2.68,2.68,0,0,0,.984-1.143l1.371.29A3.9,3.9,0,0,1-194.752-.51a4.028,4.028,0,0,1-2.294.677,4.174,4.174,0,0,1-3.111-1.2,4.479,4.479,0,0,1-1.187-3.287A4.458,4.458,0,0,1-200.153-7.6a4.122,4.122,0,0,1,3.063-1.2,3.9,3.9,0,0,1,2.9,1.107A4.376,4.376,0,0,1-193.091-4.491Zm-4-3.146a2.694,2.694,0,0,0-1.8.611,2.8,2.8,0,0,0-.91,1.78h5.177a2.567,2.567,0,0,0-.756-1.78A2.441,2.441,0,0,0-197.09-7.638Zm19.89-1.169a2.785,2.785,0,0,1,2.013.734,2.722,2.722,0,0,1,.765,2.061V0h-1.521V-5.616a1.952,1.952,0,0,0-.475-1.424,1.616,1.616,0,0,0-1.2-.483,1.706,1.706,0,0,0-1.318.545,2.343,2.343,0,0,0-.5,1.635V0h-1.547V-5.555a2.042,2.042,0,0,0-.479-1.472,1.629,1.629,0,0,0-1.226-.5,1.69,1.69,0,0,0-1.314.558,2.424,2.424,0,0,0-.505,1.674V0h-1.521V-8.64h1.521v1.116a2.625,2.625,0,0,1,.989-.949,2.82,2.82,0,0,1,1.375-.334,2.935,2.935,0,0,1,1.477.365,2.271,2.271,0,0,1,.958,1.05,2.689,2.689,0,0,1,1.037-1.05A2.966,2.966,0,0,1-177.2-8.807Zm11.1.167h1.521V0h-1.459l-.035-1.143a2.7,2.7,0,0,1-1.072.971,3.3,3.3,0,0,1-1.512.338,3.005,3.005,0,0,1-2.175-.782,2.918,2.918,0,0,1-.813-2.206V-8.64h1.521v5.476a2.05,2.05,0,0,0,.532,1.547,1.882,1.882,0,0,0,1.358.51,2.067,2.067,0,0,0,1.534-.6,2.434,2.434,0,0,0,.6-1.767ZM-161.486,0V-13.5h1.538V0Zm7.392,0a2.271,2.271,0,0,1-1.687-.62,2.344,2.344,0,0,1-.615-1.727v-5.08h-1.767V-8.64h.65a1.249,1.249,0,0,0,.954-.3,1.492,1.492,0,0,0,.277-1.015v-1.564h1.415V-8.64h1.986v1.213h-1.986V-2.5a1.31,1.31,0,0,0,.33.954,1.154,1.154,0,0,0,.866.338h.791V0Zm4.184-10.67a.989.989,0,0,1-.725-.3.989.989,0,0,1-.3-.725.975.975,0,0,1,.3-.721,1,1,0,0,1,.725-.3.987.987,0,0,1,.716.3.975.975,0,0,1,.3.721.989.989,0,0,1-.3.725A.979.979,0,0,1-149.911-10.67ZM-150.684,0V-8.64h1.529V0Zm9.185-8.807a3.93,3.93,0,0,1,1.564.316,3.849,3.849,0,0,1,1.283.888,4.149,4.149,0,0,1,.866,1.424,5.25,5.25,0,0,1,.321,1.863,4.568,4.568,0,0,1-1.165,3.261A3.782,3.782,0,0,1-141.5.185a3.42,3.42,0,0,1-1.806-.492,3.226,3.226,0,0,1-1.235-1.327V4.351h-1.521V-8.64h1.468l.035,1.679a3.163,3.163,0,0,1,1.23-1.349A3.452,3.452,0,0,1-141.5-8.807Zm-.3,7.673a2.623,2.623,0,0,0,2-.875,3.253,3.253,0,0,0,.813-2.307,3.237,3.237,0,0,0-.813-2.3,2.629,2.629,0,0,0-2-.87,2.636,2.636,0,0,0-2.03.91,3.24,3.24,0,0,0-.826,2.263,3.252,3.252,0,0,0,.826,2.272A2.636,2.636,0,0,0-141.8-1.134ZM-135.066,0V-13.5h1.538V0Zm5.405-10.67a.989.989,0,0,1-.725-.3.989.989,0,0,1-.3-.725.975.975,0,0,1,.3-.721,1,1,0,0,1,.725-.3.987.987,0,0,1,.716.3.975.975,0,0,1,.3.721.989.989,0,0,1-.3.725A.979.979,0,0,1-129.661-10.67ZM-130.434,0V-8.64h1.529V0Zm8.209.158a4.161,4.161,0,0,1-3.094-1.239,4.421,4.421,0,0,1-1.222-3.243,4.43,4.43,0,0,1,1.217-3.243,4.158,4.158,0,0,1,3.1-1.239,4.191,4.191,0,0,1,2.5.756,3.815,3.815,0,0,1,1.455,2.1l-1.424.229a2.63,2.63,0,0,0-.976-1.345,2.656,2.656,0,0,0-1.564-.475,2.554,2.554,0,0,0-2,.888,3.382,3.382,0,0,0-.787,2.329A3.365,3.365,0,0,0-124.233-2a2.56,2.56,0,0,0,2,.883,2.656,2.656,0,0,0,1.564-.475,2.63,2.63,0,0,0,.976-1.345l1.424.237a3.819,3.819,0,0,1-1.463,2.1A4.185,4.185,0,0,1-122.225.158Zm8.191.009a2.94,2.94,0,0,1-1.894-.593A2.13,2.13,0,0,1-116.67-2.2a2.517,2.517,0,0,1,.237-1.129,1.991,1.991,0,0,1,.7-.787,4.218,4.218,0,0,1,1.015-.488,9.384,9.384,0,0,1,1.314-.312l1.4-.229q.765-.141.765-.8a1.51,1.51,0,0,0-.541-1.288,2.2,2.2,0,0,0-1.367-.409,2.243,2.243,0,0,0-1.354.4,1.655,1.655,0,0,0-.642,1.213l-1.371-.29a2.639,2.639,0,0,1,1.081-1.85,4.039,4.039,0,0,1,2.355-.62,4.777,4.777,0,0,1,1.252.154,3.4,3.4,0,0,1,1.046.483,2.168,2.168,0,0,1,.747.932,3.466,3.466,0,0,1,.268,1.419v3.568a1.46,1.46,0,0,0,.2.9.854.854,0,0,0,.681.233h.141V0h-.756a1.442,1.442,0,0,1-1.635-1.169h-.07A3.3,3.3,0,0,1-114.034.167Zm.352-1.23a2.305,2.305,0,0,0,1.854-.835,3.438,3.438,0,0,0,.7-2.285l-2.285.439a3.076,3.076,0,0,0-1.34.479,1.114,1.114,0,0,0-.435.945,1.1,1.1,0,0,0,.417.949A1.785,1.785,0,0,0-113.682-1.063Zm11.162-7.743a3.005,3.005,0,0,1,2.175.782,2.918,2.918,0,0,1,.813,2.206V0h-1.521V-5.476a2.043,2.043,0,0,0-.527-1.547,1.885,1.885,0,0,0-1.354-.5,2.09,2.09,0,0,0-1.538.593,2.407,2.407,0,0,0-.606,1.762V0H-106.6V-8.64h1.521v1.107A2.885,2.885,0,0,1-102.52-8.807Zm15.926.167h1.608l-5,12.709H-91.56l1.731-4.28L-93.186-8.64H-91.5l2.435,6.724ZM-75.749.167a4.1,4.1,0,0,1-2.329-.624,2.581,2.581,0,0,1-1.134-1.775l1.327-.378a1.851,1.851,0,0,0,.708,1.2,2.3,2.3,0,0,0,1.419.426,2.832,2.832,0,0,0,.831-.114,1.331,1.331,0,0,0,.637-.426,1.142,1.142,0,0,0,.255-.787,1.147,1.147,0,0,0-.07-.356,1.526,1.526,0,0,0-.141-.286.87.87,0,0,0-.246-.237,3.245,3.245,0,0,0-.3-.185,3.067,3.067,0,0,0-.391-.163q-.259-.092-.417-.141t-.483-.141q-.325-.092-.5-.145a9.372,9.372,0,0,1-.9-.316,3.932,3.932,0,0,1-.729-.417,1.679,1.679,0,0,1-.567-.681,2.3,2.3,0,0,1-.189-.967,2.234,2.234,0,0,1,.422-1.38,2.374,2.374,0,0,1,1.094-.813,4.374,4.374,0,0,1,1.534-.25,3.754,3.754,0,0,1,2.1.563,2.4,2.4,0,0,1,1.05,1.688l-1.248.316a1.655,1.655,0,0,0-.659-1.094,2.1,2.1,0,0,0-1.239-.365,2.139,2.139,0,0,0-1.16.3,1.019,1.019,0,0,0-.483.927.923.923,0,0,0,.127.479,1.521,1.521,0,0,0,.259.338,1.594,1.594,0,0,0,.475.259q.343.136.51.185t.633.163q.088.026.132.035.51.132.831.233a5.105,5.105,0,0,1,.747.316,2.484,2.484,0,0,1,.672.47,2.178,2.178,0,0,1,.422.668,2.358,2.358,0,0,1,.176.932,2.516,2.516,0,0,1-.259,1.165,2.028,2.028,0,0,1-.708.8A3.422,3.422,0,0,1-74.54.022,4.8,4.8,0,0,1-75.749.167Zm13.131-4.658-.018.413h-6.75a3.053,3.053,0,0,0,.826,2.21A2.713,2.713,0,0,0-66.59-1.1a2.59,2.59,0,0,0,1.433-.413,2.68,2.68,0,0,0,.984-1.143l1.371.29A3.9,3.9,0,0,1-64.279-.51a4.028,4.028,0,0,1-2.294.677,4.174,4.174,0,0,1-3.111-1.2,4.479,4.479,0,0,1-1.187-3.287A4.458,4.458,0,0,1-69.68-7.6a4.122,4.122,0,0,1,3.063-1.2,3.9,3.9,0,0,1,2.9,1.107A4.376,4.376,0,0,1-62.618-4.491Zm-4-3.146a2.694,2.694,0,0,0-1.8.611,2.8,2.8,0,0,0-.91,1.78h5.177a2.567,2.567,0,0,0-.756-1.78A2.441,2.441,0,0,0-66.617-7.638Zm11.83-3.032a.989.989,0,0,1-.725-.3.989.989,0,0,1-.3-.725.975.975,0,0,1,.3-.721,1,1,0,0,1,.725-.3.987.987,0,0,1,.716.3.975.975,0,0,1,.3.721.989.989,0,0,1-.3.725A.979.979,0,0,1-54.787-10.67ZM-55.56,0V-8.64h1.529V0Zm10.881-8.64H-43.2v8.2a4.706,4.706,0,0,1-1.116,3.366A4.058,4.058,0,0,1-47.413,4.1,4.084,4.084,0,0,1-51.6,1.459l1.257-.615a2.856,2.856,0,0,0,2.892,2A2.48,2.48,0,0,0-45.431,2a3.591,3.591,0,0,0,.7-2.355v-1.6a3.045,3.045,0,0,1-1.23,1.244,3.58,3.58,0,0,1-1.8.47,3.7,3.7,0,0,1-2.795-1.217A4.293,4.293,0,0,1-51.71-4.535,4.253,4.253,0,0,1-50.555-7.6a3.74,3.74,0,0,1,2.808-1.208,3.49,3.49,0,0,1,1.811.483,3.112,3.112,0,0,1,1.222,1.274Zm-2.742,7.1a2.614,2.614,0,0,0,1.991-.888,3,3,0,0,0,.822-2.109,3.02,3.02,0,0,0-.817-2.118,2.61,2.61,0,0,0-2-.888,2.632,2.632,0,0,0-1.991.861,3,3,0,0,0-.813,2.145A2.978,2.978,0,0,0-49.4-2.4,2.634,2.634,0,0,0-47.421-1.538Zm12.691-7.1h1.521V0h-1.459L-34.7-1.143a2.7,2.7,0,0,1-1.072.971,3.3,3.3,0,0,1-1.512.338,3.005,3.005,0,0,1-2.175-.782,2.918,2.918,0,0,1-.813-2.206V-8.64h1.521v5.476a2.05,2.05,0,0,0,.532,1.547,1.882,1.882,0,0,0,1.358.51,2.067,2.067,0,0,0,1.534-.6,2.434,2.434,0,0,0,.6-1.767ZM-28.121.167a2.94,2.94,0,0,1-1.894-.593A2.13,2.13,0,0,1-30.757-2.2a2.517,2.517,0,0,1,.237-1.129,1.991,1.991,0,0,1,.7-.787A4.218,4.218,0,0,1-28.8-4.6a9.384,9.384,0,0,1,1.314-.312l1.4-.229q.765-.141.765-.8a1.51,1.51,0,0,0-.541-1.288,2.2,2.2,0,0,0-1.367-.409,2.243,2.243,0,0,0-1.354.4,1.655,1.655,0,0,0-.642,1.213l-1.371-.29a2.639,2.639,0,0,1,1.081-1.85,4.039,4.039,0,0,1,2.355-.62,4.777,4.777,0,0,1,1.252.154,3.4,3.4,0,0,1,1.046.483,2.168,2.168,0,0,1,.747.932A3.466,3.466,0,0,1-23.849-5.8v3.568a1.46,1.46,0,0,0,.2.9.854.854,0,0,0,.681.233h.141V0h-.756A1.442,1.442,0,0,1-25.22-1.169h-.07A3.3,3.3,0,0,1-28.121.167Zm.352-1.23A2.305,2.305,0,0,0-25.915-1.9a3.438,3.438,0,0,0,.7-2.285l-2.285.439a3.076,3.076,0,0,0-1.34.479,1.114,1.114,0,0,0-.435.945,1.1,1.1,0,0,0,.417.949A1.785,1.785,0,0,0-27.769-1.063ZM-20.685,0V-13.5h1.538V0Zm6.627.167a2.94,2.94,0,0,1-1.894-.593A2.13,2.13,0,0,1-16.695-2.2a2.517,2.517,0,0,1,.237-1.129,1.991,1.991,0,0,1,.7-.787A4.218,4.218,0,0,1-14.739-4.6a9.384,9.384,0,0,1,1.314-.312l1.4-.229q.765-.141.765-.8A1.51,1.51,0,0,0-11.8-7.229a2.2,2.2,0,0,0-1.367-.409,2.243,2.243,0,0,0-1.354.4,1.655,1.655,0,0,0-.642,1.213l-1.371-.29a2.639,2.639,0,0,1,1.081-1.85,4.039,4.039,0,0,1,2.355-.62,4.777,4.777,0,0,1,1.252.154,3.4,3.4,0,0,1,1.046.483,2.168,2.168,0,0,1,.747.932A3.466,3.466,0,0,1-9.787-5.8v3.568a1.46,1.46,0,0,0,.2.9.854.854,0,0,0,.681.233h.141V0h-.756a1.442,1.442,0,0,1-1.635-1.169h-.07A3.3,3.3,0,0,1-14.058.167Zm.352-1.23A2.305,2.305,0,0,0-11.852-1.9a3.438,3.438,0,0,0,.7-2.285l-2.285.439a3.076,3.076,0,0,0-1.34.479,1.114,1.114,0,0,0-.435.945,1.1,1.1,0,0,0,.417.949A1.785,1.785,0,0,0-13.707-1.063ZM-2.544-8.807a3.005,3.005,0,0,1,2.175.782A2.918,2.918,0,0,1,.444-5.818V0H-1.077V-5.476A2.043,2.043,0,0,0-1.6-7.022a1.885,1.885,0,0,0-1.354-.5A2.09,2.09,0,0,0-4.5-6.93,2.407,2.407,0,0,0-5.1-5.168V0H-6.623V-8.64H-5.1v1.107A2.885,2.885,0,0,1-2.544-8.807ZM8.055,0V-13.5H9.593V0Zm8.271.167a4.554,4.554,0,0,1-2.215-.536,3.9,3.9,0,0,1-1.56-1.569,4.819,4.819,0,0,1-.576-2.386A4.4,4.4,0,0,1,13.2-7.581a4.232,4.232,0,0,1,3.125-1.226,4.228,4.228,0,0,1,3.129,1.226,4.41,4.41,0,0,1,1.222,3.256A4.413,4.413,0,0,1,19.45-1.059,4.232,4.232,0,0,1,16.326.167ZM16.317-1.1a2.654,2.654,0,0,0,2.043-.888,3.326,3.326,0,0,0,.813-2.338,3.314,3.314,0,0,0-.813-2.329,2.654,2.654,0,0,0-2.043-.888,2.617,2.617,0,0,0-2.026.888,3.336,3.336,0,0,0-.8,2.329,3.348,3.348,0,0,0,.8,2.338A2.617,2.617,0,0,0,16.317-1.1ZM25.792.167a4.1,4.1,0,0,1-2.329-.624,2.581,2.581,0,0,1-1.134-1.775l1.327-.378a1.851,1.851,0,0,0,.708,1.2,2.3,2.3,0,0,0,1.419.426,2.832,2.832,0,0,0,.831-.114,1.331,1.331,0,0,0,.637-.426,1.142,1.142,0,0,0,.255-.787,1.147,1.147,0,0,0-.07-.356,1.526,1.526,0,0,0-.141-.286.87.87,0,0,0-.246-.237,3.245,3.245,0,0,0-.3-.185,3.067,3.067,0,0,0-.391-.163q-.259-.092-.417-.141t-.483-.141q-.325-.092-.5-.145a9.372,9.372,0,0,1-.9-.316,3.932,3.932,0,0,1-.729-.417,1.679,1.679,0,0,1-.567-.681,2.3,2.3,0,0,1-.189-.967A2.234,2.234,0,0,1,23-7.726a2.374,2.374,0,0,1,1.094-.813,4.374,4.374,0,0,1,1.534-.25,3.754,3.754,0,0,1,2.1.563,2.4,2.4,0,0,1,1.05,1.688l-1.248.316a1.655,1.655,0,0,0-.659-1.094,2.1,2.1,0,0,0-1.239-.365,2.139,2.139,0,0,0-1.16.3,1.019,1.019,0,0,0-.483.927.923.923,0,0,0,.127.479,1.521,1.521,0,0,0,.259.338,1.594,1.594,0,0,0,.475.259q.343.136.51.185t.633.163q.088.026.132.035.51.132.831.233a5.105,5.105,0,0,1,.747.316,2.484,2.484,0,0,1,.672.47A2.178,2.178,0,0,1,28.8-3.3a2.358,2.358,0,0,1,.176.932,2.516,2.516,0,0,1-.259,1.165,2.028,2.028,0,0,1-.708.8A3.422,3.422,0,0,1,27,.022,4.8,4.8,0,0,1,25.792.167ZM43.6-4.491l-.018.413h-6.75a3.053,3.053,0,0,0,.826,2.21,2.713,2.713,0,0,0,1.969.769,2.59,2.59,0,0,0,1.433-.413,2.68,2.68,0,0,0,.984-1.143l1.371.29A3.9,3.9,0,0,1,41.937-.51a4.028,4.028,0,0,1-2.294.677,4.174,4.174,0,0,1-3.111-1.2,4.479,4.479,0,0,1-1.187-3.287A4.458,4.458,0,0,1,36.536-7.6a4.122,4.122,0,0,1,3.063-1.2A3.9,3.9,0,0,1,42.5-7.7,4.376,4.376,0,0,1,43.6-4.491Zm-4-3.146a2.694,2.694,0,0,0-1.8.611,2.8,2.8,0,0,0-.91,1.78h5.177a2.567,2.567,0,0,0-.756-1.78A2.441,2.441,0,0,0,39.6-7.638ZM44.416,0l3.322-4.324L44.416-8.64h1.872l2.391,3.3,2.391-3.3h1.846L49.583-4.324,52.915,0H51.06L48.687-3.287,46.288,0ZM57.546,0a2.271,2.271,0,0,1-1.687-.62,2.344,2.344,0,0,1-.615-1.727v-5.08H53.477V-8.64h.65a1.249,1.249,0,0,0,.954-.3,1.492,1.492,0,0,0,.277-1.015v-1.564h1.415V-8.64h1.986v1.213H56.773V-2.5a1.31,1.31,0,0,0,.33.954,1.154,1.154,0,0,0,.866.338h.791V0Zm4.9-7.119a2.612,2.612,0,0,1,1.072-1.16,3.229,3.229,0,0,1,1.661-.457V-7.3a2.846,2.846,0,0,0-2.008.642,2.68,2.68,0,0,0-.69,2.048V0H60.957V-8.64h1.485ZM74.413-4.491l-.018.413h-6.75a3.053,3.053,0,0,0,.826,2.21A2.713,2.713,0,0,0,70.44-1.1a2.59,2.59,0,0,0,1.433-.413,2.68,2.68,0,0,0,.984-1.143l1.371.29A3.9,3.9,0,0,1,72.751-.51a4.028,4.028,0,0,1-2.294.677,4.174,4.174,0,0,1-3.111-1.2A4.479,4.479,0,0,1,66.16-4.324,4.458,4.458,0,0,1,67.351-7.6a4.122,4.122,0,0,1,3.063-1.2,3.9,3.9,0,0,1,2.9,1.107A4.376,4.376,0,0,1,74.413-4.491Zm-4-3.146a2.694,2.694,0,0,0-1.8.611,2.8,2.8,0,0,0-.91,1.78h5.177a2.567,2.567,0,0,0-.756-1.78A2.441,2.441,0,0,0,70.414-7.638ZM85.627-8.807a2.785,2.785,0,0,1,2.013.734A2.722,2.722,0,0,1,88.4-6.012V0H86.884V-5.616A1.952,1.952,0,0,0,86.41-7.04a1.616,1.616,0,0,0-1.2-.483,1.706,1.706,0,0,0-1.318.545,2.343,2.343,0,0,0-.5,1.635V0H81.839V-5.555a2.042,2.042,0,0,0-.479-1.472,1.629,1.629,0,0,0-1.226-.5,1.69,1.69,0,0,0-1.314.558,2.424,2.424,0,0,0-.505,1.674V0H76.794V-8.64h1.521v1.116a2.625,2.625,0,0,1,.989-.949,2.82,2.82,0,0,1,1.375-.334,2.935,2.935,0,0,1,1.477.365,2.271,2.271,0,0,1,.958,1.05,2.689,2.689,0,0,1,1.037-1.05A2.966,2.966,0,0,1,85.627-8.807ZM94.988.167a4.554,4.554,0,0,1-2.215-.536,3.9,3.9,0,0,1-1.56-1.569,4.819,4.819,0,0,1-.576-2.386,4.4,4.4,0,0,1,1.226-3.256,4.232,4.232,0,0,1,3.125-1.226,4.228,4.228,0,0,1,3.129,1.226,4.41,4.41,0,0,1,1.222,3.256,4.413,4.413,0,0,1-1.226,3.265A4.232,4.232,0,0,1,94.988.167ZM94.979-1.1a2.654,2.654,0,0,0,2.043-.888,3.326,3.326,0,0,0,.813-2.338,3.314,3.314,0,0,0-.813-2.329,2.654,2.654,0,0,0-2.043-.888,2.617,2.617,0,0,0-2.026.888,3.336,3.336,0,0,0-.8,2.329,3.348,3.348,0,0,0,.8,2.338A2.617,2.617,0,0,0,94.979-1.1ZM104.454.167a4.1,4.1,0,0,1-2.329-.624,2.581,2.581,0,0,1-1.134-1.775l1.327-.378a1.851,1.851,0,0,0,.708,1.2,2.3,2.3,0,0,0,1.419.426,2.832,2.832,0,0,0,.831-.114,1.331,1.331,0,0,0,.637-.426,1.142,1.142,0,0,0,.255-.787,1.147,1.147,0,0,0-.07-.356,1.526,1.526,0,0,0-.141-.286.87.87,0,0,0-.246-.237,3.245,3.245,0,0,0-.3-.185,3.067,3.067,0,0,0-.391-.163q-.259-.092-.417-.141t-.483-.141q-.325-.092-.5-.145a9.372,9.372,0,0,1-.9-.316,3.932,3.932,0,0,1-.729-.417,1.679,1.679,0,0,1-.567-.681,2.3,2.3,0,0,1-.189-.967,2.234,2.234,0,0,1,.422-1.38,2.374,2.374,0,0,1,1.094-.813,4.374,4.374,0,0,1,1.534-.25,3.754,3.754,0,0,1,2.1.563,2.4,2.4,0,0,1,1.05,1.688l-1.248.316a1.655,1.655,0,0,0-.659-1.094,2.1,2.1,0,0,0-1.239-.365,2.139,2.139,0,0,0-1.16.3,1.019,1.019,0,0,0-.483.927.923.923,0,0,0,.127.479,1.521,1.521,0,0,0,.259.338,1.594,1.594,0,0,0,.475.259q.343.136.51.185t.633.163q.088.026.132.035.51.132.831.233a5.105,5.105,0,0,1,.747.316,2.484,2.484,0,0,1,.672.47,2.178,2.178,0,0,1,.422.668,2.358,2.358,0,0,1,.176.932,2.516,2.516,0,0,1-.259,1.165,2.028,2.028,0,0,1-.708.8,3.422,3.422,0,0,1-1.006.435A4.8,4.8,0,0,1,104.454.167ZM120.028-8.64h1.608l-5,12.709h-1.573l1.731-4.28L113.436-8.64h1.688l2.435,6.724ZM128.14,0V-13.5h1.538V0Zm8.271.167A4.554,4.554,0,0,1,134.2-.369a3.9,3.9,0,0,1-1.56-1.569,4.819,4.819,0,0,1-.576-2.386,4.4,4.4,0,0,1,1.226-3.256,4.232,4.232,0,0,1,3.125-1.226,4.228,4.228,0,0,1,3.129,1.226,4.41,4.41,0,0,1,1.222,3.256,4.413,4.413,0,0,1-1.226,3.265A4.232,4.232,0,0,1,136.411.167ZM136.4-1.1a2.654,2.654,0,0,0,2.043-.888,3.326,3.326,0,0,0,.813-2.338,3.314,3.314,0,0,0-.813-2.329,2.654,2.654,0,0,0-2.043-.888,2.617,2.617,0,0,0-2.026.888,3.336,3.336,0,0,0-.8,2.329,3.348,3.348,0,0,0,.8,2.338A2.617,2.617,0,0,0,136.4-1.1ZM145.876.167a4.1,4.1,0,0,1-2.329-.624,2.581,2.581,0,0,1-1.134-1.775l1.327-.378a1.851,1.851,0,0,0,.708,1.2,2.3,2.3,0,0,0,1.419.426A2.832,2.832,0,0,0,146.7-1.1a1.331,1.331,0,0,0,.637-.426,1.142,1.142,0,0,0,.255-.787,1.147,1.147,0,0,0-.07-.356,1.526,1.526,0,0,0-.141-.286.87.87,0,0,0-.246-.237,3.245,3.245,0,0,0-.3-.185,3.067,3.067,0,0,0-.391-.163q-.259-.092-.417-.141t-.483-.141q-.325-.092-.5-.145a9.372,9.372,0,0,1-.9-.316,3.932,3.932,0,0,1-.729-.417,1.679,1.679,0,0,1-.567-.681,2.3,2.3,0,0,1-.189-.967,2.234,2.234,0,0,1,.422-1.38,2.374,2.374,0,0,1,1.094-.813,4.374,4.374,0,0,1,1.534-.25,3.754,3.754,0,0,1,2.1.563,2.4,2.4,0,0,1,1.05,1.688l-1.248.316a1.655,1.655,0,0,0-.659-1.094,2.1,2.1,0,0,0-1.239-.365,2.139,2.139,0,0,0-1.16.3,1.019,1.019,0,0,0-.483.927.923.923,0,0,0,.127.479,1.521,1.521,0,0,0,.259.338,1.594,1.594,0,0,0,.475.259q.343.136.51.185t.633.163q.088.026.132.035.51.132.831.233a5.105,5.105,0,0,1,.747.316,2.484,2.484,0,0,1,.672.47,2.178,2.178,0,0,1,.422.668,2.358,2.358,0,0,1,.176.932,2.516,2.516,0,0,1-.259,1.165,2.028,2.028,0,0,1-.708.8,3.422,3.422,0,0,1-1.006.435A4.8,4.8,0,0,1,145.876.167Zm19.081-8.974a2.785,2.785,0,0,1,2.013.734,2.722,2.722,0,0,1,.765,2.061V0h-1.521V-5.616a1.952,1.952,0,0,0-.475-1.424,1.616,1.616,0,0,0-1.2-.483,1.706,1.706,0,0,0-1.318.545,2.343,2.343,0,0,0-.5,1.635V0h-1.547V-5.555a2.042,2.042,0,0,0-.479-1.472,1.629,1.629,0,0,0-1.226-.5,1.69,1.69,0,0,0-1.314.558,2.424,2.424,0,0,0-.505,1.674V0h-1.521V-8.64h1.521v1.116a2.625,2.625,0,0,1,.989-.949,2.82,2.82,0,0,1,1.375-.334,2.935,2.935,0,0,1,1.477.365,2.271,2.271,0,0,1,.958,1.05,2.689,2.689,0,0,1,1.037-1.05A2.966,2.966,0,0,1,164.958-8.807Zm13.28,4.315-.018.413h-6.75a3.053,3.053,0,0,0,.826,2.21,2.713,2.713,0,0,0,1.969.769,2.59,2.59,0,0,0,1.433-.413,2.68,2.68,0,0,0,.984-1.143l1.371.29A3.9,3.9,0,0,1,176.577-.51a4.028,4.028,0,0,1-2.294.677,4.174,4.174,0,0,1-3.111-1.2,4.479,4.479,0,0,1-1.187-3.287A4.458,4.458,0,0,1,171.176-7.6a4.122,4.122,0,0,1,3.063-1.2,3.9,3.9,0,0,1,2.9,1.107A4.376,4.376,0,0,1,178.238-4.491Zm-4-3.146a2.694,2.694,0,0,0-1.8.611,2.8,2.8,0,0,0-.91,1.78h5.177a2.567,2.567,0,0,0-.756-1.78A2.441,2.441,0,0,0,174.239-7.638ZM187-13.5h1.521V0h-1.468l-.035-1.679a3.179,3.179,0,0,1-1.23,1.362,3.429,3.429,0,0,1-1.828.5A3.883,3.883,0,0,1,182.4-.136a3.92,3.92,0,0,1-1.288-.9,4.16,4.16,0,0,1-.87-1.428,5.225,5.225,0,0,1-.321-1.854,4.543,4.543,0,0,1,1.173-3.243,3.788,3.788,0,0,1,2.87-1.248,3.443,3.443,0,0,1,1.806.488A3.2,3.2,0,0,1,187-7ZM184.276-1.134a2.587,2.587,0,0,0,2.008-.91,3.283,3.283,0,0,0,.813-2.272,3.277,3.277,0,0,0-.817-2.268,2.586,2.586,0,0,0-2-.914,2.644,2.644,0,0,0-2.021.883,3.25,3.25,0,0,0-.817,2.3,3.25,3.25,0,0,0,.817,2.3A2.644,2.644,0,0,0,184.276-1.134Zm8.112-9.536a.989.989,0,0,1-.725-.3.989.989,0,0,1-.3-.725.975.975,0,0,1,.3-.721,1,1,0,0,1,.725-.3.987.987,0,0,1,.716.3.975.975,0,0,1,.3.721.989.989,0,0,1-.3.725A.979.979,0,0,1,192.388-10.67ZM191.615,0V-8.64h1.529V0Zm8.262.167a4.554,4.554,0,0,1-2.215-.536,3.9,3.9,0,0,1-1.56-1.569,4.819,4.819,0,0,1-.576-2.386,4.4,4.4,0,0,1,1.226-3.256,4.232,4.232,0,0,1,3.125-1.226,4.228,4.228,0,0,1,3.129,1.226,4.41,4.41,0,0,1,1.222,3.256A4.413,4.413,0,0,1,203-1.059,4.232,4.232,0,0,1,199.876.167ZM199.868-1.1a2.654,2.654,0,0,0,2.043-.888,3.326,3.326,0,0,0,.813-2.338,3.314,3.314,0,0,0-.813-2.329,2.654,2.654,0,0,0-2.043-.888,2.617,2.617,0,0,0-2.026.888,3.336,3.336,0,0,0-.8,2.329,3.348,3.348,0,0,0,.8,2.338A2.617,2.617,0,0,0,199.868-1.1ZM209.342.167a4.1,4.1,0,0,1-2.329-.624,2.581,2.581,0,0,1-1.134-1.775l1.327-.378a1.851,1.851,0,0,0,.708,1.2,2.3,2.3,0,0,0,1.419.426,2.832,2.832,0,0,0,.831-.114,1.331,1.331,0,0,0,.637-.426,1.142,1.142,0,0,0,.255-.787,1.147,1.147,0,0,0-.07-.356,1.526,1.526,0,0,0-.141-.286.87.87,0,0,0-.246-.237,3.245,3.245,0,0,0-.3-.185,3.067,3.067,0,0,0-.391-.163q-.259-.092-.417-.141t-.483-.141q-.325-.092-.5-.145a9.372,9.372,0,0,1-.9-.316,3.932,3.932,0,0,1-.729-.417,1.679,1.679,0,0,1-.567-.681,2.3,2.3,0,0,1-.189-.967,2.234,2.234,0,0,1,.422-1.38,2.374,2.374,0,0,1,1.094-.813,4.374,4.374,0,0,1,1.534-.25,3.754,3.754,0,0,1,2.1.563,2.4,2.4,0,0,1,1.05,1.688l-1.248.316a1.655,1.655,0,0,0-.659-1.094,2.1,2.1,0,0,0-1.239-.365,2.139,2.139,0,0,0-1.16.3,1.019,1.019,0,0,0-.483.927.923.923,0,0,0,.127.479,1.521,1.521,0,0,0,.259.338,1.594,1.594,0,0,0,.475.259q.343.136.51.185t.633.163q.088.026.132.035.51.132.831.233a5.105,5.105,0,0,1,.747.316,2.484,2.484,0,0,1,.672.47,2.178,2.178,0,0,1,.422.668,2.358,2.358,0,0,1,.176.932,2.516,2.516,0,0,1-.259,1.165,2.028,2.028,0,0,1-.708.8,3.422,3.422,0,0,1-1.006.435A4.8,4.8,0,0,1,209.342.167Zm-361.16,15.026a3.764,3.764,0,0,1,2.856,1.248,4.553,4.553,0,0,1,1.169,3.243,4.586,4.586,0,0,1-1.16,3.252,3.756,3.756,0,0,1-2.865,1.248,3.467,3.467,0,0,1-1.841-.5,3.171,3.171,0,0,1-1.235-1.362L-154.929,24H-156.4V10.5h1.512l.009,6.513a3.184,3.184,0,0,1,1.235-1.332A3.476,3.476,0,0,1-151.818,15.193Zm-.334,7.673a2.644,2.644,0,0,0,2.021-.883,3.25,3.25,0,0,0,.817-2.3,3.25,3.25,0,0,0-.817-2.3,2.644,2.644,0,0,0-2.021-.883,2.586,2.586,0,0,0-2,.914,3.277,3.277,0,0,0-.817,2.268,3.283,3.283,0,0,0,.813,2.272A2.587,2.587,0,0,0-152.152,22.866Zm8.745,1.3a2.94,2.94,0,0,1-1.894-.593,2.13,2.13,0,0,1-.743-1.771,2.517,2.517,0,0,1,.237-1.129,1.991,1.991,0,0,1,.7-.787,4.218,4.218,0,0,1,1.015-.488,9.384,9.384,0,0,1,1.314-.312l1.4-.229q.765-.141.765-.8a1.51,1.51,0,0,0-.541-1.288,2.2,2.2,0,0,0-1.367-.409,2.243,2.243,0,0,0-1.354.4,1.655,1.655,0,0,0-.642,1.213l-1.371-.29a2.639,2.639,0,0,1,1.081-1.85,4.039,4.039,0,0,1,2.355-.62,4.777,4.777,0,0,1,1.252.154,3.4,3.4,0,0,1,1.046.483,2.168,2.168,0,0,1,.747.932,3.466,3.466,0,0,1,.268,1.419v3.568a1.46,1.46,0,0,0,.2.9.854.854,0,0,0,.681.233h.141V24h-.756a1.442,1.442,0,0,1-1.635-1.169h-.07A3.3,3.3,0,0,1-143.407,24.167Zm.352-1.23A2.305,2.305,0,0,0-141.2,22.1a3.438,3.438,0,0,0,.7-2.285l-2.285.439a3.076,3.076,0,0,0-1.34.479,1.114,1.114,0,0,0-.435.945,1.1,1.1,0,0,0,.417.949A1.785,1.785,0,0,0-143.055,22.937Zm7.866-9.606a.989.989,0,0,1-.725-.3.989.989,0,0,1-.3-.725.975.975,0,0,1,.3-.721,1,1,0,0,1,.725-.3.987.987,0,0,1,.716.3.975.975,0,0,1,.3.721.989.989,0,0,1-.3.725A.979.979,0,0,1-135.189,13.33Zm-2.769,14.713V26.751a2.472,2.472,0,0,0,1.239-.246,1.348,1.348,0,0,0,.58-.844,7.105,7.105,0,0,0,.167-1.784V15.36h1.538v8.517a5.025,5.025,0,0,1-.8,3.226A3.413,3.413,0,0,1-137.958,28.043Zm10.266-3.876a4.554,4.554,0,0,1-2.215-.536,3.9,3.9,0,0,1-1.56-1.569,4.819,4.819,0,0,1-.576-2.386,4.4,4.4,0,0,1,1.226-3.256,4.232,4.232,0,0,1,3.125-1.226,4.228,4.228,0,0,1,3.129,1.226,4.41,4.41,0,0,1,1.222,3.256,4.413,4.413,0,0,1-1.226,3.265A4.232,4.232,0,0,1-127.692,24.167ZM-127.7,22.9a2.654,2.654,0,0,0,2.043-.888,3.326,3.326,0,0,0,.813-2.338,3.314,3.314,0,0,0-.813-2.329,2.654,2.654,0,0,0-2.043-.888,2.617,2.617,0,0,0-2.026.888,3.336,3.336,0,0,0-.8,2.329,3.348,3.348,0,0,0,.8,2.338A2.617,2.617,0,0,0-127.7,22.9Zm11.417,1.1V10.5h1.538V24Zm6.627.167a2.94,2.94,0,0,1-1.894-.593,2.13,2.13,0,0,1-.743-1.771,2.517,2.517,0,0,1,.237-1.129,1.991,1.991,0,0,1,.7-.787,4.218,4.218,0,0,1,1.015-.488,9.384,9.384,0,0,1,1.314-.312l1.4-.229q.765-.141.765-.8a1.51,1.51,0,0,0-.541-1.288,2.2,2.2,0,0,0-1.367-.409,2.243,2.243,0,0,0-1.354.4,1.655,1.655,0,0,0-.642,1.213l-1.371-.29a2.639,2.639,0,0,1,1.081-1.85,4.039,4.039,0,0,1,2.355-.62,4.777,4.777,0,0,1,1.252.154,3.4,3.4,0,0,1,1.046.483,2.168,2.168,0,0,1,.747.932,3.466,3.466,0,0,1,.268,1.419v3.568a1.46,1.46,0,0,0,.2.9.854.854,0,0,0,.681.233h.141V24h-.756a1.442,1.442,0,0,1-1.635-1.169h-.07A3.3,3.3,0,0,1-109.657,24.167Zm.352-1.23a2.305,2.305,0,0,0,1.854-.835,3.438,3.438,0,0,0,.7-2.285l-2.285.439a3.076,3.076,0,0,0-1.34.479,1.114,1.114,0,0,0-.435.945,1.1,1.1,0,0,0,.417.949A1.785,1.785,0,0,0-109.305,22.937Zm13.245-6.056a2.612,2.612,0,0,1,1.072-1.16,3.229,3.229,0,0,1,1.661-.457V16.7a2.846,2.846,0,0,0-2.008.642,2.68,2.68,0,0,0-.69,2.048V24h-1.521V15.36h1.485Zm6.407,7.286a2.94,2.94,0,0,1-1.894-.593A2.13,2.13,0,0,1-92.29,21.8a2.517,2.517,0,0,1,.237-1.129,1.991,1.991,0,0,1,.7-.787,4.218,4.218,0,0,1,1.015-.488,9.384,9.384,0,0,1,1.314-.312l1.4-.229q.765-.141.765-.8a1.51,1.51,0,0,0-.541-1.288,2.2,2.2,0,0,0-1.367-.409,2.243,2.243,0,0,0-1.354.4,1.655,1.655,0,0,0-.642,1.213l-1.371-.29a2.639,2.639,0,0,1,1.081-1.85,4.039,4.039,0,0,1,2.355-.62,4.777,4.777,0,0,1,1.252.154,3.4,3.4,0,0,1,1.046.483,2.168,2.168,0,0,1,.747.932,3.466,3.466,0,0,1,.268,1.419v3.568a1.46,1.46,0,0,0,.2.9.854.854,0,0,0,.681.233h.141V24h-.756a1.442,1.442,0,0,1-1.635-1.169h-.07A3.3,3.3,0,0,1-89.653,24.167Zm.352-1.23a2.305,2.305,0,0,0,1.854-.835,3.438,3.438,0,0,0,.7-2.285l-2.285.439a3.076,3.076,0,0,0-1.34.479,1.114,1.114,0,0,0-.435.945,1.1,1.1,0,0,0,.417.949A1.785,1.785,0,0,0-89.3,22.937Zm7.277-9.07L-79.818,11l.809.589-1.969,2.276ZM-82.217,24V15.36h1.529V24Zm5.818-1.23h4.605V24h-6.891l4.553-7.4H-78.42V15.36H-71.8Zm14.977,1.389a4.161,4.161,0,0,1-3.094-1.239,4.421,4.421,0,0,1-1.222-3.243,4.43,4.43,0,0,1,1.217-3.243,4.158,4.158,0,0,1,3.1-1.239,4.191,4.191,0,0,1,2.5.756,3.815,3.815,0,0,1,1.455,2.1l-1.424.229a2.63,2.63,0,0,0-.976-1.345,2.656,2.656,0,0,0-1.564-.475,2.554,2.554,0,0,0-2,.888,3.382,3.382,0,0,0-.787,2.329A3.365,3.365,0,0,0-63.431,22a2.56,2.56,0,0,0,2,.883,2.656,2.656,0,0,0,1.564-.475,2.63,2.63,0,0,0,.976-1.345l1.424.237a3.819,3.819,0,0,1-1.463,2.1A4.185,4.185,0,0,1-61.422,24.158Zm11.575-8.8h1.521V24h-1.459l-.035-1.143a2.7,2.7,0,0,1-1.072.971,3.3,3.3,0,0,1-1.512.338,3.005,3.005,0,0,1-2.175-.782,2.918,2.918,0,0,1-.813-2.206V15.36h1.521v5.476a2.05,2.05,0,0,0,.532,1.547,1.882,1.882,0,0,0,1.358.51,2.067,2.067,0,0,0,1.534-.6,2.434,2.434,0,0,0,.6-1.767Zm6.609,8.807a2.94,2.94,0,0,1-1.894-.593,2.13,2.13,0,0,1-.743-1.771,2.517,2.517,0,0,1,.237-1.129,1.991,1.991,0,0,1,.7-.787,4.218,4.218,0,0,1,1.015-.488,9.384,9.384,0,0,1,1.314-.312l1.4-.229q.765-.141.765-.8a1.51,1.51,0,0,0-.541-1.288,2.2,2.2,0,0,0-1.367-.409,2.243,2.243,0,0,0-1.354.4,1.655,1.655,0,0,0-.642,1.213l-1.371-.29a2.639,2.639,0,0,1,1.081-1.85,4.039,4.039,0,0,1,2.355-.62,4.777,4.777,0,0,1,1.252.154,3.4,3.4,0,0,1,1.046.483,2.168,2.168,0,0,1,.747.932,3.466,3.466,0,0,1,.268,1.419v3.568a1.46,1.46,0,0,0,.2.9.854.854,0,0,0,.681.233h.141V24H-38.7a1.442,1.442,0,0,1-1.635-1.169h-.07A3.3,3.3,0,0,1-43.238,24.167Zm.352-1.23a2.305,2.305,0,0,0,1.854-.835,3.438,3.438,0,0,0,.7-2.285l-2.285.439a3.076,3.076,0,0,0-1.34.479,1.114,1.114,0,0,0-.435.945,1.1,1.1,0,0,0,.417.949A1.785,1.785,0,0,0-42.886,22.937ZM-29.6,10.5h1.521V24h-1.468l-.035-1.679a3.179,3.179,0,0,1-1.23,1.362,3.429,3.429,0,0,1-1.828.5,3.883,3.883,0,0,1-1.564-.321,3.92,3.92,0,0,1-1.288-.9,4.16,4.16,0,0,1-.87-1.428,5.225,5.225,0,0,1-.321-1.854,4.543,4.543,0,0,1,1.173-3.243,3.788,3.788,0,0,1,2.87-1.248,3.443,3.443,0,0,1,1.806.488A3.2,3.2,0,0,1-29.6,17Zm-2.725,12.366a2.587,2.587,0,0,0,2.008-.91,3.283,3.283,0,0,0,.813-2.272,3.277,3.277,0,0,0-.817-2.268,2.586,2.586,0,0,0-2-.914,2.644,2.644,0,0,0-2.021.883,3.25,3.25,0,0,0-.817,2.3,3.25,3.25,0,0,0,.817,2.3A2.644,2.644,0,0,0-32.322,22.866Zm8.824-5.985a2.612,2.612,0,0,1,1.072-1.16,3.229,3.229,0,0,1,1.661-.457V16.7a2.846,2.846,0,0,0-2.008.642,2.68,2.68,0,0,0-.69,2.048V24h-1.521V15.36H-23.5Zm6.407,7.286a2.94,2.94,0,0,1-1.894-.593,2.13,2.13,0,0,1-.743-1.771,2.517,2.517,0,0,1,.237-1.129,1.991,1.991,0,0,1,.7-.787,4.218,4.218,0,0,1,1.015-.488,9.384,9.384,0,0,1,1.314-.312l1.4-.229q.765-.141.765-.8a1.51,1.51,0,0,0-.541-1.288,2.2,2.2,0,0,0-1.367-.409,2.243,2.243,0,0,0-1.354.4,1.655,1.655,0,0,0-.642,1.213l-1.371-.29a2.639,2.639,0,0,1,1.081-1.85,4.039,4.039,0,0,1,2.355-.62,4.777,4.777,0,0,1,1.252.154,3.4,3.4,0,0,1,1.046.483,2.168,2.168,0,0,1,.747.932,3.466,3.466,0,0,1,.268,1.419v3.568a1.46,1.46,0,0,0,.2.9.854.854,0,0,0,.681.233h.141V24h-.756a1.442,1.442,0,0,1-1.635-1.169h-.07A3.3,3.3,0,0,1-17.09,24.167Zm.352-1.23a2.305,2.305,0,0,0,1.854-.835,3.438,3.438,0,0,0,.7-2.285l-2.285.439a3.076,3.076,0,0,0-1.34.479,1.114,1.114,0,0,0-.435.945,1.1,1.1,0,0,0,.417.949A1.785,1.785,0,0,0-16.739,22.937ZM-3.45,10.5h1.521V24H-3.4l-.035-1.679a3.179,3.179,0,0,1-1.23,1.362,3.429,3.429,0,0,1-1.828.5,3.883,3.883,0,0,1-1.564-.321,3.92,3.92,0,0,1-1.288-.9,4.16,4.16,0,0,1-.87-1.428,5.225,5.225,0,0,1-.321-1.854A4.543,4.543,0,0,1-9.36,16.441a3.788,3.788,0,0,1,2.87-1.248,3.443,3.443,0,0,1,1.806.488A3.2,3.2,0,0,1-3.45,17ZM-6.174,22.866a2.587,2.587,0,0,0,2.008-.91,3.283,3.283,0,0,0,.813-2.272,3.277,3.277,0,0,0-.817-2.268,2.586,2.586,0,0,0-2-.914,2.644,2.644,0,0,0-2.021.883,3.25,3.25,0,0,0-.817,2.3,3.25,3.25,0,0,0,.817,2.3A2.644,2.644,0,0,0-6.174,22.866Zm9.334,1.3a2.94,2.94,0,0,1-1.894-.593A2.13,2.13,0,0,1,.523,21.8,2.517,2.517,0,0,1,.76,20.673a1.991,1.991,0,0,1,.7-.787A4.218,4.218,0,0,1,2.479,19.4a9.384,9.384,0,0,1,1.314-.312l1.4-.229q.765-.141.765-.8a1.51,1.51,0,0,0-.541-1.288,2.2,2.2,0,0,0-1.367-.409,2.243,2.243,0,0,0-1.354.4,1.655,1.655,0,0,0-.642,1.213l-1.371-.29a2.639,2.639,0,0,1,1.081-1.85,4.039,4.039,0,0,1,2.355-.62,4.777,4.777,0,0,1,1.252.154,3.4,3.4,0,0,1,1.046.483,2.168,2.168,0,0,1,.747.932A3.466,3.466,0,0,1,7.431,18.2v3.568a1.46,1.46,0,0,0,.2.9.854.854,0,0,0,.681.233h.141V24H7.695A1.442,1.442,0,0,1,6.06,22.831H5.99A3.3,3.3,0,0,1,3.16,24.167Zm.352-1.23A2.305,2.305,0,0,0,5.366,22.1a3.438,3.438,0,0,0,.7-2.285l-2.285.439a3.076,3.076,0,0,0-1.34.479,1.114,1.114,0,0,0-.435.945,1.1,1.1,0,0,0,.417.949A1.785,1.785,0,0,0,3.511,22.937ZM21.652,10.5h1.521V24H21.7l-.035-1.679a3.179,3.179,0,0,1-1.23,1.362,3.429,3.429,0,0,1-1.828.5,3.926,3.926,0,0,1-2.852-1.217,4.16,4.16,0,0,1-.87-1.428,5.225,5.225,0,0,1-.321-1.854,4.543,4.543,0,0,1,1.173-3.243,3.788,3.788,0,0,1,2.87-1.248,3.443,3.443,0,0,1,1.806.488A3.2,3.2,0,0,1,21.652,17ZM18.927,22.866a2.587,2.587,0,0,0,2.008-.91,3.283,3.283,0,0,0,.813-2.272,3.277,3.277,0,0,0-.817-2.268,2.586,2.586,0,0,0-2-.914,2.644,2.644,0,0,0-2.021.883,3.25,3.25,0,0,0-.817,2.3,3.25,3.25,0,0,0,.817,2.3A2.644,2.644,0,0,0,18.927,22.866Zm14.9-3.357-.018.413h-6.75a3.053,3.053,0,0,0,.826,2.21,2.713,2.713,0,0,0,1.969.769,2.59,2.59,0,0,0,1.433-.413,2.68,2.68,0,0,0,.984-1.143l1.371.29a3.9,3.9,0,0,1-1.477,1.854,4.028,4.028,0,0,1-2.294.677,4.174,4.174,0,0,1-3.111-1.2,4.479,4.479,0,0,1-1.187-3.287A4.458,4.458,0,0,1,26.763,16.4a4.122,4.122,0,0,1,3.063-1.2,3.9,3.9,0,0,1,2.9,1.107A4.376,4.376,0,0,1,33.825,19.509Zm-4-3.146a2.694,2.694,0,0,0-1.8.611,2.8,2.8,0,0,0-.91,1.78H32.3a2.567,2.567,0,0,0-.756-1.78A2.441,2.441,0,0,0,29.826,16.362Zm14.643,7.8a4.161,4.161,0,0,1-3.094-1.239,4.421,4.421,0,0,1-1.222-3.243,4.43,4.43,0,0,1,1.217-3.243,4.5,4.5,0,0,1,5.6-.483,3.815,3.815,0,0,1,1.455,2.1L47,18.278a2.63,2.63,0,0,0-.976-1.345,2.656,2.656,0,0,0-1.564-.475,2.554,2.554,0,0,0-2,.888,3.382,3.382,0,0,0-.787,2.329A3.365,3.365,0,0,0,42.46,22a2.56,2.56,0,0,0,2,.883,2.656,2.656,0,0,0,1.564-.475A2.63,2.63,0,0,0,47,21.064l1.424.237a3.819,3.819,0,0,1-1.463,2.1A4.185,4.185,0,0,1,44.468,24.158Zm8.191.009a2.94,2.94,0,0,1-1.894-.593,2.13,2.13,0,0,1-.743-1.771,2.517,2.517,0,0,1,.237-1.129,1.991,1.991,0,0,1,.7-.787,4.218,4.218,0,0,1,1.015-.488,9.384,9.384,0,0,1,1.314-.312l1.4-.229q.765-.141.765-.8a1.51,1.51,0,0,0-.541-1.288,2.2,2.2,0,0,0-1.367-.409,2.243,2.243,0,0,0-1.354.4,1.655,1.655,0,0,0-.642,1.213l-1.371-.29a2.639,2.639,0,0,1,1.081-1.85,4.039,4.039,0,0,1,2.355-.62,4.777,4.777,0,0,1,1.252.154,3.4,3.4,0,0,1,1.046.483,2.168,2.168,0,0,1,.747.932,3.466,3.466,0,0,1,.268,1.419v3.568a1.46,1.46,0,0,0,.2.9.854.854,0,0,0,.681.233h.141V24h-.756a1.442,1.442,0,0,1-1.635-1.169h-.07A3.3,3.3,0,0,1,52.66,24.167Zm.352-1.23a2.305,2.305,0,0,0,1.854-.835,3.438,3.438,0,0,0,.7-2.285l-2.285.439a3.076,3.076,0,0,0-1.34.479,1.114,1.114,0,0,0-.435.945,1.1,1.1,0,0,0,.417.949A1.785,1.785,0,0,0,53.011,22.937ZM66.3,10.5h1.521V24H66.353l-.035-1.679a3.179,3.179,0,0,1-1.23,1.362,3.429,3.429,0,0,1-1.828.5,3.926,3.926,0,0,1-2.852-1.217,4.16,4.16,0,0,1-.87-1.428,5.225,5.225,0,0,1-.321-1.854,4.543,4.543,0,0,1,1.173-3.243,3.788,3.788,0,0,1,2.87-1.248,3.443,3.443,0,0,1,1.806.488A3.2,3.2,0,0,1,66.3,17ZM63.576,22.866a2.587,2.587,0,0,0,2.008-.91,3.283,3.283,0,0,0,.813-2.272,3.277,3.277,0,0,0-.817-2.268,2.586,2.586,0,0,0-2-.914,2.644,2.644,0,0,0-2.021.883,3.25,3.25,0,0,0-.817,2.3,3.25,3.25,0,0,0,.817,2.3A2.644,2.644,0,0,0,63.576,22.866Zm9.334,1.3a2.94,2.94,0,0,1-1.894-.593,2.13,2.13,0,0,1-.743-1.771,2.517,2.517,0,0,1,.237-1.129,1.991,1.991,0,0,1,.7-.787,4.218,4.218,0,0,1,1.015-.488,9.384,9.384,0,0,1,1.314-.312l1.4-.229q.765-.141.765-.8a1.51,1.51,0,0,0-.541-1.288,2.2,2.2,0,0,0-1.367-.409,2.243,2.243,0,0,0-1.354.4,1.655,1.655,0,0,0-.642,1.213l-1.371-.29a2.639,2.639,0,0,1,1.081-1.85,4.039,4.039,0,0,1,2.355-.62,4.777,4.777,0,0,1,1.252.154,3.4,3.4,0,0,1,1.046.483,2.168,2.168,0,0,1,.747.932,3.466,3.466,0,0,1,.268,1.419v3.568a1.46,1.46,0,0,0,.2.9.854.854,0,0,0,.681.233H78.2V24h-.756a1.442,1.442,0,0,1-1.635-1.169h-.07A3.3,3.3,0,0,1,72.91,24.167Zm.352-1.23a2.305,2.305,0,0,0,1.854-.835,3.438,3.438,0,0,0,.7-2.285l-2.285.439a3.076,3.076,0,0,0-1.34.479,1.114,1.114,0,0,0-.435.945,1.1,1.1,0,0,0,.417.949A1.785,1.785,0,0,0,73.261,22.937Zm16.321-7.743a3.93,3.93,0,0,1,1.564.316,3.848,3.848,0,0,1,1.283.888,4.149,4.149,0,0,1,.866,1.424,5.25,5.25,0,0,1,.321,1.863,4.568,4.568,0,0,1-1.165,3.261,3.782,3.782,0,0,1-2.87,1.239,3.42,3.42,0,0,1-1.806-.492,3.226,3.226,0,0,1-1.235-1.327v5.985H85.021V15.36h1.468l.035,1.679a3.163,3.163,0,0,1,1.23-1.349A3.452,3.452,0,0,1,89.583,15.193Zm-.3,7.673a2.623,2.623,0,0,0,2-.875,3.253,3.253,0,0,0,.813-2.307,3.237,3.237,0,0,0-.813-2.3,2.726,2.726,0,0,0-4.03.04,3.24,3.24,0,0,0-.826,2.263,3.252,3.252,0,0,0,.826,2.272A2.636,2.636,0,0,0,89.284,22.866ZM97.5,16.881a2.612,2.612,0,0,1,1.072-1.16,3.229,3.229,0,0,1,1.661-.457V16.7a2.846,2.846,0,0,0-2.008.642,2.68,2.68,0,0,0-.69,2.048V24H96.016V15.36H97.5Zm8.051,7.286a4.554,4.554,0,0,1-2.215-.536,3.9,3.9,0,0,1-1.56-1.569,4.819,4.819,0,0,1-.576-2.386,4.4,4.4,0,0,1,1.226-3.256,4.6,4.6,0,0,1,6.253,0,4.41,4.41,0,0,1,1.222,3.256,4.413,4.413,0,0,1-1.226,3.265A4.232,4.232,0,0,1,105.552,24.167Zm-.009-1.266a2.654,2.654,0,0,0,2.043-.888,3.326,3.326,0,0,0,.813-2.338,3.314,3.314,0,0,0-.813-2.329,2.654,2.654,0,0,0-2.043-.888,2.617,2.617,0,0,0-2.026.888,3.336,3.336,0,0,0-.8,2.329,3.348,3.348,0,0,0,.8,2.338A2.617,2.617,0,0,0,105.543,22.9Zm13.122-12.4h1.521V24h-1.468l-.035-1.679a3.179,3.179,0,0,1-1.23,1.362,3.429,3.429,0,0,1-1.828.5,3.926,3.926,0,0,1-2.852-1.217,4.16,4.16,0,0,1-.87-1.428,5.225,5.225,0,0,1-.321-1.854,4.543,4.543,0,0,1,1.173-3.243,3.788,3.788,0,0,1,2.87-1.248,3.443,3.443,0,0,1,1.806.488A3.2,3.2,0,0,1,118.666,17Zm-2.725,12.366a2.587,2.587,0,0,0,2.008-.91,3.283,3.283,0,0,0,.813-2.272,3.277,3.277,0,0,0-.817-2.268,2.586,2.586,0,0,0-2-.914,2.644,2.644,0,0,0-2.021.883,3.25,3.25,0,0,0-.817,2.3,3.25,3.25,0,0,0,.817,2.3A2.644,2.644,0,0,0,115.941,22.866Zm12.718-7.506h1.521V24H128.72l-.035-1.143a2.7,2.7,0,0,1-1.072.971,3.3,3.3,0,0,1-1.512.338,3.005,3.005,0,0,1-2.175-.782,2.918,2.918,0,0,1-.813-2.206V15.36h1.521v5.476a2.05,2.05,0,0,0,.532,1.547,1.882,1.882,0,0,0,1.358.51,2.067,2.067,0,0,0,1.534-.6,2.434,2.434,0,0,0,.6-1.767Zm8.2,8.8a4.161,4.161,0,0,1-3.094-1.239,4.421,4.421,0,0,1-1.222-3.243,4.43,4.43,0,0,1,1.217-3.243,4.5,4.5,0,0,1,5.6-.483,3.815,3.815,0,0,1,1.455,2.1l-1.424.229a2.63,2.63,0,0,0-.976-1.345,2.656,2.656,0,0,0-1.564-.475,2.554,2.554,0,0,0-2,.888,3.382,3.382,0,0,0-.787,2.329A3.365,3.365,0,0,0,134.851,22a2.56,2.56,0,0,0,2,.883,2.656,2.656,0,0,0,1.564-.475,2.63,2.63,0,0,0,.976-1.345l1.424.237a3.819,3.819,0,0,1-1.463,2.1A4.185,4.185,0,0,1,136.859,24.158ZM145.815,24a2.271,2.271,0,0,1-1.687-.62,2.344,2.344,0,0,1-.615-1.727v-5.08h-1.767V15.36h.65a1.249,1.249,0,0,0,.954-.3,1.492,1.492,0,0,0,.277-1.015V12.478h1.415V15.36h1.986v1.213h-1.986V21.5a1.31,1.31,0,0,0,.33.954,1.154,1.154,0,0,0,.866.338h.791V24Zm6.943.167a4.554,4.554,0,0,1-2.215-.536,3.9,3.9,0,0,1-1.56-1.569,4.819,4.819,0,0,1-.576-2.386,4.4,4.4,0,0,1,1.226-3.256,4.6,4.6,0,0,1,6.253,0,4.41,4.41,0,0,1,1.222,3.256,4.413,4.413,0,0,1-1.226,3.265A4.232,4.232,0,0,1,152.758,24.167ZM152.75,22.9a2.654,2.654,0,0,0,2.043-.888,3.326,3.326,0,0,0,.813-2.338,3.314,3.314,0,0,0-.813-2.329,2.654,2.654,0,0,0-2.043-.888,2.617,2.617,0,0,0-2.026.888,3.336,3.336,0,0,0-.8,2.329,3.348,3.348,0,0,0,.8,2.338A2.617,2.617,0,0,0,152.75,22.9Z" transform="translate(5647.106 -2149.726)" fill="#00223d"/>
      <path id="Trazado_23925" data-name="Trazado 23925" d="M13.563-3.814A13.148,13.148,0,0,0,13.9-.383V0H10.227L9.912-1.531A4.57,4.57,0,0,1,7.943-.178,7.256,7.256,0,0,1,5.4.273,6.687,6.687,0,0,1,4.088.15,4.462,4.462,0,0,1,2.905-.267,3.589,3.589,0,0,1,1.928-1a3.208,3.208,0,0,1-.656-1.114,4.439,4.439,0,0,1-.246-1.524,4.227,4.227,0,0,1,.26-1.524A3.573,3.573,0,0,1,1.969-6.3a4.146,4.146,0,0,1,1.107-.834,8.474,8.474,0,0,1,1.395-.6,16.663,16.663,0,0,1,1.668-.437L8.449-8.7A2.548,2.548,0,0,0,9.5-9.14a.886.886,0,0,0,.308-.7,1.45,1.45,0,0,0-.69-1.354,3.224,3.224,0,0,0-1.675-.41q-2.42,0-2.748,2.146L1.2-10.09A4.719,4.719,0,0,1,3.24-13.3a8.1,8.1,0,0,1,4.416-1.032q5.906,0,5.906,5.072ZM6.631-2.393A3.167,3.167,0,0,0,9.064-3.411a4.292,4.292,0,0,0,.943-3.015l-3.336.943a3.942,3.942,0,0,0-1.4.574A1.179,1.179,0,0,0,4.785-3.9,1.309,1.309,0,0,0,5.3-2.782,2.15,2.15,0,0,0,6.631-2.393Z" transform="translate(5475.405 -2240)" fill="#002b45"/>
      <path id="Trazado_23926" data-name="Trazado 23926" d="M10.295-14.328a6.8,6.8,0,0,1,2.611.506,6.516,6.516,0,0,1,2.153,1.429,6.512,6.512,0,0,1,1.456,2.317A8.548,8.548,0,0,1,17.049-7a8.548,8.548,0,0,1-.533,3.076A6.512,6.512,0,0,1,15.06-1.606,6.516,6.516,0,0,1,12.906-.178a6.8,6.8,0,0,1-2.611.506A6.07,6.07,0,0,1,7.636-.239,3.931,3.931,0,0,1,5.865-1.832L5.77,0H2.037V-21H5.975v8.654a3.924,3.924,0,0,1,1.757-1.463A6.18,6.18,0,0,1,10.295-14.328ZM9.379-2.939a3.542,3.542,0,0,0,2.673-1.107A4.093,4.093,0,0,0,13.111-7a4.112,4.112,0,0,0-1.06-2.967,3.542,3.542,0,0,0-2.673-1.107A3.5,3.5,0,0,0,6.727-9.946,4.113,4.113,0,0,0,5.66-7,4.1,4.1,0,0,0,6.72-4.061,3.505,3.505,0,0,0,9.379-2.939Z" transform="translate(5475.405 -2196.283)" fill="#002b45"/>
      <path id="Trazado_23927" data-name="Trazado 23927" d="M0,0H38.526V1.605H0Z" transform="translate(5467 -2229.417)"/>
      <path id="Trazado_23928" data-name="Trazado 23928" d="M8.395.26A7.509,7.509,0,0,1,2.967-1.764,6.989,6.989,0,0,1,.861-7.041a6.973,6.973,0,0,1,2.1-5.277,7.533,7.533,0,0,1,5.435-2.01,7.489,7.489,0,0,1,4.553,1.354A6.043,6.043,0,0,1,15.3-9.16l-3.637.4a3.116,3.116,0,0,0-1.176-1.846,3.575,3.575,0,0,0-2.133-.615,3.224,3.224,0,0,0-2.57,1.148A4.5,4.5,0,0,0,4.8-7.041a4.508,4.508,0,0,0,.984,3.028,3.216,3.216,0,0,0,2.57,1.155,3.544,3.544,0,0,0,2.126-.615,3.188,3.188,0,0,0,1.183-1.846l3.637.4a6.059,6.059,0,0,1-2.372,3.814A7.458,7.458,0,0,1,8.395.26Z" transform="translate(5562.405 -2240)" fill="#002b45"/>
      <path id="Trazado_23929" data-name="Trazado 23929" d="M12-21h3.938V0H12.209l-.1-1.832A4.014,4.014,0,0,1,10.329-.239,6.006,6.006,0,0,1,7.7.328,6.836,6.836,0,0,1,5.072-.178,6.516,6.516,0,0,1,2.919-1.606,6.512,6.512,0,0,1,1.463-3.924,8.548,8.548,0,0,1,.93-7a7.99,7.99,0,0,1,.93-3.917,6.37,6.37,0,0,1,2.454-2.55A6.758,6.758,0,0,1,7.7-14.328a6.156,6.156,0,0,1,2.55.513A3.981,3.981,0,0,1,12-12.359ZM8.6-2.939a3.505,3.505,0,0,0,2.659-1.121A4.1,4.1,0,0,0,12.318-7a4.113,4.113,0,0,0-1.066-2.946A3.5,3.5,0,0,0,8.6-11.074,3.542,3.542,0,0,0,5.927-9.967,4.112,4.112,0,0,0,4.867-7a4.093,4.093,0,0,0,1.06,2.953A3.542,3.542,0,0,0,8.6-2.939Z" transform="translate(5562.405 -2196.283)" fill="#002b45"/>
      <path id="Trazado_23930" data-name="Trazado 23930" d="M0,0H38.526V1.605H0Z" transform="translate(5554 -2229.417)"/>
      <path id="Trazado_23931" data-name="Trazado 23931" d="M3.063-11.129v-2.994H15.135v2.994Zm0,6V-8.121H15.135v2.994Z" transform="translate(5516.405 -2217)" fill="#002b45"/>
      <path id="Trazado_23932" data-name="Trazado 23932" d="M4.949-8.682a2.161,2.161,0,0,1-1.593-.67,2.195,2.195,0,0,1-.663-1.6,2.145,2.145,0,0,1,.67-1.579,2.179,2.179,0,0,1,1.586-.663,2.2,2.2,0,0,1,1.593.663,2.135,2.135,0,0,1,.677,1.579,2.172,2.172,0,0,1-.677,1.6A2.19,2.19,0,0,1,4.949-8.682ZM1.49,5.031,3.2-3.91H7.246L4.307,5.031Z" transform="translate(5603.405 -2217)" fill="#002b45"/>
      <path id="Trazado_23933" data-name="Trazado 23933" d="M13.563-3.814A13.148,13.148,0,0,0,13.9-.383V0H10.227L9.912-1.531A4.57,4.57,0,0,1,7.943-.178,7.256,7.256,0,0,1,5.4.273,6.687,6.687,0,0,1,4.088.15,4.462,4.462,0,0,1,2.905-.267,3.589,3.589,0,0,1,1.928-1a3.208,3.208,0,0,1-.656-1.114,4.439,4.439,0,0,1-.246-1.524,4.227,4.227,0,0,1,.26-1.524A3.573,3.573,0,0,1,1.969-6.3a4.146,4.146,0,0,1,1.107-.834,8.474,8.474,0,0,1,1.395-.6,16.663,16.663,0,0,1,1.668-.437L8.449-8.7A2.548,2.548,0,0,0,9.5-9.14a.886.886,0,0,0,.308-.7,1.45,1.45,0,0,0-.69-1.354,3.224,3.224,0,0,0-1.675-.41q-2.42,0-2.748,2.146L1.2-10.09A4.719,4.719,0,0,1,3.24-13.3a8.1,8.1,0,0,1,4.416-1.032q5.906,0,5.906,5.072ZM6.631-2.393A3.167,3.167,0,0,0,9.064-3.411a4.292,4.292,0,0,0,.943-3.015l-3.336.943a3.942,3.942,0,0,0-1.4.574A1.179,1.179,0,0,0,4.785-3.9,1.309,1.309,0,0,0,5.3-2.782,2.15,2.15,0,0,0,6.631-2.393ZM19.852.273A2.156,2.156,0,0,1,18.272-.39a2.156,2.156,0,0,1-.663-1.579,2.195,2.195,0,0,1,.663-1.6,2.145,2.145,0,0,1,1.579-.67,2.183,2.183,0,0,1,1.6.67,2.183,2.183,0,0,1,.67,1.6,2.145,2.145,0,0,1-.67,1.579A2.195,2.195,0,0,1,19.852.273ZM36.381-21h3.938V0H36.586l-.1-1.832A4.014,4.014,0,0,1,34.706-.239a6.006,6.006,0,0,1-2.632.567,6.836,6.836,0,0,1-2.625-.506A6.516,6.516,0,0,1,27.3-1.606,6.512,6.512,0,0,1,25.84-3.924,8.548,8.548,0,0,1,25.307-7a7.99,7.99,0,0,1,.93-3.917,6.37,6.37,0,0,1,2.454-2.55,6.758,6.758,0,0,1,3.384-.861,6.156,6.156,0,0,1,2.55.513,3.981,3.981,0,0,1,1.757,1.456Zm-3.4,18.061a3.505,3.505,0,0,0,2.659-1.121A4.1,4.1,0,0,0,36.7-7a4.113,4.113,0,0,0-1.066-2.946,3.5,3.5,0,0,0-2.652-1.128A3.542,3.542,0,0,0,30.3-9.967,4.112,4.112,0,0,0,29.244-7,4.093,4.093,0,0,0,30.3-4.047,3.542,3.542,0,0,0,32.977-2.939Z" transform="translate(5663 -2214)" fill="#002b45"/>
      <path id="Trazado_23934" data-name="Trazado 23934" d="M8.395.26A7.509,7.509,0,0,1,2.967-1.764,6.989,6.989,0,0,1,.861-7.041a6.973,6.973,0,0,1,2.1-5.277,7.533,7.533,0,0,1,5.435-2.01,7.489,7.489,0,0,1,4.553,1.354A6.043,6.043,0,0,1,15.3-9.16l-3.637.4a3.116,3.116,0,0,0-1.176-1.846,3.575,3.575,0,0,0-2.133-.615,3.224,3.224,0,0,0-2.57,1.148A4.5,4.5,0,0,0,4.8-7.041a4.508,4.508,0,0,0,.984,3.028,3.216,3.216,0,0,0,2.57,1.155,3.544,3.544,0,0,0,2.126-.615,3.188,3.188,0,0,0,1.183-1.846l3.637.4a6.059,6.059,0,0,1-2.372,3.814A7.458,7.458,0,0,1,8.395.26ZM20.316.273A2.156,2.156,0,0,1,18.737-.39a2.156,2.156,0,0,1-.663-1.579,2.195,2.195,0,0,1,.663-1.6,2.145,2.145,0,0,1,1.579-.67,2.183,2.183,0,0,1,1.6.67,2.183,2.183,0,0,1,.67,1.6,2.145,2.145,0,0,1-.67,1.579A2.195,2.195,0,0,1,20.316.273Zm14.82-14.6a6.8,6.8,0,0,1,2.611.506A6.516,6.516,0,0,1,39.9-12.394a6.512,6.512,0,0,1,1.456,2.317A8.548,8.548,0,0,1,41.891-7a8.548,8.548,0,0,1-.533,3.076A6.512,6.512,0,0,1,39.9-1.606,6.516,6.516,0,0,1,37.748-.178a6.8,6.8,0,0,1-2.611.506,6.07,6.07,0,0,1-2.659-.567,3.931,3.931,0,0,1-1.771-1.593L30.611,0H26.879V-21h3.938v8.654a3.924,3.924,0,0,1,1.757-1.463A6.18,6.18,0,0,1,35.137-14.328ZM34.221-2.939a3.542,3.542,0,0,0,2.673-1.107A4.093,4.093,0,0,0,37.953-7a4.112,4.112,0,0,0-1.06-2.967,3.542,3.542,0,0,0-2.673-1.107,3.5,3.5,0,0,0-2.652,1.128A4.113,4.113,0,0,0,30.5-7a4.1,4.1,0,0,0,1.06,2.939A3.505,3.505,0,0,0,34.221-2.939Z" transform="translate(5765 -2214)" fill="#002b45"/>
      <path id="Trazado_23862" data-name="Trazado 23862" d="M7.921,5.123,4.1-8.4H1.384v-4.9H7.122L10.3-2.23l9.983-24.02h4.672L11.847,5.123Z" transform="translate(5641.107 -2215.802)" fill="#002b45"/>
      <path id="Trazado_23935" data-name="Trazado 23935" d="M0,0H45" transform="translate(5662.5 -2240.5)" fill="none" stroke="#002b45" stroke-width="3"/>
      <path id="Trazado_23862-2" data-name="Trazado 23862" d="M7.921,5.123,4.1-8.4H1.384v-4.9H7.122L10.3-2.23l9.983-24.02h4.672L11.847,5.123Z" transform="translate(5741.107 -2215.802)" fill="#002b45"/>
      <path id="Trazado_23936" data-name="Trazado 23936" d="M0,0H45" transform="translate(5762.5 -2240.5)" fill="none" stroke="#002b45" stroke-width="3"/>
    </g>
  </g>
</svg>
