<svg xmlns="http://www.w3.org/2000/svg" width="538.211" height="200.848" viewBox="0 0 538.211 200.848">
  <g id="Grupo_14558" data-name="Grupo 14558" transform="translate(-431 -1521)">
    <path id="Trazado_24125" data-name="Trazado 24125" d="M0,0H538.211V200.848H0Z" transform="translate(431 1521)" fill="#d5f4fc"/>
    <path id="Trazado_24126" data-name="Trazado 24126" d="M9.888,0,8.824-2.962h-5.6L2.171,0H.527L5.089-12.375H6.97L11.531,0ZM3.727-4.351H8.332l-2.3-6.442ZM17.684-8.807a3.005,3.005,0,0,1,2.175.782,2.918,2.918,0,0,1,.813,2.206V0H19.151V-5.476a2.043,2.043,0,0,0-.527-1.547,1.885,1.885,0,0,0-1.354-.5,2.09,2.09,0,0,0-1.538.593,2.407,2.407,0,0,0-.606,1.762V0H13.605V-8.64h1.521v1.107A2.885,2.885,0,0,1,17.684-8.807ZM26.367,0A2.271,2.271,0,0,1,24.68-.62a2.344,2.344,0,0,1-.615-1.727v-5.08H22.3V-8.64h.65a1.249,1.249,0,0,0,.954-.3,1.492,1.492,0,0,0,.277-1.015v-1.564h1.415V-8.64H27.58v1.213H25.594V-2.5a1.31,1.31,0,0,0,.33.954,1.154,1.154,0,0,0,.866.338h.791V0ZM37.23-4.491l-.018.413h-6.75a3.053,3.053,0,0,0,.826,2.21,2.713,2.713,0,0,0,1.969.769,2.59,2.59,0,0,0,1.433-.413,2.68,2.68,0,0,0,.984-1.143l1.371.29A3.9,3.9,0,0,1,35.569-.51a4.028,4.028,0,0,1-2.294.677,4.174,4.174,0,0,1-3.111-1.2,4.479,4.479,0,0,1-1.187-3.287A4.458,4.458,0,0,1,30.168-7.6a4.122,4.122,0,0,1,3.063-1.2,3.9,3.9,0,0,1,2.9,1.107A4.376,4.376,0,0,1,37.23-4.491Zm-4-3.146a2.694,2.694,0,0,0-1.8.611,2.8,2.8,0,0,0-.91,1.78H35.7a2.567,2.567,0,0,0-.756-1.78A2.441,2.441,0,0,0,33.231-7.638ZM43.2.158A4.161,4.161,0,0,1,40.1-1.081a4.421,4.421,0,0,1-1.222-3.243A4.43,4.43,0,0,1,40.1-7.567a4.158,4.158,0,0,1,3.1-1.239,4.191,4.191,0,0,1,2.5.756,3.815,3.815,0,0,1,1.455,2.1l-1.424.229a2.63,2.63,0,0,0-.976-1.345,2.656,2.656,0,0,0-1.564-.475,2.554,2.554,0,0,0-2,.888A3.382,3.382,0,0,0,40.4-4.324,3.365,3.365,0,0,0,41.19-2a2.56,2.56,0,0,0,2,.883,2.656,2.656,0,0,0,1.564-.475,2.63,2.63,0,0,0,.976-1.345l1.424.237A3.819,3.819,0,0,1,45.69-.6,4.185,4.185,0,0,1,43.2.158ZM56.953-4.491l-.018.413h-6.75a3.053,3.053,0,0,0,.826,2.21A2.713,2.713,0,0,0,52.98-1.1a2.59,2.59,0,0,0,1.433-.413A2.68,2.68,0,0,0,55.4-2.654l1.371.29A3.9,3.9,0,0,1,55.292-.51,4.028,4.028,0,0,1,53,.167a4.174,4.174,0,0,1-3.111-1.2A4.479,4.479,0,0,1,48.7-4.324,4.458,4.458,0,0,1,49.891-7.6a4.122,4.122,0,0,1,3.063-1.2,3.9,3.9,0,0,1,2.9,1.107A4.376,4.376,0,0,1,56.953-4.491Zm-4-3.146a2.694,2.694,0,0,0-1.8.611,2.8,2.8,0,0,0-.91,1.78h5.177a2.567,2.567,0,0,0-.756-1.78A2.441,2.441,0,0,0,52.954-7.638ZM65.716-13.5h1.521V0H65.769l-.035-1.679A3.179,3.179,0,0,1,64.5-.316a3.429,3.429,0,0,1-1.828.5A3.883,3.883,0,0,1,61.11-.136a3.92,3.92,0,0,1-1.288-.9,4.16,4.16,0,0,1-.87-1.428,5.225,5.225,0,0,1-.321-1.854,4.543,4.543,0,0,1,1.173-3.243,3.788,3.788,0,0,1,2.87-1.248,3.443,3.443,0,0,1,1.806.488A3.2,3.2,0,0,1,65.716-7ZM62.991-1.134A2.587,2.587,0,0,0,65-2.043a3.283,3.283,0,0,0,.813-2.272A3.277,3.277,0,0,0,65-6.583a2.586,2.586,0,0,0-2-.914,2.644,2.644,0,0,0-2.021.883,3.25,3.25,0,0,0-.817,2.3,3.25,3.25,0,0,0,.817,2.3A2.644,2.644,0,0,0,62.991-1.134Zm14.9-3.357-.018.413h-6.75a3.053,3.053,0,0,0,.826,2.21,2.713,2.713,0,0,0,1.969.769,2.59,2.59,0,0,0,1.433-.413,2.68,2.68,0,0,0,.984-1.143l1.371.29A3.9,3.9,0,0,1,76.228-.51a4.028,4.028,0,0,1-2.294.677,4.174,4.174,0,0,1-3.111-1.2,4.479,4.479,0,0,1-1.187-3.287A4.458,4.458,0,0,1,70.827-7.6a4.122,4.122,0,0,1,3.063-1.2,3.9,3.9,0,0,1,2.9,1.107A4.376,4.376,0,0,1,77.889-4.491Zm-4-3.146a2.694,2.694,0,0,0-1.8.611,2.8,2.8,0,0,0-.91,1.78h5.177a2.567,2.567,0,0,0-.756-1.78A2.441,2.441,0,0,0,73.89-7.638ZM84.349-8.807a3.005,3.005,0,0,1,2.175.782,2.918,2.918,0,0,1,.813,2.206V0H85.816V-5.476a2.043,2.043,0,0,0-.527-1.547,1.885,1.885,0,0,0-1.354-.5A2.09,2.09,0,0,0,82.4-6.93a2.407,2.407,0,0,0-.606,1.762V0H80.271V-8.64h1.521v1.107A2.885,2.885,0,0,1,84.349-8.807ZM93.032,0a2.271,2.271,0,0,1-1.687-.62,2.344,2.344,0,0,1-.615-1.727v-5.08H88.963V-8.64h.65a1.249,1.249,0,0,0,.954-.3,1.492,1.492,0,0,0,.277-1.015v-1.564h1.415V-8.64h1.986v1.213H92.259V-2.5a1.31,1.31,0,0,0,.33.954,1.154,1.154,0,0,0,.866.338h.791V0ZM103.9-4.491l-.018.413h-6.75a3.053,3.053,0,0,0,.826,2.21,2.713,2.713,0,0,0,1.969.769,2.59,2.59,0,0,0,1.433-.413,2.68,2.68,0,0,0,.984-1.143l1.371.29A3.9,3.9,0,0,1,102.234-.51,4.028,4.028,0,0,1,99.94.167a4.174,4.174,0,0,1-3.111-1.2,4.479,4.479,0,0,1-1.187-3.287A4.458,4.458,0,0,1,96.833-7.6a4.122,4.122,0,0,1,3.063-1.2A3.9,3.9,0,0,1,102.8-7.7,4.376,4.376,0,0,1,103.9-4.491Zm-4-3.146a2.694,2.694,0,0,0-1.8.611,2.8,2.8,0,0,0-.91,1.78h5.177a2.567,2.567,0,0,0-.756-1.78A2.441,2.441,0,0,0,99.9-7.638Z" transform="translate(708.201 1574.103)" fill="#00223d"/>
    <path id="Trazado_24127" data-name="Trazado 24127" d="M0,0H30.98V1.766H0Z" transform="translate(644.668 1567.001)" fill="#ff9100"/>
    <path id="Trazado_23503" data-name="Trazado 23503" d="M1441.8,221.492l-1.2-1.293,6.377-5.926-6.377-5.928,1.2-1.293,7.765,7.221Z" transform="translate(-771.998 1353.613)" fill="#ff9100"/>
    <path id="Trazado_24128" data-name="Trazado 24128" d="M7.242.167A6.574,6.574,0,0,1,4.808-.277,5.879,5.879,0,0,1,2.852-1.525a5.567,5.567,0,0,1-1.3-2.008A7.263,7.263,0,0,1,1.081-6.2a7.144,7.144,0,0,1,.475-2.65,5.7,5.7,0,0,1,1.3-2.008A5.741,5.741,0,0,1,4.808-12.1a6.633,6.633,0,0,1,2.435-.439,6.287,6.287,0,0,1,3.292.87,5.421,5.421,0,0,1,2.175,2.417l-1.45.6a4.075,4.075,0,0,0-1.622-1.762,4.654,4.654,0,0,0-2.4-.62,4.921,4.921,0,0,0-1.8.325,4.317,4.317,0,0,0-1.459.932A4.206,4.206,0,0,0,3-8.253,5.674,5.674,0,0,0,2.646-6.2,5.71,5.71,0,0,0,3-4.135,4.2,4.2,0,0,0,3.981-2.6a4.374,4.374,0,0,0,1.459.936,4.863,4.863,0,0,0,1.8.33,4.654,4.654,0,0,0,2.4-.62,4.085,4.085,0,0,0,1.622-1.753l1.45.589A5.394,5.394,0,0,1,10.538-.7,6.305,6.305,0,0,1,7.242.167Zm11.408,0a4.554,4.554,0,0,1-2.215-.536,3.9,3.9,0,0,1-1.56-1.569A4.819,4.819,0,0,1,14.3-4.324a4.4,4.4,0,0,1,1.226-3.256A4.232,4.232,0,0,1,18.65-8.807a4.228,4.228,0,0,1,3.129,1.226A4.41,4.41,0,0,1,23-4.324a4.413,4.413,0,0,1-1.226,3.265A4.232,4.232,0,0,1,18.65.167ZM18.642-1.1a2.654,2.654,0,0,0,2.043-.888A3.326,3.326,0,0,0,21.5-4.324a3.314,3.314,0,0,0-.813-2.329,2.654,2.654,0,0,0-2.043-.888,2.617,2.617,0,0,0-2.026.888,3.336,3.336,0,0,0-.8,2.329,3.348,3.348,0,0,0,.8,2.338A2.617,2.617,0,0,0,18.642-1.1ZM29.461-8.807a3.005,3.005,0,0,1,2.175.782,2.918,2.918,0,0,1,.813,2.206V0H30.929V-5.476A2.043,2.043,0,0,0,30.4-7.022a1.885,1.885,0,0,0-1.354-.5,2.09,2.09,0,0,0-1.538.593A2.407,2.407,0,0,0,26.9-5.168V0H25.383V-8.64H26.9v1.107A2.885,2.885,0,0,1,29.461-8.807ZM38.118.167a4.1,4.1,0,0,1-2.329-.624,2.581,2.581,0,0,1-1.134-1.775l1.327-.378a1.851,1.851,0,0,0,.708,1.2,2.3,2.3,0,0,0,1.419.426A2.832,2.832,0,0,0,38.94-1.1a1.331,1.331,0,0,0,.637-.426,1.142,1.142,0,0,0,.255-.787,1.147,1.147,0,0,0-.07-.356,1.526,1.526,0,0,0-.141-.286.87.87,0,0,0-.246-.237,3.245,3.245,0,0,0-.3-.185,3.067,3.067,0,0,0-.391-.163q-.259-.092-.417-.141t-.483-.141q-.325-.092-.5-.145a9.372,9.372,0,0,1-.9-.316,3.932,3.932,0,0,1-.729-.417,1.679,1.679,0,0,1-.567-.681,2.3,2.3,0,0,1-.189-.967,2.234,2.234,0,0,1,.422-1.38,2.374,2.374,0,0,1,1.094-.813,4.374,4.374,0,0,1,1.534-.25,3.754,3.754,0,0,1,2.1.563,2.4,2.4,0,0,1,1.05,1.688l-1.248.316A1.655,1.655,0,0,0,39.2-7.317a2.1,2.1,0,0,0-1.239-.365,2.139,2.139,0,0,0-1.16.3,1.019,1.019,0,0,0-.483.927.923.923,0,0,0,.127.479,1.521,1.521,0,0,0,.259.338,1.594,1.594,0,0,0,.475.259q.343.136.51.185t.633.163q.088.026.132.035.51.132.831.233a5.105,5.105,0,0,1,.747.316,2.484,2.484,0,0,1,.672.47,2.178,2.178,0,0,1,.422.668,2.358,2.358,0,0,1,.176.932,2.516,2.516,0,0,1-.259,1.165,2.028,2.028,0,0,1-.708.8,3.422,3.422,0,0,1-1.006.435A4.8,4.8,0,0,1,38.118.167ZM51.249-4.491l-.018.413h-6.75a3.053,3.053,0,0,0,.826,2.21,2.713,2.713,0,0,0,1.969.769,2.59,2.59,0,0,0,1.433-.413,2.68,2.68,0,0,0,.984-1.143l1.371.29A3.9,3.9,0,0,1,49.588-.51a4.028,4.028,0,0,1-2.294.677,4.174,4.174,0,0,1-3.111-1.2A4.479,4.479,0,0,1,43-4.324,4.458,4.458,0,0,1,44.187-7.6a4.122,4.122,0,0,1,3.063-1.2,3.9,3.9,0,0,1,2.9,1.107A4.376,4.376,0,0,1,51.249-4.491Zm-4-3.146a2.694,2.694,0,0,0-1.8.611,2.8,2.8,0,0,0-.91,1.78H49.72a2.567,2.567,0,0,0-.756-1.78A2.441,2.441,0,0,0,47.25-7.638Zm9.967,7.8a4.161,4.161,0,0,1-3.094-1.239A4.421,4.421,0,0,1,52.9-4.324a4.43,4.43,0,0,1,1.217-3.243,4.158,4.158,0,0,1,3.1-1.239,4.191,4.191,0,0,1,2.5.756,3.815,3.815,0,0,1,1.455,2.1l-1.424.229a2.63,2.63,0,0,0-.976-1.345,2.656,2.656,0,0,0-1.564-.475,2.554,2.554,0,0,0-2,.888,3.382,3.382,0,0,0-.787,2.329A3.365,3.365,0,0,0,55.208-2a2.56,2.56,0,0,0,2,.883,2.656,2.656,0,0,0,1.564-.475,2.63,2.63,0,0,0,.976-1.345l1.424.237A3.819,3.819,0,0,1,59.708-.6,4.185,4.185,0,0,1,57.217.158Zm11.575-8.8h1.521V0H68.854l-.035-1.143a2.7,2.7,0,0,1-1.072.971,3.3,3.3,0,0,1-1.512.338,3.005,3.005,0,0,1-2.175-.782,2.918,2.918,0,0,1-.813-2.206V-8.64h1.521v5.476A2.05,2.05,0,0,0,65.3-1.617a1.882,1.882,0,0,0,1.358.51,2.067,2.067,0,0,0,1.534-.6,2.434,2.434,0,0,0,.6-1.767ZM80.965-4.491l-.018.413H74.2a3.053,3.053,0,0,0,.826,2.21,2.713,2.713,0,0,0,1.969.769,2.59,2.59,0,0,0,1.433-.413,2.68,2.68,0,0,0,.984-1.143l1.371.29A3.9,3.9,0,0,1,79.3-.51,4.028,4.028,0,0,1,77.01.167a4.174,4.174,0,0,1-3.111-1.2,4.479,4.479,0,0,1-1.187-3.287A4.458,4.458,0,0,1,73.9-7.6a4.122,4.122,0,0,1,3.063-1.2,3.9,3.9,0,0,1,2.9,1.107A4.376,4.376,0,0,1,80.965-4.491Zm-4-3.146a2.694,2.694,0,0,0-1.8.611,2.8,2.8,0,0,0-.91,1.78h5.177a2.567,2.567,0,0,0-.756-1.78A2.441,2.441,0,0,0,76.966-7.638ZM87.425-8.807a3.005,3.005,0,0,1,2.175.782,2.918,2.918,0,0,1,.813,2.206V0H88.893V-5.476a2.043,2.043,0,0,0-.527-1.547,1.885,1.885,0,0,0-1.354-.5,2.09,2.09,0,0,0-1.538.593,2.407,2.407,0,0,0-.606,1.762V0H83.347V-8.64h1.521v1.107A2.885,2.885,0,0,1,87.425-8.807ZM96.108,0a2.271,2.271,0,0,1-1.687-.62,2.344,2.344,0,0,1-.615-1.727v-5.08H92.039V-8.64h.65a1.249,1.249,0,0,0,.954-.3,1.492,1.492,0,0,0,.277-1.015v-1.564h1.415V-8.64h1.986v1.213H95.335V-2.5a1.31,1.31,0,0,0,.33.954,1.154,1.154,0,0,0,.866.338h.791V0Zm10.863-4.491-.018.413H100.2a3.053,3.053,0,0,0,.826,2.21A2.713,2.713,0,0,0,103-1.1a2.59,2.59,0,0,0,1.433-.413,2.68,2.68,0,0,0,.984-1.143l1.371.29A3.9,3.9,0,0,1,105.311-.51a4.028,4.028,0,0,1-2.294.677,4.174,4.174,0,0,1-3.111-1.2,4.479,4.479,0,0,1-1.187-3.287A4.458,4.458,0,0,1,99.91-7.6a4.122,4.122,0,0,1,3.063-1.2,3.9,3.9,0,0,1,2.9,1.107A4.376,4.376,0,0,1,106.972-4.491Zm-4-3.146a2.694,2.694,0,0,0-1.8.611,2.8,2.8,0,0,0-.91,1.78h5.177a2.567,2.567,0,0,0-.756-1.78A2.441,2.441,0,0,0,102.973-7.638Z" transform="translate(708.201 1621.721)" fill="#00223d"/>
    <path id="Trazado_24129" data-name="Trazado 24129" d="M0,0H30.98V1.766H0Z" transform="translate(644.668 1614.619)" fill="#ff9100"/>
    <path id="Trazado_23504" data-name="Trazado 23504" d="M1441.8,269.11l-1.2-1.293,6.377-5.926-6.377-5.928,1.2-1.293,7.765,7.221Z" transform="translate(-771.998 1353.613)" fill="#ff9100"/>
    <path id="Trazado_24130" data-name="Trazado 24130" d="M13.563-3.814A13.148,13.148,0,0,0,13.9-.383V0H10.227L9.912-1.531A4.57,4.57,0,0,1,7.943-.178,7.256,7.256,0,0,1,5.4.273,6.687,6.687,0,0,1,4.088.15,4.462,4.462,0,0,1,2.905-.267,3.589,3.589,0,0,1,1.928-1a3.208,3.208,0,0,1-.656-1.114,4.439,4.439,0,0,1-.246-1.524,4.227,4.227,0,0,1,.26-1.524A3.573,3.573,0,0,1,1.969-6.3a4.146,4.146,0,0,1,1.107-.834,8.474,8.474,0,0,1,1.395-.6,16.663,16.663,0,0,1,1.668-.437L8.449-8.7A2.548,2.548,0,0,0,9.5-9.14a.886.886,0,0,0,.308-.7,1.45,1.45,0,0,0-.69-1.354,3.224,3.224,0,0,0-1.675-.41q-2.42,0-2.748,2.146L1.2-10.09A4.719,4.719,0,0,1,3.24-13.3a8.1,8.1,0,0,1,4.416-1.032q5.906,0,5.906,5.072ZM6.631-2.393A3.167,3.167,0,0,0,9.064-3.411a4.292,4.292,0,0,0,.943-3.015l-3.336.943a3.942,3.942,0,0,0-1.4.574A1.179,1.179,0,0,0,4.785-3.9,1.309,1.309,0,0,0,5.3-2.782,2.15,2.15,0,0,0,6.631-2.393Z" transform="translate(584.299 1578)" fill="#002b45"/>
    <path id="Trazado_24131" data-name="Trazado 24131" d="M9.927-13.816a6.557,6.557,0,0,1,2.518.488,6.284,6.284,0,0,1,2.076,1.378,6.28,6.28,0,0,1,1.4,2.235A8.243,8.243,0,0,1,16.44-6.75a8.243,8.243,0,0,1-.514,2.966,6.28,6.28,0,0,1-1.4,2.235A6.284,6.284,0,0,1,12.445-.171,6.557,6.557,0,0,1,9.927.316,5.853,5.853,0,0,1,7.363-.231,3.79,3.79,0,0,1,5.656-1.767L5.563,0h-3.6V-20.25h3.8V-11.9a3.784,3.784,0,0,1,1.694-1.411A5.959,5.959,0,0,1,9.927-13.816ZM9.044-2.834A3.416,3.416,0,0,0,11.621-3.9,3.947,3.947,0,0,0,12.643-6.75a3.965,3.965,0,0,0-1.022-2.861,3.416,3.416,0,0,0-2.577-1.068A3.376,3.376,0,0,0,6.486-9.591,3.966,3.966,0,0,0,5.458-6.75,3.958,3.958,0,0,0,6.48-3.916,3.38,3.38,0,0,0,9.044-2.834Z" transform="translate(584.299 1623.717)" fill="#002b45"/>
    <path id="Trazado_24132" data-name="Trazado 24132" d="M0,0H38.526V1.605H0Z" transform="translate(575.894 1588.583)"/>
    <path id="Trazado_24133" data-name="Trazado 24133" d="M-194.467-1.433h4.3V0h-5.871V-12.375h1.573Zm9.984,1.6A4.554,4.554,0,0,1-186.7-.369a3.9,3.9,0,0,1-1.56-1.569,4.819,4.819,0,0,1-.576-2.386,4.4,4.4,0,0,1,1.226-3.256,4.232,4.232,0,0,1,3.125-1.226,4.228,4.228,0,0,1,3.129,1.226,4.41,4.41,0,0,1,1.222,3.256,4.413,4.413,0,0,1-1.226,3.265A4.232,4.232,0,0,1-184.482.167Zm-.009-1.266a2.654,2.654,0,0,0,2.043-.888,3.326,3.326,0,0,0,.813-2.338,3.314,3.314,0,0,0-.813-2.329,2.654,2.654,0,0,0-2.043-.888,2.617,2.617,0,0,0-2.026.888,3.336,3.336,0,0,0-.8,2.329,3.348,3.348,0,0,0,.8,2.338A2.617,2.617,0,0,0-184.491-1.1Zm9.475,1.266a4.1,4.1,0,0,1-2.329-.624,2.581,2.581,0,0,1-1.134-1.775l1.327-.378a1.851,1.851,0,0,0,.708,1.2,2.3,2.3,0,0,0,1.419.426,2.832,2.832,0,0,0,.831-.114,1.331,1.331,0,0,0,.637-.426,1.142,1.142,0,0,0,.255-.787,1.147,1.147,0,0,0-.07-.356,1.526,1.526,0,0,0-.141-.286.87.87,0,0,0-.246-.237,3.245,3.245,0,0,0-.3-.185,3.067,3.067,0,0,0-.391-.163q-.259-.092-.417-.141t-.483-.141q-.325-.092-.5-.145a9.372,9.372,0,0,1-.9-.316,3.932,3.932,0,0,1-.729-.417,1.679,1.679,0,0,1-.567-.681,2.3,2.3,0,0,1-.189-.967,2.234,2.234,0,0,1,.422-1.38,2.374,2.374,0,0,1,1.094-.813,4.374,4.374,0,0,1,1.534-.25,3.754,3.754,0,0,1,2.1.563,2.4,2.4,0,0,1,1.05,1.688l-1.248.316a1.655,1.655,0,0,0-.659-1.094,2.1,2.1,0,0,0-1.239-.365,2.139,2.139,0,0,0-1.16.3,1.019,1.019,0,0,0-.483.927.923.923,0,0,0,.127.479,1.521,1.521,0,0,0,.259.338,1.594,1.594,0,0,0,.475.259q.343.136.51.185t.633.163q.088.026.132.035.51.132.831.233a5.105,5.105,0,0,1,.747.316,2.484,2.484,0,0,1,.672.47,2.178,2.178,0,0,1,.422.668,2.358,2.358,0,0,1,.176.932,2.516,2.516,0,0,1-.259,1.165,2.028,2.028,0,0,1-.708.8,3.422,3.422,0,0,1-1.006.435A4.8,4.8,0,0,1-175.017.167ZM-162.009,0A2.271,2.271,0,0,1-163.7-.62a2.344,2.344,0,0,1-.615-1.727v-5.08h-1.767V-8.64h.65a1.249,1.249,0,0,0,.954-.3,1.492,1.492,0,0,0,.277-1.015v-1.564h1.415V-8.64h1.986v1.213h-1.986V-2.5a1.31,1.31,0,0,0,.33.954,1.154,1.154,0,0,0,.866.338h.791V0Zm9.352-12.437-1.969,2.276h-1.046l2.206-2.865Zm1.512,7.945-.018.413h-6.75a3.053,3.053,0,0,0,.826,2.21,2.713,2.713,0,0,0,1.969.769,2.59,2.59,0,0,0,1.433-.413,2.68,2.68,0,0,0,.984-1.143l1.371.29A3.9,3.9,0,0,1-152.807-.51,4.028,4.028,0,0,1-155.1.167a4.174,4.174,0,0,1-3.111-1.2A4.479,4.479,0,0,1-159.4-4.324,4.458,4.458,0,0,1-158.208-7.6a4.122,4.122,0,0,1,3.063-1.2,3.9,3.9,0,0,1,2.9,1.107A4.376,4.376,0,0,1-151.146-4.491Zm-4-3.146a2.694,2.694,0,0,0-1.8.611,2.8,2.8,0,0,0-.91,1.78h5.177a2.567,2.567,0,0,0-.756-1.78A2.441,2.441,0,0,0-155.145-7.638Zm7.866.519a2.612,2.612,0,0,1,1.072-1.16,3.229,3.229,0,0,1,1.661-.457V-7.3a2.846,2.846,0,0,0-2.008.642,2.68,2.68,0,0,0-.69,2.048V0h-1.521V-8.64h1.485Zm13.351-1.687a2.785,2.785,0,0,1,2.013.734,2.722,2.722,0,0,1,.765,2.061V0h-1.521V-5.616a1.952,1.952,0,0,0-.475-1.424,1.616,1.616,0,0,0-1.2-.483,1.706,1.706,0,0,0-1.318.545,2.343,2.343,0,0,0-.5,1.635V0h-1.547V-5.555a2.042,2.042,0,0,0-.479-1.472,1.629,1.629,0,0,0-1.226-.5,1.69,1.69,0,0,0-1.314.558,2.424,2.424,0,0,0-.505,1.674V0h-1.521V-8.64h1.521v1.116a2.625,2.625,0,0,1,.989-.949,2.82,2.82,0,0,1,1.375-.334,2.935,2.935,0,0,1,1.477.365,2.271,2.271,0,0,1,.958,1.05,2.689,2.689,0,0,1,1.037-1.05A2.966,2.966,0,0,1-133.928-8.807Zm6.5-1.863a.989.989,0,0,1-.725-.3.989.989,0,0,1-.3-.725.975.975,0,0,1,.3-.721,1,1,0,0,1,.725-.3.987.987,0,0,1,.716.3.975.975,0,0,1,.3.721.989.989,0,0,1-.3.725A.979.979,0,0,1-127.433-10.67ZM-128.206,0V-8.64h1.529V0Zm8.7-8.807a3.005,3.005,0,0,1,2.175.782,2.918,2.918,0,0,1,.813,2.206V0h-1.521V-5.476a2.043,2.043,0,0,0-.527-1.547,1.885,1.885,0,0,0-1.354-.5,2.09,2.09,0,0,0-1.538.593,2.407,2.407,0,0,0-.606,1.762V0h-1.521V-8.64h1.521v1.107A2.885,2.885,0,0,1-119.5-8.807Zm9.563,8.974a4.554,4.554,0,0,1-2.215-.536,3.9,3.9,0,0,1-1.56-1.569,4.819,4.819,0,0,1-.576-2.386,4.4,4.4,0,0,1,1.226-3.256,4.232,4.232,0,0,1,3.125-1.226,4.228,4.228,0,0,1,3.129,1.226,4.41,4.41,0,0,1,1.222,3.256,4.413,4.413,0,0,1-1.226,3.265A4.232,4.232,0,0,1-109.942.167Zm-.009-1.266a2.654,2.654,0,0,0,2.043-.888,3.326,3.326,0,0,0,.813-2.338,3.314,3.314,0,0,0-.813-2.329,2.654,2.654,0,0,0-2.043-.888,2.617,2.617,0,0,0-2.026.888,3.336,3.336,0,0,0-.8,2.329,3.348,3.348,0,0,0,.8,2.338A2.617,2.617,0,0,0-109.951-1.1Zm9.475,1.266a4.1,4.1,0,0,1-2.329-.624,2.581,2.581,0,0,1-1.134-1.775l1.327-.378a1.851,1.851,0,0,0,.708,1.2,2.3,2.3,0,0,0,1.419.426,2.832,2.832,0,0,0,.831-.114,1.331,1.331,0,0,0,.637-.426,1.142,1.142,0,0,0,.255-.787,1.147,1.147,0,0,0-.07-.356,1.526,1.526,0,0,0-.141-.286.87.87,0,0,0-.246-.237,3.245,3.245,0,0,0-.3-.185,3.067,3.067,0,0,0-.391-.163q-.259-.092-.417-.141t-.483-.141q-.325-.092-.5-.145a9.372,9.372,0,0,1-.9-.316,3.932,3.932,0,0,1-.729-.417,1.679,1.679,0,0,1-.567-.681,2.3,2.3,0,0,1-.189-.967,2.234,2.234,0,0,1,.422-1.38,2.374,2.374,0,0,1,1.094-.813,4.374,4.374,0,0,1,1.534-.25,3.754,3.754,0,0,1,2.1.563,2.4,2.4,0,0,1,1.05,1.688l-1.248.316A1.655,1.655,0,0,0-99.4-7.317a2.1,2.1,0,0,0-1.239-.365,2.139,2.139,0,0,0-1.16.3,1.019,1.019,0,0,0-.483.927.923.923,0,0,0,.127.479,1.521,1.521,0,0,0,.259.338,1.594,1.594,0,0,0,.475.259q.343.136.51.185t.633.163q.088.026.132.035.51.132.831.233a5.105,5.105,0,0,1,.747.316,2.484,2.484,0,0,1,.672.47,2.178,2.178,0,0,1,.422.668,2.358,2.358,0,0,1,.176.932,2.516,2.516,0,0,1-.259,1.165,2.028,2.028,0,0,1-.708.8,3.422,3.422,0,0,1-1.006.435A4.8,4.8,0,0,1-100.477.167ZM-83.848-13.5h1.521V0h-1.468l-.035-1.679a3.179,3.179,0,0,1-1.23,1.362,3.429,3.429,0,0,1-1.828.5,3.883,3.883,0,0,1-1.564-.321,3.92,3.92,0,0,1-1.288-.9,4.16,4.16,0,0,1-.87-1.428,5.225,5.225,0,0,1-.321-1.854,4.543,4.543,0,0,1,1.173-3.243,3.788,3.788,0,0,1,2.87-1.248,3.443,3.443,0,0,1,1.806.488A3.2,3.2,0,0,1-83.848-7ZM-86.572-1.134a2.587,2.587,0,0,0,2.008-.91,3.283,3.283,0,0,0,.813-2.272,3.277,3.277,0,0,0-.817-2.268,2.586,2.586,0,0,0-2-.914,2.644,2.644,0,0,0-2.021.883,3.25,3.25,0,0,0-.817,2.3,3.25,3.25,0,0,0,.817,2.3A2.644,2.644,0,0,0-86.572-1.134Zm14.9-3.357-.018.413h-6.75a3.053,3.053,0,0,0,.826,2.21,2.713,2.713,0,0,0,1.969.769,2.59,2.59,0,0,0,1.433-.413,2.68,2.68,0,0,0,.984-1.143l1.371.29A3.9,3.9,0,0,1-73.336-.51,4.028,4.028,0,0,1-75.63.167a4.174,4.174,0,0,1-3.111-1.2,4.479,4.479,0,0,1-1.187-3.287A4.458,4.458,0,0,1-78.737-7.6a4.122,4.122,0,0,1,3.063-1.2,3.9,3.9,0,0,1,2.9,1.107A4.376,4.376,0,0,1-71.675-4.491Zm-4-3.146a2.694,2.694,0,0,0-1.8.611,2.8,2.8,0,0,0-.91,1.78H-73.2a2.567,2.567,0,0,0-.756-1.78A2.441,2.441,0,0,0-75.674-7.638ZM-64.617,0V-13.5h1.538V0Zm6.627.167a2.94,2.94,0,0,1-1.894-.593A2.13,2.13,0,0,1-60.627-2.2a2.517,2.517,0,0,1,.237-1.129,1.991,1.991,0,0,1,.7-.787A4.218,4.218,0,0,1-58.671-4.6a9.384,9.384,0,0,1,1.314-.312l1.4-.229q.765-.141.765-.8a1.51,1.51,0,0,0-.541-1.288A2.2,2.2,0,0,0-57.1-7.638a2.243,2.243,0,0,0-1.354.4A1.655,1.655,0,0,0-59.1-6.029l-1.371-.29a2.639,2.639,0,0,1,1.081-1.85,4.039,4.039,0,0,1,2.355-.62,4.777,4.777,0,0,1,1.252.154,3.4,3.4,0,0,1,1.046.483,2.168,2.168,0,0,1,.747.932A3.466,3.466,0,0,1-53.719-5.8v3.568a1.46,1.46,0,0,0,.2.9.854.854,0,0,0,.681.233h.141V0h-.756A1.442,1.442,0,0,1-55.09-1.169h-.07A3.3,3.3,0,0,1-57.99.167Zm.352-1.23A2.305,2.305,0,0,0-55.784-1.9a3.438,3.438,0,0,0,.7-2.285l-2.285.439a3.076,3.076,0,0,0-1.34.479,1.114,1.114,0,0,0-.435.945,1.1,1.1,0,0,0,.417.949A1.785,1.785,0,0,0-57.639-1.063Zm13.245-6.056a2.612,2.612,0,0,1,1.072-1.16,3.229,3.229,0,0,1,1.661-.457V-7.3a2.846,2.846,0,0,0-2.008.642,2.68,2.68,0,0,0-.69,2.048V0h-1.521V-8.64h1.485ZM-37.986.167A2.94,2.94,0,0,1-39.88-.426,2.13,2.13,0,0,1-40.623-2.2a2.517,2.517,0,0,1,.237-1.129,1.991,1.991,0,0,1,.7-.787A4.218,4.218,0,0,1-38.667-4.6a9.384,9.384,0,0,1,1.314-.312l1.4-.229q.765-.141.765-.8a1.51,1.51,0,0,0-.541-1.288A2.2,2.2,0,0,0-37.1-7.638a2.243,2.243,0,0,0-1.354.4,1.655,1.655,0,0,0-.642,1.213l-1.371-.29a2.639,2.639,0,0,1,1.081-1.85,4.039,4.039,0,0,1,2.355-.62,4.777,4.777,0,0,1,1.252.154,3.4,3.4,0,0,1,1.046.483,2.168,2.168,0,0,1,.747.932A3.466,3.466,0,0,1-33.715-5.8v3.568a1.46,1.46,0,0,0,.2.9.854.854,0,0,0,.681.233h.141V0h-.756a1.442,1.442,0,0,1-1.635-1.169h-.07A3.3,3.3,0,0,1-37.986.167Zm.352-1.23A2.305,2.305,0,0,0-35.78-1.9a3.438,3.438,0,0,0,.7-2.285l-2.285.439a3.076,3.076,0,0,0-1.34.479,1.114,1.114,0,0,0-.435.945,1.1,1.1,0,0,0,.417.949A1.785,1.785,0,0,0-37.635-1.063Zm8.279-.167h4.605V0h-6.891l4.553-7.4h-4.289V-8.64h6.618Zm9.466-8.895,2.206-2.865.809.589-1.969,2.276ZM-19.31.167a4.554,4.554,0,0,1-2.215-.536,3.9,3.9,0,0,1-1.56-1.569,4.819,4.819,0,0,1-.576-2.386,4.4,4.4,0,0,1,1.226-3.256A4.232,4.232,0,0,1-19.31-8.807a4.228,4.228,0,0,1,3.129,1.226,4.41,4.41,0,0,1,1.222,3.256,4.413,4.413,0,0,1-1.226,3.265A4.232,4.232,0,0,1-19.31.167ZM-19.318-1.1a2.654,2.654,0,0,0,2.043-.888,3.326,3.326,0,0,0,.813-2.338,3.314,3.314,0,0,0-.813-2.329,2.654,2.654,0,0,0-2.043-.888,2.617,2.617,0,0,0-2.026.888,3.336,3.336,0,0,0-.8,2.329,3.348,3.348,0,0,0,.8,2.338A2.617,2.617,0,0,0-19.318-1.1ZM-8.5-8.807a3.005,3.005,0,0,1,2.175.782,2.918,2.918,0,0,1,.813,2.206V0H-7.031V-5.476a2.043,2.043,0,0,0-.527-1.547,1.885,1.885,0,0,0-1.354-.5,2.09,2.09,0,0,0-1.538.593,2.407,2.407,0,0,0-.606,1.762V0h-1.521V-8.64h1.521v1.107A2.885,2.885,0,0,1-8.5-8.807ZM4.834.167A4.1,4.1,0,0,1,2.5-.457,2.581,2.581,0,0,1,1.371-2.232L2.7-2.61a1.851,1.851,0,0,0,.708,1.2,2.3,2.3,0,0,0,1.419.426A2.832,2.832,0,0,0,5.656-1.1a1.331,1.331,0,0,0,.637-.426,1.142,1.142,0,0,0,.255-.787,1.147,1.147,0,0,0-.07-.356,1.526,1.526,0,0,0-.141-.286.87.87,0,0,0-.246-.237,3.245,3.245,0,0,0-.3-.185A3.067,3.067,0,0,0,5.4-3.538q-.259-.092-.417-.141T4.5-3.819q-.325-.092-.5-.145a9.372,9.372,0,0,1-.9-.316A3.932,3.932,0,0,1,2.373-4.7a1.679,1.679,0,0,1-.567-.681,2.3,2.3,0,0,1-.189-.967,2.234,2.234,0,0,1,.422-1.38,2.374,2.374,0,0,1,1.094-.813,4.374,4.374,0,0,1,1.534-.25,3.754,3.754,0,0,1,2.1.563,2.4,2.4,0,0,1,1.05,1.688l-1.248.316a1.655,1.655,0,0,0-.659-1.094,2.1,2.1,0,0,0-1.239-.365,2.139,2.139,0,0,0-1.16.3,1.019,1.019,0,0,0-.483.927.923.923,0,0,0,.127.479,1.521,1.521,0,0,0,.259.338,1.594,1.594,0,0,0,.475.259q.343.136.51.185t.633.163q.088.026.132.035.51.132.831.233a5.105,5.105,0,0,1,.747.316,2.484,2.484,0,0,1,.672.47A2.178,2.178,0,0,1,7.84-3.3a2.358,2.358,0,0,1,.176.932,2.516,2.516,0,0,1-.259,1.165,2.028,2.028,0,0,1-.708.8A3.422,3.422,0,0,1,6.042.022,4.8,4.8,0,0,1,4.834.167ZM17.965-4.491l-.018.413H11.2a3.053,3.053,0,0,0,.826,2.21,2.713,2.713,0,0,0,1.969.769,2.59,2.59,0,0,0,1.433-.413,2.68,2.68,0,0,0,.984-1.143l1.371.29A3.9,3.9,0,0,1,16.3-.51,4.028,4.028,0,0,1,14.01.167a4.174,4.174,0,0,1-3.111-1.2A4.479,4.479,0,0,1,9.712-4.324,4.458,4.458,0,0,1,10.9-7.6a4.122,4.122,0,0,1,3.063-1.2,3.9,3.9,0,0,1,2.9,1.107A4.376,4.376,0,0,1,17.965-4.491Zm-4-3.146a2.694,2.694,0,0,0-1.8.611,2.8,2.8,0,0,0-.91,1.78h5.177a2.567,2.567,0,0,0-.756-1.78A2.441,2.441,0,0,0,13.966-7.638ZM25.022,0V-13.5h1.538V0Zm4.632,0V-13.5h1.538V0Zm6.627.167a2.94,2.94,0,0,1-1.894-.593A2.13,2.13,0,0,1,33.645-2.2a2.517,2.517,0,0,1,.237-1.129,1.991,1.991,0,0,1,.7-.787A4.218,4.218,0,0,1,35.6-4.6a9.384,9.384,0,0,1,1.314-.312l1.4-.229q.765-.141.765-.8a1.51,1.51,0,0,0-.541-1.288,2.2,2.2,0,0,0-1.367-.409,2.243,2.243,0,0,0-1.354.4,1.655,1.655,0,0,0-.642,1.213L33.8-6.319a2.639,2.639,0,0,1,1.081-1.85,4.039,4.039,0,0,1,2.355-.62,4.777,4.777,0,0,1,1.252.154,3.4,3.4,0,0,1,1.046.483,2.168,2.168,0,0,1,.747.932A3.466,3.466,0,0,1,40.553-5.8v3.568a1.46,1.46,0,0,0,.2.9.854.854,0,0,0,.681.233h.141V0h-.756a1.442,1.442,0,0,1-1.635-1.169h-.07A3.3,3.3,0,0,1,36.281.167Zm.352-1.23A2.305,2.305,0,0,0,38.487-1.9a3.438,3.438,0,0,0,.7-2.285l-2.285.439a3.076,3.076,0,0,0-1.34.479,1.114,1.114,0,0,0-.435.945,1.1,1.1,0,0,0,.417.949A1.785,1.785,0,0,0,36.633-1.063ZM52.55-8.807a2.785,2.785,0,0,1,2.013.734,2.722,2.722,0,0,1,.765,2.061V0H53.807V-5.616a1.952,1.952,0,0,0-.475-1.424,1.616,1.616,0,0,0-1.2-.483,1.706,1.706,0,0,0-1.318.545,2.343,2.343,0,0,0-.5,1.635V0H48.762V-5.555a2.042,2.042,0,0,0-.479-1.472,1.629,1.629,0,0,0-1.226-.5,1.69,1.69,0,0,0-1.314.558,2.424,2.424,0,0,0-.505,1.674V0H43.717V-8.64h1.521v1.116a2.625,2.625,0,0,1,.989-.949A2.82,2.82,0,0,1,47.6-8.807a2.935,2.935,0,0,1,1.477.365,2.271,2.271,0,0,1,.958,1.05,2.689,2.689,0,0,1,1.037-1.05A2.966,2.966,0,0,1,52.55-8.807ZM60.267.167a2.94,2.94,0,0,1-1.894-.593A2.13,2.13,0,0,1,57.63-2.2a2.517,2.517,0,0,1,.237-1.129,1.991,1.991,0,0,1,.7-.787A4.218,4.218,0,0,1,59.585-4.6,9.384,9.384,0,0,1,60.9-4.913l1.4-.229q.765-.141.765-.8a1.51,1.51,0,0,0-.541-1.288,2.2,2.2,0,0,0-1.367-.409,2.243,2.243,0,0,0-1.354.4,1.655,1.655,0,0,0-.642,1.213l-1.371-.29a2.639,2.639,0,0,1,1.081-1.85,4.039,4.039,0,0,1,2.355-.62,4.777,4.777,0,0,1,1.252.154,3.4,3.4,0,0,1,1.046.483,2.168,2.168,0,0,1,.747.932A3.466,3.466,0,0,1,64.538-5.8v3.568a1.46,1.46,0,0,0,.2.9.854.854,0,0,0,.681.233h.141V0H64.8a1.442,1.442,0,0,1-1.635-1.169H63.1A3.3,3.3,0,0,1,60.267.167Zm.352-1.23A2.305,2.305,0,0,0,62.473-1.9a3.438,3.438,0,0,0,.7-2.285l-2.285.439a3.076,3.076,0,0,0-1.34.479,1.114,1.114,0,0,0-.435.945,1.1,1.1,0,0,0,.417.949A1.785,1.785,0,0,0,60.618-1.063ZM71.78-8.807a3.005,3.005,0,0,1,2.175.782,2.918,2.918,0,0,1,.813,2.206V0H73.248V-5.476a2.043,2.043,0,0,0-.527-1.547,1.885,1.885,0,0,0-1.354-.5,2.09,2.09,0,0,0-1.538.593,2.407,2.407,0,0,0-.606,1.762V0H67.7V-8.64h1.521v1.107A2.885,2.885,0,0,1,71.78-8.807ZM84.375.167a2.94,2.94,0,0,1-1.894-.593A2.13,2.13,0,0,1,81.738-2.2a2.517,2.517,0,0,1,.237-1.129,1.991,1.991,0,0,1,.7-.787A4.218,4.218,0,0,1,83.694-4.6a9.384,9.384,0,0,1,1.314-.312l1.4-.229q.765-.141.765-.8a1.51,1.51,0,0,0-.541-1.288,2.2,2.2,0,0,0-1.367-.409,2.243,2.243,0,0,0-1.354.4,1.655,1.655,0,0,0-.642,1.213L81.9-6.319a2.639,2.639,0,0,1,1.081-1.85,4.039,4.039,0,0,1,2.355-.62,4.777,4.777,0,0,1,1.252.154,3.4,3.4,0,0,1,1.046.483,2.168,2.168,0,0,1,.747.932A3.466,3.466,0,0,1,88.646-5.8v3.568a1.46,1.46,0,0,0,.2.9.854.854,0,0,0,.681.233h.141V0H88.91a1.442,1.442,0,0,1-1.635-1.169h-.07A3.3,3.3,0,0,1,84.375.167Zm.352-1.23A2.305,2.305,0,0,0,86.581-1.9a3.438,3.438,0,0,0,.7-2.285L85-3.744a3.076,3.076,0,0,0-1.34.479,1.114,1.114,0,0,0-.435.945,1.1,1.1,0,0,0,.417.949A1.785,1.785,0,0,0,84.727-1.063ZM95.889-8.807a3.005,3.005,0,0,1,2.175.782,2.918,2.918,0,0,1,.813,2.206V0H97.356V-5.476a2.043,2.043,0,0,0-.527-1.547,1.885,1.885,0,0,0-1.354-.5,2.09,2.09,0,0,0-1.538.593,2.407,2.407,0,0,0-.606,1.762V0H91.811V-8.64h1.521v1.107A2.885,2.885,0,0,1,95.889-8.807ZM104.572,0a2.271,2.271,0,0,1-1.687-.62,2.344,2.344,0,0,1-.615-1.727v-5.08H100.5V-8.64h.65a1.249,1.249,0,0,0,.954-.3,1.492,1.492,0,0,0,.277-1.015v-1.564H103.8V-8.64h1.986v1.213H103.8V-2.5a1.31,1.31,0,0,0,.33.954,1.154,1.154,0,0,0,.866.338h.791V0Zm10.863-4.491-.018.413h-6.75a3.053,3.053,0,0,0,.826,2.21,2.713,2.713,0,0,0,1.969.769,2.59,2.59,0,0,0,1.433-.413,2.68,2.68,0,0,0,.984-1.143l1.371.29A3.9,3.9,0,0,1,113.774-.51a4.028,4.028,0,0,1-2.294.677,4.174,4.174,0,0,1-3.111-1.2,4.479,4.479,0,0,1-1.187-3.287A4.458,4.458,0,0,1,108.374-7.6a4.122,4.122,0,0,1,3.063-1.2,3.9,3.9,0,0,1,2.9,1.107A4.376,4.376,0,0,1,115.436-4.491Zm-4-3.146a2.694,2.694,0,0,0-1.8.611,2.8,2.8,0,0,0-.91,1.78h5.177a2.567,2.567,0,0,0-.756-1.78A2.441,2.441,0,0,0,111.437-7.638ZM121.4.158a4.161,4.161,0,0,1-3.094-1.239,4.421,4.421,0,0,1-1.222-3.243,4.43,4.43,0,0,1,1.217-3.243,4.158,4.158,0,0,1,3.1-1.239,4.191,4.191,0,0,1,2.5.756,3.815,3.815,0,0,1,1.455,2.1l-1.424.229a2.63,2.63,0,0,0-.976-1.345,2.656,2.656,0,0,0-1.564-.475,2.554,2.554,0,0,0-2,.888,3.382,3.382,0,0,0-.787,2.329A3.365,3.365,0,0,0,119.4-2a2.56,2.56,0,0,0,2,.883,2.656,2.656,0,0,0,1.564-.475,2.63,2.63,0,0,0,.976-1.345l1.424.237A3.819,3.819,0,0,1,123.9-.6,4.185,4.185,0,0,1,121.4.158Zm13.755-4.649-.018.413h-6.75a3.053,3.053,0,0,0,.826,2.21,2.713,2.713,0,0,0,1.969.769,2.59,2.59,0,0,0,1.433-.413,2.68,2.68,0,0,0,.984-1.143l1.371.29A3.9,3.9,0,0,1,133.5-.51,4.028,4.028,0,0,1,131.2.167a4.174,4.174,0,0,1-3.111-1.2,4.479,4.479,0,0,1-1.187-3.287A4.458,4.458,0,0,1,128.1-7.6a4.122,4.122,0,0,1,3.063-1.2,3.9,3.9,0,0,1,2.9,1.107A4.376,4.376,0,0,1,135.158-4.491Zm-4-3.146a2.694,2.694,0,0,0-1.8.611,2.8,2.8,0,0,0-.91,1.78h5.177a2.567,2.567,0,0,0-.756-1.78A2.441,2.441,0,0,0,131.159-7.638ZM143.921-13.5h1.521V0h-1.468l-.035-1.679a3.179,3.179,0,0,1-1.23,1.362,3.429,3.429,0,0,1-1.828.5,3.883,3.883,0,0,1-1.564-.321,3.92,3.92,0,0,1-1.288-.9,4.16,4.16,0,0,1-.87-1.428,5.225,5.225,0,0,1-.321-1.854,4.543,4.543,0,0,1,1.173-3.243,3.788,3.788,0,0,1,2.87-1.248,3.443,3.443,0,0,1,1.806.488A3.2,3.2,0,0,1,143.921-7ZM141.2-1.134a2.587,2.587,0,0,0,2.008-.91,3.283,3.283,0,0,0,.813-2.272,3.277,3.277,0,0,0-.817-2.268,2.586,2.586,0,0,0-2-.914,2.644,2.644,0,0,0-2.021.883,3.25,3.25,0,0,0-.817,2.3,3.25,3.25,0,0,0,.817,2.3A2.644,2.644,0,0,0,141.2-1.134Zm14.9-3.357-.018.413h-6.75a3.053,3.053,0,0,0,.826,2.21,2.713,2.713,0,0,0,1.969.769,2.59,2.59,0,0,0,1.433-.413,2.68,2.68,0,0,0,.984-1.143l1.371.29A3.9,3.9,0,0,1,154.433-.51a4.028,4.028,0,0,1-2.294.677,4.174,4.174,0,0,1-3.111-1.2,4.479,4.479,0,0,1-1.187-3.287A4.458,4.458,0,0,1,149.032-7.6a4.122,4.122,0,0,1,3.063-1.2A3.9,3.9,0,0,1,155-7.7,4.376,4.376,0,0,1,156.094-4.491Zm-4-3.146a2.694,2.694,0,0,0-1.8.611,2.8,2.8,0,0,0-.91,1.78h5.177a2.567,2.567,0,0,0-.756-1.78A2.441,2.441,0,0,0,152.095-7.638Zm10.459-1.169a3.005,3.005,0,0,1,2.175.782,2.918,2.918,0,0,1,.813,2.206V0h-1.521V-5.476a2.043,2.043,0,0,0-.527-1.547,1.885,1.885,0,0,0-1.354-.5,2.09,2.09,0,0,0-1.538.593A2.407,2.407,0,0,0,160-5.168V0h-1.521V-8.64H160v1.107A2.885,2.885,0,0,1,162.554-8.807ZM171.237,0a2.271,2.271,0,0,1-1.687-.62,2.344,2.344,0,0,1-.615-1.727v-5.08h-1.767V-8.64h.65a1.249,1.249,0,0,0,.954-.3,1.492,1.492,0,0,0,.277-1.015v-1.564h1.415V-8.64h1.986v1.213h-1.986V-2.5a1.31,1.31,0,0,0,.33.954,1.154,1.154,0,0,0,.866.338h.791V0ZM182.1-4.491l-.018.413h-6.75a3.053,3.053,0,0,0,.826,2.21,2.713,2.713,0,0,0,1.969.769,2.59,2.59,0,0,0,1.433-.413,2.68,2.68,0,0,0,.984-1.143l1.371.29A3.9,3.9,0,0,1,180.439-.51a4.028,4.028,0,0,1-2.294.677,4.174,4.174,0,0,1-3.111-1.2,4.479,4.479,0,0,1-1.187-3.287A4.458,4.458,0,0,1,175.039-7.6a4.122,4.122,0,0,1,3.063-1.2,3.9,3.9,0,0,1,2.9,1.107A4.376,4.376,0,0,1,182.1-4.491Zm-4-3.146a2.694,2.694,0,0,0-1.8.611,2.8,2.8,0,0,0-.91,1.78h5.177a2.567,2.567,0,0,0-.756-1.78A2.441,2.441,0,0,0,178.1-7.638Zm14.7,7.8a4.554,4.554,0,0,1-2.215-.536,3.9,3.9,0,0,1-1.56-1.569,4.819,4.819,0,0,1-.576-2.386,4.4,4.4,0,0,1,1.226-3.256A4.232,4.232,0,0,1,192.8-8.807a4.228,4.228,0,0,1,3.129,1.226,4.41,4.41,0,0,1,1.222,3.256,4.413,4.413,0,0,1-1.226,3.265A4.232,4.232,0,0,1,192.8.167ZM192.788-1.1a2.654,2.654,0,0,0,2.043-.888,3.326,3.326,0,0,0,.813-2.338,3.314,3.314,0,0,0-.813-2.329,2.654,2.654,0,0,0-2.043-.888,2.617,2.617,0,0,0-2.026.888,3.336,3.336,0,0,0-.8,2.329,3.348,3.348,0,0,0,.8,2.338A2.617,2.617,0,0,0,192.788-1.1ZM-133.5,10.5h1.521V24h-1.468l-.035-1.679a3.179,3.179,0,0,1-1.23,1.362,3.429,3.429,0,0,1-1.828.5,3.883,3.883,0,0,1-1.564-.321,3.92,3.92,0,0,1-1.288-.9,4.16,4.16,0,0,1-.87-1.428,5.225,5.225,0,0,1-.321-1.854,4.543,4.543,0,0,1,1.173-3.243,3.788,3.788,0,0,1,2.87-1.248,3.443,3.443,0,0,1,1.806.488A3.2,3.2,0,0,1-133.5,17Zm-2.725,12.366a2.587,2.587,0,0,0,2.008-.91,3.283,3.283,0,0,0,.813-2.272,3.277,3.277,0,0,0-.817-2.268,2.586,2.586,0,0,0-2-.914,2.644,2.644,0,0,0-2.021.883,3.25,3.25,0,0,0-.817,2.3,3.25,3.25,0,0,0,.817,2.3A2.644,2.644,0,0,0-136.222,22.866Zm8.112-9.536a.989.989,0,0,1-.725-.3.989.989,0,0,1-.3-.725.975.975,0,0,1,.3-.721,1,1,0,0,1,.725-.3.987.987,0,0,1,.716.3.975.975,0,0,1,.3.721.989.989,0,0,1-.3.725A.979.979,0,0,1-128.109,13.33ZM-128.883,24V15.36h1.529V24Zm10.011-8.64h1.626L-120.762,24h-1.292l-3.5-8.64h1.617l2.531,6.873Zm4.2-2.03a.989.989,0,0,1-.725-.3.989.989,0,0,1-.3-.725.975.975,0,0,1,.3-.721,1,1,0,0,1,.725-.3.987.987,0,0,1,.716.3.975.975,0,0,1,.3.721.989.989,0,0,1-.3.725A.979.979,0,0,1-114.671,13.33ZM-115.444,24V15.36h1.529V24Zm11-13.5h1.521V24h-1.468l-.035-1.679a3.179,3.179,0,0,1-1.23,1.362,3.429,3.429,0,0,1-1.828.5,3.883,3.883,0,0,1-1.564-.321,3.92,3.92,0,0,1-1.288-.9,4.16,4.16,0,0,1-.87-1.428,5.225,5.225,0,0,1-.321-1.854,4.543,4.543,0,0,1,1.173-3.243,3.788,3.788,0,0,1,2.87-1.248,3.443,3.443,0,0,1,1.806.488A3.2,3.2,0,0,1-104.44,17Zm-2.725,12.366a2.587,2.587,0,0,0,2.008-.91,3.283,3.283,0,0,0,.813-2.272,3.277,3.277,0,0,0-.817-2.268,2.586,2.586,0,0,0-2-.914,2.644,2.644,0,0,0-2.021.883,3.25,3.25,0,0,0-.817,2.3,3.25,3.25,0,0,0,.817,2.3A2.644,2.644,0,0,0-107.165,22.866Zm14.9-3.357-.018.413h-6.75a3.053,3.053,0,0,0,.826,2.21,2.713,2.713,0,0,0,1.969.769,2.59,2.59,0,0,0,1.433-.413,2.68,2.68,0,0,0,.984-1.143l1.371.29a3.9,3.9,0,0,1-1.477,1.854,4.028,4.028,0,0,1-2.294.677,4.174,4.174,0,0,1-3.111-1.2,4.479,4.479,0,0,1-1.187-3.287A4.458,4.458,0,0,1-99.33,16.4a4.122,4.122,0,0,1,3.063-1.2,3.9,3.9,0,0,1,2.9,1.107A4.376,4.376,0,0,1-92.268,19.509Zm-4-3.146a2.694,2.694,0,0,0-1.8.611,2.8,2.8,0,0,0-.91,1.78H-93.8a2.567,2.567,0,0,0-.756-1.78A2.441,2.441,0,0,0-96.267,16.362Zm10.459-1.169a3.005,3.005,0,0,1,2.175.782,2.918,2.918,0,0,1,.813,2.206V24H-84.34V18.524a2.043,2.043,0,0,0-.527-1.547,1.885,1.885,0,0,0-1.354-.5,2.09,2.09,0,0,0-1.538.593,2.407,2.407,0,0,0-.606,1.762V24h-1.521V15.36h1.521v1.107A2.885,2.885,0,0,1-85.808,15.193ZM-73.5,10.5h1.521V24H-73.45l-.035-1.679a3.179,3.179,0,0,1-1.23,1.362,3.429,3.429,0,0,1-1.828.5,3.883,3.883,0,0,1-1.564-.321,3.92,3.92,0,0,1-1.288-.9,4.16,4.16,0,0,1-.87-1.428,5.225,5.225,0,0,1-.321-1.854,4.543,4.543,0,0,1,1.173-3.243,3.788,3.788,0,0,1,2.87-1.248,3.443,3.443,0,0,1,1.806.488A3.2,3.2,0,0,1-73.5,17Zm-2.725,12.366a2.587,2.587,0,0,0,2.008-.91,3.283,3.283,0,0,0,.813-2.272,3.277,3.277,0,0,0-.817-2.268,2.586,2.586,0,0,0-2-.914,2.644,2.644,0,0,0-2.021.883,3.25,3.25,0,0,0-.817,2.3,3.25,3.25,0,0,0,.817,2.3A2.644,2.644,0,0,0-76.228,22.866Zm10.978,1.3a4.554,4.554,0,0,1-2.215-.536,3.9,3.9,0,0,1-1.56-1.569,4.819,4.819,0,0,1-.576-2.386,4.4,4.4,0,0,1,1.226-3.256,4.232,4.232,0,0,1,3.125-1.226,4.228,4.228,0,0,1,3.129,1.226A4.41,4.41,0,0,1-60.9,19.676a4.413,4.413,0,0,1-1.226,3.265A4.232,4.232,0,0,1-65.25,24.167Zm-.009-1.266a2.654,2.654,0,0,0,2.043-.888,3.326,3.326,0,0,0,.813-2.338,3.314,3.314,0,0,0-.813-2.329,2.654,2.654,0,0,0-2.043-.888,2.617,2.617,0,0,0-2.026.888,3.336,3.336,0,0,0-.8,2.329,3.348,3.348,0,0,0,.8,2.338A2.617,2.617,0,0,0-65.259,22.9Zm16.743-7.541h1.608l-5,12.709h-1.573l1.731-4.28-3.357-8.429h1.688l2.435,6.724Zm11.7,8.8a4.161,4.161,0,0,1-3.094-1.239,4.421,4.421,0,0,1-1.222-3.243,4.43,4.43,0,0,1,1.217-3.243,4.158,4.158,0,0,1,3.1-1.239,4.191,4.191,0,0,1,2.5.756,3.815,3.815,0,0,1,1.455,2.1l-1.424.229a2.63,2.63,0,0,0-.976-1.345,2.656,2.656,0,0,0-1.564-.475,2.554,2.554,0,0,0-2,.888,3.382,3.382,0,0,0-.787,2.329A3.365,3.365,0,0,0-38.826,22a2.56,2.56,0,0,0,2,.883,2.656,2.656,0,0,0,1.564-.475,2.63,2.63,0,0,0,.976-1.345l1.424.237a3.819,3.819,0,0,1-1.463,2.1A4.185,4.185,0,0,1-36.817,24.158Zm9.835.009a4.554,4.554,0,0,1-2.215-.536,3.9,3.9,0,0,1-1.56-1.569,4.819,4.819,0,0,1-.576-2.386,4.4,4.4,0,0,1,1.226-3.256,4.232,4.232,0,0,1,3.125-1.226,4.228,4.228,0,0,1,3.129,1.226,4.41,4.41,0,0,1,1.222,3.256,4.413,4.413,0,0,1-1.226,3.265A4.232,4.232,0,0,1-26.982,24.167Zm-.009-1.266a2.654,2.654,0,0,0,2.043-.888,3.326,3.326,0,0,0,.813-2.338,3.314,3.314,0,0,0-.813-2.329,2.654,2.654,0,0,0-2.043-.888,2.617,2.617,0,0,0-2.026.888,3.336,3.336,0,0,0-.8,2.329,3.348,3.348,0,0,0,.8,2.338A2.617,2.617,0,0,0-26.991,22.9Zm10.819-7.708A3.005,3.005,0,0,1-14,15.976a2.918,2.918,0,0,1,.813,2.206V24H-14.7V18.524a2.043,2.043,0,0,0-.527-1.547,1.885,1.885,0,0,0-1.354-.5,2.09,2.09,0,0,0-1.538.593,2.407,2.407,0,0,0-.606,1.762V24H-20.25V15.36h1.521v1.107A2.885,2.885,0,0,1-16.172,15.193Zm8.657,8.974a4.1,4.1,0,0,1-2.329-.624,2.581,2.581,0,0,1-1.134-1.775l1.327-.378a1.851,1.851,0,0,0,.708,1.2,2.3,2.3,0,0,0,1.419.426,2.832,2.832,0,0,0,.831-.114,1.331,1.331,0,0,0,.637-.426,1.142,1.142,0,0,0,.255-.787,1.147,1.147,0,0,0-.07-.356,1.526,1.526,0,0,0-.141-.286.87.87,0,0,0-.246-.237,3.245,3.245,0,0,0-.3-.185,3.067,3.067,0,0,0-.391-.163q-.259-.092-.417-.141t-.483-.141q-.325-.092-.5-.145a9.372,9.372,0,0,1-.9-.316,3.932,3.932,0,0,1-.729-.417,1.679,1.679,0,0,1-.567-.681,2.3,2.3,0,0,1-.189-.967,2.234,2.234,0,0,1,.422-1.38,2.374,2.374,0,0,1,1.094-.813,4.374,4.374,0,0,1,1.534-.25,3.754,3.754,0,0,1,2.1.563,2.4,2.4,0,0,1,1.05,1.688l-1.248.316a1.655,1.655,0,0,0-.659-1.094,2.1,2.1,0,0,0-1.239-.365,2.139,2.139,0,0,0-1.16.3,1.019,1.019,0,0,0-.483.927.923.923,0,0,0,.127.479,1.521,1.521,0,0,0,.259.338,1.594,1.594,0,0,0,.475.259q.343.136.51.185t.633.163q.088.026.132.035.51.132.831.233a5.105,5.105,0,0,1,.747.316,2.484,2.484,0,0,1,.672.47,2.178,2.178,0,0,1,.422.668,2.358,2.358,0,0,1,.176.932,2.516,2.516,0,0,1-.259,1.165,2.028,2.028,0,0,1-.708.8,3.422,3.422,0,0,1-1.006.435A4.8,4.8,0,0,1-7.515,24.167ZM5.616,19.509l-.018.413h-6.75a3.053,3.053,0,0,0,.826,2.21,2.713,2.713,0,0,0,1.969.769,2.59,2.59,0,0,0,1.433-.413,2.68,2.68,0,0,0,.984-1.143l1.371.29A3.9,3.9,0,0,1,3.955,23.49a4.028,4.028,0,0,1-2.294.677,4.174,4.174,0,0,1-3.111-1.2,4.479,4.479,0,0,1-1.187-3.287A4.458,4.458,0,0,1-1.446,16.4a4.122,4.122,0,0,1,3.063-1.2,3.9,3.9,0,0,1,2.9,1.107A4.376,4.376,0,0,1,5.616,19.509Zm-4-3.146a2.694,2.694,0,0,0-1.8.611,2.8,2.8,0,0,0-.91,1.78H4.087a2.567,2.567,0,0,0-.756-1.78A2.441,2.441,0,0,0,1.617,16.362Zm9.967,7.8A4.161,4.161,0,0,1,8.49,22.919a4.421,4.421,0,0,1-1.222-3.243,4.43,4.43,0,0,1,1.217-3.243,4.158,4.158,0,0,1,3.1-1.239,4.191,4.191,0,0,1,2.5.756,3.815,3.815,0,0,1,1.455,2.1l-1.424.229a2.63,2.63,0,0,0-.976-1.345,2.656,2.656,0,0,0-1.564-.475,2.554,2.554,0,0,0-2,.888,3.382,3.382,0,0,0-.787,2.329A3.365,3.365,0,0,0,9.576,22a2.56,2.56,0,0,0,2,.883,2.656,2.656,0,0,0,1.564-.475,2.63,2.63,0,0,0,.976-1.345l1.424.237a3.819,3.819,0,0,1-1.463,2.1A4.185,4.185,0,0,1,11.584,24.158Zm11.575-8.8H24.68V24H23.221l-.035-1.143a2.7,2.7,0,0,1-1.072.971,3.3,3.3,0,0,1-1.512.338,3.005,3.005,0,0,1-2.175-.782,2.918,2.918,0,0,1-.813-2.206V15.36h1.521v5.476a2.05,2.05,0,0,0,.532,1.547,1.882,1.882,0,0,0,1.358.51,2.067,2.067,0,0,0,1.534-.6,2.434,2.434,0,0,0,.6-1.767Zm12.173,4.148-.018.413h-6.75a3.053,3.053,0,0,0,.826,2.21,2.713,2.713,0,0,0,1.969.769,2.59,2.59,0,0,0,1.433-.413,2.68,2.68,0,0,0,.984-1.143l1.371.29a3.9,3.9,0,0,1-1.477,1.854,4.028,4.028,0,0,1-2.294.677,4.174,4.174,0,0,1-3.111-1.2,4.479,4.479,0,0,1-1.187-3.287A4.458,4.458,0,0,1,28.27,16.4a4.122,4.122,0,0,1,3.063-1.2,3.9,3.9,0,0,1,2.9,1.107A4.376,4.376,0,0,1,35.332,19.509Zm-4-3.146a2.694,2.694,0,0,0-1.8.611,2.8,2.8,0,0,0-.91,1.78H33.8a2.567,2.567,0,0,0-.756-1.78A2.441,2.441,0,0,0,31.333,16.362Zm10.459-1.169a3.005,3.005,0,0,1,2.175.782,2.918,2.918,0,0,1,.813,2.206V24H43.26V18.524a2.043,2.043,0,0,0-.527-1.547,1.885,1.885,0,0,0-1.354-.5,2.09,2.09,0,0,0-1.538.593,2.407,2.407,0,0,0-.606,1.762V24H37.714V15.36h1.521v1.107A2.885,2.885,0,0,1,41.792,15.193ZM50.476,24a2.271,2.271,0,0,1-1.687-.62,2.344,2.344,0,0,1-.615-1.727v-5.08H46.406V15.36h.65a1.249,1.249,0,0,0,.954-.3,1.492,1.492,0,0,0,.277-1.015V12.478H49.7V15.36h1.986v1.213H49.7V21.5a1.31,1.31,0,0,0,.33.954,1.154,1.154,0,0,0,.866.338h.791V24Zm10.863-4.491-.018.413h-6.75a3.053,3.053,0,0,0,.826,2.21,2.713,2.713,0,0,0,1.969.769,2.59,2.59,0,0,0,1.433-.413,2.68,2.68,0,0,0,.984-1.143l1.371.29a3.9,3.9,0,0,1-1.477,1.854,4.028,4.028,0,0,1-2.294.677,4.174,4.174,0,0,1-3.111-1.2,4.479,4.479,0,0,1-1.187-3.287A4.458,4.458,0,0,1,54.277,16.4a4.122,4.122,0,0,1,3.063-1.2,3.9,3.9,0,0,1,2.9,1.107A4.376,4.376,0,0,1,61.339,19.509Zm-4-3.146a2.694,2.694,0,0,0-1.8.611,2.8,2.8,0,0,0-.91,1.78H59.81a2.567,2.567,0,0,0-.756-1.78A2.441,2.441,0,0,0,57.34,16.362Zm14.7,7.8a4.554,4.554,0,0,1-2.215-.536,3.9,3.9,0,0,1-1.56-1.569,4.819,4.819,0,0,1-.576-2.386,4.4,4.4,0,0,1,1.226-3.256,4.6,4.6,0,0,1,6.253,0,4.41,4.41,0,0,1,1.222,3.256,4.413,4.413,0,0,1-1.226,3.265A4.232,4.232,0,0,1,72.035,24.167ZM72.026,22.9a2.654,2.654,0,0,0,2.043-.888,3.326,3.326,0,0,0,.813-2.338,3.314,3.314,0,0,0-.813-2.329,2.654,2.654,0,0,0-2.043-.888A2.617,2.617,0,0,0,70,17.347a3.336,3.336,0,0,0-.8,2.329,3.348,3.348,0,0,0,.8,2.338A2.617,2.617,0,0,0,72.026,22.9Zm17.8-12.4h1.521V24H89.877l-.035-1.679a3.179,3.179,0,0,1-1.23,1.362,3.429,3.429,0,0,1-1.828.5,3.926,3.926,0,0,1-2.852-1.217,4.16,4.16,0,0,1-.87-1.428,5.225,5.225,0,0,1-.321-1.854,4.543,4.543,0,0,1,1.173-3.243,3.788,3.788,0,0,1,2.87-1.248,3.443,3.443,0,0,1,1.806.488A3.2,3.2,0,0,1,89.824,17ZM87.1,22.866a2.587,2.587,0,0,0,2.008-.91,3.283,3.283,0,0,0,.813-2.272,3.277,3.277,0,0,0-.817-2.268,2.586,2.586,0,0,0-2-.914,2.644,2.644,0,0,0-2.021.883,3.25,3.25,0,0,0-.817,2.3,3.25,3.25,0,0,0,.817,2.3A2.644,2.644,0,0,0,87.1,22.866Zm8.112-9.536A1.035,1.035,0,0,1,94.184,12.3a.975.975,0,0,1,.3-.721,1,1,0,0,1,.725-.3.987.987,0,0,1,.716.3.975.975,0,0,1,.3.721.989.989,0,0,1-.3.725A.979.979,0,0,1,95.212,13.33ZM94.438,24V15.36h1.529V24Zm10.011-8.64h1.626L102.56,24h-1.292l-3.5-8.64h1.617l2.531,6.873Zm4.2-2.03a1.035,1.035,0,0,1-1.028-1.028.975.975,0,0,1,.3-.721,1,1,0,0,1,.725-.3.987.987,0,0,1,.716.3.975.975,0,0,1,.3.721.989.989,0,0,1-.3.725A.979.979,0,0,1,108.65,13.33ZM107.877,24V15.36h1.529V24Zm7.356.167a4.1,4.1,0,0,1-2.329-.624,2.581,2.581,0,0,1-1.134-1.775l1.327-.378a1.851,1.851,0,0,0,.708,1.2,2.3,2.3,0,0,0,1.419.426,2.832,2.832,0,0,0,.831-.114,1.331,1.331,0,0,0,.637-.426,1.189,1.189,0,0,0,.185-1.143,1.526,1.526,0,0,0-.141-.286.87.87,0,0,0-.246-.237,3.245,3.245,0,0,0-.3-.185,3.067,3.067,0,0,0-.391-.163q-.259-.092-.417-.141t-.483-.141q-.325-.092-.5-.145a9.372,9.372,0,0,1-.9-.316,3.932,3.932,0,0,1-.729-.417,1.679,1.679,0,0,1-.567-.681,2.3,2.3,0,0,1-.189-.967,2.234,2.234,0,0,1,.422-1.38,2.374,2.374,0,0,1,1.094-.813,4.374,4.374,0,0,1,1.534-.25,3.754,3.754,0,0,1,2.1.563,2.4,2.4,0,0,1,1.05,1.688l-1.248.316a1.655,1.655,0,0,0-.659-1.094,2.1,2.1,0,0,0-1.239-.365,2.139,2.139,0,0,0-1.16.3,1.019,1.019,0,0,0-.483.927.923.923,0,0,0,.127.479,1.521,1.521,0,0,0,.259.338,1.594,1.594,0,0,0,.475.259q.343.136.51.185t.633.163q.088.026.132.035.51.132.831.233a5.105,5.105,0,0,1,.747.316,2.484,2.484,0,0,1,.672.47,2.178,2.178,0,0,1,.422.668,2.358,2.358,0,0,1,.176.932,2.516,2.516,0,0,1-.259,1.165,2.028,2.028,0,0,1-.708.8,3.422,3.422,0,0,1-1.006.435A4.8,4.8,0,0,1,115.233,24.167Zm9.211,0a4.554,4.554,0,0,1-2.215-.536,3.9,3.9,0,0,1-1.56-1.569,4.819,4.819,0,0,1-.576-2.386,4.4,4.4,0,0,1,1.226-3.256,4.6,4.6,0,0,1,6.253,0,4.41,4.41,0,0,1,1.222,3.256,4.413,4.413,0,0,1-1.226,3.265A4.232,4.232,0,0,1,124.444,24.167Zm-.009-1.266a2.654,2.654,0,0,0,2.043-.888,3.326,3.326,0,0,0,.813-2.338,3.314,3.314,0,0,0-.813-2.329,2.654,2.654,0,0,0-2.043-.888,2.617,2.617,0,0,0-2.026.888,3.336,3.336,0,0,0-.8,2.329,3.348,3.348,0,0,0,.8,2.338A2.617,2.617,0,0,0,124.436,22.9Zm8.227-6.021a2.612,2.612,0,0,1,1.072-1.16,3.229,3.229,0,0,1,1.661-.457V16.7a2.846,2.846,0,0,0-2.008.642,2.68,2.68,0,0,0-.69,2.048V24h-1.521V15.36h1.485Zm5.854,7.295a.987.987,0,0,1-.716-.3,1.022,1.022,0,0,1,.716-1.74.994.994,0,0,1,.721.3,1,1,0,0,1,0,1.437A1,1,0,0,1,138.516,24.176Z" transform="translate(700 1668.274)" fill="#00223d"/>
  </g>
</svg>
