<svg xmlns="http://www.w3.org/2000/svg" width="538.211" height="200.848" viewBox="0 0 538.211 200.848">
  <g id="Grupo_14453" data-name="Grupo 14453" transform="translate(-5378 3089)">
    <g id="Grupo_14442" data-name="Grupo 14442">
      <path id="Trazado_23910" data-name="Trazado 23910" d="M0,0H538.211V200.848H0Z" transform="translate(5378 -3089)" fill="#d5f4fc"/>
      <path id="Trazado_23911" data-name="Trazado 23911" d="M13.563-3.814A13.148,13.148,0,0,0,13.9-.383V0H10.227L9.912-1.531A4.57,4.57,0,0,1,7.943-.178,7.256,7.256,0,0,1,5.4.273,6.687,6.687,0,0,1,4.088.15,4.462,4.462,0,0,1,2.905-.267,3.589,3.589,0,0,1,1.928-1a3.208,3.208,0,0,1-.656-1.114,4.439,4.439,0,0,1-.246-1.524,4.227,4.227,0,0,1,.26-1.524A3.573,3.573,0,0,1,1.969-6.3a4.146,4.146,0,0,1,1.107-.834,8.474,8.474,0,0,1,1.395-.6,16.663,16.663,0,0,1,1.668-.437L8.449-8.7A2.548,2.548,0,0,0,9.5-9.14a.886.886,0,0,0,.308-.7,1.45,1.45,0,0,0-.69-1.354,3.224,3.224,0,0,0-1.675-.41q-2.42,0-2.748,2.146L1.2-10.09A4.719,4.719,0,0,1,3.24-13.3a8.1,8.1,0,0,1,4.416-1.032q5.906,0,5.906,5.072ZM6.631-2.393A3.167,3.167,0,0,0,9.064-3.411a4.292,4.292,0,0,0,.943-3.015l-3.336.943a3.942,3.942,0,0,0-1.4.574A1.179,1.179,0,0,0,4.785-3.9,1.309,1.309,0,0,0,5.3-2.782,2.15,2.15,0,0,0,6.631-2.393Zm17.992-3.24V-8.928h14v3.295Zm33.564-8.7a6.8,6.8,0,0,1,2.611.506,6.516,6.516,0,0,1,2.153,1.429,6.512,6.512,0,0,1,1.456,2.317A8.548,8.548,0,0,1,64.941-7a8.548,8.548,0,0,1-.533,3.076,6.512,6.512,0,0,1-1.456,2.317A6.516,6.516,0,0,1,60.8-.178a6.8,6.8,0,0,1-2.611.506,6.07,6.07,0,0,1-2.659-.567,3.931,3.931,0,0,1-1.771-1.593L53.662,0H49.93V-21h3.938v8.654a3.924,3.924,0,0,1,1.757-1.463A6.18,6.18,0,0,1,58.188-14.328ZM57.271-2.939a3.542,3.542,0,0,0,2.673-1.107A4.093,4.093,0,0,0,61-7a4.112,4.112,0,0,0-1.06-2.967,3.542,3.542,0,0,0-2.673-1.107,3.5,3.5,0,0,0-2.652,1.128A4.113,4.113,0,0,0,53.553-7a4.1,4.1,0,0,0,1.06,2.939A3.505,3.505,0,0,0,57.271-2.939Zm18.936-8.189v-2.994H88.279v2.994Zm0,6V-8.121H88.279v2.994ZM109.963,0l-4.525-5.906h-.82V0h-3.979V-21h3.979V-8.641h.738l4.416-5.414h4.457l-5.537,6.521L114.748,0Zm9.707-8.682a2.161,2.161,0,0,1-1.593-.67,2.195,2.195,0,0,1-.663-1.6,2.145,2.145,0,0,1,.67-1.579,2.179,2.179,0,0,1,1.586-.663,2.2,2.2,0,0,1,1.593.663,2.135,2.135,0,0,1,.677,1.579,2.172,2.172,0,0,1-.677,1.6A2.19,2.19,0,0,1,119.67-8.682ZM116.211,5.031,117.92-3.91h4.047l-2.939,8.941Zm64.818-8.846a13.149,13.149,0,0,0,.342,3.432V0h-3.678l-.314-1.531A4.57,4.57,0,0,1,175.41-.178a7.256,7.256,0,0,1-2.543.451A6.687,6.687,0,0,1,171.555.15a4.462,4.462,0,0,1-1.183-.417A3.589,3.589,0,0,1,169.395-1a3.208,3.208,0,0,1-.656-1.114,4.439,4.439,0,0,1-.246-1.524,4.227,4.227,0,0,1,.26-1.524,3.573,3.573,0,0,1,.684-1.142,4.146,4.146,0,0,1,1.107-.834,8.474,8.474,0,0,1,1.395-.6,16.663,16.663,0,0,1,1.668-.437l2.311-.52a2.548,2.548,0,0,0,1.046-.444.886.886,0,0,0,.308-.7,1.45,1.45,0,0,0-.69-1.354,3.224,3.224,0,0,0-1.675-.41q-2.42,0-2.748,2.146l-3.486-.629a4.719,4.719,0,0,1,2.037-3.206,8.1,8.1,0,0,1,4.416-1.032q5.906,0,5.906,5.072ZM174.1-2.393a3.167,3.167,0,0,0,2.434-1.019,4.292,4.292,0,0,0,.943-3.015l-3.336.943a3.942,3.942,0,0,0-1.4.574,1.179,1.179,0,0,0-.485,1.012,1.309,1.309,0,0,0,.52,1.114A2.15,2.15,0,0,0,174.1-2.393Zm17.992-3.24V-8.928h14v3.295Zm33.564-8.7a6.8,6.8,0,0,1,2.611.506,6.516,6.516,0,0,1,2.153,1.429,6.512,6.512,0,0,1,1.456,2.317A8.548,8.548,0,0,1,232.408-7a8.548,8.548,0,0,1-.533,3.076,6.512,6.512,0,0,1-1.456,2.317,6.516,6.516,0,0,1-2.153,1.429,6.8,6.8,0,0,1-2.611.506A6.07,6.07,0,0,1,223-.239a3.931,3.931,0,0,1-1.771-1.593L221.129,0H217.4V-21h3.938v8.654a3.924,3.924,0,0,1,1.757-1.463A6.18,6.18,0,0,1,225.654-14.328Zm-.916,11.389a3.542,3.542,0,0,0,2.673-1.107A4.093,4.093,0,0,0,228.471-7a4.112,4.112,0,0,0-1.06-2.967,3.542,3.542,0,0,0-2.673-1.107,3.5,3.5,0,0,0-2.652,1.128A4.113,4.113,0,0,0,221.02-7a4.1,4.1,0,0,0,1.06,2.939A3.505,3.505,0,0,0,224.738-2.939Zm18.936-8.189v-2.994h12.072v2.994Zm0,6V-8.121h12.072v2.994ZM274.463.26a7.509,7.509,0,0,1-5.428-2.023,6.989,6.989,0,0,1-2.105-5.277,6.973,6.973,0,0,1,2.1-5.277,7.532,7.532,0,0,1,5.435-2.01,7.489,7.489,0,0,1,4.553,1.354,6.043,6.043,0,0,1,2.352,3.814l-3.637.4a3.116,3.116,0,0,0-1.176-1.846,3.575,3.575,0,0,0-2.133-.615,3.224,3.224,0,0,0-2.57,1.148,4.5,4.5,0,0,0-.984,3.035,4.508,4.508,0,0,0,.984,3.028,3.216,3.216,0,0,0,2.57,1.155,3.544,3.544,0,0,0,2.126-.615,3.188,3.188,0,0,0,1.183-1.846l3.637.4A6.059,6.059,0,0,1,279-1.107,7.458,7.458,0,0,1,274.463.26ZM291.4-5.633V-8.928h14v3.295ZM326.676-21h3.938V0h-3.732l-.1-1.832A4.014,4.014,0,0,1,325-.239a6.006,6.006,0,0,1-2.632.567,6.836,6.836,0,0,1-2.625-.506,6.516,6.516,0,0,1-2.153-1.429,6.512,6.512,0,0,1-1.456-2.317A8.548,8.548,0,0,1,315.6-7a7.991,7.991,0,0,1,.93-3.917,6.37,6.37,0,0,1,2.454-2.55,6.758,6.758,0,0,1,3.384-.861,6.156,6.156,0,0,1,2.55.513,3.981,3.981,0,0,1,1.757,1.456Zm-3.4,18.061a3.505,3.505,0,0,0,2.659-1.121A4.1,4.1,0,0,0,326.99-7a4.113,4.113,0,0,0-1.066-2.946,3.5,3.5,0,0,0-2.652-1.128A3.542,3.542,0,0,0,320.6-9.967,4.112,4.112,0,0,0,319.539-7a4.093,4.093,0,0,0,1.06,2.953A3.542,3.542,0,0,0,323.271-2.939Zm19.715-8.189v-2.994h12.072v2.994Zm0,6V-8.121h12.072v2.994ZM376.742,0l-4.525-5.906h-.82V0h-3.979V-21H371.4V-8.641h.738l4.416-5.414h4.457l-5.537,6.521L381.527,0Z" transform="translate(5456 -2979)" fill="#002b45"/>
    </g>
  </g>
</svg>
