<svg xmlns="http://www.w3.org/2000/svg" width="538.211" height="200.848" viewBox="0 0 538.211 200.848">
  <g id="Grupo_14452" data-name="Grupo 14452" transform="translate(-5378 3444)">
    <g id="Grupo_14443" data-name="Grupo 14443">
      <path id="Trazado_23895" data-name="Trazado 23895" d="M0,0H538.211V200.848H0Z" transform="translate(5378 -3444)" fill="#d5f4fc"/>
      <path id="Trazado_23896" data-name="Trazado 23896" d="M13.563-3.814A13.148,13.148,0,0,0,13.9-.383V0H10.227L9.912-1.531A4.57,4.57,0,0,1,7.943-.178,7.256,7.256,0,0,1,5.4.273,6.687,6.687,0,0,1,4.088.15,4.462,4.462,0,0,1,2.905-.267,3.589,3.589,0,0,1,1.928-1a3.208,3.208,0,0,1-.656-1.114,4.439,4.439,0,0,1-.246-1.524,4.227,4.227,0,0,1,.26-1.524A3.573,3.573,0,0,1,1.969-6.3a4.146,4.146,0,0,1,1.107-.834,8.474,8.474,0,0,1,1.395-.6,16.663,16.663,0,0,1,1.668-.437L8.449-8.7A2.548,2.548,0,0,0,9.5-9.14a.886.886,0,0,0,.308-.7,1.45,1.45,0,0,0-.69-1.354,3.224,3.224,0,0,0-1.675-.41q-2.42,0-2.748,2.146L1.2-10.09A4.719,4.719,0,0,1,3.24-13.3a8.1,8.1,0,0,1,4.416-1.032q5.906,0,5.906,5.072ZM6.631-2.393A3.167,3.167,0,0,0,9.064-3.411a4.292,4.292,0,0,0,.943-3.015l-3.336.943a3.942,3.942,0,0,0-1.4.574A1.179,1.179,0,0,0,4.785-3.9,1.309,1.309,0,0,0,5.3-2.782,2.15,2.15,0,0,0,6.631-2.393Z" transform="translate(5461.405 -3360)" fill="#002b45"/>
      <path id="Trazado_23897" data-name="Trazado 23897" d="M10.295-14.328a6.8,6.8,0,0,1,2.611.506,6.516,6.516,0,0,1,2.153,1.429,6.512,6.512,0,0,1,1.456,2.317A8.548,8.548,0,0,1,17.049-7a8.548,8.548,0,0,1-.533,3.076A6.512,6.512,0,0,1,15.06-1.606,6.516,6.516,0,0,1,12.906-.178a6.8,6.8,0,0,1-2.611.506A6.07,6.07,0,0,1,7.636-.239,3.931,3.931,0,0,1,5.865-1.832L5.77,0H2.037V-21H5.975v8.654a3.924,3.924,0,0,1,1.757-1.463A6.18,6.18,0,0,1,10.295-14.328ZM9.379-2.939a3.542,3.542,0,0,0,2.673-1.107A4.093,4.093,0,0,0,13.111-7a4.112,4.112,0,0,0-1.06-2.967,3.542,3.542,0,0,0-2.673-1.107A3.5,3.5,0,0,0,6.727-9.946,4.113,4.113,0,0,0,5.66-7,4.1,4.1,0,0,0,6.72-4.061,3.505,3.505,0,0,0,9.379-2.939Z" transform="translate(5461.405 -3312.283)" fill="#002b45"/>
      <path id="Trazado_23898" data-name="Trazado 23898" d="M0,0H38.526V1.605H0Z" transform="translate(5453 -3349.417)"/>
      <path id="Trazado_23899" data-name="Trazado 23899" d="M3.063-11.129v-2.994H15.135v2.994Zm0,6V-8.121H15.135v2.994Z" transform="translate(5503.405 -3338)" fill="#002b45"/>
      <path id="Trazado_23900" data-name="Trazado 23900" d="M11.361,0,6.836-5.906h-.82V0H2.037V-21H6.016V-8.641h.738l4.416-5.414h4.457L10.09-7.533,16.146,0Zm9.707-8.682a2.161,2.161,0,0,1-1.593-.67,2.195,2.195,0,0,1-.663-1.6,2.145,2.145,0,0,1,.67-1.579,2.179,2.179,0,0,1,1.586-.663,2.2,2.2,0,0,1,1.593.663,2.135,2.135,0,0,1,.677,1.579,2.172,2.172,0,0,1-.677,1.6A2.19,2.19,0,0,1,21.068-8.682ZM17.609,5.031,19.318-3.91h4.047L20.426,5.031Z" transform="translate(5537.405 -3337)" fill="#002b45"/>
      <path id="Trazado_23901" data-name="Trazado 23901" d="M13.563-3.814A13.148,13.148,0,0,0,13.9-.383V0H10.227L9.912-1.531A4.57,4.57,0,0,1,7.943-.178,7.256,7.256,0,0,1,5.4.273,6.687,6.687,0,0,1,4.088.15,4.462,4.462,0,0,1,2.905-.267,3.589,3.589,0,0,1,1.928-1a3.208,3.208,0,0,1-.656-1.114,4.439,4.439,0,0,1-.246-1.524,4.227,4.227,0,0,1,.26-1.524A3.573,3.573,0,0,1,1.969-6.3a4.146,4.146,0,0,1,1.107-.834,8.474,8.474,0,0,1,1.395-.6,16.663,16.663,0,0,1,1.668-.437L8.449-8.7A2.548,2.548,0,0,0,9.5-9.14a.886.886,0,0,0,.308-.7,1.45,1.45,0,0,0-.69-1.354,3.224,3.224,0,0,0-1.675-.41q-2.42,0-2.748,2.146L1.2-10.09A4.719,4.719,0,0,1,3.24-13.3a8.1,8.1,0,0,1,4.416-1.032q5.906,0,5.906,5.072ZM6.631-2.393A3.167,3.167,0,0,0,9.064-3.411a4.292,4.292,0,0,0,.943-3.015l-3.336.943a3.942,3.942,0,0,0-1.4.574A1.179,1.179,0,0,0,4.785-3.9,1.309,1.309,0,0,0,5.3-2.782,2.15,2.15,0,0,0,6.631-2.393Z" transform="translate(5642.405 -3360)" fill="#002b45"/>
      <path id="Trazado_23902" data-name="Trazado 23902" d="M10.295-14.328a6.8,6.8,0,0,1,2.611.506,6.516,6.516,0,0,1,2.153,1.429,6.512,6.512,0,0,1,1.456,2.317A8.548,8.548,0,0,1,17.049-7a8.548,8.548,0,0,1-.533,3.076A6.512,6.512,0,0,1,15.06-1.606,6.516,6.516,0,0,1,12.906-.178a6.8,6.8,0,0,1-2.611.506A6.07,6.07,0,0,1,7.636-.239,3.931,3.931,0,0,1,5.865-1.832L5.77,0H2.037V-21H5.975v8.654a3.924,3.924,0,0,1,1.757-1.463A6.18,6.18,0,0,1,10.295-14.328ZM9.379-2.939a3.542,3.542,0,0,0,2.673-1.107A4.093,4.093,0,0,0,13.111-7a4.112,4.112,0,0,0-1.06-2.967,3.542,3.542,0,0,0-2.673-1.107A3.5,3.5,0,0,0,6.727-9.946,4.113,4.113,0,0,0,5.66-7,4.1,4.1,0,0,0,6.72-4.061,3.505,3.505,0,0,0,9.379-2.939Z" transform="translate(5642.405 -3312.283)" fill="#002b45"/>
      <path id="Trazado_23903" data-name="Trazado 23903" d="M0,0H38.526V1.605H0Z" transform="translate(5634 -3349.417)"/>
      <path id="Trazado_23904" data-name="Trazado 23904" d="M8.395.26A7.509,7.509,0,0,1,2.967-1.764,6.989,6.989,0,0,1,.861-7.041a6.973,6.973,0,0,1,2.1-5.277,7.533,7.533,0,0,1,5.435-2.01,7.489,7.489,0,0,1,4.553,1.354A6.043,6.043,0,0,1,15.3-9.16l-3.637.4a3.116,3.116,0,0,0-1.176-1.846,3.575,3.575,0,0,0-2.133-.615,3.224,3.224,0,0,0-2.57,1.148A4.5,4.5,0,0,0,4.8-7.041a4.508,4.508,0,0,0,.984,3.028,3.216,3.216,0,0,0,2.57,1.155,3.544,3.544,0,0,0,2.126-.615,3.188,3.188,0,0,0,1.183-1.846l3.637.4a6.059,6.059,0,0,1-2.372,3.814A7.458,7.458,0,0,1,8.395.26Z" transform="translate(5729.405 -3360)" fill="#002b45"/>
      <path id="Trazado_23905" data-name="Trazado 23905" d="M12-21h3.938V0H12.209l-.1-1.832A4.014,4.014,0,0,1,10.329-.239,6.006,6.006,0,0,1,7.7.328,6.836,6.836,0,0,1,5.072-.178,6.516,6.516,0,0,1,2.919-1.606,6.512,6.512,0,0,1,1.463-3.924,8.548,8.548,0,0,1,.93-7a7.99,7.99,0,0,1,.93-3.917,6.37,6.37,0,0,1,2.454-2.55A6.758,6.758,0,0,1,7.7-14.328a6.156,6.156,0,0,1,2.55.513A3.981,3.981,0,0,1,12-12.359ZM8.6-2.939a3.505,3.505,0,0,0,2.659-1.121A4.1,4.1,0,0,0,12.318-7a4.113,4.113,0,0,0-1.066-2.946A3.5,3.5,0,0,0,8.6-11.074,3.542,3.542,0,0,0,5.927-9.967,4.112,4.112,0,0,0,4.867-7a4.093,4.093,0,0,0,1.06,2.953A3.542,3.542,0,0,0,8.6-2.939Z" transform="translate(5729.405 -3312.283)" fill="#002b45"/>
      <path id="Trazado_23906" data-name="Trazado 23906" d="M0,0H38.526V1.605H0Z" transform="translate(5721 -3349.417)"/>
      <path id="Trazado_23907" data-name="Trazado 23907" d="M3.063-11.129v-2.994H15.135v2.994Zm0,6V-8.121H15.135v2.994Z" transform="translate(5684.405 -3338)" fill="#002b45"/>
      <path id="Trazado_23908" data-name="Trazado 23908" d="M23.266-14.769H4.606v-2.62h18.66Zm0,8.457H4.606v-2.62h18.66Z" transform="translate(5770.405 -3337)"/>
      <path id="Trazado_23909" data-name="Trazado 23909" d="M11.361,0,6.836-5.906h-.82V0H2.037V-21H6.016V-8.641h.738l4.416-5.414h4.457L10.09-7.533,16.146,0Zm9.707-8.682a2.161,2.161,0,0,1-1.593-.67,2.195,2.195,0,0,1-.663-1.6,2.145,2.145,0,0,1,.67-1.579,2.179,2.179,0,0,1,1.586-.663,2.2,2.2,0,0,1,1.593.663,2.135,2.135,0,0,1,.677,1.579,2.172,2.172,0,0,1-.677,1.6A2.19,2.19,0,0,1,21.068-8.682ZM17.609,5.031,19.318-3.91h4.047L20.426,5.031Z" transform="translate(5808.405 -3339)" fill="#002b45"/>
    </g>
  </g>
</svg>
