<?xml version="1.0" encoding="utf-8"?>
<!-- Generator: Adobe Illustrator 24.3.0, SVG Export Plug-In . SVG Version: 6.00 Build 0)  -->
<svg version="1.1" id="Capa_1" xmlns="http://www.w3.org/2000/svg" xmlns:xlink="http://www.w3.org/1999/xlink" x="0px" y="0px"
	 viewBox="0 0 740 96.6" style="enable-background:new 0 0 740 96.6;" xml:space="preserve">
<style type="text/css">
	.st0{fill:#D5F4FC;}
	.st1{enable-background:new    ;}
	.st2{fill:#002B45;}
	.st3{fill:#00223D;}
</style>
<rect id="Rectángulo_3334" class="st0" width="740" height="96.6"/>
<g id="Grupo_14491" transform="translate(6 3)">
	<g class="st1">
		<path class="st2" d="M94.7,32.1c0,1.5,0.1,2.6,0.3,3.4v0.4h-3.7L91,34.4c-0.5,0.6-1.2,1.1-2,1.4c-0.8,0.3-1.7,0.5-2.5,0.5
			c-0.5,0-0.9,0-1.3-0.1s-0.8-0.2-1.2-0.4c-0.4-0.2-0.7-0.4-1-0.7s-0.5-0.7-0.7-1.1s-0.2-1-0.2-1.5c0-0.6,0.1-1.1,0.3-1.5
			c0.2-0.5,0.4-0.8,0.7-1.1c0.3-0.3,0.7-0.6,1.1-0.8c0.5-0.2,0.9-0.4,1.4-0.6c0.5-0.2,1-0.3,1.7-0.4l2.3-0.5c0.5-0.1,0.8-0.3,1-0.4
			s0.3-0.4,0.3-0.7c0-0.6-0.2-1.1-0.7-1.4c-0.5-0.3-1-0.4-1.7-0.4c-1.6,0-2.5,0.7-2.7,2.1l-3.5-0.6c0.3-1.4,1-2.5,2-3.2s2.5-1,4.4-1
			c3.9,0,5.9,1.7,5.9,5.1V32.1z M87.8,33.5c1,0,1.8-0.3,2.4-1c0.6-0.7,0.9-1.7,0.9-3l-3.3,0.9c-0.6,0.1-1.1,0.3-1.4,0.6
			c-0.3,0.2-0.5,0.6-0.5,1c0,0.5,0.2,0.9,0.5,1.1C86.8,33.4,87.2,33.5,87.8,33.5z"/>
	</g>
	<g class="st1">
		<path class="st2" d="M90.1,61.8c0.9,0,1.8,0.2,2.6,0.5s1.5,0.8,2.2,1.4s1.1,1.4,1.5,2.3s0.5,2,0.5,3.1s-0.2,2.1-0.5,3.1
			s-0.8,1.7-1.5,2.3s-1.3,1.1-2.2,1.4s-1.7,0.5-2.6,0.5c-1,0-1.9-0.2-2.7-0.6c-0.8-0.4-1.4-0.9-1.8-1.6l-0.1,1.8h-3.7v-21h3.9v8.7
			c0.4-0.6,1-1.1,1.8-1.5C88.3,62,89.2,61.8,90.1,61.8z M89.2,73.2c1.1,0,2-0.4,2.7-1.1c0.7-0.7,1.1-1.7,1.1-3c0-1.2-0.4-2.2-1.1-3
			c-0.7-0.7-1.6-1.1-2.7-1.1c-1.1,0-1.9,0.4-2.7,1.1s-1.1,1.7-1.1,2.9s0.4,2.2,1.1,2.9C87.2,72.8,88.1,73.2,89.2,73.2z"/>
	</g>
	<g id="Rectángulo_3631">
		<rect x="63" y="44.6" width="51.6" height="1.3"/>
	</g>
	<g class="st1">
		<path class="st2" d="M311.9,36.1c-2.2,0-4-0.7-5.4-2c-1.4-1.3-2.1-3.1-2.1-5.3c0-2.2,0.7-3.9,2.1-5.3c1.4-1.3,3.2-2,5.4-2
			c1.8,0,3.3,0.5,4.6,1.4s2,2.2,2.4,3.8l-3.6,0.4c-0.2-0.8-0.6-1.4-1.2-1.8s-1.3-0.6-2.1-0.6c-1.1,0-1.9,0.4-2.6,1.1s-1,1.8-1,3
			c0,1.2,0.3,2.3,1,3c0.7,0.8,1.5,1.2,2.6,1.2c0.8,0,1.6-0.2,2.1-0.6c0.6-0.4,1-1,1.2-1.8l3.6,0.4c-0.3,1.6-1.1,2.9-2.4,3.8
			S313.7,36.1,311.9,36.1z"/>
	</g>
	<g class="st1">
		<path class="st2" d="M314.6,55.1h3.9v21h-3.7l-0.1-1.8c-0.4,0.7-1,1.2-1.8,1.6c-0.8,0.4-1.7,0.6-2.6,0.6c-0.9,0-1.8-0.2-2.6-0.5
			s-1.5-0.8-2.2-1.4s-1.1-1.4-1.5-2.3s-0.5-2-0.5-3.1c0-1.5,0.3-2.8,0.9-3.9c0.6-1.1,1.4-2,2.5-2.5c1-0.6,2.1-0.9,3.4-0.9
			c0.9,0,1.8,0.2,2.5,0.5c0.8,0.3,1.3,0.8,1.8,1.5V55.1z M311.2,73.2c1.1,0,2-0.4,2.7-1.1c0.7-0.7,1.1-1.7,1.1-2.9s-0.4-2.2-1.1-2.9
			s-1.6-1.1-2.7-1.1c-1.1,0-2,0.4-2.7,1.1c-0.7,0.7-1.1,1.7-1.1,3c0,1.2,0.4,2.2,1.1,3C309.2,72.8,310.1,73.2,311.2,73.2z"/>
	</g>
	<g id="Rectángulo_3632">
		<rect x="285.8" y="44.6" width="51.6" height="1.3"/>
	</g>
	<g class="st1">
		<path class="st3" d="M138.1,38.1h-4.7V41h4.2v2.3h-4.2v2.9h4.7v2.3h-7.4V35.8h7.4V38.1z"/>
		<path class="st3" d="M143.7,48.7c-1.1,0-1.9-0.2-2.6-0.6s-1.1-1-1.3-1.9l2.1-0.6c0.3,0.9,0.9,1.3,1.8,1.3c0.4,0,0.7-0.1,0.9-0.2
			c0.2-0.1,0.4-0.4,0.4-0.7c0-0.2,0-0.3-0.1-0.5s-0.3-0.2-0.5-0.3s-0.4-0.2-0.6-0.2s-0.5-0.1-0.8-0.2s-0.6-0.2-0.8-0.3
			c-0.3-0.1-0.6-0.2-0.8-0.3s-0.4-0.3-0.7-0.5c-0.2-0.2-0.4-0.4-0.5-0.7s-0.2-0.6-0.2-1c0-0.9,0.3-1.6,1-2s1.5-0.7,2.6-0.7
			c0.9,0,1.7,0.2,2.4,0.6s1,1,1.2,1.8l-2,0.4c-0.2-0.8-0.8-1.1-1.6-1.1c-0.4,0-0.7,0.1-0.9,0.2s-0.4,0.3-0.4,0.6
			c0,0.1,0,0.2,0.1,0.3s0.1,0.2,0.2,0.2s0.2,0.1,0.3,0.2s0.2,0.1,0.4,0.1c0.2,0.1,0.3,0.1,0.4,0.1c0.1,0,0.3,0.1,0.5,0.1
			s0.4,0.1,0.5,0.1c0.3,0.1,0.6,0.2,0.8,0.3s0.5,0.2,0.8,0.4s0.5,0.3,0.7,0.5s0.3,0.4,0.4,0.7c0.1,0.3,0.2,0.6,0.2,1
			c0,0.5-0.1,0.9-0.3,1.3s-0.5,0.7-0.8,0.9c-0.4,0.2-0.7,0.4-1.2,0.5S144.2,48.7,143.7,48.7z"/>
		<path class="st3" d="M162.4,43.8l0,0.6h-6.7c0.1,0.7,0.3,1.3,0.7,1.7c0.4,0.4,1,0.6,1.6,0.6c0.5,0,0.9-0.1,1.2-0.3
			c0.3-0.2,0.6-0.5,0.8-0.9l2.3,0.3c-0.3,0.9-0.8,1.6-1.6,2.1s-1.6,0.8-2.7,0.8c-1.5,0-2.6-0.4-3.5-1.2c-0.9-0.8-1.3-2-1.3-3.4
			c0-1.5,0.4-2.6,1.3-3.4s2-1.3,3.4-1.3c1.3,0,2.4,0.4,3.2,1.2S162.4,42.3,162.4,43.8z M157.9,41.1c-1.2,0-2,0.6-2.2,1.7h4.1
			c-0.1-0.6-0.3-1-0.6-1.3S158.5,41.1,157.9,41.1z"/>
		<path class="st3" d="M170.8,39.5h2.4v13.4h-2.5v-5.4c-0.3,0.4-0.6,0.7-1.1,0.9s-1,0.3-1.6,0.3c-0.6,0-1.2-0.1-1.7-0.3
			s-1-0.5-1.4-0.9s-0.7-0.9-0.9-1.5c-0.2-0.6-0.3-1.3-0.3-2s0.1-1.4,0.3-2c0.2-0.6,0.5-1.1,0.9-1.5s0.9-0.7,1.4-0.9s1.1-0.3,1.7-0.3
			c0.6,0,1.2,0.1,1.7,0.4c0.5,0.2,0.9,0.6,1.1,1L170.8,39.5z M168.5,46.6c0.7,0,1.3-0.2,1.7-0.7c0.5-0.5,0.7-1.1,0.7-1.9
			s-0.2-1.4-0.7-1.9s-1-0.7-1.7-0.7s-1.3,0.2-1.7,0.7s-0.7,1.1-0.7,1.9s0.2,1.4,0.7,1.9C167.3,46.4,167.8,46.6,168.5,46.6z"/>
		<path class="st3" d="M181.8,39.5h2.5v9H182l-0.1-1.1c-0.7,0.8-1.6,1.3-2.9,1.3c-1.1,0-1.9-0.3-2.5-0.8c-0.6-0.5-0.9-1.3-0.9-2.3
			v-6.1h2.5V45c0,0.6,0.2,1,0.5,1.2c0.3,0.3,0.7,0.4,1.2,0.4c0.6,0,1.1-0.2,1.4-0.5c0.4-0.3,0.6-0.9,0.6-1.7V39.5z"/>
		<path class="st3" d="M188.3,38.1c-0.4,0-0.8-0.1-1-0.4s-0.4-0.6-0.4-1c0-0.4,0.1-0.7,0.4-1s0.6-0.4,1-0.4c0.4,0,0.7,0.1,1,0.4
			s0.4,0.6,0.4,1c0,0.4-0.1,0.7-0.4,1S188.7,38.1,188.3,38.1z M187,48.5v-9h2.5v9H187z"/>
		<path class="st3" d="M198,39.5h2.7l-3.8,9h-2.2l-3.8-9h2.7l2.3,6.2L198,39.5z"/>
		<path class="st3" d="M209.1,46c0,1,0.1,1.7,0.2,2.2v0.2H207l-0.2-1c-0.3,0.4-0.7,0.7-1.3,0.9s-1.1,0.3-1.6,0.3
			c-0.3,0-0.6,0-0.8-0.1s-0.5-0.1-0.8-0.3c-0.2-0.1-0.5-0.3-0.6-0.5s-0.3-0.4-0.4-0.7c-0.1-0.3-0.2-0.6-0.2-1c0-0.4,0.1-0.7,0.2-1
			c0.1-0.3,0.3-0.5,0.4-0.7s0.4-0.4,0.7-0.5s0.6-0.3,0.9-0.4s0.7-0.2,1.1-0.3l1.5-0.3c0.3-0.1,0.5-0.2,0.7-0.3
			c0.1-0.1,0.2-0.3,0.2-0.5c0-0.4-0.1-0.7-0.4-0.9s-0.7-0.3-1.1-0.3c-1,0-1.6,0.5-1.8,1.4l-2.2-0.4c0.2-0.9,0.6-1.6,1.3-2.1
			s1.6-0.7,2.8-0.7c2.5,0,3.8,1.1,3.8,3.3V46z M204.6,47c0.6,0,1.2-0.2,1.6-0.7c0.4-0.4,0.6-1.1,0.6-1.9l-2.1,0.6
			c-0.4,0.1-0.7,0.2-0.9,0.4s-0.3,0.4-0.3,0.7c0,0.3,0.1,0.6,0.3,0.7C204,46.9,204.3,47,204.6,47z"/>
		<path class="st3" d="M211.6,48.5V35h2.6v13.5H211.6z"/>
		<path class="st3" d="M225.2,43.8l0,0.6h-6.7c0.1,0.7,0.3,1.3,0.7,1.7c0.4,0.4,1,0.6,1.6,0.6c0.5,0,0.9-0.1,1.2-0.3
			c0.3-0.2,0.6-0.5,0.8-0.9l2.3,0.3c-0.3,0.9-0.8,1.6-1.6,2.1s-1.6,0.8-2.7,0.8c-1.5,0-2.6-0.4-3.5-1.2c-0.9-0.8-1.3-2-1.3-3.4
			c0-1.5,0.4-2.6,1.3-3.4s2-1.3,3.4-1.3c1.3,0,2.4,0.4,3.2,1.2S225.2,42.3,225.2,43.8z M220.8,41.1c-1.2,0-2,0.6-2.2,1.7h4.1
			c-0.1-0.6-0.3-1-0.6-1.3S221.3,41.1,220.8,41.1z"/>
		<path class="st3" d="M232.5,39.3c1.1,0,1.9,0.3,2.5,0.8c0.6,0.5,0.9,1.3,0.9,2.3v6.1h-2.5V43c0-0.6-0.2-1-0.5-1.2
			s-0.7-0.4-1.2-0.4c-0.3,0-0.5,0-0.8,0.1s-0.4,0.2-0.6,0.4c-0.2,0.2-0.3,0.4-0.5,0.7s-0.2,0.6-0.2,1v5h-2.5v-9h2.5v1
			C230.4,39.7,231.3,39.3,232.5,39.3z"/>
		<path class="st3" d="M241.7,48.5c-0.9,0-1.6-0.2-2-0.7c-0.5-0.5-0.7-1.2-0.7-2.1v-4.3h-1.8v-1.9h0.6c0.5,0,0.9-0.1,1.1-0.4
			s0.4-0.7,0.4-1.3v-1.2h2.3v2.9h1.9v1.9h-1.9v4c0,0.8,0.3,1.2,1,1.2h0.8v1.9H241.7z"/>
		<path class="st3" d="M253.8,43.8l0,0.6h-6.7c0.1,0.7,0.3,1.3,0.7,1.7c0.4,0.4,1,0.6,1.6,0.6c0.5,0,0.9-0.1,1.2-0.3
			c0.3-0.2,0.6-0.5,0.8-0.9l2.3,0.3c-0.3,0.9-0.8,1.6-1.6,2.1s-1.6,0.8-2.7,0.8c-1.5,0-2.6-0.4-3.5-1.2c-0.9-0.8-1.3-2-1.3-3.4
			c0-1.5,0.4-2.6,1.3-3.4s2-1.3,3.4-1.3c1.3,0,2.4,0.4,3.2,1.2S253.8,42.3,253.8,43.8z M249.3,41.1c-1.2,0-2,0.6-2.2,1.7h4.1
			c-0.1-0.6-0.3-1-0.6-1.3S249.9,41.1,249.3,41.1z"/>
		<path class="st3" d="M267.8,46c0,1,0.1,1.7,0.2,2.2v0.2h-2.4l-0.2-1c-0.3,0.4-0.7,0.7-1.3,0.9s-1.1,0.3-1.6,0.3
			c-0.3,0-0.6,0-0.8-0.1s-0.5-0.1-0.8-0.3c-0.2-0.1-0.5-0.3-0.6-0.5s-0.3-0.4-0.4-0.7c-0.1-0.3-0.2-0.6-0.2-1c0-0.4,0.1-0.7,0.2-1
			c0.1-0.3,0.3-0.5,0.4-0.7s0.4-0.4,0.7-0.5s0.6-0.3,0.9-0.4s0.7-0.2,1.1-0.3l1.5-0.3c0.3-0.1,0.5-0.2,0.7-0.3
			c0.1-0.1,0.2-0.3,0.2-0.5c0-0.4-0.1-0.7-0.4-0.9s-0.7-0.3-1.1-0.3c-1,0-1.6,0.5-1.8,1.4l-2.2-0.4c0.2-0.9,0.6-1.6,1.3-2.1
			s1.6-0.7,2.8-0.7c2.5,0,3.8,1.1,3.8,3.3V46z M263.3,47c0.6,0,1.2-0.2,1.6-0.7c0.4-0.4,0.6-1.1,0.6-1.9l-2.1,0.6
			c-0.4,0.1-0.7,0.2-0.9,0.4s-0.3,0.4-0.3,0.7c0,0.3,0.1,0.6,0.3,0.7C262.7,46.9,263,47,263.3,47z"/>
	</g>
	<g class="st1">
		<path class="st3" d="M356.6,48.7c-1.4,0-2.6-0.3-3.5-1c-1-0.6-1.5-1.6-1.7-2.7l2.7-0.6c0.1,0.7,0.4,1.2,0.8,1.6
			c0.5,0.4,1.1,0.6,1.8,0.6c0.6,0,1-0.1,1.4-0.4c0.4-0.3,0.5-0.6,0.5-1.2c0-0.4-0.1-0.7-0.4-0.9s-0.6-0.5-0.9-0.6
			c-0.3-0.1-0.8-0.3-1.4-0.5c-0.1,0-0.2,0-0.2-0.1c-0.3-0.1-0.6-0.2-0.8-0.3s-0.5-0.2-0.8-0.3c-0.3-0.1-0.5-0.2-0.7-0.4
			c-0.2-0.1-0.4-0.3-0.6-0.5c-0.2-0.2-0.4-0.4-0.5-0.6s-0.2-0.4-0.3-0.7s-0.1-0.6-0.1-0.9c0-0.8,0.2-1.4,0.6-2
			c0.4-0.6,0.9-1,1.6-1.3s1.4-0.4,2.3-0.4c0.6,0,1.1,0.1,1.7,0.2s1,0.3,1.5,0.6c0.5,0.3,0.9,0.6,1.2,1s0.5,1,0.7,1.5l-2.5,0.6
			c-0.2-1.2-1-1.8-2.3-1.8c-0.6,0-1,0.1-1.4,0.4s-0.6,0.6-0.6,1.1c0,0.5,0.3,0.8,0.9,1.1c0.3,0.1,0.9,0.3,1.8,0.6
			c0.3,0.1,0.6,0.2,0.8,0.3s0.5,0.2,0.8,0.3s0.6,0.3,0.8,0.4s0.4,0.3,0.7,0.5s0.4,0.4,0.6,0.6s0.3,0.5,0.3,0.8
			c0.1,0.3,0.1,0.6,0.1,1c0,0.5-0.1,1-0.3,1.4c-0.2,0.4-0.4,0.8-0.7,1.1s-0.6,0.5-1,0.7c-0.4,0.2-0.8,0.3-1.3,0.4
			S357.1,48.7,356.6,48.7z"/>
		<path class="st3" d="M364.7,38.1c-0.4,0-0.8-0.1-1-0.4s-0.4-0.6-0.4-1c0-0.4,0.1-0.7,0.4-1s0.6-0.4,1-0.4c0.4,0,0.7,0.1,1,0.4
			s0.4,0.6,0.4,1c0,0.4-0.1,0.7-0.4,1S365.1,38.1,364.7,38.1z M363.4,48.5v-9h2.5v9H363.4z"/>
		<path class="st3" d="M376.4,48.7c-1.1,0-1.9-0.2-2.6-0.6s-1.1-1-1.3-1.9l2.1-0.6c0.3,0.9,0.9,1.3,1.8,1.3c0.4,0,0.7-0.1,0.9-0.2
			c0.2-0.1,0.4-0.4,0.4-0.7c0-0.2,0-0.3-0.1-0.5s-0.3-0.2-0.5-0.3s-0.4-0.2-0.6-0.2s-0.5-0.1-0.8-0.2s-0.6-0.2-0.8-0.3
			c-0.3-0.1-0.6-0.2-0.8-0.3s-0.4-0.3-0.7-0.5c-0.2-0.2-0.4-0.4-0.5-0.7s-0.2-0.6-0.2-1c0-0.9,0.3-1.6,1-2s1.5-0.7,2.6-0.7
			c0.9,0,1.7,0.2,2.4,0.6s1,1,1.2,1.8l-2,0.4c-0.2-0.8-0.8-1.1-1.6-1.1c-0.4,0-0.7,0.1-0.9,0.2s-0.4,0.3-0.4,0.6
			c0,0.1,0,0.2,0.1,0.3s0.1,0.2,0.2,0.2s0.2,0.1,0.3,0.2s0.2,0.1,0.4,0.1c0.2,0.1,0.3,0.1,0.4,0.1c0.1,0,0.3,0.1,0.5,0.1
			s0.4,0.1,0.5,0.1c0.3,0.1,0.6,0.2,0.8,0.3s0.5,0.2,0.8,0.4s0.5,0.3,0.7,0.5s0.3,0.4,0.4,0.7c0.1,0.3,0.2,0.6,0.2,1
			c0,0.5-0.1,0.9-0.3,1.3s-0.5,0.7-0.8,0.9c-0.4,0.2-0.7,0.4-1.2,0.5S376.9,48.7,376.4,48.7z"/>
		<path class="st3" d="M390.5,43.8l0,0.6h-6.7c0.1,0.7,0.3,1.3,0.7,1.7c0.4,0.4,1,0.6,1.6,0.6c0.5,0,0.9-0.1,1.2-0.3
			c0.3-0.2,0.6-0.5,0.8-0.9l2.3,0.3c-0.3,0.9-0.8,1.6-1.6,2.1s-1.6,0.8-2.7,0.8c-1.5,0-2.7-0.4-3.5-1.2c-0.9-0.8-1.3-2-1.3-3.4
			c0-1.5,0.4-2.6,1.3-3.4s2-1.3,3.4-1.3c1.3,0,2.4,0.4,3.2,1.2S390.5,42.3,390.5,43.8z M386,41.1c-1.2,0-2,0.6-2.2,1.7h4.1
			c-0.1-0.6-0.3-1-0.6-1.3S386.5,41.1,386,41.1z"/>
		<path class="st3" d="M401.2,48.7c-1.4,0-2.6-0.4-3.5-1.3s-1.4-2-1.4-3.4c0-1.4,0.4-2.5,1.3-3.4s2.1-1.3,3.5-1.3
			c1.2,0,2.1,0.3,2.9,0.9s1.3,1.4,1.5,2.5l-2.3,0.3c-0.1-0.5-0.4-0.9-0.8-1.2s-0.8-0.4-1.4-0.4c-0.7,0-1.2,0.2-1.7,0.7
			s-0.6,1.1-0.6,2c0,0.8,0.2,1.5,0.6,1.9c0.4,0.5,1,0.7,1.7,0.7c0.5,0,1-0.1,1.4-0.4c0.4-0.3,0.6-0.7,0.8-1.2l2.3,0.3
			c-0.2,1-0.7,1.9-1.5,2.5S402.3,48.7,401.2,48.7z"/>
		<path class="st3" d="M413.4,39.5h2.5v9h-2.4l-0.1-1.1c-0.7,0.8-1.6,1.3-2.9,1.3c-1.1,0-1.9-0.3-2.5-0.8c-0.6-0.5-0.9-1.3-0.9-2.3
			v-6.1h2.5V45c0,0.6,0.2,1,0.5,1.2c0.3,0.3,0.7,0.4,1.2,0.4c0.6,0,1.1-0.2,1.4-0.5c0.4-0.3,0.6-0.9,0.6-1.7V39.5z"/>
		<path class="st3" d="M429.2,39.3c1,0,1.8,0.2,2.3,0.7s0.9,1.2,0.9,2.1v6.4h-2.5v-5.7c0-0.5-0.1-0.9-0.4-1.1s-0.6-0.4-1-0.4
			c-0.5,0-0.9,0.2-1.2,0.5s-0.5,0.9-0.5,1.6v5.1h-2.6v-5.6c0-0.5-0.1-0.9-0.4-1.2s-0.6-0.4-1-0.4c-0.5,0-0.9,0.2-1.2,0.5
			s-0.5,0.9-0.5,1.7v5h-2.5v-9h2.5v1.1c0.6-0.8,1.5-1.2,2.6-1.2c0.7,0,1.2,0.1,1.7,0.3s0.8,0.6,1.1,1
			C427.1,39.7,428,39.3,429.2,39.3z"/>
		<path class="st3" d="M440.2,39.3c0.6,0,1.2,0.1,1.7,0.3s1,0.5,1.4,0.9s0.7,0.9,0.9,1.5c0.2,0.6,0.3,1.3,0.3,2s-0.1,1.4-0.3,2
			c-0.2,0.6-0.5,1.1-0.9,1.5s-0.9,0.7-1.4,0.9s-1.1,0.3-1.7,0.3s-1.1-0.1-1.6-0.3s-0.9-0.5-1.1-0.9v5.5h-2.5V39.5h2.4l0.1,1.2
			c0.2-0.4,0.6-0.8,1.1-1S439.6,39.3,440.2,39.3z M439.6,46.6c0.7,0,1.3-0.2,1.7-0.7c0.5-0.5,0.7-1.1,0.7-1.9s-0.2-1.4-0.7-1.9
			s-1-0.7-1.7-0.7c-0.7,0-1.3,0.2-1.7,0.7s-0.7,1.1-0.7,1.9s0.2,1.4,0.7,1.9C438.3,46.4,438.9,46.6,439.6,46.6z"/>
		<path class="st3" d="M446.4,48.5V35h2.6v13.5H446.4z"/>
		<path class="st3" d="M460.1,43.8l0,0.6h-6.7c0.1,0.7,0.3,1.3,0.7,1.7c0.4,0.4,1,0.6,1.6,0.6c0.5,0,0.9-0.1,1.2-0.3
			c0.3-0.2,0.6-0.5,0.8-0.9l2.3,0.3c-0.3,0.9-0.8,1.6-1.6,2.1s-1.6,0.8-2.7,0.8c-1.5,0-2.7-0.4-3.5-1.2c-0.9-0.8-1.3-2-1.3-3.4
			c0-1.5,0.4-2.6,1.3-3.4s2-1.3,3.4-1.3c1.3,0,2.4,0.4,3.2,1.2S460.1,42.3,460.1,43.8z M455.7,41.1c-1.2,0-2,0.6-2.2,1.7h4.1
			c-0.1-0.6-0.3-1-0.6-1.3S456.2,41.1,455.7,41.1z"/>
		<path class="st3" d="M473.2,39.5h2.4v13.4h-2.5v-5.4c-0.3,0.4-0.6,0.7-1.1,0.9s-1,0.3-1.6,0.3c-0.6,0-1.2-0.1-1.7-0.3
			s-1-0.5-1.4-0.9s-0.7-0.9-0.9-1.5c-0.2-0.6-0.3-1.3-0.3-2s0.1-1.4,0.3-2c0.2-0.6,0.5-1.1,0.9-1.5s0.9-0.7,1.4-0.9s1.1-0.3,1.7-0.3
			c0.6,0,1.2,0.1,1.7,0.4c0.5,0.2,0.9,0.6,1.1,1L473.2,39.5z M470.9,46.6c0.7,0,1.3-0.2,1.7-0.7c0.5-0.5,0.7-1.1,0.7-1.9
			s-0.2-1.4-0.7-1.9s-1-0.7-1.7-0.7s-1.3,0.2-1.7,0.7s-0.7,1.1-0.7,1.9s0.2,1.4,0.7,1.9C469.7,46.4,470.2,46.6,470.9,46.6z"/>
		<path class="st3" d="M484.3,39.5h2.5v9h-2.4l-0.1-1.1c-0.7,0.8-1.6,1.3-2.9,1.3c-1.1,0-1.9-0.3-2.5-0.8c-0.6-0.5-0.9-1.3-0.9-2.3
			v-6.1h2.5V45c0,0.6,0.2,1,0.5,1.2c0.3,0.3,0.7,0.4,1.2,0.4c0.6,0,1.1-0.2,1.4-0.5c0.4-0.3,0.6-0.9,0.6-1.7V39.5z"/>
		<path class="st3" d="M497.9,43.8l0,0.6h-6.7c0.1,0.7,0.3,1.3,0.7,1.7c0.4,0.4,1,0.6,1.6,0.6c0.5,0,0.9-0.1,1.2-0.3
			c0.3-0.2,0.6-0.5,0.8-0.9l2.3,0.3c-0.3,0.9-0.8,1.6-1.6,2.1s-1.6,0.8-2.7,0.8c-1.5,0-2.7-0.4-3.5-1.2c-0.9-0.8-1.3-2-1.3-3.4
			c0-1.5,0.4-2.6,1.3-3.4s2-1.3,3.4-1.3c1.3,0,2.4,0.4,3.2,1.2S497.9,42.3,497.9,43.8z M493.5,41.1c-1.2,0-2,0.6-2.2,1.7h4.1
			c-0.1-0.6-0.3-1-0.6-1.3S494,41.1,493.5,41.1z"/>
		<path class="st3" d="M523,44.7c0,1.5,0.1,2.6,0.3,3.4v0.4h-3.7l-0.3-1.5c-0.5,0.6-1.2,1.1-2,1.4s-1.7,0.5-2.5,0.5
			c-0.5,0-0.9,0-1.3-0.1s-0.8-0.2-1.2-0.4c-0.4-0.2-0.7-0.4-1-0.7c-0.3-0.3-0.5-0.7-0.7-1.1c-0.2-0.5-0.2-1-0.2-1.5s0.1-1.1,0.3-1.5
			s0.4-0.8,0.7-1.1s0.7-0.6,1.1-0.8s0.9-0.4,1.4-0.6s1-0.3,1.7-0.4l2.3-0.5c0.5-0.1,0.8-0.3,1-0.4s0.3-0.4,0.3-0.7
			c0-0.6-0.2-1.1-0.7-1.4s-1-0.4-1.7-0.4c-1.6,0-2.5,0.7-2.7,2.1l-3.5-0.6c0.3-1.4,1-2.5,2-3.2s2.5-1,4.4-1c3.9,0,5.9,1.7,5.9,5.1
			V44.7z M516.1,46.1c1,0,1.8-0.3,2.4-1s0.9-1.7,0.9-3l-3.3,0.9c-0.6,0.1-1.1,0.3-1.4,0.6s-0.5,0.6-0.5,1c0,0.5,0.2,0.9,0.5,1.1
			S515.5,46.1,516.1,46.1z"/>
		<path class="st3" d="M532.2,48.5l5.8-7l-5.8-7h4.9l3.2,4.4l3.3-4.4h4.9l-5.8,7l5.8,7h-4.9l-3.2-4.4l-3.2,4.4H532.2z"/>
		<path class="st3" d="M567.9,27.5h3.9v21h-3.7l-0.1-1.8c-0.4,0.7-1,1.2-1.8,1.6c-0.8,0.4-1.7,0.6-2.6,0.6c-0.9,0-1.8-0.2-2.6-0.5
			c-0.8-0.3-1.5-0.8-2.2-1.4c-0.6-0.6-1.1-1.4-1.5-2.3s-0.5-2-0.5-3.1c0-1.5,0.3-2.8,0.9-3.9s1.4-2,2.5-2.5s2.1-0.9,3.4-0.9
			c0.9,0,1.8,0.2,2.5,0.5s1.3,0.8,1.8,1.5V27.5z M564.4,45.5c1.1,0,2-0.4,2.7-1.1s1.1-1.7,1.1-2.9s-0.4-2.2-1.1-2.9
			s-1.6-1.1-2.7-1.1c-1.1,0-2,0.4-2.7,1.1s-1.1,1.7-1.1,3c0,1.2,0.4,2.2,1.1,3S563.4,45.5,564.4,45.5z"/>
		<path class="st3" d="M584.2,37.4v-3h12.1v3H584.2z M584.2,43.4v-3h12.1v3H584.2z"/>
		<path class="st3" d="M615,48.7c-2.2,0-4-0.7-5.4-2c-1.4-1.3-2.1-3.1-2.1-5.3c0-2.2,0.7-3.9,2.1-5.3s3.2-2,5.4-2
			c1.8,0,3.3,0.5,4.6,1.4s2,2.2,2.4,3.8l-3.6,0.4c-0.2-0.8-0.6-1.4-1.2-1.8s-1.3-0.6-2.1-0.6c-1.1,0-1.9,0.4-2.6,1.1s-1,1.8-1,3
			c0,1.2,0.3,2.3,1,3s1.5,1.2,2.6,1.2c0.8,0,1.6-0.2,2.1-0.6s1-1,1.2-1.8l3.6,0.4c-0.3,1.6-1.1,2.9-2.4,3.8
			C618.2,48.3,616.7,48.7,615,48.7z"/>
		<path class="st3" d="M630,48.5l5.8-7l-5.8-7h4.9l3.2,4.4l3.3-4.4h4.9l-5.8,7l5.8,7h-4.9l-3.2-4.4l-3.2,4.4H630z"/>
		<path class="st3" d="M665.7,27.5h3.9v21h-3.7l-0.1-1.8c-0.4,0.7-1,1.2-1.8,1.6c-0.8,0.4-1.7,0.6-2.6,0.6c-0.9,0-1.8-0.2-2.6-0.5
			c-0.8-0.3-1.5-0.8-2.2-1.4c-0.6-0.6-1.1-1.4-1.5-2.3s-0.5-2-0.5-3.1c0-1.5,0.3-2.8,0.9-3.9s1.4-2,2.5-2.5s2.1-0.9,3.4-0.9
			c0.9,0,1.8,0.2,2.5,0.5s1.3,0.8,1.8,1.5V27.5z M662.3,45.5c1.1,0,2-0.4,2.7-1.1s1.1-1.7,1.1-2.9s-0.4-2.2-1.1-2.9
			s-1.6-1.1-2.7-1.1c-1.1,0-2,0.4-2.7,1.1s-1.1,1.7-1.1,3c0,1.2,0.4,2.2,1.1,3S661.2,45.5,662.3,45.5z"/>
	</g>
</g>
</svg>
