<svg xmlns="http://www.w3.org/2000/svg" width="368.335" height="207.141" viewBox="0 0 368.335 207.141">
  <g id="Grupo_14491" data-name="Grupo 14491" transform="translate(-991 -1188.903)">
    <path id="Trazado_24008" data-name="Trazado 24008" d="M0,0H50.526V205.141H0Z" transform="translate(1105.703 1189.903)" fill="red" stroke="#959595" stroke-width="2"/>
    <path id="Trazado_24009" data-name="Trazado 24009" d="M0,0H50.526V205.141H0Z" transform="translate(1156.23 1189.903)" fill="red" stroke="#959595" stroke-width="2"/>
    <path id="Trazado_24010" data-name="Trazado 24010" d="M0,0H50.526V205.141H0Z" transform="translate(1206.756 1189.903)" fill="none" stroke="#959595" stroke-width="2"/>
    <path id="Trazado_24011" data-name="Trazado 24011" d="M0,0H50.526V205.141H0Z" transform="translate(1257.281 1189.903)" fill="none" stroke="#959595" stroke-width="2"/>
    <path id="Trazado_24012" data-name="Trazado 24012" d="M0,0H50.526V205.141H0Z" transform="translate(1307.809 1189.903)" fill="none" stroke="#959595" stroke-width="2"/>
    <path id="Trazado_24013" data-name="Trazado 24013" d="M7.82-19.756h3.746V0H7.643V-15.709L3.1-11.484v-4.047Z" transform="translate(1122.059 1279.653)" fill="#002b45"/>
    <path id="Trazado_24014" data-name="Trazado 24014" d="M7.971-12.811q7.588,0,7.588,6.234a6.66,6.66,0,0,1-1.914,5A6.918,6.918,0,0,1,8.6.287,8.369,8.369,0,0,1,5.065-.444,6.1,6.1,0,0,1,2.5-2.618a5.822,5.822,0,0,1-.971-3.329,6.147,6.147,0,0,1,.082-.984l3.91-.178a5.779,5.779,0,0,0-.1.875,2.66,2.66,0,0,0,.889,2.181,3.349,3.349,0,0,0,2.2.731,3.034,3.034,0,0,0,2.3-.841,3.132,3.132,0,0,0,.807-2.263,2.816,2.816,0,0,0-.984-2.311,5.271,5.271,0,0,0-3.309-.807H2.146l.82-10.213H14.629v3.514H6.508l-.26,3.432Z" transform="translate(1122.059 1322.903)" fill="#002b45"/>
    <path id="Trazado_24015" data-name="Trazado 24015" d="M0,0H31.607V1.317H0Z" transform="translate(1115.162 1288.336)" fill="#002b45"/>
    <path id="Trazado_24016" data-name="Trazado 24016" d="M7.82-19.756h3.746V0H7.643V-15.709L3.1-11.484v-4.047Z" transform="translate(1172.584 1279.653)" fill="#002b45"/>
    <path id="Trazado_24017" data-name="Trazado 24017" d="M7.971-12.811q7.588,0,7.588,6.234a6.66,6.66,0,0,1-1.914,5A6.918,6.918,0,0,1,8.6.287,8.369,8.369,0,0,1,5.065-.444,6.1,6.1,0,0,1,2.5-2.618a5.822,5.822,0,0,1-.971-3.329,6.147,6.147,0,0,1,.082-.984l3.91-.178a5.779,5.779,0,0,0-.1.875,2.66,2.66,0,0,0,.889,2.181,3.349,3.349,0,0,0,2.2.731,3.034,3.034,0,0,0,2.3-.841,3.132,3.132,0,0,0,.807-2.263,2.816,2.816,0,0,0-.984-2.311,5.271,5.271,0,0,0-3.309-.807H2.146l.82-10.213H14.629v3.514H6.508l-.26,3.432Z" transform="translate(1172.584 1322.903)" fill="#002b45"/>
    <path id="Trazado_24018" data-name="Trazado 24018" d="M0,0H31.607V1.317H0Z" transform="translate(1165.689 1288.336)" fill="#002b45"/>
    <path id="Trazado_24019" data-name="Trazado 24019" d="M3.063-11.129v-2.994H15.135v2.994Zm0,6V-8.121H15.135v2.994Z" transform="translate(1041.637 1301.278)" fill="#002b45"/>
    <path id="Trazado_24020" data-name="Trazado 24020" d="M6.877-3.514H15.3V0H1.367V-2.967l7.861-8.025a4.947,4.947,0,0,0,1.709-3.4,2.408,2.408,0,0,0-.7-1.832,2.772,2.772,0,0,0-1.989-.67q-2.8,0-2.8,3.186v1.463l-3.924-.4v-.984a6.161,6.161,0,0,1,1.8-4.751,6.912,6.912,0,0,1,4.895-1.675,7.24,7.24,0,0,1,4.765,1.518,5.115,5.115,0,0,1,1.839,4.17,5.913,5.913,0,0,1-.622,2.707,11.315,11.315,0,0,1-1.976,2.639Z" transform="translate(997.895 1279.654)" fill="#002b45"/>
    <path id="Trazado_24021" data-name="Trazado 24021" d="M7.971-12.811q7.588,0,7.588,6.234a6.66,6.66,0,0,1-1.914,5A6.918,6.918,0,0,1,8.6.287,8.369,8.369,0,0,1,5.065-.444,6.1,6.1,0,0,1,2.5-2.618a5.822,5.822,0,0,1-.971-3.329,6.147,6.147,0,0,1,.082-.984l3.91-.178a5.779,5.779,0,0,0-.1.875,2.66,2.66,0,0,0,.889,2.181,3.349,3.349,0,0,0,2.2.731,3.034,3.034,0,0,0,2.3-.841,3.132,3.132,0,0,0,.807-2.263,2.816,2.816,0,0,0-.984-2.311,5.271,5.271,0,0,0-3.309-.807H2.146l.82-10.213H14.629v3.514H6.508l-.26,3.432Z" transform="translate(997.895 1322.904)" fill="#002b45"/>
    <path id="Trazado_24022" data-name="Trazado 24022" d="M0,0H31.607V1.317H0Z" transform="translate(991 1288.337)" fill="#002b45"/>
    <path id="Trazado_24023" data-name="Trazado 24023" d="M7.82-19.756h3.746V0H7.643V-15.709L3.1-11.484v-4.047Z" transform="translate(1223.109 1279.653)" fill="#002b45"/>
    <path id="Trazado_24024" data-name="Trazado 24024" d="M7.971-12.811q7.588,0,7.588,6.234a6.66,6.66,0,0,1-1.914,5A6.918,6.918,0,0,1,8.6.287,8.369,8.369,0,0,1,5.065-.444,6.1,6.1,0,0,1,2.5-2.618a5.822,5.822,0,0,1-.971-3.329,6.147,6.147,0,0,1,.082-.984l3.91-.178a5.779,5.779,0,0,0-.1.875,2.66,2.66,0,0,0,.889,2.181,3.349,3.349,0,0,0,2.2.731,3.034,3.034,0,0,0,2.3-.841,3.132,3.132,0,0,0,.807-2.263,2.816,2.816,0,0,0-.984-2.311,5.271,5.271,0,0,0-3.309-.807H2.146l.82-10.213H14.629v3.514H6.508l-.26,3.432Z" transform="translate(1223.109 1322.903)" fill="#002b45"/>
    <path id="Trazado_24025" data-name="Trazado 24025" d="M0,0H31.607V1.317H0Z" transform="translate(1216.215 1288.336)" fill="#002b45"/>
    <path id="Trazado_24026" data-name="Trazado 24026" d="M7.82-19.756h3.746V0H7.643V-15.709L3.1-11.484v-4.047Z" transform="translate(1273.637 1279.653)" fill="#002b45"/>
    <path id="Trazado_24027" data-name="Trazado 24027" d="M7.971-12.811q7.588,0,7.588,6.234a6.66,6.66,0,0,1-1.914,5A6.918,6.918,0,0,1,8.6.287,8.369,8.369,0,0,1,5.065-.444,6.1,6.1,0,0,1,2.5-2.618a5.822,5.822,0,0,1-.971-3.329,6.147,6.147,0,0,1,.082-.984l3.91-.178a5.779,5.779,0,0,0-.1.875,2.66,2.66,0,0,0,.889,2.181,3.349,3.349,0,0,0,2.2.731,3.034,3.034,0,0,0,2.3-.841,3.132,3.132,0,0,0,.807-2.263,2.816,2.816,0,0,0-.984-2.311,5.271,5.271,0,0,0-3.309-.807H2.146l.82-10.213H14.629v3.514H6.508l-.26,3.432Z" transform="translate(1273.637 1322.903)" fill="#002b45"/>
    <path id="Trazado_24028" data-name="Trazado 24028" d="M0,0H31.607V1.317H0Z" transform="translate(1266.742 1288.336)" fill="#002b45"/>
    <path id="Trazado_24029" data-name="Trazado 24029" d="M7.82-19.756h3.746V0H7.643V-15.709L3.1-11.484v-4.047Z" transform="translate(1324.162 1279.653)" fill="#002b45"/>
    <path id="Trazado_24030" data-name="Trazado 24030" d="M7.971-12.811q7.588,0,7.588,6.234a6.66,6.66,0,0,1-1.914,5A6.918,6.918,0,0,1,8.6.287,8.369,8.369,0,0,1,5.065-.444,6.1,6.1,0,0,1,2.5-2.618a5.822,5.822,0,0,1-.971-3.329,6.147,6.147,0,0,1,.082-.984l3.91-.178a5.779,5.779,0,0,0-.1.875,2.66,2.66,0,0,0,.889,2.181,3.349,3.349,0,0,0,2.2.731,3.034,3.034,0,0,0,2.3-.841,3.132,3.132,0,0,0,.807-2.263,2.816,2.816,0,0,0-.984-2.311,5.271,5.271,0,0,0-3.309-.807H2.146l.82-10.213H14.629v3.514H6.508l-.26,3.432Z" transform="translate(1324.162 1322.903)" fill="#002b45"/>
    <path id="Trazado_24031" data-name="Trazado 24031" d="M0,0H31.607V1.317H0Z" transform="translate(1317.268 1288.336)" fill="#002b45"/>
  </g>
</svg>
