<svg xmlns="http://www.w3.org/2000/svg" width="976.544" height="239.053" viewBox="0 0 976.544 239.053">
  <g id="Grupo_14491" data-name="Grupo 14491" transform="translate(-153.197 -2072.947)">
    <path id="Trazado_24008" data-name="Trazado 24008" d="M0,0H50.526V237.053H0Z" transform="translate(267.9 2073.947)" fill="red" stroke="#989898" stroke-width="2"/>
    <path id="Trazado_24009" data-name="Trazado 24009" d="M0,0H50.526V237.053H0Z" transform="translate(318.428 2073.947)" fill="red" stroke="#989898" stroke-width="2"/>
    <path id="Trazado_24010" data-name="Trazado 24010" d="M0,0H50.526V237.053H0Z" transform="translate(368.953 2073.947)" fill="red" stroke="#989898" stroke-width="2"/>
    <path id="Trazado_24011" data-name="Trazado 24011" d="M0,0H50.526V237.053H0Z" transform="translate(419.48 2073.947)" fill="red" stroke="#989898" stroke-width="2"/>
    <path id="Trazado_24012" data-name="Trazado 24012" d="M0,0H50.526V237.053H0Z" transform="translate(470.006 2073.947)" fill="red" stroke="#989898" stroke-width="2"/>
    <path id="Trazado_24013" data-name="Trazado 24013" d="M7.82-19.756h3.746V0H7.643V-15.709L3.1-11.484v-4.047Z" transform="translate(284.256 2179.653)" fill="#002b45"/>
    <path id="Trazado_24014" data-name="Trazado 24014" d="M7.971-12.811q7.588,0,7.588,6.234a6.66,6.66,0,0,1-1.914,5A6.918,6.918,0,0,1,8.6.287,8.369,8.369,0,0,1,5.065-.444,6.1,6.1,0,0,1,2.5-2.618a5.822,5.822,0,0,1-.971-3.329,6.147,6.147,0,0,1,.082-.984l3.91-.178a5.779,5.779,0,0,0-.1.875,2.66,2.66,0,0,0,.889,2.181,3.349,3.349,0,0,0,2.2.731,3.034,3.034,0,0,0,2.3-.841,3.132,3.132,0,0,0,.807-2.263,2.816,2.816,0,0,0-.984-2.311,5.271,5.271,0,0,0-3.309-.807H2.146l.82-10.213H14.629v3.514H6.508l-.26,3.432Z" transform="translate(284.256 2222.903)" fill="#002b45"/>
    <path id="Trazado_24015" data-name="Trazado 24015" d="M0,0H31.607V1.317H0Z" transform="translate(277.361 2188.336)" fill="#002b45"/>
    <path id="Trazado_24016" data-name="Trazado 24016" d="M7.82-19.756h3.746V0H7.643V-15.709L3.1-11.484v-4.047Z" transform="translate(334.781 2179.653)" fill="#002b45"/>
    <path id="Trazado_24017" data-name="Trazado 24017" d="M7.971-12.811q7.588,0,7.588,6.234a6.66,6.66,0,0,1-1.914,5A6.918,6.918,0,0,1,8.6.287,8.369,8.369,0,0,1,5.065-.444,6.1,6.1,0,0,1,2.5-2.618a5.822,5.822,0,0,1-.971-3.329,6.147,6.147,0,0,1,.082-.984l3.91-.178a5.779,5.779,0,0,0-.1.875,2.66,2.66,0,0,0,.889,2.181,3.349,3.349,0,0,0,2.2.731,3.034,3.034,0,0,0,2.3-.841,3.132,3.132,0,0,0,.807-2.263,2.816,2.816,0,0,0-.984-2.311,5.271,5.271,0,0,0-3.309-.807H2.146l.82-10.213H14.629v3.514H6.508l-.26,3.432Z" transform="translate(334.781 2222.903)" fill="#002b45"/>
    <path id="Trazado_24018" data-name="Trazado 24018" d="M0,0H31.607V1.317H0Z" transform="translate(327.887 2188.336)" fill="#002b45"/>
    <path id="Trazado_24019" data-name="Trazado 24019" d="M-6.029-11.129v-2.994H6.043v2.994Zm0,6V-8.121H6.043v2.994Z" transform="translate(212.834 2201.278)" fill="#002b45"/>
    <path id="Trazado_24020" data-name="Trazado 24020" d="M-1.483-2.8V-8.08H-6.761v-2.994h5.277v-5.264H1.5v5.264H6.761V-8.08H1.5V-2.8Z" transform="translate(546.645 2201.278)" fill="#002b45"/>
    <path id="Trazado_24045" data-name="Trazado 24045" d="M-1.483-2.8V-8.08H-6.761v-2.994h5.277v-5.264H1.5v5.264H6.761V-8.08H1.5V-2.8Z" transform="translate(851.773 2201.278)" fill="#002b45"/>
    <path id="Trazado_24021" data-name="Trazado 24021" d="M-8.9-19.756h3.746V0H-9.078V-15.709l-4.539,4.225v-4.047Zm16.721,0h3.746V0H7.643V-15.709L3.1-11.484v-4.047Z" transform="translate(169 2179.654)" fill="#002b45"/>
    <path id="Trazado_24022" data-name="Trazado 24022" d="M-.39-12.811q7.588,0,7.588,6.234a6.66,6.66,0,0,1-1.914,5A6.918,6.918,0,0,1,.239.287,8.369,8.369,0,0,1-3.295-.444,6.1,6.1,0,0,1-5.858-2.618a5.822,5.822,0,0,1-.971-3.329,6.147,6.147,0,0,1,.082-.984l3.91-.178a5.779,5.779,0,0,0-.1.875,2.66,2.66,0,0,0,.889,2.181,3.349,3.349,0,0,0,2.2.731,3.034,3.034,0,0,0,2.3-.841,3.132,3.132,0,0,0,.807-2.263,2.816,2.816,0,0,0-.984-2.311,5.271,5.271,0,0,0-3.309-.807H-6.214l.82-10.213H6.269v3.514H-1.853l-.26,3.432Z" transform="translate(169.002 2222.904)" fill="#002b45"/>
    <path id="Trazado_24023" data-name="Trazado 24023" d="M0,0H31.607V1.317H0Z" transform="translate(153.197 2188.337)" fill="#002b45"/>
    <path id="Trazado_24024" data-name="Trazado 24024" d="M7.82-19.756h3.746V0H7.643V-15.709L3.1-11.484v-4.047Z" transform="translate(385.309 2179.653)" fill="#002b45"/>
    <path id="Trazado_24025" data-name="Trazado 24025" d="M7.971-12.811q7.588,0,7.588,6.234a6.66,6.66,0,0,1-1.914,5A6.918,6.918,0,0,1,8.6.287,8.369,8.369,0,0,1,5.065-.444,6.1,6.1,0,0,1,2.5-2.618a5.822,5.822,0,0,1-.971-3.329,6.147,6.147,0,0,1,.082-.984l3.91-.178a5.779,5.779,0,0,0-.1.875,2.66,2.66,0,0,0,.889,2.181,3.349,3.349,0,0,0,2.2.731,3.034,3.034,0,0,0,2.3-.841,3.132,3.132,0,0,0,.807-2.263,2.816,2.816,0,0,0-.984-2.311,5.271,5.271,0,0,0-3.309-.807H2.146l.82-10.213H14.629v3.514H6.508l-.26,3.432Z" transform="translate(385.309 2222.903)" fill="#002b45"/>
    <path id="Trazado_24026" data-name="Trazado 24026" d="M0,0H31.607V1.317H0Z" transform="translate(378.412 2188.336)" fill="#002b45"/>
    <path id="Trazado_24027" data-name="Trazado 24027" d="M7.82-19.756h3.746V0H7.643V-15.709L3.1-11.484v-4.047Z" transform="translate(435.834 2179.653)" fill="#002b45"/>
    <path id="Trazado_24028" data-name="Trazado 24028" d="M7.971-12.811q7.588,0,7.588,6.234a6.66,6.66,0,0,1-1.914,5A6.918,6.918,0,0,1,8.6.287,8.369,8.369,0,0,1,5.065-.444,6.1,6.1,0,0,1,2.5-2.618a5.822,5.822,0,0,1-.971-3.329,6.147,6.147,0,0,1,.082-.984l3.91-.178a5.779,5.779,0,0,0-.1.875,2.66,2.66,0,0,0,.889,2.181,3.349,3.349,0,0,0,2.2.731,3.034,3.034,0,0,0,2.3-.841,3.132,3.132,0,0,0,.807-2.263,2.816,2.816,0,0,0-.984-2.311,5.271,5.271,0,0,0-3.309-.807H2.146l.82-10.213H14.629v3.514H6.508l-.26,3.432Z" transform="translate(435.834 2222.903)" fill="#002b45"/>
    <path id="Trazado_24029" data-name="Trazado 24029" d="M0,0H31.607V1.317H0Z" transform="translate(428.939 2188.336)" fill="#002b45"/>
    <path id="Trazado_24030" data-name="Trazado 24030" d="M7.82-19.756h3.746V0H7.643V-15.709L3.1-11.484v-4.047Z" transform="translate(486.359 2179.653)" fill="#002b45"/>
    <path id="Trazado_24031" data-name="Trazado 24031" d="M7.971-12.811q7.588,0,7.588,6.234a6.66,6.66,0,0,1-1.914,5A6.918,6.918,0,0,1,8.6.287,8.369,8.369,0,0,1,5.065-.444,6.1,6.1,0,0,1,2.5-2.618a5.822,5.822,0,0,1-.971-3.329,6.147,6.147,0,0,1,.082-.984l3.91-.178a5.779,5.779,0,0,0-.1.875,2.66,2.66,0,0,0,.889,2.181,3.349,3.349,0,0,0,2.2.731,3.034,3.034,0,0,0,2.3-.841,3.132,3.132,0,0,0,.807-2.263,2.816,2.816,0,0,0-.984-2.311,5.271,5.271,0,0,0-3.309-.807H2.146l.82-10.213H14.629v3.514H6.508l-.26,3.432Z" transform="translate(486.359 2222.903)" fill="#002b45"/>
    <path id="Trazado_24032" data-name="Trazado 24032" d="M0,0H31.607V1.317H0Z" transform="translate(479.465 2188.336)" fill="#002b45"/>
    <path id="Trazado_24033" data-name="Trazado 24033" d="M0,0H50.526V237.053H0Z" transform="translate(572.006 2073.947)" fill="red" stroke="#989898" stroke-width="2"/>
    <path id="Trazado_24034" data-name="Trazado 24034" d="M0,0H50.526V237.053H0Z" transform="translate(622.531 2073.947)" fill="red" stroke="#989898" stroke-width="2"/>
    <path id="Trazado_24035" data-name="Trazado 24035" d="M0,0H50.526V237.053H0Z" transform="translate(673.059 2073.947)" fill="red" stroke="#989898" stroke-width="2"/>
    <path id="Trazado_24046" data-name="Trazado 24046" d="M0,0H50.526V237.053H0Z" transform="translate(723.584 2073.947)" fill="red" stroke="#989898" stroke-width="2"/>
    <path id="Trazado_24047" data-name="Trazado 24047" d="M0,0H50.526V237.053H0Z" transform="translate(774.111 2073.947)" fill="red" stroke="#989898" stroke-width="2"/>
    <path id="Trazado_24036" data-name="Trazado 24036" d="M7.82-19.756h3.746V0H7.643V-15.709L3.1-11.484v-4.047Z" transform="translate(588.359 2179.653)" fill="#002b45"/>
    <path id="Trazado_24037" data-name="Trazado 24037" d="M7.971-12.811q7.588,0,7.588,6.234a6.66,6.66,0,0,1-1.914,5A6.918,6.918,0,0,1,8.6.287,8.369,8.369,0,0,1,5.065-.444,6.1,6.1,0,0,1,2.5-2.618a5.822,5.822,0,0,1-.971-3.329,6.147,6.147,0,0,1,.082-.984l3.91-.178a5.779,5.779,0,0,0-.1.875,2.66,2.66,0,0,0,.889,2.181,3.349,3.349,0,0,0,2.2.731,3.034,3.034,0,0,0,2.3-.841,3.132,3.132,0,0,0,.807-2.263,2.816,2.816,0,0,0-.984-2.311,5.271,5.271,0,0,0-3.309-.807H2.146l.82-10.213H14.629v3.514H6.508l-.26,3.432Z" transform="translate(588.359 2222.903)" fill="#002b45"/>
    <path id="Trazado_24038" data-name="Trazado 24038" d="M0,0H31.607V1.317H0Z" transform="translate(581.465 2188.336)" fill="#002b45"/>
    <path id="Trazado_24039" data-name="Trazado 24039" d="M7.82-19.756h3.746V0H7.643V-15.709L3.1-11.484v-4.047Z" transform="translate(638.887 2179.653)" fill="#002b45"/>
    <path id="Trazado_24040" data-name="Trazado 24040" d="M7.971-12.811q7.588,0,7.588,6.234a6.66,6.66,0,0,1-1.914,5A6.918,6.918,0,0,1,8.6.287,8.369,8.369,0,0,1,5.065-.444,6.1,6.1,0,0,1,2.5-2.618a5.822,5.822,0,0,1-.971-3.329,6.147,6.147,0,0,1,.082-.984l3.91-.178a5.779,5.779,0,0,0-.1.875,2.66,2.66,0,0,0,.889,2.181,3.349,3.349,0,0,0,2.2.731,3.034,3.034,0,0,0,2.3-.841,3.132,3.132,0,0,0,.807-2.263,2.816,2.816,0,0,0-.984-2.311,5.271,5.271,0,0,0-3.309-.807H2.146l.82-10.213H14.629v3.514H6.508l-.26,3.432Z" transform="translate(638.887 2222.903)" fill="#002b45"/>
    <path id="Trazado_24041" data-name="Trazado 24041" d="M0,0H31.607V1.317H0Z" transform="translate(631.992 2188.336)" fill="#002b45"/>
    <path id="Trazado_24042" data-name="Trazado 24042" d="M7.82-19.756h3.746V0H7.643V-15.709L3.1-11.484v-4.047Z" transform="translate(689.412 2179.653)" fill="#002b45"/>
    <path id="Trazado_24043" data-name="Trazado 24043" d="M7.971-12.811q7.588,0,7.588,6.234a6.66,6.66,0,0,1-1.914,5A6.918,6.918,0,0,1,8.6.287,8.369,8.369,0,0,1,5.065-.444,6.1,6.1,0,0,1,2.5-2.618a5.822,5.822,0,0,1-.971-3.329,6.147,6.147,0,0,1,.082-.984l3.91-.178a5.779,5.779,0,0,0-.1.875,2.66,2.66,0,0,0,.889,2.181,3.349,3.349,0,0,0,2.2.731,3.034,3.034,0,0,0,2.3-.841,3.132,3.132,0,0,0,.807-2.263,2.816,2.816,0,0,0-.984-2.311,5.271,5.271,0,0,0-3.309-.807H2.146l.82-10.213H14.629v3.514H6.508l-.26,3.432Z" transform="translate(689.412 2222.903)" fill="#002b45"/>
    <path id="Trazado_24044" data-name="Trazado 24044" d="M0,0H31.607V1.317H0Z" transform="translate(682.518 2188.336)" fill="#002b45"/>
    <path id="Trazado_24048" data-name="Trazado 24048" d="M7.82-19.756h3.746V0H7.643V-15.709L3.1-11.484v-4.047Z" transform="translate(739.938 2179.653)" fill="#002b45"/>
    <path id="Trazado_24049" data-name="Trazado 24049" d="M7.971-12.811q7.588,0,7.588,6.234a6.66,6.66,0,0,1-1.914,5A6.918,6.918,0,0,1,8.6.287,8.369,8.369,0,0,1,5.065-.444,6.1,6.1,0,0,1,2.5-2.618a5.822,5.822,0,0,1-.971-3.329,6.147,6.147,0,0,1,.082-.984l3.91-.178a5.779,5.779,0,0,0-.1.875,2.66,2.66,0,0,0,.889,2.181,3.349,3.349,0,0,0,2.2.731,3.034,3.034,0,0,0,2.3-.841,3.132,3.132,0,0,0,.807-2.263,2.816,2.816,0,0,0-.984-2.311,5.271,5.271,0,0,0-3.309-.807H2.146l.82-10.213H14.629v3.514H6.508l-.26,3.432Z" transform="translate(739.938 2222.903)" fill="#002b45"/>
    <path id="Trazado_24050" data-name="Trazado 24050" d="M0,0H31.607V1.317H0Z" transform="translate(733.043 2188.336)" fill="#002b45"/>
    <path id="Trazado_24051" data-name="Trazado 24051" d="M7.82-19.756h3.746V0H7.643V-15.709L3.1-11.484v-4.047Z" transform="translate(790.465 2179.653)" fill="#002b45"/>
    <path id="Trazado_24052" data-name="Trazado 24052" d="M7.971-12.811q7.588,0,7.588,6.234a6.66,6.66,0,0,1-1.914,5A6.918,6.918,0,0,1,8.6.287,8.369,8.369,0,0,1,5.065-.444,6.1,6.1,0,0,1,2.5-2.618a5.822,5.822,0,0,1-.971-3.329,6.147,6.147,0,0,1,.082-.984l3.91-.178a5.779,5.779,0,0,0-.1.875,2.66,2.66,0,0,0,.889,2.181,3.349,3.349,0,0,0,2.2.731,3.034,3.034,0,0,0,2.3-.841,3.132,3.132,0,0,0,.807-2.263,2.816,2.816,0,0,0-.984-2.311,5.271,5.271,0,0,0-3.309-.807H2.146l.82-10.213H14.629v3.514H6.508l-.26,3.432Z" transform="translate(790.465 2222.903)" fill="#002b45"/>
    <path id="Trazado_24053" data-name="Trazado 24053" d="M0,0H31.607V1.317H0Z" transform="translate(783.57 2188.336)" fill="#002b45"/>
    <path id="Trazado_24054" data-name="Trazado 24054" d="M0,0H50.526V237.053H0Z" transform="translate(876.111 2073.947)" fill="red" stroke="#989898" stroke-width="2"/>
    <path id="Trazado_24055" data-name="Trazado 24055" d="M0,0H50.526V237.053H0Z" transform="translate(926.637 2073.947)" fill="#fff" stroke="#989898" stroke-width="2"/>
    <path id="Trazado_24056" data-name="Trazado 24056" d="M0,0H50.526V237.053H0Z" transform="translate(977.16 2073.947)" fill="#fff" stroke="#989898" stroke-width="2"/>
    <path id="Trazado_24057" data-name="Trazado 24057" d="M0,0H50.526V237.053H0Z" transform="translate(1027.688 2073.947)" fill="#fff" stroke="#989898" stroke-width="2"/>
    <path id="Trazado_24058" data-name="Trazado 24058" d="M0,0H50.526V237.053H0Z" transform="translate(1078.215 2073.947)" fill="#fff" stroke="#989898" stroke-width="2"/>
    <path id="Trazado_24059" data-name="Trazado 24059" d="M7.82-19.756h3.746V0H7.643V-15.709L3.1-11.484v-4.047Z" transform="translate(892.465 2179.653)" fill="#002b45"/>
    <path id="Trazado_24060" data-name="Trazado 24060" d="M7.971-12.811q7.588,0,7.588,6.234a6.66,6.66,0,0,1-1.914,5A6.918,6.918,0,0,1,8.6.287,8.369,8.369,0,0,1,5.065-.444,6.1,6.1,0,0,1,2.5-2.618a5.822,5.822,0,0,1-.971-3.329,6.147,6.147,0,0,1,.082-.984l3.91-.178a5.779,5.779,0,0,0-.1.875,2.66,2.66,0,0,0,.889,2.181,3.349,3.349,0,0,0,2.2.731,3.034,3.034,0,0,0,2.3-.841,3.132,3.132,0,0,0,.807-2.263,2.816,2.816,0,0,0-.984-2.311,5.271,5.271,0,0,0-3.309-.807H2.146l.82-10.213H14.629v3.514H6.508l-.26,3.432Z" transform="translate(892.465 2222.903)" fill="#002b45"/>
    <path id="Trazado_24061" data-name="Trazado 24061" d="M0,0H31.607V1.317H0Z" transform="translate(885.57 2188.336)" fill="#002b45"/>
    <path id="Trazado_24062" data-name="Trazado 24062" d="M7.82-19.756h3.746V0H7.643V-15.709L3.1-11.484v-4.047Z" transform="translate(942.99 2179.653)" fill="#002b45"/>
    <path id="Trazado_24063" data-name="Trazado 24063" d="M7.971-12.811q7.588,0,7.588,6.234a6.66,6.66,0,0,1-1.914,5A6.918,6.918,0,0,1,8.6.287,8.369,8.369,0,0,1,5.065-.444,6.1,6.1,0,0,1,2.5-2.618a5.822,5.822,0,0,1-.971-3.329,6.147,6.147,0,0,1,.082-.984l3.91-.178a5.779,5.779,0,0,0-.1.875,2.66,2.66,0,0,0,.889,2.181,3.349,3.349,0,0,0,2.2.731,3.034,3.034,0,0,0,2.3-.841,3.132,3.132,0,0,0,.807-2.263,2.816,2.816,0,0,0-.984-2.311,5.271,5.271,0,0,0-3.309-.807H2.146l.82-10.213H14.629v3.514H6.508l-.26,3.432Z" transform="translate(942.99 2222.903)" fill="#002b45"/>
    <path id="Trazado_24064" data-name="Trazado 24064" d="M0,0H31.607V1.317H0Z" transform="translate(936.096 2188.336)" fill="#002b45"/>
    <path id="Trazado_24065" data-name="Trazado 24065" d="M7.82-19.756h3.746V0H7.643V-15.709L3.1-11.484v-4.047Z" transform="translate(993.518 2179.653)" fill="#002b45"/>
    <path id="Trazado_24066" data-name="Trazado 24066" d="M7.971-12.811q7.588,0,7.588,6.234a6.66,6.66,0,0,1-1.914,5A6.918,6.918,0,0,1,8.6.287,8.369,8.369,0,0,1,5.065-.444,6.1,6.1,0,0,1,2.5-2.618a5.822,5.822,0,0,1-.971-3.329,6.147,6.147,0,0,1,.082-.984l3.91-.178a5.779,5.779,0,0,0-.1.875,2.66,2.66,0,0,0,.889,2.181,3.349,3.349,0,0,0,2.2.731,3.034,3.034,0,0,0,2.3-.841,3.132,3.132,0,0,0,.807-2.263,2.816,2.816,0,0,0-.984-2.311,5.271,5.271,0,0,0-3.309-.807H2.146l.82-10.213H14.629v3.514H6.508l-.26,3.432Z" transform="translate(993.518 2222.903)" fill="#002b45"/>
    <path id="Trazado_24067" data-name="Trazado 24067" d="M0,0H31.607V1.317H0Z" transform="translate(986.623 2188.336)" fill="#002b45"/>
    <path id="Trazado_24068" data-name="Trazado 24068" d="M7.82-19.756h3.746V0H7.643V-15.709L3.1-11.484v-4.047Z" transform="translate(1044.043 2179.653)" fill="#002b45"/>
    <path id="Trazado_24069" data-name="Trazado 24069" d="M7.971-12.811q7.588,0,7.588,6.234a6.66,6.66,0,0,1-1.914,5A6.918,6.918,0,0,1,8.6.287,8.369,8.369,0,0,1,5.065-.444,6.1,6.1,0,0,1,2.5-2.618a5.822,5.822,0,0,1-.971-3.329,6.147,6.147,0,0,1,.082-.984l3.91-.178a5.779,5.779,0,0,0-.1.875,2.66,2.66,0,0,0,.889,2.181,3.349,3.349,0,0,0,2.2.731,3.034,3.034,0,0,0,2.3-.841,3.132,3.132,0,0,0,.807-2.263,2.816,2.816,0,0,0-.984-2.311,5.271,5.271,0,0,0-3.309-.807H2.146l.82-10.213H14.629v3.514H6.508l-.26,3.432Z" transform="translate(1044.043 2222.903)" fill="#002b45"/>
    <path id="Trazado_24070" data-name="Trazado 24070" d="M0,0H31.607V1.317H0Z" transform="translate(1037.148 2188.336)" fill="#002b45"/>
    <path id="Trazado_24072" data-name="Trazado 24072" d="M7.82-19.756h3.746V0H7.643V-15.709L3.1-11.484v-4.047Z" transform="translate(1094.57 2179.653)" fill="#002b45"/>
    <path id="Trazado_24073" data-name="Trazado 24073" d="M7.971-12.811q7.588,0,7.588,6.234a6.66,6.66,0,0,1-1.914,5A6.918,6.918,0,0,1,8.6.287,8.369,8.369,0,0,1,5.065-.444,6.1,6.1,0,0,1,2.5-2.618a5.822,5.822,0,0,1-.971-3.329,6.147,6.147,0,0,1,.082-.984l3.91-.178a5.779,5.779,0,0,0-.1.875,2.66,2.66,0,0,0,.889,2.181,3.349,3.349,0,0,0,2.2.731,3.034,3.034,0,0,0,2.3-.841,3.132,3.132,0,0,0,.807-2.263,2.816,2.816,0,0,0-.984-2.311,5.271,5.271,0,0,0-3.309-.807H2.146l.82-10.213H14.629v3.514H6.508l-.26,3.432Z" transform="translate(1094.57 2222.903)" fill="#002b45"/>
    <path id="Trazado_24071" data-name="Trazado 24071" d="M0,0H31.607V1.317H0Z" transform="translate(1087.674 2188.336)" fill="#002b45"/>
  </g>
</svg>
