<?xml version="1.0" encoding="utf-8"?>
<!-- Generator: Adobe Illustrator 24.3.0, SVG Export Plug-In . SVG Version: 6.00 Build 0)  -->
<svg version="1.1" id="Capa_1" xmlns="http://www.w3.org/2000/svg" xmlns:xlink="http://www.w3.org/1999/xlink" x="0px" y="0px"
	 viewBox="0 0 740 198" style="enable-background:new 0 0 740 198;" xml:space="preserve">
<style type="text/css">
	.st0{fill:#D5F4FC;}
	.st1{fill:#002B45;}
	.st2{font-family:'CerebriSans-Bold';}
	.st3{font-size:28px;}
	.st4{fill:#00223D;}
	.st5{font-size:18px;}
	.st6{enable-background:new    ;}
	.st7{font-size:21px;}
</style>
<g id="Grupo_14492" transform="translate(-330 -1439)">
	<rect id="Rectángulo_3334" x="330" y="1440.6" class="st0" width="740" height="198"/>
	<g id="Grupo_14491" transform="translate(6 3)">
		<text transform="matrix(1 0 0 1 411.124 1525.6057)" class="st1 st2 st3">a</text>
		<text transform="matrix(1 0 0 1 409.814 1565.8557)" class="st1 st2 st3">b</text>
		<rect id="Rectángulo_3631" x="393" y="1534.3" width="51.6" height="1.3"/>
		<text transform="matrix(1 0 0 1 633.546 1525.6057)" class="st1 st2 st3">c</text>
		<text transform="matrix(1 0 0 1 632.591 1565.8557)" class="st1 st2 st3">d</text>
		<rect id="Rectángulo_3632" x="615.8" y="1534.3" width="51.6" height="1.3"/>
		<text transform="matrix(1 0 0 1 459.094 1538.2117)" class="st4 st2 st5">Es equivalente a</text>
		<text transform="matrix(1 0 0 1 680.699 1538.2117)" class="st6"><tspan x="0" y="0" class="st4 st2 st5">Si se cumple que</tspan><tspan x="147.8" y="0" class="st4 st2 st7">  </tspan><tspan x="158.7" y="0" class="st4 st2 st3">a x d = c x d</tspan></text>
	</g>
</g>
</svg>
