<?xml version="1.0" encoding="utf-8"?>
<!-- Generator: Adobe Illustrator 24.3.0, SVG Export Plug-In . SVG Version: 6.00 Build 0)  -->
<svg version="1.1" id="Capa_1" xmlns="http://www.w3.org/2000/svg" xmlns:xlink="http://www.w3.org/1999/xlink" x="0px" y="0px"
	 viewBox="0 0 360.2 149.8" style="enable-background:new 0 0 360.2 149.8;" xml:space="preserve">
<style type="text/css">
	.st0{fill:#D5F4FC;}
	.st1{fill:#00223D;}
	.st2{font-family:'CerebriSans-Bold';}
	.st3{font-size:18px;}
	.st4{fill:#FF9100;}
	.st5{fill:#002B45;}
	.st6{font-size:28px;}
</style>
<g id="Grupo_14516" transform="translate(-520 -2665)">
	<rect id="Rectángulo_3479" x="520" y="2665" class="st0" width="360.2" height="149.8"/>
	<text transform="matrix(1 0 0 1 724.307 2707)" class="st1 st2 st3">Minuendo</text>
	<text transform="matrix(1 0 0 1 724.307 2744.6179)" class="st1 st2 st3">Sustraendo</text>
	<text transform="matrix(1 0 0 1 724.307 2782.6179)" class="st1 st2 st3">Diferencia</text>
	<g id="Grupo_14495" transform="translate(-5)">
		<rect id="Rectángulo_3475" x="660.8" y="2699.9" class="st4" width="31" height="1.8"/>
		<g id="Grupo_14117" transform="translate(-755.892 2486.51)">
			<path id="Trazado_23503" class="st4" d="M1441.8,221.5l-1.2-1.3l6.4-5.9l-6.4-5.9l1.2-1.3l7.8,7.2L1441.8,221.5z"/>
		</g>
		<rect id="Rectángulo_3476" x="660.8" y="2737.5" class="st4" width="31" height="1.8"/>
		<g id="Grupo_14120" transform="translate(-755.892 2476.51)">
			<path id="Trazado_23504" class="st4" d="M1441.8,269.1l-1.2-1.3l6.4-5.9l-6.4-5.9l1.2-1.3l7.8,7.2L1441.8,269.1z"/>
		</g>
		<rect id="Rectángulo_3476-2" x="660.8" y="2775.5" class="st4" width="31" height="1.8"/>
		<g id="Grupo_14120-2" transform="translate(-755.892 2514.51)">
			<path id="Trazado_23504-2" class="st4" d="M1441.8,269.1l-1.2-1.3l6.4-5.9l-6.4-5.9l1.2-1.3l7.8,7.2L1441.8,269.1z"/>
		</g>
	</g>
	<text transform="matrix(1 0 0 1 601.646 2707)" class="st5 st2 st6">a</text>
	<text transform="matrix(1 0 0 1 585.9413 2744.8291)" class="st5 st2 st6">-b</text>
	<text transform="matrix(1 0 0 1 600.936 2785)" class="st5 st2 st6">c</text>
	<rect id="Rectángulo_3477" x="574" y="2756.2" width="54.3" height="2.3"/>
</g>
</svg>
