<svg xmlns="http://www.w3.org/2000/svg" width="608.211" height="177.848" viewBox="0 0 608.211 177.848">
  <g id="Grupo_14533" data-name="Grupo 14533" transform="translate(-2397 -2006)">
    <path id="Trazado_24044" data-name="Trazado 24044" d="M0,0H608.211V177.848H0Z" transform="translate(2397 2006)" fill="#d5f4fc"/>
    <path id="Trazado_24052" data-name="Trazado 24052" d="M2.191,0V-16.934H8.32a9.555,9.555,0,0,1,3.533.609A6.508,6.508,0,0,1,14.385-14.6a7.52,7.52,0,0,1,1.5,2.666,11.007,11.007,0,0,1,.51,3.457A11.048,11.048,0,0,1,15.885-5a7.52,7.52,0,0,1-1.5,2.666A6.508,6.508,0,0,1,11.854-.609,9.555,9.555,0,0,1,8.32,0ZM5.707-3.105H8.145a4.16,4.16,0,0,0,3.422-1.377,6.172,6.172,0,0,0,1.125-3.99,6.172,6.172,0,0,0-1.125-3.99A4.16,4.16,0,0,0,8.145-13.84H5.707ZM20.965-13.852a1.9,1.9,0,0,1-1.383-.568,1.866,1.866,0,0,1-.574-1.377,1.843,1.843,0,0,1,.58-1.365,1.9,1.9,0,0,1,1.377-.568,1.868,1.868,0,0,1,1.359.568A1.852,1.852,0,0,1,22.9-15.8a1.866,1.866,0,0,1-.574,1.377A1.868,1.868,0,0,1,20.965-13.852ZM19.242,0V-12.047h3.4V0Zm14.73-12.047h3.574L32.414,0h-2.93L24.41-12.047h3.551l3,8.238Zm7.066-1.8a1.9,1.9,0,0,1-1.383-.568,1.866,1.866,0,0,1-.574-1.377,1.843,1.843,0,0,1,.58-1.365,1.9,1.9,0,0,1,1.377-.568,1.868,1.868,0,0,1,1.359.568,1.852,1.852,0,0,1,.574,1.365A1.866,1.866,0,0,1,42.4-14.42,1.868,1.868,0,0,1,41.039-13.852ZM39.316,0V-12.047h3.4V0ZM50.449.234a6.732,6.732,0,0,1-3.516-.844,3.566,3.566,0,0,1-1.723-2.508l2.824-.8a2.269,2.269,0,0,0,2.414,1.793A2.493,2.493,0,0,0,51.68-2.4a.959.959,0,0,0,.48-.932.985.985,0,0,0-.2-.621,1.578,1.578,0,0,0-.615-.445,7.665,7.665,0,0,0-.82-.316q-.4-.129-1.072-.311T48.34-5.367a7.458,7.458,0,0,1-1.061-.451,4.524,4.524,0,0,1-.879-.621,2.5,2.5,0,0,1-.656-.943,3.4,3.4,0,0,1-.229-1.289,3.078,3.078,0,0,1,1.307-2.7,5.838,5.838,0,0,1,3.416-.914,5.986,5.986,0,0,1,3.152.773,3.5,3.5,0,0,1,1.617,2.414l-2.613.586a2.047,2.047,0,0,0-2.145-1.523,2.348,2.348,0,0,0-1.184.27.866.866,0,0,0-.469.8.913.913,0,0,0,.07.363.719.719,0,0,0,.246.293,3.589,3.589,0,0,0,.34.223,2.564,2.564,0,0,0,.48.193q.316.1.527.152t.615.158l.627.164q.645.176,1.131.352a6.623,6.623,0,0,1,1.037.492,3.722,3.722,0,0,1,.908.709,3.162,3.162,0,0,1,.592,1,3.679,3.679,0,0,1,.234,1.342A3.624,3.624,0,0,1,55-1.781,3.035,3.035,0,0,1,53.895-.6,5.39,5.39,0,0,1,52.33.029,8.116,8.116,0,0,1,50.449.234Zm13,0A7.575,7.575,0,0,1,60.035-.5,5.518,5.518,0,0,1,57.7-2.672a6.461,6.461,0,0,1-.85-3.363,5.893,5.893,0,0,1,1.828-4.57,6.782,6.782,0,0,1,4.77-1.676,6.8,6.8,0,0,1,4.781,1.676,5.893,5.893,0,0,1,1.828,4.57,5.926,5.926,0,0,1-1.828,4.588A6.784,6.784,0,0,1,63.445.234ZM63.41-2.449a3.092,3.092,0,0,0,2.385-.984,3.685,3.685,0,0,0,.908-2.6,3.685,3.685,0,0,0-.908-2.6,3.092,3.092,0,0,0-2.385-.984,2.979,2.979,0,0,0-2.314.99,3.719,3.719,0,0,0-.9,2.6,3.719,3.719,0,0,0,.9,2.6A2.979,2.979,0,0,0,63.41-2.449ZM75.8-10.137a3.911,3.911,0,0,1,1.582-1.447,4.827,4.827,0,0,1,2.355-.6v3.012a4.564,4.564,0,0,0-2.883.727,3.172,3.172,0,0,0-.891,2.578V0h-3.4V-12.047H75.8Z" transform="translate(2831.307 2069)" fill="#002b45"/>
    <path id="Trazado_24045" data-name="Trazado 24045" d="M-116.59,0V-16.934h6.129a9.555,9.555,0,0,1,3.533.609A6.508,6.508,0,0,1-104.4-14.6a7.52,7.52,0,0,1,1.5,2.666,11.007,11.007,0,0,1,.51,3.457A11.048,11.048,0,0,1-102.9-5a7.52,7.52,0,0,1-1.5,2.666,6.508,6.508,0,0,1-2.531,1.729A9.555,9.555,0,0,1-110.461,0Zm3.516-3.105h2.438a4.16,4.16,0,0,0,3.422-1.377,6.172,6.172,0,0,0,1.125-3.99,6.172,6.172,0,0,0-1.125-3.99,4.16,4.16,0,0,0-3.422-1.377h-2.437Zm15.258-10.746A1.9,1.9,0,0,1-99.2-14.42a1.866,1.866,0,0,1-.574-1.377,1.843,1.843,0,0,1,.58-1.365,1.9,1.9,0,0,1,1.377-.568,1.868,1.868,0,0,1,1.359.568,1.852,1.852,0,0,1,.574,1.365,1.866,1.866,0,0,1-.574,1.377A1.868,1.868,0,0,1-97.816-13.852ZM-99.539,0V-12.047h3.4V0Zm14.73-12.047h3.574L-86.367,0H-89.3l-5.074-12.047h3.551l3,8.238Zm7.066-1.8a1.9,1.9,0,0,1-1.383-.568A1.866,1.866,0,0,1-79.7-15.8a1.843,1.843,0,0,1,.58-1.365,1.9,1.9,0,0,1,1.377-.568,1.868,1.868,0,0,1,1.359.568,1.852,1.852,0,0,1,.574,1.365,1.866,1.866,0,0,1-.574,1.377A1.868,1.868,0,0,1-77.742-13.852ZM-79.465,0V-12.047h3.4V0Zm15.434-18h3.375V0h-3.2l-.082-1.57A3.44,3.44,0,0,1-65.467-.205a5.148,5.148,0,0,1-2.256.486,5.859,5.859,0,0,1-2.25-.434,5.585,5.585,0,0,1-1.846-1.225,5.582,5.582,0,0,1-1.248-1.986A7.327,7.327,0,0,1-73.523-6a6.849,6.849,0,0,1,.8-3.357,5.46,5.46,0,0,1,2.1-2.186,5.793,5.793,0,0,1,2.9-.738,5.276,5.276,0,0,1,2.186.439,3.412,3.412,0,0,1,1.506,1.248ZM-66.949-2.52A3,3,0,0,0-64.67-3.48,3.518,3.518,0,0,0-63.762-6a3.526,3.526,0,0,0-.914-2.525,3,3,0,0,0-2.273-.967,3.036,3.036,0,0,0-2.291.949A3.525,3.525,0,0,0-70.148-6a3.509,3.509,0,0,0,.908,2.531A3.036,3.036,0,0,0-66.949-2.52ZM-45.832-6.2l-.035.809H-54.8a3.119,3.119,0,0,0,.961,2.2,3.073,3.073,0,0,0,2.121.762,2.962,2.962,0,0,0,1.588-.416,2.557,2.557,0,0,0,1.014-1.213l3.094.457A5.259,5.259,0,0,1-48.129-.773,6.272,6.272,0,0,1-51.691.234a6.522,6.522,0,0,1-4.693-1.658,6.05,6.05,0,0,1-1.74-4.6,6.086,6.086,0,0,1,1.746-4.6A6.328,6.328,0,0,1-51.8-12.3a6.047,6.047,0,0,1,4.324,1.535A6.022,6.022,0,0,1-45.832-6.2Zm-5.941-3.715a2.667,2.667,0,0,0-2.93,2.32h5.531A2.537,2.537,0,0,0-50-9.316,2.637,2.637,0,0,0-51.773-9.914Zm15.621-2.367A4.7,4.7,0,0,1-32.824-11.2a4.019,4.019,0,0,1,1.16,3.088V0h-3.387V-7.383a2.1,2.1,0,0,0-.6-1.664,2.274,2.274,0,0,0-1.553-.527,3.172,3.172,0,0,0-1.008.152,2.589,2.589,0,0,0-.844.475,2.1,2.1,0,0,0-.6.908,4.2,4.2,0,0,0-.229,1.395V0h-3.375V-12.047h3.375v1.336A4.642,4.642,0,0,1-36.152-12.281ZM-19.852-18h3.375V0h-3.2l-.082-1.57A3.44,3.44,0,0,1-21.287-.205a5.148,5.148,0,0,1-2.256.486,5.859,5.859,0,0,1-2.25-.434,5.585,5.585,0,0,1-1.846-1.225,5.582,5.582,0,0,1-1.248-1.986A7.327,7.327,0,0,1-29.344-6a6.849,6.849,0,0,1,.8-3.357,5.46,5.46,0,0,1,2.1-2.186,5.793,5.793,0,0,1,2.9-.738,5.276,5.276,0,0,1,2.186.439,3.412,3.412,0,0,1,1.506,1.248ZM-22.77-2.52A3,3,0,0,0-20.49-3.48,3.518,3.518,0,0,0-19.582-6,3.526,3.526,0,0,0-20.5-8.525a3,3,0,0,0-2.273-.967,3.036,3.036,0,0,0-2.291.949A3.525,3.525,0,0,0-25.969-6a3.509,3.509,0,0,0,.908,2.531A3.036,3.036,0,0,0-22.77-2.52ZM-7.371.234A7.575,7.575,0,0,1-10.781-.5a5.518,5.518,0,0,1-2.338-2.168,6.461,6.461,0,0,1-.85-3.363,5.893,5.893,0,0,1,1.828-4.57,6.782,6.782,0,0,1,4.77-1.676A6.8,6.8,0,0,1-2.59-10.605,5.893,5.893,0,0,1-.762-6.035,5.926,5.926,0,0,1-2.59-1.447,6.784,6.784,0,0,1-7.371.234Zm-.035-2.684a3.092,3.092,0,0,0,2.385-.984,3.685,3.685,0,0,0,.908-2.6,3.685,3.685,0,0,0-.908-2.6,3.092,3.092,0,0,0-2.385-.984,2.979,2.979,0,0,0-2.314.99,3.719,3.719,0,0,0-.9,2.6,3.719,3.719,0,0,0,.9,2.6A2.979,2.979,0,0,0-7.406-2.449Z" transform="translate(2572.307 2069)" fill="#002b45"/>
    <path id="Trazado_24046" data-name="Trazado 24046" d="M-81.234,0l-4.406-7.453h-1.02V0h-3.516V-16.934h6.141a7.1,7.1,0,0,1,2.461.393,4.255,4.255,0,0,1,1.705,1.09,4.667,4.667,0,0,1,.961,1.6,5.851,5.851,0,0,1,.322,1.98,4.135,4.135,0,0,1-.926,2.783,4.665,4.665,0,0,1-2.66,1.459L-77.074,0ZM-86.66-14.016v4.043h2.074q2.637,0,2.637-2.016a1.835,1.835,0,0,0-.645-1.488,3.065,3.065,0,0,0-1.992-.539ZM-64.324-6.2l-.035.809h-8.93a3.119,3.119,0,0,0,.961,2.2,3.073,3.073,0,0,0,2.121.762,2.962,2.962,0,0,0,1.588-.416,2.557,2.557,0,0,0,1.014-1.213l3.094.457A5.259,5.259,0,0,1-66.621-.773,6.272,6.272,0,0,1-70.184.234a6.522,6.522,0,0,1-4.693-1.658,6.05,6.05,0,0,1-1.74-4.6,6.086,6.086,0,0,1,1.746-4.6A6.328,6.328,0,0,1-70.289-12.3a6.047,6.047,0,0,1,4.324,1.535A6.022,6.022,0,0,1-64.324-6.2Zm-5.941-3.715a2.667,2.667,0,0,0-2.93,2.32h5.531A2.537,2.537,0,0,0-68.5-9.316,2.637,2.637,0,0,0-70.266-9.914ZM-57.516.234a6.732,6.732,0,0,1-3.516-.844,3.566,3.566,0,0,1-1.723-2.508l2.824-.8a2.269,2.269,0,0,0,2.414,1.793,2.493,2.493,0,0,0,1.23-.275.959.959,0,0,0,.48-.932.985.985,0,0,0-.2-.621,1.578,1.578,0,0,0-.615-.445,7.665,7.665,0,0,0-.82-.316q-.4-.129-1.072-.311t-1.113-.346a7.458,7.458,0,0,1-1.061-.451,4.524,4.524,0,0,1-.879-.621,2.5,2.5,0,0,1-.656-.943,3.4,3.4,0,0,1-.229-1.289,3.078,3.078,0,0,1,1.307-2.7,5.838,5.838,0,0,1,3.416-.914,5.986,5.986,0,0,1,3.152.773,3.5,3.5,0,0,1,1.617,2.414l-2.613.586a2.047,2.047,0,0,0-2.145-1.523,2.348,2.348,0,0,0-1.184.27.866.866,0,0,0-.469.8.913.913,0,0,0,.07.363.719.719,0,0,0,.246.293,3.589,3.589,0,0,0,.34.223,2.564,2.564,0,0,0,.48.193q.316.1.527.152t.615.158l.627.164q.645.176,1.131.352a6.623,6.623,0,0,1,1.037.492,3.722,3.722,0,0,1,.908.709,3.162,3.162,0,0,1,.592,1,3.679,3.679,0,0,1,.234,1.342,3.624,3.624,0,0,1-.4,1.746A3.035,3.035,0,0,1-54.07-.6a5.39,5.39,0,0,1-1.564.633A8.116,8.116,0,0,1-57.516.234Zm9.105-14.086a1.9,1.9,0,0,1-1.383-.568,1.866,1.866,0,0,1-.574-1.377,1.843,1.843,0,0,1,.58-1.365,1.9,1.9,0,0,1,1.377-.568,1.868,1.868,0,0,1,1.359.568,1.852,1.852,0,0,1,.574,1.365,1.866,1.866,0,0,1-.574,1.377A1.868,1.868,0,0,1-48.41-13.852ZM-50.133,0V-12.047h3.4V0ZM-34.7-18h3.375V0h-3.2l-.082-1.57A3.44,3.44,0,0,1-36.135-.205a5.148,5.148,0,0,1-2.256.486,5.859,5.859,0,0,1-2.25-.434,5.585,5.585,0,0,1-1.846-1.225,5.582,5.582,0,0,1-1.248-1.986A7.327,7.327,0,0,1-44.191-6a6.849,6.849,0,0,1,.8-3.357,5.46,5.46,0,0,1,2.1-2.186,5.793,5.793,0,0,1,2.9-.738,5.276,5.276,0,0,1,2.186.439A3.412,3.412,0,0,1-34.7-10.594ZM-37.617-2.52a3,3,0,0,0,2.279-.961A3.518,3.518,0,0,0-34.43-6a3.526,3.526,0,0,0-.914-2.525,3,3,0,0,0-2.273-.967,3.036,3.036,0,0,0-2.291.949A3.525,3.525,0,0,0-40.816-6a3.509,3.509,0,0,0,.908,2.531A3.036,3.036,0,0,0-37.617-2.52Zm17.766-9.527h3.375V0h-3.2l-.082-1.453A4.6,4.6,0,0,1-23.59.234,4.7,4.7,0,0,1-26.918-.85a4.019,4.019,0,0,1-1.16-3.088v-8.109h3.387v7.383a2.082,2.082,0,0,0,.6,1.652,2.291,2.291,0,0,0,1.564.527,2.717,2.717,0,0,0,1.916-.686A2.945,2.945,0,0,0-19.852-5.4ZM-7.371.234A7.575,7.575,0,0,1-10.781-.5a5.518,5.518,0,0,1-2.338-2.168,6.461,6.461,0,0,1-.85-3.363,5.893,5.893,0,0,1,1.828-4.57,6.782,6.782,0,0,1,4.77-1.676A6.8,6.8,0,0,1-2.59-10.605,5.893,5.893,0,0,1-.762-6.035,5.926,5.926,0,0,1-2.59-1.447,6.784,6.784,0,0,1-7.371.234Zm-.035-2.684a3.092,3.092,0,0,0,2.385-.984,3.685,3.685,0,0,0,.908-2.6,3.685,3.685,0,0,0-.908-2.6,3.092,3.092,0,0,0-2.385-.984,2.979,2.979,0,0,0-2.314.99,3.719,3.719,0,0,0-.9,2.6,3.719,3.719,0,0,0,.9,2.6A2.979,2.979,0,0,0-7.406-2.449Z" transform="translate(2572.307 2135)" fill="#002b45"/>
    <path id="Trazado_24056" data-name="Trazado 24056" d="M0,0H30.98V1.766H0Z" transform="translate(2774.774 2058.899)" fill="#ff9100"/>
    <path id="Trazado_23503" data-name="Trazado 23503" d="M1441.8,221.492l-1.2-1.293,6.377-5.926-6.377-5.928,1.2-1.293,7.765,7.221Z" transform="translate(1358.108 1845.51)" fill="#ff9100"/>
    <path id="Trazado_24054" data-name="Trazado 24054" d="M0,0H30.98V1.766H0Z" transform="translate(2586.688 2058.899)" fill="#ff9100"/>
    <path id="Trazado_23503-2" data-name="Trazado 23503" d="M1448.356,221.492l1.2-1.293-6.377-5.926,6.377-5.928-1.2-1.293-7.765,7.221Z" transform="translate(1144.183 1845.51)" fill="#ff9100"/>
    <path id="Trazado_24053" data-name="Trazado 24053" d="M9.691.234A9.452,9.452,0,0,1,6.24-.387,8.116,8.116,0,0,1,3.492-2.121a7.818,7.818,0,0,1-1.8-2.754,9.6,9.6,0,0,1-.656-3.6,9.172,9.172,0,0,1,1.125-4.6,7.659,7.659,0,0,1,3.088-3.041,9.246,9.246,0,0,1,4.447-1.055A8.986,8.986,0,0,1,14.66-15.8,7.506,7.506,0,0,1,17.7-12.023l-3.281,1.2A4.639,4.639,0,0,0,12.6-13.113a5.188,5.188,0,0,0-2.906-.82,4.974,4.974,0,0,0-3.7,1.477A5.433,5.433,0,0,0,4.535-8.473a5.441,5.441,0,0,0,1.459,3.99A4.968,4.968,0,0,0,9.691-3a5.169,5.169,0,0,0,2.9-.826,4.66,4.66,0,0,0,1.822-2.291l3.281,1.2A7.536,7.536,0,0,1,14.66-1.143,8.957,8.957,0,0,1,9.691.234Zm16.055,0A7.575,7.575,0,0,1,22.336-.5,5.518,5.518,0,0,1,20-2.672a6.461,6.461,0,0,1-.85-3.363,5.893,5.893,0,0,1,1.828-4.57,6.782,6.782,0,0,1,4.77-1.676,6.8,6.8,0,0,1,4.781,1.676,5.893,5.893,0,0,1,1.828,4.57,5.926,5.926,0,0,1-1.828,4.588A6.784,6.784,0,0,1,25.746.234Zm-.035-2.684A3.092,3.092,0,0,0,28.1-3.434,3.685,3.685,0,0,0,29-6.035a3.685,3.685,0,0,0-.908-2.6,3.092,3.092,0,0,0-2.385-.984,2.979,2.979,0,0,0-2.314.99,3.719,3.719,0,0,0-.9,2.6,3.719,3.719,0,0,0,.9,2.6A2.979,2.979,0,0,0,25.711-2.449ZM40.313.223A6.436,6.436,0,0,1,35.66-1.512a5.99,5.99,0,0,1-1.8-4.523,5.977,5.977,0,0,1,1.8-4.523,6.456,6.456,0,0,1,4.658-1.723,6.419,6.419,0,0,1,3.9,1.16,5.18,5.18,0,0,1,2.016,3.27l-3.117.34a2.671,2.671,0,0,0-1.008-1.582,3.064,3.064,0,0,0-1.828-.527,2.763,2.763,0,0,0-2.2.984,3.859,3.859,0,0,0-.844,2.6,3.864,3.864,0,0,0,.844,2.6,2.756,2.756,0,0,0,2.2.99A3.038,3.038,0,0,0,42.1-2.977a2.733,2.733,0,0,0,1.014-1.582l3.117.34A5.194,5.194,0,0,1,44.2-.949,6.393,6.393,0,0,1,40.313.223ZM50.355-13.852a1.9,1.9,0,0,1-1.383-.568A1.866,1.866,0,0,1,48.4-15.8a1.843,1.843,0,0,1,.58-1.365,1.9,1.9,0,0,1,1.377-.568,1.868,1.868,0,0,1,1.359.568,1.852,1.852,0,0,1,.574,1.365,1.866,1.866,0,0,1-.574,1.377A1.868,1.868,0,0,1,50.355-13.852ZM48.633,0V-12.047h3.4V0ZM66.855-6.2l-.035.809h-8.93a3.119,3.119,0,0,0,.961,2.2,3.073,3.073,0,0,0,2.121.762,2.962,2.962,0,0,0,1.588-.416,2.557,2.557,0,0,0,1.014-1.213l3.094.457A5.259,5.259,0,0,1,64.559-.773,6.272,6.272,0,0,1,61,.234,6.522,6.522,0,0,1,56.3-1.424a6.05,6.05,0,0,1-1.74-4.6,6.086,6.086,0,0,1,1.746-4.6A6.328,6.328,0,0,1,60.891-12.3a6.047,6.047,0,0,1,4.324,1.535A6.022,6.022,0,0,1,66.855-6.2ZM60.914-9.914a2.667,2.667,0,0,0-2.93,2.32h5.531a2.537,2.537,0,0,0-.832-1.723A2.637,2.637,0,0,0,60.914-9.914Zm15.621-2.367A4.7,4.7,0,0,1,79.863-11.2a4.019,4.019,0,0,1,1.16,3.088V0H77.637V-7.383a2.1,2.1,0,0,0-.6-1.664,2.274,2.274,0,0,0-1.553-.527,3.172,3.172,0,0,0-1.008.152,2.589,2.589,0,0,0-.844.475,2.1,2.1,0,0,0-.6.908A4.2,4.2,0,0,0,72.8-6.645V0H69.422V-12.047H72.8v1.336A4.642,4.642,0,0,1,76.535-12.281ZM88.781,0a3.638,3.638,0,0,1-2.719-.979A3.806,3.806,0,0,1,85.1-3.762v-5.7H82.734v-2.59H83.5a1.988,1.988,0,0,0,1.5-.5,2.6,2.6,0,0,0,.48-1.793v-1.594h3.047v3.891h2.484v2.59H88.523v5.332q0,1.559,1.395,1.559h1.09V0Zm16.125-6.2-.035.809h-8.93a3.119,3.119,0,0,0,.961,2.2,3.073,3.073,0,0,0,2.121.762,2.962,2.962,0,0,0,1.588-.416,2.557,2.557,0,0,0,1.014-1.213l3.094.457a5.259,5.259,0,0,1-2.109,2.824A6.272,6.272,0,0,1,99.047.234a6.522,6.522,0,0,1-4.693-1.658,6.05,6.05,0,0,1-1.74-4.6,6.086,6.086,0,0,1,1.746-4.6A6.328,6.328,0,0,1,98.941-12.3a6.047,6.047,0,0,1,4.324,1.535A6.022,6.022,0,0,1,104.906-6.2ZM98.965-9.914a2.667,2.667,0,0,0-2.93,2.32h5.531a2.537,2.537,0,0,0-.832-1.723A2.637,2.637,0,0,0,98.965-9.914Z" transform="translate(2831.307 2138.618)" fill="#002b45"/>
    <path id="Trazado_24057" data-name="Trazado 24057" d="M0,0H30.98V1.766H0Z" transform="translate(2774.774 2128.517)" fill="#ff9100"/>
    <path id="Trazado_23504" data-name="Trazado 23504" d="M1441.8,269.11l-1.2-1.293,6.377-5.926-6.377-5.928,1.2-1.293,7.765,7.221Z" transform="translate(1358.108 1867.51)" fill="#ff9100"/>
    <path id="Trazado_24055" data-name="Trazado 24055" d="M0,0H30.98V1.766H0Z" transform="translate(2586.688 2128.517)" fill="#ff9100"/>
    <path id="Trazado_23504-2" data-name="Trazado 23504" d="M1448.356,269.11l1.2-1.293-6.377-5.926,6.377-5.928-1.2-1.293-7.765,7.221Z" transform="translate(1144.183 1867.51)" fill="#ff9100"/>
    <path id="Trazado_24047" data-name="Trazado 24047" d="M0,0H54.275V2.261H0Z" transform="translate(2637 2110.173)" fill="blue"/>
    <path id="Trazado_24048" data-name="Trazado 24048" d="M-29.248-5.725a5.8,5.8,0,0,1-.781,3.088,5.52,5.52,0,0,1-2.161,2.1A6.163,6.163,0,0,1-35.168.2a6,6,0,0,1-4.272-1.617,5.464,5.464,0,0,1-1.721-4.169,6.768,6.768,0,0,1,1.489-4.126l5.75-7.471h2.49l-4.773,6.018a5.352,5.352,0,0,1,1.489-.208,5.463,5.463,0,0,1,2.637.659,5.28,5.28,0,0,1,2.014,1.971A5.891,5.891,0,0,1-29.248-5.725ZM-35.217-1.77a3.85,3.85,0,0,0,2.826-1.093,3.818,3.818,0,0,0,1.08-2.9,3.91,3.91,0,0,0-1.135-2.9,3.887,3.887,0,0,0-2.808-1.068,3.694,3.694,0,0,0-2.808,1.178,3.947,3.947,0,0,0-1.086,2.875,3.8,3.8,0,0,0,1.1,2.869A3.936,3.936,0,0,0-35.217-1.77Zm14.233-15.417h1.978V0h-2.087V-14.88L-25.22-11.3v-2.258ZM-7.153.232q-5.725,0-5.725-6.116l2.148-.11a5.367,5.367,0,0,0,.806,3.235A3.248,3.248,0,0,0-7.153-1.685a3.809,3.809,0,0,0,2.667-.928A3.13,3.13,0,0,0-3.467-5.042a3.1,3.1,0,0,0-.983-2.417,3.524,3.524,0,0,0-2.46-.891h-.854v-1.794h.83a2.543,2.543,0,0,0,1.88-.793,2.676,2.676,0,0,0,.781-1.953,2.407,2.407,0,0,0-.83-1.892,3.039,3.039,0,0,0-2.087-.732,3.323,3.323,0,0,0-1.373.256,1.928,1.928,0,0,0-.873.751,3.539,3.539,0,0,0-.439,1.093,6.4,6.4,0,0,0-.134,1.392l-2.148-.073A5.565,5.565,0,0,1-10.87-16.04,4.773,4.773,0,0,1-7.2-17.419,5.1,5.1,0,0,1-3.68-16.162a4.018,4.018,0,0,1,1.41,3.125A3.764,3.764,0,0,1-2.954-10.8,3.905,3.905,0,0,1-4.675-9.412,4.752,4.752,0,0,1-2.258-7.837a4.415,4.415,0,0,1,.94,2.893A4.728,4.728,0,0,1-2.96-1.2,6.158,6.158,0,0,1-7.153.232ZM-53.076,31.373V29.627h8.752v1.746Zm17.493-5.432A6.66,6.66,0,0,1-30.9,27.387a5.247,5.247,0,0,1,1.55,4.034A5.7,5.7,0,0,1-30.939,35.6a5.591,5.591,0,0,1-4.169,1.617,6.624,6.624,0,0,1-2.155-.348,5.819,5.819,0,0,1-1.819-1,4.579,4.579,0,0,1-1.27-1.691,5.559,5.559,0,0,1-.47-2.319,7.841,7.841,0,0,1,.061-.879L-38.6,30.8a8.591,8.591,0,0,0-.1.964,3.88,3.88,0,0,0,.311,1.6,2.733,2.733,0,0,0,.836,1.093,3.8,3.8,0,0,0,1.129.592,4.122,4.122,0,0,0,1.276.2,3.526,3.526,0,0,0,2.667-1.05,3.737,3.737,0,0,0,1.007-2.7,3.554,3.554,0,0,0-1.044-2.71,4.677,4.677,0,0,0-3.3-.989h-4.346l1.062-7.959h9.009V21.8h-7.227l-.562,4.138Zm20.41,5.334a5.8,5.8,0,0,1-.781,3.088,5.52,5.52,0,0,1-2.161,2.1,6.163,6.163,0,0,1-2.979.732,6,6,0,0,1-4.272-1.617,5.464,5.464,0,0,1-1.721-4.169A6.768,6.768,0,0,1-25.6,27.283l5.75-7.471h2.49l-4.773,6.018a5.352,5.352,0,0,1,1.489-.208,5.463,5.463,0,0,1,2.637.659,5.28,5.28,0,0,1,2.014,1.971A5.891,5.891,0,0,1-15.173,31.275Zm-5.969,3.955a3.85,3.85,0,0,0,2.826-1.093,3.818,3.818,0,0,0,1.08-2.9,3.91,3.91,0,0,0-1.135-2.9,3.887,3.887,0,0,0-2.808-1.068,3.694,3.694,0,0,0-2.808,1.178,3.947,3.947,0,0,0-1.086,2.875,3.8,3.8,0,0,0,1.1,2.869A3.936,3.936,0,0,0-21.143,35.23Zm14.111,2a4.788,4.788,0,0,1-4.236-2.246q-1.489-2.246-1.489-6.592t1.471-6.58a4.784,4.784,0,0,1,4.254-2.234A4.773,4.773,0,0,1-2.8,21.821q1.477,2.24,1.477,6.573t-1.5,6.586A4.777,4.777,0,0,1-7.031,37.232Zm0-1.953a2.907,2.907,0,0,0,2.673-1.721,11.222,11.222,0,0,0,.928-5.164,10.9,10.9,0,0,0-.946-5.157,2.924,2.924,0,0,0-2.655-1.691A2.921,2.921,0,0,0-9.692,23.23a10.96,10.96,0,0,0-.94,5.164,11.28,11.28,0,0,0,.922,5.17A2.9,2.9,0,0,0-7.031,35.279ZM-21.509,62.94a6.66,6.66,0,0,1,4.688,1.447,5.247,5.247,0,0,1,1.55,4.034A5.7,5.7,0,0,1-16.864,72.6a5.591,5.591,0,0,1-4.169,1.617,6.624,6.624,0,0,1-2.155-.348,5.819,5.819,0,0,1-1.819-1,4.579,4.579,0,0,1-1.27-1.691,5.559,5.559,0,0,1-.47-2.319,7.841,7.841,0,0,1,.061-.879l2.161-.183a8.591,8.591,0,0,0-.1.964,3.88,3.88,0,0,0,.311,1.6,2.733,2.733,0,0,0,.836,1.093,3.8,3.8,0,0,0,1.129.592,4.122,4.122,0,0,0,1.276.2,3.526,3.526,0,0,0,2.667-1.05,3.737,3.737,0,0,0,1.007-2.7,3.554,3.554,0,0,0-1.044-2.71,4.677,4.677,0,0,0-3.3-.989h-4.346l1.062-7.959h9.009V58.8h-7.227L-23.8,62.94ZM-7.153,74.232q-5.725,0-5.725-6.116l2.148-.11a5.367,5.367,0,0,0,.806,3.235,3.248,3.248,0,0,0,2.771,1.074,3.809,3.809,0,0,0,2.667-.928,3.13,3.13,0,0,0,1.019-2.429,3.1,3.1,0,0,0-.983-2.417,3.524,3.524,0,0,0-2.46-.891h-.854V63.856h.83a2.543,2.543,0,0,0,1.88-.793,2.676,2.676,0,0,0,.781-1.953,2.407,2.407,0,0,0-.83-1.892,3.039,3.039,0,0,0-2.087-.732,3.323,3.323,0,0,0-1.373.256,1.928,1.928,0,0,0-.873.751,3.539,3.539,0,0,0-.439,1.093,6.4,6.4,0,0,0-.134,1.392l-2.148-.073A5.565,5.565,0,0,1-10.87,57.96,4.773,4.773,0,0,1-7.2,56.581,5.1,5.1,0,0,1-3.68,57.838a4.018,4.018,0,0,1,1.41,3.125A3.764,3.764,0,0,1-2.954,63.2a3.905,3.905,0,0,1-1.721,1.392,4.752,4.752,0,0,1,2.417,1.575,4.415,4.415,0,0,1,.94,2.893A4.728,4.728,0,0,1-2.96,72.8,6.158,6.158,0,0,1-7.153,74.232Z" transform="translate(2676 2065.648)" fill="#00223d"/>
    <path id="Trazado_24049" data-name="Trazado 24049" d="M-2.856-1.184A6.19,6.19,0,0,1-7.019.232,6.2,6.2,0,0,1-11.188-1.19a4.679,4.679,0,0,1-1.666-3.741,4.624,4.624,0,0,1,.867-2.808A4.968,4.968,0,0,1-9.631-9.473a4.245,4.245,0,0,1-1.691-1.471,3.742,3.742,0,0,1-.629-2.118,3.973,3.973,0,0,1,1.4-3.131,5.167,5.167,0,0,1,3.528-1.227,5.077,5.077,0,0,1,3.485,1.233,3.986,3.986,0,0,1,1.4,3.125,3.823,3.823,0,0,1-.61,2.118,4.13,4.13,0,0,1-1.66,1.471,5.065,5.065,0,0,1,2.344,1.74,4.6,4.6,0,0,1,.867,2.8A4.682,4.682,0,0,1-2.856-1.184Zm-4.163-8.984a2.908,2.908,0,0,0,2.081-.806,2.621,2.621,0,0,0,.848-1.978,2.537,2.537,0,0,0-.848-1.935,2.946,2.946,0,0,0-2.081-.787,2.969,2.969,0,0,0-2.1.781,2.54,2.54,0,0,0-.842,1.941,2.621,2.621,0,0,0,.848,1.978A2.924,2.924,0,0,0-7.019-10.168Zm0,8.447a3.828,3.828,0,0,0,2.643-.94A3.171,3.171,0,0,0-3.32-5.151,3.106,3.106,0,0,0-4.376-7.6a3.859,3.859,0,0,0-2.643-.928A3.9,3.9,0,0,0-9.68-7.6a3.1,3.1,0,0,0-1.062,2.454A3.163,3.163,0,0,0-9.68-2.661,3.868,3.868,0,0,0-7.019-1.721ZM7.043.232A4.788,4.788,0,0,1,2.808-2.014Q1.318-4.26,1.318-8.606t1.471-6.58a4.784,4.784,0,0,1,4.254-2.234,4.773,4.773,0,0,1,4.236,2.24q1.477,2.24,1.477,6.573t-1.5,6.586A4.777,4.777,0,0,1,7.043.232Zm0-1.953A2.907,2.907,0,0,0,9.717-3.442a11.222,11.222,0,0,0,.928-5.164A10.9,10.9,0,0,0,9.7-13.763a2.924,2.924,0,0,0-2.655-1.691A2.921,2.921,0,0,0,4.382-13.77a10.96,10.96,0,0,0-.94,5.164,11.28,11.28,0,0,0,.922,5.17A2.9,2.9,0,0,0,7.043-1.721ZM-5.841,60.813H5.914v1.77L-2.484,78H-4.9L3.571,62.766H-5.841Z" transform="translate(2734.977 2064.648)" fill="#00223d"/>
    <path id="Trazado_24050" data-name="Trazado 24050" d="M0,0V120.345" transform="translate(2698.361 2035)" fill="none" stroke="#000" stroke-width="3.666"/>
    <path id="Trazado_24051" data-name="Trazado 24051" d="M67.744,0H0" transform="translate(2698.361 2095.172)" fill="none" stroke="#000" stroke-width="3.666"/>
  </g>
</svg>
