<svg xmlns="http://www.w3.org/2000/svg" width="455.211" height="149.848" viewBox="0 0 455.211 149.848">
  <g id="Grupo_14532" data-name="Grupo 14532" transform="translate(-2227 -7005)">
    <path id="Trazado_24038" data-name="Trazado 24038" d="M0,0H455.211V149.848H0Z" transform="translate(2227 7005)" fill="#d5f4fc"/>
    <path id="Trazado_24041" data-name="Trazado 24041" d="M0,0V120.345" transform="translate(2329.256 7020)" fill="none" stroke="#000" stroke-width="3.666"/>
    <path id="Trazado_24042" data-name="Trazado 24042" d="M67.744,0H0" transform="translate(2329.256 7080.172)" fill="none" stroke="#000" stroke-width="3.666"/>
    <path id="Trazado_24039" data-name="Trazado 24039" d="M0,0V61.845" transform="translate(2519.256 7078.5)" fill="none" stroke="#000" stroke-width="3.666"/>
    <path id="Trazado_24040" data-name="Trazado 24040" d="M67.744,0H0" transform="translate(2519.256 7080.172)" fill="none" stroke="#000" stroke-width="3.666"/>
    <path id="Trazado_24043" data-name="Trazado 24043" d="M3.936-5.479a4.582,4.582,0,0,0,.532,2.451A1.9,1.9,0,0,0,6.2-2.2a1.873,1.873,0,0,0,1.714-.825,4.648,4.648,0,0,0,.522-2.456A4.51,4.51,0,0,0,7.91-7.91a1.907,1.907,0,0,0-1.729-.811,1.9,1.9,0,0,0-1.719.806A4.506,4.506,0,0,0,3.936-5.479Zm7.549,0a5.867,5.867,0,0,1-1.406,4.17A5.1,5.1,0,0,1,6.162.2,5.478,5.478,0,0,1,3.389-.493,4.581,4.581,0,0,1,1.543-2.471,6.645,6.645,0,0,1,.9-5.479a5.835,5.835,0,0,1,1.4-4.16,5.128,5.128,0,0,1,3.926-1.484,5.509,5.509,0,0,1,2.773.684A4.563,4.563,0,0,1,10.84-8.477,6.584,6.584,0,0,1,11.484-5.479Z" transform="translate(2445 7087)" fill="#00223d"/>
  </g>
</svg>
