<svg xmlns="http://www.w3.org/2000/svg" width="538.211" height="200.848" viewBox="0 0 538.211 200.848">
  <g id="Grupo_14454" data-name="Grupo 14454" transform="translate(-5378 2657)">
    <g id="Grupo_14441" data-name="Grupo 14441">
      <path id="Trazado_23912" data-name="Trazado 23912" d="M0,0H538.211V200.848H0Z" transform="translate(5378 -2657)" fill="#d5f4fc"/>
      <path id="Trazado_23913" data-name="Trazado 23913" d="M13.563-3.814A13.148,13.148,0,0,0,13.9-.383V0H10.227L9.912-1.531A4.57,4.57,0,0,1,7.943-.178,7.256,7.256,0,0,1,5.4.273,6.687,6.687,0,0,1,4.088.15,4.462,4.462,0,0,1,2.905-.267,3.589,3.589,0,0,1,1.928-1a3.208,3.208,0,0,1-.656-1.114,4.439,4.439,0,0,1-.246-1.524,4.227,4.227,0,0,1,.26-1.524A3.573,3.573,0,0,1,1.969-6.3a4.146,4.146,0,0,1,1.107-.834,8.474,8.474,0,0,1,1.395-.6,16.663,16.663,0,0,1,1.668-.437L8.449-8.7A2.548,2.548,0,0,0,9.5-9.14a.886.886,0,0,0,.308-.7,1.45,1.45,0,0,0-.69-1.354,3.224,3.224,0,0,0-1.675-.41q-2.42,0-2.748,2.146L1.2-10.09A4.719,4.719,0,0,1,3.24-13.3a8.1,8.1,0,0,1,4.416-1.032q5.906,0,5.906,5.072ZM6.631-2.393A3.167,3.167,0,0,0,9.064-3.411a4.292,4.292,0,0,0,.943-3.015l-3.336.943a3.942,3.942,0,0,0-1.4.574A1.179,1.179,0,0,0,4.785-3.9,1.309,1.309,0,0,0,5.3-2.782,2.15,2.15,0,0,0,6.631-2.393Z" transform="translate(5482.405 -2594)" fill="#002b45"/>
      <path id="Trazado_23914" data-name="Trazado 23914" d="M10.295-14.328a6.8,6.8,0,0,1,2.611.506,6.516,6.516,0,0,1,2.153,1.429,6.512,6.512,0,0,1,1.456,2.317A8.548,8.548,0,0,1,17.049-7a8.548,8.548,0,0,1-.533,3.076A6.512,6.512,0,0,1,15.06-1.606,6.516,6.516,0,0,1,12.906-.178a6.8,6.8,0,0,1-2.611.506A6.07,6.07,0,0,1,7.636-.239,3.931,3.931,0,0,1,5.865-1.832L5.77,0H2.037V-21H5.975v8.654a3.924,3.924,0,0,1,1.757-1.463A6.18,6.18,0,0,1,10.295-14.328ZM9.379-2.939a3.542,3.542,0,0,0,2.673-1.107A4.093,4.093,0,0,0,13.111-7a4.112,4.112,0,0,0-1.06-2.967,3.542,3.542,0,0,0-2.673-1.107A3.5,3.5,0,0,0,6.727-9.946,4.113,4.113,0,0,0,5.66-7,4.1,4.1,0,0,0,6.72-4.061,3.505,3.505,0,0,0,9.379-2.939Z" transform="translate(5482.405 -2541.283)" fill="#002b45"/>
      <path id="Trazado_23915" data-name="Trazado 23915" d="M0,0H38.526V1.605H0Z" transform="translate(5474 -2583.417)"/>
      <path id="Trazado_23916" data-name="Trazado 23916" d="M8.395.26A7.509,7.509,0,0,1,2.967-1.764,6.989,6.989,0,0,1,.861-7.041a6.973,6.973,0,0,1,2.1-5.277,7.533,7.533,0,0,1,5.435-2.01,7.489,7.489,0,0,1,4.553,1.354A6.043,6.043,0,0,1,15.3-9.16l-3.637.4a3.116,3.116,0,0,0-1.176-1.846,3.575,3.575,0,0,0-2.133-.615,3.224,3.224,0,0,0-2.57,1.148A4.5,4.5,0,0,0,4.8-7.041a4.508,4.508,0,0,0,.984,3.028,3.216,3.216,0,0,0,2.57,1.155,3.544,3.544,0,0,0,2.126-.615,3.188,3.188,0,0,0,1.183-1.846l3.637.4a6.059,6.059,0,0,1-2.372,3.814A7.458,7.458,0,0,1,8.395.26Z" transform="translate(5569.405 -2594)" fill="#002b45"/>
      <path id="Trazado_23917" data-name="Trazado 23917" d="M12-21h3.938V0H12.209l-.1-1.832A4.014,4.014,0,0,1,10.329-.239,6.006,6.006,0,0,1,7.7.328,6.836,6.836,0,0,1,5.072-.178,6.516,6.516,0,0,1,2.919-1.606,6.512,6.512,0,0,1,1.463-3.924,8.548,8.548,0,0,1,.93-7a7.99,7.99,0,0,1,.93-3.917,6.37,6.37,0,0,1,2.454-2.55A6.758,6.758,0,0,1,7.7-14.328a6.156,6.156,0,0,1,2.55.513A3.981,3.981,0,0,1,12-12.359ZM8.6-2.939a3.505,3.505,0,0,0,2.659-1.121A4.1,4.1,0,0,0,12.318-7a4.113,4.113,0,0,0-1.066-2.946A3.5,3.5,0,0,0,8.6-11.074,3.542,3.542,0,0,0,5.927-9.967,4.112,4.112,0,0,0,4.867-7a4.093,4.093,0,0,0,1.06,2.953A3.542,3.542,0,0,0,8.6-2.939Z" transform="translate(5569.405 -2541.283)" fill="#002b45"/>
      <path id="Trazado_23918" data-name="Trazado 23918" d="M0,0H38.526V1.605H0Z" transform="translate(5561 -2583.417)"/>
      <path id="Trazado_23919" data-name="Trazado 23919" d="M3.063-11.129v-2.994H15.135v2.994Zm0,6V-8.121H15.135v2.994Z" transform="translate(5524.405 -2572)" fill="#002b45"/>
      <path id="Trazado_23920" data-name="Trazado 23920" d="M4.486-16.357a2.13,2.13,0,0,1-1.578-.655,2.156,2.156,0,0,1-.645-1.568,2.091,2.091,0,0,1,.645-1.548,2.164,2.164,0,0,1,1.578-.635,2.173,2.173,0,0,1,1.568.635,2.075,2.075,0,0,1,.655,1.548,2.14,2.14,0,0,1-.655,1.568A2.14,2.14,0,0,1,4.486-16.357ZM6.273-4.526,3.1,5.241H.774L3.1-4.526Z" transform="translate(5610.405 -2571)"/>
      <path id="Trazado_23921" data-name="Trazado 23921" d="M13.563-3.814A13.148,13.148,0,0,0,13.9-.383V0H10.227L9.912-1.531A4.57,4.57,0,0,1,7.943-.178,7.256,7.256,0,0,1,5.4.273,6.687,6.687,0,0,1,4.088.15,4.462,4.462,0,0,1,2.905-.267,3.589,3.589,0,0,1,1.928-1a3.208,3.208,0,0,1-.656-1.114,4.439,4.439,0,0,1-.246-1.524,4.227,4.227,0,0,1,.26-1.524A3.573,3.573,0,0,1,1.969-6.3a4.146,4.146,0,0,1,1.107-.834,8.474,8.474,0,0,1,1.395-.6,16.663,16.663,0,0,1,1.668-.437L8.449-8.7A2.548,2.548,0,0,0,9.5-9.14a.886.886,0,0,0,.308-.7,1.45,1.45,0,0,0-.69-1.354,3.224,3.224,0,0,0-1.675-.41q-2.42,0-2.748,2.146L1.2-10.09A4.719,4.719,0,0,1,3.24-13.3a8.1,8.1,0,0,1,4.416-1.032q5.906,0,5.906,5.072ZM6.631-2.393A3.167,3.167,0,0,0,9.064-3.411a4.292,4.292,0,0,0,.943-3.015l-3.336.943a3.942,3.942,0,0,0-1.4.574A1.179,1.179,0,0,0,4.785-3.9,1.309,1.309,0,0,0,5.3-2.782,2.15,2.15,0,0,0,6.631-2.393ZM19.852.273A2.156,2.156,0,0,1,18.272-.39a2.156,2.156,0,0,1-.663-1.579,2.195,2.195,0,0,1,.663-1.6,2.145,2.145,0,0,1,1.579-.67,2.183,2.183,0,0,1,1.6.67,2.183,2.183,0,0,1,.67,1.6,2.145,2.145,0,0,1-.67,1.579A2.195,2.195,0,0,1,19.852.273ZM43.654-21h3.938V0H43.859l-.1-1.832A4.014,4.014,0,0,1,41.979-.239a6.006,6.006,0,0,1-2.632.567,6.836,6.836,0,0,1-2.625-.506,6.516,6.516,0,0,1-2.153-1.429,6.512,6.512,0,0,1-1.456-2.317A8.548,8.548,0,0,1,32.58-7a7.99,7.99,0,0,1,.93-3.917,6.37,6.37,0,0,1,2.454-2.55,6.758,6.758,0,0,1,3.384-.861,6.156,6.156,0,0,1,2.55.513,3.981,3.981,0,0,1,1.757,1.456ZM40.25-2.939a3.505,3.505,0,0,0,2.659-1.121A4.1,4.1,0,0,0,43.969-7,4.113,4.113,0,0,0,42.9-9.946a3.5,3.5,0,0,0-2.652-1.128,3.542,3.542,0,0,0-2.673,1.107A4.112,4.112,0,0,0,36.518-7a4.093,4.093,0,0,0,1.06,2.953A3.542,3.542,0,0,0,40.25-2.939Zm19.715-8.189v-2.994H72.037v2.994Zm0,6V-8.121H72.037v2.994ZM90.754.26a7.509,7.509,0,0,1-5.428-2.023,6.989,6.989,0,0,1-2.105-5.277,6.973,6.973,0,0,1,2.1-5.277,7.533,7.533,0,0,1,5.435-2.01,7.489,7.489,0,0,1,4.553,1.354A6.043,6.043,0,0,1,97.658-9.16l-3.637.4a3.116,3.116,0,0,0-1.176-1.846,3.575,3.575,0,0,0-2.133-.615,3.224,3.224,0,0,0-2.57,1.148,4.5,4.5,0,0,0-.984,3.035,4.508,4.508,0,0,0,.984,3.028,3.216,3.216,0,0,0,2.57,1.155,3.544,3.544,0,0,0,2.126-.615,3.188,3.188,0,0,0,1.183-1.846l3.637.4a6.059,6.059,0,0,1-2.372,3.814A7.458,7.458,0,0,1,90.754.26Zm11.922.014A2.156,2.156,0,0,1,101.1-.39a2.156,2.156,0,0,1-.663-1.579,2.195,2.195,0,0,1,.663-1.6,2.145,2.145,0,0,1,1.579-.67,2.183,2.183,0,0,1,1.6.67,2.183,2.183,0,0,1,.67,1.6,2.145,2.145,0,0,1-.67,1.579A2.195,2.195,0,0,1,102.676.273ZM126.479-21h3.938V0h-3.732l-.1-1.832A4.014,4.014,0,0,1,124.8-.239a6.006,6.006,0,0,1-2.632.567,6.836,6.836,0,0,1-2.625-.506,6.516,6.516,0,0,1-2.153-1.429,6.512,6.512,0,0,1-1.456-2.317A8.548,8.548,0,0,1,115.4-7a7.99,7.99,0,0,1,.93-3.917,6.37,6.37,0,0,1,2.454-2.55,6.758,6.758,0,0,1,3.384-.861,6.156,6.156,0,0,1,2.55.513,3.981,3.981,0,0,1,1.757,1.456Zm-3.4,18.061a3.505,3.505,0,0,0,2.659-1.121A4.1,4.1,0,0,0,126.793-7a4.113,4.113,0,0,0-1.066-2.946,3.5,3.5,0,0,0-2.652-1.128A3.542,3.542,0,0,0,120.4-9.967,4.112,4.112,0,0,0,119.342-7a4.093,4.093,0,0,0,1.06,2.953A3.542,3.542,0,0,0,123.074-2.939Z" transform="translate(5652 -2572)" fill="#002b45"/>
      <path id="Trazado_23922" data-name="Trazado 23922" d="M-229.28,0l-3.182-5.581H-234.4V0h-1.573V-12.375h4.1a3.7,3.7,0,0,1,2.773.98,3.46,3.46,0,0,1,.954,2.518,3.229,3.229,0,0,1-.725,2.153,3.241,3.241,0,0,1-2.017,1.081L-227.443,0ZM-234.4-11V-6.82h2.32a2.592,2.592,0,0,0,1.811-.558,1.959,1.959,0,0,0,.606-1.516,1.994,1.994,0,0,0-.611-1.529A2.555,2.555,0,0,0-232.084-11Zm16.26,6.5-.018.413h-6.75a3.053,3.053,0,0,0,.826,2.21,2.713,2.713,0,0,0,1.969.769,2.59,2.59,0,0,0,1.433-.413,2.68,2.68,0,0,0,.984-1.143l1.371.29A3.9,3.9,0,0,1-219.806-.51,4.028,4.028,0,0,1-222.1.167a4.174,4.174,0,0,1-3.111-1.2A4.479,4.479,0,0,1-226.4-4.324,4.458,4.458,0,0,1-225.207-7.6a4.122,4.122,0,0,1,3.063-1.2,3.9,3.9,0,0,1,2.9,1.107A4.376,4.376,0,0,1-218.145-4.491Zm-4-3.146a2.694,2.694,0,0,0-1.8.611,2.8,2.8,0,0,0-.91,1.78h5.177a2.567,2.567,0,0,0-.756-1.78A2.441,2.441,0,0,0-222.144-7.638Zm9.967,7.8a4.161,4.161,0,0,1-3.094-1.239,4.421,4.421,0,0,1-1.222-3.243,4.43,4.43,0,0,1,1.217-3.243,4.158,4.158,0,0,1,3.1-1.239,4.191,4.191,0,0,1,2.5.756,3.815,3.815,0,0,1,1.455,2.1l-1.424.229a2.63,2.63,0,0,0-.976-1.345,2.656,2.656,0,0,0-1.564-.475,2.554,2.554,0,0,0-2,.888,3.382,3.382,0,0,0-.787,2.329A3.365,3.365,0,0,0-214.185-2a2.56,2.56,0,0,0,2,.883,2.656,2.656,0,0,0,1.564-.475,2.63,2.63,0,0,0,.976-1.345l1.424.237a3.819,3.819,0,0,1-1.463,2.1A4.185,4.185,0,0,1-212.177.158Zm11.575-8.8h1.521V0h-1.459l-.035-1.143a2.7,2.7,0,0,1-1.072.971,3.3,3.3,0,0,1-1.512.338,3.005,3.005,0,0,1-2.175-.782,2.918,2.918,0,0,1-.813-2.206V-8.64h1.521v5.476a2.05,2.05,0,0,0,.532,1.547,1.882,1.882,0,0,0,1.358.51,2.067,2.067,0,0,0,1.534-.6,2.434,2.434,0,0,0,.6-1.767Zm12.173,4.148-.018.413h-6.75a3.053,3.053,0,0,0,.826,2.21A2.713,2.713,0,0,0-192.4-1.1a2.59,2.59,0,0,0,1.433-.413,2.68,2.68,0,0,0,.984-1.143l1.371.29A3.9,3.9,0,0,1-190.09-.51a4.028,4.028,0,0,1-2.294.677,4.174,4.174,0,0,1-3.111-1.2,4.479,4.479,0,0,1-1.187-3.287A4.458,4.458,0,0,1-195.491-7.6a4.122,4.122,0,0,1,3.063-1.2,3.9,3.9,0,0,1,2.9,1.107A4.376,4.376,0,0,1-188.429-4.491Zm-4-3.146a2.694,2.694,0,0,0-1.8.611,2.8,2.8,0,0,0-.91,1.78h5.177a2.567,2.567,0,0,0-.756-1.78A2.441,2.441,0,0,0-192.428-7.638Zm7.866.519a2.612,2.612,0,0,1,1.072-1.16,3.229,3.229,0,0,1,1.661-.457V-7.3a2.846,2.846,0,0,0-2.008.642,2.68,2.68,0,0,0-.69,2.048V0h-1.521V-8.64h1.485Zm10.793-6.381h1.521V0h-1.468l-.035-1.679a3.179,3.179,0,0,1-1.23,1.362,3.429,3.429,0,0,1-1.828.5,3.883,3.883,0,0,1-1.564-.321,3.92,3.92,0,0,1-1.288-.9,4.16,4.16,0,0,1-.87-1.428,5.225,5.225,0,0,1-.321-1.854,4.543,4.543,0,0,1,1.173-3.243,3.788,3.788,0,0,1,2.87-1.248A3.443,3.443,0,0,1-175-8.319,3.2,3.2,0,0,1-173.769-7Zm-2.725,12.366a2.587,2.587,0,0,0,2.008-.91,3.283,3.283,0,0,0,.813-2.272,3.277,3.277,0,0,0-.817-2.268,2.586,2.586,0,0,0-2-.914,2.644,2.644,0,0,0-2.021.883,3.25,3.25,0,0,0-.817,2.3,3.25,3.25,0,0,0,.817,2.3A2.644,2.644,0,0,0-176.493-1.134Zm14.9-3.357-.018.413h-6.75a3.053,3.053,0,0,0,.826,2.21,2.713,2.713,0,0,0,1.969.769,2.59,2.59,0,0,0,1.433-.413,2.68,2.68,0,0,0,.984-1.143l1.371.29A3.9,3.9,0,0,1-163.257-.51a4.028,4.028,0,0,1-2.294.677,4.174,4.174,0,0,1-3.111-1.2,4.479,4.479,0,0,1-1.187-3.287A4.458,4.458,0,0,1-168.658-7.6a4.122,4.122,0,0,1,3.063-1.2,3.9,3.9,0,0,1,2.9,1.107A4.376,4.376,0,0,1-161.6-4.491Zm-4-3.146a2.694,2.694,0,0,0-1.8.611,2.8,2.8,0,0,0-.91,1.78h5.177a2.567,2.567,0,0,0-.756-1.78A2.441,2.441,0,0,0-165.595-7.638Zm17.473-1h1.468V4.351h-1.521V-1.608A3.157,3.157,0,0,1-149.405-.3,3.434,3.434,0,0,1-151.2.185a3.792,3.792,0,0,1-2.878-1.239,4.568,4.568,0,0,1-1.165-3.261,5.25,5.25,0,0,1,.321-1.863,4.112,4.112,0,0,1,.87-1.424,3.9,3.9,0,0,1,1.288-.888,3.93,3.93,0,0,1,1.564-.316,3.443,3.443,0,0,1,1.811.492,3.159,3.159,0,0,1,1.23,1.327Zm-2.786,7.506a2.619,2.619,0,0,0,2.03-.91,3.273,3.273,0,0,0,.817-2.272,3.25,3.25,0,0,0-.822-2.263,2.623,2.623,0,0,0-2.026-.91,2.629,2.629,0,0,0-2,.87,3.237,3.237,0,0,0-.813,2.3A3.249,3.249,0,0,0-152.908-2,2.629,2.629,0,0,0-150.908-1.134Zm12.735-7.506h1.521V0h-1.459l-.035-1.143a2.7,2.7,0,0,1-1.072.971,3.3,3.3,0,0,1-1.512.338,3.005,3.005,0,0,1-2.175-.782,2.918,2.918,0,0,1-.813-2.206V-8.64h1.521v5.476a2.05,2.05,0,0,0,.532,1.547,1.882,1.882,0,0,0,1.358.51,2.067,2.067,0,0,0,1.534-.6,2.434,2.434,0,0,0,.6-1.767ZM-126-4.491l-.018.413h-6.75a3.053,3.053,0,0,0,.826,2.21,2.713,2.713,0,0,0,1.969.769,2.59,2.59,0,0,0,1.433-.413,2.68,2.68,0,0,0,.984-1.143l1.371.29A3.9,3.9,0,0,1-127.661-.51a4.028,4.028,0,0,1-2.294.677,4.174,4.174,0,0,1-3.111-1.2,4.479,4.479,0,0,1-1.187-3.287A4.458,4.458,0,0,1-133.062-7.6,4.122,4.122,0,0,1-130-8.807a3.9,3.9,0,0,1,2.9,1.107A4.376,4.376,0,0,1-126-4.491Zm-4-3.146a2.694,2.694,0,0,0-1.8.611,2.8,2.8,0,0,0-.91,1.78h5.177a2.567,2.567,0,0,0-.756-1.78A2.441,2.441,0,0,0-130-7.638ZM-118.942,0V-13.5h1.538V0Zm8.271.167a4.554,4.554,0,0,1-2.215-.536,3.9,3.9,0,0,1-1.56-1.569,4.819,4.819,0,0,1-.576-2.386A4.4,4.4,0,0,1-113.8-7.581a4.232,4.232,0,0,1,3.125-1.226,4.228,4.228,0,0,1,3.129,1.226,4.41,4.41,0,0,1,1.222,3.256,4.413,4.413,0,0,1-1.226,3.265A4.232,4.232,0,0,1-110.672.167Zm-.009-1.266a2.654,2.654,0,0,0,2.043-.888,3.326,3.326,0,0,0,.813-2.338,3.314,3.314,0,0,0-.813-2.329,2.654,2.654,0,0,0-2.043-.888,2.617,2.617,0,0,0-2.026.888,3.336,3.336,0,0,0-.8,2.329,3.348,3.348,0,0,0,.8,2.338A2.617,2.617,0,0,0-110.681-1.1Zm9.475,1.266a4.1,4.1,0,0,1-2.329-.624,2.581,2.581,0,0,1-1.134-1.775l1.327-.378a1.851,1.851,0,0,0,.708,1.2,2.3,2.3,0,0,0,1.419.426,2.832,2.832,0,0,0,.831-.114,1.331,1.331,0,0,0,.637-.426,1.142,1.142,0,0,0,.255-.787,1.147,1.147,0,0,0-.07-.356,1.526,1.526,0,0,0-.141-.286.87.87,0,0,0-.246-.237,3.245,3.245,0,0,0-.3-.185,3.067,3.067,0,0,0-.391-.163q-.259-.092-.417-.141t-.483-.141q-.325-.092-.5-.145a9.372,9.372,0,0,1-.9-.316,3.932,3.932,0,0,1-.729-.417,1.679,1.679,0,0,1-.567-.681,2.3,2.3,0,0,1-.189-.967A2.234,2.234,0,0,1-104-7.726a2.374,2.374,0,0,1,1.094-.813,4.374,4.374,0,0,1,1.534-.25,3.754,3.754,0,0,1,2.1.563,2.4,2.4,0,0,1,1.05,1.688l-1.248.316a1.655,1.655,0,0,0-.659-1.094,2.1,2.1,0,0,0-1.239-.365,2.139,2.139,0,0,0-1.16.3,1.019,1.019,0,0,0-.483.927.923.923,0,0,0,.127.479,1.521,1.521,0,0,0,.259.338,1.594,1.594,0,0,0,.475.259q.343.136.51.185t.633.163q.088.026.132.035.51.132.831.233a5.105,5.105,0,0,1,.747.316,2.484,2.484,0,0,1,.672.47A2.178,2.178,0,0,1-98.2-3.3a2.358,2.358,0,0,1,.176.932,2.516,2.516,0,0,1-.259,1.165,2.028,2.028,0,0,1-.708.8A3.422,3.422,0,0,1-100,.022,4.8,4.8,0,0,1-101.206.167ZM-83.4-4.491l-.018.413h-6.75a3.053,3.053,0,0,0,.826,2.21,2.713,2.713,0,0,0,1.969.769,2.59,2.59,0,0,0,1.433-.413,2.68,2.68,0,0,0,.984-1.143l1.371.29A3.9,3.9,0,0,1-85.061-.51a4.028,4.028,0,0,1-2.294.677,4.174,4.174,0,0,1-3.111-1.2,4.479,4.479,0,0,1-1.187-3.287A4.458,4.458,0,0,1-90.461-7.6a4.122,4.122,0,0,1,3.063-1.2,3.9,3.9,0,0,1,2.9,1.107A4.376,4.376,0,0,1-83.4-4.491Zm-4-3.146a2.694,2.694,0,0,0-1.8.611,2.8,2.8,0,0,0-.91,1.78h5.177a2.567,2.567,0,0,0-.756-1.78A2.441,2.441,0,0,0-87.4-7.638ZM-82.582,0l3.322-4.324L-82.582-8.64h1.872l2.391,3.3,2.391-3.3h1.846l-3.331,4.315L-74.083,0h-1.854l-2.373-3.287L-80.71,0Zm13.131,0a2.271,2.271,0,0,1-1.687-.62,2.344,2.344,0,0,1-.615-1.727v-5.08h-1.767V-8.64h.65a1.249,1.249,0,0,0,.954-.3,1.492,1.492,0,0,0,.277-1.015v-1.564h1.415V-8.64h1.986v1.213h-1.986V-2.5a1.31,1.31,0,0,0,.33.954,1.154,1.154,0,0,0,.866.338h.791V0Zm4.9-7.119a2.612,2.612,0,0,1,1.072-1.16,3.229,3.229,0,0,1,1.661-.457V-7.3a2.846,2.846,0,0,0-2.008.642,2.68,2.68,0,0,0-.69,2.048V0h-1.521V-8.64h1.485Zm11.971,2.628-.018.413h-6.75a3.053,3.053,0,0,0,.826,2.21,2.713,2.713,0,0,0,1.969.769,2.59,2.59,0,0,0,1.433-.413,2.68,2.68,0,0,0,.984-1.143l1.371.29A3.9,3.9,0,0,1-54.246-.51,4.028,4.028,0,0,1-56.54.167a4.174,4.174,0,0,1-3.111-1.2,4.479,4.479,0,0,1-1.187-3.287A4.458,4.458,0,0,1-59.647-7.6a4.122,4.122,0,0,1,3.063-1.2,3.9,3.9,0,0,1,2.9,1.107A4.376,4.376,0,0,1-52.585-4.491Zm-4-3.146a2.694,2.694,0,0,0-1.8.611,2.8,2.8,0,0,0-.91,1.78h5.177a2.567,2.567,0,0,0-.756-1.78A2.441,2.441,0,0,0-56.584-7.638ZM-41.37-8.807a2.785,2.785,0,0,1,2.013.734,2.722,2.722,0,0,1,.765,2.061V0h-1.521V-5.616a1.952,1.952,0,0,0-.475-1.424,1.616,1.616,0,0,0-1.2-.483,1.706,1.706,0,0,0-1.318.545,2.343,2.343,0,0,0-.5,1.635V0h-1.547V-5.555a2.042,2.042,0,0,0-.479-1.472,1.629,1.629,0,0,0-1.226-.5,1.69,1.69,0,0,0-1.314.558,2.424,2.424,0,0,0-.505,1.674V0H-50.2V-8.64h1.521v1.116a2.625,2.625,0,0,1,.989-.949,2.82,2.82,0,0,1,1.375-.334,2.935,2.935,0,0,1,1.477.365,2.271,2.271,0,0,1,.958,1.05,2.689,2.689,0,0,1,1.037-1.05A2.966,2.966,0,0,1-41.37-8.807ZM-32.01.167a4.554,4.554,0,0,1-2.215-.536,3.9,3.9,0,0,1-1.56-1.569,4.819,4.819,0,0,1-.576-2.386,4.4,4.4,0,0,1,1.226-3.256A4.232,4.232,0,0,1-32.01-8.807a4.228,4.228,0,0,1,3.129,1.226,4.41,4.41,0,0,1,1.222,3.256,4.413,4.413,0,0,1-1.226,3.265A4.232,4.232,0,0,1-32.01.167ZM-32.019-1.1a2.654,2.654,0,0,0,2.043-.888,3.326,3.326,0,0,0,.813-2.338,3.314,3.314,0,0,0-.813-2.329,2.654,2.654,0,0,0-2.043-.888,2.617,2.617,0,0,0-2.026.888,3.336,3.336,0,0,0-.8,2.329,3.348,3.348,0,0,0,.8,2.338A2.617,2.617,0,0,0-32.019-1.1ZM-22.544.167a4.1,4.1,0,0,1-2.329-.624,2.581,2.581,0,0,1-1.134-1.775l1.327-.378a1.851,1.851,0,0,0,.708,1.2,2.3,2.3,0,0,0,1.419.426,2.832,2.832,0,0,0,.831-.114,1.331,1.331,0,0,0,.637-.426,1.142,1.142,0,0,0,.255-.787,1.147,1.147,0,0,0-.07-.356,1.526,1.526,0,0,0-.141-.286.87.87,0,0,0-.246-.237,3.245,3.245,0,0,0-.3-.185,3.067,3.067,0,0,0-.391-.163q-.259-.092-.417-.141t-.483-.141q-.325-.092-.5-.145a9.372,9.372,0,0,1-.9-.316A3.932,3.932,0,0,1-25-4.7a1.679,1.679,0,0,1-.567-.681,2.3,2.3,0,0,1-.189-.967,2.234,2.234,0,0,1,.422-1.38,2.374,2.374,0,0,1,1.094-.813,4.374,4.374,0,0,1,1.534-.25,3.754,3.754,0,0,1,2.1.563,2.4,2.4,0,0,1,1.05,1.688l-1.248.316a1.655,1.655,0,0,0-.659-1.094A2.1,2.1,0,0,0-22.7-7.682a2.139,2.139,0,0,0-1.16.3,1.019,1.019,0,0,0-.483.927.923.923,0,0,0,.127.479,1.521,1.521,0,0,0,.259.338,1.594,1.594,0,0,0,.475.259q.343.136.51.185t.633.163q.088.026.132.035.51.132.831.233a5.105,5.105,0,0,1,.747.316,2.484,2.484,0,0,1,.672.47,2.178,2.178,0,0,1,.422.668,2.358,2.358,0,0,1,.176.932,2.516,2.516,0,0,1-.259,1.165,2.028,2.028,0,0,1-.708.8,3.422,3.422,0,0,1-1.006.435A4.8,4.8,0,0,1-22.544.167Zm12.981,0a4.1,4.1,0,0,1-2.329-.624,2.581,2.581,0,0,1-1.134-1.775L-11.7-2.61a1.851,1.851,0,0,0,.708,1.2,2.3,2.3,0,0,0,1.419.426A2.832,2.832,0,0,0-8.741-1.1,1.331,1.331,0,0,0-8.1-1.525a1.142,1.142,0,0,0,.255-.787,1.147,1.147,0,0,0-.07-.356,1.526,1.526,0,0,0-.141-.286.87.87,0,0,0-.246-.237,3.245,3.245,0,0,0-.3-.185A3.067,3.067,0,0,0-9-3.538q-.259-.092-.417-.141T-9.9-3.819q-.325-.092-.5-.145a9.372,9.372,0,0,1-.9-.316,3.932,3.932,0,0,1-.729-.417,1.679,1.679,0,0,1-.567-.681,2.3,2.3,0,0,1-.189-.967,2.234,2.234,0,0,1,.422-1.38,2.374,2.374,0,0,1,1.094-.813,4.374,4.374,0,0,1,1.534-.25,3.754,3.754,0,0,1,2.1.563,2.4,2.4,0,0,1,1.05,1.688l-1.248.316a1.655,1.655,0,0,0-.659-1.094,2.1,2.1,0,0,0-1.239-.365,2.139,2.139,0,0,0-1.16.3,1.019,1.019,0,0,0-.483.927.923.923,0,0,0,.127.479,1.521,1.521,0,0,0,.259.338,1.594,1.594,0,0,0,.475.259q.343.136.51.185t.633.163q.088.026.132.035.51.132.831.233a5.105,5.105,0,0,1,.747.316,2.484,2.484,0,0,1,.672.47,2.178,2.178,0,0,1,.422.668,2.358,2.358,0,0,1,.176.932A2.516,2.516,0,0,1-6.64-1.208a2.028,2.028,0,0,1-.708.8A3.422,3.422,0,0,1-8.354.022,4.8,4.8,0,0,1-9.562.167Zm9.211,0A4.554,4.554,0,0,1-2.566-.369a3.9,3.9,0,0,1-1.56-1.569A4.819,4.819,0,0,1-4.7-4.324,4.4,4.4,0,0,1-3.476-7.581,4.232,4.232,0,0,1-.352-8.807,4.228,4.228,0,0,1,2.777-7.581,4.41,4.41,0,0,1,4-4.324,4.413,4.413,0,0,1,2.773-1.059,4.232,4.232,0,0,1-.352.167ZM-.36-1.1a2.654,2.654,0,0,0,2.043-.888A3.326,3.326,0,0,0,2.5-4.324a3.314,3.314,0,0,0-.813-2.329A2.654,2.654,0,0,0-.36-7.541a2.617,2.617,0,0,0-2.026.888,3.336,3.336,0,0,0-.8,2.329,3.348,3.348,0,0,0,.8,2.338A2.617,2.617,0,0,0-.36-1.1ZM10.459-8.807a3.005,3.005,0,0,1,2.175.782,2.918,2.918,0,0,1,.813,2.206V0H11.927V-5.476A2.043,2.043,0,0,0,11.4-7.022a1.885,1.885,0,0,0-1.354-.5,2.09,2.09,0,0,0-1.538.593A2.407,2.407,0,0,0,7.9-5.168V0H6.381V-8.64H7.9v1.107A2.885,2.885,0,0,1,10.459-8.807ZM23.054.167A2.94,2.94,0,0,1,21.16-.426,2.13,2.13,0,0,1,20.417-2.2a2.517,2.517,0,0,1,.237-1.129,1.991,1.991,0,0,1,.7-.787A4.218,4.218,0,0,1,22.373-4.6a9.384,9.384,0,0,1,1.314-.312l1.4-.229q.765-.141.765-.8a1.51,1.51,0,0,0-.541-1.288,2.2,2.2,0,0,0-1.367-.409,2.243,2.243,0,0,0-1.354.4,1.655,1.655,0,0,0-.642,1.213l-1.371-.29a2.639,2.639,0,0,1,1.081-1.85,4.039,4.039,0,0,1,2.355-.62,4.777,4.777,0,0,1,1.252.154,3.4,3.4,0,0,1,1.046.483,2.168,2.168,0,0,1,.747.932A3.466,3.466,0,0,1,27.325-5.8v3.568a1.46,1.46,0,0,0,.2.9A.854.854,0,0,0,28.2-1.1h.141V0h-.756a1.442,1.442,0,0,1-1.635-1.169h-.07A3.3,3.3,0,0,1,23.054.167Zm.352-1.23A2.305,2.305,0,0,0,25.26-1.9a3.438,3.438,0,0,0,.7-2.285l-2.285.439a3.076,3.076,0,0,0-1.34.479,1.114,1.114,0,0,0-.435.945,1.1,1.1,0,0,0,.417.949A1.785,1.785,0,0,0,23.405-1.063ZM40.491-8.64H42.1l-5,12.709H35.525l1.731-4.28L33.9-8.64h1.688l2.435,6.724ZM54.984-13.5H56.5V0H55.037L55-1.679a3.179,3.179,0,0,1-1.23,1.362,3.429,3.429,0,0,1-1.828.5,3.883,3.883,0,0,1-1.564-.321,3.92,3.92,0,0,1-1.288-.9,4.16,4.16,0,0,1-.87-1.428A5.225,5.225,0,0,1,47.9-4.315a4.543,4.543,0,0,1,1.173-3.243,3.788,3.788,0,0,1,2.87-1.248,3.443,3.443,0,0,1,1.806.488A3.2,3.2,0,0,1,54.984-7ZM52.26-1.134a2.587,2.587,0,0,0,2.008-.91,3.283,3.283,0,0,0,.813-2.272,3.277,3.277,0,0,0-.817-2.268,2.586,2.586,0,0,0-2-.914,2.644,2.644,0,0,0-2.021.883,3.25,3.25,0,0,0-.817,2.3,3.25,3.25,0,0,0,.817,2.3A2.644,2.644,0,0,0,52.26-1.134Zm8.525,4.307H59.678L60.75-2.276h1.591ZM69.979,0V-13.5h1.538V0Zm8.271.167a4.554,4.554,0,0,1-2.215-.536,3.9,3.9,0,0,1-1.56-1.569A4.819,4.819,0,0,1,73.9-4.324a4.4,4.4,0,0,1,1.226-3.256,4.232,4.232,0,0,1,3.125-1.226,4.228,4.228,0,0,1,3.129,1.226A4.41,4.41,0,0,1,82.6-4.324a4.413,4.413,0,0,1-1.226,3.265A4.232,4.232,0,0,1,78.249.167ZM78.24-1.1a2.654,2.654,0,0,0,2.043-.888A3.326,3.326,0,0,0,81.1-4.324a3.314,3.314,0,0,0-.813-2.329,2.654,2.654,0,0,0-2.043-.888,2.617,2.617,0,0,0-2.026.888,3.336,3.336,0,0,0-.8,2.329,3.348,3.348,0,0,0,.8,2.338A2.617,2.617,0,0,0,78.24-1.1ZM87.715.167a4.1,4.1,0,0,1-2.329-.624,2.581,2.581,0,0,1-1.134-1.775l1.327-.378a1.851,1.851,0,0,0,.708,1.2,2.3,2.3,0,0,0,1.419.426,2.832,2.832,0,0,0,.831-.114,1.331,1.331,0,0,0,.637-.426,1.142,1.142,0,0,0,.255-.787,1.147,1.147,0,0,0-.07-.356,1.526,1.526,0,0,0-.141-.286.87.87,0,0,0-.246-.237,3.245,3.245,0,0,0-.3-.185,3.067,3.067,0,0,0-.391-.163q-.259-.092-.417-.141t-.483-.141q-.325-.092-.5-.145a9.372,9.372,0,0,1-.9-.316,3.932,3.932,0,0,1-.729-.417,1.679,1.679,0,0,1-.567-.681,2.3,2.3,0,0,1-.189-.967,2.234,2.234,0,0,1,.422-1.38,2.374,2.374,0,0,1,1.094-.813,4.374,4.374,0,0,1,1.534-.25,3.754,3.754,0,0,1,2.1.563A2.4,2.4,0,0,1,90.7-6.539l-1.248.316A1.655,1.655,0,0,0,88.8-7.317a2.1,2.1,0,0,0-1.239-.365,2.139,2.139,0,0,0-1.16.3,1.019,1.019,0,0,0-.483.927.923.923,0,0,0,.127.479,1.521,1.521,0,0,0,.259.338,1.594,1.594,0,0,0,.475.259q.343.136.51.185t.633.163q.088.026.132.035.51.132.831.233a5.105,5.105,0,0,1,.747.316,2.484,2.484,0,0,1,.672.47,2.178,2.178,0,0,1,.422.668,2.358,2.358,0,0,1,.176.932,2.516,2.516,0,0,1-.259,1.165,2.028,2.028,0,0,1-.708.8,3.422,3.422,0,0,1-1.006.435A4.8,4.8,0,0,1,87.715.167ZM106.8-8.807a2.785,2.785,0,0,1,2.013.734,2.722,2.722,0,0,1,.765,2.061V0h-1.521V-5.616a1.952,1.952,0,0,0-.475-1.424,1.616,1.616,0,0,0-1.2-.483,1.706,1.706,0,0,0-1.318.545,2.343,2.343,0,0,0-.5,1.635V0h-1.547V-5.555a2.042,2.042,0,0,0-.479-1.472,1.629,1.629,0,0,0-1.226-.5,1.69,1.69,0,0,0-1.314.558,2.424,2.424,0,0,0-.505,1.674V0H97.963V-8.64h1.521v1.116a2.625,2.625,0,0,1,.989-.949,2.82,2.82,0,0,1,1.375-.334,2.935,2.935,0,0,1,1.477.365,2.271,2.271,0,0,1,.958,1.05,2.689,2.689,0,0,1,1.037-1.05A2.966,2.966,0,0,1,106.8-8.807Zm13.28,4.315-.018.413h-6.75a3.053,3.053,0,0,0,.826,2.21A2.713,2.713,0,0,0,116.1-1.1a2.59,2.59,0,0,0,1.433-.413,2.68,2.68,0,0,0,.984-1.143l1.371.29A3.9,3.9,0,0,1,118.415-.51a4.028,4.028,0,0,1-2.294.677,4.174,4.174,0,0,1-3.111-1.2,4.479,4.479,0,0,1-1.187-3.287A4.458,4.458,0,0,1,113.014-7.6a4.122,4.122,0,0,1,3.063-1.2,3.9,3.9,0,0,1,2.9,1.107A4.376,4.376,0,0,1,120.076-4.491Zm-4-3.146a2.694,2.694,0,0,0-1.8.611,2.8,2.8,0,0,0-.91,1.78h5.177a2.567,2.567,0,0,0-.756-1.78A2.441,2.441,0,0,0,116.077-7.638ZM128.839-13.5h1.521V0h-1.468l-.035-1.679a3.179,3.179,0,0,1-1.23,1.362,3.429,3.429,0,0,1-1.828.5,3.883,3.883,0,0,1-1.564-.321,3.92,3.92,0,0,1-1.288-.9,4.16,4.16,0,0,1-.87-1.428,5.225,5.225,0,0,1-.321-1.854,4.543,4.543,0,0,1,1.173-3.243,3.788,3.788,0,0,1,2.87-1.248,3.443,3.443,0,0,1,1.806.488A3.2,3.2,0,0,1,128.839-7ZM126.114-1.134a2.587,2.587,0,0,0,2.008-.91,3.283,3.283,0,0,0,.813-2.272,3.277,3.277,0,0,0-.817-2.268,2.586,2.586,0,0,0-2-.914,2.644,2.644,0,0,0-2.021.883,3.25,3.25,0,0,0-.817,2.3,3.25,3.25,0,0,0,.817,2.3A2.644,2.644,0,0,0,126.114-1.134Zm8.112-9.536a.989.989,0,0,1-.725-.3.989.989,0,0,1-.3-.725.975.975,0,0,1,.3-.721,1,1,0,0,1,.725-.3.987.987,0,0,1,.716.3.975.975,0,0,1,.3.721.989.989,0,0,1-.3.725A.979.979,0,0,1,134.227-10.67ZM133.453,0V-8.64h1.529V0Zm8.262.167A4.554,4.554,0,0,1,139.5-.369a3.9,3.9,0,0,1-1.56-1.569,4.819,4.819,0,0,1-.576-2.386,4.4,4.4,0,0,1,1.226-3.256,4.232,4.232,0,0,1,3.125-1.226,4.228,4.228,0,0,1,3.129,1.226,4.41,4.41,0,0,1,1.222,3.256,4.413,4.413,0,0,1-1.226,3.265A4.232,4.232,0,0,1,141.715.167ZM141.706-1.1a2.654,2.654,0,0,0,2.043-.888,3.326,3.326,0,0,0,.813-2.338,3.314,3.314,0,0,0-.813-2.329,2.654,2.654,0,0,0-2.043-.888,2.617,2.617,0,0,0-2.026.888,3.336,3.336,0,0,0-.8,2.329,3.348,3.348,0,0,0,.8,2.338A2.617,2.617,0,0,0,141.706-1.1ZM151.181.167a4.1,4.1,0,0,1-2.329-.624,2.581,2.581,0,0,1-1.134-1.775l1.327-.378a1.851,1.851,0,0,0,.708,1.2,2.3,2.3,0,0,0,1.419.426A2.832,2.832,0,0,0,152-1.1a1.331,1.331,0,0,0,.637-.426,1.142,1.142,0,0,0,.255-.787,1.147,1.147,0,0,0-.07-.356,1.526,1.526,0,0,0-.141-.286.87.87,0,0,0-.246-.237,3.245,3.245,0,0,0-.3-.185,3.067,3.067,0,0,0-.391-.163q-.259-.092-.417-.141t-.483-.141q-.325-.092-.5-.145a9.372,9.372,0,0,1-.9-.316,3.932,3.932,0,0,1-.729-.417,1.679,1.679,0,0,1-.567-.681,2.3,2.3,0,0,1-.189-.967,2.234,2.234,0,0,1,.422-1.38,2.374,2.374,0,0,1,1.094-.813,4.374,4.374,0,0,1,1.534-.25,3.754,3.754,0,0,1,2.1.563,2.4,2.4,0,0,1,1.05,1.688l-1.248.316a1.655,1.655,0,0,0-.659-1.094,2.1,2.1,0,0,0-1.239-.365,2.139,2.139,0,0,0-1.16.3,1.019,1.019,0,0,0-.483.927.923.923,0,0,0,.127.479,1.521,1.521,0,0,0,.259.338,1.594,1.594,0,0,0,.475.259q.343.136.51.185t.633.163q.088.026.132.035.51.132.831.233a5.105,5.105,0,0,1,.747.316,2.484,2.484,0,0,1,.672.47,2.178,2.178,0,0,1,.422.668,2.358,2.358,0,0,1,.176.932,2.516,2.516,0,0,1-.259,1.165,2.028,2.028,0,0,1-.708.8,3.422,3.422,0,0,1-1.006.435A4.8,4.8,0,0,1,151.181.167Zm12.981,0a4.1,4.1,0,0,1-2.329-.624A2.581,2.581,0,0,1,160.7-2.232l1.327-.378a1.851,1.851,0,0,0,.708,1.2,2.3,2.3,0,0,0,1.419.426,2.832,2.832,0,0,0,.831-.114,1.331,1.331,0,0,0,.637-.426,1.142,1.142,0,0,0,.255-.787,1.147,1.147,0,0,0-.07-.356,1.526,1.526,0,0,0-.141-.286.87.87,0,0,0-.246-.237,3.245,3.245,0,0,0-.3-.185,3.067,3.067,0,0,0-.391-.163q-.259-.092-.417-.141t-.483-.141q-.325-.092-.5-.145a9.372,9.372,0,0,1-.9-.316A3.932,3.932,0,0,1,161.7-4.7a1.679,1.679,0,0,1-.567-.681,2.3,2.3,0,0,1-.189-.967,2.234,2.234,0,0,1,.422-1.38,2.374,2.374,0,0,1,1.094-.813A4.374,4.374,0,0,1,164-8.789a3.754,3.754,0,0,1,2.1.563,2.4,2.4,0,0,1,1.05,1.688l-1.248.316a1.655,1.655,0,0,0-.659-1.094A2.1,2.1,0,0,0,164-7.682a2.139,2.139,0,0,0-1.16.3,1.019,1.019,0,0,0-.483.927.923.923,0,0,0,.127.479,1.521,1.521,0,0,0,.259.338,1.594,1.594,0,0,0,.475.259q.343.136.51.185t.633.163q.088.026.132.035.51.132.831.233a5.105,5.105,0,0,1,.747.316,2.484,2.484,0,0,1,.672.47,2.178,2.178,0,0,1,.422.668,2.358,2.358,0,0,1,.176.932,2.516,2.516,0,0,1-.259,1.165,2.028,2.028,0,0,1-.708.8,3.422,3.422,0,0,1-1.006.435A4.8,4.8,0,0,1,164.162.167Zm9.211,0a4.554,4.554,0,0,1-2.215-.536,3.9,3.9,0,0,1-1.56-1.569,4.819,4.819,0,0,1-.576-2.386,4.4,4.4,0,0,1,1.226-3.256,4.232,4.232,0,0,1,3.125-1.226A4.228,4.228,0,0,1,176.5-7.581a4.41,4.41,0,0,1,1.222,3.256A4.413,4.413,0,0,1,176.5-1.059,4.232,4.232,0,0,1,173.373.167ZM173.364-1.1a2.654,2.654,0,0,0,2.043-.888,3.326,3.326,0,0,0,.813-2.338,3.314,3.314,0,0,0-.813-2.329,2.654,2.654,0,0,0-2.043-.888,2.617,2.617,0,0,0-2.026.888,3.336,3.336,0,0,0-.8,2.329,3.348,3.348,0,0,0,.8,2.338A2.617,2.617,0,0,0,173.364-1.1Zm10.819-7.708a3.005,3.005,0,0,1,2.175.782,2.918,2.918,0,0,1,.813,2.206V0h-1.521V-5.476a2.043,2.043,0,0,0-.527-1.547,1.885,1.885,0,0,0-1.354-.5,2.09,2.09,0,0,0-1.538.593,2.407,2.407,0,0,0-.606,1.762V0h-1.521V-8.64h1.521v1.107A2.885,2.885,0,0,1,184.184-8.807ZM198.369.158a4.161,4.161,0,0,1-3.094-1.239,4.421,4.421,0,0,1-1.222-3.243,4.43,4.43,0,0,1,1.217-3.243,4.158,4.158,0,0,1,3.1-1.239,4.191,4.191,0,0,1,2.5.756,3.815,3.815,0,0,1,1.455,2.1l-1.424.229a2.63,2.63,0,0,0-.976-1.345,2.656,2.656,0,0,0-1.564-.475,2.554,2.554,0,0,0-2,.888,3.382,3.382,0,0,0-.787,2.329A3.365,3.365,0,0,0,196.361-2a2.56,2.56,0,0,0,2,.883,2.656,2.656,0,0,0,1.564-.475,2.63,2.63,0,0,0,.976-1.345l1.424.237a3.819,3.819,0,0,1-1.463,2.1A4.185,4.185,0,0,1,198.369.158Zm16.2-8.8h1.608l-5,12.709H209.6l1.731-4.28L207.976-8.64h1.688L212.1-1.916Zm14.493-4.86h1.521V0h-1.468l-.035-1.679a3.179,3.179,0,0,1-1.23,1.362,3.429,3.429,0,0,1-1.828.5,3.883,3.883,0,0,1-1.564-.321,3.92,3.92,0,0,1-1.288-.9,4.16,4.16,0,0,1-.87-1.428,5.225,5.225,0,0,1-.321-1.854,4.543,4.543,0,0,1,1.173-3.243,3.788,3.788,0,0,1,2.87-1.248,3.443,3.443,0,0,1,1.806.488A3.2,3.2,0,0,1,229.061-7ZM226.336-1.134a2.587,2.587,0,0,0,2.008-.91,3.283,3.283,0,0,0,.813-2.272,3.277,3.277,0,0,0-.817-2.268,2.586,2.586,0,0,0-2-.914,2.644,2.644,0,0,0-2.021.883,3.25,3.25,0,0,0-.817,2.3,3.25,3.25,0,0,0,.817,2.3A2.644,2.644,0,0,0,226.336-1.134Zm8.675,1.31a.987.987,0,0,1-.716-.3.975.975,0,0,1-.3-.721.979.979,0,0,1,.3-.716.979.979,0,0,1,.716-.3.994.994,0,0,1,.721.3.973.973,0,0,1,.308.716.975.975,0,0,1-.3.721A1,1,0,0,1,235.011.176Z" transform="translate(5647.106 -2489.726)" fill="#00223d"/>
    </g>
  </g>
</svg>
