<svg xmlns="http://www.w3.org/2000/svg" width="538.211" height="230.848" viewBox="0 0 538.211 230.848">
  <g id="Grupo_14449" data-name="Grupo 14449" transform="translate(-344 -2614)">
    <g id="Grupo_14448" data-name="Grupo 14448">
      <g id="Grupo_14445" data-name="Grupo 14445">
        <path id="Trazado_23871" data-name="Trazado 23871" d="M0,0H538.211V230.848H0Z" transform="translate(344 2614)" fill="#d5f4fc"/>
        <path id="Trazado_23872" data-name="Trazado 23872" d="M9.888,0,8.824-2.962h-5.6L2.171,0H.527L5.089-12.375H6.97L11.531,0ZM3.727-4.351H8.332l-2.3-6.442ZM17.684-8.807a3.005,3.005,0,0,1,2.175.782,2.918,2.918,0,0,1,.813,2.206V0H19.151V-5.476a2.043,2.043,0,0,0-.527-1.547,1.885,1.885,0,0,0-1.354-.5,2.09,2.09,0,0,0-1.538.593,2.407,2.407,0,0,0-.606,1.762V0H13.605V-8.64h1.521v1.107A2.885,2.885,0,0,1,17.684-8.807ZM26.367,0A2.271,2.271,0,0,1,24.68-.62a2.344,2.344,0,0,1-.615-1.727v-5.08H22.3V-8.64h.65a1.249,1.249,0,0,0,.954-.3,1.492,1.492,0,0,0,.277-1.015v-1.564h1.415V-8.64H27.58v1.213H25.594V-2.5a1.31,1.31,0,0,0,.33.954,1.154,1.154,0,0,0,.866.338h.791V0ZM37.23-4.491l-.018.413h-6.75a3.053,3.053,0,0,0,.826,2.21,2.713,2.713,0,0,0,1.969.769,2.59,2.59,0,0,0,1.433-.413,2.68,2.68,0,0,0,.984-1.143l1.371.29A3.9,3.9,0,0,1,35.569-.51a4.028,4.028,0,0,1-2.294.677,4.174,4.174,0,0,1-3.111-1.2,4.479,4.479,0,0,1-1.187-3.287A4.458,4.458,0,0,1,30.168-7.6a4.122,4.122,0,0,1,3.063-1.2,3.9,3.9,0,0,1,2.9,1.107A4.376,4.376,0,0,1,37.23-4.491Zm-4-3.146a2.694,2.694,0,0,0-1.8.611,2.8,2.8,0,0,0-.91,1.78H35.7a2.567,2.567,0,0,0-.756-1.78A2.441,2.441,0,0,0,33.231-7.638ZM43.2.158A4.161,4.161,0,0,1,40.1-1.081a4.421,4.421,0,0,1-1.222-3.243A4.43,4.43,0,0,1,40.1-7.567a4.158,4.158,0,0,1,3.1-1.239,4.191,4.191,0,0,1,2.5.756,3.815,3.815,0,0,1,1.455,2.1l-1.424.229a2.63,2.63,0,0,0-.976-1.345,2.656,2.656,0,0,0-1.564-.475,2.554,2.554,0,0,0-2,.888A3.382,3.382,0,0,0,40.4-4.324,3.365,3.365,0,0,0,41.19-2a2.56,2.56,0,0,0,2,.883,2.656,2.656,0,0,0,1.564-.475,2.63,2.63,0,0,0,.976-1.345l1.424.237A3.819,3.819,0,0,1,45.69-.6,4.185,4.185,0,0,1,43.2.158ZM56.953-4.491l-.018.413h-6.75a3.053,3.053,0,0,0,.826,2.21A2.713,2.713,0,0,0,52.98-1.1a2.59,2.59,0,0,0,1.433-.413A2.68,2.68,0,0,0,55.4-2.654l1.371.29A3.9,3.9,0,0,1,55.292-.51,4.028,4.028,0,0,1,53,.167a4.174,4.174,0,0,1-3.111-1.2A4.479,4.479,0,0,1,48.7-4.324,4.458,4.458,0,0,1,49.891-7.6a4.122,4.122,0,0,1,3.063-1.2,3.9,3.9,0,0,1,2.9,1.107A4.376,4.376,0,0,1,56.953-4.491Zm-4-3.146a2.694,2.694,0,0,0-1.8.611,2.8,2.8,0,0,0-.91,1.78h5.177a2.567,2.567,0,0,0-.756-1.78A2.441,2.441,0,0,0,52.954-7.638ZM65.716-13.5h1.521V0H65.769l-.035-1.679A3.179,3.179,0,0,1,64.5-.316a3.429,3.429,0,0,1-1.828.5A3.883,3.883,0,0,1,61.11-.136a3.92,3.92,0,0,1-1.288-.9,4.16,4.16,0,0,1-.87-1.428,5.225,5.225,0,0,1-.321-1.854,4.543,4.543,0,0,1,1.173-3.243,3.788,3.788,0,0,1,2.87-1.248,3.443,3.443,0,0,1,1.806.488A3.2,3.2,0,0,1,65.716-7ZM62.991-1.134A2.587,2.587,0,0,0,65-2.043a3.283,3.283,0,0,0,.813-2.272A3.277,3.277,0,0,0,65-6.583a2.586,2.586,0,0,0-2-.914,2.644,2.644,0,0,0-2.021.883,3.25,3.25,0,0,0-.817,2.3,3.25,3.25,0,0,0,.817,2.3A2.644,2.644,0,0,0,62.991-1.134Zm14.9-3.357-.018.413h-6.75a3.053,3.053,0,0,0,.826,2.21,2.713,2.713,0,0,0,1.969.769,2.59,2.59,0,0,0,1.433-.413,2.68,2.68,0,0,0,.984-1.143l1.371.29A3.9,3.9,0,0,1,76.228-.51a4.028,4.028,0,0,1-2.294.677,4.174,4.174,0,0,1-3.111-1.2,4.479,4.479,0,0,1-1.187-3.287A4.458,4.458,0,0,1,70.827-7.6a4.122,4.122,0,0,1,3.063-1.2,3.9,3.9,0,0,1,2.9,1.107A4.376,4.376,0,0,1,77.889-4.491Zm-4-3.146a2.694,2.694,0,0,0-1.8.611,2.8,2.8,0,0,0-.91,1.78h5.177a2.567,2.567,0,0,0-.756-1.78A2.441,2.441,0,0,0,73.89-7.638ZM84.349-8.807a3.005,3.005,0,0,1,2.175.782,2.918,2.918,0,0,1,.813,2.206V0H85.816V-5.476a2.043,2.043,0,0,0-.527-1.547,1.885,1.885,0,0,0-1.354-.5A2.09,2.09,0,0,0,82.4-6.93a2.407,2.407,0,0,0-.606,1.762V0H80.271V-8.64h1.521v1.107A2.885,2.885,0,0,1,84.349-8.807ZM93.032,0a2.271,2.271,0,0,1-1.687-.62,2.344,2.344,0,0,1-.615-1.727v-5.08H88.963V-8.64h.65a1.249,1.249,0,0,0,.954-.3,1.492,1.492,0,0,0,.277-1.015v-1.564h1.415V-8.64h1.986v1.213H92.259V-2.5a1.31,1.31,0,0,0,.33.954,1.154,1.154,0,0,0,.866.338h.791V0ZM103.9-4.491l-.018.413h-6.75a3.053,3.053,0,0,0,.826,2.21,2.713,2.713,0,0,0,1.969.769,2.59,2.59,0,0,0,1.433-.413,2.68,2.68,0,0,0,.984-1.143l1.371.29A3.9,3.9,0,0,1,102.234-.51,4.028,4.028,0,0,1,99.94.167a4.174,4.174,0,0,1-3.111-1.2,4.479,4.479,0,0,1-1.187-3.287A4.458,4.458,0,0,1,96.833-7.6a4.122,4.122,0,0,1,3.063-1.2A3.9,3.9,0,0,1,102.8-7.7,4.376,4.376,0,0,1,103.9-4.491Zm-4-3.146a2.694,2.694,0,0,0-1.8.611,2.8,2.8,0,0,0-.91,1.78h5.177a2.567,2.567,0,0,0-.756-1.78A2.441,2.441,0,0,0,99.9-7.638Zm13.052,7.8a2.94,2.94,0,0,1-1.894-.593,2.13,2.13,0,0,1-.743-1.771,2.517,2.517,0,0,1,.237-1.129,1.991,1.991,0,0,1,.7-.787,4.218,4.218,0,0,1,1.015-.488,9.384,9.384,0,0,1,1.314-.312l1.4-.229q.765-.141.765-.8a1.51,1.51,0,0,0-.541-1.288,2.2,2.2,0,0,0-1.367-.409,2.243,2.243,0,0,0-1.354.4,1.655,1.655,0,0,0-.642,1.213l-1.371-.29a2.639,2.639,0,0,1,1.081-1.85,4.039,4.039,0,0,1,2.355-.62,4.777,4.777,0,0,1,1.252.154,3.4,3.4,0,0,1,1.046.483,2.168,2.168,0,0,1,.747.932A3.466,3.466,0,0,1,117.22-5.8v3.568a1.46,1.46,0,0,0,.2.9.854.854,0,0,0,.681.233h.141V0h-.756a1.442,1.442,0,0,1-1.635-1.169h-.07A3.3,3.3,0,0,1,112.948.167Zm.352-1.23a2.305,2.305,0,0,0,1.854-.835,3.438,3.438,0,0,0,.7-2.285l-2.285.439a3.076,3.076,0,0,0-1.34.479,1.114,1.114,0,0,0-.435.945,1.1,1.1,0,0,0,.417.949A1.785,1.785,0,0,0,113.3-1.063ZM125.763-8.64h1.521V0h-1.459l-.035-1.143a2.7,2.7,0,0,1-1.072.971,3.3,3.3,0,0,1-1.512.338,3.005,3.005,0,0,1-2.175-.782,2.918,2.918,0,0,1-.813-2.206V-8.64h1.521v5.476a2.05,2.05,0,0,0,.532,1.547,1.882,1.882,0,0,0,1.358.51,2.067,2.067,0,0,0,1.534-.6,2.434,2.434,0,0,0,.6-1.767Zm13.447-.167a2.785,2.785,0,0,1,2.013.734,2.722,2.722,0,0,1,.765,2.061V0h-1.521V-5.616a1.952,1.952,0,0,0-.475-1.424,1.616,1.616,0,0,0-1.2-.483,1.706,1.706,0,0,0-1.318.545,2.343,2.343,0,0,0-.5,1.635V0h-1.547V-5.555a2.042,2.042,0,0,0-.479-1.472,1.629,1.629,0,0,0-1.226-.5,1.69,1.69,0,0,0-1.314.558,2.424,2.424,0,0,0-.505,1.674V0h-1.521V-8.64H131.9v1.116a2.625,2.625,0,0,1,.989-.949,2.82,2.82,0,0,1,1.375-.334,2.935,2.935,0,0,1,1.477.365,2.271,2.271,0,0,1,.958,1.05,2.689,2.689,0,0,1,1.037-1.05A2.966,2.966,0,0,1,139.21-8.807Zm13.28,4.315-.018.413h-6.75a3.053,3.053,0,0,0,.826,2.21,2.713,2.713,0,0,0,1.969.769,2.59,2.59,0,0,0,1.433-.413,2.68,2.68,0,0,0,.984-1.143l1.371.29A3.9,3.9,0,0,1,150.829-.51a4.028,4.028,0,0,1-2.294.677,4.174,4.174,0,0,1-3.111-1.2,4.479,4.479,0,0,1-1.187-3.287A4.458,4.458,0,0,1,145.428-7.6a4.122,4.122,0,0,1,3.063-1.2A3.9,3.9,0,0,1,151.4-7.7,4.376,4.376,0,0,1,152.49-4.491Zm-4-3.146a2.694,2.694,0,0,0-1.8.611,2.8,2.8,0,0,0-.91,1.78h5.177a2.567,2.567,0,0,0-.756-1.78A2.441,2.441,0,0,0,148.491-7.638ZM158.95-8.807a3.005,3.005,0,0,1,2.175.782,2.918,2.918,0,0,1,.813,2.206V0h-1.521V-5.476a2.043,2.043,0,0,0-.527-1.547,1.885,1.885,0,0,0-1.354-.5A2.09,2.09,0,0,0,157-6.93a2.407,2.407,0,0,0-.606,1.762V0h-1.521V-8.64h1.521v1.107A2.885,2.885,0,0,1,158.95-8.807ZM167.634,0a2.271,2.271,0,0,1-1.687-.62,2.344,2.344,0,0,1-.615-1.727v-5.08h-1.767V-8.64h.65a1.249,1.249,0,0,0,.954-.3,1.492,1.492,0,0,0,.277-1.015v-1.564h1.415V-8.64h1.986v1.213H166.86V-2.5a1.31,1.31,0,0,0,.33.954,1.154,1.154,0,0,0,.866.338h.791V0Zm5.3.167a2.94,2.94,0,0,1-1.894-.593A2.13,2.13,0,0,1,170.3-2.2a2.517,2.517,0,0,1,.237-1.129,1.991,1.991,0,0,1,.7-.787,4.218,4.218,0,0,1,1.015-.488,9.384,9.384,0,0,1,1.314-.312l1.4-.229q.765-.141.765-.8a1.51,1.51,0,0,0-.541-1.288,2.2,2.2,0,0,0-1.367-.409,2.243,2.243,0,0,0-1.354.4,1.655,1.655,0,0,0-.642,1.213l-1.371-.29a2.639,2.639,0,0,1,1.081-1.85,4.039,4.039,0,0,1,2.355-.62,4.777,4.777,0,0,1,1.252.154,3.4,3.4,0,0,1,1.046.483,2.168,2.168,0,0,1,.747.932,3.466,3.466,0,0,1,.268,1.419v3.568a1.46,1.46,0,0,0,.2.9.854.854,0,0,0,.681.233h.141V0h-.756a1.442,1.442,0,0,1-1.635-1.169h-.07A3.3,3.3,0,0,1,172.934.167Zm.352-1.23A2.305,2.305,0,0,0,175.14-1.9a3.438,3.438,0,0,0,.7-2.285l-2.285.439a3.076,3.076,0,0,0-1.34.479,1.114,1.114,0,0,0-.435.945,1.1,1.1,0,0,0,.417.949A1.785,1.785,0,0,0,173.285-1.063Z" transform="translate(578.307 2664)" fill="#00223d"/>
        <path id="Trazado_23873" data-name="Trazado 23873" d="M9.888,0,8.824-2.962h-5.6L2.171,0H.527L5.089-12.375H6.97L11.531,0ZM3.727-4.351H8.332l-2.3-6.442ZM17.684-8.807a3.005,3.005,0,0,1,2.175.782,2.918,2.918,0,0,1,.813,2.206V0H19.151V-5.476a2.043,2.043,0,0,0-.527-1.547,1.885,1.885,0,0,0-1.354-.5,2.09,2.09,0,0,0-1.538.593,2.407,2.407,0,0,0-.606,1.762V0H13.605V-8.64h1.521v1.107A2.885,2.885,0,0,1,17.684-8.807ZM26.367,0A2.271,2.271,0,0,1,24.68-.62a2.344,2.344,0,0,1-.615-1.727v-5.08H22.3V-8.64h.65a1.249,1.249,0,0,0,.954-.3,1.492,1.492,0,0,0,.277-1.015v-1.564h1.415V-8.64H27.58v1.213H25.594V-2.5a1.31,1.31,0,0,0,.33.954,1.154,1.154,0,0,0,.866.338h.791V0ZM37.23-4.491l-.018.413h-6.75a3.053,3.053,0,0,0,.826,2.21,2.713,2.713,0,0,0,1.969.769,2.59,2.59,0,0,0,1.433-.413,2.68,2.68,0,0,0,.984-1.143l1.371.29A3.9,3.9,0,0,1,35.569-.51a4.028,4.028,0,0,1-2.294.677,4.174,4.174,0,0,1-3.111-1.2,4.479,4.479,0,0,1-1.187-3.287A4.458,4.458,0,0,1,30.168-7.6a4.122,4.122,0,0,1,3.063-1.2,3.9,3.9,0,0,1,2.9,1.107A4.376,4.376,0,0,1,37.23-4.491Zm-4-3.146a2.694,2.694,0,0,0-1.8.611,2.8,2.8,0,0,0-.91,1.78H35.7a2.567,2.567,0,0,0-.756-1.78A2.441,2.441,0,0,0,33.231-7.638ZM43.2.158A4.161,4.161,0,0,1,40.1-1.081a4.421,4.421,0,0,1-1.222-3.243A4.43,4.43,0,0,1,40.1-7.567a4.158,4.158,0,0,1,3.1-1.239,4.191,4.191,0,0,1,2.5.756,3.815,3.815,0,0,1,1.455,2.1l-1.424.229a2.63,2.63,0,0,0-.976-1.345,2.656,2.656,0,0,0-1.564-.475,2.554,2.554,0,0,0-2,.888A3.382,3.382,0,0,0,40.4-4.324,3.365,3.365,0,0,0,41.19-2a2.56,2.56,0,0,0,2,.883,2.656,2.656,0,0,0,1.564-.475,2.63,2.63,0,0,0,.976-1.345l1.424.237A3.819,3.819,0,0,1,45.69-.6,4.185,4.185,0,0,1,43.2.158ZM56.953-4.491l-.018.413h-6.75a3.053,3.053,0,0,0,.826,2.21A2.713,2.713,0,0,0,52.98-1.1a2.59,2.59,0,0,0,1.433-.413A2.68,2.68,0,0,0,55.4-2.654l1.371.29A3.9,3.9,0,0,1,55.292-.51,4.028,4.028,0,0,1,53,.167a4.174,4.174,0,0,1-3.111-1.2A4.479,4.479,0,0,1,48.7-4.324,4.458,4.458,0,0,1,49.891-7.6a4.122,4.122,0,0,1,3.063-1.2,3.9,3.9,0,0,1,2.9,1.107A4.376,4.376,0,0,1,56.953-4.491Zm-4-3.146a2.694,2.694,0,0,0-1.8.611,2.8,2.8,0,0,0-.91,1.78h5.177a2.567,2.567,0,0,0-.756-1.78A2.441,2.441,0,0,0,52.954-7.638ZM65.716-13.5h1.521V0H65.769l-.035-1.679A3.179,3.179,0,0,1,64.5-.316a3.429,3.429,0,0,1-1.828.5A3.883,3.883,0,0,1,61.11-.136a3.92,3.92,0,0,1-1.288-.9,4.16,4.16,0,0,1-.87-1.428,5.225,5.225,0,0,1-.321-1.854,4.543,4.543,0,0,1,1.173-3.243,3.788,3.788,0,0,1,2.87-1.248,3.443,3.443,0,0,1,1.806.488A3.2,3.2,0,0,1,65.716-7ZM62.991-1.134A2.587,2.587,0,0,0,65-2.043a3.283,3.283,0,0,0,.813-2.272A3.277,3.277,0,0,0,65-6.583a2.586,2.586,0,0,0-2-.914,2.644,2.644,0,0,0-2.021.883,3.25,3.25,0,0,0-.817,2.3,3.25,3.25,0,0,0,.817,2.3A2.644,2.644,0,0,0,62.991-1.134Zm14.9-3.357-.018.413h-6.75a3.053,3.053,0,0,0,.826,2.21,2.713,2.713,0,0,0,1.969.769,2.59,2.59,0,0,0,1.433-.413,2.68,2.68,0,0,0,.984-1.143l1.371.29A3.9,3.9,0,0,1,76.228-.51a4.028,4.028,0,0,1-2.294.677,4.174,4.174,0,0,1-3.111-1.2,4.479,4.479,0,0,1-1.187-3.287A4.458,4.458,0,0,1,70.827-7.6a4.122,4.122,0,0,1,3.063-1.2,3.9,3.9,0,0,1,2.9,1.107A4.376,4.376,0,0,1,77.889-4.491Zm-4-3.146a2.694,2.694,0,0,0-1.8.611,2.8,2.8,0,0,0-.91,1.78h5.177a2.567,2.567,0,0,0-.756-1.78A2.441,2.441,0,0,0,73.89-7.638ZM84.349-8.807a3.005,3.005,0,0,1,2.175.782,2.918,2.918,0,0,1,.813,2.206V0H85.816V-5.476a2.043,2.043,0,0,0-.527-1.547,1.885,1.885,0,0,0-1.354-.5A2.09,2.09,0,0,0,82.4-6.93a2.407,2.407,0,0,0-.606,1.762V0H80.271V-8.64h1.521v1.107A2.885,2.885,0,0,1,84.349-8.807ZM93.032,0a2.271,2.271,0,0,1-1.687-.62,2.344,2.344,0,0,1-.615-1.727v-5.08H88.963V-8.64h.65a1.249,1.249,0,0,0,.954-.3,1.492,1.492,0,0,0,.277-1.015v-1.564h1.415V-8.64h1.986v1.213H92.259V-2.5a1.31,1.31,0,0,0,.33.954,1.154,1.154,0,0,0,.866.338h.791V0ZM103.9-4.491l-.018.413h-6.75a3.053,3.053,0,0,0,.826,2.21,2.713,2.713,0,0,0,1.969.769,2.59,2.59,0,0,0,1.433-.413,2.68,2.68,0,0,0,.984-1.143l1.371.29A3.9,3.9,0,0,1,102.234-.51,4.028,4.028,0,0,1,99.94.167a4.174,4.174,0,0,1-3.111-1.2,4.479,4.479,0,0,1-1.187-3.287A4.458,4.458,0,0,1,96.833-7.6a4.122,4.122,0,0,1,3.063-1.2A3.9,3.9,0,0,1,102.8-7.7,4.376,4.376,0,0,1,103.9-4.491Zm-4-3.146a2.694,2.694,0,0,0-1.8.611,2.8,2.8,0,0,0-.91,1.78h5.177a2.567,2.567,0,0,0-.756-1.78A2.441,2.441,0,0,0,99.9-7.638ZM117.334-13.5h1.521V0h-1.468l-.035-1.679a3.179,3.179,0,0,1-1.23,1.362,3.429,3.429,0,0,1-1.828.5,3.883,3.883,0,0,1-1.564-.321,3.92,3.92,0,0,1-1.288-.9,4.16,4.16,0,0,1-.87-1.428,5.225,5.225,0,0,1-.321-1.854,4.543,4.543,0,0,1,1.173-3.243,3.788,3.788,0,0,1,2.87-1.248,3.443,3.443,0,0,1,1.806.488A3.2,3.2,0,0,1,117.334-7ZM114.609-1.134a2.587,2.587,0,0,0,2.008-.91,3.283,3.283,0,0,0,.813-2.272,3.277,3.277,0,0,0-.817-2.268,2.586,2.586,0,0,0-2-.914,2.644,2.644,0,0,0-2.021.883,3.25,3.25,0,0,0-.817,2.3,3.25,3.25,0,0,0,.817,2.3A2.644,2.644,0,0,0,114.609-1.134Zm8.112-9.536a.989.989,0,0,1-.725-.3.989.989,0,0,1-.3-.725.975.975,0,0,1,.3-.721,1,1,0,0,1,.725-.3.987.987,0,0,1,.716.3.975.975,0,0,1,.3.721.989.989,0,0,1-.3.725A.979.979,0,0,1,122.722-10.67ZM121.948,0V-8.64h1.529V0ZM129.3.167a4.1,4.1,0,0,1-2.329-.624,2.581,2.581,0,0,1-1.134-1.775l1.327-.378a1.851,1.851,0,0,0,.708,1.2,2.3,2.3,0,0,0,1.419.426,2.832,2.832,0,0,0,.831-.114,1.331,1.331,0,0,0,.637-.426,1.142,1.142,0,0,0,.255-.787,1.147,1.147,0,0,0-.07-.356,1.526,1.526,0,0,0-.141-.286.87.87,0,0,0-.246-.237,3.245,3.245,0,0,0-.3-.185,3.067,3.067,0,0,0-.391-.163q-.259-.092-.417-.141t-.483-.141q-.325-.092-.5-.145a9.372,9.372,0,0,1-.9-.316,3.932,3.932,0,0,1-.729-.417,1.679,1.679,0,0,1-.567-.681,2.3,2.3,0,0,1-.189-.967,2.234,2.234,0,0,1,.422-1.38,2.374,2.374,0,0,1,1.094-.813,4.374,4.374,0,0,1,1.534-.25,3.754,3.754,0,0,1,2.1.563,2.4,2.4,0,0,1,1.05,1.688l-1.248.316a1.655,1.655,0,0,0-.659-1.094,2.1,2.1,0,0,0-1.239-.365,2.139,2.139,0,0,0-1.16.3,1.019,1.019,0,0,0-.483.927.923.923,0,0,0,.127.479,1.521,1.521,0,0,0,.259.338,1.594,1.594,0,0,0,.475.259q.343.136.51.185t.633.163q.088.026.132.035.51.132.831.233a5.105,5.105,0,0,1,.747.316,2.484,2.484,0,0,1,.672.47,2.178,2.178,0,0,1,.422.668,2.358,2.358,0,0,1,.176.932,2.516,2.516,0,0,1-.259,1.165,2.028,2.028,0,0,1-.708.8,3.422,3.422,0,0,1-1.006.435A4.8,4.8,0,0,1,129.3.167ZM143.71-8.807a2.785,2.785,0,0,1,2.013.734,2.722,2.722,0,0,1,.765,2.061V0h-1.521V-5.616a1.952,1.952,0,0,0-.475-1.424,1.616,1.616,0,0,0-1.2-.483,1.706,1.706,0,0,0-1.318.545,2.343,2.343,0,0,0-.5,1.635V0h-1.547V-5.555a2.042,2.042,0,0,0-.479-1.472,1.629,1.629,0,0,0-1.226-.5,1.69,1.69,0,0,0-1.314.558,2.424,2.424,0,0,0-.505,1.674V0h-1.521V-8.64H136.4v1.116a2.625,2.625,0,0,1,.989-.949,2.82,2.82,0,0,1,1.375-.334,2.935,2.935,0,0,1,1.477.365,2.271,2.271,0,0,1,.958,1.05,2.689,2.689,0,0,1,1.037-1.05A2.966,2.966,0,0,1,143.71-8.807Zm6.5-1.863a.989.989,0,0,1-.725-.3.989.989,0,0,1-.3-.725.975.975,0,0,1,.3-.721,1,1,0,0,1,.725-.3.987.987,0,0,1,.716.3.975.975,0,0,1,.3.721.989.989,0,0,1-.3.725A.979.979,0,0,1,150.205-10.67ZM149.432,0V-8.64h1.529V0Zm8.7-8.807a3.005,3.005,0,0,1,2.175.782,2.918,2.918,0,0,1,.813,2.206V0H159.6V-5.476a2.043,2.043,0,0,0-.527-1.547,1.885,1.885,0,0,0-1.354-.5,2.09,2.09,0,0,0-1.538.593,2.407,2.407,0,0,0-.606,1.762V0h-1.521V-8.64h1.521v1.107A2.885,2.885,0,0,1,158.133-8.807Zm11.3.167h1.521V0H169.5l-.035-1.143a2.7,2.7,0,0,1-1.072.971,3.3,3.3,0,0,1-1.512.338A3.005,3.005,0,0,1,164.7-.615a2.918,2.918,0,0,1-.813-2.206V-8.64h1.521v5.476a2.05,2.05,0,0,0,.532,1.547,1.882,1.882,0,0,0,1.358.51,2.067,2.067,0,0,0,1.534-.6,2.434,2.434,0,0,0,.6-1.767Zm9.94,0h1.608l-5,12.709H174.41l1.731-4.28L172.784-8.64h1.688l2.435,6.724Zm10.652,4.148-.018.413h-6.75a3.053,3.053,0,0,0,.826,2.21,2.713,2.713,0,0,0,1.969.769,2.59,2.59,0,0,0,1.433-.413,2.68,2.68,0,0,0,.984-1.143l1.371.29A3.9,3.9,0,0,1,188.367-.51a4.028,4.028,0,0,1-2.294.677,4.174,4.174,0,0,1-3.111-1.2,4.479,4.479,0,0,1-1.187-3.287A4.458,4.458,0,0,1,182.966-7.6a4.122,4.122,0,0,1,3.063-1.2,3.9,3.9,0,0,1,2.9,1.107A4.376,4.376,0,0,1,190.028-4.491Zm-4-3.146a2.694,2.694,0,0,0-1.8.611,2.8,2.8,0,0,0-.91,1.78H188.5a2.567,2.567,0,0,0-.756-1.78A2.441,2.441,0,0,0,186.029-7.638Z" transform="translate(578.307 2764)" fill="#00223d"/>
        <path id="Trazado_23874" data-name="Trazado 23874" d="M7.242.167A6.574,6.574,0,0,1,4.808-.277,5.879,5.879,0,0,1,2.852-1.525a5.567,5.567,0,0,1-1.3-2.008A7.263,7.263,0,0,1,1.081-6.2a7.144,7.144,0,0,1,.475-2.65,5.7,5.7,0,0,1,1.3-2.008A5.741,5.741,0,0,1,4.808-12.1a6.633,6.633,0,0,1,2.435-.439,6.287,6.287,0,0,1,3.292.87,5.421,5.421,0,0,1,2.175,2.417l-1.45.6a4.075,4.075,0,0,0-1.622-1.762,4.654,4.654,0,0,0-2.4-.62,4.921,4.921,0,0,0-1.8.325,4.317,4.317,0,0,0-1.459.932A4.206,4.206,0,0,0,3-8.253,5.674,5.674,0,0,0,2.646-6.2,5.71,5.71,0,0,0,3-4.135,4.2,4.2,0,0,0,3.981-2.6a4.374,4.374,0,0,0,1.459.936,4.863,4.863,0,0,0,1.8.33,4.654,4.654,0,0,0,2.4-.62,4.085,4.085,0,0,0,1.622-1.753l1.45.589A5.394,5.394,0,0,1,10.538-.7,6.305,6.305,0,0,1,7.242.167Zm11.408,0a4.554,4.554,0,0,1-2.215-.536,3.9,3.9,0,0,1-1.56-1.569A4.819,4.819,0,0,1,14.3-4.324a4.4,4.4,0,0,1,1.226-3.256A4.232,4.232,0,0,1,18.65-8.807a4.228,4.228,0,0,1,3.129,1.226A4.41,4.41,0,0,1,23-4.324a4.413,4.413,0,0,1-1.226,3.265A4.232,4.232,0,0,1,18.65.167ZM18.642-1.1a2.654,2.654,0,0,0,2.043-.888A3.326,3.326,0,0,0,21.5-4.324a3.314,3.314,0,0,0-.813-2.329,2.654,2.654,0,0,0-2.043-.888,2.617,2.617,0,0,0-2.026.888,3.336,3.336,0,0,0-.8,2.329,3.348,3.348,0,0,0,.8,2.338A2.617,2.617,0,0,0,18.642-1.1ZM29.461-8.807a3.005,3.005,0,0,1,2.175.782,2.918,2.918,0,0,1,.813,2.206V0H30.929V-5.476A2.043,2.043,0,0,0,30.4-7.022a1.885,1.885,0,0,0-1.354-.5,2.09,2.09,0,0,0-1.538.593A2.407,2.407,0,0,0,26.9-5.168V0H25.383V-8.64H26.9v1.107A2.885,2.885,0,0,1,29.461-8.807ZM38.118.167a4.1,4.1,0,0,1-2.329-.624,2.581,2.581,0,0,1-1.134-1.775l1.327-.378a1.851,1.851,0,0,0,.708,1.2,2.3,2.3,0,0,0,1.419.426A2.832,2.832,0,0,0,38.94-1.1a1.331,1.331,0,0,0,.637-.426,1.142,1.142,0,0,0,.255-.787,1.147,1.147,0,0,0-.07-.356,1.526,1.526,0,0,0-.141-.286.87.87,0,0,0-.246-.237,3.245,3.245,0,0,0-.3-.185,3.067,3.067,0,0,0-.391-.163q-.259-.092-.417-.141t-.483-.141q-.325-.092-.5-.145a9.372,9.372,0,0,1-.9-.316,3.932,3.932,0,0,1-.729-.417,1.679,1.679,0,0,1-.567-.681,2.3,2.3,0,0,1-.189-.967,2.234,2.234,0,0,1,.422-1.38,2.374,2.374,0,0,1,1.094-.813,4.374,4.374,0,0,1,1.534-.25,3.754,3.754,0,0,1,2.1.563,2.4,2.4,0,0,1,1.05,1.688l-1.248.316A1.655,1.655,0,0,0,39.2-7.317a2.1,2.1,0,0,0-1.239-.365,2.139,2.139,0,0,0-1.16.3,1.019,1.019,0,0,0-.483.927.923.923,0,0,0,.127.479,1.521,1.521,0,0,0,.259.338,1.594,1.594,0,0,0,.475.259q.343.136.51.185t.633.163q.088.026.132.035.51.132.831.233a5.105,5.105,0,0,1,.747.316,2.484,2.484,0,0,1,.672.47,2.178,2.178,0,0,1,.422.668,2.358,2.358,0,0,1,.176.932,2.516,2.516,0,0,1-.259,1.165,2.028,2.028,0,0,1-.708.8,3.422,3.422,0,0,1-1.006.435A4.8,4.8,0,0,1,38.118.167ZM51.249-4.491l-.018.413h-6.75a3.053,3.053,0,0,0,.826,2.21,2.713,2.713,0,0,0,1.969.769,2.59,2.59,0,0,0,1.433-.413,2.68,2.68,0,0,0,.984-1.143l1.371.29A3.9,3.9,0,0,1,49.588-.51a4.028,4.028,0,0,1-2.294.677,4.174,4.174,0,0,1-3.111-1.2A4.479,4.479,0,0,1,43-4.324,4.458,4.458,0,0,1,44.187-7.6a4.122,4.122,0,0,1,3.063-1.2,3.9,3.9,0,0,1,2.9,1.107A4.376,4.376,0,0,1,51.249-4.491Zm-4-3.146a2.694,2.694,0,0,0-1.8.611,2.8,2.8,0,0,0-.91,1.78H49.72a2.567,2.567,0,0,0-.756-1.78A2.441,2.441,0,0,0,47.25-7.638Zm9.967,7.8a4.161,4.161,0,0,1-3.094-1.239A4.421,4.421,0,0,1,52.9-4.324a4.43,4.43,0,0,1,1.217-3.243,4.158,4.158,0,0,1,3.1-1.239,4.191,4.191,0,0,1,2.5.756,3.815,3.815,0,0,1,1.455,2.1l-1.424.229a2.63,2.63,0,0,0-.976-1.345,2.656,2.656,0,0,0-1.564-.475,2.554,2.554,0,0,0-2,.888,3.382,3.382,0,0,0-.787,2.329A3.365,3.365,0,0,0,55.208-2a2.56,2.56,0,0,0,2,.883,2.656,2.656,0,0,0,1.564-.475,2.63,2.63,0,0,0,.976-1.345l1.424.237A3.819,3.819,0,0,1,59.708-.6,4.185,4.185,0,0,1,57.217.158Zm11.575-8.8h1.521V0H68.854l-.035-1.143a2.7,2.7,0,0,1-1.072.971,3.3,3.3,0,0,1-1.512.338,3.005,3.005,0,0,1-2.175-.782,2.918,2.918,0,0,1-.813-2.206V-8.64h1.521v5.476A2.05,2.05,0,0,0,65.3-1.617a1.882,1.882,0,0,0,1.358.51,2.067,2.067,0,0,0,1.534-.6,2.434,2.434,0,0,0,.6-1.767ZM80.965-4.491l-.018.413H74.2a3.053,3.053,0,0,0,.826,2.21,2.713,2.713,0,0,0,1.969.769,2.59,2.59,0,0,0,1.433-.413,2.68,2.68,0,0,0,.984-1.143l1.371.29A3.9,3.9,0,0,1,79.3-.51,4.028,4.028,0,0,1,77.01.167a4.174,4.174,0,0,1-3.111-1.2,4.479,4.479,0,0,1-1.187-3.287A4.458,4.458,0,0,1,73.9-7.6a4.122,4.122,0,0,1,3.063-1.2,3.9,3.9,0,0,1,2.9,1.107A4.376,4.376,0,0,1,80.965-4.491Zm-4-3.146a2.694,2.694,0,0,0-1.8.611,2.8,2.8,0,0,0-.91,1.78h5.177a2.567,2.567,0,0,0-.756-1.78A2.441,2.441,0,0,0,76.966-7.638ZM87.425-8.807a3.005,3.005,0,0,1,2.175.782,2.918,2.918,0,0,1,.813,2.206V0H88.893V-5.476a2.043,2.043,0,0,0-.527-1.547,1.885,1.885,0,0,0-1.354-.5,2.09,2.09,0,0,0-1.538.593,2.407,2.407,0,0,0-.606,1.762V0H83.347V-8.64h1.521v1.107A2.885,2.885,0,0,1,87.425-8.807ZM96.108,0a2.271,2.271,0,0,1-1.687-.62,2.344,2.344,0,0,1-.615-1.727v-5.08H92.039V-8.64h.65a1.249,1.249,0,0,0,.954-.3,1.492,1.492,0,0,0,.277-1.015v-1.564h1.415V-8.64h1.986v1.213H95.335V-2.5a1.31,1.31,0,0,0,.33.954,1.154,1.154,0,0,0,.866.338h.791V0Zm10.863-4.491-.018.413H100.2a3.053,3.053,0,0,0,.826,2.21A2.713,2.713,0,0,0,103-1.1a2.59,2.59,0,0,0,1.433-.413,2.68,2.68,0,0,0,.984-1.143l1.371.29A3.9,3.9,0,0,1,105.311-.51a4.028,4.028,0,0,1-2.294.677,4.174,4.174,0,0,1-3.111-1.2,4.479,4.479,0,0,1-1.187-3.287A4.458,4.458,0,0,1,99.91-7.6a4.122,4.122,0,0,1,3.063-1.2,3.9,3.9,0,0,1,2.9,1.107A4.376,4.376,0,0,1,106.972-4.491Zm-4-3.146a2.694,2.694,0,0,0-1.8.611,2.8,2.8,0,0,0-.91,1.78h5.177a2.567,2.567,0,0,0-.756-1.78A2.441,2.441,0,0,0,102.973-7.638ZM120.41-13.5h1.521V0h-1.468l-.035-1.679A3.179,3.179,0,0,1,119.2-.316a3.429,3.429,0,0,1-1.828.5A3.883,3.883,0,0,1,115.8-.136a3.92,3.92,0,0,1-1.288-.9,4.16,4.16,0,0,1-.87-1.428,5.225,5.225,0,0,1-.321-1.854A4.543,4.543,0,0,1,114.5-7.559a3.788,3.788,0,0,1,2.87-1.248,3.443,3.443,0,0,1,1.806.488A3.2,3.2,0,0,1,120.41-7ZM117.686-1.134a2.587,2.587,0,0,0,2.008-.91,3.283,3.283,0,0,0,.813-2.272,3.277,3.277,0,0,0-.817-2.268,2.586,2.586,0,0,0-2-.914,2.644,2.644,0,0,0-2.021.883,3.25,3.25,0,0,0-.817,2.3,3.25,3.25,0,0,0,.817,2.3A2.644,2.644,0,0,0,117.686-1.134ZM125.8-10.67a.989.989,0,0,1-.725-.3.989.989,0,0,1-.3-.725.975.975,0,0,1,.3-.721,1,1,0,0,1,.725-.3.987.987,0,0,1,.716.3.975.975,0,0,1,.3.721.989.989,0,0,1-.3.725A.979.979,0,0,1,125.8-10.67ZM125.024,0V-8.64h1.529V0Zm7.356.167a4.1,4.1,0,0,1-2.329-.624,2.581,2.581,0,0,1-1.134-1.775l1.327-.378a1.851,1.851,0,0,0,.708,1.2,2.3,2.3,0,0,0,1.419.426A2.832,2.832,0,0,0,133.2-1.1a1.331,1.331,0,0,0,.637-.426,1.142,1.142,0,0,0,.255-.787,1.147,1.147,0,0,0-.07-.356,1.526,1.526,0,0,0-.141-.286.87.87,0,0,0-.246-.237,3.245,3.245,0,0,0-.3-.185,3.067,3.067,0,0,0-.391-.163q-.259-.092-.417-.141t-.483-.141q-.325-.092-.5-.145a9.372,9.372,0,0,1-.9-.316,3.932,3.932,0,0,1-.729-.417,1.679,1.679,0,0,1-.567-.681,2.3,2.3,0,0,1-.189-.967,2.234,2.234,0,0,1,.422-1.38,2.374,2.374,0,0,1,1.094-.813,4.374,4.374,0,0,1,1.534-.25,3.754,3.754,0,0,1,2.1.563,2.4,2.4,0,0,1,1.05,1.688l-1.248.316a1.655,1.655,0,0,0-.659-1.094,2.1,2.1,0,0,0-1.239-.365,2.139,2.139,0,0,0-1.16.3,1.019,1.019,0,0,0-.483.927.923.923,0,0,0,.127.479,1.521,1.521,0,0,0,.259.338,1.594,1.594,0,0,0,.475.259q.343.136.51.185t.633.163q.088.026.132.035.51.132.831.233a5.105,5.105,0,0,1,.747.316,2.484,2.484,0,0,1,.672.47,2.178,2.178,0,0,1,.422.668,2.358,2.358,0,0,1,.176.932,2.516,2.516,0,0,1-.259,1.165,2.028,2.028,0,0,1-.708.8,3.422,3.422,0,0,1-1.006.435A4.8,4.8,0,0,1,132.381.167Zm14.405-8.974a2.785,2.785,0,0,1,2.013.734,2.722,2.722,0,0,1,.765,2.061V0h-1.521V-5.616a1.952,1.952,0,0,0-.475-1.424,1.616,1.616,0,0,0-1.2-.483,1.706,1.706,0,0,0-1.318.545,2.343,2.343,0,0,0-.5,1.635V0H143V-5.555a2.042,2.042,0,0,0-.479-1.472,1.629,1.629,0,0,0-1.226-.5,1.69,1.69,0,0,0-1.314.558,2.424,2.424,0,0,0-.505,1.674V0h-1.521V-8.64h1.521v1.116a2.625,2.625,0,0,1,.989-.949,2.82,2.82,0,0,1,1.375-.334,2.935,2.935,0,0,1,1.477.365,2.271,2.271,0,0,1,.958,1.05,2.689,2.689,0,0,1,1.037-1.05A2.966,2.966,0,0,1,146.786-8.807Zm6.5-1.863a.989.989,0,0,1-.725-.3.989.989,0,0,1-.3-.725.975.975,0,0,1,.3-.721,1,1,0,0,1,.725-.3.987.987,0,0,1,.716.3.975.975,0,0,1,.3.721.989.989,0,0,1-.3.725A.979.979,0,0,1,153.281-10.67ZM152.508,0V-8.64h1.529V0Zm8.7-8.807a3.005,3.005,0,0,1,2.175.782,2.918,2.918,0,0,1,.813,2.206V0h-1.521V-5.476a2.043,2.043,0,0,0-.527-1.547,1.885,1.885,0,0,0-1.354-.5,2.09,2.09,0,0,0-1.538.593,2.407,2.407,0,0,0-.606,1.762V0h-1.521V-8.64h1.521v1.107A2.885,2.885,0,0,1,161.209-8.807Zm11.3.167h1.521V0h-1.459l-.035-1.143a2.7,2.7,0,0,1-1.072.971,3.3,3.3,0,0,1-1.512.338,3.005,3.005,0,0,1-2.175-.782,2.918,2.918,0,0,1-.813-2.206V-8.64h1.521v5.476a2.05,2.05,0,0,0,.532,1.547,1.882,1.882,0,0,0,1.358.51,2.067,2.067,0,0,0,1.534-.6,2.434,2.434,0,0,0,.6-1.767Zm9.94,0h1.608l-5,12.709h-1.573l1.731-4.28L175.86-8.64h1.688l2.435,6.724ZM193.1-4.491l-.018.413h-6.75a3.053,3.053,0,0,0,.826,2.21,2.713,2.713,0,0,0,1.969.769,2.59,2.59,0,0,0,1.433-.413,2.68,2.68,0,0,0,.984-1.143l1.371.29A3.9,3.9,0,0,1,191.443-.51a4.028,4.028,0,0,1-2.294.677,4.174,4.174,0,0,1-3.111-1.2,4.479,4.479,0,0,1-1.187-3.287A4.458,4.458,0,0,1,186.042-7.6a4.122,4.122,0,0,1,3.063-1.2,3.9,3.9,0,0,1,2.9,1.107A4.376,4.376,0,0,1,193.1-4.491Zm-4-3.146a2.694,2.694,0,0,0-1.8.611,2.8,2.8,0,0,0-.91,1.78h5.177a2.567,2.567,0,0,0-.756-1.78A2.441,2.441,0,0,0,189.105-7.638Z" transform="translate(578.307 2709)" fill="#00223d"/>
        <path id="Trazado_23875" data-name="Trazado 23875" d="M7.242.167A6.574,6.574,0,0,1,4.808-.277,5.879,5.879,0,0,1,2.852-1.525a5.567,5.567,0,0,1-1.3-2.008A7.263,7.263,0,0,1,1.081-6.2a7.144,7.144,0,0,1,.475-2.65,5.7,5.7,0,0,1,1.3-2.008A5.741,5.741,0,0,1,4.808-12.1a6.633,6.633,0,0,1,2.435-.439,6.287,6.287,0,0,1,3.292.87,5.421,5.421,0,0,1,2.175,2.417l-1.45.6a4.075,4.075,0,0,0-1.622-1.762,4.654,4.654,0,0,0-2.4-.62,4.921,4.921,0,0,0-1.8.325,4.317,4.317,0,0,0-1.459.932A4.206,4.206,0,0,0,3-8.253,5.674,5.674,0,0,0,2.646-6.2,5.71,5.71,0,0,0,3-4.135,4.2,4.2,0,0,0,3.981-2.6a4.374,4.374,0,0,0,1.459.936,4.863,4.863,0,0,0,1.8.33,4.654,4.654,0,0,0,2.4-.62,4.085,4.085,0,0,0,1.622-1.753l1.45.589A5.394,5.394,0,0,1,10.538-.7,6.305,6.305,0,0,1,7.242.167Zm11.408,0a4.554,4.554,0,0,1-2.215-.536,3.9,3.9,0,0,1-1.56-1.569A4.819,4.819,0,0,1,14.3-4.324a4.4,4.4,0,0,1,1.226-3.256A4.232,4.232,0,0,1,18.65-8.807a4.228,4.228,0,0,1,3.129,1.226A4.41,4.41,0,0,1,23-4.324a4.413,4.413,0,0,1-1.226,3.265A4.232,4.232,0,0,1,18.65.167ZM18.642-1.1a2.654,2.654,0,0,0,2.043-.888A3.326,3.326,0,0,0,21.5-4.324a3.314,3.314,0,0,0-.813-2.329,2.654,2.654,0,0,0-2.043-.888,2.617,2.617,0,0,0-2.026.888,3.336,3.336,0,0,0-.8,2.329,3.348,3.348,0,0,0,.8,2.338A2.617,2.617,0,0,0,18.642-1.1ZM29.461-8.807a3.005,3.005,0,0,1,2.175.782,2.918,2.918,0,0,1,.813,2.206V0H30.929V-5.476A2.043,2.043,0,0,0,30.4-7.022a1.885,1.885,0,0,0-1.354-.5,2.09,2.09,0,0,0-1.538.593A2.407,2.407,0,0,0,26.9-5.168V0H25.383V-8.64H26.9v1.107A2.885,2.885,0,0,1,29.461-8.807ZM38.118.167a4.1,4.1,0,0,1-2.329-.624,2.581,2.581,0,0,1-1.134-1.775l1.327-.378a1.851,1.851,0,0,0,.708,1.2,2.3,2.3,0,0,0,1.419.426A2.832,2.832,0,0,0,38.94-1.1a1.331,1.331,0,0,0,.637-.426,1.142,1.142,0,0,0,.255-.787,1.147,1.147,0,0,0-.07-.356,1.526,1.526,0,0,0-.141-.286.87.87,0,0,0-.246-.237,3.245,3.245,0,0,0-.3-.185,3.067,3.067,0,0,0-.391-.163q-.259-.092-.417-.141t-.483-.141q-.325-.092-.5-.145a9.372,9.372,0,0,1-.9-.316,3.932,3.932,0,0,1-.729-.417,1.679,1.679,0,0,1-.567-.681,2.3,2.3,0,0,1-.189-.967,2.234,2.234,0,0,1,.422-1.38,2.374,2.374,0,0,1,1.094-.813,4.374,4.374,0,0,1,1.534-.25,3.754,3.754,0,0,1,2.1.563,2.4,2.4,0,0,1,1.05,1.688l-1.248.316A1.655,1.655,0,0,0,39.2-7.317a2.1,2.1,0,0,0-1.239-.365,2.139,2.139,0,0,0-1.16.3,1.019,1.019,0,0,0-.483.927.923.923,0,0,0,.127.479,1.521,1.521,0,0,0,.259.338,1.594,1.594,0,0,0,.475.259q.343.136.51.185t.633.163q.088.026.132.035.51.132.831.233a5.105,5.105,0,0,1,.747.316,2.484,2.484,0,0,1,.672.47,2.178,2.178,0,0,1,.422.668,2.358,2.358,0,0,1,.176.932,2.516,2.516,0,0,1-.259,1.165,2.028,2.028,0,0,1-.708.8,3.422,3.422,0,0,1-1.006.435A4.8,4.8,0,0,1,38.118.167ZM51.249-4.491l-.018.413h-6.75a3.053,3.053,0,0,0,.826,2.21,2.713,2.713,0,0,0,1.969.769,2.59,2.59,0,0,0,1.433-.413,2.68,2.68,0,0,0,.984-1.143l1.371.29A3.9,3.9,0,0,1,49.588-.51a4.028,4.028,0,0,1-2.294.677,4.174,4.174,0,0,1-3.111-1.2A4.479,4.479,0,0,1,43-4.324,4.458,4.458,0,0,1,44.187-7.6a4.122,4.122,0,0,1,3.063-1.2,3.9,3.9,0,0,1,2.9,1.107A4.376,4.376,0,0,1,51.249-4.491Zm-4-3.146a2.694,2.694,0,0,0-1.8.611,2.8,2.8,0,0,0-.91,1.78H49.72a2.567,2.567,0,0,0-.756-1.78A2.441,2.441,0,0,0,47.25-7.638Zm9.967,7.8a4.161,4.161,0,0,1-3.094-1.239A4.421,4.421,0,0,1,52.9-4.324a4.43,4.43,0,0,1,1.217-3.243,4.158,4.158,0,0,1,3.1-1.239,4.191,4.191,0,0,1,2.5.756,3.815,3.815,0,0,1,1.455,2.1l-1.424.229a2.63,2.63,0,0,0-.976-1.345,2.656,2.656,0,0,0-1.564-.475,2.554,2.554,0,0,0-2,.888,3.382,3.382,0,0,0-.787,2.329A3.365,3.365,0,0,0,55.208-2a2.56,2.56,0,0,0,2,.883,2.656,2.656,0,0,0,1.564-.475,2.63,2.63,0,0,0,.976-1.345l1.424.237A3.819,3.819,0,0,1,59.708-.6,4.185,4.185,0,0,1,57.217.158Zm11.575-8.8h1.521V0H68.854l-.035-1.143a2.7,2.7,0,0,1-1.072.971,3.3,3.3,0,0,1-1.512.338,3.005,3.005,0,0,1-2.175-.782,2.918,2.918,0,0,1-.813-2.206V-8.64h1.521v5.476A2.05,2.05,0,0,0,65.3-1.617a1.882,1.882,0,0,0,1.358.51,2.067,2.067,0,0,0,1.534-.6,2.434,2.434,0,0,0,.6-1.767ZM80.965-4.491l-.018.413H74.2a3.053,3.053,0,0,0,.826,2.21,2.713,2.713,0,0,0,1.969.769,2.59,2.59,0,0,0,1.433-.413,2.68,2.68,0,0,0,.984-1.143l1.371.29A3.9,3.9,0,0,1,79.3-.51,4.028,4.028,0,0,1,77.01.167a4.174,4.174,0,0,1-3.111-1.2,4.479,4.479,0,0,1-1.187-3.287A4.458,4.458,0,0,1,73.9-7.6a4.122,4.122,0,0,1,3.063-1.2,3.9,3.9,0,0,1,2.9,1.107A4.376,4.376,0,0,1,80.965-4.491Zm-4-3.146a2.694,2.694,0,0,0-1.8.611,2.8,2.8,0,0,0-.91,1.78h5.177a2.567,2.567,0,0,0-.756-1.78A2.441,2.441,0,0,0,76.966-7.638ZM87.425-8.807a3.005,3.005,0,0,1,2.175.782,2.918,2.918,0,0,1,.813,2.206V0H88.893V-5.476a2.043,2.043,0,0,0-.527-1.547,1.885,1.885,0,0,0-1.354-.5,2.09,2.09,0,0,0-1.538.593,2.407,2.407,0,0,0-.606,1.762V0H83.347V-8.64h1.521v1.107A2.885,2.885,0,0,1,87.425-8.807ZM96.108,0a2.271,2.271,0,0,1-1.687-.62,2.344,2.344,0,0,1-.615-1.727v-5.08H92.039V-8.64h.65a1.249,1.249,0,0,0,.954-.3,1.492,1.492,0,0,0,.277-1.015v-1.564h1.415V-8.64h1.986v1.213H95.335V-2.5a1.31,1.31,0,0,0,.33.954,1.154,1.154,0,0,0,.866.338h.791V0Zm10.863-4.491-.018.413H100.2a3.053,3.053,0,0,0,.826,2.21A2.713,2.713,0,0,0,103-1.1a2.59,2.59,0,0,0,1.433-.413,2.68,2.68,0,0,0,.984-1.143l1.371.29A3.9,3.9,0,0,1,105.311-.51a4.028,4.028,0,0,1-2.294.677,4.174,4.174,0,0,1-3.111-1.2,4.479,4.479,0,0,1-1.187-3.287A4.458,4.458,0,0,1,99.91-7.6a4.122,4.122,0,0,1,3.063-1.2,3.9,3.9,0,0,1,2.9,1.107A4.376,4.376,0,0,1,106.972-4.491Zm-4-3.146a2.694,2.694,0,0,0-1.8.611,2.8,2.8,0,0,0-.91,1.78h5.177a2.567,2.567,0,0,0-.756-1.78A2.441,2.441,0,0,0,102.973-7.638Zm13.052,7.8a2.94,2.94,0,0,1-1.894-.593,2.13,2.13,0,0,1-.743-1.771,2.517,2.517,0,0,1,.237-1.129,1.991,1.991,0,0,1,.7-.787,4.218,4.218,0,0,1,1.015-.488,9.384,9.384,0,0,1,1.314-.312l1.4-.229q.765-.141.765-.8a1.51,1.51,0,0,0-.541-1.288,2.2,2.2,0,0,0-1.367-.409,2.243,2.243,0,0,0-1.354.4,1.655,1.655,0,0,0-.642,1.213l-1.371-.29a2.639,2.639,0,0,1,1.081-1.85,4.039,4.039,0,0,1,2.355-.62,4.777,4.777,0,0,1,1.252.154,3.4,3.4,0,0,1,1.046.483,2.168,2.168,0,0,1,.747.932A3.466,3.466,0,0,1,120.3-5.8v3.568a1.46,1.46,0,0,0,.2.9.854.854,0,0,0,.681.233h.141V0h-.756a1.442,1.442,0,0,1-1.635-1.169h-.07A3.3,3.3,0,0,1,116.024.167Zm.352-1.23A2.305,2.305,0,0,0,118.23-1.9a3.438,3.438,0,0,0,.7-2.285l-2.285.439a3.076,3.076,0,0,0-1.34.479,1.114,1.114,0,0,0-.435.945,1.1,1.1,0,0,0,.417.949A1.785,1.785,0,0,0,116.376-1.063ZM128.839-8.64h1.521V0H128.9l-.035-1.143a2.7,2.7,0,0,1-1.072.971,3.3,3.3,0,0,1-1.512.338,3.005,3.005,0,0,1-2.175-.782,2.918,2.918,0,0,1-.813-2.206V-8.64h1.521v5.476a2.05,2.05,0,0,0,.532,1.547,1.882,1.882,0,0,0,1.358.51,2.067,2.067,0,0,0,1.534-.6,2.434,2.434,0,0,0,.6-1.767Zm13.447-.167a2.785,2.785,0,0,1,2.013.734,2.722,2.722,0,0,1,.765,2.061V0h-1.521V-5.616a1.952,1.952,0,0,0-.475-1.424,1.616,1.616,0,0,0-1.2-.483,1.706,1.706,0,0,0-1.318.545,2.343,2.343,0,0,0-.5,1.635V0H138.5V-5.555a2.042,2.042,0,0,0-.479-1.472,1.629,1.629,0,0,0-1.226-.5,1.69,1.69,0,0,0-1.314.558,2.424,2.424,0,0,0-.505,1.674V0h-1.521V-8.64h1.521v1.116a2.625,2.625,0,0,1,.989-.949,2.82,2.82,0,0,1,1.375-.334,2.935,2.935,0,0,1,1.477.365,2.271,2.271,0,0,1,.958,1.05,2.689,2.689,0,0,1,1.037-1.05A2.966,2.966,0,0,1,142.286-8.807Zm13.28,4.315-.018.413H148.8a3.053,3.053,0,0,0,.826,2.21,2.713,2.713,0,0,0,1.969.769,2.59,2.59,0,0,0,1.433-.413,2.68,2.68,0,0,0,.984-1.143l1.371.29A3.9,3.9,0,0,1,153.905-.51a4.028,4.028,0,0,1-2.294.677,4.174,4.174,0,0,1-3.111-1.2,4.479,4.479,0,0,1-1.187-3.287A4.458,4.458,0,0,1,148.5-7.6a4.122,4.122,0,0,1,3.063-1.2,3.9,3.9,0,0,1,2.9,1.107A4.376,4.376,0,0,1,155.566-4.491Zm-4-3.146a2.694,2.694,0,0,0-1.8.611,2.8,2.8,0,0,0-.91,1.78h5.177a2.567,2.567,0,0,0-.756-1.78A2.441,2.441,0,0,0,151.567-7.638Zm10.459-1.169a3.005,3.005,0,0,1,2.175.782,2.918,2.918,0,0,1,.813,2.206V0h-1.521V-5.476a2.043,2.043,0,0,0-.527-1.547,1.885,1.885,0,0,0-1.354-.5,2.09,2.09,0,0,0-1.538.593,2.407,2.407,0,0,0-.606,1.762V0h-1.521V-8.64h1.521v1.107A2.885,2.885,0,0,1,162.026-8.807ZM170.71,0a2.271,2.271,0,0,1-1.687-.62,2.344,2.344,0,0,1-.615-1.727v-5.08h-1.767V-8.64h.65a1.249,1.249,0,0,0,.954-.3,1.492,1.492,0,0,0,.277-1.015v-1.564h1.415V-8.64h1.986v1.213h-1.986V-2.5a1.31,1.31,0,0,0,.33.954,1.154,1.154,0,0,0,.866.338h.791V0Zm5.3.167a2.94,2.94,0,0,1-1.894-.593,2.13,2.13,0,0,1-.743-1.771,2.517,2.517,0,0,1,.237-1.129,1.991,1.991,0,0,1,.7-.787,4.218,4.218,0,0,1,1.015-.488,9.384,9.384,0,0,1,1.314-.312l1.4-.229q.765-.141.765-.8a1.51,1.51,0,0,0-.541-1.288,2.2,2.2,0,0,0-1.367-.409,2.243,2.243,0,0,0-1.354.4,1.655,1.655,0,0,0-.642,1.213l-1.371-.29a2.639,2.639,0,0,1,1.081-1.85,4.039,4.039,0,0,1,2.355-.62,4.777,4.777,0,0,1,1.252.154,3.4,3.4,0,0,1,1.046.483,2.168,2.168,0,0,1,.747.932,3.466,3.466,0,0,1,.268,1.419v3.568a1.46,1.46,0,0,0,.2.9.854.854,0,0,0,.681.233h.141V0h-.756a1.442,1.442,0,0,1-1.635-1.169h-.07A3.3,3.3,0,0,1,176.01.167Zm.352-1.23a2.305,2.305,0,0,0,1.854-.835,3.438,3.438,0,0,0,.7-2.285l-2.285.439a3.076,3.076,0,0,0-1.34.479,1.114,1.114,0,0,0-.435.945,1.1,1.1,0,0,0,.417.949A1.785,1.785,0,0,0,176.361-1.063Z" transform="translate(578.307 2809)" fill="#00223d"/>
        <path id="Trazado_23876" data-name="Trazado 23876" d="M0,0H30.98V1.766H0Z" transform="translate(514.774 2656.898)" fill="#ff9100"/>
        <path id="Trazado_23503" data-name="Trazado 23503" d="M1441.8,221.492l-1.2-1.293,6.377-5.926-6.377-5.928,1.2-1.293,7.765,7.221Z" transform="translate(-901.893 2443.51)" fill="#ff9100"/>
        <path id="Trazado_23877" data-name="Trazado 23877" d="M0,0H30.98V1.766H0Z" transform="translate(514.774 2756.898)" fill="#ff9100"/>
        <path id="Trazado_23503-2" data-name="Trazado 23503" d="M1441.8,221.492l-1.2-1.293,6.377-5.926-6.377-5.928,1.2-1.293,7.765,7.221Z" transform="translate(-901.893 2543.51)" fill="#ff9100"/>
        <path id="Trazado_23878" data-name="Trazado 23878" d="M0,0H30.98V1.766H0Z" transform="translate(514.774 2701.898)" fill="#ff9100"/>
        <path id="Trazado_23503-3" data-name="Trazado 23503" d="M1441.8,221.492l-1.2-1.293,6.377-5.926-6.377-5.928,1.2-1.293,7.765,7.221Z" transform="translate(-901.893 2488.51)" fill="#ff9100"/>
        <path id="Trazado_23879" data-name="Trazado 23879" d="M0,0H30.98V1.766H0Z" transform="translate(514.774 2801.898)" fill="#ff9100"/>
        <path id="Trazado_23503-4" data-name="Trazado 23503" d="M1441.8,221.492l-1.2-1.293,6.377-5.926-6.377-5.928,1.2-1.293,7.765,7.221Z" transform="translate(-901.893 2588.51)" fill="#ff9100"/>
        <path id="Trazado_23880" data-name="Trazado 23880" d="M13.563-3.814A13.148,13.148,0,0,0,13.9-.383V0H10.227L9.912-1.531A4.57,4.57,0,0,1,7.943-.178,7.256,7.256,0,0,1,5.4.273,6.687,6.687,0,0,1,4.088.15,4.462,4.462,0,0,1,2.905-.267,3.589,3.589,0,0,1,1.928-1a3.208,3.208,0,0,1-.656-1.114,4.439,4.439,0,0,1-.246-1.524,4.227,4.227,0,0,1,.26-1.524A3.573,3.573,0,0,1,1.969-6.3a4.146,4.146,0,0,1,1.107-.834,8.474,8.474,0,0,1,1.395-.6,16.663,16.663,0,0,1,1.668-.437L8.449-8.7A2.548,2.548,0,0,0,9.5-9.14a.886.886,0,0,0,.308-.7,1.45,1.45,0,0,0-.69-1.354,3.224,3.224,0,0,0-1.675-.41q-2.42,0-2.748,2.146L1.2-10.09A4.719,4.719,0,0,1,3.24-13.3a8.1,8.1,0,0,1,4.416-1.032q5.906,0,5.906,5.072ZM6.631-2.393A3.167,3.167,0,0,0,9.064-3.411a4.292,4.292,0,0,0,.943-3.015l-3.336.943a3.942,3.942,0,0,0-1.4.574A1.179,1.179,0,0,0,4.785-3.9,1.309,1.309,0,0,0,5.3-2.782,2.15,2.15,0,0,0,6.631-2.393Z" transform="translate(439.405 2663)" fill="#002b45"/>
        <path id="Trazado_23881" data-name="Trazado 23881" d="M10.295-14.328a6.8,6.8,0,0,1,2.611.506,6.516,6.516,0,0,1,2.153,1.429,6.512,6.512,0,0,1,1.456,2.317A8.548,8.548,0,0,1,17.049-7a8.548,8.548,0,0,1-.533,3.076A6.512,6.512,0,0,1,15.06-1.606,6.516,6.516,0,0,1,12.906-.178a6.8,6.8,0,0,1-2.611.506A6.07,6.07,0,0,1,7.636-.239,3.931,3.931,0,0,1,5.865-1.832L5.77,0H2.037V-21H5.975v8.654a3.924,3.924,0,0,1,1.757-1.463A6.18,6.18,0,0,1,10.295-14.328ZM9.379-2.939a3.542,3.542,0,0,0,2.673-1.107A4.093,4.093,0,0,0,13.111-7a4.112,4.112,0,0,0-1.06-2.967,3.542,3.542,0,0,0-2.673-1.107A3.5,3.5,0,0,0,6.727-9.946,4.113,4.113,0,0,0,5.66-7,4.1,4.1,0,0,0,6.72-4.061,3.505,3.505,0,0,0,9.379-2.939Z" transform="translate(439.405 2710.717)" fill="#002b45"/>
        <path id="Trazado_23882" data-name="Trazado 23882" d="M0,0H38.526V1.605H0Z" transform="translate(431 2673.583)"/>
        <path id="Trazado_23883" data-name="Trazado 23883" d="M13.563-3.814A13.148,13.148,0,0,0,13.9-.383V0H10.227L9.912-1.531A4.57,4.57,0,0,1,7.943-.178,7.256,7.256,0,0,1,5.4.273,6.687,6.687,0,0,1,4.088.15,4.462,4.462,0,0,1,2.905-.267,3.589,3.589,0,0,1,1.928-1a3.208,3.208,0,0,1-.656-1.114,4.439,4.439,0,0,1-.246-1.524,4.227,4.227,0,0,1,.26-1.524A3.573,3.573,0,0,1,1.969-6.3a4.146,4.146,0,0,1,1.107-.834,8.474,8.474,0,0,1,1.395-.6,16.663,16.663,0,0,1,1.668-.437L8.449-8.7A2.548,2.548,0,0,0,9.5-9.14a.886.886,0,0,0,.308-.7,1.45,1.45,0,0,0-.69-1.354,3.224,3.224,0,0,0-1.675-.41q-2.42,0-2.748,2.146L1.2-10.09A4.719,4.719,0,0,1,3.24-13.3a8.1,8.1,0,0,1,4.416-1.032q5.906,0,5.906,5.072ZM6.631-2.393A3.167,3.167,0,0,0,9.064-3.411a4.292,4.292,0,0,0,.943-3.015l-3.336.943a3.942,3.942,0,0,0-1.4.574A1.179,1.179,0,0,0,4.785-3.9,1.309,1.309,0,0,0,5.3-2.782,2.15,2.15,0,0,0,6.631-2.393Z" transform="translate(439.405 2763)" fill="#002b45"/>
        <path id="Trazado_23884" data-name="Trazado 23884" d="M10.295-14.328a6.8,6.8,0,0,1,2.611.506,6.516,6.516,0,0,1,2.153,1.429,6.512,6.512,0,0,1,1.456,2.317A8.548,8.548,0,0,1,17.049-7a8.548,8.548,0,0,1-.533,3.076A6.512,6.512,0,0,1,15.06-1.606,6.516,6.516,0,0,1,12.906-.178a6.8,6.8,0,0,1-2.611.506A6.07,6.07,0,0,1,7.636-.239,3.931,3.931,0,0,1,5.865-1.832L5.77,0H2.037V-21H5.975v8.654a3.924,3.924,0,0,1,1.757-1.463A6.18,6.18,0,0,1,10.295-14.328ZM9.379-2.939a3.542,3.542,0,0,0,2.673-1.107A4.093,4.093,0,0,0,13.111-7a4.112,4.112,0,0,0-1.06-2.967,3.542,3.542,0,0,0-2.673-1.107A3.5,3.5,0,0,0,6.727-9.946,4.113,4.113,0,0,0,5.66-7,4.1,4.1,0,0,0,6.72-4.061,3.505,3.505,0,0,0,9.379-2.939Z" transform="translate(439.405 2808.717)" fill="#002b45"/>
        <path id="Trazado_23885" data-name="Trazado 23885" d="M0,0H38.526V1.605H0Z" transform="translate(431 2773.583)"/>
      </g>
    </g>
  </g>
</svg>
