<svg xmlns="http://www.w3.org/2000/svg" width="609.592" height="451.31" viewBox="0 0 609.592 451.31">
  <g id="Grupo_14475" data-name="Grupo 14475" transform="translate(-15708 2460)">
    <path id="Trazado_24008" data-name="Trazado 24008" d="M0,0H267.64V58.063H0Z" transform="translate(15774 -2370.266)" fill="#e6e6e6"/>
    <path id="Trazado_23990" data-name="Trazado 23990" d="M1333.733,574.31v87.095h267.64V574.31Z" transform="translate(14440.267 -3034.31)" fill="#ffb500"/>
    <path id="Trazado_24022" data-name="Trazado 24022" d="M-64.757,0h-4.088l-1.3-14.889L-75.147,0H-77.8l-5-14.889L-84.116,0h-4.1l1.654-19.756h5.852l4.211,12.4,4.266-12.4h5.852Zm14.725-19.646-3.1,3.664h-2.42l3.582-5.031Zm-1.641,5.592h3.938V0h-3.732l-.1-1.7A5.367,5.367,0,0,1-56.034.273,5.479,5.479,0,0,1-59.917-.991a4.689,4.689,0,0,1-1.354-3.6v-9.461h3.951v8.613a2.429,2.429,0,0,0,.7,1.928A2.673,2.673,0,0,0-54.79-2.9a3.17,3.17,0,0,0,2.235-.8,3.436,3.436,0,0,0,.882-2.6ZM-43.661,0V-21h3.979V0Zm13.289,0a4.245,4.245,0,0,1-3.172-1.142,4.44,4.44,0,0,1-1.121-3.247v-6.645h-2.762v-3.021h.889a2.319,2.319,0,0,0,1.75-.588,3.027,3.027,0,0,0,.561-2.092v-1.859h3.555v4.539h2.9v3.021h-2.9v6.221q0,1.818,1.627,1.818h1.271V0Zm7.656-16.16a2.211,2.211,0,0,1-1.613-.663A2.177,2.177,0,0,1-25-18.43a2.15,2.15,0,0,1,.677-1.593,2.217,2.217,0,0,1,1.606-.663,2.179,2.179,0,0,1,1.586.663,2.161,2.161,0,0,1,.67,1.593,2.177,2.177,0,0,1-.67,1.606A2.179,2.179,0,0,1-22.716-16.16ZM-24.726,0V-14.055h3.965V0ZM-8.442-14.328a6.836,6.836,0,0,1,2.625.506A6.569,6.569,0,0,1-3.664-12.4a6.433,6.433,0,0,1,1.456,2.317A8.6,8.6,0,0,1-1.675-7a8.6,8.6,0,0,1-.533,3.083A6.433,6.433,0,0,1-3.664-1.6,6.569,6.569,0,0,1-5.817-.178,6.836,6.836,0,0,1-8.442.328a6.1,6.1,0,0,1-2.543-.52,3.985,3.985,0,0,1-1.764-1.477v8.5h-3.937V-14.055h3.732l.109,1.887a3.849,3.849,0,0,1,1.757-1.593A6.038,6.038,0,0,1-8.442-14.328ZM-9.331-2.939a3.537,3.537,0,0,0,2.659-1.1A4.088,4.088,0,0,0-5.612-7a4.088,4.088,0,0,0-1.06-2.96,3.537,3.537,0,0,0-2.659-1.1,3.543,3.543,0,0,0-2.68,1.121A4.089,4.089,0,0,0-13.077-7a4.089,4.089,0,0,0,1.066,2.939A3.543,3.543,0,0,0-9.331-2.939ZM1.292,0V-21H5.271V0Zm14.6.273a8.838,8.838,0,0,1-3.979-.861A6.438,6.438,0,0,1,9.188-3.117,7.538,7.538,0,0,1,8.2-7.041a6.875,6.875,0,0,1,2.133-5.332,7.912,7.912,0,0,1,5.564-1.955,7.932,7.932,0,0,1,5.578,1.955A6.875,6.875,0,0,1,23.6-7.041a6.913,6.913,0,0,1-2.133,5.353A7.915,7.915,0,0,1,15.894.273Zm-.041-3.131a3.608,3.608,0,0,0,2.782-1.148,4.3,4.3,0,0,0,1.06-3.035,4.3,4.3,0,0,0-1.06-3.035,3.608,3.608,0,0,0-2.782-1.148,3.476,3.476,0,0,0-2.7,1.155,4.339,4.339,0,0,0-1.046,3.028,4.339,4.339,0,0,0,1.046,3.028A3.476,3.476,0,0,0,15.853-2.857ZM43.771-21h3.938V0H43.976l-.1-1.832A4.014,4.014,0,0,1,42.1-.239a6.006,6.006,0,0,1-2.632.567,6.836,6.836,0,0,1-2.625-.506,6.516,6.516,0,0,1-2.153-1.429,6.512,6.512,0,0,1-1.456-2.317A8.548,8.548,0,0,1,32.7-7a7.99,7.99,0,0,1,.93-3.917,6.37,6.37,0,0,1,2.454-2.55,6.758,6.758,0,0,1,3.384-.861,6.156,6.156,0,0,1,2.55.513,3.981,3.981,0,0,1,1.757,1.456Zm-3.4,18.061a3.505,3.505,0,0,0,2.659-1.121A4.1,4.1,0,0,0,44.085-7a4.113,4.113,0,0,0-1.066-2.946,3.5,3.5,0,0,0-2.652-1.128,3.542,3.542,0,0,0-2.673,1.107A4.112,4.112,0,0,0,36.634-7a4.093,4.093,0,0,0,1.06,2.953A3.542,3.542,0,0,0,40.366-2.939ZM65-7.232l-.041.943H54.544a3.639,3.639,0,0,0,1.121,2.57,3.585,3.585,0,0,0,2.475.889,3.455,3.455,0,0,0,1.853-.485A2.983,2.983,0,0,0,61.175-4.73l3.609.533A6.136,6.136,0,0,1,62.323-.9,7.317,7.317,0,0,1,58.167.273a7.609,7.609,0,0,1-5.476-1.935,7.059,7.059,0,0,1-2.03-5.366A7.1,7.1,0,0,1,52.7-12.394a7.383,7.383,0,0,1,5.346-1.962,7.055,7.055,0,0,1,5.045,1.791A7.026,7.026,0,0,1,65-7.232Zm-6.932-4.334a3.111,3.111,0,0,0-3.418,2.707h6.453a2.96,2.96,0,0,0-.971-2.01A3.077,3.077,0,0,0,58.071-11.566ZM89.243-7.26v3.514H86.864V0H82.927V-3.746H73.835V-7.273l7-12.482h6.029v12.5Zm-11.758,0h5.441V-17.391Z" transform="translate(15908 -2407.061)" fill="#002b45"/>
    <path id="Trazado_24004" data-name="Trazado 24004" d="M0,0H267.64V58.063H0Z" transform="translate(15774 -2309.563)" fill="#e6e6e6"/>
    <path id="Trazado_23994" data-name="Trazado 23994" d="M0,0H267.64V58.063H0Z" transform="translate(15774 -2248.861)" fill="#e6e6e6"/>
    <path id="Trazado_23995" data-name="Trazado 23995" d="M0,0H267.64V58.063H0Z" transform="translate(15774 -2188.158)" fill="#e6e6e6"/>
    <path id="Trazado_23996" data-name="Trazado 23996" d="M0,0H267.64V58.063H0Z" transform="translate(15774 -2127.456)" fill="#e6e6e6"/>
    <path id="Trazado_23997" data-name="Trazado 23997" d="M0,0H267.64V58.063H0Z" transform="translate(15774 -2066.753)" fill="#e6e6e6"/>
    <path id="Trazado_24009" data-name="Trazado 24009" d="M0,0H273.592V58.063H0Z" transform="translate(16044 -2370.266)" fill="#e6e6e6"/>
    <path id="Trazado_23991" data-name="Trazado 23991" d="M1576.678,574.31v87.095H1850.27V574.31Z" transform="translate(14467.322 -3034.31)" fill="#ffb500"/>
    <path id="Trazado_24023" data-name="Trazado 24023" d="M-64.757,0h-4.088l-1.3-14.889L-75.147,0H-77.8l-5-14.889L-84.116,0h-4.1l1.654-19.756h5.852l4.211,12.4,4.266-12.4h5.852Zm14.725-19.646-3.1,3.664h-2.42l3.582-5.031Zm-1.641,5.592h3.938V0h-3.732l-.1-1.7A5.367,5.367,0,0,1-56.034.273,5.479,5.479,0,0,1-59.917-.991a4.689,4.689,0,0,1-1.354-3.6v-9.461h3.951v8.613a2.429,2.429,0,0,0,.7,1.928A2.673,2.673,0,0,0-54.79-2.9a3.17,3.17,0,0,0,2.235-.8,3.436,3.436,0,0,0,.882-2.6ZM-43.661,0V-21h3.979V0Zm13.289,0a4.245,4.245,0,0,1-3.172-1.142,4.44,4.44,0,0,1-1.121-3.247v-6.645h-2.762v-3.021h.889a2.319,2.319,0,0,0,1.75-.588,3.027,3.027,0,0,0,.561-2.092v-1.859h3.555v4.539h2.9v3.021h-2.9v6.221q0,1.818,1.627,1.818h1.271V0Zm7.656-16.16a2.211,2.211,0,0,1-1.613-.663A2.177,2.177,0,0,1-25-18.43a2.15,2.15,0,0,1,.677-1.593,2.217,2.217,0,0,1,1.606-.663,2.179,2.179,0,0,1,1.586.663,2.161,2.161,0,0,1,.67,1.593,2.177,2.177,0,0,1-.67,1.606A2.179,2.179,0,0,1-22.716-16.16ZM-24.726,0V-14.055h3.965V0ZM-8.442-14.328a6.836,6.836,0,0,1,2.625.506A6.569,6.569,0,0,1-3.664-12.4a6.433,6.433,0,0,1,1.456,2.317A8.6,8.6,0,0,1-1.675-7a8.6,8.6,0,0,1-.533,3.083A6.433,6.433,0,0,1-3.664-1.6,6.569,6.569,0,0,1-5.817-.178,6.836,6.836,0,0,1-8.442.328a6.1,6.1,0,0,1-2.543-.52,3.985,3.985,0,0,1-1.764-1.477v8.5h-3.937V-14.055h3.732l.109,1.887a3.849,3.849,0,0,1,1.757-1.593A6.038,6.038,0,0,1-8.442-14.328ZM-9.331-2.939a3.537,3.537,0,0,0,2.659-1.1A4.088,4.088,0,0,0-5.612-7a4.088,4.088,0,0,0-1.06-2.96,3.537,3.537,0,0,0-2.659-1.1,3.543,3.543,0,0,0-2.68,1.121A4.089,4.089,0,0,0-13.077-7a4.089,4.089,0,0,0,1.066,2.939A3.543,3.543,0,0,0-9.331-2.939ZM1.292,0V-21H5.271V0Zm14.6.273a8.838,8.838,0,0,1-3.979-.861A6.438,6.438,0,0,1,9.188-3.117,7.538,7.538,0,0,1,8.2-7.041a6.875,6.875,0,0,1,2.133-5.332,7.912,7.912,0,0,1,5.564-1.955,7.932,7.932,0,0,1,5.578,1.955A6.875,6.875,0,0,1,23.6-7.041a6.913,6.913,0,0,1-2.133,5.353A7.915,7.915,0,0,1,15.894.273Zm-.041-3.131a3.608,3.608,0,0,0,2.782-1.148,4.3,4.3,0,0,0,1.06-3.035,4.3,4.3,0,0,0-1.06-3.035,3.608,3.608,0,0,0-2.782-1.148,3.476,3.476,0,0,0-2.7,1.155,4.339,4.339,0,0,0-1.046,3.028,4.339,4.339,0,0,0,1.046,3.028A3.476,3.476,0,0,0,15.853-2.857ZM43.771-21h3.938V0H43.976l-.1-1.832A4.014,4.014,0,0,1,42.1-.239a6.006,6.006,0,0,1-2.632.567,6.836,6.836,0,0,1-2.625-.506,6.516,6.516,0,0,1-2.153-1.429,6.512,6.512,0,0,1-1.456-2.317A8.548,8.548,0,0,1,32.7-7a7.99,7.99,0,0,1,.93-3.917,6.37,6.37,0,0,1,2.454-2.55,6.758,6.758,0,0,1,3.384-.861,6.156,6.156,0,0,1,2.55.513,3.981,3.981,0,0,1,1.757,1.456Zm-3.4,18.061a3.505,3.505,0,0,0,2.659-1.121A4.1,4.1,0,0,0,44.085-7a4.113,4.113,0,0,0-1.066-2.946,3.5,3.5,0,0,0-2.652-1.128,3.542,3.542,0,0,0-2.673,1.107A4.112,4.112,0,0,0,36.634-7a4.093,4.093,0,0,0,1.06,2.953A3.542,3.542,0,0,0,40.366-2.939ZM65-7.232l-.041.943H54.544a3.639,3.639,0,0,0,1.121,2.57,3.585,3.585,0,0,0,2.475.889,3.455,3.455,0,0,0,1.853-.485A2.983,2.983,0,0,0,61.175-4.73l3.609.533A6.136,6.136,0,0,1,62.323-.9,7.317,7.317,0,0,1,58.167.273a7.609,7.609,0,0,1-5.476-1.935,7.059,7.059,0,0,1-2.03-5.366A7.1,7.1,0,0,1,52.7-12.394a7.383,7.383,0,0,1,5.346-1.962,7.055,7.055,0,0,1,5.045,1.791A7.026,7.026,0,0,1,65-7.232Zm-6.932-4.334a3.111,3.111,0,0,0-3.418,2.707h6.453a2.96,2.96,0,0,0-.971-2.01A3.077,3.077,0,0,0,58.071-11.566ZM88.86-6.631a6.44,6.44,0,0,1-.581,2.775,6.549,6.549,0,0,1-1.6,2.194A7.532,7.532,0,0,1,84.335-.253a7.776,7.776,0,0,1-2.8.513,7.76,7.76,0,0,1-2.851-.526,7.02,7.02,0,0,1-2.311-1.442A6.7,6.7,0,0,1,74.847-3.9a6.684,6.684,0,0,1-.561-2.714,8.211,8.211,0,0,1,1.75-4.826l6.152-8.312h4.471L81.532-13.07a6.661,6.661,0,0,1,.9-.055,6.44,6.44,0,0,1,2.427.465,6.571,6.571,0,0,1,2.044,1.292A5.978,5.978,0,0,1,88.32-9.311,6.911,6.911,0,0,1,88.86-6.631ZM85-6.727a3.375,3.375,0,0,0-.957-2.55,3.481,3.481,0,0,0-2.584-.991,3.337,3.337,0,0,0-2.5,1,3.525,3.525,0,0,0-1,2.488,3.381,3.381,0,0,0,.916,2.536,3.4,3.4,0,0,0,2.543.964,3.561,3.561,0,0,0,2.57-.957A3.336,3.336,0,0,0,85-6.727Z" transform="translate(16181 -2407.061)" fill="#002b45"/>
    <path id="Trazado_24005" data-name="Trazado 24005" d="M0,0H273.592V58.063H0Z" transform="translate(16044 -2309.563)" fill="#e6e6e6"/>
    <path id="Trazado_23998" data-name="Trazado 23998" d="M0,0H273.592V58.063H0Z" transform="translate(16044 -2248.861)" fill="#e6e6e6"/>
    <path id="Trazado_23999" data-name="Trazado 23999" d="M0,0H273.592V58.063H0Z" transform="translate(16044 -2188.158)" fill="#e6e6e6"/>
    <path id="Trazado_24000" data-name="Trazado 24000" d="M0,0H273.592V58.063H0Z" transform="translate(16044 -2127.456)" fill="#e6e6e6"/>
    <path id="Trazado_23992" data-name="Trazado 23992" d="M0,0H273.592V58.063H0Z" transform="translate(16044 -2066.753)" fill="#e6e6e6"/>
    <path id="Trazado_24010" data-name="Trazado 24010" d="M0,0H63.1V58.063H0Z" transform="translate(15708 -2370.266)" fill="#c8c8c8"/>
    <path id="Trazado_24011" data-name="Trazado 24011" d="M0,0H63.1V58.063H0Z" transform="translate(15708 -2309.563)" fill="#c8c8c8"/>
    <path id="Trazado_24012" data-name="Trazado 24012" d="M0,0H63.1V58.063H0Z" transform="translate(15708 -2248.861)" fill="#c8c8c8"/>
    <path id="Trazado_24013" data-name="Trazado 24013" d="M0,0H63.1V58.063H0Z" transform="translate(15708 -2188.158)" fill="#c8c8c8"/>
    <path id="Trazado_24014" data-name="Trazado 24014" d="M0,0H63.1V58.063H0Z" transform="translate(15708 -2127.456)" fill="#c8c8c8"/>
    <path id="Trazado_24015" data-name="Trazado 24015" d="M0,0H63.1V58.063H0Z" transform="translate(15708 -2066.753)" fill="#c8c8c8"/>
    <path id="Trazado_24016" data-name="Trazado 24016" d="M-.54-19.756H3.206V0H-.718V-15.709l-4.539,4.225v-4.047Z" transform="translate(15739.55 -2331.938)" fill="#002b45"/>
    <path id="Trazado_24017" data-name="Trazado 24017" d="M-1.483-3.514H6.938V0H-6.993V-2.967L.868-10.992a4.947,4.947,0,0,0,1.709-3.4,2.408,2.408,0,0,0-.7-1.832A2.772,2.772,0,0,0-.116-16.9q-2.8,0-2.8,3.186v1.463l-3.924-.4v-.984a6.161,6.161,0,0,1,1.8-4.751A6.912,6.912,0,0,1-.144-20.057a7.24,7.24,0,0,1,4.765,1.518,5.115,5.115,0,0,1,1.839,4.17,5.913,5.913,0,0,1-.622,2.707A11.315,11.315,0,0,1,3.862-9.023Z" transform="translate(15739.55 -2271.236)" fill="#002b45"/>
    <path id="Trazado_24018" data-name="Trazado 24018" d="M-.034.273q-3.691,0-5.387-1.8t-1.7-5.523l4.033-.178a14.282,14.282,0,0,0,.062,1.449,5.009,5.009,0,0,0,.246,1.121,2.006,2.006,0,0,0,.52.841,2.361,2.361,0,0,0,.889.485,4.391,4.391,0,0,0,1.333.178A3.2,3.2,0,0,0,2.3-3.951,2.772,2.772,0,0,0,3.11-6.029a2.794,2.794,0,0,0-.779-2.14A2.933,2.933,0,0,0,.239-8.9H-.526v-3.062H.185a2.138,2.138,0,0,0,1.634-.7,2.486,2.486,0,0,0,.649-1.764,1.987,1.987,0,0,0-.711-1.641,2.89,2.89,0,0,0-1.873-.574,2.807,2.807,0,0,0-1.066.185,1.989,1.989,0,0,0-.718.472,2.086,2.086,0,0,0-.424.725,3.808,3.808,0,0,0-.205.861,8.6,8.6,0,0,0-.048.957l-3.979-.191a6.324,6.324,0,0,1,1.7-4.751,6.464,6.464,0,0,1,4.7-1.647,6.723,6.723,0,0,1,4.512,1.511,4.731,4.731,0,0,1,1.777,3.753,4.271,4.271,0,0,1-.759,2.543,4.344,4.344,0,0,1-1.729,1.5,4.869,4.869,0,0,1,1.258.561A5.156,5.156,0,0,1,6-9.215a4.21,4.21,0,0,1,.813,1.436,5.776,5.776,0,0,1,.3,1.914A5.583,5.583,0,0,1,5.161-1.4,7.712,7.712,0,0,1-.034.273Z" transform="translate(15739.55 -2210.533)" fill="#002b45"/>
    <path id="Trazado_24019" data-name="Trazado 24019" d="M7.649-7.26v3.514H5.271V0H1.333V-3.746H-7.759V-7.273l7-12.482H5.271v12.5Zm-11.758,0H1.333V-17.391Z" transform="translate(15739.55 -2149.831)" fill="#002b45"/>
    <path id="Trazado_24020" data-name="Trazado 24020" d="M-.39-12.811q7.588,0,7.588,6.234a6.66,6.66,0,0,1-1.914,5A6.918,6.918,0,0,1,.239.287,8.369,8.369,0,0,1-3.295-.444,6.1,6.1,0,0,1-5.858-2.618a5.822,5.822,0,0,1-.971-3.329,6.147,6.147,0,0,1,.082-.984l3.91-.178a5.779,5.779,0,0,0-.1.875,2.66,2.66,0,0,0,.889,2.181,3.349,3.349,0,0,0,2.2.731,3.034,3.034,0,0,0,2.3-.841,3.132,3.132,0,0,0,.807-2.263,2.816,2.816,0,0,0-.984-2.311,5.271,5.271,0,0,0-3.309-.807H-6.214l.82-10.213H6.269v3.514H-1.853l-.26,3.432Z" transform="translate(15739.55 -2089.128)" fill="#002b45"/>
    <path id="Trazado_24021" data-name="Trazado 24021" d="M7.267-6.631a6.441,6.441,0,0,1-.581,2.775,6.549,6.549,0,0,1-1.6,2.194A7.532,7.532,0,0,1,2.741-.253,7.776,7.776,0,0,1-.062.26,7.76,7.76,0,0,1-2.912-.267,7.02,7.02,0,0,1-5.223-1.709,6.7,6.7,0,0,1-6.747-3.9a6.684,6.684,0,0,1-.561-2.714,8.211,8.211,0,0,1,1.75-4.826L.595-19.756H5.065L-.062-13.07a6.661,6.661,0,0,1,.9-.055,6.44,6.44,0,0,1,2.427.465,6.571,6.571,0,0,1,2.044,1.292A5.978,5.978,0,0,1,6.727-9.311,6.911,6.911,0,0,1,7.267-6.631Zm-3.855-.1a3.375,3.375,0,0,0-.957-2.55A3.481,3.481,0,0,0-.13-10.268a3.337,3.337,0,0,0-2.5,1,3.525,3.525,0,0,0-1,2.488,3.381,3.381,0,0,0,.916,2.536,3.4,3.4,0,0,0,2.543.964A3.561,3.561,0,0,0,2.4-4.238,3.336,3.336,0,0,0,3.411-6.727Z" transform="translate(15739.55 -2028.426)" fill="#002b45"/>
    <path id="Trazado_24001" data-name="Trazado 24001" d="M16.01-7.26v3.514H13.631V0H9.693V-3.746H.6V-7.273l7-12.482h6.029v12.5Zm-11.758,0H9.693V-17.391Zm24.842-3.787-1.859-1.121,2.188-2.693q.314-.383.164-.643t-.629-.178l-3.473.533v-2.16l3.473.52q.479.082.629-.178t-.164-.643L27.234-20.33l1.859-1.08,1.285,3.268q.164.479.479.479t.479-.479l1.271-3.268,1.9,1.08-2.229,2.721q-.314.383-.164.643t.643.178l3.459-.52v2.16l-3.459-.533q-.492-.082-.643.178t.178.643l2.215,2.693-1.9,1.121L31.336-14.3q-.164-.479-.479-.479t-.479.479ZM52.8-19.756h3.746V0H52.623V-15.709l-4.539,4.225v-4.047Zm19.236,8.627v-2.994H84.109v2.994Zm0,6V-8.121H84.109v2.994Zm38.4-2.133v3.514h-2.379V0h-3.937V-3.746H95.033V-7.273l7-12.482h6.029v12.5Zm-11.758,0h5.441V-17.391Zm-82.674,61v3.514H13.631V61H9.693V57.254H.6V53.727l7-12.482h6.029v12.5Zm-11.758,0H9.693V43.609Zm24.842-3.787-1.859-1.121,2.188-2.693q.314-.383.164-.643t-.629-.178l-3.473.533v-2.16l3.473.52q.479.082.629-.178t-.164-.643L27.234,40.67l1.859-1.08,1.285,3.268q.164.479.479.479t.479-.479l1.271-3.268,1.9,1.08-2.229,2.721q-.314.383-.164.643t.643.178l3.459-.52v2.16l-3.459-.533q-.492-.082-.643.178t.178.643l2.215,2.693-1.9,1.121L31.336,46.7q-.164-.479-.479-.479t-.479.479Zm22.764,7.533h8.422V61H46.348V58.033l7.861-8.025a4.947,4.947,0,0,0,1.709-3.4,2.408,2.408,0,0,0-.7-1.832,2.772,2.772,0,0,0-1.989-.67q-2.8,0-2.8,3.186V48.75l-3.924-.4v-.984a6.161,6.161,0,0,1,1.8-4.751A6.912,6.912,0,0,1,53.2,40.943a7.24,7.24,0,0,1,4.765,1.518,5.115,5.115,0,0,1,1.839,4.17,5.913,5.913,0,0,1-.622,2.707A11.315,11.315,0,0,1,57.2,51.977Zm20.18-7.615V46.877H84.109v2.994Zm0,6V52.879H84.109v2.994Zm30.789,5.4a7.905,7.905,0,0,1-5.161-1.654,5.435,5.435,0,0,1-2.03-4.443,5.537,5.537,0,0,1,.827-3.028,5.669,5.669,0,0,1,2.29-2.044,5,5,0,0,1-1.634-1.682,4.343,4.343,0,0,1-.595-2.242,4.634,4.634,0,0,1,1.764-3.767,6.938,6.938,0,0,1,4.539-1.442,6.824,6.824,0,0,1,4.478,1.442,4.641,4.641,0,0,1,1.757,3.767,4.425,4.425,0,0,1-.574,2.235A5.046,5.046,0,0,1,106.9,50.1a5.641,5.641,0,0,1,2.27,2.044,5.572,5.572,0,0,1,.82,3.028,5.677,5.677,0,0,1-.943,3.247,5.938,5.938,0,0,1-2.563,2.126A8.865,8.865,0,0,1,102.826,61.273Zm0-12.318a2.627,2.627,0,0,0,1.873-.738,2.391,2.391,0,0,0,.779-1.8,2.333,2.333,0,0,0-.779-1.777,2.81,2.81,0,0,0-3.767,0,2.342,2.342,0,0,0-.772,1.777,2.394,2.394,0,0,0,.772,1.812A2.651,2.651,0,0,0,102.826,48.955Zm0,8.791a3.3,3.3,0,0,0,2.311-.834,2.883,2.883,0,0,0,.916-2.242,2.8,2.8,0,0,0-.923-2.194,3.324,3.324,0,0,0-2.3-.827,3.362,3.362,0,0,0-2.331.827,2.8,2.8,0,0,0-.923,2.194,2.873,2.873,0,0,0,.923,2.242A3.345,3.345,0,0,0,102.826,57.746ZM16.01,114.74v3.514H13.631V122H9.693v-3.746H.6v-3.527l7-12.482h6.029v12.5Zm-11.758,0H9.693V104.609Zm24.842-3.787-1.859-1.121,2.188-2.693q.314-.383.164-.643t-.629-.178l-3.473.533v-2.16l3.473.52q.479.082.629-.178t-.164-.643l-2.187-2.721,1.859-1.08,1.285,3.268q.164.479.479.479t.479-.479l1.271-3.268,1.9,1.08-2.229,2.721q-.314.383-.164.643t.643.178l3.459-.52v2.16l-3.459-.533q-.492-.082-.643.178t.178.643l2.215,2.693-1.9,1.121L31.336,107.7q-.164-.479-.479-.479t-.479.479Zm24.213,11.32q-3.691,0-5.387-1.8t-1.7-5.523l4.033-.178a14.282,14.282,0,0,0,.062,1.449,5.009,5.009,0,0,0,.246,1.121,2.006,2.006,0,0,0,.52.841,2.361,2.361,0,0,0,.889.485,4.391,4.391,0,0,0,1.333.178,3.2,3.2,0,0,0,2.331-.793,3.19,3.19,0,0,0,.034-4.218,2.933,2.933,0,0,0-2.092-.731h-.766v-3.062h.711a2.138,2.138,0,0,0,1.634-.7,2.486,2.486,0,0,0,.649-1.764,1.987,1.987,0,0,0-.711-1.641,2.89,2.89,0,0,0-1.873-.574,2.807,2.807,0,0,0-1.066.185,1.989,1.989,0,0,0-.718.472,2.086,2.086,0,0,0-.424.725,3.808,3.808,0,0,0-.205.861,8.6,8.6,0,0,0-.048.957l-3.979-.191a6.324,6.324,0,0,1,1.7-4.751,6.464,6.464,0,0,1,4.7-1.647,6.723,6.723,0,0,1,4.512,1.511,4.731,4.731,0,0,1,1.777,3.753,4.271,4.271,0,0,1-.759,2.543,4.344,4.344,0,0,1-1.729,1.5,4.868,4.868,0,0,1,1.258.561,5.156,5.156,0,0,1,1.1.943,4.209,4.209,0,0,1,.813,1.436,5.776,5.776,0,0,1,.3,1.914A5.583,5.583,0,0,1,58.5,120.6,7.712,7.712,0,0,1,53.307,122.273Zm18.73-11.4v-2.994H84.109v2.994Zm0,6v-2.994H84.109v2.994ZM16.01,175.74v3.514H13.631V183H9.693v-3.746H.6v-3.527l7-12.482h6.029v12.5Zm-11.758,0H9.693V165.609Zm24.842-3.787-1.859-1.121,2.188-2.693q.314-.383.164-.643t-.629-.178l-3.473.533v-2.16l3.473.52q.479.082.629-.178t-.164-.643l-2.187-2.721,1.859-1.08,1.285,3.268q.164.479.479.479t.479-.479l1.271-3.268,1.9,1.08-2.229,2.721q-.314.383-.164.643t.643.178l3.459-.52v2.16l-3.459-.533q-.492-.082-.643.178t.178.643l2.215,2.693-1.9,1.121L31.336,168.7q-.164-.479-.479-.479t-.479.479Zm31.9,3.787v3.514H58.611V183H54.674v-3.746H45.582v-3.527l7-12.482h6.029v12.5Zm-11.758,0h5.441V165.609Zm22.8-3.869v-2.994H84.109v2.994Zm0,6v-2.994H84.109v2.994Zm30.215-14.629H106V183h-3.924V167.291l-4.539,4.225v-4.047Zm24.527,13.125a6.441,6.441,0,0,1-.581,2.775,6.549,6.549,0,0,1-1.6,2.194,7.532,7.532,0,0,1-2.345,1.408,7.95,7.95,0,0,1-5.653-.014,7.02,7.02,0,0,1-2.311-1.442,6.791,6.791,0,0,1-2.085-4.908,8.211,8.211,0,0,1,1.75-4.826l6.152-8.312h4.471l-5.127,6.686a6.662,6.662,0,0,1,.9-.055,6.441,6.441,0,0,1,2.427.465,6.571,6.571,0,0,1,2.044,1.292,5.978,5.978,0,0,1,1.415,2.058A6.911,6.911,0,0,1,126.779,176.369Zm-3.855-.1a3.375,3.375,0,0,0-.957-2.55,3.481,3.481,0,0,0-2.584-.991,3.337,3.337,0,0,0-2.5,1,3.525,3.525,0,0,0-1,2.488,3.241,3.241,0,0,0,3.459,3.5,3.561,3.561,0,0,0,2.57-.957A3.336,3.336,0,0,0,122.924,176.273ZM16.01,236.74v3.514H13.631V244H9.693v-3.746H.6v-3.527l7-12.482h6.029v12.5Zm-11.758,0H9.693V226.609Zm24.842-3.787-1.859-1.121,2.188-2.693q.314-.383.164-.643t-.629-.178l-3.473.533v-2.16l3.473.52q.479.082.629-.178t-.164-.643l-2.187-2.721,1.859-1.08,1.285,3.268q.164.479.479.479t.479-.479l1.271-3.268,1.9,1.08-2.229,2.721q-.314.383-.164.643t.643.178l3.459-.52v2.16l-3.459-.533q-.492-.082-.643.178t.178.643l2.215,2.693-1.9,1.121L31.336,229.7q-.164-.479-.479-.479t-.479.479Zm23.857-1.764q7.588,0,7.588,6.234a6.66,6.66,0,0,1-1.914,5,6.918,6.918,0,0,1-5.045,1.866,8.369,8.369,0,0,1-3.534-.731,6.1,6.1,0,0,1-2.563-2.174,5.822,5.822,0,0,1-.971-3.329,6.146,6.146,0,0,1,.082-.984l3.91-.178a5.78,5.78,0,0,0-.1.875,2.66,2.66,0,0,0,.889,2.181,3.349,3.349,0,0,0,2.2.731,3.034,3.034,0,0,0,2.3-.841,3.132,3.132,0,0,0,.807-2.263,2.816,2.816,0,0,0-.984-2.311,5.271,5.271,0,0,0-3.309-.807H47.127l.82-10.213H59.609v3.514H51.488l-.26,3.432Zm19.086,1.682v-2.994H84.109v2.994Zm0,6v-2.994H84.109v2.994Zm29.271,1.613h8.422V244H95.8v-2.967l7.861-8.025a4.947,4.947,0,0,0,1.709-3.4,2.408,2.408,0,0,0-.7-1.832,2.772,2.772,0,0,0-1.989-.67q-2.8,0-2.8,3.186v1.463l-3.924-.4v-.984a6.161,6.161,0,0,1,1.8-4.751,6.912,6.912,0,0,1,4.895-1.675,7.24,7.24,0,0,1,4.765,1.518,5.115,5.115,0,0,1,1.839,4.17,5.913,5.913,0,0,1-.622,2.707,11.315,11.315,0,0,1-1.976,2.639Zm18.225,3.787a6.162,6.162,0,0,1-5.312-2.557q-1.853-2.557-1.853-7.6t1.846-7.6a6.819,6.819,0,0,1,10.623,0q1.846,2.543,1.846,7.6t-1.853,7.6A6.148,6.148,0,0,1,119.533,244.273Zm0-3.555a2.6,2.6,0,0,0,2.372-1.62,15.13,15.13,0,0,0-.007-9.967,2.6,2.6,0,0,0-2.365-1.62q-3.227,0-3.227,6.6T119.533,240.719ZM16.01,297.74v3.514H13.631V305H9.693v-3.746H.6v-3.527l7-12.482h6.029v12.5Zm-11.758,0H9.693V287.609Zm24.842-3.787-1.859-1.121,2.188-2.693q.314-.383.164-.643t-.629-.178l-3.473.533v-2.16l3.473.52q.479.082.629-.178t-.164-.643l-2.187-2.721,1.859-1.08,1.285,3.268q.164.479.479.479t.479-.479l1.271-3.268,1.9,1.08-2.229,2.721q-.314.383-.164.643t.643.178l3.459-.52v2.16l-3.459-.533q-.492-.082-.643.178t.178.643l2.215,2.693-1.9,1.121L31.336,290.7q-.164-.479-.479-.479t-.479.479Zm31.514,4.416a6.441,6.441,0,0,1-.581,2.775,6.549,6.549,0,0,1-1.6,2.194,7.532,7.532,0,0,1-2.345,1.408,7.95,7.95,0,0,1-5.653-.014,7.02,7.02,0,0,1-2.311-1.442,6.791,6.791,0,0,1-2.085-4.908,8.211,8.211,0,0,1,1.75-4.826l6.152-8.312h4.471l-5.127,6.686a6.659,6.659,0,0,1,.9-.055,6.44,6.44,0,0,1,2.427.465,6.572,6.572,0,0,1,2.044,1.292,5.978,5.978,0,0,1,1.415,2.058A6.911,6.911,0,0,1,60.607,298.369Zm-3.855-.1a3.375,3.375,0,0,0-.957-2.55,3.481,3.481,0,0,0-2.584-.991,3.337,3.337,0,0,0-2.5,1,3.525,3.525,0,0,0-1,2.488,3.241,3.241,0,0,0,3.459,3.5,3.561,3.561,0,0,0,2.57-.957A3.336,3.336,0,0,0,56.752,298.273Zm15.285-4.4v-2.994H84.109v2.994Zm0,6v-2.994H84.109v2.994Z" transform="translate(15844 -2331.938)" fill="#002b45"/>
    <path id="Trazado_23993" data-name="Trazado 23993" d="M15.627-6.631a6.441,6.441,0,0,1-.581,2.775,6.549,6.549,0,0,1-1.6,2.194A7.532,7.532,0,0,1,11.1-.253,7.776,7.776,0,0,1,8.3.26,7.76,7.76,0,0,1,5.448-.267,7.02,7.02,0,0,1,3.138-1.709,6.7,6.7,0,0,1,1.613-3.9a6.684,6.684,0,0,1-.561-2.714A8.211,8.211,0,0,1,2.8-11.443l6.152-8.312h4.471L8.3-13.07a6.661,6.661,0,0,1,.9-.055,6.44,6.44,0,0,1,2.427.465,6.571,6.571,0,0,1,2.044,1.292,5.978,5.978,0,0,1,1.415,2.058A6.911,6.911,0,0,1,15.627-6.631Zm-3.855-.1a3.375,3.375,0,0,0-.957-2.55,3.481,3.481,0,0,0-2.584-.991,3.337,3.337,0,0,0-2.5,1,3.525,3.525,0,0,0-1,2.488,3.381,3.381,0,0,0,.916,2.536,3.4,3.4,0,0,0,2.543.964,3.561,3.561,0,0,0,2.57-.957A3.336,3.336,0,0,0,11.771-6.727Zm17.322-4.32-1.859-1.121,2.188-2.693q.314-.383.164-.643t-.629-.178l-3.473.533v-2.16l3.473.52q.479.082.629-.178t-.164-.643L27.234-20.33l1.859-1.08,1.285,3.268q.164.479.479.479t.479-.479l1.271-3.268,1.9,1.08-2.229,2.721q-.314.383-.164.643t.643.178l3.459-.52v2.16l-3.459-.533q-.492-.082-.643.178t.178.643l2.215,2.693-1.9,1.121L31.336-14.3q-.164-.479-.479-.479t-.479.479ZM52.8-19.756h3.746V0H52.623V-15.709l-4.539,4.225v-4.047Zm19.236,8.627v-2.994H84.109v2.994Zm0,6V-8.121H84.109v2.994Zm38.021-1.5a6.44,6.44,0,0,1-.581,2.775,6.549,6.549,0,0,1-1.6,2.194,7.532,7.532,0,0,1-2.345,1.408,7.776,7.776,0,0,1-2.8.513A7.76,7.76,0,0,1,99.88-.267a7.02,7.02,0,0,1-2.311-1.442A6.7,6.7,0,0,1,96.045-3.9a6.684,6.684,0,0,1-.561-2.714,8.211,8.211,0,0,1,1.75-4.826l6.152-8.312h4.471L102.73-13.07a6.661,6.661,0,0,1,.9-.055,6.44,6.44,0,0,1,2.427.465,6.571,6.571,0,0,1,2.044,1.292,5.978,5.978,0,0,1,1.415,2.058A6.911,6.911,0,0,1,110.059-6.631Zm-3.855-.1a3.375,3.375,0,0,0-.957-2.55,3.481,3.481,0,0,0-2.584-.991,3.337,3.337,0,0,0-2.5,1,3.525,3.525,0,0,0-1,2.488,3.381,3.381,0,0,0,.916,2.536,3.4,3.4,0,0,0,2.543.964,3.561,3.561,0,0,0,2.57-.957A3.336,3.336,0,0,0,106.2-6.727Zm-90.576,61.1a6.441,6.441,0,0,1-.581,2.775,6.549,6.549,0,0,1-1.6,2.194A7.532,7.532,0,0,1,11.1,60.747a7.95,7.95,0,0,1-5.653-.014,7.02,7.02,0,0,1-2.311-1.442,6.791,6.791,0,0,1-2.085-4.908A8.211,8.211,0,0,1,2.8,49.557l6.152-8.312h4.471L8.3,47.93a6.661,6.661,0,0,1,.9-.055,6.44,6.44,0,0,1,2.427.465,6.571,6.571,0,0,1,2.044,1.292,5.978,5.978,0,0,1,1.415,2.058A6.911,6.911,0,0,1,15.627,54.369Zm-3.855-.1a3.375,3.375,0,0,0-.957-2.55,3.481,3.481,0,0,0-2.584-.991,3.337,3.337,0,0,0-2.5,1,3.525,3.525,0,0,0-1,2.488,3.381,3.381,0,0,0,.916,2.536,3.4,3.4,0,0,0,2.543.964,3.561,3.561,0,0,0,2.57-.957A3.336,3.336,0,0,0,11.771,54.273Zm17.322-4.32-1.859-1.121,2.188-2.693q.314-.383.164-.643t-.629-.178l-3.473.533v-2.16l3.473.52q.479.082.629-.178t-.164-.643L27.234,40.67l1.859-1.08,1.285,3.268q.164.479.479.479t.479-.479l1.271-3.268,1.9,1.08-2.229,2.721q-.314.383-.164.643t.643.178l3.459-.52v2.16l-3.459-.533q-.492-.082-.643.178t.178.643l2.215,2.693-1.9,1.121L31.336,46.7q-.164-.479-.479-.479t-.479.479Zm22.764,7.533h8.422V61H46.348V58.033l7.861-8.025a4.947,4.947,0,0,0,1.709-3.4,2.408,2.408,0,0,0-.7-1.832,2.772,2.772,0,0,0-1.989-.67q-2.8,0-2.8,3.186V48.75l-3.924-.4v-.984a6.161,6.161,0,0,1,1.8-4.751A6.912,6.912,0,0,1,53.2,40.943a7.24,7.24,0,0,1,4.765,1.518,5.115,5.115,0,0,1,1.839,4.17,5.913,5.913,0,0,1-.622,2.707A11.315,11.315,0,0,1,57.2,51.977Zm20.18-7.615V46.877H84.109v2.994Zm0,6V52.879H84.109v2.994Zm-56.41,59.5a6.441,6.441,0,0,1-.581,2.775,6.549,6.549,0,0,1-1.6,2.194,7.532,7.532,0,0,1-2.345,1.408,7.95,7.95,0,0,1-5.653-.014,7.02,7.02,0,0,1-2.311-1.442,6.791,6.791,0,0,1-2.085-4.908,8.211,8.211,0,0,1,1.75-4.826l6.152-8.312h4.471L8.3,108.93a6.661,6.661,0,0,1,.9-.055,6.44,6.44,0,0,1,2.427.465,6.571,6.571,0,0,1,2.044,1.292,5.978,5.978,0,0,1,1.415,2.058A6.911,6.911,0,0,1,15.627,115.369Zm-3.855-.1a3.375,3.375,0,0,0-.957-2.55,3.481,3.481,0,0,0-2.584-.991,3.337,3.337,0,0,0-2.5,1,3.525,3.525,0,0,0-1,2.488,3.381,3.381,0,0,0,.916,2.536,3.4,3.4,0,0,0,2.543.964,3.561,3.561,0,0,0,2.57-.957A3.336,3.336,0,0,0,11.771,115.273Zm17.322-4.32-1.859-1.121,2.188-2.693q.314-.383.164-.643t-.629-.178l-3.473.533v-2.16l3.473.52q.479.082.629-.178t-.164-.643l-2.187-2.721,1.859-1.08,1.285,3.268q.164.479.479.479t.479-.479l1.271-3.268,1.9,1.08-2.229,2.721q-.314.383-.164.643t.643.178l3.459-.52v2.16l-3.459-.533q-.492-.082-.643.178t.178.643l2.215,2.693-1.9,1.121L31.336,107.7q-.164-.479-.479-.479t-.479.479Zm24.213,11.32q-3.691,0-5.387-1.8t-1.7-5.523l4.033-.178a14.282,14.282,0,0,0,.062,1.449,5.009,5.009,0,0,0,.246,1.121,2.006,2.006,0,0,0,.52.841,2.361,2.361,0,0,0,.889.485,4.391,4.391,0,0,0,1.333.178,3.2,3.2,0,0,0,2.331-.793,3.19,3.19,0,0,0,.034-4.218,2.933,2.933,0,0,0-2.092-.731h-.766v-3.062h.711a2.138,2.138,0,0,0,1.634-.7,2.486,2.486,0,0,0,.649-1.764,1.987,1.987,0,0,0-.711-1.641,2.89,2.89,0,0,0-1.873-.574,2.807,2.807,0,0,0-1.066.185,1.989,1.989,0,0,0-.718.472,2.086,2.086,0,0,0-.424.725,3.808,3.808,0,0,0-.205.861,8.6,8.6,0,0,0-.048.957l-3.979-.191a6.324,6.324,0,0,1,1.7-4.751,6.464,6.464,0,0,1,4.7-1.647,6.723,6.723,0,0,1,4.512,1.511,4.731,4.731,0,0,1,1.777,3.753,4.271,4.271,0,0,1-.759,2.543,4.344,4.344,0,0,1-1.729,1.5,4.868,4.868,0,0,1,1.258.561,5.156,5.156,0,0,1,1.1.943,4.209,4.209,0,0,1,.813,1.436,5.776,5.776,0,0,1,.3,1.914A5.583,5.583,0,0,1,58.5,120.6,7.712,7.712,0,0,1,53.307,122.273Zm18.73-11.4v-2.994H84.109v2.994Zm0,6v-2.994H84.109v2.994Zm30.215-14.629H106V122h-3.924V106.291l-4.539,4.225v-4.047Zm17.295,20.029a7.905,7.905,0,0,1-5.161-1.654,5.435,5.435,0,0,1-2.03-4.443,5.537,5.537,0,0,1,.827-3.028,5.669,5.669,0,0,1,2.29-2.044,5,5,0,0,1-1.634-1.682,4.343,4.343,0,0,1-.595-2.242,4.634,4.634,0,0,1,1.764-3.767,6.938,6.938,0,0,1,4.539-1.442,6.824,6.824,0,0,1,4.478,1.442,4.641,4.641,0,0,1,1.757,3.767,4.425,4.425,0,0,1-.574,2.235,5.046,5.046,0,0,1-1.586,1.688,5.641,5.641,0,0,1,2.27,2.044,5.572,5.572,0,0,1,.82,3.028,5.677,5.677,0,0,1-.943,3.247,5.938,5.938,0,0,1-2.563,2.126A8.865,8.865,0,0,1,119.547,122.273Zm0-12.318a2.627,2.627,0,0,0,1.873-.738,2.391,2.391,0,0,0,.779-1.8,2.333,2.333,0,0,0-.779-1.777,2.81,2.81,0,0,0-3.767,0,2.342,2.342,0,0,0-.772,1.777,2.394,2.394,0,0,0,.772,1.812A2.651,2.651,0,0,0,119.547,109.955Zm0,8.791a3.3,3.3,0,0,0,2.311-.834,2.883,2.883,0,0,0,.916-2.242,2.8,2.8,0,0,0-.923-2.194,3.324,3.324,0,0,0-2.3-.827,3.362,3.362,0,0,0-2.331.827,2.8,2.8,0,0,0-.923,2.194,2.873,2.873,0,0,0,.923,2.242A3.345,3.345,0,0,0,119.547,118.746ZM15.627,176.369a6.441,6.441,0,0,1-.581,2.775,6.549,6.549,0,0,1-1.6,2.194,7.532,7.532,0,0,1-2.345,1.408,7.95,7.95,0,0,1-5.653-.014,7.02,7.02,0,0,1-2.311-1.442,6.791,6.791,0,0,1-2.085-4.908,8.211,8.211,0,0,1,1.75-4.826l6.152-8.312h4.471L8.3,169.93a6.662,6.662,0,0,1,.9-.055,6.441,6.441,0,0,1,2.427.465,6.571,6.571,0,0,1,2.044,1.292,5.978,5.978,0,0,1,1.415,2.058A6.911,6.911,0,0,1,15.627,176.369Zm-3.855-.1a3.375,3.375,0,0,0-.957-2.55,3.481,3.481,0,0,0-2.584-.991,3.337,3.337,0,0,0-2.5,1,3.525,3.525,0,0,0-1,2.488,3.381,3.381,0,0,0,.916,2.536,3.4,3.4,0,0,0,2.543.964,3.561,3.561,0,0,0,2.57-.957A3.336,3.336,0,0,0,11.771,176.273Zm17.322-4.32-1.859-1.121,2.188-2.693q.314-.383.164-.643t-.629-.178l-3.473.533v-2.16l3.473.52q.479.082.629-.178t-.164-.643l-2.187-2.721,1.859-1.08,1.285,3.268q.164.479.479.479t.479-.479l1.271-3.268,1.9,1.08-2.229,2.721q-.314.383-.164.643t.643.178l3.459-.52v2.16l-3.459-.533q-.492-.082-.643.178t.178.643l2.215,2.693-1.9,1.121L31.336,168.7q-.164-.479-.479-.479t-.479.479Zm31.9,3.787v3.514H58.611V183H54.674v-3.746H45.582v-3.527l7-12.482h6.029v12.5Zm-11.758,0h5.441V165.609Zm22.8-3.869v-2.994H84.109v2.994Zm0,6v-2.994H84.109v2.994Zm-56.41,59.5a6.441,6.441,0,0,1-.581,2.775,6.549,6.549,0,0,1-1.6,2.194,7.532,7.532,0,0,1-2.345,1.408,7.95,7.95,0,0,1-5.653-.014,7.02,7.02,0,0,1-2.311-1.442,6.791,6.791,0,0,1-2.085-4.908,8.211,8.211,0,0,1,1.75-4.826l6.152-8.312h4.471L8.3,230.93a6.662,6.662,0,0,1,.9-.055,6.441,6.441,0,0,1,2.427.465,6.571,6.571,0,0,1,2.044,1.292,5.978,5.978,0,0,1,1.415,2.058A6.911,6.911,0,0,1,15.627,237.369Zm-3.855-.1a3.375,3.375,0,0,0-.957-2.55,3.481,3.481,0,0,0-2.584-.991,3.337,3.337,0,0,0-2.5,1,3.525,3.525,0,0,0-1,2.488,3.381,3.381,0,0,0,.916,2.536,3.4,3.4,0,0,0,2.543.964,3.561,3.561,0,0,0,2.57-.957A3.336,3.336,0,0,0,11.771,237.273Zm17.322-4.32-1.859-1.121,2.188-2.693q.314-.383.164-.643t-.629-.178l-3.473.533v-2.16l3.473.52q.479.082.629-.178t-.164-.643l-2.187-2.721,1.859-1.08,1.285,3.268q.164.479.479.479t.479-.479l1.271-3.268,1.9,1.08-2.229,2.721q-.314.383-.164.643t.643.178l3.459-.52v2.16l-3.459-.533q-.492-.082-.643.178t.178.643l2.215,2.693-1.9,1.121L31.336,229.7q-.164-.479-.479-.479t-.479.479Zm23.857-1.764q7.588,0,7.588,6.234a6.66,6.66,0,0,1-1.914,5,6.918,6.918,0,0,1-5.045,1.866,8.369,8.369,0,0,1-3.534-.731,6.1,6.1,0,0,1-2.563-2.174,5.822,5.822,0,0,1-.971-3.329,6.146,6.146,0,0,1,.082-.984l3.91-.178a5.78,5.78,0,0,0-.1.875,2.66,2.66,0,0,0,.889,2.181,3.349,3.349,0,0,0,2.2.731,3.034,3.034,0,0,0,2.3-.841,3.132,3.132,0,0,0,.807-2.263,2.816,2.816,0,0,0-.984-2.311,5.271,5.271,0,0,0-3.309-.807H47.127l.82-10.213H59.609v3.514H51.488l-.26,3.432Zm19.086,1.682v-2.994H84.109v2.994Zm0,6v-2.994H84.109v2.994Zm30.721,5.4q-3.691,0-5.387-1.8t-1.7-5.523l4.033-.178a14.282,14.282,0,0,0,.062,1.449,5.009,5.009,0,0,0,.246,1.121,2.006,2.006,0,0,0,.52.841,2.36,2.36,0,0,0,.889.485,4.392,4.392,0,0,0,1.333.178,3.2,3.2,0,0,0,2.331-.793,3.19,3.19,0,0,0,.034-4.218,2.933,2.933,0,0,0-2.092-.731h-.766v-3.062h.711a2.138,2.138,0,0,0,1.634-.7,2.486,2.486,0,0,0,.649-1.764,1.987,1.987,0,0,0-.711-1.641,2.89,2.89,0,0,0-1.873-.574,2.807,2.807,0,0,0-1.066.185,1.989,1.989,0,0,0-.718.472,2.086,2.086,0,0,0-.424.725,3.808,3.808,0,0,0-.205.861,8.6,8.6,0,0,0-.048.957l-3.979-.191a6.324,6.324,0,0,1,1.7-4.751,6.464,6.464,0,0,1,4.7-1.647,6.723,6.723,0,0,1,4.512,1.511,4.731,4.731,0,0,1,1.777,3.753,4.271,4.271,0,0,1-.759,2.543,4.344,4.344,0,0,1-1.729,1.5,4.869,4.869,0,0,1,1.258.561,5.156,5.156,0,0,1,1.1.943,4.21,4.21,0,0,1,.813,1.436,5.776,5.776,0,0,1,.3,1.914,5.583,5.583,0,0,1-1.955,4.464A7.712,7.712,0,0,1,102.758,244.273Zm16.775,0a6.162,6.162,0,0,1-5.312-2.557q-1.853-2.557-1.853-7.6t1.846-7.6a6.819,6.819,0,0,1,10.623,0q1.846,2.543,1.846,7.6t-1.853,7.6A6.148,6.148,0,0,1,119.533,244.273Zm0-3.555a2.6,2.6,0,0,0,2.372-1.62,15.13,15.13,0,0,0-.007-9.967,2.6,2.6,0,0,0-2.365-1.62q-3.227,0-3.227,6.6T119.533,240.719ZM15.627,298.369a6.441,6.441,0,0,1-.581,2.775,6.549,6.549,0,0,1-1.6,2.194,7.532,7.532,0,0,1-2.345,1.408,7.95,7.95,0,0,1-5.653-.014,7.02,7.02,0,0,1-2.311-1.442,6.791,6.791,0,0,1-2.085-4.908,8.211,8.211,0,0,1,1.75-4.826l6.152-8.312h4.471L8.3,291.93a6.659,6.659,0,0,1,.9-.055,6.44,6.44,0,0,1,2.427.465,6.572,6.572,0,0,1,2.044,1.292,5.978,5.978,0,0,1,1.415,2.058A6.911,6.911,0,0,1,15.627,298.369Zm-3.855-.1a3.375,3.375,0,0,0-.957-2.55,3.481,3.481,0,0,0-2.584-.991,3.337,3.337,0,0,0-2.5,1,3.525,3.525,0,0,0-1,2.488,3.381,3.381,0,0,0,.916,2.536,3.4,3.4,0,0,0,2.543.964,3.561,3.561,0,0,0,2.57-.957A3.336,3.336,0,0,0,11.771,298.273Zm17.322-4.32-1.859-1.121,2.188-2.693q.314-.383.164-.643t-.629-.178l-3.473.533v-2.16l3.473.52q.479.082.629-.178t-.164-.643l-2.187-2.721,1.859-1.08,1.285,3.268q.164.479.479.479t.479-.479l1.271-3.268,1.9,1.08-2.229,2.721q-.314.383-.164.643t.643.178l3.459-.52v2.16l-3.459-.533q-.492-.082-.643.178t.178.643l2.215,2.693-1.9,1.121L31.336,290.7q-.164-.479-.479-.479t-.479.479Zm31.514,4.416a6.441,6.441,0,0,1-.581,2.775,6.549,6.549,0,0,1-1.6,2.194,7.532,7.532,0,0,1-2.345,1.408,7.95,7.95,0,0,1-5.653-.014,7.02,7.02,0,0,1-2.311-1.442,6.791,6.791,0,0,1-2.085-4.908,8.211,8.211,0,0,1,1.75-4.826l6.152-8.312h4.471l-5.127,6.686a6.659,6.659,0,0,1,.9-.055,6.44,6.44,0,0,1,2.427.465,6.572,6.572,0,0,1,2.044,1.292,5.978,5.978,0,0,1,1.415,2.058A6.911,6.911,0,0,1,60.607,298.369Zm-3.855-.1a3.375,3.375,0,0,0-.957-2.55,3.481,3.481,0,0,0-2.584-.991,3.337,3.337,0,0,0-2.5,1,3.525,3.525,0,0,0-1,2.488,3.241,3.241,0,0,0,3.459,3.5,3.561,3.561,0,0,0,2.57-.957A3.336,3.336,0,0,0,56.752,298.273Zm15.285-4.4v-2.994H84.109v2.994Zm0,6v-2.994H84.109v2.994Zm30.721,5.4q-3.691,0-5.387-1.8t-1.7-5.523l4.033-.178a14.282,14.282,0,0,0,.062,1.449,5.009,5.009,0,0,0,.246,1.121,2.006,2.006,0,0,0,.52.841,2.361,2.361,0,0,0,.889.485,4.391,4.391,0,0,0,1.333.178,3.2,3.2,0,0,0,2.331-.793,3.19,3.19,0,0,0,.034-4.218,2.933,2.933,0,0,0-2.092-.731h-.766v-3.062h.711a2.138,2.138,0,0,0,1.634-.7,2.486,2.486,0,0,0,.649-1.764,1.987,1.987,0,0,0-.711-1.641,2.89,2.89,0,0,0-1.873-.574,2.807,2.807,0,0,0-1.066.185,1.989,1.989,0,0,0-.718.472,2.086,2.086,0,0,0-.424.725,3.808,3.808,0,0,0-.205.861,8.6,8.6,0,0,0-.048.957l-3.979-.191a6.324,6.324,0,0,1,1.7-4.751,6.464,6.464,0,0,1,4.7-1.647,6.723,6.723,0,0,1,4.512,1.511,4.731,4.731,0,0,1,1.777,3.753,4.271,4.271,0,0,1-.759,2.543,4.344,4.344,0,0,1-1.729,1.5,4.868,4.868,0,0,1,1.258.561,5.156,5.156,0,0,1,1.1.943,4.21,4.21,0,0,1,.813,1.436,5.776,5.776,0,0,1,.3,1.914,5.583,5.583,0,0,1-1.955,4.464A7.712,7.712,0,0,1,102.758,305.273Zm24.021-6.9a6.44,6.44,0,0,1-.581,2.775,6.549,6.549,0,0,1-1.6,2.194,7.532,7.532,0,0,1-2.345,1.408,7.95,7.95,0,0,1-5.653-.014,7.02,7.02,0,0,1-2.311-1.442,6.791,6.791,0,0,1-2.085-4.908,8.211,8.211,0,0,1,1.75-4.826l6.152-8.312h4.471l-5.127,6.686a6.659,6.659,0,0,1,.9-.055,6.44,6.44,0,0,1,2.427.465,6.572,6.572,0,0,1,2.044,1.292,5.978,5.978,0,0,1,1.415,2.058A6.911,6.911,0,0,1,126.779,298.369Zm-3.855-.1a3.375,3.375,0,0,0-.957-2.55,3.481,3.481,0,0,0-2.584-.991,3.337,3.337,0,0,0-2.5,1,3.525,3.525,0,0,0-1,2.488,3.241,3.241,0,0,0,3.459,3.5,3.561,3.561,0,0,0,2.57-.957A3.336,3.336,0,0,0,122.924,298.273Z" transform="translate(16117 -2331.938)" fill="#002b45"/>
    <path id="Trazado_24006" data-name="Trazado 24006" d="M7.82-19.756h3.746V0H7.643V-15.709L3.1-11.484v-4.047ZM23.6-3.514H32.02V0H18.088V-2.967l7.861-8.025a4.947,4.947,0,0,0,1.709-3.4,2.408,2.408,0,0,0-.7-1.832,2.772,2.772,0,0,0-1.989-.67q-2.8,0-2.8,3.186v1.463l-3.924-.4v-.984a6.161,6.161,0,0,1,1.8-4.751,6.912,6.912,0,0,1,4.895-1.675A7.24,7.24,0,0,1,29.7-18.539a5.115,5.115,0,0,1,1.839,4.17,5.913,5.913,0,0,1-.622,2.707,11.315,11.315,0,0,1-1.976,2.639Z" transform="translate(15939 -2211)" fill="#f91623"/>
    <path id="Trazado_24007" data-name="Trazado 24007" d="M7.82-19.756h3.746V0H7.643V-15.709L3.1-11.484v-4.047ZM23.6-3.514H32.02V0H18.088V-2.967l7.861-8.025a4.947,4.947,0,0,0,1.709-3.4,2.408,2.408,0,0,0-.7-1.832,2.772,2.772,0,0,0-1.989-.67q-2.8,0-2.8,3.186v1.463l-3.924-.4v-.984a6.161,6.161,0,0,1,1.8-4.751,6.912,6.912,0,0,1,4.895-1.675A7.24,7.24,0,0,1,29.7-18.539a5.115,5.115,0,0,1,1.839,4.17,5.913,5.913,0,0,1-.622,2.707,11.315,11.315,0,0,1-1.976,2.639Z" transform="translate(16210 -2271)" fill="#f91623"/>
    <path id="Trazado_24002" data-name="Trazado 24002" d="M6.877-3.514H15.3V0H1.367V-2.967l7.861-8.025a4.947,4.947,0,0,0,1.709-3.4,2.408,2.408,0,0,0-.7-1.832,2.772,2.772,0,0,0-1.989-.67q-2.8,0-2.8,3.186v1.463l-3.924-.4v-.984a6.161,6.161,0,0,1,1.8-4.751,6.912,6.912,0,0,1,4.895-1.675,7.24,7.24,0,0,1,4.765,1.518,5.115,5.115,0,0,1,1.839,4.17,5.913,5.913,0,0,1-.622,2.707,11.315,11.315,0,0,1-1.976,2.639ZM32.73-7.26v3.514H30.352V0H26.414V-3.746H17.322V-7.273l7-12.482h6.029v12.5Zm-11.758,0h5.441V-17.391Z" transform="translate(15939 -2028)" fill="#f91623"/>
    <path id="Trazado_24003" data-name="Trazado 24003" d="M6.877-3.514H15.3V0H1.367V-2.967l7.861-8.025a4.947,4.947,0,0,0,1.709-3.4,2.408,2.408,0,0,0-.7-1.832,2.772,2.772,0,0,0-1.989-.67q-2.8,0-2.8,3.186v1.463l-3.924-.4v-.984a6.161,6.161,0,0,1,1.8-4.751,6.912,6.912,0,0,1,4.895-1.675,7.24,7.24,0,0,1,4.765,1.518,5.115,5.115,0,0,1,1.839,4.17,5.913,5.913,0,0,1-.622,2.707,11.315,11.315,0,0,1-1.976,2.639ZM32.73-7.26v3.514H30.352V0H26.414V-3.746H17.322V-7.273l7-12.482h6.029v12.5Zm-11.758,0h5.441V-17.391Z" transform="translate(16212 -2150)" fill="#f91623"/>
  </g>
</svg>
