<svg xmlns="http://www.w3.org/2000/svg" width="454" height="414" viewBox="0 0 454 414">
  <g id="Grupo_14472" data-name="Grupo 14472" transform="translate(-786 -1516)">
    <path id="Trazado_23916" data-name="Trazado 23916" d="M0,0H454V414H0Z" transform="translate(786 1516)" fill="#d5f4fc"/>
    <path id="Trazado_23917" data-name="Trazado 23917" d="M-5.353-7.963A4.8,4.8,0,0,1-1.978-6.921a3.778,3.778,0,0,1,1.116,2.9,4.107,4.107,0,0,1-1.147,3.01,4.026,4.026,0,0,1-3,1.165,4.769,4.769,0,0,1-1.551-.25,4.19,4.19,0,0,1-1.31-.721A3.3,3.3,0,0,1-8.785-2.03,4,4,0,0,1-9.123-3.7a5.645,5.645,0,0,1,.044-.633l1.556-.132a6.186,6.186,0,0,0-.07.694A2.794,2.794,0,0,0-7.37-2.619a1.968,1.968,0,0,0,.6.787,2.738,2.738,0,0,0,.813.426,2.968,2.968,0,0,0,.918.141,2.538,2.538,0,0,0,1.92-.756,2.69,2.69,0,0,0,.725-1.942,2.559,2.559,0,0,0-.751-1.951A3.368,3.368,0,0,0-5.52-6.627H-8.648l.765-5.73H-1.4v1.415H-6.6L-7-7.963ZM9.756-3.885v1.4H7.849V0H6.328V-2.487H.4V-3.894l5.15-8.481H7.849v8.49Zm-7.778,0H6.328v-7.374ZM0,48.167a3.447,3.447,0,0,1-3.05-1.617A8.623,8.623,0,0,1-4.118,41.8a8.662,8.662,0,0,1,1.059-4.737A3.444,3.444,0,0,1,0,35.458a3.436,3.436,0,0,1,3.05,1.613A8.637,8.637,0,0,1,4.118,41.8a8.6,8.6,0,0,1-1.077,4.742A3.44,3.44,0,0,1,0,48.167Zm0-1.406a2.093,2.093,0,0,0,1.925-1.239A8.08,8.08,0,0,0,2.6,41.8a7.851,7.851,0,0,0-.681-3.713A2.105,2.105,0,0,0,0,36.873a2.1,2.1,0,0,0-1.916,1.213A7.891,7.891,0,0,0-2.588,41.8a8.122,8.122,0,0,0,.664,3.722A2.091,2.091,0,0,0,0,46.761Z" transform="translate(844 1574.639)" fill="#00223d"/>
    <path id="Trazado_23918" data-name="Trazado 23918" d="M4.276-4.122A4.176,4.176,0,0,1,3.713-1.9,3.974,3.974,0,0,1,2.158-.387,4.437,4.437,0,0,1,.013.141,4.32,4.32,0,0,1-3.063-1.024a3.934,3.934,0,0,1-1.239-3A4.873,4.873,0,0,1-3.23-7L.91-12.375H2.7L-.734-8.042A3.853,3.853,0,0,1,.338-8.191a3.933,3.933,0,0,1,1.9.475A3.8,3.8,0,0,1,3.687-6.3,4.242,4.242,0,0,1,4.276-4.122Zm-4.3,2.848a2.772,2.772,0,0,0,2.035-.787,2.749,2.749,0,0,0,.778-2.087,2.815,2.815,0,0,0-.817-2.087A2.8,2.8,0,0,0-.048-7a2.66,2.66,0,0,0-2.021.848,2.842,2.842,0,0,0-.782,2.07,2.739,2.739,0,0,0,.8,2.065A2.834,2.834,0,0,0-.022-1.274Zm0,36.759A4.324,4.324,0,0,1,3.05,36.649a3.927,3.927,0,0,1,1.244,3,4.873,4.873,0,0,1-1.081,2.971L-.927,48H-2.747L.672,43.693a3.992,3.992,0,0,1-1.037.132,3.863,3.863,0,0,1-1.885-.479A3.845,3.845,0,0,1-3.7,41.922a4.225,4.225,0,0,1-.589-2.167,4.445,4.445,0,0,1,.321-1.745,3.84,3.84,0,0,1,.91-1.354A4.235,4.235,0,0,1-1.687,35.8,4.476,4.476,0,0,1-.022,35.484Zm-1.964,6.372A2.805,2.805,0,0,0,.04,42.63a2.646,2.646,0,0,0,2.017-.848,2.85,2.85,0,0,0,.778-2.07,2.763,2.763,0,0,0-.8-2.057,2.806,2.806,0,0,0-2.021-.747,2.79,2.79,0,0,0-2.035.787,2.733,2.733,0,0,0-.787,2.087A2.8,2.8,0,0,0-1.986,41.856Z" transform="translate(896.789 1575.639)" fill="#00223d"/>
    <path id="Trazado_23919" data-name="Trazado 23919" d="M0,0V82.816" transform="translate(871.409 1553)" fill="none" stroke="blue" stroke-width="3.666"/>
    <path id="Trazado_23920" data-name="Trazado 23920" d="M46.619,0H0" transform="translate(871.409 1594.407)" fill="none" stroke="blue" stroke-width="3.666"/>
    <path id="Trazado_23926" data-name="Trazado 23926" d="M-7.066-1.4H-.905V0h-8.35V-1.151L-4.3-6.275A5.872,5.872,0,0,0-3.182-7.743a2.928,2.928,0,0,0,.308-1.274A2.136,2.136,0,0,0-3.5-10.657a2.27,2.27,0,0,0-1.617-.584,2.269,2.269,0,0,0-1.692.637,2.741,2.741,0,0,0-.628,1.991V-7.7L-8.956-7.84V-8.6a3.912,3.912,0,0,1,1.046-2.94A3.842,3.842,0,0,1-5.115-12.56a3.873,3.873,0,0,1,2.685.94A3.27,3.27,0,0,1-1.38-9.053,3.892,3.892,0,0,1-1.8-7.264a7.689,7.689,0,0,1-1.34,1.78ZM5.071.167A3.447,3.447,0,0,1,2.021-1.45,8.623,8.623,0,0,1,.949-6.2a8.662,8.662,0,0,1,1.059-4.737,3.444,3.444,0,0,1,3.063-1.608,3.436,3.436,0,0,1,3.05,1.613A8.637,8.637,0,0,1,9.185-6.2,8.6,8.6,0,0,1,8.108-1.455,3.44,3.44,0,0,1,5.071.167Zm0-1.406A2.093,2.093,0,0,0,7-2.479,8.08,8.08,0,0,0,7.664-6.2,7.851,7.851,0,0,0,6.983-9.91a2.105,2.105,0,0,0-1.912-1.217A2.1,2.1,0,0,0,3.155-9.914,7.891,7.891,0,0,0,2.479-6.2a8.122,8.122,0,0,0,.664,3.722A2.091,2.091,0,0,0,5.071-1.239ZM0,48.167a3.447,3.447,0,0,1-3.05-1.617A8.623,8.623,0,0,1-4.118,41.8a8.662,8.662,0,0,1,1.059-4.737A3.444,3.444,0,0,1,0,35.458a3.436,3.436,0,0,1,3.05,1.613A8.637,8.637,0,0,1,4.118,41.8a8.6,8.6,0,0,1-1.077,4.742A3.44,3.44,0,0,1,0,48.167Zm0-1.406a2.093,2.093,0,0,0,1.925-1.239A8.08,8.08,0,0,0,2.6,41.8a7.851,7.851,0,0,0-.681-3.713A2.105,2.105,0,0,0,0,36.873a2.1,2.1,0,0,0-1.916,1.213A7.891,7.891,0,0,0-2.588,41.8a8.122,8.122,0,0,0,.664,3.722A2.091,2.091,0,0,0,0,46.761Z" transform="translate(1044.328 1574.639)" fill="#00223d"/>
    <path id="Trazado_23928" data-name="Trazado 23928" d="M-4.975-12.375h1.424V0h-1.5V-10.714L-8.024-8.139V-9.765ZM5.071.167A3.447,3.447,0,0,1,2.021-1.45,8.623,8.623,0,0,1,.949-6.2a8.662,8.662,0,0,1,1.059-4.737,3.444,3.444,0,0,1,3.063-1.608,3.436,3.436,0,0,1,3.05,1.613A8.637,8.637,0,0,1,9.185-6.2,8.6,8.6,0,0,1,8.108-1.455,3.44,3.44,0,0,1,5.071.167Zm0-1.406A2.093,2.093,0,0,0,7-2.479,8.08,8.08,0,0,0,7.664-6.2,7.851,7.851,0,0,0,6.983-9.91a2.105,2.105,0,0,0-1.912-1.217A2.1,2.1,0,0,0,3.155-9.914,7.891,7.891,0,0,0,2.479-6.2a8.122,8.122,0,0,0,.664,3.722A2.091,2.091,0,0,0,5.071-1.239ZM-2,46.6H4.162V48h-8.35V46.849L.769,41.725a5.872,5.872,0,0,0,1.116-1.468,2.928,2.928,0,0,0,.308-1.274,2.136,2.136,0,0,0-.624-1.639,2.27,2.27,0,0,0-1.617-.584A2.269,2.269,0,0,0-1.74,37.4a2.741,2.741,0,0,0-.628,1.991V40.3l-1.521-.141V39.4a3.912,3.912,0,0,1,1.046-2.94A3.842,3.842,0,0,1-.048,35.44a3.873,3.873,0,0,1,2.685.94,3.27,3.27,0,0,1,1.05,2.566,3.892,3.892,0,0,1-.417,1.789,7.689,7.689,0,0,1-1.34,1.78Z" transform="translate(1097.107 1574.639)" fill="#00223d"/>
    <path id="Trazado_23927" data-name="Trazado 23927" d="M0,0V82.816" transform="translate(1071.736 1553)" fill="none" stroke="blue" stroke-width="3.666"/>
    <path id="Trazado_23929" data-name="Trazado 23929" d="M46.619,0H0" transform="translate(1071.736 1594.407)" fill="none" stroke="blue" stroke-width="3.666"/>
    <path id="Trazado_23921" data-name="Trazado 23921" d="M-10.217.167q-4.122,0-4.122-4.4l1.547-.079a3.864,3.864,0,0,0,.58,2.329,2.339,2.339,0,0,0,2,.773A2.742,2.742,0,0,0-8.3-1.881,2.254,2.254,0,0,0-7.563-3.63a2.232,2.232,0,0,0-.708-1.74,2.537,2.537,0,0,0-1.771-.642h-.615V-7.3h.6a1.831,1.831,0,0,0,1.354-.571,1.927,1.927,0,0,0,.563-1.406,1.733,1.733,0,0,0-.6-1.362,2.188,2.188,0,0,0-1.5-.527,2.392,2.392,0,0,0-.989.185,1.388,1.388,0,0,0-.628.541,2.548,2.548,0,0,0-.316.787,4.611,4.611,0,0,0-.1,1l-1.547-.053a4.007,4.007,0,0,1,.927-2.839,3.436,3.436,0,0,1,2.641-.993,3.669,3.669,0,0,1,2.536.905A2.893,2.893,0,0,1-6.7-9.387a2.71,2.71,0,0,1-.492,1.608,2.812,2.812,0,0,1-1.239,1,3.421,3.421,0,0,1,1.74,1.134A3.179,3.179,0,0,1-6.016-3.56,3.4,3.4,0,0,1-7.2-.861,4.434,4.434,0,0,1-10.217.167ZM3.01-.853a4.457,4.457,0,0,1-3,1.02,4.462,4.462,0,0,1-3-1.024,3.369,3.369,0,0,1-1.2-2.694,3.329,3.329,0,0,1,.624-2.021,3.577,3.577,0,0,1,1.7-1.248A3.056,3.056,0,0,1-3.085-7.879,2.694,2.694,0,0,1-3.538-9.4a2.861,2.861,0,0,1,1.011-2.254,3.72,3.72,0,0,1,2.54-.883,3.655,3.655,0,0,1,2.509.888A2.87,2.87,0,0,1,3.529-9.4a2.753,2.753,0,0,1-.439,1.525,2.974,2.974,0,0,1-1.2,1.059A3.647,3.647,0,0,1,3.582-5.568a3.31,3.31,0,0,1,.624,2.017A3.371,3.371,0,0,1,3.01-.853Zm-3-6.469a2.094,2.094,0,0,0,1.5-.58,1.887,1.887,0,0,0,.611-1.424,1.826,1.826,0,0,0-.611-1.393,2.121,2.121,0,0,0-1.5-.567,2.138,2.138,0,0,0-1.512.563,1.829,1.829,0,0,0-.606,1.4A1.887,1.887,0,0,0-1.494-7.9,2.105,2.105,0,0,0,.013-7.321Zm0,6.082a2.756,2.756,0,0,0,1.9-.677,2.283,2.283,0,0,0,.76-1.793,2.237,2.237,0,0,0-.76-1.767,2.778,2.778,0,0,0-1.9-.668A2.807,2.807,0,0,0-1.9-5.476a2.231,2.231,0,0,0-.765,1.767A2.277,2.277,0,0,0-1.9-1.916,2.785,2.785,0,0,0,.013-1.239ZM10.138.167A3.447,3.447,0,0,1,7.088-1.45,8.623,8.623,0,0,1,6.016-6.2a8.662,8.662,0,0,1,1.059-4.737,3.444,3.444,0,0,1,3.063-1.608,3.436,3.436,0,0,1,3.05,1.613A8.637,8.637,0,0,1,14.251-6.2a8.6,8.6,0,0,1-1.077,4.742A3.44,3.44,0,0,1,10.138.167Zm0-1.406a2.093,2.093,0,0,0,1.925-1.239A8.08,8.08,0,0,0,12.731-6.2,7.851,7.851,0,0,0,12.05-9.91a2.105,2.105,0,0,0-1.912-1.217A2.1,2.1,0,0,0,8.222-9.914,7.891,7.891,0,0,0,7.545-6.2a8.122,8.122,0,0,0,.664,3.722A2.091,2.091,0,0,0,10.138-1.239ZM3.01,47.147a4.457,4.457,0,0,1-3,1.02,4.462,4.462,0,0,1-3-1.024,3.369,3.369,0,0,1-1.2-2.694,3.329,3.329,0,0,1,.624-2.021,3.577,3.577,0,0,1,1.7-1.248,3.056,3.056,0,0,1-1.217-1.059A2.694,2.694,0,0,1-3.538,38.6a2.861,2.861,0,0,1,1.011-2.254,3.72,3.72,0,0,1,2.54-.883,3.655,3.655,0,0,1,2.509.888A2.87,2.87,0,0,1,3.529,38.6a2.753,2.753,0,0,1-.439,1.525,2.974,2.974,0,0,1-1.2,1.059,3.647,3.647,0,0,1,1.688,1.252,3.31,3.31,0,0,1,.624,2.017A3.371,3.371,0,0,1,3.01,47.147Zm-3-6.469a2.094,2.094,0,0,0,1.5-.58,1.887,1.887,0,0,0,.611-1.424,1.826,1.826,0,0,0-.611-1.393,2.121,2.121,0,0,0-1.5-.567,2.138,2.138,0,0,0-1.512.563,1.829,1.829,0,0,0-.606,1.4A1.887,1.887,0,0,0-1.494,40.1,2.105,2.105,0,0,0,.013,40.679Zm0,6.082a2.756,2.756,0,0,0,1.9-.677,2.283,2.283,0,0,0,.76-1.793,2.237,2.237,0,0,0-.76-1.767,2.778,2.778,0,0,0-1.9-.668,2.807,2.807,0,0,0-1.916.668,2.231,2.231,0,0,0-.765,1.767A2.277,2.277,0,0,0-1.9,46.084,2.785,2.785,0,0,0,.013,46.761Z" transform="translate(946.927 1760.375)" fill="#00223d"/>
    <path id="Trazado_23922" data-name="Trazado 23922" d="M-4.975-12.375h1.424V0h-1.5V-10.714L-8.024-8.139V-9.765ZM3.067-1.4H9.229V0H.879V-1.151L5.836-6.275A5.872,5.872,0,0,0,6.952-7.743,2.928,2.928,0,0,0,7.26-9.018a2.136,2.136,0,0,0-.624-1.639,2.27,2.27,0,0,0-1.617-.584,2.269,2.269,0,0,0-1.692.637A2.741,2.741,0,0,0,2.7-8.613V-7.7L1.178-7.84V-8.6a3.912,3.912,0,0,1,1.046-2.94A3.842,3.842,0,0,1,5.019-12.56a3.873,3.873,0,0,1,2.685.94,3.27,3.27,0,0,1,1.05,2.566,3.892,3.892,0,0,1-.417,1.789A7.689,7.689,0,0,1,7-5.484ZM-5.15,48.167q-4.122,0-4.122-4.4l1.547-.079a3.864,3.864,0,0,0,.58,2.329,2.339,2.339,0,0,0,2,.773,2.742,2.742,0,0,0,1.92-.668A2.254,2.254,0,0,0-2.5,44.37,2.232,2.232,0,0,0-3.2,42.63a2.537,2.537,0,0,0-1.771-.642H-5.59V40.7h.6a1.831,1.831,0,0,0,1.354-.571,1.927,1.927,0,0,0,.563-1.406,1.733,1.733,0,0,0-.6-1.362,2.188,2.188,0,0,0-1.5-.527,2.392,2.392,0,0,0-.989.185,1.388,1.388,0,0,0-.628.541,2.548,2.548,0,0,0-.316.787,4.611,4.611,0,0,0-.1,1l-1.547-.053a4.007,4.007,0,0,1,.927-2.839,3.436,3.436,0,0,1,2.641-.993,3.669,3.669,0,0,1,2.536.905,2.893,2.893,0,0,1,1.015,2.25,2.71,2.71,0,0,1-.492,1.608,2.812,2.812,0,0,1-1.239,1,3.421,3.421,0,0,1,1.74,1.134A3.179,3.179,0,0,1-.949,44.44a3.4,3.4,0,0,1-1.182,2.7A4.434,4.434,0,0,1-5.15,48.167ZM5.159,35.625H6.583V48H5.08V37.286L2.109,39.861V38.235Z" transform="translate(996.045 1759.375)" fill="#00223d"/>
    <path id="Trazado_23923" data-name="Trazado 23923" d="M0,0V82.816" transform="translate(973.804 1737.736)" fill="none" stroke="blue" stroke-width="3.554"/>
    <path id="Trazado_23924" data-name="Trazado 23924" d="M46.619,0H0" transform="translate(972.51 1779.144)" fill="none" stroke="blue" stroke-width="3.666"/>
    <path id="Trazado_23505" data-name="Trazado 23505" d="M1229.24,642.067v52.782h62.949" transform="translate(-384.221 1005.122)" fill="none" stroke="#ff8d00" stroke-miterlimit="10" stroke-width="1.777"/>
    <path id="Trazado_23915" data-name="Trazado 23915" d="M1229.24,642.067v52.782h62.949" transform="translate(-185.221 1005.122)" fill="none" stroke="#ff8d00" stroke-miterlimit="10" stroke-width="1.777"/>
    <path id="Trazado_23507" data-name="Trazado 23507" d="M1334.627,826.5v52.782h62.418" transform="translate(-384.045 1005.431)" fill="none" stroke="#ff8d00" stroke-miterlimit="10" stroke-width="1.777"/>
    <path id="Trazado_23925" data-name="Trazado 23925" d="M-29.209,0l-3.672-6.211h-.85V0h-2.93V-14.111h5.117a5.919,5.919,0,0,1,2.051.327,3.546,3.546,0,0,1,1.421.908,3.889,3.889,0,0,1,.8,1.333A4.876,4.876,0,0,1-27-9.893a3.446,3.446,0,0,1-.771,2.319A3.888,3.888,0,0,1-29.99-6.357L-25.742,0ZM-33.73-11.68v3.369H-32q2.2,0,2.2-1.68a1.53,1.53,0,0,0-.537-1.24A2.554,2.554,0,0,0-32-11.68Zm18.613,6.514-.029.674h-7.441a2.6,2.6,0,0,0,.8,1.836,2.561,2.561,0,0,0,1.768.635A2.468,2.468,0,0,0-18.7-2.368a2.131,2.131,0,0,0,.845-1.011L-15.273-3A4.383,4.383,0,0,1-17.031-.645,5.226,5.226,0,0,1-20,.2a5.435,5.435,0,0,1-3.911-1.382,5.042,5.042,0,0,1-1.45-3.833,5.072,5.072,0,0,1,1.455-3.833,5.273,5.273,0,0,1,3.818-1.4,5.04,5.04,0,0,1,3.6,1.279A5.019,5.019,0,0,1-15.117-5.166Zm-4.951-3.1A2.222,2.222,0,0,0-22.51-6.328H-17.9a2.114,2.114,0,0,0-.693-1.436A2.2,2.2,0,0,0-20.068-8.262ZM-9.443.2a5.61,5.61,0,0,1-2.93-.7A2.972,2.972,0,0,1-13.809-2.6l2.354-.664A1.891,1.891,0,0,0-9.443-1.768,2.078,2.078,0,0,0-8.418-2a.8.8,0,0,0,.4-.776.821.821,0,0,0-.166-.518A1.315,1.315,0,0,0-8.7-3.662a6.387,6.387,0,0,0-.684-.264q-.337-.107-.894-.259t-.928-.288a6.215,6.215,0,0,1-.884-.376,3.77,3.77,0,0,1-.732-.518,2.086,2.086,0,0,1-.547-.786,2.836,2.836,0,0,1-.19-1.074,2.565,2.565,0,0,1,1.089-2.246,4.865,4.865,0,0,1,2.847-.762,4.988,4.988,0,0,1,2.627.645A2.917,2.917,0,0,1-5.645-7.578l-2.178.488a1.706,1.706,0,0,0-1.787-1.27,1.957,1.957,0,0,0-.986.225.722.722,0,0,0-.391.664.761.761,0,0,0,.059.3.6.6,0,0,0,.205.244,2.991,2.991,0,0,0,.283.186,2.137,2.137,0,0,0,.4.161q.264.083.439.127l.513.132.522.137q.537.146.942.293a5.519,5.519,0,0,1,.864.41A3.1,3.1,0,0,1-6-4.888a2.635,2.635,0,0,1,.493.83,3.066,3.066,0,0,1,.2,1.118,3.02,3.02,0,0,1-.337,1.455A2.529,2.529,0,0,1-6.572-.5a4.492,4.492,0,0,1-1.3.527A6.763,6.763,0,0,1-9.443.2Zm7.588-11.738a1.579,1.579,0,0,1-1.152-.474,1.555,1.555,0,0,1-.479-1.147A1.536,1.536,0,0,1-3-14.3a1.584,1.584,0,0,1,1.147-.474A1.556,1.556,0,0,1-.723-14.3a1.544,1.544,0,0,1,.479,1.138,1.555,1.555,0,0,1-.479,1.147A1.556,1.556,0,0,1-1.855-11.543ZM-3.291,0V-10.039H-.459V0ZM9.57-15h2.813V0H9.717L9.648-1.309A2.867,2.867,0,0,1,8.374-.171a4.29,4.29,0,0,1-1.88.405A4.883,4.883,0,0,1,4.619-.127,4.654,4.654,0,0,1,3.081-1.147,4.652,4.652,0,0,1,2.041-2.8,6.106,6.106,0,0,1,1.66-5a5.707,5.707,0,0,1,.664-2.8A4.55,4.55,0,0,1,4.077-9.619a4.827,4.827,0,0,1,2.417-.615,4.4,4.4,0,0,1,1.821.366A2.843,2.843,0,0,1,9.57-8.828ZM7.139-2.1a2.5,2.5,0,0,0,1.9-.8A2.932,2.932,0,0,0,9.795-5a2.938,2.938,0,0,0-.762-2.1A2.5,2.5,0,0,0,7.139-7.91a2.53,2.53,0,0,0-1.909.791A2.937,2.937,0,0,0,4.473-5a2.924,2.924,0,0,0,.757,2.109A2.53,2.53,0,0,0,7.139-2.1Zm14.8-7.939h2.813V0H22.09l-.068-1.211A3.834,3.834,0,0,1,18.828.2a3.914,3.914,0,0,1-2.773-.9,3.349,3.349,0,0,1-.967-2.573v-6.758H17.91v6.152a1.735,1.735,0,0,0,.5,1.377,1.909,1.909,0,0,0,1.3.439,2.264,2.264,0,0,0,1.6-.571,2.454,2.454,0,0,0,.63-1.86ZM32.344.2A6.313,6.313,0,0,1,29.5-.42a4.6,4.6,0,0,1-1.948-1.807,5.384,5.384,0,0,1-.708-2.8,4.911,4.911,0,0,1,1.523-3.809,5.652,5.652,0,0,1,3.975-1.4,5.665,5.665,0,0,1,3.984,1.4,4.911,4.911,0,0,1,1.523,3.809,4.938,4.938,0,0,1-1.523,3.823A5.654,5.654,0,0,1,32.344.2Zm-.029-2.236a2.577,2.577,0,0,0,1.987-.82,3.071,3.071,0,0,0,.757-2.168A3.071,3.071,0,0,0,34.3-7.2a2.577,2.577,0,0,0-1.987-.82,2.483,2.483,0,0,0-1.929.825,3.1,3.1,0,0,0-.747,2.163,3.1,3.1,0,0,0,.747,2.163A2.483,2.483,0,0,0,32.314-2.041Z" transform="translate(959.291 1703.576)" fill="#002b45"/>
    <path id="Trazado_23931" data-name="Trazado 23931" d="M-29.209,0l-3.672-6.211h-.85V0h-2.93V-14.111h5.117a5.919,5.919,0,0,1,2.051.327,3.546,3.546,0,0,1,1.421.908,3.889,3.889,0,0,1,.8,1.333A4.876,4.876,0,0,1-27-9.893a3.446,3.446,0,0,1-.771,2.319A3.888,3.888,0,0,1-29.99-6.357L-25.742,0ZM-33.73-11.68v3.369H-32q2.2,0,2.2-1.68a1.53,1.53,0,0,0-.537-1.24A2.554,2.554,0,0,0-32-11.68Zm18.613,6.514-.029.674h-7.441a2.6,2.6,0,0,0,.8,1.836,2.561,2.561,0,0,0,1.768.635A2.468,2.468,0,0,0-18.7-2.368a2.131,2.131,0,0,0,.845-1.011L-15.273-3A4.383,4.383,0,0,1-17.031-.645,5.226,5.226,0,0,1-20,.2a5.435,5.435,0,0,1-3.911-1.382,5.042,5.042,0,0,1-1.45-3.833,5.072,5.072,0,0,1,1.455-3.833,5.273,5.273,0,0,1,3.818-1.4,5.04,5.04,0,0,1,3.6,1.279A5.019,5.019,0,0,1-15.117-5.166Zm-4.951-3.1A2.222,2.222,0,0,0-22.51-6.328H-17.9a2.114,2.114,0,0,0-.693-1.436A2.2,2.2,0,0,0-20.068-8.262ZM-9.443.2a5.61,5.61,0,0,1-2.93-.7A2.972,2.972,0,0,1-13.809-2.6l2.354-.664A1.891,1.891,0,0,0-9.443-1.768,2.078,2.078,0,0,0-8.418-2a.8.8,0,0,0,.4-.776.821.821,0,0,0-.166-.518A1.315,1.315,0,0,0-8.7-3.662a6.387,6.387,0,0,0-.684-.264q-.337-.107-.894-.259t-.928-.288a6.215,6.215,0,0,1-.884-.376,3.77,3.77,0,0,1-.732-.518,2.086,2.086,0,0,1-.547-.786,2.836,2.836,0,0,1-.19-1.074,2.565,2.565,0,0,1,1.089-2.246,4.865,4.865,0,0,1,2.847-.762,4.988,4.988,0,0,1,2.627.645A2.917,2.917,0,0,1-5.645-7.578l-2.178.488a1.706,1.706,0,0,0-1.787-1.27,1.957,1.957,0,0,0-.986.225.722.722,0,0,0-.391.664.761.761,0,0,0,.059.3.6.6,0,0,0,.205.244,2.991,2.991,0,0,0,.283.186,2.137,2.137,0,0,0,.4.161q.264.083.439.127l.513.132.522.137q.537.146.942.293a5.519,5.519,0,0,1,.864.41A3.1,3.1,0,0,1-6-4.888a2.635,2.635,0,0,1,.493.83,3.066,3.066,0,0,1,.2,1.118,3.02,3.02,0,0,1-.337,1.455A2.529,2.529,0,0,1-6.572-.5a4.492,4.492,0,0,1-1.3.527A6.763,6.763,0,0,1-9.443.2Zm7.588-11.738a1.579,1.579,0,0,1-1.152-.474,1.555,1.555,0,0,1-.479-1.147A1.536,1.536,0,0,1-3-14.3a1.584,1.584,0,0,1,1.147-.474A1.556,1.556,0,0,1-.723-14.3a1.544,1.544,0,0,1,.479,1.138,1.555,1.555,0,0,1-.479,1.147A1.556,1.556,0,0,1-1.855-11.543ZM-3.291,0V-10.039H-.459V0ZM9.57-15h2.813V0H9.717L9.648-1.309A2.867,2.867,0,0,1,8.374-.171a4.29,4.29,0,0,1-1.88.405A4.883,4.883,0,0,1,4.619-.127,4.654,4.654,0,0,1,3.081-1.147,4.652,4.652,0,0,1,2.041-2.8,6.106,6.106,0,0,1,1.66-5a5.707,5.707,0,0,1,.664-2.8A4.55,4.55,0,0,1,4.077-9.619a4.827,4.827,0,0,1,2.417-.615,4.4,4.4,0,0,1,1.821.366A2.843,2.843,0,0,1,9.57-8.828ZM7.139-2.1a2.5,2.5,0,0,0,1.9-.8A2.932,2.932,0,0,0,9.795-5a2.938,2.938,0,0,0-.762-2.1A2.5,2.5,0,0,0,7.139-7.91a2.53,2.53,0,0,0-1.909.791A2.937,2.937,0,0,0,4.473-5a2.924,2.924,0,0,0,.757,2.109A2.53,2.53,0,0,0,7.139-2.1Zm14.8-7.939h2.813V0H22.09l-.068-1.211A3.834,3.834,0,0,1,18.828.2a3.914,3.914,0,0,1-2.773-.9,3.349,3.349,0,0,1-.967-2.573v-6.758H17.91v6.152a1.735,1.735,0,0,0,.5,1.377,1.909,1.909,0,0,0,1.3.439,2.264,2.264,0,0,0,1.6-.571,2.454,2.454,0,0,0,.63-1.86ZM32.344.2A6.313,6.313,0,0,1,29.5-.42a4.6,4.6,0,0,1-1.948-1.807,5.384,5.384,0,0,1-.708-2.8,4.911,4.911,0,0,1,1.523-3.809,5.652,5.652,0,0,1,3.975-1.4,5.665,5.665,0,0,1,3.984,1.4,4.911,4.911,0,0,1,1.523,3.809,4.938,4.938,0,0,1-1.523,3.823A5.654,5.654,0,0,1,32.344.2Zm-.029-2.236a2.577,2.577,0,0,0,1.987-.82,3.071,3.071,0,0,0,.757-2.168A3.071,3.071,0,0,0,34.3-7.2a2.577,2.577,0,0,0-1.987-.82,2.483,2.483,0,0,0-1.929.825,3.1,3.1,0,0,0-.747,2.163,3.1,3.1,0,0,0,.747,2.163A2.483,2.483,0,0,0,32.314-2.041Z" transform="translate(1164.152 1703.576)" fill="#002b45"/>
    <path id="Trazado_23930" data-name="Trazado 23930" d="M-29.209,0l-3.672-6.211h-.85V0h-2.93V-14.111h5.117a5.919,5.919,0,0,1,2.051.327,3.546,3.546,0,0,1,1.421.908,3.889,3.889,0,0,1,.8,1.333A4.876,4.876,0,0,1-27-9.893a3.446,3.446,0,0,1-.771,2.319A3.888,3.888,0,0,1-29.99-6.357L-25.742,0ZM-33.73-11.68v3.369H-32q2.2,0,2.2-1.68a1.53,1.53,0,0,0-.537-1.24A2.554,2.554,0,0,0-32-11.68Zm18.613,6.514-.029.674h-7.441a2.6,2.6,0,0,0,.8,1.836,2.561,2.561,0,0,0,1.768.635A2.468,2.468,0,0,0-18.7-2.368a2.131,2.131,0,0,0,.845-1.011L-15.273-3A4.383,4.383,0,0,1-17.031-.645,5.226,5.226,0,0,1-20,.2a5.435,5.435,0,0,1-3.911-1.382,5.042,5.042,0,0,1-1.45-3.833,5.072,5.072,0,0,1,1.455-3.833,5.273,5.273,0,0,1,3.818-1.4,5.04,5.04,0,0,1,3.6,1.279A5.019,5.019,0,0,1-15.117-5.166Zm-4.951-3.1A2.222,2.222,0,0,0-22.51-6.328H-17.9a2.114,2.114,0,0,0-.693-1.436A2.2,2.2,0,0,0-20.068-8.262ZM-9.443.2a5.61,5.61,0,0,1-2.93-.7A2.972,2.972,0,0,1-13.809-2.6l2.354-.664A1.891,1.891,0,0,0-9.443-1.768,2.078,2.078,0,0,0-8.418-2a.8.8,0,0,0,.4-.776.821.821,0,0,0-.166-.518A1.315,1.315,0,0,0-8.7-3.662a6.387,6.387,0,0,0-.684-.264q-.337-.107-.894-.259t-.928-.288a6.215,6.215,0,0,1-.884-.376,3.77,3.77,0,0,1-.732-.518,2.086,2.086,0,0,1-.547-.786,2.836,2.836,0,0,1-.19-1.074,2.565,2.565,0,0,1,1.089-2.246,4.865,4.865,0,0,1,2.847-.762,4.988,4.988,0,0,1,2.627.645A2.917,2.917,0,0,1-5.645-7.578l-2.178.488a1.706,1.706,0,0,0-1.787-1.27,1.957,1.957,0,0,0-.986.225.722.722,0,0,0-.391.664.761.761,0,0,0,.059.3.6.6,0,0,0,.205.244,2.991,2.991,0,0,0,.283.186,2.137,2.137,0,0,0,.4.161q.264.083.439.127l.513.132.522.137q.537.146.942.293a5.519,5.519,0,0,1,.864.41A3.1,3.1,0,0,1-6-4.888a2.635,2.635,0,0,1,.493.83,3.066,3.066,0,0,1,.2,1.118,3.02,3.02,0,0,1-.337,1.455A2.529,2.529,0,0,1-6.572-.5a4.492,4.492,0,0,1-1.3.527A6.763,6.763,0,0,1-9.443.2Zm7.588-11.738a1.579,1.579,0,0,1-1.152-.474,1.555,1.555,0,0,1-.479-1.147A1.536,1.536,0,0,1-3-14.3a1.584,1.584,0,0,1,1.147-.474A1.556,1.556,0,0,1-.723-14.3a1.544,1.544,0,0,1,.479,1.138,1.555,1.555,0,0,1-.479,1.147A1.556,1.556,0,0,1-1.855-11.543ZM-3.291,0V-10.039H-.459V0ZM9.57-15h2.813V0H9.717L9.648-1.309A2.867,2.867,0,0,1,8.374-.171a4.29,4.29,0,0,1-1.88.405A4.883,4.883,0,0,1,4.619-.127,4.654,4.654,0,0,1,3.081-1.147,4.652,4.652,0,0,1,2.041-2.8,6.106,6.106,0,0,1,1.66-5a5.707,5.707,0,0,1,.664-2.8A4.55,4.55,0,0,1,4.077-9.619a4.827,4.827,0,0,1,2.417-.615,4.4,4.4,0,0,1,1.821.366A2.843,2.843,0,0,1,9.57-8.828ZM7.139-2.1a2.5,2.5,0,0,0,1.9-.8A2.932,2.932,0,0,0,9.795-5a2.938,2.938,0,0,0-.762-2.1A2.5,2.5,0,0,0,7.139-7.91a2.53,2.53,0,0,0-1.909.791A2.937,2.937,0,0,0,4.473-5a2.924,2.924,0,0,0,.757,2.109A2.53,2.53,0,0,0,7.139-2.1Zm14.8-7.939h2.813V0H22.09l-.068-1.211A3.834,3.834,0,0,1,18.828.2a3.914,3.914,0,0,1-2.773-.9,3.349,3.349,0,0,1-.967-2.573v-6.758H17.91v6.152a1.735,1.735,0,0,0,.5,1.377,1.909,1.909,0,0,0,1.3.439,2.264,2.264,0,0,0,1.6-.571,2.454,2.454,0,0,0,.63-1.86ZM32.344.2A6.313,6.313,0,0,1,29.5-.42a4.6,4.6,0,0,1-1.948-1.807,5.384,5.384,0,0,1-.708-2.8,4.911,4.911,0,0,1,1.523-3.809,5.652,5.652,0,0,1,3.975-1.4,5.665,5.665,0,0,1,3.984,1.4,4.911,4.911,0,0,1,1.523,3.809,4.938,4.938,0,0,1-1.523,3.823A5.654,5.654,0,0,1,32.344.2Zm-.029-2.236a2.577,2.577,0,0,0,1.987-.82,3.071,3.071,0,0,0,.757-2.168A3.071,3.071,0,0,0,34.3-7.2a2.577,2.577,0,0,0-1.987-.82,2.483,2.483,0,0,0-1.929.825,3.1,3.1,0,0,0-.747,2.163,3.1,3.1,0,0,0,.747,2.163A2.483,2.483,0,0,0,32.314-2.041Z" transform="translate(1064.428 1888.34)" fill="#002b45"/>
  </g>
</svg>
