<svg xmlns="http://www.w3.org/2000/svg" width="953.734" height="240.201" viewBox="0 0 953.734 240.201">
  <g id="Grupo_14491" data-name="Grupo 14491" transform="translate(-193.007 -2982.373)">
    <path id="Trazado_24011" data-name="Trazado 24011" d="M0,0H50.526V238.2H0Z" transform="translate(419.457 2983.373)" fill="red" stroke="#a5a5a5" stroke-width="2"/>
    <path id="Trazado_24012" data-name="Trazado 24012" d="M7.82-19.756h3.746V0H7.643V-15.709L3.1-11.484v-4.047Z" transform="translate(435.811 3089.654)" fill="#002b45"/>
    <path id="Trazado_24013" data-name="Trazado 24013" d="M16.01-7.26v3.514H13.631V0H9.693V-3.746H.6V-7.273l7-12.482h6.029v12.5Zm-11.758,0H9.693V-17.391Z" transform="translate(435.811 3132.904)" fill="#002b45"/>
    <path id="Trazado_24014" data-name="Trazado 24014" d="M0,0H31.607V1.317H0Z" transform="translate(428.916 3098.336)" fill="#002b45"/>
    <path id="Trazado_24015" data-name="Trazado 24015" d="M0,0H50.526V238.2H0Z" transform="translate(469.982 2983.373)" fill="red" stroke="#a5a5a5" stroke-width="2"/>
    <path id="Trazado_24016" data-name="Trazado 24016" d="M7.82-19.756h3.746V0H7.643V-15.709L3.1-11.484v-4.047Z" transform="translate(486.336 3089.654)" fill="#002b45"/>
    <path id="Trazado_24017" data-name="Trazado 24017" d="M16.01-7.26v3.514H13.631V0H9.693V-3.746H.6V-7.273l7-12.482h6.029v12.5Zm-11.758,0H9.693V-17.391Z" transform="translate(486.336 3132.904)" fill="#002b45"/>
    <path id="Trazado_24018" data-name="Trazado 24018" d="M0,0H31.607V1.317H0Z" transform="translate(479.441 3098.336)" fill="#002b45"/>
    <path id="Trazado_24025" data-name="Trazado 24025" d="M0,0H50.526V238.2H0Z" transform="translate(520.51 2983.373)" fill="red" stroke="#a5a5a5" stroke-width="2"/>
    <path id="Trazado_24026" data-name="Trazado 24026" d="M7.82-19.756h3.746V0H7.643V-15.709L3.1-11.484v-4.047Z" transform="translate(536.863 3089.654)" fill="#002b45"/>
    <path id="Trazado_24027" data-name="Trazado 24027" d="M16.01-7.26v3.514H13.631V0H9.693V-3.746H.6V-7.273l7-12.482h6.029v12.5Zm-11.758,0H9.693V-17.391Z" transform="translate(536.863 3132.904)" fill="#002b45"/>
    <path id="Trazado_24028" data-name="Trazado 24028" d="M0,0H31.607V1.317H0Z" transform="translate(529.969 3098.336)" fill="#002b45"/>
    <path id="Trazado_24029" data-name="Trazado 24029" d="M0,0H50.526V238.2H0Z" transform="translate(571.035 2983.373)" fill="red" stroke="#a5a5a5" stroke-width="2"/>
    <path id="Trazado_24030" data-name="Trazado 24030" d="M7.82-19.756h3.746V0H7.643V-15.709L3.1-11.484v-4.047Z" transform="translate(587.389 3089.654)" fill="#002b45"/>
    <path id="Trazado_24031" data-name="Trazado 24031" d="M16.01-7.26v3.514H13.631V0H9.693V-3.746H.6V-7.273l7-12.482h6.029v12.5Zm-11.758,0H9.693V-17.391Z" transform="translate(587.389 3132.904)" fill="#002b45"/>
    <path id="Trazado_24032" data-name="Trazado 24032" d="M0,0H31.607V1.317H0Z" transform="translate(580.494 3098.336)" fill="#002b45"/>
    <path id="Trazado_24033" data-name="Trazado 24033" d="M0,0H50.526V238.2H0Z" transform="translate(681.547 2983.373)" fill="red" stroke="#a5a5a5" stroke-width="2"/>
    <path id="Trazado_24034" data-name="Trazado 24034" d="M7.82-19.756h3.746V0H7.643V-15.709L3.1-11.484v-4.047Z" transform="translate(697.9 3089.654)" fill="#002b45"/>
    <path id="Trazado_24035" data-name="Trazado 24035" d="M16.01-7.26v3.514H13.631V0H9.693V-3.746H.6V-7.273l7-12.482h6.029v12.5Zm-11.758,0H9.693V-17.391Z" transform="translate(697.9 3132.904)" fill="#002b45"/>
    <path id="Trazado_24036" data-name="Trazado 24036" d="M0,0H31.607V1.317H0Z" transform="translate(691.006 3098.336)" fill="#002b45"/>
    <path id="Trazado_24037" data-name="Trazado 24037" d="M0,0H50.526V238.2H0Z" transform="translate(732.072 2983.373)" fill="red" stroke="#a5a5a5" stroke-width="2"/>
    <path id="Trazado_24038" data-name="Trazado 24038" d="M7.82-19.756h3.746V0H7.643V-15.709L3.1-11.484v-4.047Z" transform="translate(748.428 3089.654)" fill="#002b45"/>
    <path id="Trazado_24039" data-name="Trazado 24039" d="M16.01-7.26v3.514H13.631V0H9.693V-3.746H.6V-7.273l7-12.482h6.029v12.5Zm-11.758,0H9.693V-17.391Z" transform="translate(748.428 3132.904)" fill="#002b45"/>
    <path id="Trazado_24040" data-name="Trazado 24040" d="M0,0H31.607V1.317H0Z" transform="translate(741.533 3098.336)" fill="#002b45"/>
    <path id="Trazado_24041" data-name="Trazado 24041" d="M0,0H50.526V238.2H0Z" transform="translate(782.6 2983.373)" fill="red" stroke="#a5a5a5" stroke-width="2"/>
    <path id="Trazado_24042" data-name="Trazado 24042" d="M7.82-19.756h3.746V0H7.643V-15.709L3.1-11.484v-4.047Z" transform="translate(798.953 3089.654)" fill="#002b45"/>
    <path id="Trazado_24043" data-name="Trazado 24043" d="M16.01-7.26v3.514H13.631V0H9.693V-3.746H.6V-7.273l7-12.482h6.029v12.5Zm-11.758,0H9.693V-17.391Z" transform="translate(798.953 3132.904)" fill="#002b45"/>
    <path id="Trazado_24044" data-name="Trazado 24044" d="M0,0H31.607V1.317H0Z" transform="translate(792.059 3098.336)" fill="#002b45"/>
    <path id="Trazado_24045" data-name="Trazado 24045" d="M0,0H50.526V238.2H0Z" transform="translate(833.125 2983.373)" fill="red" stroke="#a5a5a5" stroke-width="2"/>
    <path id="Trazado_24046" data-name="Trazado 24046" d="M7.82-19.756h3.746V0H7.643V-15.709L3.1-11.484v-4.047Z" transform="translate(849.48 3089.654)" fill="#002b45"/>
    <path id="Trazado_24047" data-name="Trazado 24047" d="M16.01-7.26v3.514H13.631V0H9.693V-3.746H.6V-7.273l7-12.482h6.029v12.5Zm-11.758,0H9.693V-17.391Z" transform="translate(849.48 3132.904)" fill="#002b45"/>
    <path id="Trazado_24048" data-name="Trazado 24048" d="M0,0H31.607V1.317H0Z" transform="translate(842.584 3098.336)" fill="#002b45"/>
    <path id="Trazado_24049" data-name="Trazado 24049" d="M0,0H50.526V238.2H0Z" transform="translate(943.637 2983.373)" fill="red" stroke="#a5a5a5" stroke-width="2"/>
    <path id="Trazado_24051" data-name="Trazado 24051" d="M7.82-19.756h3.746V0H7.643V-15.709L3.1-11.484v-4.047Z" transform="translate(959.992 3089.654)" fill="#002b45"/>
    <path id="Trazado_24052" data-name="Trazado 24052" d="M16.01-7.26v3.514H13.631V0H9.693V-3.746H.6V-7.273l7-12.482h6.029v12.5Zm-11.758,0H9.693V-17.391Z" transform="translate(959.992 3132.904)" fill="#002b45"/>
    <path id="Trazado_24053" data-name="Trazado 24053" d="M0,0H31.607V1.317H0Z" transform="translate(953.098 3098.336)" fill="#002b45"/>
    <path id="Trazado_24054" data-name="Trazado 24054" d="M0,0H50.526V238.2H0Z" transform="translate(994.164 2983.373)" fill="red" stroke="#a5a5a5" stroke-width="2"/>
    <path id="Trazado_24056" data-name="Trazado 24056" d="M7.82-19.756h3.746V0H7.643V-15.709L3.1-11.484v-4.047Z" transform="translate(1010.518 3089.654)" fill="#002b45"/>
    <path id="Trazado_24057" data-name="Trazado 24057" d="M16.01-7.26v3.514H13.631V0H9.693V-3.746H.6V-7.273l7-12.482h6.029v12.5Zm-11.758,0H9.693V-17.391Z" transform="translate(1010.518 3132.904)" fill="#002b45"/>
    <path id="Trazado_24055" data-name="Trazado 24055" d="M0,0H31.607V1.317H0Z" transform="translate(1003.623 3098.336)" fill="#002b45"/>
    <path id="Trazado_24058" data-name="Trazado 24058" d="M0,0H50.526V238.2H0Z" transform="translate(1044.688 2983.373)" fill="red" stroke="#a5a5a5" stroke-width="2"/>
    <path id="Trazado_24060" data-name="Trazado 24060" d="M7.82-19.756h3.746V0H7.643V-15.709L3.1-11.484v-4.047Z" transform="translate(1061.043 3089.654)" fill="#002b45"/>
    <path id="Trazado_24061" data-name="Trazado 24061" d="M16.01-7.26v3.514H13.631V0H9.693V-3.746H.6V-7.273l7-12.482h6.029v12.5Zm-11.758,0H9.693V-17.391Z" transform="translate(1061.043 3132.904)" fill="#002b45"/>
    <path id="Trazado_24059" data-name="Trazado 24059" d="M0,0H31.607V1.317H0Z" transform="translate(1054.148 3098.336)" fill="#002b45"/>
    <path id="Trazado_24062" data-name="Trazado 24062" d="M0,0H50.526V238.2H0Z" transform="translate(1095.215 2983.373)" fill="#fff" stroke="#a5a5a5" stroke-width="2"/>
    <path id="Trazado_24064" data-name="Trazado 24064" d="M7.82-19.756h3.746V0H7.643V-15.709L3.1-11.484v-4.047Z" transform="translate(1111.57 3089.654)" fill="#002b45"/>
    <path id="Trazado_24065" data-name="Trazado 24065" d="M16.01-7.26v3.514H13.631V0H9.693V-3.746H.6V-7.273l7-12.482h6.029v12.5Zm-11.758,0H9.693V-17.391Z" transform="translate(1111.57 3132.904)" fill="#002b45"/>
    <path id="Trazado_24063" data-name="Trazado 24063" d="M0,0H31.607V1.317H0Z" transform="translate(1104.676 3098.336)" fill="#002b45"/>
    <path id="Trazado_24019" data-name="Trazado 24019" d="M3.063-11.129v-2.994H15.135v2.994Zm0,6V-8.121H15.135v2.994Z" transform="translate(355.391 3111.279)" fill="#002b45"/>
    <path id="Trazado_24020" data-name="Trazado 24020" d="M3.063-11.129v-2.994H15.135v2.994Zm0,6V-8.121H15.135v2.994Z" transform="translate(268.232 3111.279)" fill="#002b45"/>
    <path id="Trazado_24050" data-name="Trazado 24050" d="M-1.483-2.8V-8.08H-6.761v-2.994h5.277v-5.264H1.5v5.264H6.761V-8.08H1.5V-2.8Z" transform="translate(913.252 3111.279)" fill="#002b45"/>
    <path id="Trazado_24008" data-name="Trazado 24008" d="M-8.9-19.756h3.746V0H-9.078V-15.709l-4.539,4.225v-4.047Zm16.721,0h3.746V0H7.643V-15.709L3.1-11.484v-4.047Z" transform="translate(320.557 3089.654)" fill="#002b45"/>
    <path id="Trazado_24021" data-name="Trazado 24021" d="M7.649-7.26v3.514H5.271V0H1.333V-3.746H-7.759V-7.273l7-12.482H5.271v12.5Zm-11.758,0H1.333V-17.391Z" transform="translate(320.557 3132.904)" fill="#002b45"/>
    <path id="Trazado_24022" data-name="Trazado 24022" d="M0,0H31.607V1.317H0Z" transform="translate(304.754 3098.337)" fill="#002b45"/>
    <path id="Trazado_24009" data-name="Trazado 24009" d="M-.034.273q-3.691,0-5.387-1.8t-1.7-5.523l4.033-.178a14.282,14.282,0,0,0,.062,1.449,5.009,5.009,0,0,0,.246,1.121,2.006,2.006,0,0,0,.52.841,2.361,2.361,0,0,0,.889.485,4.391,4.391,0,0,0,1.333.178A3.2,3.2,0,0,0,2.3-3.951,2.772,2.772,0,0,0,3.11-6.029a2.794,2.794,0,0,0-.779-2.14A2.933,2.933,0,0,0,.239-8.9H-.526v-3.062H.185a2.138,2.138,0,0,0,1.634-.7,2.486,2.486,0,0,0,.649-1.764,1.987,1.987,0,0,0-.711-1.641,2.89,2.89,0,0,0-1.873-.574,2.807,2.807,0,0,0-1.066.185,1.989,1.989,0,0,0-.718.472,2.086,2.086,0,0,0-.424.725,3.808,3.808,0,0,0-.205.861,8.6,8.6,0,0,0-.048.957l-3.979-.191a6.324,6.324,0,0,1,1.7-4.751,6.464,6.464,0,0,1,4.7-1.647,6.723,6.723,0,0,1,4.512,1.511,4.731,4.731,0,0,1,1.777,3.753,4.271,4.271,0,0,1-.759,2.543,4.344,4.344,0,0,1-1.729,1.5,4.869,4.869,0,0,1,1.258.561A5.156,5.156,0,0,1,6-9.215a4.21,4.21,0,0,1,.813,1.436,5.776,5.776,0,0,1,.3,1.914A5.583,5.583,0,0,1,5.161-1.4,7.712,7.712,0,0,1-.034.273Z" transform="translate(232.115 3089.654)" fill="#002b45"/>
    <path id="Trazado_24010" data-name="Trazado 24010" d="M-1.483-3.514H6.938V0H-6.993V-2.967L.868-10.992a4.947,4.947,0,0,0,1.709-3.4,2.408,2.408,0,0,0-.7-1.832A2.772,2.772,0,0,0-.116-16.9q-2.8,0-2.8,3.186v1.463l-3.924-.4v-.984a6.161,6.161,0,0,1,1.8-4.751A6.912,6.912,0,0,1-.144-20.057a7.24,7.24,0,0,1,4.765,1.518,5.115,5.115,0,0,1,1.839,4.17,5.913,5.913,0,0,1-.622,2.707A11.315,11.315,0,0,1,3.862-9.023Z" transform="translate(200 3108.234)" fill="#002b45"/>
    <path id="Trazado_24023" data-name="Trazado 24023" d="M7.649-7.26v3.514H5.271V0H1.333V-3.746H-7.759V-7.273l7-12.482H5.271v12.5Zm-11.758,0H1.333V-17.391Z" transform="translate(232.117 3132.904)" fill="#002b45"/>
    <path id="Trazado_24024" data-name="Trazado 24024" d="M0,0H31.607V1.317H0Z" transform="translate(216.313 3098.337)" fill="#002b45"/>
  </g>
</svg>
