<svg xmlns="http://www.w3.org/2000/svg" viewBox="0 0 740 96.55"><defs><style>.cls-1{fill:#d5f4fc;}.cls-2{isolation:isolate;}.cls-3{fill:#002b45;}.cls-4{fill:#00223d;}</style></defs><g id="Capa_2" data-name="Capa 2"><g id="Capa_1-2" data-name="Capa 1"><rect id="Rectángulo_3334" data-name="Rectángulo 3334" class="cls-1" width="740" height="96.55"/><g id="Grupo_14491" data-name="Grupo 14491"><g id="a" class="cls-2"><g class="cls-2"><path class="cls-3" d="M100.69,35.07A13.06,13.06,0,0,0,101,38.5v.38H97.35L97,37.35a4.74,4.74,0,0,1-2,1.36,7.28,7.28,0,0,1-2.55.45A6.13,6.13,0,0,1,91.21,39,4.59,4.59,0,0,1,90,38.62a3.61,3.61,0,0,1-1-.74,3.16,3.16,0,0,1-.65-1.11,4.69,4.69,0,0,1,0-3.05,3.56,3.56,0,0,1,.68-1.14,4.08,4.08,0,0,1,1.11-.83,8.9,8.9,0,0,1,1.39-.61,16.67,16.67,0,0,1,1.67-.43l2.31-.52a2.54,2.54,0,0,0,1.05-.45.89.89,0,0,0,.31-.7,1.44,1.44,0,0,0-.69-1.35,3.17,3.17,0,0,0-1.68-.41c-1.61,0-2.53.71-2.75,2.14l-3.48-.63a4.72,4.72,0,0,1,2-3.2,8.1,8.1,0,0,1,4.42-1c3.94,0,5.91,1.7,5.91,5.08Zm-6.94,1.42a3.17,3.17,0,0,0,2.44-1,4.28,4.28,0,0,0,.94-3l-3.33.94a4.28,4.28,0,0,0-1.41.57,1.2,1.2,0,0,0-.48,1,1.3,1.3,0,0,0,.52,1.11A2.13,2.13,0,0,0,93.75,36.49Z"/></g></g><g id="b" class="cls-2"><g class="cls-2"><path class="cls-3" d="M96.11,64.8a6.75,6.75,0,0,1,2.61.51,6.35,6.35,0,0,1,3.61,3.75,9.19,9.19,0,0,1,0,6.15A6.35,6.35,0,0,1,98.72,79a6.93,6.93,0,0,1-2.61.5,6,6,0,0,1-2.66-.57,3.88,3.88,0,0,1-1.77-1.59l-.1,1.83H87.85v-21h3.94v8.66a3.9,3.9,0,0,1,1.76-1.47A6.26,6.26,0,0,1,96.11,64.8Zm-.92,11.39a3.58,3.58,0,0,0,2.68-1.1,4.66,4.66,0,0,0,0-5.92,3.55,3.55,0,0,0-2.68-1.11,3.48,3.48,0,0,0-2.65,1.13,4.59,4.59,0,0,0,0,5.88A3.51,3.51,0,0,0,95.19,76.19Z"/></g></g><g id="Rectángulo_3631" data-name="Rectángulo 3631"><rect x="69" y="47.57" width="51.61" height="1.32"/></g><g id="c" class="cls-2"><g class="cls-2"><path class="cls-3" d="M317.94,39.14a7.53,7.53,0,0,1-5.43-2,7,7,0,0,1-2.1-5.28,7,7,0,0,1,2.1-5.28,8.32,8.32,0,0,1,10-.65,6,6,0,0,1,2.35,3.81l-3.63.4A3.11,3.11,0,0,0,320,28.27a3.55,3.55,0,0,0-2.13-.61,3.21,3.21,0,0,0-2.57,1.15,4.46,4.46,0,0,0-1,3,4.49,4.49,0,0,0,1,3A3.22,3.22,0,0,0,317.9,36a3.56,3.56,0,0,0,2.13-.62,3.25,3.25,0,0,0,1.18-1.85l3.63.4a6,6,0,0,1-2.37,3.82A7.44,7.44,0,0,1,317.94,39.14Z"/></g></g><g id="d" class="cls-2"><g class="cls-2"><path class="cls-3" d="M320.59,58.13h3.94v21H320.8l-.1-1.83a4,4,0,0,1-1.78,1.59,6,6,0,0,1-2.63.57,7,7,0,0,1-2.63-.5,6.69,6.69,0,0,1-2.15-1.43,6.57,6.57,0,0,1-1.46-2.32,8.7,8.7,0,0,1-.53-3.08,8,8,0,0,1,.93-3.91,6.35,6.35,0,0,1,2.45-2.55,6.74,6.74,0,0,1,3.39-.87,6.18,6.18,0,0,1,2.55.52,3.94,3.94,0,0,1,1.75,1.45Zm-3.4,18.06a3.5,3.5,0,0,0,2.66-1.12,4.59,4.59,0,0,0,0-5.88,3.46,3.46,0,0,0-2.65-1.13,3.52,3.52,0,0,0-2.67,1.11,4.66,4.66,0,0,0,0,5.92A3.54,3.54,0,0,0,317.19,76.19Z"/></g></g><g id="Rectángulo_3632" data-name="Rectángulo 3632"><rect x="291.78" y="47.57" width="51.61" height="1.32"/></g><g id="Es_equivalente_a_" data-name="Es equivalente a " class="cls-2"><g class="cls-2"><path class="cls-4" d="M144.1,41.11h-4.71V44h4.18v2.3h-4.18v2.87h4.71v2.33h-7.36V38.79h7.36Z"/><path class="cls-4" d="M149.67,51.67A5.06,5.06,0,0,1,147,51a2.69,2.69,0,0,1-1.29-1.88l2.12-.6a1.7,1.7,0,0,0,1.81,1.35,1.84,1.84,0,0,0,.92-.21.83.83,0,0,0,.21-1.16,1.23,1.23,0,0,0-.46-.34,5.19,5.19,0,0,0-.62-.23c-.2-.07-.47-.15-.8-.24a7.87,7.87,0,0,1-.84-.26,5,5,0,0,1-.79-.33,3.2,3.2,0,0,1-.66-.47,1.88,1.88,0,0,1-.49-.71,2.44,2.44,0,0,1-.17-1,2.29,2.29,0,0,1,1-2,5.13,5.13,0,0,1,4.92-.1,2.57,2.57,0,0,1,1.21,1.81l-2,.44A1.54,1.54,0,0,0,149.52,44a1.7,1.7,0,0,0-.89.2.63.63,0,0,0-.35.6.62.62,0,0,0,.05.27.73.73,0,0,0,.18.22l.26.16a1.62,1.62,0,0,0,.36.15,3.63,3.63,0,0,0,.4.11l.46.12.47.13a8.75,8.75,0,0,1,.85.26,4.85,4.85,0,0,1,.77.37,2.37,2.37,0,0,1,1.13,1.28,2.66,2.66,0,0,1,.17,1,2.72,2.72,0,0,1-.3,1.31,2.3,2.3,0,0,1-.83.89,4,4,0,0,1-1.17.47A6.21,6.21,0,0,1,149.67,51.67Z"/><path class="cls-4" d="M168.38,46.84l0,.61h-6.7a2.36,2.36,0,0,0,.73,1.65,2.28,2.28,0,0,0,1.59.57,2.22,2.22,0,0,0,1.19-.31,2,2,0,0,0,.76-.91l2.32.34a4,4,0,0,1-1.58,2.12,4.76,4.76,0,0,1-2.68.76,4.9,4.9,0,0,1-3.52-1.25,4.54,4.54,0,0,1-1.3-3.45,4.54,4.54,0,0,1,1.31-3.45,4.74,4.74,0,0,1,3.43-1.26,4.13,4.13,0,0,1,4.48,4.58Zm-4.46-2.79a2,2,0,0,0-2.2,1.74h4.15a1.89,1.89,0,0,0-.62-1.29A2,2,0,0,0,163.92,44.05Z"/><path class="cls-4" d="M176.83,42.45h2.4V55.88H176.7V50.43a2.64,2.64,0,0,1-1.13.94,4,4,0,0,1-1.63.33,4.35,4.35,0,0,1-1.69-.33,4.25,4.25,0,0,1-1.38-.91,4.09,4.09,0,0,1-.94-1.49,5.94,5.94,0,0,1,0-4,4.09,4.09,0,0,1,.94-1.49,4.28,4.28,0,0,1,1.38-.92,4.54,4.54,0,0,1,1.69-.32,4,4,0,0,1,1.69.35,2.51,2.51,0,0,1,1.14,1Zm-2.32,7.15a2.26,2.26,0,0,0,1.72-.72,2.61,2.61,0,0,0,.68-1.89,2.65,2.65,0,0,0-.68-1.89,2.41,2.41,0,0,0-3.43,0,3,3,0,0,0,0,3.8A2.3,2.3,0,0,0,174.51,49.6Z"/><path class="cls-4" d="M187.85,42.45h2.53v9H188l-.06-1.09A3.48,3.48,0,0,1,185,51.67a3.52,3.52,0,0,1-2.49-.82,3,3,0,0,1-.87-2.31V42.45h2.54V48a1.57,1.57,0,0,0,.45,1.24,1.73,1.73,0,0,0,1.17.4,2.05,2.05,0,0,0,1.44-.52,2.22,2.22,0,0,0,.57-1.67Z"/><path class="cls-4" d="M194.29,41.1a1.4,1.4,0,0,1-1-.43,1.43,1.43,0,0,1,0-2.05,1.45,1.45,0,1,1,1,2.48ZM193,51.49v-9h2.54v9Z"/><path class="cls-4" d="M204,42.45h2.68l-3.84,9h-2.2l-3.81-9h2.67l2.25,6.18Z"/><path class="cls-4" d="M215.1,49a8.25,8.25,0,0,0,.22,2.2v.25H213l-.21-1a2.86,2.86,0,0,1-1.26.87,4.54,4.54,0,0,1-1.64.3,4.44,4.44,0,0,1-.84-.08,3.44,3.44,0,0,1-.76-.27,2.72,2.72,0,0,1-.63-.47,2.11,2.11,0,0,1-.42-.72,3,3,0,0,1,0-2,2.29,2.29,0,0,1,.44-.73,2.71,2.71,0,0,1,.71-.54,5.1,5.1,0,0,1,.9-.39,10.82,10.82,0,0,1,1.07-.28l1.48-.33a1.68,1.68,0,0,0,.68-.29.55.55,0,0,0,.19-.45.93.93,0,0,0-.44-.87,2.06,2.06,0,0,0-1.08-.26,1.55,1.55,0,0,0-1.76,1.38L207.16,45a3,3,0,0,1,1.3-2.06,5.26,5.26,0,0,1,2.84-.66c2.53,0,3.8,1.08,3.8,3.26Zm-4.46.91a2.07,2.07,0,0,0,1.57-.65,2.8,2.8,0,0,0,.61-1.94l-2.15.6a2.74,2.74,0,0,0-.9.37.76.76,0,0,0-.31.65.86.86,0,0,0,.33.72A1.36,1.36,0,0,0,210.64,50Z"/><path class="cls-4" d="M217.56,51.49V38h2.56v13.5Z"/><path class="cls-4" d="M231.24,46.84l0,.61h-6.7a2.4,2.4,0,0,0,.72,1.65,2.32,2.32,0,0,0,1.6.57,2.22,2.22,0,0,0,1.19-.31,2,2,0,0,0,.76-.91l2.32.34a3.93,3.93,0,0,1-1.59,2.12,4.71,4.71,0,0,1-2.67.76,4.9,4.9,0,0,1-3.52-1.25A4.54,4.54,0,0,1,222,47a4.54,4.54,0,0,1,1.31-3.45,4.74,4.74,0,0,1,3.43-1.26,4.13,4.13,0,0,1,4.48,4.58Zm-4.46-2.79a2,2,0,0,0-2.2,1.74h4.15a1.89,1.89,0,0,0-.62-1.29A2,2,0,0,0,226.78,44.05Z"/><path class="cls-4" d="M238.5,42.28a3.52,3.52,0,0,1,2.49.81,3,3,0,0,1,.87,2.32v6.08h-2.54V46a1.59,1.59,0,0,0-.45-1.25,1.71,1.71,0,0,0-1.16-.39,2.58,2.58,0,0,0-.76.11,2,2,0,0,0-.63.36,1.45,1.45,0,0,0-.45.68,3.19,3.19,0,0,0-.18,1v5h-2.53v-9h2.53v1A3.49,3.49,0,0,1,238.5,42.28Z"/><path class="cls-4" d="M247.68,51.49a2.69,2.69,0,0,1-2-.74,2.83,2.83,0,0,1-.72-2.08V44.4h-1.77V42.45h.57a1.48,1.48,0,0,0,1.12-.37,2,2,0,0,0,.36-1.35V39.54h2.29v2.91h1.86V44.4h-1.86v4c0,.77.35,1.16,1,1.16h.82v1.93Z"/><path class="cls-4" d="M259.78,46.84l0,.61h-6.7a2.2,2.2,0,0,0,2.31,2.22,2.18,2.18,0,0,0,1.19-.31,1.9,1.9,0,0,0,.76-.91l2.32.34a3.86,3.86,0,0,1-1.58,2.12,4.71,4.71,0,0,1-2.67.76,4.89,4.89,0,0,1-3.52-1.25,4.54,4.54,0,0,1-1.3-3.45,4.54,4.54,0,0,1,1.31-3.45,4.72,4.72,0,0,1,3.43-1.26,4.15,4.15,0,0,1,4.48,4.58Zm-4.46-2.79a2,2,0,0,0-2.2,1.74h4.15a1.89,1.89,0,0,0-.62-1.29A2,2,0,0,0,255.32,44.05Z"/><path class="cls-4" d="M273.79,49a8.78,8.78,0,0,0,.21,2.2v.25h-2.36l-.2-1a2.89,2.89,0,0,1-1.27.87,4.49,4.49,0,0,1-1.63.3,4.63,4.63,0,0,1-.85-.08,3.63,3.63,0,0,1-.76-.27,2.47,2.47,0,0,1-.62-.47,2.12,2.12,0,0,1-.43-.72,3,3,0,0,1-.15-1,2.76,2.76,0,0,1,.16-1,2.29,2.29,0,0,1,.44-.73,2.71,2.71,0,0,1,.71-.54,5.83,5.83,0,0,1,.9-.39c.31-.1.66-.19,1.07-.28l1.49-.33a1.62,1.62,0,0,0,.67-.29.56.56,0,0,0,.2-.45.94.94,0,0,0-.45-.87,2,2,0,0,0-1.07-.26,1.55,1.55,0,0,0-1.77,1.38L265.84,45a3,3,0,0,1,1.31-2.06,5.21,5.21,0,0,1,2.84-.66c2.53,0,3.8,1.08,3.8,3.26Zm-4.46.91a2,2,0,0,0,1.56-.65,2.75,2.75,0,0,0,.61-1.94l-2.14.6a2.56,2.56,0,0,0-.9.37.77.77,0,0,0-.32.65.84.84,0,0,0,.34.72A1.34,1.34,0,0,0,269.33,50Z"/></g></g><g id="Si_se_cumple_que_ad_cd" data-name="Si se cumple que ad cd" class="cls-2"><g class="cls-2"><path class="cls-4" d="M362.56,51.67a6.1,6.1,0,0,1-3.52-1A3.87,3.87,0,0,1,357.32,48l2.73-.62a2.31,2.31,0,0,0,.84,1.6,2.73,2.73,0,0,0,1.78.56,2.31,2.31,0,0,0,1.39-.39,1.33,1.33,0,0,0,.52-1.16,1.24,1.24,0,0,0-.45-.94,2.68,2.68,0,0,0-.89-.57c-.29-.12-.77-.27-1.43-.47l-.19-.06-.81-.27-.76-.29a5.63,5.63,0,0,1-.74-.37,5.13,5.13,0,0,1-.61-.46,2.72,2.72,0,0,1-.51-.58,3.27,3.27,0,0,1-.3-.73,2.94,2.94,0,0,1-.13-.91,3.4,3.4,0,0,1,.6-2A3.55,3.55,0,0,1,360,39a5.88,5.88,0,0,1,2.29-.43,6.78,6.78,0,0,1,1.65.19,5.73,5.73,0,0,1,1.48.56,3.6,3.6,0,0,1,1.18,1,4,4,0,0,1,.68,1.54l-2.55.64a2.06,2.06,0,0,0-2.29-1.82,2.47,2.47,0,0,0-1.41.37,1.23,1.23,0,0,0-.56,1.11c0,.46.31.84.93,1.13a13,13,0,0,0,1.76.6l.85.27.82.3a5.73,5.73,0,0,1,.79.4,4.75,4.75,0,0,1,.67.48,2.6,2.6,0,0,1,.57.64,3.52,3.52,0,0,1,.35.78,3.41,3.41,0,0,1,.14,1,3.89,3.89,0,0,1-.26,1.44,3.2,3.2,0,0,1-.7,1.08,3.88,3.88,0,0,1-1.05.74,5,5,0,0,1-1.29.44A7.51,7.51,0,0,1,362.56,51.67Z"/><path class="cls-4" d="M370.7,41.1a1.42,1.42,0,0,1-1-.43,1.4,1.4,0,0,1-.43-1,1.37,1.37,0,0,1,.44-1,1.44,1.44,0,0,1,2.05,0,1.44,1.44,0,0,1,0,2.05A1.39,1.39,0,0,1,370.7,41.1Zm-1.29,10.39v-9H372v9Z"/><path class="cls-4" d="M382.43,51.67A5,5,0,0,1,379.8,51a2.67,2.67,0,0,1-1.3-1.88l2.12-.6a1.71,1.71,0,0,0,1.81,1.35,1.88,1.88,0,0,0,.93-.21.74.74,0,0,0,.36-.7.73.73,0,0,0-.15-.46,1.31,1.31,0,0,0-.46-.34,5.92,5.92,0,0,0-.62-.23c-.2-.07-.47-.15-.8-.24a7.2,7.2,0,0,1-.84-.26,5,5,0,0,1-.79-.33,3.2,3.2,0,0,1-.66-.47,1.91,1.91,0,0,1-.5-.71,2.63,2.63,0,0,1-.17-1,2.32,2.32,0,0,1,1-2,5.15,5.15,0,0,1,4.93-.1,2.6,2.6,0,0,1,1.21,1.81l-2,.44A1.53,1.53,0,0,0,382.28,44a1.69,1.69,0,0,0-.88.2.64.64,0,0,0-.36.6.63.63,0,0,0,.06.27.52.52,0,0,0,.18.22l.26.16a1.62,1.62,0,0,0,.36.15l.39.11.46.12.47.13a7.31,7.31,0,0,1,.85.26,4.55,4.55,0,0,1,.78.37,2.68,2.68,0,0,1,.68.53,2.49,2.49,0,0,1,.45.75,2.87,2.87,0,0,1,.17,1,2.72,2.72,0,0,1-.3,1.31A2.3,2.3,0,0,1,385,51a4.1,4.1,0,0,1-1.18.47A6.21,6.21,0,0,1,382.43,51.67Z"/><path class="cls-4" d="M396.47,46.84l0,.61h-6.69a2.31,2.31,0,0,0,.72,1.65,2.28,2.28,0,0,0,1.59.57,2.22,2.22,0,0,0,1.19-.31,2,2,0,0,0,.76-.91l2.32.34a4,4,0,0,1-1.58,2.12,4.75,4.75,0,0,1-2.67.76,4.91,4.91,0,0,1-3.53-1.25,4.54,4.54,0,0,1-1.3-3.45,4.57,4.57,0,0,1,1.31-3.45A4.75,4.75,0,0,1,392,42.26a4.13,4.13,0,0,1,4.47,4.58ZM392,44.05a2,2,0,0,0-2.19,1.74H394a1.89,1.89,0,0,0-.62-1.29A2,2,0,0,0,392,44.05Z"/><path class="cls-4" d="M407.16,51.66a4.81,4.81,0,0,1-3.49-1.31,4.92,4.92,0,0,1,0-6.78,4.86,4.86,0,0,1,3.5-1.29,4.79,4.79,0,0,1,2.92.87,3.88,3.88,0,0,1,1.52,2.45l-2.34.26a2,2,0,0,0-.76-1.19,2.25,2.25,0,0,0-1.37-.4,2.07,2.07,0,0,0-1.65.74,3.33,3.33,0,0,0,0,3.9,2,2,0,0,0,1.65.74,2.31,2.31,0,0,0,1.37-.39,2.1,2.1,0,0,0,.76-1.19l2.34.25a3.94,3.94,0,0,1-1.53,2.46A4.83,4.83,0,0,1,407.16,51.66Z"/><path class="cls-4" d="M419.38,42.45h2.53v9h-2.4l-.06-1.09a3.44,3.44,0,0,1-2.87,1.27,3.55,3.55,0,0,1-2.5-.82,3,3,0,0,1-.87-2.31V42.45h2.54V48a1.54,1.54,0,0,0,.46,1.24,1.73,1.73,0,0,0,1.17.4,2.09,2.09,0,0,0,1.44-.52,2.18,2.18,0,0,0,.56-1.67Z"/><path class="cls-4" d="M435.24,42.28a3.46,3.46,0,0,1,2.33.73,2.62,2.62,0,0,1,.85,2.11v6.37h-2.53V45.84a1.52,1.52,0,0,0-.41-1.15,1.43,1.43,0,0,0-1-.38,1.63,1.63,0,0,0-1.23.49,2.27,2.27,0,0,0-.47,1.59v5.1H430.2V45.86a1.54,1.54,0,0,0-.4-1.16,1.45,1.45,0,0,0-1.05-.39,1.57,1.57,0,0,0-1.22.52,2.44,2.44,0,0,0-.47,1.69v5h-2.53v-9h2.53v1.07a3,3,0,0,1,2.61-1.24,3.78,3.78,0,0,1,1.71.35,2.29,2.29,0,0,1,1.06,1A3.22,3.22,0,0,1,435.24,42.28Z"/><path class="cls-4" d="M446.18,42.28a4.54,4.54,0,0,1,1.69.32A4.1,4.1,0,0,1,450.19,45a5.94,5.94,0,0,1,0,4,4,4,0,0,1-2.32,2.4,4.35,4.35,0,0,1-1.69.33,3.92,3.92,0,0,1-1.63-.33,2.62,2.62,0,0,1-1.14-.95v5.46h-2.53V42.45h2.4l.07,1.22a2.53,2.53,0,0,1,1.13-1A3.92,3.92,0,0,1,446.18,42.28Zm-.57,7.32a2.3,2.3,0,0,0,1.71-.71,3,3,0,0,0,0-3.8,2.41,2.41,0,0,0-3.43,0,2.93,2.93,0,0,0,0,3.78A2.26,2.26,0,0,0,445.61,49.6Z"/><path class="cls-4" d="M452.44,51.49V38H455v13.5Z"/><path class="cls-4" d="M466.11,46.84l0,.61h-6.7a2.2,2.2,0,0,0,2.31,2.22,2.18,2.18,0,0,0,1.19-.31,1.9,1.9,0,0,0,.76-.91l2.32.34a3.91,3.91,0,0,1-1.58,2.12,4.71,4.71,0,0,1-2.67.76,4.89,4.89,0,0,1-3.52-1.25A4.54,4.54,0,0,1,456.89,47a4.57,4.57,0,0,1,1.31-3.45,4.77,4.77,0,0,1,3.44-1.26,4.13,4.13,0,0,1,4.47,4.58Zm-4.45-2.79a2,2,0,0,0-2.2,1.74h4.15A1.93,1.93,0,0,0,463,44.5,2,2,0,0,0,461.66,44.05Z"/><path class="cls-4" d="M479.25,42.45h2.39V55.88h-2.53V50.43a2.64,2.64,0,0,1-1.13.94,3.92,3.92,0,0,1-1.63.33,4.3,4.3,0,0,1-1.68-.33,4.19,4.19,0,0,1-1.39-.91,4.07,4.07,0,0,1-.93-1.49,5.78,5.78,0,0,1,0-4,4.07,4.07,0,0,1,.93-1.49,4.22,4.22,0,0,1,1.39-.92,4.48,4.48,0,0,1,1.68-.32,4,4,0,0,1,1.69.35,2.51,2.51,0,0,1,1.14,1Zm-2.33,7.15a2.25,2.25,0,0,0,1.72-.72,3,3,0,0,0,0-3.78,2.41,2.41,0,0,0-3.43,0,3,3,0,0,0,0,3.8A2.3,2.3,0,0,0,476.92,49.6Z"/><path class="cls-4" d="M490.26,42.45h2.53v9h-2.4l-.06-1.09a3.48,3.48,0,0,1-2.88,1.27,3.52,3.52,0,0,1-2.49-.82,3,3,0,0,1-.87-2.31V42.45h2.54V48a1.57,1.57,0,0,0,.45,1.24,1.73,1.73,0,0,0,1.17.4,2.05,2.05,0,0,0,1.44-.52,2.22,2.22,0,0,0,.57-1.67Z"/><path class="cls-4" d="M503.91,46.84l0,.61h-6.7a2.4,2.4,0,0,0,.72,1.65,2.32,2.32,0,0,0,1.6.57,2.22,2.22,0,0,0,1.19-.31,2,2,0,0,0,.76-.91l2.32.34a3.93,3.93,0,0,1-1.59,2.12,4.71,4.71,0,0,1-2.67.76A4.9,4.9,0,0,1,496,50.42a4.54,4.54,0,0,1-1.3-3.45A4.54,4.54,0,0,1,496,43.52a4.74,4.74,0,0,1,3.43-1.26,4.13,4.13,0,0,1,4.48,4.58Zm-4.46-2.79a2,2,0,0,0-2.2,1.74h4.15a1.89,1.89,0,0,0-.62-1.29A2,2,0,0,0,499.45,44.05Z"/><path class="cls-4" d="M529,47.67a13.15,13.15,0,0,0,.34,3.44v.38h-3.68L525.34,50a4.54,4.54,0,0,1-2,1.35,7.32,7.32,0,0,1-2.55.45,6.86,6.86,0,0,1-1.31-.12,4.27,4.27,0,0,1-1.18-.42,3.44,3.44,0,0,1-1-.73,3.34,3.34,0,0,1-.66-1.11,4.55,4.55,0,0,1-.24-1.53,4.08,4.08,0,0,1,.26-1.52,3.56,3.56,0,0,1,.68-1.14,4.14,4.14,0,0,1,1.11-.84,9.4,9.4,0,0,1,1.39-.6c.48-.15,1-.3,1.67-.44l2.31-.52a2.48,2.48,0,0,0,1-.44.9.9,0,0,0,.31-.7,1.46,1.46,0,0,0-.7-1.36,3.23,3.23,0,0,0-1.67-.41A2.42,2.42,0,0,0,520.12,42l-3.48-.63a4.74,4.74,0,0,1,2-3.21,8.1,8.1,0,0,1,4.42-1q5.91,0,5.91,5.07Zm-6.94,1.43a3.17,3.17,0,0,0,2.44-1,4.3,4.3,0,0,0,.94-3L522.1,46a3.83,3.83,0,0,0-1.4.57,1.18,1.18,0,0,0-.48,1,1.3,1.3,0,0,0,.52,1.12A2.13,2.13,0,0,0,522.06,49.1Z"/><path class="cls-4" d="M538.17,51.49l5.77-7-5.77-7h4.92l3.23,4.43,3.25-4.43h4.88l-5.78,7,5.78,7h-4.88l-3.23-4.4-3.24,4.4Z"/><path class="cls-4" d="M573.85,30.49h3.94v21h-3.73l-.1-1.83a4,4,0,0,1-1.78,1.59,6,6,0,0,1-2.63.57,6.81,6.81,0,0,1-2.63-.51,6.35,6.35,0,0,1-3.61-3.75,8.6,8.6,0,0,1-.53-3.07,8,8,0,0,1,.93-3.92A6.48,6.48,0,0,1,566.16,38a6.83,6.83,0,0,1,3.39-.86,6.24,6.24,0,0,1,2.55.51,4,4,0,0,1,1.75,1.46Zm-3.4,18.06a3.51,3.51,0,0,0,2.66-1.12,4.6,4.6,0,0,0,0-5.89,3.72,3.72,0,0,0-5.32,0,4.66,4.66,0,0,0,0,5.92A3.52,3.52,0,0,0,570.45,48.55Z"/><path class="cls-4" d="M590.16,40.36v-3h12.08v3Zm0,6v-3h12.08v3Z"/><path class="cls-4" d="M621,51.75a7.57,7.57,0,0,1-5.43-2,7,7,0,0,1-2.1-5.28,7,7,0,0,1,2.1-5.28,8.34,8.34,0,0,1,10-.66,6.06,6.06,0,0,1,2.36,3.82l-3.64.4A3.08,3.08,0,0,0,623,40.88a3.56,3.56,0,0,0-2.13-.62,3.24,3.24,0,0,0-2.57,1.15,4.5,4.5,0,0,0-1,3,4.49,4.49,0,0,0,1,3,3.21,3.21,0,0,0,2.57,1.15A3.55,3.55,0,0,0,623,48a3.2,3.2,0,0,0,1.18-1.85l3.64.4a6,6,0,0,1-2.38,3.81A7.45,7.45,0,0,1,621,51.75Z"/><path class="cls-4" d="M636,51.49l5.77-7-5.77-7h4.93l3.22,4.43,3.26-4.43h4.88l-5.79,7,5.79,7h-4.88l-3.23-4.4-3.24,4.4Z"/><path class="cls-4" d="M671.69,30.49h3.94v21h-3.74l-.09-1.83A4,4,0,0,1,670,51.25a5.94,5.94,0,0,1-2.63.57,6.76,6.76,0,0,1-2.62-.51,6.57,6.57,0,0,1-2.16-1.43,6.46,6.46,0,0,1-1.45-2.32,8.39,8.39,0,0,1-.54-3.07,8,8,0,0,1,.93-3.92A6.43,6.43,0,0,1,664,38a6.77,6.77,0,0,1,3.38-.86,6.18,6.18,0,0,1,2.55.51,4,4,0,0,1,1.76,1.46Zm-3.41,18.06a3.48,3.48,0,0,0,2.66-1.12,4.62,4.62,0,0,0,0-5.89,3.73,3.73,0,0,0-5.33,0,4.66,4.66,0,0,0,0,5.92A3.55,3.55,0,0,0,668.28,48.55Z"/></g></g></g></g></g></svg>