<svg xmlns="http://www.w3.org/2000/svg" width="649.853" height="200.848" viewBox="0 0 649.853 200.848">
  <g id="Grupo_14491" data-name="Grupo 14491" transform="translate(-195 -3737)">
    <path id="Trazado_24008" data-name="Trazado 24008" d="M0,0H649.853V200.848H0Z" transform="translate(195 3737)" fill="#d5f4fc"/>
    <path id="Trazado_24009" data-name="Trazado 24009" d="M-4.975-12.375h1.424V0h-1.5V-10.714L-8.024-8.139V-9.765Zm10.134,0H6.583V0H5.08V-10.714L2.109-8.139V-9.765ZM-8.222,19.948V18.691h6.3v1.257Zm15.891,3.2a4.457,4.457,0,0,1-3,1.02,4.462,4.462,0,0,1-3-1.024,3.369,3.369,0,0,1-1.2-2.694,3.329,3.329,0,0,1,.624-2.021,3.577,3.577,0,0,1,1.7-1.248,3.056,3.056,0,0,1-1.217-1.059A2.694,2.694,0,0,1,1.121,14.6a2.861,2.861,0,0,1,1.011-2.254,3.72,3.72,0,0,1,2.54-.883,3.655,3.655,0,0,1,2.509.888A2.87,2.87,0,0,1,8.187,14.6a2.753,2.753,0,0,1-.439,1.525,2.974,2.974,0,0,1-1.2,1.059A3.647,3.647,0,0,1,8.24,18.432a3.31,3.31,0,0,1,.624,2.017A3.371,3.371,0,0,1,7.668,23.147Zm-3-6.469a2.094,2.094,0,0,0,1.5-.58,1.887,1.887,0,0,0,.611-1.424,1.826,1.826,0,0,0-.611-1.393,2.121,2.121,0,0,0-1.5-.567,2.138,2.138,0,0,0-1.512.563,1.829,1.829,0,0,0-.606,1.4A1.887,1.887,0,0,0,3.164,16.1,2.105,2.105,0,0,0,4.671,16.679Zm0,6.082a2.756,2.756,0,0,0,1.9-.677,2.283,2.283,0,0,0,.76-1.793,2.237,2.237,0,0,0-.76-1.767,2.778,2.778,0,0,0-1.9-.668,2.807,2.807,0,0,0-1.916.668,2.231,2.231,0,0,0-.765,1.767,2.277,2.277,0,0,0,.765,1.793A2.785,2.785,0,0,0,4.671,22.761Z" transform="translate(481.707 3818.628)" fill="#00223d"/>
    <path id="Trazado_24010" data-name="Trazado 24010" d="M-2-1.4H4.162V0h-8.35V-1.151L.769-6.275A5.872,5.872,0,0,0,1.885-7.743a2.928,2.928,0,0,0,.308-1.274,2.136,2.136,0,0,0-.624-1.639,2.27,2.27,0,0,0-1.617-.584A2.269,2.269,0,0,0-1.74-10.6a2.741,2.741,0,0,0-.628,1.991V-7.7L-3.889-7.84V-8.6a3.912,3.912,0,0,1,1.046-2.94A3.842,3.842,0,0,1-.048-12.56a3.873,3.873,0,0,1,2.685.94,3.27,3.27,0,0,1,1.05,2.566A3.892,3.892,0,0,1,3.27-7.264a7.689,7.689,0,0,1-1.34,1.78Z" transform="translate(485.707 3869.628)" fill="#00223d"/>
    <path id="Trazado_24011" data-name="Trazado 24011" d="M4.689-3.885v1.4H2.782V0H1.261V-2.487H-4.663V-3.894l5.15-8.481H2.782v8.49Zm-7.778,0H1.261v-7.374ZM-2,46.6H4.162V48h-8.35V46.849L.769,41.725a5.872,5.872,0,0,0,1.116-1.468,2.928,2.928,0,0,0,.308-1.274,2.136,2.136,0,0,0-.624-1.639,2.27,2.27,0,0,0-1.617-.584A2.269,2.269,0,0,0-1.74,37.4a2.741,2.741,0,0,0-.628,1.991V40.3l-1.521-.141V39.4a3.912,3.912,0,0,1,1.046-2.94A3.842,3.842,0,0,1-.048,35.44a3.873,3.873,0,0,1,2.685.94,3.27,3.27,0,0,1,1.05,2.566,3.892,3.892,0,0,1-.417,1.789,7.689,7.689,0,0,1-1.34,1.78Z" transform="translate(534.398 3818.628)" fill="#00223d"/>
    <path id="Trazado_24012" data-name="Trazado 24012" d="M0,0V82.677" transform="translate(508.055 3796)" fill="none" stroke="blue" stroke-width="3.666"/>
    <path id="Trazado_24013" data-name="Trazado 24013" d="M46.541,0H0" transform="translate(508.055 3837.339)" fill="none" stroke="blue" stroke-width="3.666"/>
    <path id="Trazado_24014" data-name="Trazado 24014" d="M-87.442,0V-12.7h4.6a7.166,7.166,0,0,1,2.65.457,4.881,4.881,0,0,1,1.9,1.3,5.64,5.64,0,0,1,1.125,2,8.255,8.255,0,0,1,.382,2.593,8.286,8.286,0,0,1-.382,2.6,5.64,5.64,0,0,1-1.125,2,4.881,4.881,0,0,1-1.9,1.3A7.166,7.166,0,0,1-82.846,0Zm2.637-2.329h1.828a3.12,3.12,0,0,0,2.566-1.033,4.629,4.629,0,0,0,.844-2.993,4.629,4.629,0,0,0-.844-2.993,3.12,3.12,0,0,0-2.566-1.033h-1.828Zm11.443-8.06a1.421,1.421,0,0,1-1.037-.426,1.4,1.4,0,0,1-.431-1.033,1.382,1.382,0,0,1,.435-1.024,1.425,1.425,0,0,1,1.033-.426,1.4,1.4,0,0,1,1.02.426,1.389,1.389,0,0,1,.431,1.024,1.4,1.4,0,0,1-.431,1.033A1.4,1.4,0,0,1-73.362-10.389ZM-74.654,0V-9.035h2.549V0Zm11.048-9.035h2.681L-64.775,0h-2.2l-3.806-9.035h2.663l2.25,6.179Zm5.3-1.354a1.421,1.421,0,0,1-1.037-.426,1.4,1.4,0,0,1-.431-1.033,1.382,1.382,0,0,1,.435-1.024,1.425,1.425,0,0,1,1.033-.426,1.4,1.4,0,0,1,1.02.426,1.389,1.389,0,0,1,.431,1.024,1.4,1.4,0,0,1-.431,1.033A1.4,1.4,0,0,1-58.307-10.389ZM-59.6,0V-9.035h2.549V0Zm11.575-13.5h2.531V0h-2.4l-.062-1.178A2.58,2.58,0,0,1-49.1-.154a3.861,3.861,0,0,1-1.692.365,4.394,4.394,0,0,1-1.687-.325,4.189,4.189,0,0,1-1.384-.918,4.187,4.187,0,0,1-.936-1.49A5.5,5.5,0,0,1-55.143-4.5a5.137,5.137,0,0,1,.6-2.518,4.1,4.1,0,0,1,1.578-1.639,4.345,4.345,0,0,1,2.175-.554,3.957,3.957,0,0,1,1.639.33,2.559,2.559,0,0,1,1.129.936ZM-50.212-1.89A2.253,2.253,0,0,0-48.5-2.61a2.638,2.638,0,0,0,.681-1.89,2.644,2.644,0,0,0-.686-1.894,2.251,2.251,0,0,0-1.705-.725,2.277,2.277,0,0,0-1.718.712A2.644,2.644,0,0,0-52.611-4.5a2.631,2.631,0,0,0,.681,1.9A2.277,2.277,0,0,0-50.212-1.89Zm15.838-2.76-.026.606h-6.7a2.339,2.339,0,0,0,.721,1.652,2.3,2.3,0,0,0,1.591.571A2.221,2.221,0,0,0-37.6-2.131a1.918,1.918,0,0,0,.76-.91l2.32.343A3.945,3.945,0,0,1-36.1-.58a4.7,4.7,0,0,1-2.672.756,4.891,4.891,0,0,1-3.52-1.244,4.538,4.538,0,0,1-1.305-3.45,4.565,4.565,0,0,1,1.31-3.45,4.746,4.746,0,0,1,3.437-1.261A4.536,4.536,0,0,1-35.6-8.077,4.517,4.517,0,0,1-34.374-4.649ZM-38.83-7.436a2,2,0,0,0-2.2,1.74h4.148A1.9,1.9,0,0,0-37.5-6.987,1.978,1.978,0,0,0-38.83-7.436Zm11.716-1.775a3.522,3.522,0,0,1,2.5.813,3.014,3.014,0,0,1,.87,2.316V0h-2.54V-5.537a1.574,1.574,0,0,0-.453-1.248,1.705,1.705,0,0,0-1.165-.4,2.379,2.379,0,0,0-.756.114,1.942,1.942,0,0,0-.633.356,1.573,1.573,0,0,0-.453.681,3.15,3.15,0,0,0-.171,1.046V0h-2.531V-9.035h2.531v1A3.481,3.481,0,0,1-27.114-9.211ZM-14.889-13.5h2.531V0h-2.4l-.062-1.178A2.58,2.58,0,0,1-15.965-.154a3.861,3.861,0,0,1-1.692.365,4.394,4.394,0,0,1-1.687-.325,4.189,4.189,0,0,1-1.384-.918,4.187,4.187,0,0,1-.936-1.49A5.5,5.5,0,0,1-22.008-4.5a5.137,5.137,0,0,1,.6-2.518,4.1,4.1,0,0,1,1.578-1.639,4.345,4.345,0,0,1,2.175-.554,3.957,3.957,0,0,1,1.639.33,2.559,2.559,0,0,1,1.129.936ZM-17.077-1.89a2.253,2.253,0,0,0,1.709-.721,2.638,2.638,0,0,0,.681-1.89,2.644,2.644,0,0,0-.686-1.894,2.251,2.251,0,0,0-1.705-.725,2.277,2.277,0,0,0-1.718.712A2.644,2.644,0,0,0-19.477-4.5,2.631,2.631,0,0,0-18.8-2.6,2.277,2.277,0,0,0-17.077-1.89ZM-5.528.176A5.681,5.681,0,0,1-8.086-.378,4.138,4.138,0,0,1-9.839-2a4.846,4.846,0,0,1-.637-2.522A4.42,4.42,0,0,1-9.105-7.954,5.086,5.086,0,0,1-5.528-9.211,5.1,5.1,0,0,1-1.942-7.954,4.42,4.42,0,0,1-.571-4.526,4.444,4.444,0,0,1-1.942-1.085,5.088,5.088,0,0,1-5.528.176Zm-.026-2.013a2.319,2.319,0,0,0,1.789-.738,2.764,2.764,0,0,0,.681-1.951,2.764,2.764,0,0,0-.681-1.951,2.319,2.319,0,0,0-1.789-.738,2.234,2.234,0,0,0-1.736.743,2.789,2.789,0,0,0-.672,1.947A2.789,2.789,0,0,0-7.291-2.58,2.234,2.234,0,0,0-5.555-1.837Z" transform="translate(416 3818.628)" fill="#00223d"/>
    <path id="Trazado_24015" data-name="Trazado 24015" d="M-169.972-12.7h2.628V0h-3.05l-5.625-9.079V0h-2.628V-12.7h3.015l5.66,9.026Zm11.566,3.665h2.531V0h-2.4l-.062-1.09A3.45,3.45,0,0,1-161.209.176a3.522,3.522,0,0,1-2.5-.813,3.014,3.014,0,0,1-.87-2.316V-9.035h2.54V-3.5a1.562,1.562,0,0,0,.453,1.239,1.718,1.718,0,0,0,1.173.4,2.038,2.038,0,0,0,1.437-.514,2.209,2.209,0,0,0,.567-1.674Zm15.855-.176a3.452,3.452,0,0,1,2.329.734,2.626,2.626,0,0,1,.853,2.1V0H-141.9V-5.651a1.509,1.509,0,0,0-.4-1.143,1.416,1.416,0,0,0-1.02-.387,1.633,1.633,0,0,0-1.23.492,2.235,2.235,0,0,0-.475,1.591V0h-2.558V-5.625a1.549,1.549,0,0,0-.4-1.165,1.441,1.441,0,0,0-1.046-.391,1.581,1.581,0,0,0-1.222.519,2.476,2.476,0,0,0-.475,1.7V0h-2.522V-9.035h2.522v1.063a3.072,3.072,0,0,1,2.619-1.239,3.863,3.863,0,0,1,1.7.347,2.315,2.315,0,0,1,1.068,1.006A3.2,3.2,0,0,1-142.55-9.211Zm14.142,4.562-.026.606h-6.7a2.339,2.339,0,0,0,.721,1.652,2.3,2.3,0,0,0,1.591.571,2.221,2.221,0,0,0,1.191-.312,1.918,1.918,0,0,0,.76-.91l2.32.343A3.945,3.945,0,0,1-130.131-.58,4.7,4.7,0,0,1-132.8.176a4.891,4.891,0,0,1-3.52-1.244,4.538,4.538,0,0,1-1.305-3.45,4.565,4.565,0,0,1,1.31-3.45,4.746,4.746,0,0,1,3.437-1.261,4.536,4.536,0,0,1,3.243,1.151A4.517,4.517,0,0,1-128.408-4.649Zm-4.456-2.786a2,2,0,0,0-2.2,1.74h4.148a1.9,1.9,0,0,0-.624-1.292A1.978,1.978,0,0,0-132.864-7.436Zm8.807-.167a2.933,2.933,0,0,1,1.187-1.085,3.62,3.62,0,0,1,1.767-.453v2.259a3.423,3.423,0,0,0-2.162.545,2.379,2.379,0,0,0-.668,1.934V0h-2.549V-9.035h2.426Zm11.795,5.15a8.453,8.453,0,0,0,.22,2.206V0h-2.364l-.2-.984a2.938,2.938,0,0,1-1.266.87,4.664,4.664,0,0,1-1.635.29A4.3,4.3,0,0,1-118.354.1a2.868,2.868,0,0,1-.76-.268,2.307,2.307,0,0,1-.628-.47,2.062,2.062,0,0,1-.422-.716,2.853,2.853,0,0,1-.158-.98,2.718,2.718,0,0,1,.167-.98,2.3,2.3,0,0,1,.439-.734A2.666,2.666,0,0,1-119-4.588a5.447,5.447,0,0,1,.9-.387,10.712,10.712,0,0,1,1.072-.281l1.485-.334a1.638,1.638,0,0,0,.672-.286.57.57,0,0,0,.2-.453.932.932,0,0,0-.444-.87,2.073,2.073,0,0,0-1.077-.264,1.549,1.549,0,0,0-1.767,1.38l-2.241-.4a3.034,3.034,0,0,1,1.31-2.061,5.2,5.2,0,0,1,2.839-.664q3.8,0,3.8,3.261Zm-4.456.914a2.036,2.036,0,0,0,1.564-.655,2.759,2.759,0,0,0,.606-1.938l-2.145.606a2.534,2.534,0,0,0-.9.369.758.758,0,0,0-.312.65.842.842,0,0,0,.334.716A1.382,1.382,0,0,0-116.719-1.538ZM-103.6-13.5h2.531V0h-2.4l-.062-1.178a2.58,2.58,0,0,1-1.147,1.024,3.861,3.861,0,0,1-1.692.365,4.394,4.394,0,0,1-1.687-.325,4.189,4.189,0,0,1-1.384-.918,4.187,4.187,0,0,1-.936-1.49,5.5,5.5,0,0,1-.343-1.978,5.137,5.137,0,0,1,.6-2.518,4.1,4.1,0,0,1,1.578-1.639,4.345,4.345,0,0,1,2.175-.554,3.957,3.957,0,0,1,1.639.33,2.559,2.559,0,0,1,1.129.936Zm-2.188,11.61a2.253,2.253,0,0,0,1.709-.721,2.638,2.638,0,0,0,.681-1.89,2.644,2.644,0,0,0-.686-1.894,2.251,2.251,0,0,0-1.705-.725,2.277,2.277,0,0,0-1.718.712,2.644,2.644,0,0,0-.681,1.907,2.631,2.631,0,0,0,.681,1.9A2.277,2.277,0,0,0-105.785-1.89ZM-94.236.176a5.681,5.681,0,0,1-2.558-.554A4.138,4.138,0,0,1-98.547-2a4.846,4.846,0,0,1-.637-2.522,4.42,4.42,0,0,1,1.371-3.428,5.086,5.086,0,0,1,3.577-1.257A5.1,5.1,0,0,1-90.65-7.954a4.42,4.42,0,0,1,1.371,3.428A4.444,4.444,0,0,1-90.65-1.085,5.088,5.088,0,0,1-94.236.176Zm-.026-2.013a2.319,2.319,0,0,0,1.789-.738,2.764,2.764,0,0,0,.681-1.951,2.764,2.764,0,0,0-.681-1.951,2.319,2.319,0,0,0-1.789-.738A2.234,2.234,0,0,0-96-6.473a2.789,2.789,0,0,0-.672,1.947A2.789,2.789,0,0,0-96-2.58,2.234,2.234,0,0,0-94.263-1.837Zm9.29-5.766a2.933,2.933,0,0,1,1.187-1.085,3.62,3.62,0,0,1,1.767-.453v2.259a3.423,3.423,0,0,0-2.162.545A2.379,2.379,0,0,0-84.85-4.4V0H-87.4V-9.035h2.426Zm12.34,11.821A8.412,8.412,0,0,1-75.415.308,16.493,16.493,0,0,1-76.43-5.669a16.5,16.5,0,0,1,1.015-5.972,8.411,8.411,0,0,1,2.782-3.916l1.441,1.714a6.236,6.236,0,0,0-2.131,3.125,14.715,14.715,0,0,0-.8,5.049,14.668,14.668,0,0,0,.8,5.049A6.234,6.234,0,0,0-71.191,2.5ZM-67.28-7.6a2.933,2.933,0,0,1,1.187-1.085,3.62,3.62,0,0,1,1.767-.453v2.259a3.423,3.423,0,0,0-2.162.545A2.379,2.379,0,0,0-67.157-4.4V0h-2.549V-9.035h2.426ZM-54.4-4.649l-.026.606h-6.7A2.339,2.339,0,0,0-60.4-2.391a2.3,2.3,0,0,0,1.591.571,2.221,2.221,0,0,0,1.191-.312,1.918,1.918,0,0,0,.76-.91l2.32.343A3.945,3.945,0,0,1-56.118-.58,4.7,4.7,0,0,1-58.79.176a4.891,4.891,0,0,1-3.52-1.244,4.538,4.538,0,0,1-1.305-3.45,4.565,4.565,0,0,1,1.31-3.45,4.746,4.746,0,0,1,3.437-1.261,4.536,4.536,0,0,1,3.243,1.151A4.517,4.517,0,0,1-54.4-4.649Zm-4.456-2.786a2,2,0,0,0-2.2,1.74H-56.9a1.9,1.9,0,0,0-.624-1.292A1.978,1.978,0,0,0-58.852-7.436ZM-49.289.176a5.049,5.049,0,0,1-2.637-.633,2.675,2.675,0,0,1-1.292-1.881l2.118-.6a1.7,1.7,0,0,0,1.811,1.345,1.87,1.87,0,0,0,.923-.207.719.719,0,0,0,.36-.7.739.739,0,0,0-.149-.466,1.183,1.183,0,0,0-.461-.334,5.749,5.749,0,0,0-.615-.237q-.3-.1-.8-.233t-.835-.259a5.593,5.593,0,0,1-.8-.338,3.393,3.393,0,0,1-.659-.466,1.878,1.878,0,0,1-.492-.708,2.552,2.552,0,0,1-.171-.967,2.308,2.308,0,0,1,.98-2.021,4.379,4.379,0,0,1,2.562-.686,4.489,4.489,0,0,1,2.364.58A2.625,2.625,0,0,1-45.87-6.82l-1.96.439a1.535,1.535,0,0,0-1.608-1.143,1.761,1.761,0,0,0-.888.2.649.649,0,0,0-.352.6.685.685,0,0,0,.053.272.539.539,0,0,0,.185.22,2.692,2.692,0,0,0,.255.167,1.923,1.923,0,0,0,.36.145q.237.075.4.114l.461.119.47.123q.483.132.848.264a4.967,4.967,0,0,1,.778.369,2.792,2.792,0,0,1,.681.532,2.372,2.372,0,0,1,.444.747,2.759,2.759,0,0,1,.176,1.006,2.718,2.718,0,0,1-.3,1.31,2.276,2.276,0,0,1-.831.883,4.043,4.043,0,0,1-1.173.475A6.087,6.087,0,0,1-49.289.176Zm6.829-10.564a1.421,1.421,0,0,1-1.037-.426,1.4,1.4,0,0,1-.431-1.033,1.382,1.382,0,0,1,.435-1.024A1.425,1.425,0,0,1-42.46-13.3a1.4,1.4,0,0,1,1.02.426,1.389,1.389,0,0,1,.431,1.024,1.4,1.4,0,0,1-.431,1.033A1.4,1.4,0,0,1-42.46-10.389ZM-43.752,0V-9.035H-41.2V0Zm11.575-13.5h2.531V0h-2.4l-.062-1.178A2.58,2.58,0,0,1-33.253-.154a3.861,3.861,0,0,1-1.692.365,4.394,4.394,0,0,1-1.687-.325,4.189,4.189,0,0,1-1.384-.918,4.187,4.187,0,0,1-.936-1.49A5.5,5.5,0,0,1-39.3-4.5a5.137,5.137,0,0,1,.6-2.518,4.1,4.1,0,0,1,1.578-1.639,4.345,4.345,0,0,1,2.175-.554,3.957,3.957,0,0,1,1.639.33,2.559,2.559,0,0,1,1.129.936ZM-34.365-1.89a2.253,2.253,0,0,0,1.709-.721,2.638,2.638,0,0,0,.681-1.89,2.644,2.644,0,0,0-.686-1.894,2.251,2.251,0,0,0-1.705-.725,2.277,2.277,0,0,0-1.718.712A2.644,2.644,0,0,0-36.765-4.5a2.631,2.631,0,0,0,.681,1.9A2.277,2.277,0,0,0-34.365-1.89Zm13.324-7.146h2.531V0h-2.4l-.062-1.09A3.45,3.45,0,0,1-23.845.176a3.522,3.522,0,0,1-2.5-.813,3.014,3.014,0,0,1-.87-2.316V-9.035h2.54V-3.5a1.562,1.562,0,0,0,.453,1.239,1.718,1.718,0,0,0,1.173.4,2.038,2.038,0,0,0,1.437-.514,2.209,2.209,0,0,0,.567-1.674Zm9.36,9.211a5.681,5.681,0,0,1-2.558-.554A4.138,4.138,0,0,1-15.992-2a4.846,4.846,0,0,1-.637-2.522,4.42,4.42,0,0,1,1.371-3.428,5.086,5.086,0,0,1,3.577-1.257A5.1,5.1,0,0,1-8.095-7.954,4.42,4.42,0,0,1-6.724-4.526,4.444,4.444,0,0,1-8.095-1.085,5.088,5.088,0,0,1-11.681.176Zm-.026-2.013a2.319,2.319,0,0,0,1.789-.738,2.764,2.764,0,0,0,.681-1.951,2.764,2.764,0,0,0-.681-1.951,2.319,2.319,0,0,0-1.789-.738,2.234,2.234,0,0,0-1.736.743,2.789,2.789,0,0,0-.672,1.947,2.789,2.789,0,0,0,.672,1.947A2.234,2.234,0,0,0-11.707-1.837Zm7.172,6.056L-5.977,2.5A6.234,6.234,0,0,0-3.845-.62a14.668,14.668,0,0,0,.8-5.049,14.715,14.715,0,0,0-.8-5.049,6.236,6.236,0,0,0-2.131-3.125l1.441-1.714a8.411,8.411,0,0,1,2.782,3.916A16.5,16.5,0,0,1-.738-5.669,16.493,16.493,0,0,1-1.753.308,8.412,8.412,0,0,1-4.535,4.219Z" transform="translate(416 3871.675)" fill="#00223d"/>
    <path id="Trazado_24016" data-name="Trazado 24016" d="M0,0H31.883" transform="translate(465.766 3850.303)" fill="none" stroke="#000" stroke-width="1"/>
    <path id="Trazado_24017" data-name="Trazado 24017" d="M0,0H30.98V1.766H0Z" transform="translate(422.873 3813.336)" fill="#ff9100"/>
    <path id="Trazado_23530" data-name="Trazado 23530" d="M1360.33,165.76l-1.2-1.293,6.377-5.926-6.377-5.928,1.2-1.293,7.765,7.221Z" transform="translate(-912.328 3655.679)" fill="#ff9100"/>
    <path id="Trazado_24018" data-name="Trazado 24018" d="M0,0H30.98V1.766H0Z" transform="translate(422.873 3863.572)" fill="#ff9100"/>
    <path id="Trazado_23531" data-name="Trazado 23531" d="M1360.33,216l-1.2-1.293,6.377-5.926-6.377-5.928,1.2-1.293,7.765,7.221Z" transform="translate(-912.328 3655.679)" fill="#ff9100"/>
    <path id="Trazado_24019" data-name="Trazado 24019" d="M1.644,0V-12.7h4.6a7.166,7.166,0,0,1,2.65.457,4.881,4.881,0,0,1,1.9,1.3,5.64,5.64,0,0,1,1.125,2A8.255,8.255,0,0,1,12.3-6.354a8.286,8.286,0,0,1-.382,2.6,5.64,5.64,0,0,1-1.125,2,4.881,4.881,0,0,1-1.9,1.3A7.166,7.166,0,0,1,6.24,0ZM4.28-2.329H6.108A3.12,3.12,0,0,0,8.675-3.362a4.629,4.629,0,0,0,.844-2.993,4.629,4.629,0,0,0-.844-2.993A3.12,3.12,0,0,0,6.108-10.38H4.28Zm18.65-2.32-.026.606h-6.7a2.339,2.339,0,0,0,.721,1.652,2.3,2.3,0,0,0,1.591.571,2.221,2.221,0,0,0,1.191-.312,1.918,1.918,0,0,0,.76-.91l2.32.343A3.945,3.945,0,0,1,21.208-.58a4.7,4.7,0,0,1-2.672.756,4.891,4.891,0,0,1-3.52-1.244,4.538,4.538,0,0,1-1.305-3.45,4.565,4.565,0,0,1,1.31-3.45,4.746,4.746,0,0,1,3.437-1.261A4.536,4.536,0,0,1,21.7-8.077,4.517,4.517,0,0,1,22.931-4.649ZM18.475-7.436a2,2,0,0,0-2.2,1.74h4.148A1.9,1.9,0,0,0,19.8-6.987,1.978,1.978,0,0,0,18.475-7.436ZM30.19-9.211a3.522,3.522,0,0,1,2.5.813,3.014,3.014,0,0,1,.87,2.316V0h-2.54V-5.537a1.574,1.574,0,0,0-.453-1.248,1.705,1.705,0,0,0-1.165-.4,2.379,2.379,0,0,0-.756.114,1.942,1.942,0,0,0-.633.356,1.573,1.573,0,0,0-.453.681,3.15,3.15,0,0,0-.171,1.046V0H24.855V-9.035h2.531v1A3.481,3.481,0,0,1,30.19-9.211ZM40.219.176a5.681,5.681,0,0,1-2.558-.554A4.138,4.138,0,0,1,35.908-2a4.846,4.846,0,0,1-.637-2.522,4.42,4.42,0,0,1,1.371-3.428,5.086,5.086,0,0,1,3.577-1.257A5.1,5.1,0,0,1,43.8-7.954a4.42,4.42,0,0,1,1.371,3.428A4.444,4.444,0,0,1,43.8-1.085,5.088,5.088,0,0,1,40.219.176Zm-.026-2.013a2.319,2.319,0,0,0,1.789-.738,2.764,2.764,0,0,0,.681-1.951,2.764,2.764,0,0,0-.681-1.951,2.319,2.319,0,0,0-1.789-.738,2.234,2.234,0,0,0-1.736.743,2.789,2.789,0,0,0-.672,1.947,2.789,2.789,0,0,0,.672,1.947A2.234,2.234,0,0,0,40.192-1.837ZM57.762-9.211a3.452,3.452,0,0,1,2.329.734,2.626,2.626,0,0,1,.853,2.1V0H58.412V-5.651a1.509,1.509,0,0,0-.4-1.143,1.416,1.416,0,0,0-1.02-.387,1.633,1.633,0,0,0-1.23.492A2.235,2.235,0,0,0,55.283-5.1V0H52.726V-5.625a1.549,1.549,0,0,0-.4-1.165,1.441,1.441,0,0,0-1.046-.391,1.581,1.581,0,0,0-1.222.519,2.476,2.476,0,0,0-.475,1.7V0H47.057V-9.035h2.522v1.063A3.072,3.072,0,0,1,52.2-9.211a3.863,3.863,0,0,1,1.7.347,2.315,2.315,0,0,1,1.068,1.006A3.2,3.2,0,0,1,57.762-9.211ZM64.7-10.389a1.421,1.421,0,0,1-1.037-.426,1.4,1.4,0,0,1-.431-1.033,1.382,1.382,0,0,1,.435-1.024A1.425,1.425,0,0,1,64.7-13.3a1.4,1.4,0,0,1,1.02.426,1.389,1.389,0,0,1,.431,1.024,1.4,1.4,0,0,1-.431,1.033A1.4,1.4,0,0,1,64.7-10.389ZM63.4,0V-9.035h2.549V0Zm10.5-9.211a3.522,3.522,0,0,1,2.5.813,3.014,3.014,0,0,1,.87,2.316V0h-2.54V-5.537a1.574,1.574,0,0,0-.453-1.248,1.705,1.705,0,0,0-1.165-.4,2.379,2.379,0,0,0-.756.114,1.942,1.942,0,0,0-.633.356,1.573,1.573,0,0,0-.453.681A3.15,3.15,0,0,0,71.1-4.983V0H68.572V-9.035H71.1v1A3.481,3.481,0,0,1,73.907-9.211ZM87.135-2.452a8.453,8.453,0,0,0,.22,2.206V0H84.99l-.2-.984a2.938,2.938,0,0,1-1.266.87,4.664,4.664,0,0,1-1.635.29A4.3,4.3,0,0,1,81.044.1a2.868,2.868,0,0,1-.76-.268,2.307,2.307,0,0,1-.628-.47,2.062,2.062,0,0,1-.422-.716,2.853,2.853,0,0,1-.158-.98,2.718,2.718,0,0,1,.167-.98,2.3,2.3,0,0,1,.439-.734,2.666,2.666,0,0,1,.712-.536,5.447,5.447,0,0,1,.9-.387,10.712,10.712,0,0,1,1.072-.281l1.485-.334a1.638,1.638,0,0,0,.672-.286.57.57,0,0,0,.2-.453.932.932,0,0,0-.444-.87A2.073,2.073,0,0,0,83.2-7.462a1.549,1.549,0,0,0-1.767,1.38l-2.241-.4A3.034,3.034,0,0,1,80.5-8.547a5.2,5.2,0,0,1,2.839-.664q3.8,0,3.8,3.261Zm-4.456.914a2.036,2.036,0,0,0,1.564-.655,2.759,2.759,0,0,0,.606-1.938l-2.145.606a2.534,2.534,0,0,0-.9.369.758.758,0,0,0-.312.65.842.842,0,0,0,.334.716A1.382,1.382,0,0,0,82.679-1.538ZM95.8-13.5h2.531V0h-2.4l-.062-1.178A2.58,2.58,0,0,1,94.724-.154a3.861,3.861,0,0,1-1.692.365,4.394,4.394,0,0,1-1.687-.325,4.189,4.189,0,0,1-1.384-.918,4.187,4.187,0,0,1-.936-1.49A5.5,5.5,0,0,1,88.682-4.5a5.137,5.137,0,0,1,.6-2.518,4.1,4.1,0,0,1,1.578-1.639,4.345,4.345,0,0,1,2.175-.554,3.957,3.957,0,0,1,1.639.33,2.559,2.559,0,0,1,1.129.936ZM93.612-1.89a2.253,2.253,0,0,0,1.709-.721A2.638,2.638,0,0,0,96-4.5a2.644,2.644,0,0,0-.686-1.894,2.251,2.251,0,0,0-1.705-.725,2.277,2.277,0,0,0-1.718.712A2.644,2.644,0,0,0,91.213-4.5a2.631,2.631,0,0,0,.681,1.9A2.277,2.277,0,0,0,93.612-1.89ZM105.161.176A5.681,5.681,0,0,1,102.6-.378,4.138,4.138,0,0,1,100.85-2a4.846,4.846,0,0,1-.637-2.522,4.42,4.42,0,0,1,1.371-3.428,5.086,5.086,0,0,1,3.577-1.257,5.1,5.1,0,0,1,3.586,1.257,4.42,4.42,0,0,1,1.371,3.428,4.444,4.444,0,0,1-1.371,3.441A5.088,5.088,0,0,1,105.161.176Zm-.026-2.013a2.319,2.319,0,0,0,1.789-.738,2.764,2.764,0,0,0,.681-1.951,2.764,2.764,0,0,0-.681-1.951,2.319,2.319,0,0,0-1.789-.738,2.234,2.234,0,0,0-1.736.743,2.789,2.789,0,0,0-.672,1.947A2.789,2.789,0,0,0,103.4-2.58,2.234,2.234,0,0,0,105.135-1.837Zm9.29-5.766a2.933,2.933,0,0,1,1.187-1.085,3.62,3.62,0,0,1,1.767-.453v2.259a3.423,3.423,0,0,0-2.162.545,2.379,2.379,0,0,0-.668,1.934V0H112V-9.035h2.426Zm12.34,11.821A8.412,8.412,0,0,1,123.983.308a16.493,16.493,0,0,1-1.015-5.977,16.5,16.5,0,0,1,1.015-5.972,8.411,8.411,0,0,1,2.782-3.916l1.441,1.714a6.236,6.236,0,0,0-2.131,3.125,14.715,14.715,0,0,0-.8,5.049,14.668,14.668,0,0,0,.8,5.049A6.234,6.234,0,0,0,128.206,2.5ZM136.1-13.5h2.531V0h-2.4l-.062-1.178a2.58,2.58,0,0,1-1.147,1.024,3.861,3.861,0,0,1-1.692.365,4.394,4.394,0,0,1-1.687-.325,4.189,4.189,0,0,1-1.384-.918,4.187,4.187,0,0,1-.936-1.49,5.5,5.5,0,0,1-.343-1.978,5.137,5.137,0,0,1,.6-2.518,4.1,4.1,0,0,1,1.578-1.639,4.345,4.345,0,0,1,2.175-.554,3.957,3.957,0,0,1,1.639.33,2.559,2.559,0,0,1,1.129.936ZM133.91-1.89a2.253,2.253,0,0,0,1.709-.721A2.638,2.638,0,0,0,136.3-4.5a2.644,2.644,0,0,0-.686-1.894,2.251,2.251,0,0,0-1.705-.725,2.277,2.277,0,0,0-1.718.712,2.644,2.644,0,0,0-.681,1.907,2.631,2.631,0,0,0,.681,1.9A2.277,2.277,0,0,0,133.91-1.89Zm8.631-8.5a1.421,1.421,0,0,1-1.037-.426,1.4,1.4,0,0,1-.431-1.033,1.382,1.382,0,0,1,.435-1.024,1.425,1.425,0,0,1,1.033-.426,1.4,1.4,0,0,1,1.02.426,1.389,1.389,0,0,1,.431,1.024,1.4,1.4,0,0,1-.431,1.033A1.4,1.4,0,0,1,142.541-10.389ZM141.249,0V-9.035H143.8V0ZM152.3-9.035h2.681L151.128,0h-2.2l-3.806-9.035h2.663l2.25,6.179Zm5.3-1.354a1.421,1.421,0,0,1-1.037-.426,1.4,1.4,0,0,1-.431-1.033,1.382,1.382,0,0,1,.435-1.024A1.425,1.425,0,0,1,157.6-13.3a1.4,1.4,0,0,1,1.02.426,1.389,1.389,0,0,1,.431,1.024,1.4,1.4,0,0,1-.431,1.033A1.4,1.4,0,0,1,157.6-10.389ZM156.3,0V-9.035h2.549V0Zm8.35.176a5.049,5.049,0,0,1-2.637-.633,2.675,2.675,0,0,1-1.292-1.881l2.118-.6a1.7,1.7,0,0,0,1.811,1.345,1.87,1.87,0,0,0,.923-.207.719.719,0,0,0,.36-.7.739.739,0,0,0-.149-.466,1.183,1.183,0,0,0-.461-.334,5.749,5.749,0,0,0-.615-.237q-.3-.1-.8-.233t-.835-.259a5.593,5.593,0,0,1-.8-.338,3.393,3.393,0,0,1-.659-.466,1.878,1.878,0,0,1-.492-.708,2.552,2.552,0,0,1-.171-.967,2.308,2.308,0,0,1,.98-2.021,4.379,4.379,0,0,1,2.562-.686,4.489,4.489,0,0,1,2.364.58,2.625,2.625,0,0,1,1.213,1.811l-1.96.439A1.535,1.535,0,0,0,164.5-7.523a1.761,1.761,0,0,0-.888.2.649.649,0,0,0-.352.6.685.685,0,0,0,.053.272.539.539,0,0,0,.185.22,2.692,2.692,0,0,0,.255.167,1.923,1.923,0,0,0,.36.145q.237.075.4.114l.461.119.47.123q.483.132.848.264a4.967,4.967,0,0,1,.778.369,2.792,2.792,0,0,1,.681.532,2.372,2.372,0,0,1,.444.747,2.759,2.759,0,0,1,.176,1.006,2.718,2.718,0,0,1-.3,1.31,2.276,2.276,0,0,1-.831.883,4.043,4.043,0,0,1-1.173.475A6.087,6.087,0,0,1,164.654.176Zm9.747,0a5.681,5.681,0,0,1-2.558-.554A4.138,4.138,0,0,1,170.09-2a4.846,4.846,0,0,1-.637-2.522,4.42,4.42,0,0,1,1.371-3.428A5.086,5.086,0,0,1,174.4-9.211a5.1,5.1,0,0,1,3.586,1.257,4.42,4.42,0,0,1,1.371,3.428,4.444,4.444,0,0,1-1.371,3.441A5.088,5.088,0,0,1,174.4.176Zm-.026-2.013a2.319,2.319,0,0,0,1.789-.738,2.764,2.764,0,0,0,.681-1.951,2.764,2.764,0,0,0-.681-1.951,2.319,2.319,0,0,0-1.789-.738,2.234,2.234,0,0,0-1.736.743,2.789,2.789,0,0,0-.672,1.947,2.789,2.789,0,0,0,.672,1.947A2.234,2.234,0,0,0,174.375-1.837Zm9.29-5.766a2.933,2.933,0,0,1,1.187-1.085,3.62,3.62,0,0,1,1.767-.453v2.259a3.423,3.423,0,0,0-2.162.545,2.379,2.379,0,0,0-.668,1.934V0h-2.549V-9.035h2.426Zm4.746,11.821L186.97,2.5A6.234,6.234,0,0,0,189.1-.62a14.668,14.668,0,0,0,.8-5.049,14.715,14.715,0,0,0-.8-5.049,6.236,6.236,0,0,0-2.131-3.125l1.441-1.714a8.411,8.411,0,0,1,2.782,3.916,16.5,16.5,0,0,1,1.015,5.972A16.493,16.493,0,0,1,191.193.308,8.412,8.412,0,0,1,188.411,4.219Z" transform="translate(611.789 3818.628)" fill="#00223d"/>
    <path id="Trazado_24020" data-name="Trazado 24020" d="M9.009-10.38H4.3V-7.5H8.473V-5.2H4.3v2.874H9.009V0H1.644V-12.7H9.009Zm7.717,1.169a3.522,3.522,0,0,1,2.5.813,3.014,3.014,0,0,1,.87,2.316V0h-2.54V-5.537A1.574,1.574,0,0,0,17.1-6.785a1.705,1.705,0,0,0-1.165-.4,2.379,2.379,0,0,0-.756.114,1.942,1.942,0,0,0-.633.356,1.573,1.573,0,0,0-.453.681,3.15,3.15,0,0,0-.171,1.046V0H11.391V-9.035h2.531v1A3.481,3.481,0,0,1,16.726-9.211ZM25.91,0a2.729,2.729,0,0,1-2.039-.734,2.854,2.854,0,0,1-.721-2.087V-7.093H21.375V-9.035h.571a1.491,1.491,0,0,0,1.125-.378,1.946,1.946,0,0,0,.36-1.345v-1.2h2.285v2.918H27.58v1.942H25.717v4q0,1.169,1.046,1.169h.817V0ZM38-4.649l-.026.606h-6.7A2.339,2.339,0,0,0,32-2.391a2.3,2.3,0,0,0,1.591.571,2.221,2.221,0,0,0,1.191-.312,1.918,1.918,0,0,0,.76-.91l2.32.343A3.945,3.945,0,0,1,36.281-.58a4.7,4.7,0,0,1-2.672.756,4.891,4.891,0,0,1-3.52-1.244,4.538,4.538,0,0,1-1.305-3.45,4.565,4.565,0,0,1,1.31-3.45A4.746,4.746,0,0,1,33.53-9.229a4.536,4.536,0,0,1,3.243,1.151A4.517,4.517,0,0,1,38-4.649ZM33.548-7.436a2,2,0,0,0-2.2,1.74H35.5a1.9,1.9,0,0,0-.624-1.292A1.978,1.978,0,0,0,33.548-7.436ZM42.354-7.6a2.933,2.933,0,0,1,1.187-1.085,3.62,3.62,0,0,1,1.767-.453v2.259a3.423,3.423,0,0,0-2.162.545A2.379,2.379,0,0,0,42.478-4.4V0H39.929V-9.035h2.426ZM50.95.176a5.681,5.681,0,0,1-2.558-.554A4.138,4.138,0,0,1,46.639-2,4.846,4.846,0,0,1,46-4.526a4.42,4.42,0,0,1,1.371-3.428A5.086,5.086,0,0,1,50.95-9.211a5.1,5.1,0,0,1,3.586,1.257,4.42,4.42,0,0,1,1.371,3.428,4.444,4.444,0,0,1-1.371,3.441A5.088,5.088,0,0,1,50.95.176Zm-.026-2.013a2.319,2.319,0,0,0,1.789-.738,2.764,2.764,0,0,0,.681-1.951,2.764,2.764,0,0,0-.681-1.951,2.319,2.319,0,0,0-1.789-.738,2.234,2.234,0,0,0-1.736.743,2.789,2.789,0,0,0-.672,1.947,2.789,2.789,0,0,0,.672,1.947A2.234,2.234,0,0,0,50.924-1.837ZM65.689,4.219A8.412,8.412,0,0,1,62.908.308a16.493,16.493,0,0,1-1.015-5.977,16.5,16.5,0,0,1,1.015-5.972,8.411,8.411,0,0,1,2.782-3.916l1.441,1.714A6.236,6.236,0,0,0,65-10.718a14.715,14.715,0,0,0-.8,5.049A14.668,14.668,0,0,0,65-.62,6.234,6.234,0,0,0,67.131,2.5ZM72.7.167a4.827,4.827,0,0,1-3.489-1.3A4.493,4.493,0,0,1,67.86-4.526a4.483,4.483,0,0,1,1.349-3.393A4.842,4.842,0,0,1,72.7-9.211a4.814,4.814,0,0,1,2.927.87,3.885,3.885,0,0,1,1.512,2.452L74.8-5.634a2,2,0,0,0-.756-1.187,2.3,2.3,0,0,0-1.371-.4,2.072,2.072,0,0,0-1.652.738,2.894,2.894,0,0,0-.633,1.951,2.9,2.9,0,0,0,.633,1.947,2.067,2.067,0,0,0,1.652.743,2.278,2.278,0,0,0,1.367-.4,2.05,2.05,0,0,0,.76-1.187l2.338.255A3.9,3.9,0,0,1,75.617-.712,4.8,4.8,0,0,1,72.7.167Zm10.45.009A5.681,5.681,0,0,1,80.6-.378,4.138,4.138,0,0,1,78.842-2a4.846,4.846,0,0,1-.637-2.522,4.42,4.42,0,0,1,1.371-3.428,5.086,5.086,0,0,1,3.577-1.257,5.1,5.1,0,0,1,3.586,1.257A4.42,4.42,0,0,1,88.11-4.526a4.444,4.444,0,0,1-1.371,3.441A5.088,5.088,0,0,1,83.153.176Zm-.026-2.013a2.319,2.319,0,0,0,1.789-.738A2.764,2.764,0,0,0,85.6-4.526a2.764,2.764,0,0,0-.681-1.951,2.319,2.319,0,0,0-1.789-.738,2.234,2.234,0,0,0-1.736.743,2.789,2.789,0,0,0-.672,1.947,2.789,2.789,0,0,0,.672,1.947A2.234,2.234,0,0,0,83.127-1.837Zm10.951,2a4.827,4.827,0,0,1-3.489-1.3,4.493,4.493,0,0,1-1.354-3.393,4.483,4.483,0,0,1,1.349-3.393,4.842,4.842,0,0,1,3.494-1.292A4.814,4.814,0,0,1,97-8.341a3.885,3.885,0,0,1,1.512,2.452l-2.338.255a2,2,0,0,0-.756-1.187,2.3,2.3,0,0,0-1.371-.4,2.072,2.072,0,0,0-1.652.738,2.894,2.894,0,0,0-.633,1.951A2.9,2.9,0,0,0,92.4-2.58a2.067,2.067,0,0,0,1.652.743,2.278,2.278,0,0,0,1.367-.4,2.05,2.05,0,0,0,.76-1.187l2.338.255A3.9,3.9,0,0,1,96.992-.712,4.8,4.8,0,0,1,94.078.167Zm7.532-10.556a1.421,1.421,0,0,1-1.037-.426,1.4,1.4,0,0,1-.431-1.033,1.382,1.382,0,0,1,.435-1.024,1.425,1.425,0,0,1,1.033-.426,1.4,1.4,0,0,1,1.02.426,1.389,1.389,0,0,1,.431,1.024,1.4,1.4,0,0,1-.431,1.033A1.4,1.4,0,0,1,101.61-10.389ZM100.318,0V-9.035h2.549V0Zm13.667-4.649-.026.606h-6.7a2.339,2.339,0,0,0,.721,1.652,2.3,2.3,0,0,0,1.591.571,2.221,2.221,0,0,0,1.191-.312,1.918,1.918,0,0,0,.76-.91l2.32.343A3.945,3.945,0,0,1,112.263-.58a4.7,4.7,0,0,1-2.672.756,4.891,4.891,0,0,1-3.52-1.244,4.538,4.538,0,0,1-1.305-3.45,4.565,4.565,0,0,1,1.31-3.45,4.746,4.746,0,0,1,3.437-1.261,4.536,4.536,0,0,1,3.243,1.151A4.517,4.517,0,0,1,113.985-4.649Zm-4.456-2.786a2,2,0,0,0-2.2,1.74h4.148a1.9,1.9,0,0,0-.624-1.292A1.978,1.978,0,0,0,109.529-7.436Zm11.716-1.775a3.522,3.522,0,0,1,2.5.813,3.014,3.014,0,0,1,.87,2.316V0h-2.54V-5.537a1.574,1.574,0,0,0-.453-1.248,1.705,1.705,0,0,0-1.165-.4,2.379,2.379,0,0,0-.756.114,1.942,1.942,0,0,0-.633.356,1.573,1.573,0,0,0-.453.681,3.15,3.15,0,0,0-.171,1.046V0H115.91V-9.035h2.531v1A3.481,3.481,0,0,1,121.245-9.211ZM130.43,0a2.729,2.729,0,0,1-2.039-.734,2.854,2.854,0,0,1-.721-2.087V-7.093h-1.775V-9.035h.571a1.491,1.491,0,0,0,1.125-.378,1.946,1.946,0,0,0,.36-1.345v-1.2h2.285v2.918H132.1v1.942h-1.863v4q0,1.169,1.046,1.169h.817V0Zm12.094-4.649-.026.606h-6.7a2.339,2.339,0,0,0,.721,1.652,2.3,2.3,0,0,0,1.591.571,2.221,2.221,0,0,0,1.191-.312,1.918,1.918,0,0,0,.76-.91l2.32.343A3.945,3.945,0,0,1,140.8-.58a4.7,4.7,0,0,1-2.672.756,4.891,4.891,0,0,1-3.52-1.244,4.538,4.538,0,0,1-1.305-3.45,4.565,4.565,0,0,1,1.31-3.45,4.746,4.746,0,0,1,3.437-1.261,4.536,4.536,0,0,1,3.243,1.151A4.517,4.517,0,0,1,142.523-4.649Zm-4.456-2.786a2,2,0,0,0-2.2,1.74h4.148a1.9,1.9,0,0,0-.624-1.292A1.978,1.978,0,0,0,138.067-7.436Zm6.688,11.654L143.314,2.5A6.234,6.234,0,0,0,145.446-.62a14.668,14.668,0,0,0,.8-5.049,14.715,14.715,0,0,0-.8-5.049,6.236,6.236,0,0,0-2.131-3.125l1.441-1.714a8.411,8.411,0,0,1,2.782,3.916,16.5,16.5,0,0,1,1.015,5.972A16.493,16.493,0,0,1,147.538.308,8.412,8.412,0,0,1,144.756,4.219Z" transform="translate(611.789 3871.675)" fill="#00223d"/>
    <path id="Trazado_24021" data-name="Trazado 24021" d="M0,0H30.98V1.766H0Z" transform="translate(571.313 3813.336)" fill="#ff9100"/>
    <path id="Trazado_23532" data-name="Trazado 23532" d="M1489.491,165.76l1.2-1.293-6.377-5.926,6.377-5.928-1.2-1.293-7.765,7.221Z" transform="translate(-912.328 3655.679)" fill="#ff9100"/>
    <path id="Trazado_24022" data-name="Trazado 24022" d="M0,0H30.98V1.766H0Z" transform="translate(571.313 3863.572)" fill="#ff9100"/>
    <path id="Trazado_23533" data-name="Trazado 23533" d="M1489.491,216l1.2-1.293-6.377-5.926,6.377-5.928-1.2-1.293-7.765,7.221Z" transform="translate(-912.328 3655.679)" fill="#ff9100"/>
  </g>
</svg>
