<svg xmlns="http://www.w3.org/2000/svg" width="648.173" height="200.848" viewBox="0 0 648.173 200.848">
  <g id="Grupo_14491" data-name="Grupo 14491" transform="translate(-87 -2596)">
    <path id="Trazado_24008" data-name="Trazado 24008" d="M0,0H648.173V200.848H0Z" transform="translate(87 2596)" fill="#d5f4fc"/>
    <path id="Trazado_24009" data-name="Trazado 24009" d="M-8.9-19.756h3.746V0H-9.078V-15.709l-4.539,4.225v-4.047Zm16.721,0h3.746V0H7.643V-15.709L3.1-11.484v-4.047Z" transform="translate(462.746 2684)" fill="#002b45"/>
    <path id="Trazado_24010" data-name="Trazado 24010" d="M7.649-7.26v3.514H5.271V0H1.333V-3.746H-7.759V-7.273l7-12.482H5.271v12.5Zm-11.758,0H1.333V-17.391Z" transform="translate(462.746 2727.25)" fill="#002b45"/>
    <path id="Trazado_24011" data-name="Trazado 24011" d="M0,0H51.607V1.317H0Z" transform="translate(436.941 2692.682)" fill="#002b45"/>
    <path id="Trazado_24012" data-name="Trazado 24012" d="M-136.158,6.563A13.085,13.085,0,0,1-140.485.479a25.655,25.655,0,0,1-1.579-9.3,25.669,25.669,0,0,1,1.579-9.29,13.084,13.084,0,0,1,4.327-6.091l2.242,2.666a9.7,9.7,0,0,0-3.315,4.86,22.89,22.89,0,0,0-1.251,7.854,22.816,22.816,0,0,0,1.251,7.854,9.7,9.7,0,0,0,3.315,4.847Zm9.393-10.076h8.422V0h-13.932V-2.967l7.861-8.025a4.947,4.947,0,0,0,1.709-3.4,2.408,2.408,0,0,0-.7-1.832,2.772,2.772,0,0,0-1.989-.67q-2.8,0-2.8,3.186v1.463l-3.924-.4v-.984a6.161,6.161,0,0,1,1.8-4.751,6.912,6.912,0,0,1,4.895-1.675,7.24,7.24,0,0,1,4.765,1.518,5.115,5.115,0,0,1,1.839,4.17,5.913,5.913,0,0,1-.622,2.707,11.315,11.315,0,0,1-1.976,2.639ZM-109.539,0l5.77-7.041-5.77-7.014h4.922l3.227,4.43,3.254-4.43h4.881l-5.783,7.027L-93.256,0h-4.881l-3.227-4.4L-104.6,0ZM-69.85-7.26v3.514h-2.379V0h-3.937V-3.746h-9.092V-7.273l7-12.482h6.029v12.5Zm-11.758,0h5.441V-17.391ZM-66.623,6.563l-2.242-2.68A9.7,9.7,0,0,0-65.55-.964,22.816,22.816,0,0,0-64.3-8.818a22.89,22.89,0,0,0-1.251-7.854,9.7,9.7,0,0,0-3.315-4.86l2.242-2.666A13.084,13.084,0,0,1-62.3-18.108a25.669,25.669,0,0,1,1.579,9.29A25.655,25.655,0,0,1-62.3.479,13.085,13.085,0,0,1-66.623,6.563Zm17.391-17.691v-2.994H-37.16v2.994Zm0,6V-8.121H-37.16v2.994Zm30.789,5.4A7.905,7.905,0,0,1-23.6-1.381a5.435,5.435,0,0,1-2.03-4.443,5.537,5.537,0,0,1,.827-3.028,5.669,5.669,0,0,1,2.29-2.044,5,5,0,0,1-1.634-1.682,4.343,4.343,0,0,1-.595-2.242,4.634,4.634,0,0,1,1.764-3.767,6.938,6.938,0,0,1,4.539-1.442,6.824,6.824,0,0,1,4.478,1.442,4.641,4.641,0,0,1,1.757,3.767,4.425,4.425,0,0,1-.574,2.235A5.046,5.046,0,0,1-14.369-10.9,5.641,5.641,0,0,1-12.1-8.853a5.572,5.572,0,0,1,.82,3.028,5.677,5.677,0,0,1-.943,3.247A5.938,5.938,0,0,1-14.786-.451,8.865,8.865,0,0,1-18.443.273Zm0-12.318a2.627,2.627,0,0,0,1.873-.738,2.391,2.391,0,0,0,.779-1.8,2.333,2.333,0,0,0-.779-1.777,2.654,2.654,0,0,0-1.873-.725,2.664,2.664,0,0,0-1.894.725,2.342,2.342,0,0,0-.772,1.777,2.394,2.394,0,0,0,.772,1.812A2.651,2.651,0,0,0-18.443-12.045Zm0,8.791a3.3,3.3,0,0,0,2.311-.834,2.883,2.883,0,0,0,.916-2.242,2.8,2.8,0,0,0-.923-2.194,3.324,3.324,0,0,0-2.3-.827,3.362,3.362,0,0,0-2.331.827A2.8,2.8,0,0,0-21.7-6.33a2.873,2.873,0,0,0,.923,2.242A3.345,3.345,0,0,0-18.443-3.254Zm26.838-10.8h4.033L3.76,6.617H-.232L2.98-.574-2.8-14.055H1.49L4.84-4.812ZM34.07,6.563A13.085,13.085,0,0,1,29.743.479a25.655,25.655,0,0,1-1.579-9.3,25.669,25.669,0,0,1,1.579-9.29A13.084,13.084,0,0,1,34.07-24.2l2.242,2.666A9.7,9.7,0,0,0,33-16.673a22.89,22.89,0,0,0-1.251,7.854A22.816,22.816,0,0,0,33-.964a9.7,9.7,0,0,0,3.315,4.847ZM44.98.273a7.905,7.905,0,0,1-5.161-1.654,5.435,5.435,0,0,1-2.03-4.443,5.537,5.537,0,0,1,.827-3.028,5.669,5.669,0,0,1,2.29-2.044,5,5,0,0,1-1.634-1.682,4.343,4.343,0,0,1-.595-2.242,4.634,4.634,0,0,1,1.764-3.767,6.938,6.938,0,0,1,4.539-1.442,6.824,6.824,0,0,1,4.478,1.442,4.641,4.641,0,0,1,1.757,3.767,4.425,4.425,0,0,1-.574,2.235A5.046,5.046,0,0,1,49.055-10.9a5.641,5.641,0,0,1,2.27,2.044,5.572,5.572,0,0,1,.82,3.028A5.677,5.677,0,0,1,51.2-2.577,5.938,5.938,0,0,1,48.638-.451,8.865,8.865,0,0,1,44.98.273Zm0-12.318a2.627,2.627,0,0,0,1.873-.738,2.391,2.391,0,0,0,.779-1.8,2.333,2.333,0,0,0-.779-1.777,2.654,2.654,0,0,0-1.873-.725,2.664,2.664,0,0,0-1.894.725,2.342,2.342,0,0,0-.772,1.777,2.394,2.394,0,0,0,.772,1.812A2.651,2.651,0,0,0,44.98-12.045Zm0,8.791a3.3,3.3,0,0,0,2.311-.834,2.883,2.883,0,0,0,.916-2.242,2.8,2.8,0,0,0-.923-2.194,3.324,3.324,0,0,0-2.3-.827,3.362,3.362,0,0,0-2.331.827,2.8,2.8,0,0,0-.923,2.194,2.873,2.873,0,0,0,.923,2.242A3.345,3.345,0,0,0,44.98-3.254ZM67.266-2.8V-8.08H61.988v-2.994h5.277v-5.264h2.98v5.264H75.51V-8.08H70.246V-2.8ZM92.518.273q-3.691,0-5.387-1.8t-1.7-5.523l4.033-.178a14.282,14.282,0,0,0,.062,1.449,5.009,5.009,0,0,0,.246,1.121,2.006,2.006,0,0,0,.52.841,2.361,2.361,0,0,0,.889.485,4.391,4.391,0,0,0,1.333.178,3.2,3.2,0,0,0,2.331-.793,2.772,2.772,0,0,0,.813-2.078,2.794,2.794,0,0,0-.779-2.14A2.933,2.933,0,0,0,92.791-8.9h-.766v-3.062h.711a2.138,2.138,0,0,0,1.634-.7,2.486,2.486,0,0,0,.649-1.764,1.987,1.987,0,0,0-.711-1.641,2.89,2.89,0,0,0-1.873-.574,2.807,2.807,0,0,0-1.066.185,1.989,1.989,0,0,0-.718.472,2.086,2.086,0,0,0-.424.725,3.808,3.808,0,0,0-.205.861,8.6,8.6,0,0,0-.048.957L86-13.631a6.324,6.324,0,0,1,1.7-4.751,6.464,6.464,0,0,1,4.7-1.647,6.723,6.723,0,0,1,4.512,1.511,4.731,4.731,0,0,1,1.777,3.753,4.271,4.271,0,0,1-.759,2.543,4.344,4.344,0,0,1-1.729,1.5,4.869,4.869,0,0,1,1.258.561,5.156,5.156,0,0,1,1.1.943,4.21,4.21,0,0,1,.813,1.436,5.776,5.776,0,0,1,.3,1.914A5.583,5.583,0,0,1,97.713-1.4,7.712,7.712,0,0,1,92.518.273Zm10.91,6.289-2.242-2.68A9.7,9.7,0,0,0,104.5-.964a22.816,22.816,0,0,0,1.251-7.854,22.89,22.89,0,0,0-1.251-7.854,9.7,9.7,0,0,0-3.315-4.86l2.242-2.666a13.084,13.084,0,0,1,4.327,6.091,25.669,25.669,0,0,1,1.579,9.29,25.655,25.655,0,0,1-1.579,9.3A13.085,13.085,0,0,1,103.428,6.563Zm17.391-17.691v-2.994h12.072v2.994Zm0,6V-8.121h12.072v2.994Z" transform="translate(292.002 2700.104)" fill="#002b45"/>
    <path id="Trazado_24013" data-name="Trazado 24013" d="M10.318-12.7h2.628V0H9.9L4.271-9.079V0H1.644V-12.7H4.658l5.66,9.026ZM21.885-9.035h2.531V0h-2.4l-.062-1.09A3.45,3.45,0,0,1,19.081.176a3.522,3.522,0,0,1-2.5-.813,3.014,3.014,0,0,1-.87-2.316V-9.035h2.54V-3.5a1.562,1.562,0,0,0,.453,1.239,1.718,1.718,0,0,0,1.173.4,2.038,2.038,0,0,0,1.437-.514,2.209,2.209,0,0,0,.567-1.674ZM37.74-9.211a3.452,3.452,0,0,1,2.329.734,2.626,2.626,0,0,1,.853,2.1V0H38.391V-5.651a1.509,1.509,0,0,0-.4-1.143,1.416,1.416,0,0,0-1.02-.387,1.633,1.633,0,0,0-1.23.492A2.235,2.235,0,0,0,35.262-5.1V0H32.7V-5.625a1.549,1.549,0,0,0-.4-1.165,1.441,1.441,0,0,0-1.046-.391,1.581,1.581,0,0,0-1.222.519,2.476,2.476,0,0,0-.475,1.7V0H27.035V-9.035h2.522v1.063a3.072,3.072,0,0,1,2.619-1.239,3.863,3.863,0,0,1,1.7.347,2.315,2.315,0,0,1,1.068,1.006A3.2,3.2,0,0,1,37.74-9.211ZM51.882-4.649l-.026.606h-6.7a2.339,2.339,0,0,0,.721,1.652,2.3,2.3,0,0,0,1.591.571,2.221,2.221,0,0,0,1.191-.312,1.918,1.918,0,0,0,.76-.91l2.32.343A3.945,3.945,0,0,1,50.159-.58a4.7,4.7,0,0,1-2.672.756,4.891,4.891,0,0,1-3.52-1.244,4.538,4.538,0,0,1-1.305-3.45,4.565,4.565,0,0,1,1.31-3.45,4.746,4.746,0,0,1,3.437-1.261,4.536,4.536,0,0,1,3.243,1.151A4.517,4.517,0,0,1,51.882-4.649ZM47.426-7.436a2,2,0,0,0-2.2,1.74h4.148a1.9,1.9,0,0,0-.624-1.292A1.978,1.978,0,0,0,47.426-7.436ZM56.232-7.6a2.933,2.933,0,0,1,1.187-1.085,3.62,3.62,0,0,1,1.767-.453v2.259a3.423,3.423,0,0,0-2.162.545A2.379,2.379,0,0,0,56.355-4.4V0H53.807V-9.035h2.426Zm11.795,5.15a8.453,8.453,0,0,0,.22,2.206V0H65.883l-.2-.984a2.938,2.938,0,0,1-1.266.87,4.664,4.664,0,0,1-1.635.29A4.3,4.3,0,0,1,61.937.1a2.868,2.868,0,0,1-.76-.268,2.307,2.307,0,0,1-.628-.47,2.062,2.062,0,0,1-.422-.716,2.853,2.853,0,0,1-.158-.98,2.718,2.718,0,0,1,.167-.98,2.3,2.3,0,0,1,.439-.734,2.666,2.666,0,0,1,.712-.536,5.447,5.447,0,0,1,.9-.387,10.712,10.712,0,0,1,1.072-.281L64.74-5.59a1.638,1.638,0,0,0,.672-.286.57.57,0,0,0,.2-.453.932.932,0,0,0-.444-.87,2.073,2.073,0,0,0-1.077-.264,1.549,1.549,0,0,0-1.767,1.38l-2.241-.4a3.034,3.034,0,0,1,1.31-2.061,5.2,5.2,0,0,1,2.839-.664q3.8,0,3.8,3.261Zm-4.456.914a2.036,2.036,0,0,0,1.564-.655,2.759,2.759,0,0,0,.606-1.938L63.6-3.524a2.534,2.534,0,0,0-.9.369.758.758,0,0,0-.312.65.842.842,0,0,0,.334.716A1.382,1.382,0,0,0,63.571-1.538ZM76.693-13.5h2.531V0h-2.4l-.062-1.178A2.58,2.58,0,0,1,75.617-.154a3.861,3.861,0,0,1-1.692.365,4.394,4.394,0,0,1-1.687-.325,4.189,4.189,0,0,1-1.384-.918,4.187,4.187,0,0,1-.936-1.49A5.5,5.5,0,0,1,69.574-4.5a5.137,5.137,0,0,1,.6-2.518A4.1,4.1,0,0,1,71.75-8.657a4.345,4.345,0,0,1,2.175-.554,3.957,3.957,0,0,1,1.639.33,2.559,2.559,0,0,1,1.129.936ZM74.5-1.89a2.253,2.253,0,0,0,1.709-.721A2.638,2.638,0,0,0,76.9-4.5a2.644,2.644,0,0,0-.686-1.894A2.251,2.251,0,0,0,74.5-7.119a2.277,2.277,0,0,0-1.718.712A2.644,2.644,0,0,0,72.105-4.5a2.631,2.631,0,0,0,.681,1.9A2.277,2.277,0,0,0,74.5-1.89ZM86.054.176A5.681,5.681,0,0,1,83.5-.378,4.138,4.138,0,0,1,81.743-2a4.846,4.846,0,0,1-.637-2.522,4.42,4.42,0,0,1,1.371-3.428,5.086,5.086,0,0,1,3.577-1.257A5.1,5.1,0,0,1,89.64-7.954a4.42,4.42,0,0,1,1.371,3.428A4.444,4.444,0,0,1,89.64-1.085,5.088,5.088,0,0,1,86.054.176Zm-.026-2.013a2.319,2.319,0,0,0,1.789-.738A2.764,2.764,0,0,0,88.5-4.526a2.764,2.764,0,0,0-.681-1.951,2.319,2.319,0,0,0-1.789-.738,2.234,2.234,0,0,0-1.736.743,2.789,2.789,0,0,0-.672,1.947,2.789,2.789,0,0,0,.672,1.947A2.234,2.234,0,0,0,86.027-1.837ZM95.317-7.6A2.933,2.933,0,0,1,96.5-8.688a3.62,3.62,0,0,1,1.767-.453v2.259a3.423,3.423,0,0,0-2.162.545A2.379,2.379,0,0,0,95.44-4.4V0H92.892V-9.035h2.426Z" transform="translate(554.746 2682.514)" fill="#00223d"/>
    <path id="Trazado_24014" data-name="Trazado 24014" d="M0,0H30.98V1.766H0Z" transform="translate(503.271 2675.412)" fill="#ff9100"/>
    <g id="Grupo_14229" data-name="Grupo 14229" transform="translate(-320.902 1794.503)">
      <g id="Grupo_14228" data-name="Grupo 14228">
        <path id="Trazado_23528" data-name="Trazado 23528" d="M849.3,889.013l-1.2-1.293,6.377-5.926-6.377-5.928,1.2-1.293,7.765,7.221Z" fill="#ff9100"/>
      </g>
    </g>
    <path id="Trazado_24015" data-name="Trazado 24015" d="M1.644,0V-12.7h4.6a7.166,7.166,0,0,1,2.65.457,4.881,4.881,0,0,1,1.9,1.3,5.64,5.64,0,0,1,1.125,2A8.255,8.255,0,0,1,12.3-6.354a8.286,8.286,0,0,1-.382,2.6,5.64,5.64,0,0,1-1.125,2,4.881,4.881,0,0,1-1.9,1.3A7.166,7.166,0,0,1,6.24,0ZM4.28-2.329H6.108A3.12,3.12,0,0,0,8.675-3.362a4.629,4.629,0,0,0,.844-2.993,4.629,4.629,0,0,0-.844-2.993A3.12,3.12,0,0,0,6.108-10.38H4.28Zm18.65-2.32-.026.606h-6.7a2.339,2.339,0,0,0,.721,1.652,2.3,2.3,0,0,0,1.591.571,2.221,2.221,0,0,0,1.191-.312,1.918,1.918,0,0,0,.76-.91l2.32.343A3.945,3.945,0,0,1,21.208-.58a4.7,4.7,0,0,1-2.672.756,4.891,4.891,0,0,1-3.52-1.244,4.538,4.538,0,0,1-1.305-3.45,4.565,4.565,0,0,1,1.31-3.45,4.746,4.746,0,0,1,3.437-1.261A4.536,4.536,0,0,1,21.7-8.077,4.517,4.517,0,0,1,22.931-4.649ZM18.475-7.436a2,2,0,0,0-2.2,1.74h4.148A1.9,1.9,0,0,0,19.8-6.987,1.978,1.978,0,0,0,18.475-7.436ZM30.19-9.211a3.522,3.522,0,0,1,2.5.813,3.014,3.014,0,0,1,.87,2.316V0h-2.54V-5.537a1.574,1.574,0,0,0-.453-1.248,1.705,1.705,0,0,0-1.165-.4,2.379,2.379,0,0,0-.756.114,1.942,1.942,0,0,0-.633.356,1.573,1.573,0,0,0-.453.681,3.15,3.15,0,0,0-.171,1.046V0H24.855V-9.035h2.531v1A3.481,3.481,0,0,1,30.19-9.211ZM40.219.176a5.681,5.681,0,0,1-2.558-.554A4.138,4.138,0,0,1,35.908-2a4.846,4.846,0,0,1-.637-2.522,4.42,4.42,0,0,1,1.371-3.428,5.086,5.086,0,0,1,3.577-1.257A5.1,5.1,0,0,1,43.8-7.954a4.42,4.42,0,0,1,1.371,3.428A4.444,4.444,0,0,1,43.8-1.085,5.088,5.088,0,0,1,40.219.176Zm-.026-2.013a2.319,2.319,0,0,0,1.789-.738,2.764,2.764,0,0,0,.681-1.951,2.764,2.764,0,0,0-.681-1.951,2.319,2.319,0,0,0-1.789-.738,2.234,2.234,0,0,0-1.736.743,2.789,2.789,0,0,0-.672,1.947,2.789,2.789,0,0,0,.672,1.947A2.234,2.234,0,0,0,40.192-1.837ZM57.762-9.211a3.452,3.452,0,0,1,2.329.734,2.626,2.626,0,0,1,.853,2.1V0H58.412V-5.651a1.509,1.509,0,0,0-.4-1.143,1.416,1.416,0,0,0-1.02-.387,1.633,1.633,0,0,0-1.23.492A2.235,2.235,0,0,0,55.283-5.1V0H52.726V-5.625a1.549,1.549,0,0,0-.4-1.165,1.441,1.441,0,0,0-1.046-.391,1.581,1.581,0,0,0-1.222.519,2.476,2.476,0,0,0-.475,1.7V0H47.057V-9.035h2.522v1.063A3.072,3.072,0,0,1,52.2-9.211a3.863,3.863,0,0,1,1.7.347,2.315,2.315,0,0,1,1.068,1.006A3.2,3.2,0,0,1,57.762-9.211ZM64.7-10.389a1.421,1.421,0,0,1-1.037-.426,1.4,1.4,0,0,1-.431-1.033,1.382,1.382,0,0,1,.435-1.024A1.425,1.425,0,0,1,64.7-13.3a1.4,1.4,0,0,1,1.02.426,1.389,1.389,0,0,1,.431,1.024,1.4,1.4,0,0,1-.431,1.033A1.4,1.4,0,0,1,64.7-10.389ZM63.4,0V-9.035h2.549V0Zm10.5-9.211a3.522,3.522,0,0,1,2.5.813,3.014,3.014,0,0,1,.87,2.316V0h-2.54V-5.537a1.574,1.574,0,0,0-.453-1.248,1.705,1.705,0,0,0-1.165-.4,2.379,2.379,0,0,0-.756.114,1.942,1.942,0,0,0-.633.356,1.573,1.573,0,0,0-.453.681A3.15,3.15,0,0,0,71.1-4.983V0H68.572V-9.035H71.1v1A3.481,3.481,0,0,1,73.907-9.211ZM87.135-2.452a8.453,8.453,0,0,0,.22,2.206V0H84.99l-.2-.984a2.938,2.938,0,0,1-1.266.87,4.664,4.664,0,0,1-1.635.29A4.3,4.3,0,0,1,81.044.1a2.868,2.868,0,0,1-.76-.268,2.307,2.307,0,0,1-.628-.47,2.062,2.062,0,0,1-.422-.716,2.853,2.853,0,0,1-.158-.98,2.718,2.718,0,0,1,.167-.98,2.3,2.3,0,0,1,.439-.734,2.666,2.666,0,0,1,.712-.536,5.447,5.447,0,0,1,.9-.387,10.712,10.712,0,0,1,1.072-.281l1.485-.334a1.638,1.638,0,0,0,.672-.286.57.57,0,0,0,.2-.453.932.932,0,0,0-.444-.87A2.073,2.073,0,0,0,83.2-7.462a1.549,1.549,0,0,0-1.767,1.38l-2.241-.4A3.034,3.034,0,0,1,80.5-8.547a5.2,5.2,0,0,1,2.839-.664q3.8,0,3.8,3.261Zm-4.456.914a2.036,2.036,0,0,0,1.564-.655,2.759,2.759,0,0,0,.606-1.938l-2.145.606a2.534,2.534,0,0,0-.9.369.758.758,0,0,0-.312.65.842.842,0,0,0,.334.716A1.382,1.382,0,0,0,82.679-1.538ZM95.8-13.5h2.531V0h-2.4l-.062-1.178A2.58,2.58,0,0,1,94.724-.154a3.861,3.861,0,0,1-1.692.365,4.394,4.394,0,0,1-1.687-.325,4.189,4.189,0,0,1-1.384-.918,4.187,4.187,0,0,1-.936-1.49A5.5,5.5,0,0,1,88.682-4.5a5.137,5.137,0,0,1,.6-2.518,4.1,4.1,0,0,1,1.578-1.639,4.345,4.345,0,0,1,2.175-.554,3.957,3.957,0,0,1,1.639.33,2.559,2.559,0,0,1,1.129.936ZM93.612-1.89a2.253,2.253,0,0,0,1.709-.721A2.638,2.638,0,0,0,96-4.5a2.644,2.644,0,0,0-.686-1.894,2.251,2.251,0,0,0-1.705-.725,2.277,2.277,0,0,0-1.718.712A2.644,2.644,0,0,0,91.213-4.5a2.631,2.631,0,0,0,.681,1.9A2.277,2.277,0,0,0,93.612-1.89ZM105.161.176A5.681,5.681,0,0,1,102.6-.378,4.138,4.138,0,0,1,100.85-2a4.846,4.846,0,0,1-.637-2.522,4.42,4.42,0,0,1,1.371-3.428,5.086,5.086,0,0,1,3.577-1.257,5.1,5.1,0,0,1,3.586,1.257,4.42,4.42,0,0,1,1.371,3.428,4.444,4.444,0,0,1-1.371,3.441A5.088,5.088,0,0,1,105.161.176Zm-.026-2.013a2.319,2.319,0,0,0,1.789-.738,2.764,2.764,0,0,0,.681-1.951,2.764,2.764,0,0,0-.681-1.951,2.319,2.319,0,0,0-1.789-.738,2.234,2.234,0,0,0-1.736.743,2.789,2.789,0,0,0-.672,1.947A2.789,2.789,0,0,0,103.4-2.58,2.234,2.234,0,0,0,105.135-1.837Zm9.29-5.766a2.933,2.933,0,0,1,1.187-1.085,3.62,3.62,0,0,1,1.767-.453v2.259a3.423,3.423,0,0,0-2.162.545,2.379,2.379,0,0,0-.668,1.934V0H112V-9.035h2.426Z" transform="translate(554.746 2723.153)" fill="#00223d"/>
    <path id="Trazado_24016" data-name="Trazado 24016" d="M0,0H30.98V1.766H0Z" transform="translate(503.271 2716.051)" fill="#ff9100"/>
    <g id="Grupo_14232" data-name="Grupo 14232" transform="translate(-320.902 1794.503)">
      <g id="Grupo_14231" data-name="Grupo 14231">
        <path id="Trazado_23529" data-name="Trazado 23529" d="M849.3,929.652l-1.2-1.293,6.377-5.926L848.1,916.5l1.2-1.293,7.765,7.221Z" fill="#ff9100"/>
      </g>
    </g>
  </g>
</svg>
