<svg xmlns="http://www.w3.org/2000/svg" width="168" height="168" viewBox="0 0 168 168">
  <g id="Grupo_14545" data-name="Grupo 14545" transform="translate(-5253 -2332)">
    <rect id="Rectángulo_3791" data-name="Rectángulo 3791" width="168" height="168" transform="translate(5253 2332)" fill="none"/>
    <g id="Grupo_14536" data-name="Grupo 14536" transform="translate(9 365.123)">
      <g id="Grupo_14534" data-name="Grupo 14534" transform="translate(5369.053 1984.877) rotate(90)">
        <path id="Trazado_23542" data-name="Trazado 23542" d="M107.095,0H85.239A24.063,24.063,0,0,0,62.867,15.3H52.455a2.186,2.186,0,0,0-2.186,2.186V43.712A2.186,2.186,0,0,0,52.455,45.9H61.2v6.557H2.186A2.186,2.186,0,0,0,0,54.64V76.5a6.557,6.557,0,1,0,13.114,0V69.939h93.981A24.07,24.07,0,0,0,131.136,45.9V24.042A24.07,24.07,0,0,0,107.095,0ZM54.64,41.526V19.67H61.6c-.075.394-.112.793-.164,1.189-.039.286-.09.569-.117.859-.075.77-.119,1.545-.119,2.323V41.526ZM4.371,56.826H8.742V61.2h4.371V56.826h4.371V61.2h4.371V56.826h4.371V61.2H30.6V56.826H34.97V61.2h4.371V56.826h4.371V61.2h4.371V56.826h4.371V61.2h4.371V56.826H61.2v8.742H4.371ZM8.742,76.5a2.186,2.186,0,1,1-4.371,0V69.939H8.742ZM126.765,45.9a19.692,19.692,0,0,1-19.67,19.67H65.568V24.042a20.057,20.057,0,0,1,.2-2.665c.031-.218.064-.436.1-.638A19.475,19.475,0,0,1,85.239,4.371h21.856a19.692,19.692,0,0,1,19.67,19.67Z" transform="translate(0 0)" fill="#002b45"/>
        <path id="Trazado_23543" data-name="Trazado 23543" d="M24.042,0A24.042,24.042,0,1,0,48.083,24.042,24.042,24.042,0,0,0,24.042,0Zm0,43.712a19.67,19.67,0,1,1,19.67-19.67A19.67,19.67,0,0,1,24.042,43.712Z" transform="translate(72.125 10.928)" fill="#002b45"/>
        <path id="Trazado_23544" data-name="Trazado 23544" d="M0,1.9,2.271,5.639a10.839,10.839,0,0,1,3.46-1.357L4.856,0A15.129,15.129,0,0,0,0,1.9Z" transform="translate(88.231 19.983)" fill="#002b45"/>
        <path id="Trazado_23545" data-name="Trazado 23545" d="M4.317,0A15.316,15.316,0,0,0,1.431,17.122l3.962-1.849A10.928,10.928,0,0,1,7.453,3.045Z" transform="translate(80.867 24.319)" fill="#002b45"/>
      </g>
    </g>
  </g>
</svg>
