<svg xmlns="http://www.w3.org/2000/svg" width="168" height="168" viewBox="0 0 168 168">
  <g id="Grupo_14542" data-name="Grupo 14542" transform="translate(-5862 -2332)">
    <rect id="Rectángulo_3794" data-name="Rectángulo 3794" width="168" height="168" transform="translate(5862 2332)" fill="none"/>
    <g id="Grupo_14539" data-name="Grupo 14539" transform="translate(50 333.066)">
      <g id="Grupo_14339" data-name="Grupo 14339" transform="translate(5848 2026.935)">
        <g id="Grupo_14338" data-name="Grupo 14338">
          <path id="Trazado_23558" data-name="Trazado 23558" d="M114.413,27.006l3.256-3.256,2.49,2.49a1.851,1.851,0,0,0,2.681,0,1.852,1.852,0,0,0,0-2.682L115.179,15.9a1.9,1.9,0,0,0-2.682,2.682l2.49,2.49-3.448,3.448a47.336,47.336,0,0,0-18.77-8.236V11.492h1.915a5.644,5.644,0,0,0,5.746-5.746A5.644,5.644,0,0,0,94.685,0H71.7a5.644,5.644,0,0,0-5.746,5.746A5.644,5.644,0,0,0,71.7,11.492h1.915V16.28a47.333,47.333,0,0,0-18.77,8.236L51.4,21.069l2.49-2.49A1.9,1.9,0,0,0,51.207,15.9l-7.278,7.278a1.852,1.852,0,0,0,0,2.682,1.851,1.851,0,0,0,2.681,0l2.107-2.107,3.256,3.256a47.884,47.884,0,1,0,62.44,0ZM71.7,7.661a1.81,1.81,0,0,1-1.915-1.915A1.81,1.81,0,0,1,71.7,3.83H94.685A1.81,1.81,0,0,1,96.6,5.746a1.81,1.81,0,0,1-1.915,1.915H90.854a1.81,1.81,0,0,0-1.915,1.915v6.129c-1.915-.192-3.831-.383-5.746-.383s-3.831.192-5.746.383V11.492h5.746a1.81,1.81,0,0,0,1.915-1.915,1.81,1.81,0,0,0-1.915-1.915Zm11.492,99.6a44.053,44.053,0,1,1,44.053-44.053A44.059,44.059,0,0,1,83.193,107.259Z" transform="translate(-35.309)" fill="#002b45"/>
          <path id="Trazado_23559" data-name="Trazado 23559" d="M149.15,144.237a1.81,1.81,0,0,0-1.915,1.915,36.391,36.391,0,1,1-36.391-36.392,1.915,1.915,0,1,0,0-3.831,40.222,40.222,0,1,0,40.222,40.222A1.809,1.809,0,0,0,149.15,144.237Z" transform="translate(-62.959 -82.946)" fill="#002b45"/>
          <path id="Trazado_23560" data-name="Trazado 23560" d="M247.172,143.156v7.661a1.915,1.915,0,0,0,3.831,0v-5.746a28.8,28.8,0,0,1,0,57.46v-5.746a1.915,1.915,0,0,0-3.831,0v7.661a1.81,1.81,0,0,0,1.915,1.915,32.561,32.561,0,1,0,0-65.121A1.81,1.81,0,0,0,247.172,143.156Z" transform="translate(-201.204 -110.596)" fill="#002b45"/>
          <circle id="Elipse_864" data-name="Elipse 864" cx="1.915" cy="1.915" r="1.915" transform="translate(24.9 40.222)" fill="#002b45"/>
          <circle id="Elipse_865" data-name="Elipse 865" cx="1.915" cy="1.915" r="1.915" transform="translate(17.238 61.291)" fill="#002b45"/>
          <circle id="Elipse_866" data-name="Elipse 866" cx="1.915" cy="1.915" r="1.915" transform="translate(24.9 82.359)" fill="#002b45"/>
          <path id="Trazado_23561" data-name="Trazado 23561" d="M238.1,212.436a1.852,1.852,0,0,0-2.682,0l-8.619,8.619a10.3,10.3,0,0,0-5.363-1.532,9.577,9.577,0,1,0,9.577,9.577,10.3,10.3,0,0,0-1.532-5.363l8.619-8.619A1.852,1.852,0,0,0,238.1,212.436Zm-16.663,22.409a5.746,5.746,0,0,1,0-11.492,5.3,5.3,0,0,1,2.49.575l-3.831,3.831a1.852,1.852,0,0,0,0,2.682,1.852,1.852,0,0,0,2.681,0l3.831-3.831a5.3,5.3,0,0,1,.575,2.49A5.643,5.643,0,0,1,221.439,234.846Z" transform="translate(-173.555 -165.894)" fill="#002b45"/>
        </g>
      </g>
    </g>
  </g>
</svg>
