<svg xmlns="http://www.w3.org/2000/svg" width="168" height="168" viewBox="0 0 168 168">
  <g id="Grupo_14541" data-name="Grupo 14541" transform="translate(-6065 -2332)">
    <rect id="Rectángulo_3795" data-name="Rectángulo 3795" width="168" height="168" transform="translate(6065 2332)" fill="none"/>
    <g id="Grupo_14540" data-name="Grupo 14540" transform="translate(60 319.56)">
      <path id="Trazado_23562" data-name="Trazado 23562" d="M2.009,103.382h98.864a2.009,2.009,0,0,0,1.421-3.43L3.43,1.089A2.009,2.009,0,0,0,0,2.509v98.863A2.009,2.009,0,0,0,2.009,103.382ZM4.019,7.36,20.182,23.524l-4.264,4.261a2.009,2.009,0,0,0,2.841,2.842l4.264-4.262,8.525,8.526-4.263,4.261a2.01,2.01,0,1,0,2.842,2.842l4.264-4.262,8.524,8.525-4.262,4.263a2.009,2.009,0,0,0,2.842,2.841L45.758,49.1l8.525,8.526-4.262,4.263a2.009,2.009,0,0,0,2.841,2.842l4.263-4.262,8.525,8.524-4.262,4.264A2.01,2.01,0,1,0,64.23,76.1l4.261-4.263,8.525,8.525-4.262,4.264A2.01,2.01,0,0,0,75.6,87.464L79.859,83.2,96.022,99.363h-92Z" transform="translate(6038 2044.94)" fill="#002b45"/>
      <path id="Trazado_23563" data-name="Trazado 23563" d="M89.43,206.078A2.009,2.009,0,0,0,86,207.5V247.89a2.009,2.009,0,0,0,2.009,2.009H128.4a2.009,2.009,0,0,0,1.421-3.43Zm.589,39.8V212.35l33.531,33.531Z" transform="translate(5969.281 1881.142)" fill="#002b45"/>
    </g>
  </g>
</svg>
