<svg xmlns="http://www.w3.org/2000/svg" width="862" height="93" viewBox="0 0 862 93">
  <g id="Grupo_14552" data-name="Grupo 14552" transform="translate(-269 -2121)">
    <path id="Trazado_24104" data-name="Trazado 24104" d="M0,0H862V93H0Z" transform="translate(269 2121)" fill="#d5f4fc"/>
    <path id="Trazado_24105" data-name="Trazado 24105" d="M-370.649,0l3.39-15.856-4.494,1.219.444-2.006,6.678-1.866L-368.541,0Zm15.45-9.179L-348.876,0h-2.653l-5.51-8.29q-.076-.14-.19-.343t-.178-.343h-.051L-359.35,0h-2.184l3.847-18.205h2.209l-1.815,8.557h.051q.14-.152.3-.317t.3-.3l8.366-7.935h2.895Zm29.3-.546a4.22,4.22,0,0,1-.044.5q-.044.336-.114.717t-.14.755q-.07.375-.121.628L-327.853,0h-2.082l1.587-7.617q.051-.216.1-.482t.1-.527q.044-.26.07-.482a3.263,3.263,0,0,0,.025-.349A2.417,2.417,0,0,0-328.488-11a1.62,1.62,0,0,0-1.346-.54,2.506,2.506,0,0,0-1,.222,4.608,4.608,0,0,0-1,.6,7.073,7.073,0,0,0-.939.889,9.047,9.047,0,0,0-.825,1.085,8.452,8.452,0,0,0-.641,1.181,6.19,6.19,0,0,0-.394,1.187L-335.991,0H-338.1l1.612-7.617q.051-.216.1-.482t.1-.527q.044-.26.07-.482a3.263,3.263,0,0,0,.025-.349A2.368,2.368,0,0,0-336.638-11a1.627,1.627,0,0,0-1.333-.54,2.577,2.577,0,0,0-1.016.222,4.553,4.553,0,0,0-1.016.609,6.976,6.976,0,0,0-.946.9,9.468,9.468,0,0,0-.825,1.092,7.988,7.988,0,0,0-.635,1.181,6.463,6.463,0,0,0-.387,1.187L-344.154,0h-2.107l2.006-9.28q.1-.5.2-1.035t.19-1.041q.089-.5.152-.933t.1-.711h2.031q-.063.5-.152,1.035t-.152,1q-.076.533-.165,1.041H-342a10.979,10.979,0,0,1,.99-1.358,7.241,7.241,0,0,1,1.13-1.073,5.232,5.232,0,0,1,1.244-.7,3.654,3.654,0,0,1,1.346-.254,3.65,3.65,0,0,1,1.4.241,2.6,2.6,0,0,1,.971.679,2.968,2.968,0,0,1,.59,1.06,5.3,5.3,0,0,1,.241,1.384,12.282,12.282,0,0,1,1.009-1.327,7.166,7.166,0,0,1,1.155-1.066,5.463,5.463,0,0,1,1.308-.711,4.13,4.13,0,0,1,1.466-.26,3.038,3.038,0,0,1,2.438.946A3.937,3.937,0,0,1-325.9-9.725Zm14.663-4.71a5.331,5.331,0,0,1-.279,1.733,4.218,4.218,0,0,1-.876,1.479,5.271,5.271,0,0,1-1.523,1.136,7.835,7.835,0,0,1-2.209.7v.051a4.237,4.237,0,0,1,1.4.457,3.822,3.822,0,0,1,1.085.863,3.82,3.82,0,0,1,.7,1.193,4.2,4.2,0,0,1,.248,1.46,5.731,5.731,0,0,1-.419,2.184,4.9,4.9,0,0,1-1.276,1.8A6.293,6.293,0,0,1-316.535-.14a9.061,9.061,0,0,1-3.028.457,9.774,9.774,0,0,1-1.371-.1A12.65,12.65,0,0,1-322.2-.019a10.029,10.029,0,0,1-1.085-.33,6.932,6.932,0,0,1-.851-.375l.444-1.98a6.75,6.75,0,0,0,.819.457,7.535,7.535,0,0,0,1.028.4,9.6,9.6,0,0,0,1.155.279,6.8,6.8,0,0,0,1.2.108,6.668,6.668,0,0,0,2.234-.324,4,4,0,0,0,1.447-.851,2.983,2.983,0,0,0,.774-1.206,4.331,4.331,0,0,0,.229-1.39,2.888,2.888,0,0,0-1.117-2.393,5.394,5.394,0,0,0-3.377-.882h-1.384l.394-1.79h1.511a9.162,9.162,0,0,0,2.33-.267,5.17,5.17,0,0,0,1.695-.755,3.217,3.217,0,0,0,1.035-1.187,3.443,3.443,0,0,0,.349-1.562,3,3,0,0,0-.178-1.035,2.225,2.225,0,0,0-.552-.851,2.737,2.737,0,0,0-.939-.578,3.791,3.791,0,0,0-1.352-.216,7.768,7.768,0,0,0-1.238.1,9.132,9.132,0,0,0-1.111.248,8.54,8.54,0,0,0-.965.343,8.623,8.623,0,0,0-.787.381l.432-2.082q.33-.127.736-.26a9.155,9.155,0,0,1,.9-.241q.5-.108,1.092-.178a11.3,11.3,0,0,1,1.308-.07,5.96,5.96,0,0,1,2.184.355,4.347,4.347,0,0,1,1.485.933,3.528,3.528,0,0,1,.851,1.308A4.282,4.282,0,0,1-311.235-14.435Zm11.07,5v-1.7h11.934v1.7Zm0,5.408v-1.7h11.934v1.7ZM-272.616,0l3.39-15.856-4.494,1.219.444-2.006,6.678-1.866L-270.508,0ZM-250.5-13.127q0,.952-.089,1.987t-.279,2.088a21.035,21.035,0,0,1-.489,2.088,16.475,16.475,0,0,1-.717,2,13.516,13.516,0,0,1-.958,1.822,9.616,9.616,0,0,1-1.212,1.555,5.872,5.872,0,0,1-4.393,1.9,4.4,4.4,0,0,1-1.885-.4A4.028,4.028,0,0,1-261.99-1.25a5.586,5.586,0,0,1-.946-1.892,9.021,9.021,0,0,1-.336-2.583,19.4,19.4,0,0,1,.229-2.914,18.043,18.043,0,0,1,.7-2.933,15.875,15.875,0,0,1,1.168-2.7,10.059,10.059,0,0,1,1.65-2.234,6.71,6.71,0,0,1,2.019-1.479,5.853,5.853,0,0,1,2.526-.527,4.756,4.756,0,0,1,1.841.343,3.766,3.766,0,0,1,1.416,1.022,4.679,4.679,0,0,1,.908,1.682A7.758,7.758,0,0,1-250.5-13.127Zm-2.107.178a5.055,5.055,0,0,0-.66-2.787,2.15,2.15,0,0,0-1.917-1.009,3.158,3.158,0,0,0-1.409.324,4.8,4.8,0,0,0-1.295.971,7.332,7.332,0,0,0-.933,1.238,12.66,12.66,0,0,0-.8,1.549,16.334,16.334,0,0,0-.641,1.746q-.279.914-.476,1.828t-.3,1.79a14.267,14.267,0,0,0-.1,1.638,7.511,7.511,0,0,0,.209,1.9,3.975,3.975,0,0,0,.578,1.308,2.3,2.3,0,0,0,.87.755,2.443,2.443,0,0,0,1.073.241,3.181,3.181,0,0,0,1.346-.3,3.984,3.984,0,0,0,1.231-.914,8.185,8.185,0,0,0,1.257-1.873,16.716,16.716,0,0,0,1.022-2.533,21.2,21.2,0,0,0,.692-2.9A17.944,17.944,0,0,0-252.608-12.949Zm9.966-4.47a3.11,3.11,0,0,1-.163,1.011,2.46,2.46,0,0,1-.511.863,3.074,3.074,0,0,1-.889.663,4.57,4.57,0,0,1-1.288.411v.03a2.471,2.471,0,0,1,.815.267,2.23,2.23,0,0,1,.633.5,2.229,2.229,0,0,1,.407.7,2.448,2.448,0,0,1,.144.852,3.343,3.343,0,0,1-.244,1.274,2.858,2.858,0,0,1-.744,1.052,3.67,3.67,0,0,1-1.251.718,5.285,5.285,0,0,1-1.766.267,5.7,5.7,0,0,1-.8-.056,7.38,7.38,0,0,1-.737-.141,5.85,5.85,0,0,1-.633-.193,4.044,4.044,0,0,1-.5-.218l.259-1.155a3.938,3.938,0,0,0,.478.267,4.4,4.4,0,0,0,.6.233,5.6,5.6,0,0,0,.674.163,3.966,3.966,0,0,0,.7.063,3.889,3.889,0,0,0,1.3-.189,2.331,2.331,0,0,0,.844-.5,1.74,1.74,0,0,0,.452-.7,2.527,2.527,0,0,0,.133-.811,1.684,1.684,0,0,0-.652-1.4,3.146,3.146,0,0,0-1.97-.515h-.807l.23-1.044h.881a5.344,5.344,0,0,0,1.359-.156,3.016,3.016,0,0,0,.989-.441,1.876,1.876,0,0,0,.6-.692,2.008,2.008,0,0,0,.2-.911,1.752,1.752,0,0,0-.1-.6,1.3,1.3,0,0,0-.322-.5,1.6,1.6,0,0,0-.548-.337,2.211,2.211,0,0,0-.789-.126,4.531,4.531,0,0,0-.722.056,5.326,5.326,0,0,0-.648.144,4.981,4.981,0,0,0-.563.2,5.033,5.033,0,0,0-.459.222l.252-1.214q.193-.074.43-.152a5.339,5.339,0,0,1,.526-.141q.289-.063.637-.1a6.59,6.59,0,0,1,.763-.041,3.477,3.477,0,0,1,1.274.207,2.536,2.536,0,0,1,.866.544,2.058,2.058,0,0,1,.5.763A2.5,2.5,0,0,1-242.641-17.42Zm15,17.42h-2.184l1.739-8.214h-9.306L-239.1,0h-2.209l3.847-18.205h2.209l-1.714,7.985h9.306l1.714-7.985h2.184Zm24.781-9.725a4.224,4.224,0,0,1-.044.5q-.044.336-.114.717t-.14.755q-.07.375-.121.628L-204.81,0h-2.082l1.587-7.617q.051-.216.1-.482t.1-.527q.044-.26.07-.482a3.267,3.267,0,0,0,.025-.349A2.417,2.417,0,0,0-205.445-11a1.62,1.62,0,0,0-1.346-.54,2.506,2.506,0,0,0-1,.222,4.609,4.609,0,0,0-1,.6,7.073,7.073,0,0,0-.939.889,9.047,9.047,0,0,0-.825,1.085A8.451,8.451,0,0,0-211.2-7.56a6.191,6.191,0,0,0-.394,1.187L-212.948,0h-2.107l1.612-7.617q.051-.216.1-.482t.1-.527q.044-.26.07-.482a3.267,3.267,0,0,0,.025-.349A2.368,2.368,0,0,0-213.6-11a1.627,1.627,0,0,0-1.333-.54,2.577,2.577,0,0,0-1.016.222,4.554,4.554,0,0,0-1.016.609,6.977,6.977,0,0,0-.946.9,9.468,9.468,0,0,0-.825,1.092,7.988,7.988,0,0,0-.635,1.181,6.463,6.463,0,0,0-.387,1.187L-221.111,0h-2.107l2.006-9.28q.1-.5.2-1.035t.19-1.041q.089-.5.152-.933t.1-.711h2.031q-.063.5-.152,1.035t-.152,1q-.076.533-.165,1.041h.051a10.979,10.979,0,0,1,.99-1.358,7.242,7.242,0,0,1,1.13-1.073,5.231,5.231,0,0,1,1.244-.7,3.654,3.654,0,0,1,1.346-.254,3.65,3.65,0,0,1,1.4.241,2.6,2.6,0,0,1,.971.679,2.969,2.969,0,0,1,.59,1.06,5.3,5.3,0,0,1,.241,1.384,12.286,12.286,0,0,1,1.009-1.327,7.166,7.166,0,0,1,1.155-1.066,5.463,5.463,0,0,1,1.308-.711,4.13,4.13,0,0,1,1.466-.26,3.038,3.038,0,0,1,2.438.946A3.937,3.937,0,0,1-202.855-9.725Zm9.1-7.7a3.11,3.11,0,0,1-.163,1.011,2.46,2.46,0,0,1-.511.863,3.074,3.074,0,0,1-.889.663,4.57,4.57,0,0,1-1.288.411v.03a2.471,2.471,0,0,1,.815.267,2.23,2.23,0,0,1,.633.5,2.229,2.229,0,0,1,.407.7,2.448,2.448,0,0,1,.144.852,3.343,3.343,0,0,1-.244,1.274,2.858,2.858,0,0,1-.744,1.052,3.67,3.67,0,0,1-1.251.718,5.285,5.285,0,0,1-1.766.267,5.7,5.7,0,0,1-.8-.056,7.378,7.378,0,0,1-.737-.141,5.85,5.85,0,0,1-.633-.193,4.044,4.044,0,0,1-.5-.218l.259-1.155a3.938,3.938,0,0,0,.478.267,4.4,4.4,0,0,0,.6.233,5.6,5.6,0,0,0,.674.163,3.966,3.966,0,0,0,.7.063,3.889,3.889,0,0,0,1.3-.189,2.331,2.331,0,0,0,.844-.5,1.74,1.74,0,0,0,.452-.7,2.527,2.527,0,0,0,.133-.811,1.684,1.684,0,0,0-.652-1.4,3.146,3.146,0,0,0-1.97-.515h-.807l.23-1.044h.881a5.344,5.344,0,0,0,1.359-.156,3.016,3.016,0,0,0,.989-.441,1.876,1.876,0,0,0,.6-.692,2.008,2.008,0,0,0,.2-.911,1.752,1.752,0,0,0-.1-.6,1.3,1.3,0,0,0-.322-.5,1.6,1.6,0,0,0-.548-.337,2.211,2.211,0,0,0-.789-.126,4.531,4.531,0,0,0-.722.056,5.326,5.326,0,0,0-.648.144,4.981,4.981,0,0,0-.563.2,5.033,5.033,0,0,0-.459.222l.252-1.214q.193-.074.43-.152a5.339,5.339,0,0,1,.526-.141q.289-.063.637-.1a6.591,6.591,0,0,1,.763-.041,3.477,3.477,0,0,1,1.274.207,2.536,2.536,0,0,1,.866.544,2.058,2.058,0,0,1,.5.763A2.5,2.5,0,0,1-193.752-17.42Zm7.812,7.987v-1.7h11.934v1.7Zm0,5.408v-1.7h11.934v1.7ZM-158.392,0-155-15.856l-4.494,1.219.444-2.006,6.678-1.866L-156.284,0Zm22.115-13.127q0,.952-.089,1.987t-.279,2.088a21.035,21.035,0,0,1-.489,2.088,16.475,16.475,0,0,1-.717,2,13.516,13.516,0,0,1-.958,1.822,9.616,9.616,0,0,1-1.212,1.555,5.872,5.872,0,0,1-4.393,1.9,4.4,4.4,0,0,1-1.885-.4,4.028,4.028,0,0,1-1.466-1.168,5.587,5.587,0,0,1-.946-1.892,9.02,9.02,0,0,1-.336-2.583,19.4,19.4,0,0,1,.229-2.914,18.041,18.041,0,0,1,.7-2.933,15.875,15.875,0,0,1,1.168-2.7A10.06,10.06,0,0,1-145.3-16.5a6.71,6.71,0,0,1,2.019-1.479,5.853,5.853,0,0,1,2.526-.527,4.756,4.756,0,0,1,1.841.343,3.766,3.766,0,0,1,1.416,1.022,4.679,4.679,0,0,1,.908,1.682A7.758,7.758,0,0,1-136.276-13.127Zm-2.107.178a5.055,5.055,0,0,0-.66-2.787,2.15,2.15,0,0,0-1.917-1.009,3.158,3.158,0,0,0-1.409.324,4.8,4.8,0,0,0-1.295.971,7.332,7.332,0,0,0-.933,1.238,12.66,12.66,0,0,0-.8,1.549,16.338,16.338,0,0,0-.641,1.746q-.279.914-.476,1.828t-.3,1.79a14.27,14.27,0,0,0-.1,1.638,7.511,7.511,0,0,0,.209,1.9,3.975,3.975,0,0,0,.578,1.308,2.3,2.3,0,0,0,.87.755,2.443,2.443,0,0,0,1.073.241,3.181,3.181,0,0,0,1.346-.3,3.983,3.983,0,0,0,1.231-.914,8.185,8.185,0,0,0,1.257-1.873,16.716,16.716,0,0,0,1.022-2.533,21.2,21.2,0,0,0,.692-2.9A17.944,17.944,0,0,0-138.384-12.949Zm10.189-5.4a3.3,3.3,0,0,0-.748-.3,3.509,3.509,0,0,0-.948-.122,3.061,3.061,0,0,0-1.14.215,3.547,3.547,0,0,0-1,.607,4.11,4.11,0,0,0-.7.744,6.684,6.684,0,0,0-.574.937,8.023,8.023,0,0,0-.441,1.048,8.215,8.215,0,0,0-.289,1.077h.03a3.119,3.119,0,0,1,.467-.592,3.2,3.2,0,0,1,.611-.478,3.052,3.052,0,0,1,.733-.318,2.952,2.952,0,0,1,.826-.115,2.979,2.979,0,0,1,1.155.207,2.238,2.238,0,0,1,.829.585,2.52,2.52,0,0,1,.5.9,3.783,3.783,0,0,1,.17,1.17,4.627,4.627,0,0,1-.233,1.451,3.932,3.932,0,0,1-.689,1.27,3.457,3.457,0,0,1-1.122.9,3.305,3.305,0,0,1-1.525.341,3.265,3.265,0,0,1-1.244-.23,2.521,2.521,0,0,1-.966-.7,3.266,3.266,0,0,1-.626-1.17,5.5,5.5,0,0,1-.222-1.651,9.473,9.473,0,0,1,.181-1.862,8.95,8.95,0,0,1,.518-1.711,7.578,7.578,0,0,1,.815-1.474,5.551,5.551,0,0,1,1.077-1.144,4.7,4.7,0,0,1,1.448-.789,4.922,4.922,0,0,1,1.551-.255,5.052,5.052,0,0,1,1.048.1,5.3,5.3,0,0,1,.744.2Zm-1.755,5.672a2.588,2.588,0,0,0-.107-.759,1.679,1.679,0,0,0-.33-.611,1.52,1.52,0,0,0-.57-.407,2.11,2.11,0,0,0-.829-.148,2.208,2.208,0,0,0-1,.215,2.2,2.2,0,0,0-.718.563,2.449,2.449,0,0,0-.437.785,2.729,2.729,0,0,0-.148.881,3.177,3.177,0,0,0,.133.952,2.153,2.153,0,0,0,.378.726,1.658,1.658,0,0,0,.6.463,1.855,1.855,0,0,0,.789.163,1.874,1.874,0,0,0,.952-.241,2.242,2.242,0,0,0,.7-.633,2.955,2.955,0,0,0,.437-.9A3.647,3.647,0,0,0-129.95-12.673Zm19.711,1.831a13.32,13.32,0,0,1-.273,2.679,11.313,11.313,0,0,1-.838,2.539A9.692,9.692,0,0,1-112.8-3.39a8.987,8.987,0,0,1-2.12,1.784,10.6,10.6,0,0,1-2.825,1.181A13.865,13.865,0,0,1-121.322,0h-5.764l3.872-18.205h5.065a9.916,9.916,0,0,1,3.237.5,6.978,6.978,0,0,1,2.495,1.454,6.528,6.528,0,0,1,1.606,2.317A7.94,7.94,0,0,1-110.239-10.842Zm-2.234.152a5.372,5.372,0,0,0-1.562-4.126,6.559,6.559,0,0,0-4.634-1.46h-2.78L-124.521-1.93h3.39a9.591,9.591,0,0,0,3.764-.686,7.6,7.6,0,0,0,2.7-1.879,7.969,7.969,0,0,0,1.638-2.787A10.337,10.337,0,0,0-112.473-10.689Zm23.943.965a4.222,4.222,0,0,1-.044.5q-.044.336-.114.717t-.14.755q-.07.375-.121.628L-90.485,0h-2.082l1.587-7.617q.051-.216.1-.482t.1-.527q.044-.26.07-.482a3.265,3.265,0,0,0,.025-.349A2.417,2.417,0,0,0-91.12-11a1.62,1.62,0,0,0-1.346-.54,2.506,2.506,0,0,0-1,.222,4.609,4.609,0,0,0-1,.6,7.073,7.073,0,0,0-.939.889,9.047,9.047,0,0,0-.825,1.085,8.451,8.451,0,0,0-.641,1.181,6.19,6.19,0,0,0-.394,1.187L-98.623,0h-2.107l1.612-7.617q.051-.216.1-.482t.1-.527q.044-.26.07-.482a3.265,3.265,0,0,0,.025-.349A2.368,2.368,0,0,0-99.27-11a1.627,1.627,0,0,0-1.333-.54,2.577,2.577,0,0,0-1.016.222,4.554,4.554,0,0,0-1.016.609,6.976,6.976,0,0,0-.946.9,9.468,9.468,0,0,0-.825,1.092,7.988,7.988,0,0,0-.635,1.181,6.463,6.463,0,0,0-.387,1.187L-106.786,0h-2.107l2.006-9.28q.1-.5.2-1.035t.19-1.041q.089-.5.152-.933t.1-.711h2.031q-.063.5-.152,1.035t-.152,1q-.076.533-.165,1.041h.051a10.979,10.979,0,0,1,.99-1.358,7.242,7.242,0,0,1,1.13-1.073,5.231,5.231,0,0,1,1.244-.7,3.654,3.654,0,0,1,1.346-.254,3.65,3.65,0,0,1,1.4.241,2.6,2.6,0,0,1,.971.679,2.969,2.969,0,0,1,.59,1.06,5.3,5.3,0,0,1,.241,1.384,12.284,12.284,0,0,1,1.009-1.327,7.166,7.166,0,0,1,1.155-1.066,5.463,5.463,0,0,1,1.308-.711,4.13,4.13,0,0,1,1.466-.26,3.038,3.038,0,0,1,2.438.946A3.937,3.937,0,0,1-88.53-9.725Zm9.1-7.7a3.11,3.11,0,0,1-.163,1.011,2.46,2.46,0,0,1-.511.863,3.074,3.074,0,0,1-.889.663,4.57,4.57,0,0,1-1.288.411v.03a2.471,2.471,0,0,1,.815.267,2.229,2.229,0,0,1,.633.5,2.228,2.228,0,0,1,.407.7,2.448,2.448,0,0,1,.144.852,3.343,3.343,0,0,1-.244,1.274A2.858,2.858,0,0,1-81.267-9.8a3.67,3.67,0,0,1-1.251.718,5.286,5.286,0,0,1-1.766.267,5.7,5.7,0,0,1-.8-.056,7.379,7.379,0,0,1-.737-.141,5.85,5.85,0,0,1-.633-.193,4.045,4.045,0,0,1-.5-.218l.259-1.155a3.937,3.937,0,0,0,.478.267,4.395,4.395,0,0,0,.6.233,5.6,5.6,0,0,0,.674.163,3.966,3.966,0,0,0,.7.063,3.889,3.889,0,0,0,1.3-.189,2.331,2.331,0,0,0,.844-.5,1.74,1.74,0,0,0,.452-.7,2.527,2.527,0,0,0,.133-.811,1.684,1.684,0,0,0-.652-1.4,3.146,3.146,0,0,0-1.97-.515h-.807l.23-1.044h.881a5.344,5.344,0,0,0,1.359-.156,3.015,3.015,0,0,0,.989-.441,1.876,1.876,0,0,0,.6-.692,2.008,2.008,0,0,0,.2-.911,1.752,1.752,0,0,0-.1-.6,1.3,1.3,0,0,0-.322-.5,1.6,1.6,0,0,0-.548-.337,2.211,2.211,0,0,0-.789-.126,4.531,4.531,0,0,0-.722.056,5.326,5.326,0,0,0-.648.144,4.981,4.981,0,0,0-.563.2,5.03,5.03,0,0,0-.459.222l.252-1.214q.193-.074.429-.152a5.341,5.341,0,0,1,.526-.141q.289-.063.637-.1a6.59,6.59,0,0,1,.763-.041,3.477,3.477,0,0,1,1.274.207,2.536,2.536,0,0,1,.866.544,2.058,2.058,0,0,1,.5.763A2.5,2.5,0,0,1-79.427-17.42Zm7.812,7.987v-1.7h11.934v1.7Zm0,5.408v-1.7h11.934v1.7ZM-44.066,0l3.39-15.856-4.494,1.219.444-2.006,6.678-1.866L-41.959,0Zm22.115-13.127q0,.952-.089,1.987t-.279,2.088a21.036,21.036,0,0,1-.489,2.088,16.474,16.474,0,0,1-.717,2,13.516,13.516,0,0,1-.958,1.822A9.616,9.616,0,0,1-25.7-1.587a5.872,5.872,0,0,1-4.393,1.9,4.4,4.4,0,0,1-1.885-.4A4.028,4.028,0,0,1-33.44-1.25a5.587,5.587,0,0,1-.946-1.892,9.02,9.02,0,0,1-.336-2.583,19.4,19.4,0,0,1,.229-2.914,18.042,18.042,0,0,1,.7-2.933,15.875,15.875,0,0,1,1.168-2.7,10.06,10.06,0,0,1,1.65-2.234,6.71,6.71,0,0,1,2.019-1.479,5.853,5.853,0,0,1,2.526-.527,4.756,4.756,0,0,1,1.841.343,3.766,3.766,0,0,1,1.416,1.022,4.679,4.679,0,0,1,.908,1.682A7.759,7.759,0,0,1-21.951-13.127Zm-2.107.178a5.055,5.055,0,0,0-.66-2.787,2.15,2.15,0,0,0-1.917-1.009,3.158,3.158,0,0,0-1.409.324,4.8,4.8,0,0,0-1.295.971,7.332,7.332,0,0,0-.933,1.238,12.66,12.66,0,0,0-.8,1.549,16.336,16.336,0,0,0-.641,1.746q-.279.914-.476,1.828t-.3,1.79a14.269,14.269,0,0,0-.1,1.638,7.511,7.511,0,0,0,.209,1.9A3.975,3.975,0,0,0-31.8-2.457a2.3,2.3,0,0,0,.87.755,2.443,2.443,0,0,0,1.073.241,3.181,3.181,0,0,0,1.346-.3,3.983,3.983,0,0,0,1.231-.914,8.184,8.184,0,0,0,1.257-1.873A16.717,16.717,0,0,0-25-7.084a21.2,21.2,0,0,0,.692-2.9A17.944,17.944,0,0,0-24.059-12.949Zm10.115-3.167a10.063,10.063,0,0,1-.163,1.781,9.087,9.087,0,0,1-.5,1.748,7.853,7.853,0,0,1-.833,1.566A5.337,5.337,0,0,1-16.61-9.785a4.639,4.639,0,0,1-1.407.737,5.2,5.2,0,0,1-1.57.233,5.544,5.544,0,0,1-1.04-.089,2.6,2.6,0,0,1-.7-.215l.163-1.155a3.784,3.784,0,0,0,.67.285,3.063,3.063,0,0,0,.966.137,3.582,3.582,0,0,0,1.2-.2,3.472,3.472,0,0,0,1.029-.566,4.027,4.027,0,0,0,.689-.674,5.779,5.779,0,0,0,.581-.874,7.21,7.21,0,0,0,.463-1.044,8.013,8.013,0,0,0,.318-1.185h-.03a3.62,3.62,0,0,1-.481.615,3.093,3.093,0,0,1-.6.481,2.906,2.906,0,0,1-.7.311,2.794,2.794,0,0,1-.792.111,2.759,2.759,0,0,1-1.307-.281,2.505,2.505,0,0,1-.852-.715,2.81,2.81,0,0,1-.463-.959,3.9,3.9,0,0,1-.141-1.007,4.619,4.619,0,0,1,.093-.907,4.276,4.276,0,0,1,.289-.9,4.152,4.152,0,0,1,.492-.829,3.333,3.333,0,0,1,.7-.681,3.318,3.318,0,0,1,.926-.463,3.722,3.722,0,0,1,1.159-.17,2.987,2.987,0,0,1,1.329.278,2.585,2.585,0,0,1,.94.774,3.435,3.435,0,0,1,.559,1.166A5.479,5.479,0,0,1-13.944-16.116Zm-1.244-.318a3.214,3.214,0,0,0-.133-.955,2.191,2.191,0,0,0-.378-.733,1.747,1.747,0,0,0-.585-.474,1.665,1.665,0,0,0-.755-.17,2.026,2.026,0,0,0-.989.237,2.325,2.325,0,0,0-.733.626,2.791,2.791,0,0,0-.455.9,3.555,3.555,0,0,0-.156,1.048,2.89,2.89,0,0,0,.1.737,1.892,1.892,0,0,0,.311.655,1.632,1.632,0,0,0,.559.47,1.785,1.785,0,0,0,.84.181,2.344,2.344,0,0,0,1.074-.23,2.188,2.188,0,0,0,.741-.6,2.474,2.474,0,0,0,.426-.815A2.992,2.992,0,0,0-15.188-16.435ZM7.286-9.725a4.224,4.224,0,0,1-.044.5q-.044.336-.114.717t-.14.755q-.07.375-.121.628L5.331,0H3.249L4.836-7.617q.051-.216.1-.482t.1-.527q.044-.26.07-.482a3.266,3.266,0,0,0,.025-.349A2.417,2.417,0,0,0,4.7-11a1.62,1.62,0,0,0-1.346-.54,2.506,2.506,0,0,0-1,.222,4.609,4.609,0,0,0-1,.6,7.073,7.073,0,0,0-.939.889A9.047,9.047,0,0,0-.414-8.741,8.451,8.451,0,0,0-1.055-7.56a6.19,6.19,0,0,0-.394,1.187L-2.807,0H-4.914L-3.3-7.617q.051-.216.1-.482t.1-.527q.044-.26.07-.482a3.265,3.265,0,0,0,.025-.349A2.368,2.368,0,0,0-3.454-11a1.627,1.627,0,0,0-1.333-.54,2.577,2.577,0,0,0-1.016.222,4.554,4.554,0,0,0-1.016.609,6.976,6.976,0,0,0-.946.9A9.468,9.468,0,0,0-8.59-8.715a7.988,7.988,0,0,0-.635,1.181,6.463,6.463,0,0,0-.387,1.187L-10.97,0h-2.107l2.006-9.28q.1-.5.2-1.035t.19-1.041q.089-.5.152-.933t.1-.711h2.031q-.063.5-.152,1.035t-.152,1q-.076.533-.165,1.041h.051a10.979,10.979,0,0,1,.99-1.358,7.242,7.242,0,0,1,1.13-1.073,5.231,5.231,0,0,1,1.244-.7A3.654,3.654,0,0,1-4.1-13.317a3.65,3.65,0,0,1,1.4.241,2.6,2.6,0,0,1,.971.679,2.969,2.969,0,0,1,.59,1.06A5.3,5.3,0,0,1-.9-9.953,12.284,12.284,0,0,1,.107-11.28a7.166,7.166,0,0,1,1.155-1.066,5.463,5.463,0,0,1,1.308-.711,4.13,4.13,0,0,1,1.466-.26,3.038,3.038,0,0,1,2.438.946A3.937,3.937,0,0,1,7.286-9.725Zm9.1-7.7a3.11,3.11,0,0,1-.163,1.011,2.46,2.46,0,0,1-.511.863,3.074,3.074,0,0,1-.889.663,4.57,4.57,0,0,1-1.289.411v.03a2.471,2.471,0,0,1,.815.267,2.229,2.229,0,0,1,.633.5,2.228,2.228,0,0,1,.407.7,2.448,2.448,0,0,1,.144.852,3.343,3.343,0,0,1-.244,1.274A2.858,2.858,0,0,1,14.549-9.8a3.67,3.67,0,0,1-1.251.718,5.286,5.286,0,0,1-1.766.267,5.7,5.7,0,0,1-.8-.056,7.379,7.379,0,0,1-.737-.141A5.85,5.85,0,0,1,9.361-9.2a4.044,4.044,0,0,1-.5-.218l.259-1.155a3.937,3.937,0,0,0,.478.267,4.395,4.395,0,0,0,.6.233,5.6,5.6,0,0,0,.674.163,3.966,3.966,0,0,0,.7.063,3.889,3.889,0,0,0,1.3-.189,2.331,2.331,0,0,0,.844-.5,1.74,1.74,0,0,0,.452-.7,2.527,2.527,0,0,0,.133-.811,1.684,1.684,0,0,0-.652-1.4,3.146,3.146,0,0,0-1.97-.515h-.807l.23-1.044h.881a5.344,5.344,0,0,0,1.359-.156,3.015,3.015,0,0,0,.989-.441,1.876,1.876,0,0,0,.6-.692,2.008,2.008,0,0,0,.2-.911,1.752,1.752,0,0,0-.1-.6,1.3,1.3,0,0,0-.322-.5,1.6,1.6,0,0,0-.548-.337,2.211,2.211,0,0,0-.789-.126,4.531,4.531,0,0,0-.722.056,5.326,5.326,0,0,0-.648.144,4.981,4.981,0,0,0-.563.2,5.03,5.03,0,0,0-.459.222l.252-1.214q.193-.074.429-.152a5.34,5.34,0,0,1,.526-.141q.289-.063.637-.1A6.59,6.59,0,0,1,13.6-19.8a3.477,3.477,0,0,1,1.274.207,2.536,2.536,0,0,1,.866.544,2.058,2.058,0,0,1,.5.763A2.5,2.5,0,0,1,16.389-17.42ZM24.2-9.433v-1.7H36.134v1.7Zm0,5.408v-1.7H36.134v1.7ZM51.749,0l3.39-15.856-4.494,1.219.444-2.006,6.678-1.866L53.857,0ZM73.865-13.127q0,.952-.089,1.987T73.5-9.052a21.037,21.037,0,0,1-.489,2.088,16.473,16.473,0,0,1-.717,2,13.515,13.515,0,0,1-.958,1.822,9.616,9.616,0,0,1-1.212,1.555,5.872,5.872,0,0,1-4.393,1.9,4.4,4.4,0,0,1-1.885-.4A4.028,4.028,0,0,1,62.375-1.25a5.587,5.587,0,0,1-.946-1.892,9.02,9.02,0,0,1-.336-2.583,19.4,19.4,0,0,1,.229-2.914,18.042,18.042,0,0,1,.7-2.933,15.875,15.875,0,0,1,1.168-2.7,10.06,10.06,0,0,1,1.65-2.234,6.71,6.71,0,0,1,2.019-1.479,5.853,5.853,0,0,1,2.526-.527,4.756,4.756,0,0,1,1.841.343,3.766,3.766,0,0,1,1.416,1.022,4.679,4.679,0,0,1,.908,1.682A7.759,7.759,0,0,1,73.865-13.127Zm-2.107.178a5.055,5.055,0,0,0-.66-2.787,2.15,2.15,0,0,0-1.917-1.009,3.158,3.158,0,0,0-1.409.324,4.8,4.8,0,0,0-1.295.971,7.332,7.332,0,0,0-.933,1.238,12.66,12.66,0,0,0-.8,1.549,16.336,16.336,0,0,0-.641,1.746q-.279.914-.476,1.828t-.3,1.79a14.269,14.269,0,0,0-.1,1.638,7.511,7.511,0,0,0,.209,1.9,3.975,3.975,0,0,0,.578,1.308,2.3,2.3,0,0,0,.87.755,2.443,2.443,0,0,0,1.073.241,3.181,3.181,0,0,0,1.346-.3,3.983,3.983,0,0,0,1.231-.914,8.184,8.184,0,0,0,1.257-1.873,16.717,16.717,0,0,0,1.022-2.533,21.2,21.2,0,0,0,.692-2.9A17.944,17.944,0,0,0,71.757-12.949ZM77.347-9l1.977-9.249-2.621.711.259-1.17,3.9-1.089L78.576-9Zm11.471-8.264a1.438,1.438,0,0,0-.426-1.107,1.667,1.667,0,0,0-1.181-.4,3.718,3.718,0,0,0-1.444.3,4.663,4.663,0,0,0-1.355.881l.3-1.363A3.934,3.934,0,0,1,86-19.612a5.508,5.508,0,0,1,1.507-.185,2.737,2.737,0,0,1,1.888.626,2.142,2.142,0,0,1,.7,1.685,3.847,3.847,0,0,1-.307,1.588,4.223,4.223,0,0,1-.981,1.322,13.075,13.075,0,0,1-1.97,1.451q-1.177.733-1.788,1.207a4.77,4.77,0,0,0-.907.874,2.519,2.519,0,0,0-.422.955h5.243L88.736-9H82.183l.111-.526a5.12,5.12,0,0,1,.574-1.54,5.28,5.28,0,0,1,1.07-1.251,18.252,18.252,0,0,1,2.125-1.525A12.617,12.617,0,0,0,87.7-15.028a3.837,3.837,0,0,0,.855-1.029A2.548,2.548,0,0,0,88.818-17.264ZM101.73-4q-.089.406-.171.978t-.146,1.149q-.063.578-.108,1.085T101.26,0H99.1q0-.216.032-.578t.076-.755q.044-.394.1-.755t.089-.59h-.051a12.822,12.822,0,0,1-.914,1.3,5.291,5.291,0,0,1-.965.939,3.877,3.877,0,0,1-1.079.565,3.955,3.955,0,0,1-1.257.19A3.883,3.883,0,0,1,93.529,0a3.259,3.259,0,0,1-1.212-.933,4.3,4.3,0,0,1-.768-1.523,7.426,7.426,0,0,1-.267-2.088,10.277,10.277,0,0,1,.2-1.955,10.012,10.012,0,0,1,.609-1.993,9.341,9.341,0,0,1,1.047-1.854,7.219,7.219,0,0,1,1.511-1.536,7.164,7.164,0,0,1,2.006-1.047,7.76,7.76,0,0,1,2.526-.387,8.569,8.569,0,0,1,1.32.1q.609.1,1.054.2l1.32-6.221h2.057Zm-.546-7.236a8.178,8.178,0,0,0-1.009-.222,7.265,7.265,0,0,0-1.124-.083A5.151,5.151,0,0,0,97.1-11.2a4.914,4.914,0,0,0-1.473.914,5.471,5.471,0,0,0-1.054,1.3,8.2,8.2,0,0,0-.686,1.5,8.528,8.528,0,0,0-.368,1.511,9.4,9.4,0,0,0-.108,1.339,6.417,6.417,0,0,0,.121,1.295,2.891,2.891,0,0,0,.394,1,1.88,1.88,0,0,0,.7.647,2.2,2.2,0,0,0,1.041.229,2.7,2.7,0,0,0,1.187-.267A4.088,4.088,0,0,0,97.9-2.45,5.974,5.974,0,0,0,98.772-3.5a10.222,10.222,0,0,0,.711-1.27,11.282,11.282,0,0,0,.54-1.365q.222-.692.362-1.327Zm24.185,1.511a4.222,4.222,0,0,1-.044.5q-.044.336-.114.717t-.14.755q-.07.375-.121.628L123.413,0h-2.082l1.587-7.617q.051-.216.1-.482t.1-.527q.044-.26.07-.482a3.265,3.265,0,0,0,.025-.349A2.417,2.417,0,0,0,122.779-11a1.62,1.62,0,0,0-1.346-.54,2.506,2.506,0,0,0-1,.222,4.609,4.609,0,0,0-1,.6,7.073,7.073,0,0,0-.939.889,9.047,9.047,0,0,0-.825,1.085,8.451,8.451,0,0,0-.641,1.181,6.19,6.19,0,0,0-.394,1.187L115.276,0h-2.107l1.612-7.617q.051-.216.1-.482t.1-.527q.044-.26.07-.482a3.265,3.265,0,0,0,.025-.349A2.368,2.368,0,0,0,114.628-11a1.627,1.627,0,0,0-1.333-.54,2.577,2.577,0,0,0-1.016.222,4.554,4.554,0,0,0-1.016.609,6.976,6.976,0,0,0-.946.9,9.468,9.468,0,0,0-.825,1.092,7.988,7.988,0,0,0-.635,1.181,6.463,6.463,0,0,0-.387,1.187L107.113,0h-2.107l2.006-9.28q.1-.5.2-1.035t.19-1.041q.089-.5.152-.933t.1-.711h2.031q-.063.5-.152,1.035t-.152,1q-.076.533-.165,1.041h.051a10.979,10.979,0,0,1,.99-1.358,7.242,7.242,0,0,1,1.13-1.073,5.231,5.231,0,0,1,1.244-.7,3.654,3.654,0,0,1,1.346-.254,3.65,3.65,0,0,1,1.4.241,2.6,2.6,0,0,1,.971.679,2.969,2.969,0,0,1,.59,1.06,5.3,5.3,0,0,1,.241,1.384,12.284,12.284,0,0,1,1.009-1.327,7.166,7.166,0,0,1,1.155-1.066,5.463,5.463,0,0,1,1.308-.711,4.13,4.13,0,0,1,1.466-.26,3.038,3.038,0,0,1,2.438.946A3.937,3.937,0,0,1,125.368-9.725Zm9.1-7.7a3.11,3.11,0,0,1-.163,1.011,2.46,2.46,0,0,1-.511.863,3.074,3.074,0,0,1-.889.663,4.57,4.57,0,0,1-1.288.411v.03a2.471,2.471,0,0,1,.815.267,2.23,2.23,0,0,1,.633.5,2.229,2.229,0,0,1,.407.7,2.448,2.448,0,0,1,.144.852,3.343,3.343,0,0,1-.244,1.274,2.858,2.858,0,0,1-.744,1.052,3.67,3.67,0,0,1-1.251.718,5.285,5.285,0,0,1-1.766.267,5.7,5.7,0,0,1-.8-.056,7.38,7.38,0,0,1-.737-.141,5.85,5.85,0,0,1-.633-.193,4.045,4.045,0,0,1-.5-.218l.259-1.155a3.937,3.937,0,0,0,.478.267,4.395,4.395,0,0,0,.6.233,5.6,5.6,0,0,0,.674.163,3.966,3.966,0,0,0,.7.063,3.889,3.889,0,0,0,1.3-.189,2.331,2.331,0,0,0,.844-.5,1.74,1.74,0,0,0,.452-.7,2.527,2.527,0,0,0,.133-.811,1.684,1.684,0,0,0-.652-1.4,3.146,3.146,0,0,0-1.97-.515h-.807l.23-1.044h.881a5.344,5.344,0,0,0,1.359-.156,3.016,3.016,0,0,0,.989-.441,1.876,1.876,0,0,0,.6-.692,2.008,2.008,0,0,0,.2-.911,1.752,1.752,0,0,0-.1-.6,1.3,1.3,0,0,0-.322-.5,1.6,1.6,0,0,0-.548-.337,2.211,2.211,0,0,0-.789-.126,4.531,4.531,0,0,0-.722.056,5.326,5.326,0,0,0-.648.144,4.981,4.981,0,0,0-.563.2,5.033,5.033,0,0,0-.459.222l.252-1.214q.193-.074.43-.152a5.339,5.339,0,0,1,.526-.141q.289-.063.637-.1a6.59,6.59,0,0,1,.763-.041,3.477,3.477,0,0,1,1.274.207,2.536,2.536,0,0,1,.866.544,2.058,2.058,0,0,1,.5.763A2.5,2.5,0,0,1,134.472-17.42Zm7.812,7.987v-1.7h11.934v1.7Zm0,5.408v-1.7h11.934v1.7ZM169.832,0l3.39-15.856-4.494,1.219.444-2.006,6.678-1.866L171.94,0Zm22.115-13.127q0,.952-.089,1.987t-.279,2.088a21.035,21.035,0,0,1-.489,2.088,16.475,16.475,0,0,1-.717,2,13.516,13.516,0,0,1-.958,1.822A9.616,9.616,0,0,1,188.2-1.587a5.872,5.872,0,0,1-4.393,1.9,4.4,4.4,0,0,1-1.885-.4,4.028,4.028,0,0,1-1.466-1.168,5.587,5.587,0,0,1-.946-1.892,9.02,9.02,0,0,1-.336-2.583,19.4,19.4,0,0,1,.229-2.914,18.041,18.041,0,0,1,.7-2.933,15.875,15.875,0,0,1,1.168-2.7,10.06,10.06,0,0,1,1.65-2.234,6.71,6.71,0,0,1,2.019-1.479,5.853,5.853,0,0,1,2.526-.527,4.756,4.756,0,0,1,1.841.343,3.766,3.766,0,0,1,1.416,1.022,4.679,4.679,0,0,1,.908,1.682A7.758,7.758,0,0,1,191.947-13.127Zm-2.107.178a5.055,5.055,0,0,0-.66-2.787,2.15,2.15,0,0,0-1.917-1.009,3.158,3.158,0,0,0-1.409.324,4.8,4.8,0,0,0-1.295.971,7.332,7.332,0,0,0-.933,1.238,12.66,12.66,0,0,0-.8,1.549,16.338,16.338,0,0,0-.641,1.746q-.279.914-.476,1.828t-.3,1.79a14.27,14.27,0,0,0-.1,1.638,7.511,7.511,0,0,0,.209,1.9,3.975,3.975,0,0,0,.578,1.308,2.3,2.3,0,0,0,.87.755,2.443,2.443,0,0,0,1.073.241,3.181,3.181,0,0,0,1.346-.3,3.983,3.983,0,0,0,1.231-.914,8.185,8.185,0,0,0,1.257-1.873,16.716,16.716,0,0,0,1.022-2.533,21.2,21.2,0,0,0,.692-2.9A17.944,17.944,0,0,0,189.84-12.949ZM195.43-9l1.977-9.249-2.621.711.259-1.17,3.9-1.089L196.659-9ZM208-18.508h-3.991l-.652,3.1.785-.03a3.382,3.382,0,0,1,2.31.729,2.592,2.592,0,0,1,.829,2.055,3.861,3.861,0,0,1-.541,2.022,3.44,3.44,0,0,1-1.5,1.363,5.116,5.116,0,0,1-2.233.459,7.941,7.941,0,0,1-1.314-.111,4.109,4.109,0,0,1-1.04-.289l.274-1.192a3.24,3.24,0,0,0,.977.4,4.794,4.794,0,0,0,1.192.156,3.417,3.417,0,0,0,1.585-.337,2.447,2.447,0,0,0,1-.926,2.541,2.541,0,0,0,.352-1.329,1.874,1.874,0,0,0-.533-1.448,2.446,2.446,0,0,0-1.7-.492q-1.029,0-1.844.074l1.118-5.31h5.139Zm11.346,8.085a4.778,4.778,0,0,0-1.289-.793,4.2,4.2,0,0,0-1.669-.324,3.944,3.944,0,0,0-1.581.3,4.362,4.362,0,0,0-1.25.813,5.271,5.271,0,0,0-.939,1.168,7.787,7.787,0,0,0-.647,1.371,8.439,8.439,0,0,0-.375,1.416,7.816,7.816,0,0,0-.121,1.314,4.147,4.147,0,0,0,.8,2.755,2.717,2.717,0,0,0,2.184.939,4.806,4.806,0,0,0,1.739-.349,8.371,8.371,0,0,0,1.7-.9l-.444,2.082a8.909,8.909,0,0,1-1.644.692,5.957,5.957,0,0,1-1.733.248A4.923,4.923,0,0,1,212-.089a4.067,4.067,0,0,1-1.466-1.117,4.787,4.787,0,0,1-.876-1.682,7.267,7.267,0,0,1-.292-2.1,10.263,10.263,0,0,1,.216-2.1,9.049,9.049,0,0,1,.641-1.955,8.479,8.479,0,0,1,1.047-1.708A6.754,6.754,0,0,1,212.7-12.1a6.779,6.779,0,0,1,1.8-.889,6.867,6.867,0,0,1,2.146-.324,6.844,6.844,0,0,1,1.041.076,6.178,6.178,0,0,1,.9.2,6.074,6.074,0,0,1,.724.273,2.972,2.972,0,0,1,.508.286Zm21.354.7a4.224,4.224,0,0,1-.044.5q-.044.336-.114.717t-.14.755q-.07.375-.121.628L238.741,0h-2.082l1.587-7.617q.051-.216.1-.482t.1-.527q.044-.26.07-.482a3.267,3.267,0,0,0,.025-.349A2.417,2.417,0,0,0,238.107-11a1.62,1.62,0,0,0-1.346-.54,2.506,2.506,0,0,0-1,.222,4.609,4.609,0,0,0-1,.6,7.073,7.073,0,0,0-.939.889A9.047,9.047,0,0,0,233-8.741a8.451,8.451,0,0,0-.641,1.181,6.191,6.191,0,0,0-.394,1.187L230.6,0H228.5l1.612-7.617q.051-.216.1-.482t.1-.527q.044-.26.07-.482a3.267,3.267,0,0,0,.025-.349A2.368,2.368,0,0,0,229.956-11a1.627,1.627,0,0,0-1.333-.54,2.577,2.577,0,0,0-1.016.222,4.554,4.554,0,0,0-1.016.609,6.977,6.977,0,0,0-.946.9,9.468,9.468,0,0,0-.825,1.092,7.988,7.988,0,0,0-.635,1.181,6.463,6.463,0,0,0-.387,1.187L222.441,0h-2.107l2.006-9.28q.1-.5.2-1.035t.19-1.041q.089-.5.152-.933t.1-.711h2.031q-.063.5-.152,1.035t-.152,1q-.076.533-.165,1.041h.051a10.979,10.979,0,0,1,.99-1.358,7.242,7.242,0,0,1,1.13-1.073,5.231,5.231,0,0,1,1.244-.7,3.654,3.654,0,0,1,1.346-.254,3.65,3.65,0,0,1,1.4.241,2.6,2.6,0,0,1,.971.679,2.969,2.969,0,0,1,.59,1.06,5.3,5.3,0,0,1,.241,1.384,12.286,12.286,0,0,1,1.009-1.327,7.166,7.166,0,0,1,1.155-1.066,5.463,5.463,0,0,1,1.308-.711,4.13,4.13,0,0,1,1.466-.26,3.038,3.038,0,0,1,2.438.946A3.937,3.937,0,0,1,240.7-9.725Zm9.1-7.7a3.11,3.11,0,0,1-.163,1.011,2.46,2.46,0,0,1-.511.863,3.074,3.074,0,0,1-.889.663,4.57,4.57,0,0,1-1.288.411v.03a2.471,2.471,0,0,1,.815.267,2.23,2.23,0,0,1,.633.5,2.229,2.229,0,0,1,.407.7,2.448,2.448,0,0,1,.144.852,3.343,3.343,0,0,1-.244,1.274,2.858,2.858,0,0,1-.744,1.052,3.67,3.67,0,0,1-1.251.718,5.285,5.285,0,0,1-1.766.267,5.7,5.7,0,0,1-.8-.056,7.38,7.38,0,0,1-.737-.141,5.85,5.85,0,0,1-.633-.193,4.044,4.044,0,0,1-.5-.218l.259-1.155a3.938,3.938,0,0,0,.478.267,4.4,4.4,0,0,0,.6.233,5.6,5.6,0,0,0,.674.163,3.966,3.966,0,0,0,.7.063,3.889,3.889,0,0,0,1.3-.189,2.331,2.331,0,0,0,.844-.5,1.74,1.74,0,0,0,.452-.7,2.527,2.527,0,0,0,.133-.811,1.684,1.684,0,0,0-.652-1.4,3.146,3.146,0,0,0-1.97-.515h-.807l.23-1.044h.881a5.344,5.344,0,0,0,1.359-.156,3.016,3.016,0,0,0,.989-.441,1.876,1.876,0,0,0,.6-.692,2.008,2.008,0,0,0,.2-.911,1.752,1.752,0,0,0-.1-.6,1.3,1.3,0,0,0-.322-.5,1.6,1.6,0,0,0-.548-.337,2.211,2.211,0,0,0-.789-.126,4.531,4.531,0,0,0-.722.056,5.326,5.326,0,0,0-.648.144,4.981,4.981,0,0,0-.563.2,5.033,5.033,0,0,0-.459.222l.252-1.214q.193-.074.43-.152a5.339,5.339,0,0,1,.526-.141q.289-.063.637-.1a6.59,6.59,0,0,1,.763-.041,3.477,3.477,0,0,1,1.274.207,2.536,2.536,0,0,1,.866.544,2.058,2.058,0,0,1,.5.763A2.5,2.5,0,0,1,249.8-17.42Zm7.812,7.987v-1.7h11.934v1.7Zm0,5.408v-1.7h11.934v1.7ZM285.16,0l3.39-15.856-4.494,1.219.444-2.006,6.678-1.866L287.267,0Zm22.115-13.127q0,.952-.089,1.987t-.279,2.088a21.039,21.039,0,0,1-.489,2.088,16.472,16.472,0,0,1-.717,2,13.514,13.514,0,0,1-.958,1.822,9.616,9.616,0,0,1-1.212,1.555,5.872,5.872,0,0,1-4.393,1.9,4.4,4.4,0,0,1-1.885-.4,4.028,4.028,0,0,1-1.466-1.168,5.586,5.586,0,0,1-.946-1.892,9.021,9.021,0,0,1-.336-2.583,19.4,19.4,0,0,1,.229-2.914,18.043,18.043,0,0,1,.7-2.933,15.875,15.875,0,0,1,1.168-2.7,10.059,10.059,0,0,1,1.65-2.234,6.71,6.71,0,0,1,2.019-1.479,5.853,5.853,0,0,1,2.526-.527,4.756,4.756,0,0,1,1.841.343,3.766,3.766,0,0,1,1.416,1.022,4.679,4.679,0,0,1,.908,1.682A7.759,7.759,0,0,1,307.275-13.127Zm-2.107.178a5.055,5.055,0,0,0-.66-2.787,2.15,2.15,0,0,0-1.917-1.009,3.158,3.158,0,0,0-1.409.324,4.8,4.8,0,0,0-1.295.971,7.332,7.332,0,0,0-.933,1.238,12.66,12.66,0,0,0-.8,1.549,16.334,16.334,0,0,0-.641,1.746q-.279.914-.476,1.828t-.3,1.79a14.267,14.267,0,0,0-.1,1.638,7.511,7.511,0,0,0,.209,1.9,3.975,3.975,0,0,0,.578,1.308,2.3,2.3,0,0,0,.87.755,2.443,2.443,0,0,0,1.073.241,3.181,3.181,0,0,0,1.346-.3,3.984,3.984,0,0,0,1.231-.914A8.184,8.184,0,0,0,303.2-4.551a16.718,16.718,0,0,0,1.022-2.533,21.2,21.2,0,0,0,.692-2.9A17.943,17.943,0,0,0,305.168-12.949ZM310.758-9l1.977-9.249-2.621.711.259-1.17,3.9-1.089L311.987-9Zm5.25-2.555a3.077,3.077,0,0,1,.748-2.033,3.514,3.514,0,0,1,1.955-1.174,2.564,2.564,0,0,1-.815-.844,2.312,2.312,0,0,1-.318-1.222,2.777,2.777,0,0,1,.437-1.518,2.917,2.917,0,0,1,1.226-1.07,4.092,4.092,0,0,1,1.8-.381,2.752,2.752,0,0,1,1.9.637,2.138,2.138,0,0,1,.718,1.681,2.709,2.709,0,0,1-.526,1.662,3.109,3.109,0,0,1-1.518,1.055,2.2,2.2,0,0,1,1.029.9,2.656,2.656,0,0,1,.385,1.414,3.407,3.407,0,0,1-.518,1.829A3.6,3.6,0,0,1,321.081-9.3a4.235,4.235,0,0,1-1.985.474,3.4,3.4,0,0,1-2.277-.692A2.525,2.525,0,0,1,316.008-11.555Zm1.348-.044a1.642,1.642,0,0,0,.474,1.237,1.9,1.9,0,0,0,1.377.459,2.494,2.494,0,0,0,1.248-.333,2.508,2.508,0,0,0,.94-.933,2.531,2.531,0,0,0,.352-1.3,1.722,1.722,0,0,0-.478-1.263,1.683,1.683,0,0,0-1.255-.485,2.637,2.637,0,0,0-1.318.352,2.623,2.623,0,0,0-.981.955A2.524,2.524,0,0,0,317.356-11.6Zm1.451-5.073a1.416,1.416,0,0,0,.411,1.052,1.455,1.455,0,0,0,1.07.407,2.049,2.049,0,0,0,1-.278,2.215,2.215,0,0,0,.807-.763,1.959,1.959,0,0,0,.307-1.07A1.411,1.411,0,0,0,322-18.371a1.5,1.5,0,0,0-1.1-.4,2.015,2.015,0,0,0-1.481.607A2.033,2.033,0,0,0,318.807-16.672Zm25.88,6.947a4.22,4.22,0,0,1-.044.5q-.044.336-.114.717t-.14.755q-.07.375-.121.628L342.732,0H340.65l1.587-7.617q.051-.216.1-.482t.1-.527q.044-.26.07-.482a3.263,3.263,0,0,0,.025-.349A2.417,2.417,0,0,0,342.1-11a1.62,1.62,0,0,0-1.346-.54,2.506,2.506,0,0,0-1,.222,4.608,4.608,0,0,0-1,.6,7.073,7.073,0,0,0-.939.889,9.047,9.047,0,0,0-.825,1.085,8.452,8.452,0,0,0-.641,1.181,6.19,6.19,0,0,0-.394,1.187L334.595,0h-2.107L334.1-7.617q.051-.216.1-.482t.1-.527q.044-.26.07-.482a3.263,3.263,0,0,0,.025-.349A2.368,2.368,0,0,0,333.947-11a1.627,1.627,0,0,0-1.333-.54,2.577,2.577,0,0,0-1.016.222,4.553,4.553,0,0,0-1.016.609,6.976,6.976,0,0,0-.946.9,9.468,9.468,0,0,0-.825,1.092,7.988,7.988,0,0,0-.635,1.181,6.463,6.463,0,0,0-.387,1.187L326.432,0h-2.107l2.006-9.28q.1-.5.2-1.035t.19-1.041q.089-.5.152-.933t.1-.711h2.031q-.063.5-.152,1.035t-.152,1q-.076.533-.165,1.041h.051a10.979,10.979,0,0,1,.99-1.358,7.241,7.241,0,0,1,1.13-1.073,5.232,5.232,0,0,1,1.244-.7,3.654,3.654,0,0,1,1.346-.254,3.65,3.65,0,0,1,1.4.241,2.6,2.6,0,0,1,.971.679,2.968,2.968,0,0,1,.59,1.06,5.3,5.3,0,0,1,.241,1.384,12.282,12.282,0,0,1,1.009-1.327,7.166,7.166,0,0,1,1.155-1.066,5.463,5.463,0,0,1,1.308-.711,4.13,4.13,0,0,1,1.466-.26,3.038,3.038,0,0,1,2.438.946A3.937,3.937,0,0,1,344.687-9.725Zm22.306,0a4.22,4.22,0,0,1-.044.5q-.044.336-.114.717t-.14.755q-.07.375-.121.628L365.038,0h-2.082l1.587-7.617q.051-.216.1-.482t.1-.527q.044-.26.07-.482a3.263,3.263,0,0,0,.025-.349A2.417,2.417,0,0,0,364.4-11a1.62,1.62,0,0,0-1.346-.54,2.506,2.506,0,0,0-1,.222,4.608,4.608,0,0,0-1,.6,7.073,7.073,0,0,0-.939.889,9.047,9.047,0,0,0-.825,1.085,8.452,8.452,0,0,0-.641,1.181,6.19,6.19,0,0,0-.394,1.187L356.9,0h-2.107l1.612-7.617q.051-.216.1-.482t.1-.527q.044-.26.07-.482a3.263,3.263,0,0,0,.025-.349A2.368,2.368,0,0,0,356.253-11a1.627,1.627,0,0,0-1.333-.54,2.577,2.577,0,0,0-1.016.222,4.553,4.553,0,0,0-1.016.609,6.976,6.976,0,0,0-.946.9,9.468,9.468,0,0,0-.825,1.092,7.988,7.988,0,0,0-.635,1.181,6.463,6.463,0,0,0-.387,1.187L348.737,0H346.63l2.006-9.28q.1-.5.2-1.035t.19-1.041q.089-.5.152-.933t.1-.711h2.031q-.063.5-.152,1.035t-.152,1q-.076.533-.165,1.041h.051a10.979,10.979,0,0,1,.99-1.358,7.241,7.241,0,0,1,1.13-1.073,5.232,5.232,0,0,1,1.244-.7,3.654,3.654,0,0,1,1.346-.254,3.65,3.65,0,0,1,1.4.241,2.6,2.6,0,0,1,.971.679,2.968,2.968,0,0,1,.59,1.06,5.3,5.3,0,0,1,.241,1.384,12.282,12.282,0,0,1,1.009-1.327,7.166,7.166,0,0,1,1.155-1.066,5.463,5.463,0,0,1,1.308-.711,4.13,4.13,0,0,1,1.466-.26,3.038,3.038,0,0,1,2.438.946A3.937,3.937,0,0,1,366.993-9.725Zm9.1-7.7a3.11,3.11,0,0,1-.163,1.011,2.46,2.46,0,0,1-.511.863,3.074,3.074,0,0,1-.889.663,4.57,4.57,0,0,1-1.288.411v.03a2.472,2.472,0,0,1,.815.267,2.23,2.23,0,0,1,.633.5,2.228,2.228,0,0,1,.407.7,2.447,2.447,0,0,1,.144.852A3.343,3.343,0,0,1,375-10.851a2.858,2.858,0,0,1-.744,1.052A3.67,3.67,0,0,1,373-9.081a5.286,5.286,0,0,1-1.766.267,5.7,5.7,0,0,1-.8-.056,7.382,7.382,0,0,1-.737-.141,5.85,5.85,0,0,1-.633-.193,4.043,4.043,0,0,1-.5-.218l.259-1.155a3.934,3.934,0,0,0,.478.267,4.394,4.394,0,0,0,.6.233,5.6,5.6,0,0,0,.674.163,3.966,3.966,0,0,0,.7.063,3.89,3.89,0,0,0,1.3-.189,2.331,2.331,0,0,0,.844-.5,1.74,1.74,0,0,0,.452-.7,2.526,2.526,0,0,0,.133-.811,1.684,1.684,0,0,0-.652-1.4,3.146,3.146,0,0,0-1.97-.515h-.807l.23-1.044h.881a5.344,5.344,0,0,0,1.359-.156,3.015,3.015,0,0,0,.989-.441,1.876,1.876,0,0,0,.6-.692,2.008,2.008,0,0,0,.2-.911,1.752,1.752,0,0,0-.1-.6,1.3,1.3,0,0,0-.322-.5,1.6,1.6,0,0,0-.548-.337,2.212,2.212,0,0,0-.789-.126,4.532,4.532,0,0,0-.722.056,5.327,5.327,0,0,0-.648.144,4.982,4.982,0,0,0-.563.2,5.031,5.031,0,0,0-.459.222l.252-1.214q.193-.074.43-.152a5.341,5.341,0,0,1,.526-.141q.289-.063.637-.1a6.59,6.59,0,0,1,.763-.041,3.477,3.477,0,0,1,1.274.207,2.535,2.535,0,0,1,.866.544,2.058,2.058,0,0,1,.5.763A2.5,2.5,0,0,1,376.1-17.42Z" transform="translate(700 2178)"/>
  </g>
</svg>
