<svg xmlns="http://www.w3.org/2000/svg" width="572.211" height="117.848" viewBox="0 0 572.211 117.848">
  <g id="Grupo_14557" data-name="Grupo 14557" transform="translate(-12798 -2142)">
    <path id="Trazado_24120" data-name="Trazado 24120" d="M0,0H572.211V117.848H0Z" transform="translate(12798 2142)" fill="#d5f4fc"/>
    <path id="Trazado_24121" data-name="Trazado 24121" d="M10.085-13.771H2.5L1.61-6.547a11.419,11.419,0,0,1,1.843-.127c2.754,0,3.877.869,3.877,2.288,0,1.462-1.42,2.1-2.754,2.1a7.705,7.705,0,0,1-3.093-.678L.89-.551A8.752,8.752,0,0,0,4.725.233c3.708,0,5.911-2.267,5.911-4.831A3.92,3.92,0,0,0,8.962-8.051a6.253,6.253,0,0,0-3.623-1c-.339,0-.593.021-.89.042l.3-2.119h5.339Zm6.187-1.292h-3.22V0h3.22V-3.242l.805-1.017L19.6,0H23.56L19.322-6.165,23.03-10.36H19.153l-2.1,3.114A13.9,13.9,0,0,0,16.314-6h-.042ZM24.746,0h3.136V-6.017a2.179,2.179,0,0,1,.127-.826,1.648,1.648,0,0,1,1.5-1.144c1.038,0,1.5.89,1.5,2.182V0h3.136V-6.059a3.353,3.353,0,0,1,.106-.805,1.6,1.6,0,0,1,1.5-1.123c1.038,0,1.525.869,1.525,2.373V0h3.136V-6.1c0-3.093-1.5-4.492-3.5-4.492a3.945,3.945,0,0,0-1.97.508A4.506,4.506,0,0,0,33.6-8.814H33.56a2.932,2.932,0,0,0-2.839-1.78,3.585,3.585,0,0,0-3.136,1.653h-.064l-.127-1.42H24.661c.042.932.085,2.013.085,3.305ZM47.9-7V-8.545h-3.04v-.025l.741-.618c1.174-1.038,2.138-2.113,2.138-3.46,0-1.458-.989-2.521-2.818-2.521a4.407,4.407,0,0,0-2.62.828l.531,1.335a2.985,2.985,0,0,1,1.718-.655c.927,0,1.31.519,1.31,1.174-.012.939-.865,1.841-2.632,3.423l-1.026.927V-7Zm11.661-7.513-1.229,3.242h-.042l-1.165-3.242-1.886,1.081,2.225,2.67v.042L54.162-11.4v2.14l3.326-.593.021.042L55.242-7.161l1.822,1.1,1.208-3.263.042-.021,1.229,3.284,1.864-1.1L59.119-9.767v-.064l3.411.572V-11.4l-3.39.678v-.042l2.267-2.691ZM72.425,0h3.114V-13.771H72.891l-3.665,1.695.53,2.415,2.627-1.25h.042ZM85.052.233c3.475,0,5.191-2.945,5.191-7.182,0-3.771-1.462-7.055-5.127-7.055-3.559,0-5.233,3.136-5.233,7.14.021,3.9,1.589,7.1,5.148,7.1ZM85.073-2.2c-1.229,0-1.992-1.525-1.97-4.7,0-3.114.763-4.661,1.97-4.661,1.292,0,1.949,1.61,1.949,4.661,0,3.136-.678,4.7-1.928,4.7ZM96.59-15.144a3.955,3.955,0,0,0-.754.012,4.771,4.771,0,0,0-3.09,1.174,4.819,4.819,0,0,0-1.434,3.584c0,1.916,1.05,3.51,3.2,3.51a2.874,2.874,0,0,0,2.954-2.9,2.438,2.438,0,0,0-2.484-2.62,2.324,2.324,0,0,0-1.705.63h-.037a2.562,2.562,0,0,1,2.62-1.916,5.164,5.164,0,0,1,.729-.025Zm-2.113,6.9c-.853,0-1.261-.766-1.3-1.619a.986.986,0,0,1,.087-.482,1.2,1.2,0,0,1,1.1-.7,1.228,1.228,0,0,1,1.2,1.384c0,.816-.42,1.421-1.075,1.421ZM101.59,0h3.136V-6.017a2.179,2.179,0,0,1,.127-.826,1.648,1.648,0,0,1,1.5-1.144c1.038,0,1.5.89,1.5,2.182V0H111V-6.059a3.353,3.353,0,0,1,.106-.805,1.6,1.6,0,0,1,1.5-1.123c1.038,0,1.525.869,1.525,2.373V0h3.136V-6.1c0-3.093-1.5-4.492-3.5-4.492a3.945,3.945,0,0,0-1.97.508,4.506,4.506,0,0,0-1.356,1.271H110.4a2.932,2.932,0,0,0-2.839-1.78,3.585,3.585,0,0,0-3.136,1.653h-.064l-.127-1.42H101.5c.042.932.085,2.013.085,3.305Zm23.157-7V-8.545h-3.04v-.025l.742-.618c1.174-1.038,2.138-2.113,2.138-3.46,0-1.458-.989-2.521-2.818-2.521a4.407,4.407,0,0,0-2.62.828l.531,1.335a2.985,2.985,0,0,1,1.718-.655c.927,0,1.31.519,1.31,1.174-.012.939-.865,1.841-2.632,3.423l-1.026.927V-7Z" transform="translate(12946 2193)"/>
    <path id="Trazado_24122" data-name="Trazado 24122" d="M5.742-4.64v-.381A3.73,3.73,0,0,1,6.822-7.67,5.288,5.288,0,0,0,8.644-11.25c0-1.737-1.292-3.284-4.068-3.284a7.2,7.2,0,0,0-3.538.869l.7,2.309a3.889,3.889,0,0,1,2.119-.636c1.038.021,1.525.53,1.525,1.271a3.968,3.968,0,0,1-1.229,2.2A4.765,4.765,0,0,0,2.9-5.191l.042.551ZM4.28.233A1.824,1.824,0,0,0,6.165-1.695,1.83,1.83,0,0,0,4.259-3.623,1.824,1.824,0,0,0,2.373-1.695,1.836,1.836,0,0,0,4.259.233ZM25.488-6.886v-1.97H14.555v1.97Zm0,4.386V-4.47H14.555V-2.5Z" transform="translate(12907 2207)"/>
    <path id="Trazado_24123" data-name="Trazado 24123" d="M5,0H8.115V-13.771H5.466L1.8-12.076l.53,2.415,2.627-1.25H5ZM16.271-15.064h-3.22V0h3.22V-3.242l.805-1.017L19.6,0H23.56L19.322-6.165,23.03-10.36H19.153l-2.1,3.114A13.9,13.9,0,0,0,16.314-6h-.042ZM24.746,0h3.136V-6.017a2.179,2.179,0,0,1,.127-.826,1.648,1.648,0,0,1,1.5-1.144c1.038,0,1.5.89,1.5,2.182V0h3.136V-6.059a3.353,3.353,0,0,1,.106-.805,1.6,1.6,0,0,1,1.5-1.123c1.038,0,1.525.869,1.525,2.373V0h3.136V-6.1c0-3.093-1.5-4.492-3.5-4.492a3.945,3.945,0,0,0-1.97.508A4.506,4.506,0,0,0,33.6-8.814H33.56a2.932,2.932,0,0,0-2.839-1.78,3.585,3.585,0,0,0-3.136,1.653h-.064l-.127-1.42H24.661c.042.932.085,2.013.085,3.305ZM47.9-7V-8.545h-3.04v-.025l.741-.618c1.174-1.038,2.138-2.113,2.138-3.46,0-1.458-.989-2.521-2.818-2.521a4.407,4.407,0,0,0-2.62.828l.531,1.335a2.985,2.985,0,0,1,1.718-.655c.927,0,1.31.519,1.31,1.174-.012.939-.865,1.841-2.632,3.423l-1.026.927V-7Z" transform="translate(12988 2222)"/>
    <path id="Trazado_23566" data-name="Trazado 23566" d="M4124,2212h132.875" transform="translate(8822 -11)" fill="none" stroke="#0d468f" stroke-width="2"/>
    <path id="Trazado_24124" data-name="Trazado 24124" d="M11.78-6.886v-1.97H.847v1.97Zm0,4.386V-4.47H.847V-2.5ZM44.111-13.771H36.526l-.89,7.225a11.419,11.419,0,0,1,1.843-.127c2.754,0,3.877.869,3.877,2.288,0,1.462-1.42,2.1-2.754,2.1a7.705,7.705,0,0,1-3.093-.678L34.916-.551a8.752,8.752,0,0,0,3.835.784c3.708,0,5.911-2.267,5.911-4.831a3.92,3.92,0,0,0-1.674-3.453,6.253,6.253,0,0,0-3.623-1c-.339,0-.593.021-.89.042l.3-2.119h5.339Zm7.543,14c3.475,0,5.191-2.945,5.191-7.182,0-3.771-1.462-7.055-5.127-7.055-3.559,0-5.233,3.136-5.233,7.14.021,3.9,1.589,7.1,5.148,7.1ZM51.675-2.2c-1.229,0-1.992-1.525-1.97-4.7,0-3.114.763-4.661,1.97-4.661,1.292,0,1.949,1.61,1.949,4.661,0,3.136-.678,4.7-1.928,4.7ZM63.412.233c3.475,0,5.191-2.945,5.191-7.182C68.6-10.721,67.141-14,63.476-14c-3.559,0-5.233,3.136-5.233,7.14.021,3.9,1.589,7.1,5.148,7.1ZM63.433-2.2c-1.229,0-1.992-1.525-1.97-4.7,0-3.114.763-4.661,1.97-4.661,1.292,0,1.949,1.61,1.949,4.661,0,3.136-.678,4.7-1.928,4.7ZM75.171.233c3.475,0,5.191-2.945,5.191-7.182C80.362-10.721,78.9-14,75.234-14,71.675-14,70-10.869,70-6.865c.021,3.9,1.589,7.1,5.148,7.1ZM75.192-2.2c-1.229,0-1.992-1.525-1.97-4.7,0-3.114.763-4.661,1.97-4.661,1.292,0,1.949,1.61,1.949,4.661,0,3.136-.678,4.7-1.928,4.7ZM86.929.233c3.475,0,5.191-2.945,5.191-7.182,0-3.771-1.462-7.055-5.127-7.055-3.559,0-5.233,3.136-5.233,7.14.021,3.9,1.589,7.1,5.148,7.1ZM86.951-2.2c-1.229,0-1.992-1.525-1.97-4.7,0-3.114.763-4.661,1.97-4.661,1.292,0,1.949,1.61,1.949,4.661,0,3.136-.678,4.7-1.928,4.7ZM98.688.233c3.475,0,5.191-2.945,5.191-7.182,0-3.771-1.462-7.055-5.127-7.055-3.559,0-5.233,3.136-5.233,7.14.021,3.9,1.589,7.1,5.148,7.1ZM98.709-2.2c-1.229,0-1.992-1.525-1.97-4.7,0-3.114.763-4.661,1.97-4.661,1.292,0,1.949,1.61,1.949,4.661,0,3.136-.678,4.7-1.928,4.7ZM110.447.233c3.475,0,5.191-2.945,5.191-7.182,0-3.771-1.462-7.055-5.127-7.055-3.559,0-5.233,3.136-5.233,7.14.021,3.9,1.589,7.1,5.148,7.1Zm.021-2.436c-1.229,0-1.992-1.525-1.97-4.7,0-3.114.763-4.661,1.97-4.661,1.292,0,1.949,1.61,1.949,4.661,0,3.136-.678,4.7-1.928,4.7ZM117.629,0h3.136V-6.017a2.179,2.179,0,0,1,.127-.826,1.648,1.648,0,0,1,1.5-1.144c1.038,0,1.5.89,1.5,2.182V0h3.136V-6.059a3.353,3.353,0,0,1,.106-.805,1.6,1.6,0,0,1,1.5-1.123c1.038,0,1.525.869,1.525,2.373V0h3.136V-6.1c0-3.093-1.5-4.492-3.5-4.492a3.945,3.945,0,0,0-1.97.508,4.506,4.506,0,0,0-1.356,1.271h-.042a2.932,2.932,0,0,0-2.839-1.78,3.585,3.585,0,0,0-3.136,1.653H120.4l-.127-1.42h-2.733c.042.932.085,2.013.085,3.305Zm23.157-7V-8.545h-3.04v-.025l.742-.618c1.174-1.038,2.138-2.113,2.138-3.46,0-1.458-.989-2.521-2.818-2.521a4.407,4.407,0,0,0-2.62.828l.531,1.335a2.985,2.985,0,0,1,1.718-.655c.927,0,1.31.519,1.31,1.174-.012.939-.865,1.841-2.632,3.423l-1.026.927V-7Z" transform="translate(13120 2207)"/>
  </g>
</svg>
