<svg xmlns="http://www.w3.org/2000/svg" width="380.211" height="137.848" viewBox="0 0 380.211 137.848">
  <g id="Grupo_14551" data-name="Grupo 14551" transform="translate(-510 -2078)">
    <path id="Trazado_24108" data-name="Trazado 24108" d="M0,0H380.211V137.848H0Z" transform="translate(510 2078)" fill="#d5f4fc"/>
    <path id="Trazado_24109" data-name="Trazado 24109" d="M-20.718,0H-17.6V-13.771h-2.648l-3.665,1.695.53,2.415,2.627-1.25h.042Zm8.178-14.28V0h3.22V-5.953H-4V0h3.22V-14.28H-4v5.509H-9.319V-14.28ZM1.931,0H5.066V-6.017a2.179,2.179,0,0,1,.127-.826A1.648,1.648,0,0,1,6.7-7.987c1.038,0,1.5.89,1.5,2.182V0h3.136V-6.059a3.353,3.353,0,0,1,.106-.805,1.6,1.6,0,0,1,1.5-1.123c1.038,0,1.525.869,1.525,2.373V0h3.136V-6.1c0-3.093-1.5-4.492-3.5-4.492a3.945,3.945,0,0,0-1.97.508,4.506,4.506,0,0,0-1.356,1.271h-.042a2.932,2.932,0,0,0-2.839-1.78A3.585,3.585,0,0,0,4.77-8.941H4.706l-.127-1.42H1.846c.042.932.085,2.013.085,3.305Zm17.4-7.42a4.895,4.895,0,0,0,2.385.556C23.753-6.864,25-7.9,25-9.311a2,2,0,0,0-1.743-1.965V-11.3a1.914,1.914,0,0,0,1.471-1.866c0-1.1-.952-2-2.657-2a5,5,0,0,0-2.484.606l.383,1.359a3.565,3.565,0,0,1,1.668-.482c.8,0,1.186.358,1.186.84,0,.68-.791.927-1.421.927h-.729v1.347h.766c.816,0,1.607.358,1.607,1.162,0,.593-.494,1.063-1.471,1.063a4.252,4.252,0,0,1-1.866-.494ZM-62.9,25.657c3.475,0,5.191-2.945,5.191-7.182,0-3.771-1.462-7.055-5.127-7.055-3.559,0-5.233,3.136-5.233,7.14.021,3.9,1.589,7.1,5.148,7.1Zm.021-2.436c-1.229,0-1.992-1.525-1.97-4.7,0-3.114.763-4.661,1.97-4.661,1.292,0,1.949,1.61,1.949,4.661,0,3.136-.678,4.7-1.928,4.7Zm8.051,4.555a29.327,29.327,0,0,0,2.67-6.038l-3.284.212a33.935,33.935,0,0,1-1.547,6.017Zm9.2-2.119c3.475,0,5.191-2.945,5.191-7.182,0-3.771-1.462-7.055-5.127-7.055-3.559,0-5.233,3.136-5.233,7.14.021,3.9,1.589,7.1,5.148,7.1Zm.021-2.436c-1.229,0-1.992-1.525-1.97-4.7,0-3.114.763-4.661,1.97-4.661,1.292,0,1.949,1.61,1.949,4.661,0,3.136-.678,4.7-1.928,4.7Zm11.737,2.436c3.475,0,5.191-2.945,5.191-7.182,0-3.771-1.462-7.055-5.127-7.055-3.559,0-5.233,3.136-5.233,7.14.021,3.9,1.589,7.1,5.148,7.1Zm.021-2.436c-1.229,0-1.992-1.525-1.97-4.7,0-3.114.763-4.661,1.97-4.661,1.292,0,1.949,1.61,1.949,4.661,0,3.136-.678,4.7-1.928,4.7Zm15.551-11.759a6.78,6.78,0,0,0-1.292.021,8.178,8.178,0,0,0-5.3,2.013,8.262,8.262,0,0,0-2.458,6.144c0,3.284,1.8,6.017,5.487,6.017A4.927,4.927,0,0,0-16.8,20.678a4.18,4.18,0,0,0-4.259-4.492,3.985,3.985,0,0,0-2.924,1.081h-.064c.36-1.589,1.631-3.072,4.492-3.284a8.852,8.852,0,0,1,1.25-.042Zm-3.623,11.822c-1.462,0-2.161-1.314-2.225-2.775A1.691,1.691,0,0,1-24,19.683a2.063,2.063,0,0,1,1.886-1.208,2.1,2.1,0,0,1,2.055,2.373c0,1.4-.72,2.436-1.843,2.436Zm10.7,2.14h3.114V11.653h-2.648l-3.665,1.695.53,2.415,2.627-1.25h.042ZM5.212,11.462a6.78,6.78,0,0,0-1.292.021,8.178,8.178,0,0,0-5.3,2.013A8.262,8.262,0,0,0-3.835,19.64c0,3.284,1.8,6.017,5.487,6.017a4.927,4.927,0,0,0,5.064-4.979,4.18,4.18,0,0,0-4.259-4.492A3.985,3.985,0,0,0-.466,17.267H-.53c.36-1.589,1.631-3.072,4.492-3.284a8.852,8.852,0,0,1,1.25-.042ZM1.589,23.284c-1.462,0-2.161-1.314-2.225-2.775a1.691,1.691,0,0,1,.148-.826A2.063,2.063,0,0,1,1.4,18.475a2.1,2.1,0,0,1,2.055,2.373c0,1.4-.72,2.436-1.843,2.436Zm11.4-12.14v14.28h3.22V19.471h5.318v5.953h3.22V11.144h-3.22v5.509H16.208V11.144Zm14.471,14.28h3.136V19.407a2.179,2.179,0,0,1,.127-.826,1.648,1.648,0,0,1,1.5-1.144c1.038,0,1.5.89,1.5,2.182v5.805h3.136V19.365a3.353,3.353,0,0,1,.106-.805,1.6,1.6,0,0,1,1.5-1.123c1.038,0,1.525.869,1.525,2.373v5.615h3.136v-6.1c0-3.093-1.5-4.492-3.5-4.492a3.945,3.945,0,0,0-1.97.508,4.506,4.506,0,0,0-1.356,1.271h-.042a2.932,2.932,0,0,0-2.839-1.78A3.585,3.585,0,0,0,30.3,16.483h-.064l-.127-1.42H27.373c.042.932.085,2.013.085,3.305Zm28.666-3.75L51.7,11.653h-1.97L45.3,21.674h2.267l3.093-7.543h.064l3.093,7.543Zm1.695,3.03a8.392,8.392,0,0,0,4.089.953c3.5,0,5.636-1.78,5.636-4.195a3.427,3.427,0,0,0-2.987-3.369v-.042a3.282,3.282,0,0,0,2.521-3.2c0-1.886-1.631-3.432-4.555-3.432a8.567,8.567,0,0,0-4.259,1.038l.657,2.331a6.112,6.112,0,0,1,2.86-.826c1.377,0,2.034.614,2.034,1.441,0,1.165-1.356,1.589-2.436,1.589h-1.25V19.3h1.314c1.4,0,2.754.614,2.754,1.992,0,1.017-.847,1.822-2.521,1.822a7.29,7.29,0,0,1-3.2-.847Z" transform="translate(629 2139)"/>
    <path id="Trazado_24110" data-name="Trazado 24110" d="M-22.728,0h3.114V-13.771h-2.648l-3.665,1.695.53,2.415,2.627-1.25h.042ZM-10.1.233c3.475,0,5.191-2.945,5.191-7.182C-4.91-10.721-6.372-14-10.037-14c-3.559,0-5.233,3.136-5.233,7.14.021,3.9,1.589,7.1,5.148,7.1Zm.021-2.436c-1.229,0-1.992-1.525-1.97-4.7,0-3.114.763-4.661,1.97-4.661,1.292,0,1.949,1.61,1.949,4.661,0,3.136-.678,4.7-1.928,4.7Zm6.969-4.685a6.5,6.5,0,0,0,.853,0A4.727,4.727,0,0,0,.832-8.013a4.816,4.816,0,0,0,1.4-3.7c0-1.878-.976-3.46-3.04-3.46A2.92,2.92,0,0,0-3.84-12.277a2.4,2.4,0,0,0,2.5,2.509,2.181,2.181,0,0,0,1.631-.581l.025.012A2.363,2.363,0,0,1-.7-8.854a3.113,3.113,0,0,1-1.594.494,3.554,3.554,0,0,1-.816,0ZM-.861-13.8c.853,0,1.186.84,1.174,1.693a.986.986,0,0,1-.087.482A1.207,1.207,0,0,1-.837-11.1a1.151,1.151,0,0,1-1.137-1.285c0-.84.47-1.409,1.1-1.409ZM3.941,0H7.076V-6.017A2.179,2.179,0,0,1,7.2-6.843a1.648,1.648,0,0,1,1.5-1.144c1.038,0,1.5.89,1.5,2.182V0h3.136V-6.059a3.353,3.353,0,0,1,.106-.805,1.6,1.6,0,0,1,1.5-1.123c1.038,0,1.525.869,1.525,2.373V0h3.136V-6.1c0-3.093-1.5-4.492-3.5-4.492a3.945,3.945,0,0,0-1.97.508A4.506,4.506,0,0,0,12.8-8.814h-.042a2.932,2.932,0,0,0-2.839-1.78A3.585,3.585,0,0,0,6.78-8.941H6.716l-.127-1.42H3.856c.042.932.085,2.013.085,3.305Zm17.4-7.42a4.895,4.895,0,0,0,2.385.556c2.039,0,3.287-1.038,3.287-2.447a2,2,0,0,0-1.743-1.965V-11.3a1.914,1.914,0,0,0,1.471-1.866c0-1.1-.952-2-2.657-2a5,5,0,0,0-2.484.606l.383,1.359a3.565,3.565,0,0,1,1.668-.482c.8,0,1.186.358,1.186.84,0,.68-.791.927-1.421.927h-.729v1.347h.766c.816,0,1.607.358,1.607,1.162,0,.593-.494,1.063-1.471,1.063a4.252,4.252,0,0,1-1.866-.494ZM-5.35,15.064l3.432,5.064-3.517,5.3H-1.9l.975-1.864c.254-.508.53-1.017.784-1.589h.064A13.959,13.959,0,0,0,.731,23.56l1.038,1.864H5.413L1.96,20l3.411-4.937h-3.5L.964,16.738c-.275.53-.53,1.038-.805,1.61H.117c-.275-.508-.551-1.017-.847-1.547l-1.017-1.737Z" transform="translate(812 2139)"/>
    <path id="Trazado_24111" data-name="Trazado 24111" d="M0,0H30.98V1.766H0Z" transform="translate(754.755 2134.665) rotate(180)" fill="#ff9100"/>
    <g id="Grupo_14117" data-name="Grupo 14117" transform="translate(756.669 2141.002) rotate(180)">
      <path id="Trazado_23503" data-name="Trazado 23503" d="M1448.356,221.492l1.2-1.293-6.377-5.926,6.377-5.928-1.2-1.293-7.765,7.221Z" transform="translate(-1440.591 -207.052)" fill="#ff9100"/>
    </g>
    <path id="Trazado_24112" data-name="Trazado 24112" d="M0,0H30.98V1.766H0Z" transform="translate(754.755 2161.665) rotate(180)" fill="#ff9100"/>
    <g id="Grupo_14117-2" data-name="Grupo 14117" transform="translate(756.669 2168.002) rotate(180)">
      <path id="Trazado_23503-2" data-name="Trazado 23503" d="M1448.356,221.492l1.2-1.293-6.377-5.926,6.377-5.928-1.2-1.293-7.765,7.221Z" transform="translate(-1440.591 -207.052)" fill="#ff9100"/>
    </g>
  </g>
</svg>
