<svg xmlns="http://www.w3.org/2000/svg" width="746.211" height="145.848" viewBox="0 0 746.211 145.848">
  <g id="Grupo_14559" data-name="Grupo 14559" transform="translate(-327 -1634)">
    <path id="Trazado_24127" data-name="Trazado 24127" d="M0,0H746.211V145.848H0Z" transform="translate(327 1634)" fill="#d5f4fc"/>
    <path id="Trazado_24132" data-name="Trazado 24132" d="M5.869.233c3.475,0,5.191-2.945,5.191-7.182C11.06-10.721,9.6-14,5.932-14,2.373-14,.7-10.869.7-6.865c.021,3.9,1.589,7.1,5.148,7.1ZM5.89-2.2c-1.229,0-1.992-1.525-1.97-4.7,0-3.114.763-4.661,1.97-4.661,1.292,0,1.949,1.61,1.949,4.661,0,3.136-.678,4.7-1.928,4.7Zm8.051,4.555a29.327,29.327,0,0,0,2.67-6.038l-3.284.212A33.935,33.935,0,0,1,11.78,2.542Zm9.2-2.119c3.475,0,5.191-2.945,5.191-7.182C28.327-10.721,26.865-14,23.2-14c-3.559,0-5.233,3.136-5.233,7.14.021,3.9,1.589,7.1,5.148,7.1ZM23.157-2.2c-1.229,0-1.992-1.525-1.97-4.7,0-3.114.763-4.661,1.97-4.661,1.292,0,1.949,1.61,1.949,4.661,0,3.136-.678,4.7-1.928,4.7ZM34.895.233c3.475,0,5.191-2.945,5.191-7.182,0-3.771-1.462-7.055-5.127-7.055-3.559,0-5.233,3.136-5.233,7.14.021,3.9,1.589,7.1,5.148,7.1ZM34.916-2.2c-1.229,0-1.992-1.525-1.97-4.7,0-3.114.763-4.661,1.97-4.661,1.292,0,1.949,1.61,1.949,4.661,0,3.136-.678,4.7-1.928,4.7ZM50.467-13.962a6.78,6.78,0,0,0-1.292.021,8.178,8.178,0,0,0-5.3,2.013A8.262,8.262,0,0,0,41.42-5.784c0,3.284,1.8,6.017,5.487,6.017a4.927,4.927,0,0,0,5.064-4.979,4.18,4.18,0,0,0-4.259-4.492,3.985,3.985,0,0,0-2.924,1.081h-.064c.36-1.589,1.631-3.072,4.492-3.284a8.852,8.852,0,0,1,1.25-.042ZM46.844-2.14c-1.462,0-2.161-1.314-2.225-2.775a1.691,1.691,0,0,1,.148-.826,2.063,2.063,0,0,1,1.886-1.208,2.1,2.1,0,0,1,2.055,2.373c0,1.4-.72,2.436-1.843,2.436ZM57.543,0h3.114V-13.771H58.009l-3.665,1.695.53,2.415,2.627-1.25h.042ZM73.984-13.962a6.78,6.78,0,0,0-1.292.021,8.178,8.178,0,0,0-5.3,2.013,8.262,8.262,0,0,0-2.458,6.144c0,3.284,1.8,6.017,5.487,6.017a4.927,4.927,0,0,0,5.064-4.979A4.18,4.18,0,0,0,71.23-9.237a3.985,3.985,0,0,0-2.924,1.081h-.064c.36-1.589,1.631-3.072,4.492-3.284a8.852,8.852,0,0,1,1.25-.042ZM70.361-2.14c-1.462,0-2.161-1.314-2.225-2.775a1.691,1.691,0,0,1,.148-.826,2.063,2.063,0,0,1,1.886-1.208,2.1,2.1,0,0,1,2.055,2.373c0,1.4-.72,2.436-1.843,2.436ZM77.48-14.28V0H80.7V-5.953h5.318V0h3.22V-14.28h-3.22v5.509H80.7V-14.28ZM91.951,0h3.136V-6.017a2.179,2.179,0,0,1,.127-.826,1.648,1.648,0,0,1,1.5-1.144c1.038,0,1.5.89,1.5,2.182V0h3.136V-6.059a3.353,3.353,0,0,1,.106-.805,1.6,1.6,0,0,1,1.5-1.123c1.038,0,1.525.869,1.525,2.373V0h3.136V-6.1c0-3.093-1.5-4.492-3.5-4.492a3.945,3.945,0,0,0-1.97.508,4.506,4.506,0,0,0-1.356,1.271h-.042a2.932,2.932,0,0,0-2.839-1.78A3.585,3.585,0,0,0,94.79-8.941h-.064L94.6-10.36H91.866c.042.932.085,2.013.085,3.305Zm17.4-7.42a4.895,4.895,0,0,0,2.385.556c2.039,0,3.287-1.038,3.287-2.447a2,2,0,0,0-1.743-1.965V-11.3a1.914,1.914,0,0,0,1.471-1.866c0-1.1-.952-2-2.657-2a5,5,0,0,0-2.484.606l.383,1.359a3.565,3.565,0,0,1,1.668-.482c.8,0,1.186.358,1.186.84,0,.68-.791.927-1.421.927H110.7v1.347h.766c.816,0,1.607.358,1.607,1.162,0,.593-.494,1.063-1.471,1.063a4.252,4.252,0,0,1-1.866-.494Zm14.924-7.093-1.229,3.242H123l-1.165-3.242-1.886,1.081,2.225,2.67v.042L118.87-11.4v2.14l3.326-.593.021.042L119.95-7.161l1.822,1.1,1.208-3.263.042-.021,1.229,3.284,1.864-1.1-2.288-2.606v-.064l3.411.572V-11.4l-3.39.678v-.042l2.267-2.691ZM137.133,0h3.114V-13.771H137.6l-3.665,1.695.53,2.415,2.627-1.25h.042ZM149.76.233c3.475,0,5.191-2.945,5.191-7.182,0-3.771-1.462-7.055-5.127-7.055-3.559,0-5.233,3.136-5.233,7.14.021,3.9,1.589,7.1,5.148,7.1Zm.021-2.436c-1.229,0-1.992-1.525-1.97-4.7,0-3.114.763-4.661,1.97-4.661,1.292,0,1.949,1.61,1.949,4.661,0,3.136-.678,4.7-1.928,4.7Zm6.969-4.685a6.5,6.5,0,0,0,.853,0,4.727,4.727,0,0,0,3.09-1.125,4.816,4.816,0,0,0,1.4-3.7c0-1.878-.976-3.46-3.04-3.46a2.92,2.92,0,0,0-3.028,2.892,2.4,2.4,0,0,0,2.5,2.509,2.181,2.181,0,0,0,1.631-.581l.025.012a2.363,2.363,0,0,1-1.013,1.483,3.113,3.113,0,0,1-1.594.494,3.554,3.554,0,0,1-.816,0ZM159-13.8c.853,0,1.186.84,1.174,1.693a.986.986,0,0,1-.087.482,1.207,1.207,0,0,1-1.063.519,1.151,1.151,0,0,1-1.137-1.285c0-.84.47-1.409,1.1-1.409ZM163.8,0h3.136V-6.017a2.179,2.179,0,0,1,.127-.826,1.648,1.648,0,0,1,1.5-1.144c1.038,0,1.5.89,1.5,2.182V0h3.136V-6.059a3.354,3.354,0,0,1,.106-.805,1.6,1.6,0,0,1,1.5-1.123c1.038,0,1.525.869,1.525,2.373V0h3.136V-6.1c0-3.093-1.5-4.492-3.5-4.492a3.945,3.945,0,0,0-1.97.508,4.506,4.506,0,0,0-1.356,1.271h-.042a2.932,2.932,0,0,0-2.839-1.78,3.585,3.585,0,0,0-3.136,1.653h-.064l-.127-1.42h-2.733c.042.932.085,2.013.085,3.305Zm17.4-7.42a4.895,4.895,0,0,0,2.385.556c2.039,0,3.287-1.038,3.287-2.447a2,2,0,0,0-1.743-1.965V-11.3a1.914,1.914,0,0,0,1.471-1.866c0-1.1-.952-2-2.657-2a5,5,0,0,0-2.484.606l.383,1.359a3.565,3.565,0,0,1,1.668-.482c.8,0,1.186.358,1.186.84,0,.68-.791.927-1.421.927h-.729v1.347h.766c.816,0,1.607.358,1.607,1.162,0,.593-.494,1.063-1.471,1.063a4.252,4.252,0,0,1-1.866-.494Z" transform="translate(435 1698)"/>
    <path id="Trazado_24128" data-name="Trazado 24128" d="M9.682-13.962a6.78,6.78,0,0,0-1.292.021,8.178,8.178,0,0,0-5.3,2.013A8.262,8.262,0,0,0,.636-5.784C.636-2.5,2.436.233,6.123.233a4.927,4.927,0,0,0,5.064-4.979A4.18,4.18,0,0,0,6.928-9.237,3.985,3.985,0,0,0,4-8.157H3.941c.36-1.589,1.631-3.072,4.492-3.284a8.852,8.852,0,0,1,1.25-.042ZM6.059-2.14C4.6-2.14,3.9-3.453,3.835-4.915a1.691,1.691,0,0,1,.148-.826A2.063,2.063,0,0,1,5.869-6.949,2.1,2.1,0,0,1,7.924-4.576c0,1.4-.72,2.436-1.843,2.436ZM16.759,0h3.114V-13.771H17.225L13.56-12.076l.53,2.415,2.627-1.25h.042ZM33.2-13.962a6.78,6.78,0,0,0-1.292.021,8.178,8.178,0,0,0-5.3,2.013,8.262,8.262,0,0,0-2.458,6.144c0,3.284,1.8,6.017,5.487,6.017A4.927,4.927,0,0,0,34.7-4.746a4.18,4.18,0,0,0-4.259-4.492,3.985,3.985,0,0,0-2.924,1.081h-.064c.36-1.589,1.631-3.072,4.492-3.284a8.852,8.852,0,0,1,1.25-.042ZM29.577-2.14c-1.462,0-2.161-1.314-2.225-2.775a1.691,1.691,0,0,1,.148-.826,2.063,2.063,0,0,1,1.886-1.208,2.1,2.1,0,0,1,2.055,2.373c0,1.4-.72,2.436-1.843,2.436ZM41.145.233c3.475,0,5.191-2.945,5.191-7.182,0-3.771-1.462-7.055-5.127-7.055-3.559,0-5.233,3.136-5.233,7.14.021,3.9,1.589,7.1,5.148,7.1ZM41.166-2.2c-1.229,0-1.992-1.525-1.97-4.7,0-3.114.763-4.661,1.97-4.661,1.292,0,1.949,1.61,1.949,4.661,0,3.136-.678,4.7-1.928,4.7ZM52.9.233c3.475,0,5.191-2.945,5.191-7.182,0-3.771-1.462-7.055-5.127-7.055-3.559,0-5.233,3.136-5.233,7.14.021,3.9,1.589,7.1,5.148,7.1ZM52.925-2.2c-1.229,0-1.992-1.525-1.97-4.7,0-3.114.763-4.661,1.97-4.661,1.292,0,1.949,1.61,1.949,4.661,0,3.136-.678,4.7-1.928,4.7ZM64.662.233c3.475,0,5.191-2.945,5.191-7.182,0-3.771-1.462-7.055-5.127-7.055-3.559,0-5.233,3.136-5.233,7.14.021,3.9,1.589,7.1,5.148,7.1ZM64.683-2.2c-1.229,0-1.992-1.525-1.97-4.7,0-3.114.763-4.661,1.97-4.661,1.292,0,1.949,1.61,1.949,4.661,0,3.136-.678,4.7-1.928,4.7ZM76.421.233c3.475,0,5.191-2.945,5.191-7.182,0-3.771-1.462-7.055-5.127-7.055-3.559,0-5.233,3.136-5.233,7.14.021,3.9,1.589,7.1,5.148,7.1ZM76.442-2.2c-1.229,0-1.992-1.525-1.97-4.7,0-3.114.763-4.661,1.97-4.661,1.292,0,1.949,1.61,1.949,4.661,0,3.136-.678,4.7-1.928,4.7ZM83.73-14.28V0h3.22V-5.953h5.318V0h3.22V-14.28h-3.22v5.509H86.951V-14.28ZM98.2,0h3.136V-6.017a2.179,2.179,0,0,1,.127-.826,1.648,1.648,0,0,1,1.5-1.144c1.038,0,1.5.89,1.5,2.182V0h3.136V-6.059a3.353,3.353,0,0,1,.106-.805,1.6,1.6,0,0,1,1.5-1.123c1.038,0,1.525.869,1.525,2.373V0h3.136V-6.1c0-3.093-1.5-4.492-3.5-4.492a3.945,3.945,0,0,0-1.97.508,4.506,4.506,0,0,0-1.356,1.271h-.042a2.932,2.932,0,0,0-2.839-1.78,3.585,3.585,0,0,0-3.136,1.653h-.064l-.127-1.42H98.116c.042.932.085,2.013.085,3.305Zm17.4-7.42a4.895,4.895,0,0,0,2.385.556c2.039,0,3.287-1.038,3.287-2.447a2,2,0,0,0-1.743-1.965V-11.3A1.914,1.914,0,0,0,121-13.167c0-1.1-.952-2-2.657-2a5,5,0,0,0-2.484.606l.383,1.359a3.565,3.565,0,0,1,1.668-.482c.8,0,1.186.358,1.186.84,0,.68-.791.927-1.421.927h-.729v1.347h.766c.816,0,1.607.358,1.607,1.162,0,.593-.494,1.063-1.471,1.063a4.252,4.252,0,0,1-1.866-.494Zm14.924-7.093-1.229,3.242h-.042l-1.165-3.242L126.2-13.432l2.225,2.67v.042L125.12-11.4v2.14l3.326-.593.021.042L126.2-7.161l1.822,1.1,1.208-3.263.042-.021L130.5-6.059l1.864-1.1-2.288-2.606v-.064l3.411.572V-11.4l-3.39.678v-.042l2.267-2.691ZM139.675,0h3.136V-6.017a2.179,2.179,0,0,1,.127-.826,1.648,1.648,0,0,1,1.5-1.144c1.038,0,1.5.89,1.5,2.182V0h3.136V-6.059a3.354,3.354,0,0,1,.106-.805,1.6,1.6,0,0,1,1.5-1.123c1.038,0,1.525.869,1.525,2.373V0h3.136V-6.1c0-3.093-1.5-4.492-3.5-4.492a3.945,3.945,0,0,0-1.97.508,4.506,4.506,0,0,0-1.356,1.271h-.042a2.932,2.932,0,0,0-2.839-1.78,3.585,3.585,0,0,0-3.136,1.653h-.064l-.127-1.42h-2.733c.042.932.085,2.013.085,3.305Zm17.4-7.42a4.895,4.895,0,0,0,2.385.556c2.039,0,3.287-1.038,3.287-2.447A2,2,0,0,0,161-11.276V-11.3a1.914,1.914,0,0,0,1.471-1.866c0-1.1-.952-2-2.657-2a5,5,0,0,0-2.484.606l.383,1.359a3.565,3.565,0,0,1,1.668-.482c.8,0,1.186.358,1.186.84,0,.68-.791.927-1.421.927h-.729v1.347h.766c.816,0,1.607.358,1.607,1.162,0,.593-.494,1.063-1.471,1.063a4.252,4.252,0,0,1-1.866-.494Z" transform="translate(691 1698)"/>
    <path id="Trazado_24134" data-name="Trazado 24134" d="M.148-10.36,3.581-5.3.064,0H3.6l.975-1.864c.254-.508.53-1.017.784-1.589h.064a13.959,13.959,0,0,0,.805,1.589L7.267,0h3.644L7.458-5.424l3.411-4.937h-3.5L6.462-8.687c-.275.53-.53,1.038-.805,1.61H5.615c-.275-.508-.551-1.017-.847-1.547L3.75-10.36ZM27.056-6.886v-1.97H16.123v1.97Zm0,4.386V-4.47H16.123V-2.5Z" transform="translate(396 1712)"/>
    <path id="Trazado_24129" data-name="Trazado 24129" d="M11.78-6.886v-1.97H.847v1.97Zm0,4.386V-4.47H.847V-2.5ZM47.988-13.962a6.78,6.78,0,0,0-1.292.021,8.178,8.178,0,0,0-5.3,2.013,8.262,8.262,0,0,0-2.458,6.144c0,3.284,1.8,6.017,5.487,6.017a4.927,4.927,0,0,0,5.064-4.979,4.18,4.18,0,0,0-4.259-4.492A3.985,3.985,0,0,0,42.31-8.157h-.064c.36-1.589,1.631-3.072,4.492-3.284a8.852,8.852,0,0,1,1.25-.042ZM44.365-2.14c-1.462,0-2.161-1.314-2.225-2.775a1.691,1.691,0,0,1,.148-.826,2.063,2.063,0,0,1,1.886-1.208A2.1,2.1,0,0,1,46.23-4.576c0,1.4-.72,2.436-1.843,2.436ZM55.065,0h3.114V-13.771H55.531l-3.665,1.695.53,2.415,2.627-1.25h.042ZM71.505-13.962a6.78,6.78,0,0,0-1.292.021,8.178,8.178,0,0,0-5.3,2.013,8.262,8.262,0,0,0-2.458,6.144c0,3.284,1.8,6.017,5.487,6.017A4.927,4.927,0,0,0,73.01-4.746a4.18,4.18,0,0,0-4.259-4.492,3.985,3.985,0,0,0-2.924,1.081h-.064c.36-1.589,1.631-3.072,4.492-3.284a8.852,8.852,0,0,1,1.25-.042ZM67.883-2.14c-1.462,0-2.161-1.314-2.225-2.775a1.691,1.691,0,0,1,.148-.826,2.063,2.063,0,0,1,1.886-1.208,2.1,2.1,0,0,1,2.055,2.373c0,1.4-.72,2.436-1.843,2.436ZM79.451.233c3.475,0,5.191-2.945,5.191-7.182,0-3.771-1.462-7.055-5.127-7.055-3.559,0-5.233,3.136-5.233,7.14.021,3.9,1.589,7.1,5.148,7.1ZM79.472-2.2c-1.229,0-1.992-1.525-1.97-4.7,0-3.114.763-4.661,1.97-4.661,1.292,0,1.949,1.61,1.949,4.661,0,3.136-.678,4.7-1.928,4.7ZM90.913,0h3.136V-6.017a2.179,2.179,0,0,1,.127-.826,1.648,1.648,0,0,1,1.5-1.144c1.038,0,1.5.89,1.5,2.182V0h3.136V-6.059a3.353,3.353,0,0,1,.106-.805,1.6,1.6,0,0,1,1.5-1.123c1.038,0,1.525.869,1.525,2.373V0h3.136V-6.1c0-3.093-1.5-4.492-3.5-4.492a3.945,3.945,0,0,0-1.97.508,4.506,4.506,0,0,0-1.356,1.271h-.042a2.932,2.932,0,0,0-2.839-1.78,3.585,3.585,0,0,0-3.136,1.653h-.064l-.127-1.42H90.828c.042.932.085,2.013.085,3.305Zm17.4-7.42a4.895,4.895,0,0,0,2.385.556c2.039,0,3.287-1.038,3.287-2.447a2,2,0,0,0-1.743-1.965V-11.3a1.914,1.914,0,0,0,1.471-1.866c0-1.1-.952-2-2.657-2a5,5,0,0,0-2.484.606l.383,1.359a3.565,3.565,0,0,1,1.668-.482c.8,0,1.186.358,1.186.84,0,.68-.791.927-1.421.927h-.729v1.347h.766c.816,0,1.607.358,1.607,1.162,0,.593-.494,1.063-1.471,1.063a4.252,4.252,0,0,1-1.866-.494Z" transform="translate(890 1712)"/>
    <path id="Trazado_24130" data-name="Trazado 24130" d="M.148-10.36,3.581-5.3.064,0H3.6l.975-1.864c.254-.508.53-1.017.784-1.589h.064a13.959,13.959,0,0,0,.805,1.589L7.267,0h3.644L7.458-5.424l3.411-4.937h-3.5L6.462-8.687c-.275.53-.53,1.038-.805,1.61H5.615c-.275-.508-.551-1.017-.847-1.547L3.75-10.36Z" transform="translate(648 1712)"/>
    <path id="Trazado_24133" data-name="Trazado 24133" d="M5,0H8.115V-13.771H5.466L1.8-12.076l.53,2.415,2.627-1.25H5ZM17.627.233c3.475,0,5.191-2.945,5.191-7.182,0-3.771-1.462-7.055-5.127-7.055-3.559,0-5.233,3.136-5.233,7.14.021,3.9,1.589,7.1,5.148,7.1ZM17.649-2.2c-1.229,0-1.992-1.525-1.97-4.7,0-3.114.763-4.661,1.97-4.661,1.292,0,1.949,1.61,1.949,4.661,0,3.136-.678,4.7-1.928,4.7ZM23.987-7.42a4.895,4.895,0,0,0,2.385.556c2.039,0,3.287-1.038,3.287-2.447a2,2,0,0,0-1.743-1.965V-11.3a1.914,1.914,0,0,0,1.471-1.866c0-1.1-.952-2-2.657-2a5,5,0,0,0-2.484.606L24.63-13.2a3.565,3.565,0,0,1,1.668-.482c.8,0,1.186.358,1.186.84,0,.68-.791.927-1.421.927h-.729v1.347H26.1c.816,0,1.607.358,1.607,1.162,0,.593-.494,1.063-1.471,1.063a4.252,4.252,0,0,1-1.866-.494ZM31.8-14.28V0h3.22V-5.953h5.318V0h3.22V-14.28h-3.22v5.509H35.016V-14.28ZM46.266,0H49.4V-6.017a2.179,2.179,0,0,1,.127-.826,1.648,1.648,0,0,1,1.5-1.144c1.038,0,1.5.89,1.5,2.182V0h3.136V-6.059a3.353,3.353,0,0,1,.106-.805,1.6,1.6,0,0,1,1.5-1.123c1.038,0,1.525.869,1.525,2.373V0h3.136V-6.1c0-3.093-1.5-4.492-3.5-4.492a3.945,3.945,0,0,0-1.97.508,4.506,4.506,0,0,0-1.356,1.271H55.08a2.932,2.932,0,0,0-2.839-1.78,3.585,3.585,0,0,0-3.136,1.653h-.064l-.127-1.42H46.182c.042.932.085,2.013.085,3.305Zm17.4-7.42a4.895,4.895,0,0,0,2.385.556c2.039,0,3.287-1.038,3.287-2.447a2,2,0,0,0-1.743-1.965V-11.3a1.914,1.914,0,0,0,1.471-1.866c0-1.1-.952-2-2.657-2a5,5,0,0,0-2.484.606l.383,1.359a3.565,3.565,0,0,1,1.668-.482c.8,0,1.186.358,1.186.84,0,.68-.791.927-1.421.927h-.729v1.347h.766c.816,0,1.607.358,1.607,1.162,0,.593-.494,1.063-1.471,1.063a4.252,4.252,0,0,1-1.866-.494Z" transform="translate(494 1727)"/>
    <path id="Trazado_24131" data-name="Trazado 24131" d="M5,0H8.115V-13.771H5.466L1.8-12.076l.53,2.415,2.627-1.25H5ZM17.627.233c3.475,0,5.191-2.945,5.191-7.182,0-3.771-1.462-7.055-5.127-7.055-3.559,0-5.233,3.136-5.233,7.14.021,3.9,1.589,7.1,5.148,7.1ZM17.649-2.2c-1.229,0-1.992-1.525-1.97-4.7,0-3.114.763-4.661,1.97-4.661,1.292,0,1.949,1.61,1.949,4.661,0,3.136-.678,4.7-1.928,4.7ZM29.386.233c3.475,0,5.191-2.945,5.191-7.182,0-3.771-1.462-7.055-5.127-7.055-3.559,0-5.233,3.136-5.233,7.14.021,3.9,1.589,7.1,5.148,7.1ZM29.407-2.2c-1.229,0-1.992-1.525-1.97-4.7,0-3.114.763-4.661,1.97-4.661,1.292,0,1.949,1.61,1.949,4.661,0,3.136-.678,4.7-1.928,4.7ZM41.145.233c3.475,0,5.191-2.945,5.191-7.182,0-3.771-1.462-7.055-5.127-7.055-3.559,0-5.233,3.136-5.233,7.14.021,3.9,1.589,7.1,5.148,7.1ZM41.166-2.2c-1.229,0-1.992-1.525-1.97-4.7,0-3.114.763-4.661,1.97-4.661,1.292,0,1.949,1.61,1.949,4.661,0,3.136-.678,4.7-1.928,4.7ZM52.9.233c3.475,0,5.191-2.945,5.191-7.182,0-3.771-1.462-7.055-5.127-7.055-3.559,0-5.233,3.136-5.233,7.14.021,3.9,1.589,7.1,5.148,7.1ZM52.925-2.2c-1.229,0-1.992-1.525-1.97-4.7,0-3.114.763-4.661,1.97-4.661,1.292,0,1.949,1.61,1.949,4.661,0,3.136-.678,4.7-1.928,4.7ZM60.213-14.28V0h3.22V-5.953h5.318V0h3.22V-14.28h-3.22v5.509H63.433V-14.28ZM74.684,0h3.136V-6.017a2.179,2.179,0,0,1,.127-.826,1.648,1.648,0,0,1,1.5-1.144c1.038,0,1.5.89,1.5,2.182V0H84.09V-6.059a3.353,3.353,0,0,1,.106-.805,1.6,1.6,0,0,1,1.5-1.123c1.038,0,1.525.869,1.525,2.373V0h3.136V-6.1c0-3.093-1.5-4.492-3.5-4.492a3.945,3.945,0,0,0-1.97.508A4.506,4.506,0,0,0,83.54-8.814H83.5a2.932,2.932,0,0,0-2.839-1.78,3.585,3.585,0,0,0-3.136,1.653h-.064l-.127-1.42H74.6c.042.932.085,2.013.085,3.305Zm17.4-7.42a4.895,4.895,0,0,0,2.385.556c2.039,0,3.287-1.038,3.287-2.447a2,2,0,0,0-1.743-1.965V-11.3a1.914,1.914,0,0,0,1.471-1.866c0-1.1-.952-2-2.657-2a5,5,0,0,0-2.484.606l.383,1.359a3.565,3.565,0,0,1,1.668-.482c.8,0,1.186.358,1.186.84,0,.68-.791.927-1.421.927h-.729v1.347h.766c.816,0,1.607.358,1.607,1.162,0,.593-.494,1.063-1.471,1.063a4.252,4.252,0,0,1-1.866-.494Z" transform="translate(723 1727)"/>
    <path id="Trazado_23566" data-name="Trazado 23566" d="M4124,2212h188" transform="translate(-3688.5 -506)" fill="none" stroke="#0d468f" stroke-width="2"/>
    <path id="Trazado_23574" data-name="Trazado 23574" d="M4124,2212h188" transform="translate(-3445.5 -506)" fill="none" stroke="#0d468f" stroke-width="2"/>
    <path id="Trazado_23575" data-name="Trazado 23575" d="M4380.789,2154.316l39.585-39.585" transform="translate(-3604 -412)" fill="none" stroke="#ff9100" stroke-width="2"/>
    <path id="Trazado_24126" data-name="Trazado 24126" d="M4380.789,2154.316l39.585-39.585" transform="translate(-3653 -412)" fill="none" stroke="#2ec8ee" stroke-width="2"/>
    <path id="Trazado_23576" data-name="Trazado 23576" d="M4380.789,2154.316l39.585-39.585" transform="translate(-3604 -440)" fill="none" stroke="#ff9100" stroke-width="2"/>
    <path id="Trazado_24125" data-name="Trazado 24125" d="M4380.789,2154.316l39.585-39.585" transform="translate(-3662 -440)" fill="none" stroke="#2ec8ee" stroke-width="2"/>
  </g>
</svg>
