<svg xmlns="http://www.w3.org/2000/svg" width="360.211" height="117.848" viewBox="0 0 360.211 117.848">
  <g id="Grupo_14556" data-name="Grupo 14556" transform="translate(-12904 -1974)">
    <path id="Trazado_24115" data-name="Trazado 24115" d="M0,0H360.211V117.848H0Z" transform="translate(12904 1974)" fill="#d5f4fc"/>
    <path id="Trazado_24116" data-name="Trazado 24116" d="M-22.063,0h3.114V-13.771H-21.6l-3.665,1.695.53,2.415,2.627-1.25h.042ZM-9.627,0h3.2V-4.661l1.208-1.5L-1.7,0h3.75L-2.91-8.2,1.814-14.28H-2.169l-3.22,4.746c-.339.508-.678,1.017-1,1.568h-.042V-14.28h-3.2Zm12.9,0H6.412V-6.017a2.179,2.179,0,0,1,.127-.826,1.648,1.648,0,0,1,1.5-1.144c1.038,0,1.5.89,1.5,2.182V0h3.136V-6.059a3.353,3.353,0,0,1,.106-.805,1.6,1.6,0,0,1,1.5-1.123c1.038,0,1.525.869,1.525,2.373V0h3.136V-6.1c0-3.093-1.5-4.492-3.5-4.492a3.945,3.945,0,0,0-1.97.508,4.506,4.506,0,0,0-1.356,1.271H12.09a2.932,2.932,0,0,0-2.839-1.78A3.585,3.585,0,0,0,6.115-8.941H6.052l-.127-1.42H3.191c.042.932.085,2.013.085,3.305ZM26.433-7V-8.545h-3.04v-.025l.741-.618c1.174-1.038,2.138-2.113,2.138-3.46,0-1.458-.989-2.521-2.818-2.521a4.407,4.407,0,0,0-2.62.828l.531,1.335a2.985,2.985,0,0,1,1.718-.655c.927,0,1.31.519,1.31,1.174-.012.939-.865,1.841-2.632,3.423l-1.026.927V-7ZM-22.858,11.653h-7.585l-.89,7.225a11.419,11.419,0,0,1,1.843-.127c2.754,0,3.877.869,3.877,2.288,0,1.462-1.42,2.1-2.754,2.1a7.705,7.705,0,0,1-3.093-.678l-.593,2.415a8.752,8.752,0,0,0,3.835.784c3.708,0,5.911-2.267,5.911-4.831a3.92,3.92,0,0,0-1.674-3.453,6.253,6.253,0,0,0-3.623-1c-.339,0-.593.021-.89.042l.3-2.119h5.339Zm7.543,14c3.475,0,5.191-2.945,5.191-7.182,0-3.771-1.462-7.055-5.127-7.055-3.559,0-5.233,3.136-5.233,7.14.021,3.9,1.589,7.1,5.148,7.1Zm.021-2.436c-1.229,0-1.992-1.525-1.97-4.7,0-3.114.763-4.661,1.97-4.661,1.292,0,1.949,1.61,1.949,4.661,0,3.136-.678,4.7-1.928,4.7Zm11.547,2.2h3.2V20.763l1.208-1.5,3.517,6.165h3.75l-4.958-8.2,4.725-6.081H3.711L.49,15.89c-.339.508-.678,1.017-1,1.568H-.548V11.144h-3.2Zm12.9,0h3.136V19.407a2.179,2.179,0,0,1,.127-.826,1.648,1.648,0,0,1,1.5-1.144c1.038,0,1.5.89,1.5,2.182v5.805h3.136V19.365a3.353,3.353,0,0,1,.106-.805,1.6,1.6,0,0,1,1.5-1.123c1.038,0,1.525.869,1.525,2.373v5.615h3.136v-6.1c0-3.093-1.5-4.492-3.5-4.492a3.945,3.945,0,0,0-1.97.508,4.506,4.506,0,0,0-1.356,1.271h-.042a2.932,2.932,0,0,0-2.839-1.78,3.585,3.585,0,0,0-3.136,1.653h-.064l-.127-1.42H9.071c.042.932.085,2.013.085,3.305Zm23.157-7V16.879h-3.04v-.025l.741-.618c1.174-1.038,2.138-2.113,2.138-3.46,0-1.458-.989-2.521-2.818-2.521a4.407,4.407,0,0,0-2.62.828l.531,1.335a2.985,2.985,0,0,1,1.718-.655c.927,0,1.31.519,1.31,1.174-.012.939-.865,1.841-2.632,3.423l-1.026.927v1.137Z" transform="translate(13017 2025)"/>
    <path id="Trazado_24117" data-name="Trazado 24117" d="M-24.868,0h3.114V-13.771H-24.4l-3.665,1.695.53,2.415,2.627-1.25h.042ZM-12.24.233c3.475,0,5.191-2.945,5.191-7.182C-7.05-10.721-8.511-14-12.177-14c-3.559,0-5.233,3.136-5.233,7.14.021,3.9,1.589,7.1,5.148,7.1Zm.021-2.436c-1.229,0-1.992-1.525-1.97-4.7,0-3.114.763-4.661,1.97-4.661,1.292,0,1.949,1.61,1.949,4.661,0,3.136-.678,4.7-1.928,4.7ZM-.7-15.144a3.955,3.955,0,0,0-.754.012,4.77,4.77,0,0,0-3.09,1.174A4.819,4.819,0,0,0-5.98-10.374c0,1.916,1.05,3.51,3.2,3.51a2.874,2.874,0,0,0,2.954-2.9,2.438,2.438,0,0,0-2.484-2.62,2.324,2.324,0,0,0-1.705.63h-.037a2.562,2.562,0,0,1,2.62-1.916A5.164,5.164,0,0,1-.7-13.7Zm-2.113,6.9c-.853,0-1.261-.766-1.3-1.619a.986.986,0,0,1,.087-.482,1.2,1.2,0,0,1,1.1-.7,1.228,1.228,0,0,1,1.2,1.384c0,.816-.42,1.421-1.075,1.421ZM6.081,0H9.216V-6.017a2.179,2.179,0,0,1,.127-.826,1.648,1.648,0,0,1,1.5-1.144c1.038,0,1.5.89,1.5,2.182V0h3.136V-6.059a3.353,3.353,0,0,1,.106-.805,1.6,1.6,0,0,1,1.5-1.123c1.038,0,1.525.869,1.525,2.373V0h3.136V-6.1c0-3.093-1.5-4.492-3.5-4.492a3.945,3.945,0,0,0-1.97.508,4.506,4.506,0,0,0-1.356,1.271h-.042a2.932,2.932,0,0,0-2.839-1.78A3.585,3.585,0,0,0,8.92-8.941H8.856l-.127-1.42H6c.042.932.085,2.013.085,3.305ZM29.237-7V-8.545H26.2v-.025l.741-.618c1.174-1.038,2.138-2.113,2.138-3.46,0-1.458-.989-2.521-2.818-2.521a4.407,4.407,0,0,0-2.62.828l.531,1.335a2.985,2.985,0,0,1,1.718-.655c.927,0,1.31.519,1.31,1.174-.012.939-.865,1.841-2.632,3.423l-1.026.927V-7ZM1.028,20.784V20.4a3.73,3.73,0,0,1,1.081-2.648A5.288,5.288,0,0,0,3.93,14.174c0-1.737-1.292-3.284-4.068-3.284a7.2,7.2,0,0,0-3.538.869l.7,2.309a3.889,3.889,0,0,1,2.119-.636C.18,13.454.667,13.962.667,14.7a3.968,3.968,0,0,1-1.229,2.2,4.765,4.765,0,0,0-1.25,3.326l.042.551ZM-.434,25.657a1.824,1.824,0,0,0,1.886-1.928A1.83,1.83,0,0,0-.456,21.8a1.824,1.824,0,0,0-1.886,1.928A1.836,1.836,0,0,0-.456,25.657Z" transform="translate(13154 2025)"/>
    <path id="Trazado_24118" data-name="Trazado 24118" d="M0,0H30.98V1.766H0Z" transform="translate(13094.754 2020.665) rotate(180)" fill="#003b95"/>
    <g id="Grupo_14117" data-name="Grupo 14117" transform="translate(13096.668 2027.002) rotate(180)">
      <path id="Trazado_23503" data-name="Trazado 23503" d="M1448.356,221.492l1.2-1.293-6.377-5.926,6.377-5.928-1.2-1.293-7.765,7.221Z" transform="translate(-1440.591 -207.052)" fill="#003b95"/>
    </g>
    <path id="Trazado_24119" data-name="Trazado 24119" d="M0,0H30.98V1.766H0Z" transform="translate(13094.754 2047.665) rotate(180)" fill="#003b95"/>
    <g id="Grupo_14117-2" data-name="Grupo 14117" transform="translate(13096.668 2054.002) rotate(180)">
      <path id="Trazado_23503-2" data-name="Trazado 23503" d="M1448.356,221.492l1.2-1.293-6.377-5.926,6.377-5.928-1.2-1.293-7.765,7.221Z" transform="translate(-1440.591 -207.052)" fill="#003b95"/>
    </g>
  </g>
</svg>
