<svg xmlns="http://www.w3.org/2000/svg" width="746.211" height="145.848" viewBox="0 0 746.211 145.848">
  <g id="Grupo_14554" data-name="Grupo 14554" transform="translate(-327 -2371)">
    <path id="Trazado_24110" data-name="Trazado 24110" d="M0,0H746.211V145.848H0Z" transform="translate(327 2371)" fill="#d5f4fc"/>
    <path id="Trazado_24111" data-name="Trazado 24111" d="M-41.071-13.771h-7.585l-.89,7.225A11.419,11.419,0,0,1-47.7-6.674c2.754,0,3.877.869,3.877,2.288,0,1.462-1.42,2.1-2.754,2.1a7.705,7.705,0,0,1-3.093-.678l-.593,2.415a8.752,8.752,0,0,0,3.835.784c3.708,0,5.911-2.267,5.911-4.831a3.92,3.92,0,0,0-1.674-3.453,6.253,6.253,0,0,0-3.623-1c-.339,0-.593.021-.89.042l.3-2.119h5.339ZM-38.1,0h3.22V-6.144a1.864,1.864,0,0,1,.106-.7,1.7,1.7,0,0,1,1.61-1.144c1.208,0,1.674.932,1.674,2.288V0h3.22V-6.038c0-3.136-1.568-4.555-3.623-4.555a3.682,3.682,0,0,0-1.674.4A3.472,3.472,0,0,0-34.842-9.11h-.042v-5.953H-38.1Zm21.441-14.513-1.229,3.242h-.042L-19.1-14.513l-1.886,1.081,2.225,2.67v.042l-3.305-.678v2.14l3.326-.593.021.042-2.267,2.648,1.822,1.1,1.208-3.263.042-.021,1.229,3.284,1.864-1.1-2.288-2.606v-.064l3.411.572V-11.4l-3.39.678v-.042l2.267-2.691Zm17.543.551a6.78,6.78,0,0,0-1.292.021,8.178,8.178,0,0,0-5.3,2.013A8.262,8.262,0,0,0-8.168-5.784C-8.168-2.5-6.367.233-2.68.233A4.927,4.927,0,0,0,2.384-4.746,4.18,4.18,0,0,0-1.875-9.237,3.985,3.985,0,0,0-4.8-8.157h-.064c.36-1.589,1.631-3.072,4.492-3.284a8.852,8.852,0,0,1,1.25-.042ZM-2.744-2.14c-1.462,0-2.161-1.314-2.225-2.775a1.691,1.691,0,0,1,.148-.826A2.063,2.063,0,0,1-2.934-6.949,2.1,2.1,0,0,1-.879-4.576c0,1.4-.72,2.436-1.843,2.436ZM8.824.233c3.475,0,5.191-2.945,5.191-7.182,0-3.771-1.462-7.055-5.127-7.055-3.559,0-5.233,3.136-5.233,7.14.021,3.9,1.589,7.1,5.148,7.1ZM8.845-2.2c-1.229,0-1.992-1.525-1.97-4.7,0-3.114.763-4.661,1.97-4.661,1.292,0,1.949,1.61,1.949,4.661,0,3.136-.678,4.7-1.928,4.7ZM16.007,0h3.136V-6.017a2.179,2.179,0,0,1,.127-.826,1.648,1.648,0,0,1,1.5-1.144c1.038,0,1.5.89,1.5,2.182V0h3.136V-6.059a3.353,3.353,0,0,1,.106-.805,1.6,1.6,0,0,1,1.5-1.123c1.038,0,1.525.869,1.525,2.373V0h3.136V-6.1c0-3.093-1.5-4.492-3.5-4.492a3.945,3.945,0,0,0-1.97.508,4.506,4.506,0,0,0-1.356,1.271H24.82a2.932,2.932,0,0,0-2.839-1.78,3.585,3.585,0,0,0-3.136,1.653h-.064l-.127-1.42H15.922c.042.932.085,2.013.085,3.305ZM37.448,0V-10.36h-3.22V0Zm-1.61-11.632a1.6,1.6,0,0,0,1.716-1.61,1.593,1.593,0,0,0-1.695-1.61,1.6,1.6,0,0,0-1.716,1.61,1.587,1.587,0,0,0,1.674,1.61ZM40.032,0h3.22V-5.975a2.319,2.319,0,0,1,.106-.805,1.768,1.768,0,0,1,1.653-1.208c1.165,0,1.631.911,1.631,2.246V0h3.22V-6.123c0-3.051-1.589-4.47-3.708-4.47a3.721,3.721,0,0,0-3.2,1.674h-.064l-.148-1.441h-2.8c.042.932.085,2.013.085,3.305Z" transform="translate(662 2434.269)"/>
    <path id="Trazado_24112" data-name="Trazado 24112" d="M.148-10.36,3.581-5.3.064,0H3.6l.975-1.864c.254-.508.53-1.017.784-1.589h.064a13.959,13.959,0,0,0,.805,1.589L7.267,0h3.644L7.458-5.424l3.411-4.937h-3.5L6.462-8.687c-.275.53-.53,1.038-.805,1.61H5.615c-.275-.508-.551-1.017-.847-1.547L3.75-10.36ZM27.056-6.886v-1.97H16.123v1.97Zm0,4.386V-4.47H16.123V-2.5Z" transform="translate(529 2448.269)"/>
    <path id="Trazado_24113" data-name="Trazado 24113" d="M11.78-6.886v-1.97H.847v1.97Zm0,4.386V-4.47H.847V-2.5ZM21.992-.72a8.392,8.392,0,0,0,4.089.953c3.5,0,5.636-1.78,5.636-4.195a3.427,3.427,0,0,0-2.987-3.369v-.042a3.282,3.282,0,0,0,2.521-3.2C31.251-12.458,29.619-14,26.7-14a8.567,8.567,0,0,0-4.259,1.038l.657,2.331a6.112,6.112,0,0,1,2.86-.826c1.377,0,2.034.614,2.034,1.441,0,1.165-1.356,1.589-2.436,1.589H24.3v2.309h1.314c1.4,0,2.754.614,2.754,1.992,0,1.017-.847,1.822-2.521,1.822a7.29,7.29,0,0,1-3.2-.847ZM38.814.233c3.475,0,5.191-2.945,5.191-7.182,0-3.771-1.462-7.055-5.127-7.055-3.559,0-5.233,3.136-5.233,7.14.021,3.9,1.589,7.1,5.148,7.1ZM38.835-2.2c-1.229,0-1.992-1.525-1.97-4.7,0-3.114.763-4.661,1.97-4.661,1.292,0,1.949,1.61,1.949,4.661,0,3.136-.678,4.7-1.928,4.7ZM50.573.233c3.475,0,5.191-2.945,5.191-7.182C55.764-10.721,54.3-14,50.636-14c-3.559,0-5.233,3.136-5.233,7.14.021,3.9,1.589,7.1,5.148,7.1ZM50.594-2.2c-1.229,0-1.992-1.525-1.97-4.7,0-3.114.763-4.661,1.97-4.661,1.292,0,1.949,1.61,1.949,4.661,0,3.136-.678,4.7-1.928,4.7ZM62.035,0h3.136V-6.017a2.179,2.179,0,0,1,.127-.826,1.648,1.648,0,0,1,1.5-1.144c1.038,0,1.5.89,1.5,2.182V0h3.136V-6.059a3.353,3.353,0,0,1,.106-.805,1.6,1.6,0,0,1,1.5-1.123c1.038,0,1.525.869,1.525,2.373V0h3.136V-6.1c0-3.093-1.5-4.492-3.5-4.492a3.945,3.945,0,0,0-1.97.508,4.506,4.506,0,0,0-1.356,1.271h-.042a2.932,2.932,0,0,0-2.839-1.78,3.585,3.585,0,0,0-3.136,1.653H64.81l-.127-1.42H61.95c.042.932.085,2.013.085,3.305ZM83.476,0V-10.36h-3.22V0Zm-1.61-11.632a1.6,1.6,0,0,0,1.716-1.61,1.593,1.593,0,0,0-1.695-1.61,1.6,1.6,0,0,0-1.716,1.61,1.587,1.587,0,0,0,1.674,1.61ZM86.061,0h3.22V-5.975a2.319,2.319,0,0,1,.106-.805A1.768,1.768,0,0,1,91.04-7.987c1.165,0,1.631.911,1.631,2.246V0h3.22V-6.123c0-3.051-1.589-4.47-3.708-4.47a3.721,3.721,0,0,0-3.2,1.674h-.064l-.148-1.441h-2.8c.042.932.085,2.013.085,3.305Z" transform="translate(774 2448.269)"/>
    <path id="Trazado_24114" data-name="Trazado 24114" d="M-7.087,0h3.114V-13.771H-6.621l-3.665,1.695.53,2.415,2.627-1.25h.042ZM.964,0h3.22V-6.144a1.864,1.864,0,0,1,.106-.7A1.7,1.7,0,0,1,5.9-7.987c1.208,0,1.674.932,1.674,2.288V0h3.22V-6.038c0-3.136-1.568-4.555-3.623-4.555a3.682,3.682,0,0,0-1.674.4A3.472,3.472,0,0,0,4.227-9.11H4.184v-5.953H.964Z" transform="translate(662 2463.269)"/>
    <path id="Trazado_23566" data-name="Trazado 23566" d="M4124,2212h188" transform="translate(-3555.5 230.269)" fill="none" stroke="#0d468f" stroke-width="2"/>
    <path id="Trazado_23578" data-name="Trazado 23578" d="M4380.789,2154.316l39.585-39.585" transform="translate(-3770 293.269)" fill="none" stroke="#ff9100" stroke-width="2"/>
    <path id="Trazado_23579" data-name="Trazado 23579" d="M4380.789,2154.316l39.585-39.585" transform="translate(-3733 323.269)" fill="none" stroke="#ff9100" stroke-width="2"/>
  </g>
</svg>
