<svg xmlns="http://www.w3.org/2000/svg" width="862" height="93" viewBox="0 0 862 93">
  <g id="Grupo_14551" data-name="Grupo 14551" transform="translate(-269 -2243)">
    <path id="Trazado_24106" data-name="Trazado 24106" d="M0,0H862V93H0Z" transform="translate(269 2243)" fill="#d5f4fc"/>
    <path id="Trazado_24107" data-name="Trazado 24107" d="M-268.523,0l3.259-15.247-4.321,1.172.427-1.929,6.421-1.794L-266.5,0Zm14.856-8.826L-247.588,0h-2.551l-5.3-7.971q-.073-.134-.183-.33t-.171-.33h-.049L-257.659,0h-2.1l3.7-17.5h2.124l-1.746,8.228h.049q.134-.146.287-.305t.287-.293l8.044-7.629h2.783Zm13.074,8.777a4.678,4.678,0,0,1-.69.159,4.86,4.86,0,0,1-.763.061,2.49,2.49,0,0,1-1.843-.616A2.248,2.248,0,0,1-244.5-2.1a5.042,5.042,0,0,1,.061-.72q.061-.415.2-1.025l3.125-14.673h2.026L-242.229-3.8q-.11.513-.153.793a3.247,3.247,0,0,0-.043.476,1.006,1.006,0,0,0,.275.763,1.23,1.23,0,0,0,.873.262,3.7,3.7,0,0,0,.555-.037,2.461,2.461,0,0,0,.446-.11ZM-229.2-9.07v-1.636h11.475V-9.07Zm0,5.2V-5.505h11.475V-3.87ZM-202.715,0l3.259-15.247-4.321,1.172L-203.35-16l6.421-1.794L-200.689,0Zm21.265-12.622q0,.916-.085,1.91T-181.8-8.7a20.229,20.229,0,0,1-.47,2.008,15.839,15.839,0,0,1-.69,1.923,13,13,0,0,1-.922,1.752,9.246,9.246,0,0,1-1.166,1.5A5.647,5.647,0,0,1-189.275.305a4.233,4.233,0,0,1-1.813-.385A3.873,3.873,0,0,1-192.5-1.2a5.372,5.372,0,0,1-.909-1.819,8.674,8.674,0,0,1-.323-2.484,18.653,18.653,0,0,1,.22-2.8,17.348,17.348,0,0,1,.671-2.82,15.264,15.264,0,0,1,1.123-2.594,9.673,9.673,0,0,1,1.587-2.148,6.452,6.452,0,0,1,1.941-1.422,5.628,5.628,0,0,1,2.429-.507,4.573,4.573,0,0,1,1.77.33,3.621,3.621,0,0,1,1.361.983,4.5,4.5,0,0,1,.873,1.617A7.46,7.46,0,0,1-181.45-12.622Zm-2.026.171a4.86,4.86,0,0,0-.635-2.679,2.067,2.067,0,0,0-1.843-.97,3.037,3.037,0,0,0-1.355.311,4.614,4.614,0,0,0-1.245.934,7.05,7.05,0,0,0-.9,1.19,12.173,12.173,0,0,0-.769,1.489,15.707,15.707,0,0,0-.616,1.678q-.269.879-.458,1.758t-.287,1.721a13.719,13.719,0,0,0-.1,1.575,7.222,7.222,0,0,0,.2,1.825,3.822,3.822,0,0,0,.555,1.257,2.206,2.206,0,0,0,.836.726,2.349,2.349,0,0,0,1.031.232,3.059,3.059,0,0,0,1.294-.293,3.83,3.83,0,0,0,1.184-.879,7.869,7.869,0,0,0,1.208-1.8,16.074,16.074,0,0,0,.983-2.435,20.384,20.384,0,0,0,.665-2.789A17.253,17.253,0,0,0-183.477-12.451ZM-160.454,0h-2.1l1.672-7.9h-8.948L-171.477,0H-173.6l3.7-17.5h2.124l-1.648,7.678h8.948l1.648-7.678h2.1Zm8.728-.049a4.678,4.678,0,0,1-.69.159,4.86,4.86,0,0,1-.763.061,2.49,2.49,0,0,1-1.843-.616,2.248,2.248,0,0,1-.61-1.654,5.042,5.042,0,0,1,.061-.72q.061-.415.2-1.025l3.125-14.673h2.026L-153.362-3.8q-.11.513-.153.793a3.247,3.247,0,0,0-.043.476,1.006,1.006,0,0,0,.275.763,1.23,1.23,0,0,0,.873.262,3.7,3.7,0,0,0,.555-.037,2.461,2.461,0,0,0,.446-.11Zm11.389-9.021v-1.636h11.475V-9.07Zm0,5.2V-5.505h11.475V-3.87ZM-113.848,0l3.259-15.247-4.321,1.172.427-1.929,6.421-1.794L-111.821,0Zm21.265-12.622q0,.916-.085,1.91T-92.937-8.7a20.227,20.227,0,0,1-.47,2.008,15.841,15.841,0,0,1-.69,1.923,13,13,0,0,1-.922,1.752,9.246,9.246,0,0,1-1.166,1.5A5.647,5.647,0,0,1-100.408.305a4.233,4.233,0,0,1-1.813-.385A3.873,3.873,0,0,1-103.63-1.2a5.372,5.372,0,0,1-.909-1.819,8.673,8.673,0,0,1-.323-2.484,18.653,18.653,0,0,1,.22-2.8,17.347,17.347,0,0,1,.671-2.82,15.264,15.264,0,0,1,1.123-2.594,9.673,9.673,0,0,1,1.587-2.148,6.452,6.452,0,0,1,1.941-1.422,5.628,5.628,0,0,1,2.429-.507,4.573,4.573,0,0,1,1.77.33,3.621,3.621,0,0,1,1.361.983,4.5,4.5,0,0,1,.873,1.617A7.46,7.46,0,0,1-92.583-12.622Zm-2.026.171a4.86,4.86,0,0,0-.635-2.679,2.067,2.067,0,0,0-1.843-.97,3.037,3.037,0,0,0-1.355.311,4.613,4.613,0,0,0-1.245.934,7.05,7.05,0,0,0-.9,1.19,12.173,12.173,0,0,0-.769,1.489,15.709,15.709,0,0,0-.616,1.678q-.269.879-.458,1.758t-.287,1.721a13.721,13.721,0,0,0-.1,1.575,7.222,7.222,0,0,0,.2,1.825,3.822,3.822,0,0,0,.555,1.257,2.206,2.206,0,0,0,.836.726,2.349,2.349,0,0,0,1.031.232A3.059,3.059,0,0,0-98.894-1.7a3.83,3.83,0,0,0,1.184-.879,7.87,7.87,0,0,0,1.208-1.8,16.074,16.074,0,0,0,.983-2.435A20.383,20.383,0,0,0-94.854-9.6,17.254,17.254,0,0,0-94.609-12.451Zm8.544-3.5a1.382,1.382,0,0,0-.409-1.064,1.6,1.6,0,0,0-1.136-.381A3.575,3.575,0,0,0-89-17.1a4.484,4.484,0,0,0-1.3.847l.292-1.31a3.783,3.783,0,0,1,1.235-.641,5.3,5.3,0,0,1,1.449-.178,2.632,2.632,0,0,1,1.816.6,2.059,2.059,0,0,1,.676,1.62,3.7,3.7,0,0,1-.3,1.527,4.06,4.06,0,0,1-.943,1.271,12.573,12.573,0,0,1-1.894,1.4q-1.132.7-1.72,1.161a4.586,4.586,0,0,0-.872.84,2.422,2.422,0,0,0-.406.919h5.041L-86.144-8h-6.3l.107-.506a4.923,4.923,0,0,1,.552-1.481,5.077,5.077,0,0,1,1.029-1.2,17.551,17.551,0,0,1,2.044-1.467,12.13,12.13,0,0,0,1.57-1.139,3.69,3.69,0,0,0,.822-.99A2.45,2.45,0,0,0-86.066-15.946Zm18.519,5.522a12.808,12.808,0,0,1-.262,2.576,10.877,10.877,0,0,1-.806,2.441,9.32,9.32,0,0,1-1.4,2.148,8.642,8.642,0,0,1-2.039,1.715A10.189,10.189,0,0,1-74.767-.409,13.332,13.332,0,0,1-78.2,0h-5.542l3.723-17.5h4.871a9.535,9.535,0,0,1,3.113.482,6.709,6.709,0,0,1,2.4,1.4A6.277,6.277,0,0,1-68.1-13.4,7.635,7.635,0,0,1-67.547-10.425Zm-2.148.146a5.165,5.165,0,0,0-1.5-3.967,6.307,6.307,0,0,0-4.456-1.4h-2.673L-81.28-1.855h3.259A9.222,9.222,0,0,0-74.4-2.515a7.31,7.31,0,0,0,2.6-1.807A7.662,7.662,0,0,0-70.226-7,9.939,9.939,0,0,0-69.7-10.278ZM-61.773-.049a4.678,4.678,0,0,1-.69.159,4.86,4.86,0,0,1-.763.061,2.49,2.49,0,0,1-1.843-.616,2.248,2.248,0,0,1-.61-1.654,5.043,5.043,0,0,1,.061-.72q.061-.415.2-1.025L-62.3-18.518h2.026L-63.409-3.8q-.11.513-.153.793a3.248,3.248,0,0,0-.043.476,1.006,1.006,0,0,0,.275.763,1.23,1.23,0,0,0,.873.262,3.7,3.7,0,0,0,.555-.037,2.461,2.461,0,0,0,.446-.11ZM-50.384-9.07v-1.636h11.475V-9.07Zm0,5.2V-5.505h11.475V-3.87ZM-23.895,0l3.259-15.247-4.321,1.172L-24.529-16l6.421-1.794L-21.868,0ZM-2.63-12.622q0,.916-.085,1.91T-2.984-8.7A20.227,20.227,0,0,1-3.454-6.7a15.84,15.84,0,0,1-.69,1.923,13,13,0,0,1-.922,1.752,9.246,9.246,0,0,1-1.166,1.5A5.647,5.647,0,0,1-10.455.305a4.233,4.233,0,0,1-1.813-.385A3.873,3.873,0,0,1-13.677-1.2a5.372,5.372,0,0,1-.909-1.819,8.674,8.674,0,0,1-.323-2.484,18.653,18.653,0,0,1,.22-2.8,17.348,17.348,0,0,1,.671-2.82A15.264,15.264,0,0,1-12.9-13.721a9.673,9.673,0,0,1,1.587-2.148,6.452,6.452,0,0,1,1.941-1.422A5.628,5.628,0,0,1-6.939-17.8a4.573,4.573,0,0,1,1.77.33,3.621,3.621,0,0,1,1.361.983,4.5,4.5,0,0,1,.873,1.617A7.46,7.46,0,0,1-2.63-12.622Zm-2.026.171a4.86,4.86,0,0,0-.635-2.679,2.067,2.067,0,0,0-1.843-.97,3.037,3.037,0,0,0-1.355.311,4.613,4.613,0,0,0-1.245.934,7.05,7.05,0,0,0-.9,1.19,12.173,12.173,0,0,0-.769,1.489,15.708,15.708,0,0,0-.616,1.678q-.269.879-.458,1.758t-.287,1.721a13.72,13.72,0,0,0-.1,1.575,7.222,7.222,0,0,0,.2,1.825A3.822,3.822,0,0,0-12.1-2.362a2.206,2.206,0,0,0,.836.726,2.349,2.349,0,0,0,1.031.232A3.059,3.059,0,0,0-8.941-1.7a3.83,3.83,0,0,0,1.184-.879,7.87,7.87,0,0,0,1.208-1.8,16.074,16.074,0,0,0,.983-2.435A20.384,20.384,0,0,0-4.9-9.6,17.254,17.254,0,0,0-4.656-12.451ZM4.927-16.1a2.99,2.99,0,0,1-.157.972,2.366,2.366,0,0,1-.491.83,2.956,2.956,0,0,1-.854.637,4.394,4.394,0,0,1-1.239.4v.028a2.376,2.376,0,0,1,.783.256,2.144,2.144,0,0,1,.609.484,2.143,2.143,0,0,1,.392.669A2.354,2.354,0,0,1,4.108-11,3.215,3.215,0,0,1,3.873-9.78a2.748,2.748,0,0,1-.716,1.011,3.529,3.529,0,0,1-1.2.691,5.082,5.082,0,0,1-1.7.256,5.482,5.482,0,0,1-.769-.053,7.1,7.1,0,0,1-.708-.135A5.625,5.625,0,0,1-1.83-8.2a3.888,3.888,0,0,1-.477-.21l.249-1.111A3.786,3.786,0,0,0-1.6-9.26a4.226,4.226,0,0,0,.577.224,5.384,5.384,0,0,0,.648.157A3.813,3.813,0,0,0,.3-8.819,3.74,3.74,0,0,0,1.552-9a2.242,2.242,0,0,0,.812-.477,1.673,1.673,0,0,0,.434-.676,2.429,2.429,0,0,0,.128-.78A1.619,1.619,0,0,0,2.3-12.276a3.025,3.025,0,0,0-1.894-.495H-.371l.221-1H.7A5.138,5.138,0,0,0,2-13.924a2.9,2.9,0,0,0,.951-.424,1.8,1.8,0,0,0,.58-.666,1.931,1.931,0,0,0,.2-.876,1.685,1.685,0,0,0-.1-.58,1.248,1.248,0,0,0-.31-.477,1.535,1.535,0,0,0-.527-.324,2.126,2.126,0,0,0-.758-.121,4.357,4.357,0,0,0-.694.053,5.121,5.121,0,0,0-.623.139,4.789,4.789,0,0,0-.541.192,4.837,4.837,0,0,0-.441.214l.242-1.168q.185-.071.413-.146A5.134,5.134,0,0,1,.9-18.243q.278-.061.612-.1a6.336,6.336,0,0,1,.733-.039,3.343,3.343,0,0,1,1.225.2,2.438,2.438,0,0,1,.833.523,1.979,1.979,0,0,1,.477.733A2.4,2.4,0,0,1,4.927-16.1ZM10.382-.049a4.678,4.678,0,0,1-.69.159A4.86,4.86,0,0,1,8.93.171,2.49,2.49,0,0,1,7.086-.446,2.248,2.248,0,0,1,6.476-2.1a5.043,5.043,0,0,1,.061-.72q.061-.415.2-1.025L9.857-18.518h2.026L8.747-3.8q-.11.513-.153.793a3.248,3.248,0,0,0-.043.476,1.006,1.006,0,0,0,.275.763A1.23,1.23,0,0,0,9.7-1.5a3.7,3.7,0,0,0,.555-.037,2.461,2.461,0,0,0,.446-.11ZM21.771-9.07v-1.636H33.246V-9.07Zm0,5.2V-5.505H33.246V-3.87ZM48.261,0,51.52-15.247,47.2-14.075,47.626-16,54.047-17.8,50.287,0ZM69.525-12.622q0,.916-.085,1.91T69.171-8.7A20.227,20.227,0,0,1,68.7-6.7a15.841,15.841,0,0,1-.69,1.923,13,13,0,0,1-.922,1.752,9.246,9.246,0,0,1-1.166,1.5A5.647,5.647,0,0,1,61.7.305a4.233,4.233,0,0,1-1.813-.385A3.873,3.873,0,0,1,58.478-1.2a5.372,5.372,0,0,1-.909-1.819,8.674,8.674,0,0,1-.323-2.484,18.653,18.653,0,0,1,.22-2.8,17.348,17.348,0,0,1,.671-2.82,15.264,15.264,0,0,1,1.123-2.594,9.673,9.673,0,0,1,1.587-2.148,6.452,6.452,0,0,1,1.941-1.422,5.628,5.628,0,0,1,2.429-.507,4.573,4.573,0,0,1,1.77.33,3.621,3.621,0,0,1,1.361.983,4.5,4.5,0,0,1,.873,1.617A7.46,7.46,0,0,1,69.525-12.622Zm-2.026.171a4.86,4.86,0,0,0-.635-2.679,2.067,2.067,0,0,0-1.843-.97,3.037,3.037,0,0,0-1.355.311,4.613,4.613,0,0,0-1.245.934,7.05,7.05,0,0,0-.9,1.19,12.173,12.173,0,0,0-.769,1.489,15.708,15.708,0,0,0-.616,1.678q-.269.879-.458,1.758t-.287,1.721a13.72,13.72,0,0,0-.1,1.575,7.222,7.222,0,0,0,.2,1.825,3.822,3.822,0,0,0,.555,1.257,2.206,2.206,0,0,0,.836.726A2.349,2.349,0,0,0,61.92-1.4,3.059,3.059,0,0,0,63.214-1.7,3.83,3.83,0,0,0,64.4-2.576a7.87,7.87,0,0,0,1.208-1.8,16.074,16.074,0,0,0,.983-2.435A20.383,20.383,0,0,0,67.255-9.6,17.254,17.254,0,0,0,67.5-12.451Zm9.6-5.759-1.431,6.743h1.339L76.783-10.4H75.444L74.932-8H73.778l.513-2.4H69.5l.214-1.011a44.342,44.342,0,0,0,3.169-3.211q1.623-1.809,2.934-3.589Zm-2.585,6.743,1.04-4.892A51.644,51.644,0,0,1,71.1-11.468ZM95.331-3.845q-.085.391-.165.94t-.14,1.1q-.061.555-.1,1.044T94.879,0H92.8q0-.208.031-.555t.073-.726q.043-.378.092-.726t.085-.568h-.049a12.329,12.329,0,0,1-.879,1.251,5.087,5.087,0,0,1-.928.9,3.727,3.727,0,0,1-1.038.543,3.8,3.8,0,0,1-1.208.183A3.734,3.734,0,0,1,87.445,0a3.134,3.134,0,0,1-1.166-.9,4.135,4.135,0,0,1-.739-1.465,7.14,7.14,0,0,1-.256-2.008,9.882,9.882,0,0,1,.189-1.88,9.627,9.627,0,0,1,.586-1.917,8.982,8.982,0,0,1,1.007-1.782,6.942,6.942,0,0,1,1.453-1.477,6.888,6.888,0,0,1,1.929-1.007,7.462,7.462,0,0,1,2.429-.372,8.239,8.239,0,0,1,1.27.092q.586.092,1.013.189l1.27-5.981h1.978ZM94.806-10.8a7.864,7.864,0,0,0-.97-.214,6.986,6.986,0,0,0-1.08-.079,4.953,4.953,0,0,0-1.874.33,4.725,4.725,0,0,0-1.416.879,5.261,5.261,0,0,0-1.013,1.251,7.884,7.884,0,0,0-.659,1.44,8.2,8.2,0,0,0-.354,1.453,9.039,9.039,0,0,0-.1,1.288,6.171,6.171,0,0,0,.116,1.245,2.78,2.78,0,0,0,.378.964,1.808,1.808,0,0,0,.677.623,2.114,2.114,0,0,0,1,.22,2.591,2.591,0,0,0,1.141-.256,3.931,3.931,0,0,0,.995-.7,5.745,5.745,0,0,0,.842-1.013A9.829,9.829,0,0,0,93.17-4.59,10.848,10.848,0,0,0,93.689-5.9q.214-.665.348-1.276ZM102.96-.049a4.678,4.678,0,0,1-.69.159,4.86,4.86,0,0,1-.763.061,2.49,2.49,0,0,1-1.843-.616,2.248,2.248,0,0,1-.61-1.654,5.043,5.043,0,0,1,.061-.72q.061-.415.2-1.025l3.125-14.673h2.026L101.324-3.8q-.11.513-.153.793a3.248,3.248,0,0,0-.043.476,1.006,1.006,0,0,0,.275.763,1.23,1.23,0,0,0,.873.262,3.7,3.7,0,0,0,.555-.037,2.461,2.461,0,0,0,.446-.11ZM114.349-9.07v-1.636h11.475V-9.07Zm0,5.2V-5.505h11.475V-3.87ZM140.838,0,144.1-15.247l-4.321,1.172L140.2-16l6.421-1.794L142.865,0ZM162.1-12.622q0,.916-.085,1.91T161.749-8.7a20.229,20.229,0,0,1-.47,2.008,15.839,15.839,0,0,1-.69,1.923,13,13,0,0,1-.922,1.752,9.246,9.246,0,0,1-1.166,1.5A5.647,5.647,0,0,1,154.278.305a4.233,4.233,0,0,1-1.813-.385,3.873,3.873,0,0,1-1.41-1.123,5.372,5.372,0,0,1-.909-1.819,8.674,8.674,0,0,1-.323-2.484,18.653,18.653,0,0,1,.22-2.8,17.348,17.348,0,0,1,.671-2.82,15.264,15.264,0,0,1,1.123-2.594,9.673,9.673,0,0,1,1.587-2.148,6.452,6.452,0,0,1,1.941-1.422,5.628,5.628,0,0,1,2.429-.507,4.573,4.573,0,0,1,1.77.33,3.621,3.621,0,0,1,1.361.983,4.5,4.5,0,0,1,.873,1.617A7.46,7.46,0,0,1,162.1-12.622Zm-2.026.171a4.86,4.86,0,0,0-.635-2.679,2.067,2.067,0,0,0-1.843-.97,3.037,3.037,0,0,0-1.355.311,4.614,4.614,0,0,0-1.245.934,7.05,7.05,0,0,0-.9,1.19,12.173,12.173,0,0,0-.769,1.489,15.707,15.707,0,0,0-.616,1.678q-.269.879-.458,1.758t-.287,1.721a13.719,13.719,0,0,0-.1,1.575,7.222,7.222,0,0,0,.2,1.825,3.822,3.822,0,0,0,.555,1.257,2.206,2.206,0,0,0,.836.726A2.349,2.349,0,0,0,154.5-1.4a3.059,3.059,0,0,0,1.294-.293,3.83,3.83,0,0,0,1.184-.879,7.869,7.869,0,0,0,1.208-1.8,16.074,16.074,0,0,0,.983-2.435,20.384,20.384,0,0,0,.665-2.789A17.253,17.253,0,0,0,160.077-12.451Zm9.6-4.691h-3.838l-.627,2.976.755-.028a3.252,3.252,0,0,1,2.222.7,2.492,2.492,0,0,1,.8,1.976,3.713,3.713,0,0,1-.52,1.944,3.308,3.308,0,0,1-1.442,1.31,4.919,4.919,0,0,1-2.147.441,7.635,7.635,0,0,1-1.264-.107,3.951,3.951,0,0,1-1-.278l.263-1.146a3.115,3.115,0,0,0,.94.384,4.61,4.61,0,0,0,1.146.15,3.286,3.286,0,0,0,1.524-.324,2.353,2.353,0,0,0,.965-.89,2.444,2.444,0,0,0,.338-1.278,1.8,1.8,0,0,0-.513-1.392,2.352,2.352,0,0,0-1.631-.474q-.99,0-1.773.071l1.075-5.105h4.942Zm10.91,7.121a4.6,4.6,0,0,0-1.239-.763,4.034,4.034,0,0,0-1.605-.311,3.792,3.792,0,0,0-1.52.293,4.194,4.194,0,0,0-1.2.781,5.068,5.068,0,0,0-.9,1.123,7.489,7.489,0,0,0-.623,1.318,8.114,8.114,0,0,0-.36,1.361,7.515,7.515,0,0,0-.116,1.263,3.987,3.987,0,0,0,.769,2.649,2.613,2.613,0,0,0,2.1.9,4.621,4.621,0,0,0,1.672-.336,8.049,8.049,0,0,0,1.636-.861l-.427,2a8.567,8.567,0,0,1-1.581.665,5.728,5.728,0,0,1-1.666.238,4.733,4.733,0,0,1-2-.391,3.911,3.911,0,0,1-1.41-1.074,4.6,4.6,0,0,1-.842-1.617,6.987,6.987,0,0,1-.281-2.02,9.867,9.867,0,0,1,.208-2.02,8.7,8.7,0,0,1,.616-1.88,8.154,8.154,0,0,1,1.007-1.642,6.493,6.493,0,0,1,1.373-1.3,6.519,6.519,0,0,1,1.727-.854,6.6,6.6,0,0,1,2.063-.311,6.581,6.581,0,0,1,1,.073,5.941,5.941,0,0,1,.867.2,5.839,5.839,0,0,1,.7.262,2.858,2.858,0,0,1,.488.275Zm5.432,9.973a4.678,4.678,0,0,1-.69.159,4.86,4.86,0,0,1-.763.061,2.49,2.49,0,0,1-1.843-.616,2.248,2.248,0,0,1-.61-1.654,5.042,5.042,0,0,1,.061-.72q.061-.415.2-1.025l3.125-14.673h2.026L184.38-3.8q-.11.513-.153.793a3.247,3.247,0,0,0-.043.476,1.006,1.006,0,0,0,.275.763,1.23,1.23,0,0,0,.873.262,3.7,3.7,0,0,0,.555-.037,2.461,2.461,0,0,0,.446-.11ZM197.405-9.07v-1.636H208.88V-9.07Zm0,5.2V-5.505H208.88V-3.87ZM223.895,0l3.259-15.247-4.321,1.172L223.26-16l6.421-1.794L225.921,0Zm21.265-12.622q0,.916-.085,1.91T244.805-8.7a20.229,20.229,0,0,1-.47,2.008,15.839,15.839,0,0,1-.69,1.923,13,13,0,0,1-.922,1.752,9.246,9.246,0,0,1-1.166,1.5A5.647,5.647,0,0,1,237.335.305a4.233,4.233,0,0,1-1.813-.385,3.873,3.873,0,0,1-1.41-1.123,5.372,5.372,0,0,1-.909-1.819,8.674,8.674,0,0,1-.323-2.484,18.653,18.653,0,0,1,.22-2.8,17.348,17.348,0,0,1,.671-2.82,15.264,15.264,0,0,1,1.123-2.594,9.673,9.673,0,0,1,1.587-2.148,6.452,6.452,0,0,1,1.941-1.422,5.628,5.628,0,0,1,2.429-.507,4.573,4.573,0,0,1,1.77.33,3.621,3.621,0,0,1,1.361.983,4.5,4.5,0,0,1,.873,1.617A7.46,7.46,0,0,1,245.159-12.622Zm-2.026.171a4.86,4.86,0,0,0-.635-2.679,2.067,2.067,0,0,0-1.843-.97,3.037,3.037,0,0,0-1.355.311,4.614,4.614,0,0,0-1.245.934,7.05,7.05,0,0,0-.9,1.19,12.173,12.173,0,0,0-.769,1.489,15.707,15.707,0,0,0-.616,1.678q-.269.879-.458,1.758t-.287,1.721a13.719,13.719,0,0,0-.1,1.575,7.222,7.222,0,0,0,.2,1.825,3.822,3.822,0,0,0,.555,1.257,2.206,2.206,0,0,0,.836.726,2.349,2.349,0,0,0,1.031.232,3.059,3.059,0,0,0,1.294-.293,3.83,3.83,0,0,0,1.184-.879,7.869,7.869,0,0,0,1.208-1.8,16.074,16.074,0,0,0,.983-2.435,20.384,20.384,0,0,0,.665-2.789A17.253,17.253,0,0,0,243.133-12.451Zm9.8-4.535a3.173,3.173,0,0,0-.719-.288,3.374,3.374,0,0,0-.911-.117,2.943,2.943,0,0,0-1.1.206,3.41,3.41,0,0,0-.961.584,3.953,3.953,0,0,0-.669.716,6.427,6.427,0,0,0-.552.9,7.712,7.712,0,0,0-.424,1.008,7.9,7.9,0,0,0-.278,1.036h.028a3,3,0,0,1,.449-.57,3.081,3.081,0,0,1,.587-.459,2.934,2.934,0,0,1,.7-.306,2.839,2.839,0,0,1,.794-.11,2.864,2.864,0,0,1,1.111.2,2.152,2.152,0,0,1,.8.563,2.423,2.423,0,0,1,.484.869,3.638,3.638,0,0,1,.164,1.125,4.449,4.449,0,0,1-.224,1.4,3.781,3.781,0,0,1-.662,1.221,3.323,3.323,0,0,1-1.079.865,3.178,3.178,0,0,1-1.467.328,3.139,3.139,0,0,1-1.2-.221,2.424,2.424,0,0,1-.929-.669,3.141,3.141,0,0,1-.6-1.125,5.29,5.29,0,0,1-.214-1.588,9.109,9.109,0,0,1,.174-1.791,8.6,8.6,0,0,1,.5-1.645,7.286,7.286,0,0,1,.783-1.417,5.338,5.338,0,0,1,1.036-1.1,4.514,4.514,0,0,1,1.392-.758,4.733,4.733,0,0,1,1.492-.246,4.858,4.858,0,0,1,1.008.1,5.1,5.1,0,0,1,.716.2Zm-1.688,5.454a2.488,2.488,0,0,0-.1-.73,1.615,1.615,0,0,0-.317-.587,1.462,1.462,0,0,0-.548-.392,2.029,2.029,0,0,0-.8-.142,2.123,2.123,0,0,0-.961.206,2.111,2.111,0,0,0-.691.541,2.355,2.355,0,0,0-.42.755,2.624,2.624,0,0,0-.142.847,3.055,3.055,0,0,0,.128.915,2.07,2.07,0,0,0,.363.7,1.594,1.594,0,0,0,.573.445,1.783,1.783,0,0,0,.758.157A1.8,1.8,0,0,0,250-9.05a2.156,2.156,0,0,0,.676-.609,2.841,2.841,0,0,0,.42-.869A3.507,3.507,0,0,0,251.242-11.532Zm22.03,2.181a4.062,4.062,0,0,1-.043.482q-.043.323-.11.69t-.134.726q-.067.36-.116.6L271.392,0h-2l1.526-7.324q.049-.208.1-.464t.092-.507q.043-.25.067-.464a3.142,3.142,0,0,0,.024-.336,2.324,2.324,0,0,0-.415-1.483,1.558,1.558,0,0,0-1.294-.519,2.409,2.409,0,0,0-.958.214,4.432,4.432,0,0,0-.964.58,6.8,6.8,0,0,0-.9.854,8.7,8.7,0,0,0-.793,1.044,8.125,8.125,0,0,0-.616,1.135,5.953,5.953,0,0,0-.378,1.141L263.567,0h-2.026l1.55-7.324q.049-.208.1-.464t.092-.507q.043-.25.067-.464a3.142,3.142,0,0,0,.024-.336,2.277,2.277,0,0,0-.427-1.483,1.564,1.564,0,0,0-1.282-.519,2.478,2.478,0,0,0-.977.214,4.379,4.379,0,0,0-.977.586,6.709,6.709,0,0,0-.909.867,9.1,9.1,0,0,0-.793,1.05,7.681,7.681,0,0,0-.61,1.135,6.214,6.214,0,0,0-.372,1.141L255.718,0h-2.026l1.929-8.923q.1-.476.2-.995t.183-1q.085-.482.146-.9t.1-.684H258.2q-.061.476-.146.995t-.146.958q-.073.513-.159,1h.049a10.556,10.556,0,0,1,.952-1.306,6.964,6.964,0,0,1,1.086-1.031,5.03,5.03,0,0,1,1.2-.677,3.513,3.513,0,0,1,1.294-.244,3.51,3.51,0,0,1,1.343.232,2.5,2.5,0,0,1,.934.653,2.855,2.855,0,0,1,.568,1.019A5.1,5.1,0,0,1,265.4-9.57a11.814,11.814,0,0,1,.97-1.276,6.89,6.89,0,0,1,1.111-1.025,5.253,5.253,0,0,1,1.257-.684,3.971,3.971,0,0,1,1.41-.25,2.921,2.921,0,0,1,2.344.909A3.785,3.785,0,0,1,273.272-9.351Zm6.348,9.3a4.679,4.679,0,0,1-.69.159,4.86,4.86,0,0,1-.763.061,2.49,2.49,0,0,1-1.843-.616,2.248,2.248,0,0,1-.61-1.654,5.044,5.044,0,0,1,.061-.72q.061-.415.2-1.025l3.125-14.673h2.026L277.983-3.8q-.11.513-.153.793a3.249,3.249,0,0,0-.043.476,1.006,1.006,0,0,0,.275.763,1.23,1.23,0,0,0,.873.262,3.7,3.7,0,0,0,.555-.037,2.46,2.46,0,0,0,.446-.11Z" transform="translate(700 2300)"/>
  </g>
</svg>
