<svg xmlns="http://www.w3.org/2000/svg" width="746.211" height="145.848" viewBox="0 0 746.211 145.848">
  <g id="Grupo_14552" data-name="Grupo 14552" transform="translate(-327 -2004)">
    <path id="Trazado_24113" data-name="Trazado 24113" d="M0,0H746.211V145.848H0Z" transform="translate(327 2004)" fill="#d5f4fc"/>
    <path id="Trazado_24114" data-name="Trazado 24114" d="M-67.382,0h3.114V-13.771h-2.648l-3.665,1.695.53,2.415,2.627-1.25h.042Zm7.564-.72a8.392,8.392,0,0,0,4.089.953c3.5,0,5.636-1.78,5.636-4.195a3.427,3.427,0,0,0-2.987-3.369v-.042a3.282,3.282,0,0,0,2.521-3.2c0-1.886-1.631-3.432-4.555-3.432a8.567,8.567,0,0,0-4.259,1.038l.657,2.331a6.112,6.112,0,0,1,2.86-.826c1.377,0,2.034.614,2.034,1.441,0,1.165-1.356,1.589-2.436,1.589h-1.25v2.309H-56.2c1.4,0,2.754.614,2.754,1.992,0,1.017-.847,1.822-2.521,1.822a7.29,7.29,0,0,1-3.2-.847ZM-43,.233c3.475,0,5.191-2.945,5.191-7.182,0-3.771-1.462-7.055-5.127-7.055-3.559,0-5.233,3.136-5.233,7.14.021,3.9,1.589,7.1,5.148,7.1Zm.021-2.436c-1.229,0-1.992-1.525-1.97-4.7,0-3.114.763-4.661,1.97-4.661,1.292,0,1.949,1.61,1.949,4.661,0,3.136-.678,4.7-1.928,4.7ZM-31.237.233c3.475,0,5.191-2.945,5.191-7.182,0-3.771-1.462-7.055-5.127-7.055-3.559,0-5.233,3.136-5.233,7.14.021,3.9,1.589,7.1,5.148,7.1Zm.021-2.436c-1.229,0-1.992-1.525-1.97-4.7,0-3.114.763-4.661,1.97-4.661,1.292,0,1.949,1.61,1.949,4.661,0,3.136-.678,4.7-1.928,4.7Zm14.555-.445a4.545,4.545,0,0,1-1.843.339,2.7,2.7,0,0,1-2.839-2.9,2.675,2.675,0,0,1,2.775-2.881,4.406,4.406,0,0,1,1.8.318l.508-2.394a7.47,7.47,0,0,0-2.458-.4c-3.856,0-5.932,2.479-5.932,5.487,0,3.242,2.14,5.3,5.487,5.3a7.367,7.367,0,0,0,2.881-.487ZM-4.69-7.267c0-1.547.042-2.415.085-3.093H-7.4l-.106,1.25H-7.55a3.1,3.1,0,0,0-2.839-1.483c-2.564,0-4.7,2.119-4.7,5.466,0,2.966,1.822,5.042,4.386,5.042A3.351,3.351,0,0,0-7.91-1.42h.042v.657A2.463,2.463,0,0,1-10.559,1.97a6.3,6.3,0,0,1-3.009-.784L-14.2,3.644a8.291,8.291,0,0,0,3.729.784A6.3,6.3,0,0,0-6.279,3.157C-5.093,2.119-4.69.487-4.69-1.5ZM-7.91-4.619a2.961,2.961,0,0,1-.106.869A1.761,1.761,0,0,1-9.733-2.458c-1.335,0-2.1-1.208-2.1-2.754,0-1.886.932-2.945,2.119-2.945a1.766,1.766,0,0,1,1.737,1.42,2.824,2.824,0,0,1,.064.593ZM6.92-14.513,5.692-11.271H5.649L4.484-14.513,2.6-13.432l2.225,2.67v.042L1.518-11.4v2.14l3.326-.593.021.042L2.6-7.161l1.822,1.1L5.628-9.322l.042-.021L6.9-6.059l1.864-1.1L6.475-9.767v-.064l3.411.572V-11.4l-3.39.678v-.042l2.267-2.691ZM19.781,0H22.9V-13.771H20.247l-3.665,1.695.53,2.415,2.627-1.25h.042ZM32.408.233c3.475,0,5.191-2.945,5.191-7.182C37.6-10.721,36.137-14,32.472-14c-3.559,0-5.233,3.136-5.233,7.14.021,3.9,1.589,7.1,5.148,7.1ZM32.429-2.2c-1.229,0-1.992-1.525-1.97-4.7,0-3.114.763-4.661,1.97-4.661,1.292,0,1.949,1.61,1.949,4.661,0,3.136-.678,4.7-1.928,4.7ZM44.527-7V-8.545h-3.04v-.025l.741-.618c1.174-1.038,2.138-2.113,2.138-3.46,0-1.458-.989-2.521-2.818-2.521a4.407,4.407,0,0,0-2.62.828l.531,1.335a2.985,2.985,0,0,1,1.718-.655c.927,0,1.31.519,1.31,1.174-.012.939-.865,1.841-2.632,3.423l-1.026.927V-7ZM46.555-.064A27.7,27.7,0,0,0,50.22.148c2.8,0,5.106-.593,6.61-1.843a7.3,7.3,0,0,0,2.352-5.784,6.291,6.291,0,0,0-2.415-5.381c-1.356-1.017-3.136-1.525-5.869-1.525a26.016,26.016,0,0,0-4.343.318Zm3.22-11.716a6.871,6.871,0,0,1,1.462-.127c2.8,0,4.534,1.568,4.534,4.534,0,3.411-1.928,5.021-4.873,5a6.057,6.057,0,0,1-1.123-.064ZM71.09-7.267c0-1.547.042-2.415.085-3.093h-2.8l-.106,1.25h-.042a3.1,3.1,0,0,0-2.839-1.483c-2.564,0-4.7,2.119-4.7,5.466,0,2.966,1.822,5.042,4.386,5.042a3.351,3.351,0,0,0,2.8-1.335h.042v.657A2.463,2.463,0,0,1,65.221,1.97a6.3,6.3,0,0,1-3.009-.784l-.636,2.458a8.291,8.291,0,0,0,3.729.784A6.3,6.3,0,0,0,69.5,3.157C70.687,2.119,71.09.487,71.09-1.5Zm-3.22,2.648a2.961,2.961,0,0,1-.106.869,1.761,1.761,0,0,1-1.716,1.292c-1.335,0-2.1-1.208-2.1-2.754,0-1.886.932-2.945,2.119-2.945a1.766,1.766,0,0,1,1.737,1.42,2.824,2.824,0,0,1,.064.593Z" transform="translate(537 2061)"/>
    <path id="Trazado_24117" data-name="Trazado 24117" d="M-63.952,0h3.114V-13.771h-2.648l-3.665,1.695.53,2.415,2.627-1.25h.042Zm7.564-.72A8.392,8.392,0,0,0-52.3.233c3.5,0,5.636-1.78,5.636-4.195a3.427,3.427,0,0,0-2.987-3.369v-.042a3.282,3.282,0,0,0,2.521-3.2c0-1.886-1.631-3.432-4.555-3.432a8.567,8.567,0,0,0-4.259,1.038l.657,2.331a6.112,6.112,0,0,1,2.86-.826c1.377,0,2.034.614,2.034,1.441,0,1.165-1.356,1.589-2.436,1.589h-1.25v2.309h1.314c1.4,0,2.754.614,2.754,1.992,0,1.017-.847,1.822-2.521,1.822a7.29,7.29,0,0,1-3.2-.847Zm16.822.953c3.475,0,5.191-2.945,5.191-7.182,0-3.771-1.462-7.055-5.127-7.055-3.559,0-5.233,3.136-5.233,7.14.021,3.9,1.589,7.1,5.148,7.1Zm.021-2.436c-1.229,0-1.992-1.525-1.97-4.7,0-3.114.763-4.661,1.97-4.661,1.292,0,1.949,1.61,1.949,4.661,0,3.136-.678,4.7-1.928,4.7ZM-27.808.233c3.475,0,5.191-2.945,5.191-7.182,0-3.771-1.462-7.055-5.127-7.055-3.559,0-5.233,3.136-5.233,7.14.021,3.9,1.589,7.1,5.148,7.1Zm.021-2.436c-1.229,0-1.992-1.525-1.97-4.7,0-3.114.763-4.661,1.97-4.661,1.292,0,1.949,1.61,1.949,4.661,0,3.136-.678,4.7-1.928,4.7ZM-16.049.233c3.475,0,5.191-2.945,5.191-7.182,0-3.771-1.462-7.055-5.127-7.055-3.559,0-5.233,3.136-5.233,7.14.021,3.9,1.589,7.1,5.148,7.1Zm.021-2.436c-1.229,0-1.992-1.525-1.97-4.7,0-3.114.763-4.661,1.97-4.661,1.292,0,1.949,1.61,1.949,4.661,0,3.136-.678,4.7-1.928,4.7ZM-4.29.233C-.816.233.9-2.712.9-6.949.9-10.721-.561-14-4.227-14c-3.559,0-5.233,3.136-5.233,7.14.021,3.9,1.589,7.1,5.148,7.1ZM-4.269-2.2c-1.229,0-1.992-1.525-1.97-4.7,0-3.114.763-4.661,1.97-4.661,1.292,0,1.949,1.61,1.949,4.661,0,3.136-.678,4.7-1.928,4.7Zm14.555-.445a4.545,4.545,0,0,1-1.843.339A2.7,2.7,0,0,1,5.6-5.212,2.675,2.675,0,0,1,8.379-8.093a4.406,4.406,0,0,1,1.8.318l.508-2.394a7.47,7.47,0,0,0-2.458-.4C4.375-10.572,2.3-8.093,2.3-5.085c0,3.242,2.14,5.3,5.487,5.3a7.367,7.367,0,0,0,2.881-.487ZM22.257-7.267c0-1.547.042-2.415.085-3.093h-2.8l-.106,1.25H19.4a3.1,3.1,0,0,0-2.839-1.483c-2.564,0-4.7,2.119-4.7,5.466,0,2.966,1.822,5.042,4.386,5.042a3.351,3.351,0,0,0,2.8-1.335h.042v.657A2.463,2.463,0,0,1,16.388,1.97a6.3,6.3,0,0,1-3.009-.784l-.636,2.458a8.291,8.291,0,0,0,3.729.784,6.3,6.3,0,0,0,4.195-1.271C21.854,2.119,22.257.487,22.257-1.5Zm-3.22,2.648a2.961,2.961,0,0,1-.106.869,1.761,1.761,0,0,1-1.716,1.292c-1.335,0-2.1-1.208-2.1-2.754,0-1.886.932-2.945,2.119-2.945a1.766,1.766,0,0,1,1.737,1.42,2.824,2.824,0,0,1,.064.593Zm14.831-9.894-1.229,3.242H32.6l-1.165-3.242-1.886,1.081,2.225,2.67v.042L28.464-11.4v2.14l3.326-.593.021.042L29.545-7.161l1.822,1.1,1.208-3.263.042-.021,1.229,3.284,1.864-1.1L33.422-9.767v-.064l3.411.572V-11.4l-3.39.678v-.042l2.267-2.691ZM43.126-.064a27.7,27.7,0,0,0,3.665.212c2.8,0,5.106-.593,6.61-1.843a7.3,7.3,0,0,0,2.352-5.784,6.291,6.291,0,0,0-2.415-5.381c-1.356-1.017-3.136-1.525-5.869-1.525a26.016,26.016,0,0,0-4.343.318Zm3.22-11.716a6.871,6.871,0,0,1,1.462-.127c2.8,0,4.534,1.568,4.534,4.534,0,3.411-1.928,5.021-4.873,5a6.057,6.057,0,0,1-1.123-.064ZM67.66-7.267c0-1.547.042-2.415.085-3.093h-2.8l-.106,1.25H64.8a3.1,3.1,0,0,0-2.839-1.483c-2.564,0-4.7,2.119-4.7,5.466,0,2.966,1.822,5.042,4.386,5.042a3.351,3.351,0,0,0,2.8-1.335h.042v.657A2.463,2.463,0,0,1,61.791,1.97a6.3,6.3,0,0,1-3.009-.784l-.636,2.458a8.291,8.291,0,0,0,3.729.784,6.3,6.3,0,0,0,4.195-1.271C67.258,2.119,67.66.487,67.66-1.5ZM64.44-4.619a2.961,2.961,0,0,1-.106.869,1.761,1.761,0,0,1-1.716,1.292c-1.335,0-2.1-1.208-2.1-2.754,0-1.886.932-2.945,2.119-2.945a1.766,1.766,0,0,1,1.737,1.42,2.824,2.824,0,0,1,.064.593Z" transform="translate(781 2061)"/>
    <path id="Trazado_24115" data-name="Trazado 24115" d="M.148-10.36,3.581-5.3.064,0H3.6l.975-1.864c.254-.508.53-1.017.784-1.589h.064a13.959,13.959,0,0,0,.805,1.589L7.267,0h3.644L7.458-5.424l3.411-4.937h-3.5L6.462-8.687c-.275.53-.53,1.038-.805,1.61H5.615c-.275-.508-.551-1.017-.847-1.547L3.75-10.36ZM27.056-6.886v-1.97H16.123v1.97Zm0,4.386V-4.47H16.123V-2.5Z" transform="translate(404 2075)"/>
    <path id="Trazado_24120" data-name="Trazado 24120" d="M11.78-6.886v-1.97H.847v1.97Zm0,4.386V-4.47H.847V-2.5ZM43.306,0H46.42V-13.771H43.772l-3.665,1.695.53,2.415,2.627-1.25h.042Zm8.941,2.352a29.327,29.327,0,0,0,2.67-6.038l-3.284.212a33.935,33.935,0,0,1-1.547,6.017ZM56.378-.72a8.392,8.392,0,0,0,4.089.953c3.5,0,5.636-1.78,5.636-4.195a3.427,3.427,0,0,0-2.987-3.369v-.042a3.282,3.282,0,0,0,2.521-3.2c0-1.886-1.631-3.432-4.555-3.432a8.567,8.567,0,0,0-4.259,1.038l.657,2.331a6.112,6.112,0,0,1,2.86-.826c1.377,0,2.034.614,2.034,1.441,0,1.165-1.356,1.589-2.436,1.589h-1.25v2.309H60c1.4,0,2.754.614,2.754,1.992,0,1.017-.847,1.822-2.521,1.822a7.29,7.29,0,0,1-3.2-.847ZM73.01-.064a27.7,27.7,0,0,0,3.665.212c2.8,0,5.106-.593,6.61-1.843a7.3,7.3,0,0,0,2.352-5.784,6.291,6.291,0,0,0-2.415-5.381c-1.356-1.017-3.136-1.525-5.869-1.525a26.016,26.016,0,0,0-4.343.318ZM76.23-11.78a6.871,6.871,0,0,1,1.462-.127c2.8,0,4.534,1.568,4.534,4.534,0,3.411-1.928,5.021-4.873,5a6.056,6.056,0,0,1-1.123-.064ZM97.544-7.267c0-1.547.042-2.415.085-3.093h-2.8l-.106,1.25h-.042a3.1,3.1,0,0,0-2.839-1.483c-2.564,0-4.7,2.119-4.7,5.466,0,2.966,1.822,5.042,4.386,5.042a3.351,3.351,0,0,0,2.8-1.335h.042v.657A2.463,2.463,0,0,1,91.675,1.97a6.3,6.3,0,0,1-3.009-.784l-.636,2.458a8.291,8.291,0,0,0,3.729.784,6.3,6.3,0,0,0,4.195-1.271C97.142,2.119,97.544.487,97.544-1.5Zm-3.22,2.648a2.961,2.961,0,0,1-.106.869A1.761,1.761,0,0,1,92.5-2.458c-1.335,0-2.1-1.208-2.1-2.754,0-1.886.932-2.945,2.119-2.945a1.766,1.766,0,0,1,1.737,1.42,2.824,2.824,0,0,1,.064.593Z" transform="translate(898 2075)"/>
    <path id="Trazado_24118" data-name="Trazado 24118" d="M11.78-6.886v-1.97H.847v1.97Zm0,4.386V-4.47H.847V-2.5Z" transform="translate(656 2075)"/>
    <path id="Trazado_24116" data-name="Trazado 24116" d="M-23.3,0h3.114V-13.771h-2.648L-26.5-12.076l.53,2.415,2.627-1.25h.042Zm12.627.233c3.475,0,5.191-2.945,5.191-7.182,0-3.771-1.462-7.055-5.127-7.055-3.559,0-5.233,3.136-5.233,7.14.021,3.9,1.589,7.1,5.148,7.1Zm.021-2.436c-1.229,0-1.992-1.525-1.97-4.7,0-3.114.763-4.661,1.97-4.661,1.292,0,1.949,1.61,1.949,4.661,0,3.136-.678,4.7-1.928,4.7ZM1.1-15.033H-3.327l-.519,4.214a6.661,6.661,0,0,1,1.075-.074c1.607,0,2.262.507,2.262,1.335,0,.853-.828,1.223-1.607,1.223a4.5,4.5,0,0,1-1.8-.4l-.346,1.409a5.105,5.105,0,0,0,2.237.457c2.163,0,3.448-1.322,3.448-2.818A2.287,2.287,0,0,0,.442-11.7a3.647,3.647,0,0,0-2.113-.581c-.2,0-.346.012-.519.025l.173-1.236H1.1ZM15.04-2.648a4.545,4.545,0,0,1-1.843.339,2.7,2.7,0,0,1-2.839-2.9,2.675,2.675,0,0,1,2.775-2.881,4.406,4.406,0,0,1,1.8.318l.508-2.394a7.47,7.47,0,0,0-2.458-.4c-3.856,0-5.932,2.479-5.932,5.487,0,3.242,2.14,5.3,5.487,5.3a7.367,7.367,0,0,0,2.881-.487ZM27.01-7.267c0-1.547.042-2.415.085-3.093H24.3l-.106,1.25H24.15a3.1,3.1,0,0,0-2.839-1.483c-2.564,0-4.7,2.119-4.7,5.466,0,2.966,1.822,5.042,4.386,5.042a3.351,3.351,0,0,0,2.8-1.335h.042v.657A2.463,2.463,0,0,1,21.142,1.97a6.3,6.3,0,0,1-3.009-.784L17.5,3.644a8.291,8.291,0,0,0,3.729.784,6.3,6.3,0,0,0,4.195-1.271C26.608,2.119,27.01.487,27.01-1.5ZM23.79-4.619a2.961,2.961,0,0,1-.106.869,1.761,1.761,0,0,1-1.716,1.292c-1.335,0-2.1-1.208-2.1-2.754,0-1.886.932-2.945,2.119-2.945a1.766,1.766,0,0,1,1.737,1.42,2.824,2.824,0,0,1,.064.593Z" transform="translate(537 2090)"/>
    <path id="Trazado_24119" data-name="Trazado 24119" d="M-41.251,0h3.114V-13.771h-2.648l-3.665,1.695.53,2.415,2.627-1.25h.042Zm12.627.233c3.475,0,5.191-2.945,5.191-7.182,0-3.771-1.462-7.055-5.127-7.055-3.559,0-5.233,3.136-5.233,7.14.021,3.9,1.589,7.1,5.148,7.1ZM-28.6-2.2c-1.229,0-1.992-1.525-1.97-4.7,0-3.114.763-4.661,1.97-4.661,1.292,0,1.949,1.61,1.949,4.661,0,3.136-.678,4.7-1.928,4.7ZM-16.865.233c3.475,0,5.191-2.945,5.191-7.182,0-3.771-1.462-7.055-5.127-7.055-3.559,0-5.233,3.136-5.233,7.14.021,3.9,1.589,7.1,5.148,7.1Zm.021-2.436c-1.229,0-1.992-1.525-1.97-4.7,0-3.114.763-4.661,1.97-4.661,1.292,0,1.949,1.61,1.949,4.661,0,3.136-.678,4.7-1.928,4.7ZM-5.106.233C-1.631.233.085-2.712.085-6.949.085-10.721-1.377-14-5.042-14c-3.559,0-5.233,3.136-5.233,7.14.021,3.9,1.589,7.1,5.148,7.1ZM-5.085-2.2c-1.229,0-1.992-1.525-1.97-4.7,0-3.114.763-4.661,1.97-4.661,1.292,0,1.949,1.61,1.949,4.661,0,3.136-.678,4.7-1.928,4.7ZM6.653.233c3.475,0,5.191-2.945,5.191-7.182,0-3.771-1.462-7.055-5.127-7.055-3.559,0-5.233,3.136-5.233,7.14.021,3.9,1.589,7.1,5.148,7.1ZM6.674-2.2c-1.229,0-1.992-1.525-1.97-4.7,0-3.114.763-4.661,1.97-4.661,1.292,0,1.949,1.61,1.949,4.661,0,3.136-.678,4.7-1.928,4.7ZM18.411.233c3.475,0,5.191-2.945,5.191-7.182C23.6-10.721,22.14-14,18.475-14c-3.559,0-5.233,3.136-5.233,7.14.021,3.9,1.589,7.1,5.148,7.1ZM18.433-2.2c-1.229,0-1.992-1.525-1.97-4.7,0-3.114.763-4.661,1.97-4.661,1.292,0,1.949,1.61,1.949,4.661,0,3.136-.678,4.7-1.928,4.7Zm14.555-.445a4.545,4.545,0,0,1-1.843.339,2.7,2.7,0,0,1-2.839-2.9,2.675,2.675,0,0,1,2.775-2.881,4.406,4.406,0,0,1,1.8.318l.508-2.394a7.47,7.47,0,0,0-2.458-.4C27.077-10.572,25-8.093,25-5.085c0,3.242,2.14,5.3,5.487,5.3a7.367,7.367,0,0,0,2.881-.487ZM44.958-7.267c0-1.547.042-2.415.085-3.093h-2.8l-.106,1.25H42.1a3.1,3.1,0,0,0-2.839-1.483c-2.564,0-4.7,2.119-4.7,5.466,0,2.966,1.822,5.042,4.386,5.042a3.351,3.351,0,0,0,2.8-1.335h.042v.657A2.463,2.463,0,0,1,39.09,1.97a6.3,6.3,0,0,1-3.009-.784l-.636,2.458a8.291,8.291,0,0,0,3.729.784,6.3,6.3,0,0,0,4.195-1.271C44.556,2.119,44.958.487,44.958-1.5Zm-3.22,2.648a2.961,2.961,0,0,1-.106.869,1.761,1.761,0,0,1-1.716,1.292c-1.335,0-2.1-1.208-2.1-2.754,0-1.886.932-2.945,2.119-2.945a1.766,1.766,0,0,1,1.737,1.42,2.824,2.824,0,0,1,.064.593Z" transform="translate(781 2090)"/>
    <path id="Trazado_24107" data-name="Trazado 24107" d="M4124,2212h188" transform="translate(-3680.5 -143)" fill="none" stroke="#0d468f" stroke-width="2"/>
    <path id="Trazado_24104" data-name="Trazado 24104" d="M4124,2212h188" transform="translate(-3437.5 -143)" fill="none" stroke="#0d468f" stroke-width="2"/>
    <path id="Trazado_24105" data-name="Trazado 24105" d="M4380.789,2154.316l39.585-39.585" transform="translate(-3585 -48)" fill="none" stroke="#ff9100" stroke-width="2"/>
    <path id="Trazado_24106" data-name="Trazado 24106" d="M4380.789,2154.316l39.585-39.585" transform="translate(-3608 -77)" fill="none" stroke="#ff9100" stroke-width="2"/>
  </g>
</svg>
