<svg xmlns="http://www.w3.org/2000/svg" width="168" height="168" viewBox="0 0 168 168">
  <g id="Grupo_14543" data-name="Grupo 14543" transform="translate(-5659 -2332)">
    <rect id="Rect치ngulo_3793" data-name="Rect치ngulo 3793" width="168" height="168" transform="translate(5659 2332)" fill="none"/>
    <g id="Grupo_14538" data-name="Grupo 14538" transform="translate(38 335.954)">
      <path id="Trazado_23556" data-name="Trazado 23556" d="M131.136,16H17.951A1.952,1.952,0,0,0,16,17.951,21.491,21.491,0,0,0,37.466,39.418H62.835v7.806h-3.9a1.952,1.952,0,0,0-1.951,1.951v9.757H48.355a9.757,9.757,0,0,0-9.7,8.68l-6.071,54.641a9.758,9.758,0,0,0,9.7,10.835H106.8a9.756,9.756,0,0,0,9.7-10.835l-6.071-54.641a9.757,9.757,0,0,0-9.7-8.68H92.107V49.175a1.952,1.952,0,0,0-1.951-1.951h-3.9V39.418h25.369a21.491,21.491,0,0,0,21.466-21.466A1.952,1.952,0,0,0,131.136,16Zm-30.4,46.835a5.854,5.854,0,0,1,5.815,5.206l6.073,54.641a5.868,5.868,0,0,1-1.456,4.551,5.784,5.784,0,0,1-4.362,1.951H42.284a5.784,5.784,0,0,1-4.362-1.951,5.868,5.868,0,0,1-1.458-4.553L42.538,68.04a5.854,5.854,0,0,1,5.817-5.2ZM88.2,51.126v7.806H84.3v-3.9H80.4v3.9H76.5v-3.9h-3.9v3.9h-3.9v-3.9h-3.9v3.9h-3.9V51.126Zm-21.466-3.9V39.418H82.35v7.806Zm44.884-11.709H37.466A17.587,17.587,0,0,1,20.012,19.9H129.075A17.587,17.587,0,0,1,111.622,35.515Z" transform="translate(5630 2005.046)" fill="#002b45"/>
      <path id="Trazado_23557" data-name="Trazado 23557" d="M160,271.418A23.418,23.418,0,1,0,183.418,248,23.418,23.418,0,0,0,160,271.418Zm23.418-1.951a1.951,1.951,0,1,1-1.951,1.951A1.952,1.952,0,0,1,183.418,269.466ZM181.466,252v13.92a5.854,5.854,0,1,0,3.9,0V252a19.515,19.515,0,1,1-3.9,0Z" transform="translate(5521.126 1829.639)" fill="#002b45"/>
      <rect id="Rect치ngulo_3669" data-name="Rect치ngulo 3669" width="22.927" height="4.094" transform="translate(5662.005 2032.472)" fill="#002b45"/>
    </g>
  </g>
</svg>
