<svg xmlns="http://www.w3.org/2000/svg" width="168" height="168" viewBox="0 0 168 168">
  <g id="Grupo_14546" data-name="Grupo 14546" transform="translate(-5050 -2332)">
    <rect id="Rectángulo_3790" data-name="Rectángulo 3790" width="168" height="168" transform="translate(5050 2332)" fill="none"/>
    <g id="Grupo_14535" data-name="Grupo 14535" transform="translate(0 336.112)">
      <g id="Grupo_14310" data-name="Grupo 14310" transform="translate(5076 2021.888)">
        <g id="Grupo_14309" data-name="Grupo 14309" transform="translate(0 0)">
          <path id="Trazado_23554" data-name="Trazado 23554" d="M653.7,595.538l-23.25-23.251a1.935,1.935,0,0,0-2.74,0l-89.121,89.121a1.935,1.935,0,0,0,0,2.74l23.25,23.25a1.937,1.937,0,0,0,2.74,0L653.7,598.278a1.937,1.937,0,0,0,0-2.74ZM563.207,683.29,542.7,662.779,629.078,576.4l20.511,20.511Z" transform="translate(-538.018 -571.719)" fill="#002b45"/>
        </g>
      </g>
      <g id="Grupo_14312" data-name="Grupo 14312" transform="translate(5163.192 2039.324)">
        <g id="Grupo_14311" data-name="Grupo 14311" transform="translate(0 0)">
          <path id="Trazado_23555" data-name="Trazado 23555" d="M927.862,648.517a5.813,5.813,0,1,0,5.813,5.813A5.82,5.82,0,0,0,927.862,648.517Zm0,7.75a1.938,1.938,0,1,1,1.938-1.938A1.94,1.94,0,0,1,927.862,656.267Z" transform="translate(-922.049 -648.517)" fill="#002b45"/>
        </g>
      </g>
      <g id="Grupo_14314" data-name="Grupo 14314" transform="translate(5148.258 2039.893)">
        <g id="Grupo_14313" data-name="Grupo 14313" transform="translate(0 0)">
          <rect id="Rectángulo_3657" data-name="Rectángulo 3657" width="3.875" height="8.221" transform="translate(0 2.74) rotate(-45)" fill="#002b45"/>
        </g>
      </g>
      <g id="Grupo_14316" data-name="Grupo 14316" transform="translate(5142.444 2045.706)">
        <g id="Grupo_14315" data-name="Grupo 14315" transform="translate(0 0)">
          <rect id="Rectángulo_3658" data-name="Rectángulo 3658" width="3.875" height="10.96" transform="translate(0 2.74) rotate(-45)" fill="#002b45"/>
        </g>
      </g>
      <g id="Grupo_14318" data-name="Grupo 14318" transform="translate(5136.633 2051.517)">
        <g id="Grupo_14317" data-name="Grupo 14317" transform="translate(0 0)">
          <rect id="Rectángulo_3659" data-name="Rectángulo 3659" width="3.875" height="8.221" transform="translate(0 2.74) rotate(-45)" fill="#002b45"/>
        </g>
      </g>
      <g id="Grupo_14320" data-name="Grupo 14320" transform="translate(5130.819 2057.328)">
        <g id="Grupo_14319" data-name="Grupo 14319" transform="translate(0 0)">
          <rect id="Rectángulo_3660" data-name="Rectángulo 3660" width="3.875" height="10.96" transform="translate(0 2.74) rotate(-45)" fill="#002b45"/>
        </g>
      </g>
      <g id="Grupo_14322" data-name="Grupo 14322" transform="translate(5125.008 2063.14)">
        <g id="Grupo_14321" data-name="Grupo 14321" transform="translate(0 0)">
          <rect id="Rectángulo_3661" data-name="Rectángulo 3661" width="3.875" height="8.221" transform="translate(0 2.74) rotate(-45)" fill="#002b45"/>
        </g>
      </g>
      <g id="Grupo_14324" data-name="Grupo 14324" transform="translate(5119.194 2068.951)">
        <g id="Grupo_14323" data-name="Grupo 14323" transform="translate(0 0)">
          <rect id="Rectángulo_3662" data-name="Rectángulo 3662" width="3.875" height="10.96" transform="translate(0 2.74) rotate(-45)" fill="#002b45"/>
        </g>
      </g>
      <g id="Grupo_14326" data-name="Grupo 14326" transform="translate(5113.381 2074.762)">
        <g id="Grupo_14325" data-name="Grupo 14325" transform="translate(0 0)">
          <rect id="Rectángulo_3663" data-name="Rectángulo 3663" width="3.875" height="8.219" transform="translate(0 2.74) rotate(-45.008)" fill="#002b45"/>
        </g>
      </g>
      <g id="Grupo_14328" data-name="Grupo 14328" transform="translate(5107.569 2080.579)">
        <g id="Grupo_14327" data-name="Grupo 14327" transform="translate(0 0)">
          <rect id="Rectángulo_3664" data-name="Rectángulo 3664" width="3.875" height="10.96" transform="translate(0 2.74) rotate(-45)" fill="#002b45"/>
        </g>
      </g>
      <g id="Grupo_14330" data-name="Grupo 14330" transform="translate(5101.757 2086.391)">
        <g id="Grupo_14329" data-name="Grupo 14329" transform="translate(0 0)">
          <rect id="Rectángulo_3665" data-name="Rectángulo 3665" width="3.875" height="8.221" transform="translate(0 2.74) rotate(-45)" fill="#002b45"/>
        </g>
      </g>
      <g id="Grupo_14332" data-name="Grupo 14332" transform="translate(5095.943 2092.204)">
        <g id="Grupo_14331" data-name="Grupo 14331" transform="translate(0 0)">
          <rect id="Rectángulo_3666" data-name="Rectángulo 3666" width="3.875" height="10.96" transform="translate(0 2.74) rotate(-45)" fill="#002b45"/>
        </g>
      </g>
      <g id="Grupo_14334" data-name="Grupo 14334" transform="translate(5090.136 2098.018)">
        <g id="Grupo_14333" data-name="Grupo 14333" transform="translate(0 0)">
          <rect id="Rectángulo_3667" data-name="Rectángulo 3667" width="3.875" height="8.221" transform="translate(0 2.74) rotate(-45)" fill="#002b45"/>
        </g>
      </g>
      <g id="Grupo_14336" data-name="Grupo 14336" transform="translate(5084.318 2103.83)">
        <g id="Grupo_14335" data-name="Grupo 14335" transform="translate(0 0)">
          <rect id="Rectángulo_3668" data-name="Rectángulo 3668" width="3.875" height="10.96" transform="translate(0 2.74) rotate(-45)" fill="#002b45"/>
        </g>
      </g>
    </g>
  </g>
</svg>
