<svg xmlns="http://www.w3.org/2000/svg" width="168" height="168" viewBox="0 0 168 168">
  <g id="Grupo_14544" data-name="Grupo 14544" transform="translate(-5456 -2332)">
    <rect id="Rectángulo_3792" data-name="Rectángulo 3792" width="168" height="168" transform="translate(5456 2332)" fill="none"/>
    <g id="Grupo_14537" data-name="Grupo 14537" transform="translate(24 320.719)">
      <g id="Grupo_14307" data-name="Grupo 14307" transform="translate(5456 2046.281)">
        <path id="Trazado_23547" data-name="Trazado 23547" d="M1211.562,632.491a5.665,5.665,0,0,0-2.834-.771h-83.181a4.68,4.68,0,0,0-4.674,4.676h-9.818a16.384,16.384,0,0,0-16.365,16.365v28.054a7.014,7.014,0,1,0,14.027,0V652.761a2.369,2.369,0,0,1,2.338-2.338h9.818v67.8a11.7,11.7,0,0,0,11.684,11.689h56.078a11.7,11.7,0,0,0,11.684-11.689V663.289l13.305-23.058a5.672,5.672,0,0,0-2.062-7.739Zm-100.507,13.256a7.022,7.022,0,0,0-7.014,7.014v28.054a2.338,2.338,0,0,1-4.676,0V652.761a11.7,11.7,0,0,1,11.689-11.689h9.818v4.676Zm98.521-7.856-13.62,23.6a2.338,2.338,0,0,0-.313,1.169v14.646h-24.528a2.338,2.338,0,1,0,0,4.676h24.528V718.22a7.019,7.019,0,0,1-7.009,7.013h-56.078a7.019,7.019,0,0,1-7.008-7.013V681.984h24.527a2.338,2.338,0,0,0,0-4.676h-24.527V636.4h83.179a1,1,0,0,1,.849,1.5Z" transform="translate(-1094.69 -631.72)" fill="#002b45"/>
        <path id="Trazado_23548" data-name="Trazado 23548" d="M1278.382,691.722h-9.351a2.338,2.338,0,0,0,0,4.676h9.351a2.338,2.338,0,1,0,0-4.676Z" transform="translate(-1226.482 -677.695)" fill="#002b45"/>
        <path id="Trazado_23549" data-name="Trazado 23549" d="M1278.382,736.723h-9.351a2.338,2.338,0,0,0,0,4.676h9.351a2.338,2.338,0,1,0,0-4.676Z" transform="translate(-1226.482 -712.175)" fill="#002b45"/>
        <path id="Trazado_23550" data-name="Trazado 23550" d="M1278.382,781.723h-9.351a2.338,2.338,0,0,0,0,4.676h9.351a2.338,2.338,0,1,0,0-4.676Z" transform="translate(-1226.482 -746.655)" fill="#002b45"/>
        <path id="Trazado_23551" data-name="Trazado 23551" d="M1278.382,871.725h-9.351a2.338,2.338,0,0,0,0,4.676h9.351a2.338,2.338,0,1,0,0-4.676Z" transform="translate(-1226.482 -815.617)" fill="#002b45"/>
        <path id="Trazado_23552" data-name="Trazado 23552" d="M1278.382,916.726h-9.351a2.338,2.338,0,0,0,0,4.676h9.351a2.338,2.338,0,1,0,0-4.676Z" transform="translate(-1226.482 -850.097)" fill="#002b45"/>
        <path id="Trazado_23553" data-name="Trazado 23553" d="M1368.941,826.724h0a2.338,2.338,0,1,0,2.34,2.338,2.337,2.337,0,0,0-2.34-2.338Z" transform="translate(-1303.035 -781.136)" fill="#002b45"/>
      </g>
    </g>
  </g>
</svg>
