<svg xmlns="http://www.w3.org/2000/svg" width="360.211" height="117.848" viewBox="0 0 360.211 117.848">
  <g id="Grupo_14550" data-name="Grupo 14550" transform="translate(-520 -1998)">
    <path id="Trazado_24089" data-name="Trazado 24089" d="M0,0H360.211V117.848H0Z" transform="translate(520 1998)" fill="#d5f4fc"/>
    <path id="Trazado_24090" data-name="Trazado 24090" d="M-22.063,0h3.114V-13.771H-21.6l-3.665,1.695.53,2.415,2.627-1.25h.042ZM-9.627,0h3.2V-4.661l1.208-1.5L-1.7,0h3.75L-2.91-8.2,1.814-14.28H-2.169l-3.22,4.746c-.339.508-.678,1.017-1,1.568h-.042V-14.28h-3.2Zm12.9,0H6.412V-6.017a2.179,2.179,0,0,1,.127-.826,1.648,1.648,0,0,1,1.5-1.144c1.038,0,1.5.89,1.5,2.182V0h3.136V-6.059a3.353,3.353,0,0,1,.106-.805,1.6,1.6,0,0,1,1.5-1.123c1.038,0,1.525.869,1.525,2.373V0h3.136V-6.1c0-3.093-1.5-4.492-3.5-4.492a3.945,3.945,0,0,0-1.97.508,4.506,4.506,0,0,0-1.356,1.271H12.09a2.932,2.932,0,0,0-2.839-1.78A3.585,3.585,0,0,0,6.115-8.941H6.052l-.127-1.42H3.191c.042.932.085,2.013.085,3.305ZM26.433-7V-8.545h-3.04v-.025l.741-.618c1.174-1.038,2.138-2.113,2.138-3.46,0-1.458-.989-2.521-2.818-2.521a4.407,4.407,0,0,0-2.62.828l.531,1.335a2.985,2.985,0,0,1,1.718-.655c.927,0,1.31.519,1.31,1.174-.012.939-.865,1.841-2.632,3.423l-1.026.927V-7ZM6.155,25.424,1.917,18.115l4.025-6.97H2.256L1.049,13.75c-.36.826-.636,1.462-.975,2.373H.032c-.339-.805-.657-1.5-1.081-2.373L-2.3,11.144H-6.006L-2.023,18.2l-4.131,7.225h3.687L-1.3,22.839c.466-1,.826-1.737,1.123-2.564h.042c.4.826.742,1.568,1.271,2.564l1.292,2.585Z" transform="translate(616 2049)"/>
    <path id="Trazado_24091" data-name="Trazado 24091" d="M5,0H8.115V-13.771H5.466L1.8-12.076l.53,2.415,2.627-1.25H5ZM17.627.233c3.475,0,5.191-2.945,5.191-7.182,0-3.771-1.462-7.055-5.127-7.055-3.559,0-5.233,3.136-5.233,7.14.021,3.9,1.589,7.1,5.148,7.1ZM17.649-2.2c-1.229,0-1.992-1.525-1.97-4.7,0-3.114.763-4.661,1.97-4.661,1.292,0,1.949,1.61,1.949,4.661,0,3.136-.678,4.7-1.928,4.7ZM29.165-15.144a3.955,3.955,0,0,0-.754.012,4.77,4.77,0,0,0-3.09,1.174,4.819,4.819,0,0,0-1.434,3.584c0,1.916,1.05,3.51,3.2,3.51a2.874,2.874,0,0,0,2.954-2.9,2.438,2.438,0,0,0-2.484-2.62,2.324,2.324,0,0,0-1.705.63h-.037a2.562,2.562,0,0,1,2.62-1.916,5.164,5.164,0,0,1,.729-.025Zm-2.113,6.9c-.853,0-1.261-.766-1.3-1.619a.986.986,0,0,1,.087-.482,1.2,1.2,0,0,1,1.1-.7,1.228,1.228,0,0,1,1.2,1.384c0,.816-.42,1.421-1.075,1.421ZM35.948,0h3.136V-6.017a2.179,2.179,0,0,1,.127-.826,1.648,1.648,0,0,1,1.5-1.144c1.038,0,1.5.89,1.5,2.182V0h3.136V-6.059a3.353,3.353,0,0,1,.106-.805,1.6,1.6,0,0,1,1.5-1.123c1.038,0,1.525.869,1.525,2.373V0h3.136V-6.1c0-3.093-1.5-4.492-3.5-4.492a3.945,3.945,0,0,0-1.97.508A4.506,4.506,0,0,0,44.8-8.814h-.042a2.932,2.932,0,0,0-2.839-1.78,3.585,3.585,0,0,0-3.136,1.653h-.064L38.6-10.36H35.864c.042.932.085,2.013.085,3.305ZM59.105-7V-8.545h-3.04v-.025l.741-.618c1.174-1.038,2.138-2.113,2.138-3.46,0-1.458-.989-2.521-2.818-2.521a4.407,4.407,0,0,0-2.62.828l.531,1.335a2.985,2.985,0,0,1,1.718-.655c.927,0,1.31.519,1.31,1.174-.012.939-.865,1.841-2.632,3.423l-1.026.927V-7ZM9.682,11.462a6.78,6.78,0,0,0-1.292.021,8.178,8.178,0,0,0-5.3,2.013A8.262,8.262,0,0,0,.636,19.64c0,3.284,1.8,6.017,5.487,6.017a4.927,4.927,0,0,0,5.064-4.979,4.18,4.18,0,0,0-4.259-4.492A3.985,3.985,0,0,0,4,17.267H3.941c.36-1.589,1.631-3.072,4.492-3.284a8.852,8.852,0,0,1,1.25-.042ZM6.059,23.284c-1.462,0-2.161-1.314-2.225-2.775a1.691,1.691,0,0,1,.148-.826,2.063,2.063,0,0,1,1.886-1.208,2.1,2.1,0,0,1,2.055,2.373c0,1.4-.72,2.436-1.843,2.436Zm6.5,1.42a8.392,8.392,0,0,0,4.089.953c3.5,0,5.636-1.78,5.636-4.195A3.427,3.427,0,0,0,19.3,18.094v-.042a3.282,3.282,0,0,0,2.521-3.2c0-1.886-1.631-3.432-4.555-3.432a8.567,8.567,0,0,0-4.259,1.038l.657,2.331a6.112,6.112,0,0,1,2.86-.826c1.377,0,2.034.614,2.034,1.441,0,1.165-1.356,1.589-2.436,1.589h-1.25V19.3h1.314c1.4,0,2.754.614,2.754,1.992,0,1.017-.847,1.822-2.521,1.822a7.29,7.29,0,0,1-3.2-.847Zm16.822.953c3.475,0,5.191-2.945,5.191-7.182,0-3.771-1.462-7.055-5.127-7.055-3.559,0-5.233,3.136-5.233,7.14.021,3.9,1.589,7.1,5.148,7.1Zm.021-2.436c-1.229,0-1.992-1.525-1.97-4.7,0-3.114.763-4.661,1.97-4.661,1.292,0,1.949,1.61,1.949,4.661,0,3.136-.678,4.7-1.928,4.7Zm11.737,2.436c3.475,0,5.191-2.945,5.191-7.182,0-3.771-1.462-7.055-5.127-7.055-3.559,0-5.233,3.136-5.233,7.14.021,3.9,1.589,7.1,5.148,7.1Zm.021-2.436c-1.229,0-1.992-1.525-1.97-4.7,0-3.114.763-4.661,1.97-4.661,1.292,0,1.949,1.61,1.949,4.661,0,3.136-.678,4.7-1.928,4.7ZM52.9,25.657c3.475,0,5.191-2.945,5.191-7.182,0-3.771-1.462-7.055-5.127-7.055-3.559,0-5.233,3.136-5.233,7.14.021,3.9,1.589,7.1,5.148,7.1Zm.021-2.436c-1.229,0-1.992-1.525-1.97-4.7,0-3.114.763-4.661,1.97-4.661,1.292,0,1.949,1.61,1.949,4.661,0,3.136-.678,4.7-1.928,4.7Zm11.441,2.2H67.5V19.407a2.179,2.179,0,0,1,.127-.826,1.648,1.648,0,0,1,1.5-1.144c1.038,0,1.5.89,1.5,2.182v5.805h3.136V19.365a3.353,3.353,0,0,1,.106-.805,1.6,1.6,0,0,1,1.5-1.123c1.038,0,1.525.869,1.525,2.373v5.615h3.136v-6.1c0-3.093-1.5-4.492-3.5-4.492a3.945,3.945,0,0,0-1.97.508,4.506,4.506,0,0,0-1.356,1.271h-.042a2.932,2.932,0,0,0-2.839-1.78A3.585,3.585,0,0,0,67.2,16.483h-.064l-.127-1.42H64.281c.042.932.085,2.013.085,3.305Zm23.157-7V16.879h-3.04v-.025l.742-.618c1.174-1.038,2.138-2.113,2.138-3.46,0-1.458-.989-2.521-2.818-2.521a4.407,4.407,0,0,0-2.62.828l.531,1.335a2.985,2.985,0,0,1,1.718-.655c.927,0,1.31.519,1.31,1.174-.012.939-.865,1.841-2.632,3.423l-1.026.927v1.137Z" transform="translate(723 2049)"/>
    <path id="Trazado_24092" data-name="Trazado 24092" d="M0,0H30.98V1.766H0Z" transform="translate(693.754 2044.665) rotate(180)" fill="#ff9100"/>
    <g id="Grupo_14117" data-name="Grupo 14117" transform="translate(695.668 2051.002) rotate(180)">
      <path id="Trazado_23503" data-name="Trazado 23503" d="M1448.356,221.492l1.2-1.293-6.377-5.926,6.377-5.928-1.2-1.293-7.765,7.221Z" transform="translate(-1440.591 -207.052)" fill="#ff9100"/>
    </g>
    <path id="Trazado_24093" data-name="Trazado 24093" d="M0,0H30.98V1.766H0Z" transform="translate(693.754 2071.665) rotate(180)" fill="#ff9100"/>
    <g id="Grupo_14117-2" data-name="Grupo 14117" transform="translate(695.668 2078.002) rotate(180)">
      <path id="Trazado_23503-2" data-name="Trazado 23503" d="M1448.356,221.492l1.2-1.293-6.377-5.926,6.377-5.928-1.2-1.293-7.765,7.221Z" transform="translate(-1440.591 -207.052)" fill="#ff9100"/>
    </g>
  </g>
</svg>
