<svg xmlns="http://www.w3.org/2000/svg" width="862" height="93" viewBox="0 0 862 93">
  <g id="Grupo_14547" data-name="Grupo 14547" transform="translate(-3833 -2581)">
    <path id="Trazado_24064" data-name="Trazado 24064" d="M0,0H862V93H0Z" transform="translate(3833 2581)" fill="#d5f4fc"/>
    <path id="Trazado_24065" data-name="Trazado 24065" d="M-349.655,0l3.259-15.247-4.321,1.172L-350.29-16l6.421-1.794L-347.628,0ZM-334.8-8.826-328.72,0h-2.551l-5.3-7.971q-.073-.134-.183-.33t-.171-.33h-.049L-338.791,0h-2.1l3.7-17.5h2.124l-1.746,8.228h.049q.134-.146.287-.305t.287-.293l8.044-7.629h2.783Zm28.174-.525a4.062,4.062,0,0,1-.043.482q-.043.323-.11.69t-.134.726q-.067.36-.116.6L-308.5,0h-2l1.526-7.324q.049-.208.1-.464t.092-.507q.043-.25.067-.464a3.142,3.142,0,0,0,.024-.336,2.324,2.324,0,0,0-.415-1.483,1.558,1.558,0,0,0-1.294-.519,2.409,2.409,0,0,0-.958.214,4.432,4.432,0,0,0-.964.58,6.8,6.8,0,0,0-.9.854,8.7,8.7,0,0,0-.793,1.044,8.125,8.125,0,0,0-.616,1.135,5.953,5.953,0,0,0-.378,1.141L-316.33,0h-2.026l1.55-7.324q.049-.208.1-.464t.092-.507q.043-.25.067-.464a3.142,3.142,0,0,0,.024-.336,2.277,2.277,0,0,0-.427-1.483,1.564,1.564,0,0,0-1.282-.519,2.478,2.478,0,0,0-.977.214,4.379,4.379,0,0,0-.977.586,6.709,6.709,0,0,0-.909.867,9.1,9.1,0,0,0-.793,1.05,7.681,7.681,0,0,0-.61,1.135,6.214,6.214,0,0,0-.372,1.141L-324.179,0h-2.026l1.929-8.923q.1-.476.2-.995t.183-1q.085-.482.146-.9t.1-.684h1.953q-.061.476-.146.995t-.146.958q-.073.513-.159,1h.049a10.556,10.556,0,0,1,.952-1.306,6.964,6.964,0,0,1,1.086-1.031,5.03,5.03,0,0,1,1.2-.677,3.513,3.513,0,0,1,1.294-.244,3.51,3.51,0,0,1,1.343.232,2.5,2.5,0,0,1,.934.653,2.855,2.855,0,0,1,.568,1.019A5.1,5.1,0,0,1-314.5-9.57a11.814,11.814,0,0,1,.97-1.276,6.89,6.89,0,0,1,1.111-1.025,5.253,5.253,0,0,1,1.257-.684,3.971,3.971,0,0,1,1.41-.25,2.921,2.921,0,0,1,2.344.909A3.785,3.785,0,0,1-306.625-9.351Zm7.713-6.6a1.382,1.382,0,0,0-.409-1.064,1.6,1.6,0,0,0-1.136-.381,3.575,3.575,0,0,0-1.388.292,4.484,4.484,0,0,0-1.3.847l.292-1.31a3.783,3.783,0,0,1,1.235-.641,5.3,5.3,0,0,1,1.449-.178,2.632,2.632,0,0,1,1.816.6,2.059,2.059,0,0,1,.676,1.62,3.7,3.7,0,0,1-.3,1.527,4.06,4.06,0,0,1-.943,1.271,12.573,12.573,0,0,1-1.894,1.4q-1.132.7-1.72,1.161a4.585,4.585,0,0,0-.872.84,2.422,2.422,0,0,0-.406.919h5.041L-298.99-8h-6.3l.107-.506a4.923,4.923,0,0,1,.552-1.481,5.077,5.077,0,0,1,1.029-1.2,17.546,17.546,0,0,1,2.044-1.467,12.131,12.131,0,0,0,1.57-1.139,3.689,3.689,0,0,0,.822-.99A2.45,2.45,0,0,0-298.912-15.946Zm8.551,6.876v-1.636h11.475V-9.07Zm0,5.2V-5.505h11.475V-3.87ZM-263.872,0l3.259-15.247-4.321,1.172.427-1.929,6.421-1.794L-261.845,0Zm21.265-12.622q0,.916-.085,1.91t-.269,2.008a20.229,20.229,0,0,1-.47,2.008,15.839,15.839,0,0,1-.69,1.923,13,13,0,0,1-.922,1.752,9.246,9.246,0,0,1-1.166,1.5A5.647,5.647,0,0,1-250.432.305a4.233,4.233,0,0,1-1.813-.385,3.873,3.873,0,0,1-1.41-1.123,5.372,5.372,0,0,1-.909-1.819,8.674,8.674,0,0,1-.323-2.484,18.653,18.653,0,0,1,.22-2.8,17.348,17.348,0,0,1,.671-2.82,15.264,15.264,0,0,1,1.123-2.594,9.673,9.673,0,0,1,1.587-2.148,6.452,6.452,0,0,1,1.941-1.422,5.628,5.628,0,0,1,2.429-.507,4.573,4.573,0,0,1,1.77.33,3.621,3.621,0,0,1,1.361.983,4.5,4.5,0,0,1,.873,1.617A7.46,7.46,0,0,1-242.607-12.622Zm-2.026.171a4.86,4.86,0,0,0-.635-2.679,2.067,2.067,0,0,0-1.843-.97,3.037,3.037,0,0,0-1.355.311,4.614,4.614,0,0,0-1.245.934,7.05,7.05,0,0,0-.9,1.19,12.173,12.173,0,0,0-.769,1.489,15.707,15.707,0,0,0-.616,1.678q-.269.879-.458,1.758t-.287,1.721a13.719,13.719,0,0,0-.1,1.575,7.222,7.222,0,0,0,.2,1.825,3.822,3.822,0,0,0,.555,1.257,2.206,2.206,0,0,0,.836.726,2.349,2.349,0,0,0,1.031.232,3.059,3.059,0,0,0,1.294-.293,3.83,3.83,0,0,0,1.184-.879,7.869,7.869,0,0,0,1.208-1.8,16.074,16.074,0,0,0,.983-2.435,20.384,20.384,0,0,0,.665-2.789A17.253,17.253,0,0,0-244.633-12.451Zm8.544-3.5a1.382,1.382,0,0,0-.409-1.064,1.6,1.6,0,0,0-1.136-.381,3.575,3.575,0,0,0-1.388.292,4.484,4.484,0,0,0-1.3.847l.292-1.31A3.782,3.782,0,0,1-238.8-18.2a5.3,5.3,0,0,1,1.449-.178,2.632,2.632,0,0,1,1.816.6,2.059,2.059,0,0,1,.676,1.62,3.7,3.7,0,0,1-.3,1.527,4.06,4.06,0,0,1-.943,1.271,12.574,12.574,0,0,1-1.894,1.4q-1.132.7-1.72,1.161a4.587,4.587,0,0,0-.872.84,2.422,2.422,0,0,0-.406.919h5.041L-236.168-8h-6.3l.107-.506a4.924,4.924,0,0,1,.552-1.481,5.077,5.077,0,0,1,1.029-1.2,17.551,17.551,0,0,1,2.044-1.467,12.131,12.131,0,0,0,1.57-1.139,3.69,3.69,0,0,0,.822-.99A2.45,2.45,0,0,0-236.09-15.946ZM-220.623,0h-2.1l1.672-7.9H-230L-231.646,0h-2.124l3.7-17.5h2.124l-1.648,7.678h8.948L-219-17.5h2.1Zm23.828-9.351a4.059,4.059,0,0,1-.043.482q-.043.323-.11.69t-.134.726q-.067.36-.116.6L-198.674,0h-2l1.526-7.324q.049-.208.1-.464t.092-.507q.043-.25.067-.464a3.138,3.138,0,0,0,.024-.336,2.324,2.324,0,0,0-.415-1.483,1.558,1.558,0,0,0-1.294-.519,2.409,2.409,0,0,0-.958.214,4.431,4.431,0,0,0-.964.58,6.8,6.8,0,0,0-.9.854A8.7,8.7,0,0,0-204.2-8.4a8.127,8.127,0,0,0-.616,1.135,5.952,5.952,0,0,0-.378,1.141L-206.5,0h-2.026l1.55-7.324q.049-.208.1-.464t.092-.507q.043-.25.067-.464a3.138,3.138,0,0,0,.024-.336,2.277,2.277,0,0,0-.427-1.483A1.564,1.564,0,0,0-208.4-11.1a2.478,2.478,0,0,0-.977.214,4.378,4.378,0,0,0-.977.586,6.708,6.708,0,0,0-.909.867,9.1,9.1,0,0,0-.793,1.05,7.681,7.681,0,0,0-.61,1.135,6.214,6.214,0,0,0-.372,1.141L-214.348,0h-2.026l1.929-8.923q.1-.476.2-.995t.183-1q.085-.482.146-.9t.1-.684h1.953q-.061.476-.146.995t-.146.958q-.073.513-.159,1h.049a10.556,10.556,0,0,1,.952-1.306,6.963,6.963,0,0,1,1.086-1.031,5.03,5.03,0,0,1,1.2-.677,3.513,3.513,0,0,1,1.294-.244,3.51,3.51,0,0,1,1.343.232,2.5,2.5,0,0,1,.934.653A2.854,2.854,0,0,1-204.9-10.9a5.1,5.1,0,0,1,.232,1.331,11.81,11.81,0,0,1,.97-1.276,6.89,6.89,0,0,1,1.111-1.025,5.253,5.253,0,0,1,1.257-.684,3.971,3.971,0,0,1,1.41-.25,2.921,2.921,0,0,1,2.344.909A3.785,3.785,0,0,1-196.794-9.351Zm7.713-6.6a1.382,1.382,0,0,0-.409-1.064,1.6,1.6,0,0,0-1.136-.381,3.575,3.575,0,0,0-1.388.292,4.484,4.484,0,0,0-1.3.847l.292-1.31a3.782,3.782,0,0,1,1.235-.641,5.3,5.3,0,0,1,1.449-.178,2.632,2.632,0,0,1,1.816.6,2.059,2.059,0,0,1,.676,1.62,3.7,3.7,0,0,1-.3,1.527,4.06,4.06,0,0,1-.943,1.271,12.574,12.574,0,0,1-1.894,1.4q-1.132.7-1.72,1.161a4.587,4.587,0,0,0-.872.84,2.422,2.422,0,0,0-.406.919h5.041L-189.159-8h-6.3l.107-.506a4.924,4.924,0,0,1,.552-1.481,5.077,5.077,0,0,1,1.029-1.2,17.551,17.551,0,0,1,2.044-1.467,12.131,12.131,0,0,0,1.57-1.139,3.69,3.69,0,0,0,.822-.99A2.45,2.45,0,0,0-189.081-15.946Zm11.415,6.876v-1.636h11.475V-9.07Zm0,5.2V-5.505h11.475V-3.87ZM-151.177,0l3.259-15.247-4.321,1.172.427-1.929,6.421-1.794L-149.151,0Zm21.265-12.622q0,.916-.085,1.91t-.269,2.008a20.229,20.229,0,0,1-.47,2.008,15.839,15.839,0,0,1-.69,1.923,13,13,0,0,1-.922,1.752,9.246,9.246,0,0,1-1.166,1.5A5.647,5.647,0,0,1-137.737.305a4.233,4.233,0,0,1-1.813-.385A3.873,3.873,0,0,1-140.96-1.2a5.372,5.372,0,0,1-.909-1.819,8.674,8.674,0,0,1-.323-2.484,18.653,18.653,0,0,1,.22-2.8,17.348,17.348,0,0,1,.671-2.82,15.264,15.264,0,0,1,1.123-2.594,9.673,9.673,0,0,1,1.587-2.148,6.452,6.452,0,0,1,1.941-1.422,5.628,5.628,0,0,1,2.429-.507,4.573,4.573,0,0,1,1.77.33,3.621,3.621,0,0,1,1.361.983,4.5,4.5,0,0,1,.873,1.617A7.46,7.46,0,0,1-129.913-12.622Zm-2.026.171a4.86,4.86,0,0,0-.635-2.679,2.067,2.067,0,0,0-1.843-.97,3.037,3.037,0,0,0-1.355.311,4.614,4.614,0,0,0-1.245.934,7.05,7.05,0,0,0-.9,1.19,12.173,12.173,0,0,0-.769,1.489A15.707,15.707,0,0,0-139.3-10.5q-.269.879-.458,1.758t-.287,1.721a13.719,13.719,0,0,0-.1,1.575,7.222,7.222,0,0,0,.2,1.825,3.822,3.822,0,0,0,.555,1.257,2.206,2.206,0,0,0,.836.726,2.349,2.349,0,0,0,1.031.232,3.059,3.059,0,0,0,1.294-.293,3.83,3.83,0,0,0,1.184-.879,7.869,7.869,0,0,0,1.208-1.8,16.074,16.074,0,0,0,.983-2.435,20.384,20.384,0,0,0,.665-2.789A17.253,17.253,0,0,0-131.939-12.451Zm9.6-5.759-1.431,6.743h1.339l-.228,1.068h-1.339l-.513,2.4h-1.154l.513-2.4h-4.792l.214-1.011a44.344,44.344,0,0,0,3.169-3.211q1.623-1.809,2.934-3.589Zm-2.585,6.743,1.04-4.892a51.644,51.644,0,0,1-4.457,4.892Zm20.043,1.043a12.808,12.808,0,0,1-.262,2.576,10.877,10.877,0,0,1-.806,2.441,9.32,9.32,0,0,1-1.4,2.148,8.642,8.642,0,0,1-2.039,1.715A10.189,10.189,0,0,1-112.1-.409,13.332,13.332,0,0,1-115.533,0h-5.542l3.723-17.5h4.871a9.535,9.535,0,0,1,3.113.482,6.709,6.709,0,0,1,2.4,1.4,6.277,6.277,0,0,1,1.544,2.228A7.635,7.635,0,0,1-104.876-10.425Zm-2.148.146a5.165,5.165,0,0,0-1.5-3.967,6.307,6.307,0,0,0-4.456-1.4h-2.673l-2.954,13.794h3.259a9.222,9.222,0,0,0,3.619-.659,7.31,7.31,0,0,0,2.6-1.807A7.662,7.662,0,0,0-107.556-7,9.939,9.939,0,0,0-107.025-10.278ZM-84-9.351a4.061,4.061,0,0,1-.043.482q-.043.323-.11.69t-.134.726q-.067.36-.116.6L-85.882,0h-2l1.526-7.324q.049-.208.1-.464t.092-.507q.043-.25.067-.464a3.14,3.14,0,0,0,.024-.336,2.324,2.324,0,0,0-.415-1.483,1.558,1.558,0,0,0-1.294-.519,2.409,2.409,0,0,0-.958.214,4.431,4.431,0,0,0-.964.58,6.8,6.8,0,0,0-.9.854A8.7,8.7,0,0,0-91.406-8.4a8.126,8.126,0,0,0-.616,1.135A5.953,5.953,0,0,0-92.4-6.128L-93.707,0h-2.026l1.55-7.324q.049-.208.1-.464t.092-.507q.043-.25.067-.464a3.14,3.14,0,0,0,.024-.336,2.277,2.277,0,0,0-.427-1.483,1.564,1.564,0,0,0-1.282-.519,2.478,2.478,0,0,0-.977.214,4.378,4.378,0,0,0-.977.586,6.708,6.708,0,0,0-.909.867,9.1,9.1,0,0,0-.793,1.05,7.681,7.681,0,0,0-.61,1.135A6.214,6.214,0,0,0-100.25-6.1L-101.556,0h-2.026l1.929-8.923q.1-.476.2-.995t.183-1q.085-.482.146-.9t.1-.684h1.953q-.061.476-.146.995t-.146.958q-.073.513-.159,1h.049a10.556,10.556,0,0,1,.952-1.306,6.963,6.963,0,0,1,1.086-1.031,5.03,5.03,0,0,1,1.2-.677,3.513,3.513,0,0,1,1.294-.244,3.51,3.51,0,0,1,1.343.232,2.5,2.5,0,0,1,.934.653,2.855,2.855,0,0,1,.568,1.019,5.1,5.1,0,0,1,.232,1.331,11.812,11.812,0,0,1,.97-1.276,6.89,6.89,0,0,1,1.111-1.025,5.253,5.253,0,0,1,1.257-.684,3.971,3.971,0,0,1,1.41-.25,2.921,2.921,0,0,1,2.344.909A3.785,3.785,0,0,1-84-9.351Zm7.713-6.6a1.382,1.382,0,0,0-.409-1.064,1.6,1.6,0,0,0-1.136-.381,3.575,3.575,0,0,0-1.388.292,4.484,4.484,0,0,0-1.3.847l.292-1.31A3.783,3.783,0,0,1-79-18.2a5.3,5.3,0,0,1,1.449-.178,2.632,2.632,0,0,1,1.816.6,2.059,2.059,0,0,1,.676,1.62,3.7,3.7,0,0,1-.3,1.527,4.06,4.06,0,0,1-.943,1.271,12.573,12.573,0,0,1-1.894,1.4q-1.132.7-1.72,1.161a4.586,4.586,0,0,0-.872.84,2.422,2.422,0,0,0-.406.919h5.041L-76.367-8h-6.3l.107-.506a4.923,4.923,0,0,1,.552-1.481,5.077,5.077,0,0,1,1.029-1.2,17.551,17.551,0,0,1,2.044-1.467,12.13,12.13,0,0,0,1.57-1.139,3.69,3.69,0,0,0,.822-.99A2.45,2.45,0,0,0-76.289-15.946Zm8.551,6.876v-1.636h11.475V-9.07Zm0,5.2V-5.505h11.475V-3.87ZM-41.249,0l3.259-15.247-4.321,1.172L-41.884-16l6.421-1.794L-39.223,0Zm21.265-12.622q0,.916-.085,1.91T-20.338-8.7a20.227,20.227,0,0,1-.47,2.008,15.84,15.84,0,0,1-.69,1.923,13,13,0,0,1-.922,1.752,9.246,9.246,0,0,1-1.166,1.5A5.647,5.647,0,0,1-27.809.305a4.233,4.233,0,0,1-1.813-.385A3.873,3.873,0,0,1-31.032-1.2a5.372,5.372,0,0,1-.909-1.819,8.674,8.674,0,0,1-.323-2.484,18.653,18.653,0,0,1,.22-2.8,17.348,17.348,0,0,1,.671-2.82,15.264,15.264,0,0,1,1.123-2.594,9.673,9.673,0,0,1,1.587-2.148,6.452,6.452,0,0,1,1.941-1.422,5.628,5.628,0,0,1,2.429-.507,4.573,4.573,0,0,1,1.77.33,3.621,3.621,0,0,1,1.361.983,4.5,4.5,0,0,1,.873,1.617A7.46,7.46,0,0,1-19.984-12.622Zm-2.026.171a4.86,4.86,0,0,0-.635-2.679,2.067,2.067,0,0,0-1.843-.97,3.037,3.037,0,0,0-1.355.311,4.613,4.613,0,0,0-1.245.934,7.05,7.05,0,0,0-.9,1.19,12.173,12.173,0,0,0-.769,1.489,15.708,15.708,0,0,0-.616,1.678q-.269.879-.458,1.758t-.287,1.721a13.72,13.72,0,0,0-.1,1.575,7.222,7.222,0,0,0,.2,1.825,3.822,3.822,0,0,0,.555,1.257,2.206,2.206,0,0,0,.836.726,2.349,2.349,0,0,0,1.031.232A3.059,3.059,0,0,0-26.3-1.7a3.83,3.83,0,0,0,1.184-.879,7.87,7.87,0,0,0,1.208-1.8,16.074,16.074,0,0,0,.983-2.435A20.383,20.383,0,0,0-22.255-9.6,17.254,17.254,0,0,0-22.011-12.451Zm9.8-4.535a3.173,3.173,0,0,0-.719-.288,3.374,3.374,0,0,0-.911-.117,2.943,2.943,0,0,0-1.1.206,3.41,3.41,0,0,0-.961.584,3.952,3.952,0,0,0-.669.716,6.427,6.427,0,0,0-.552.9,7.714,7.714,0,0,0-.424,1.008,7.9,7.9,0,0,0-.278,1.036h.028a3,3,0,0,1,.449-.57,3.081,3.081,0,0,1,.587-.459,2.934,2.934,0,0,1,.7-.306,2.839,2.839,0,0,1,.794-.11,2.864,2.864,0,0,1,1.111.2,2.152,2.152,0,0,1,.8.563,2.423,2.423,0,0,1,.484.869,3.638,3.638,0,0,1,.164,1.125,4.449,4.449,0,0,1-.224,1.4,3.781,3.781,0,0,1-.662,1.221,3.323,3.323,0,0,1-1.079.865,3.178,3.178,0,0,1-1.467.328,3.139,3.139,0,0,1-1.2-.221,2.424,2.424,0,0,1-.929-.669,3.141,3.141,0,0,1-.6-1.125,5.29,5.29,0,0,1-.214-1.588,9.109,9.109,0,0,1,.174-1.791,8.606,8.606,0,0,1,.5-1.645,7.286,7.286,0,0,1,.783-1.417,5.338,5.338,0,0,1,1.036-1.1,4.514,4.514,0,0,1,1.392-.758,4.733,4.733,0,0,1,1.492-.246,4.858,4.858,0,0,1,1.008.1,5.1,5.1,0,0,1,.716.2ZM-13.9-11.532a2.488,2.488,0,0,0-.1-.73,1.615,1.615,0,0,0-.317-.587,1.462,1.462,0,0,0-.548-.392,2.029,2.029,0,0,0-.8-.142,2.123,2.123,0,0,0-.961.206,2.111,2.111,0,0,0-.691.541,2.355,2.355,0,0,0-.42.755,2.624,2.624,0,0,0-.142.847,3.055,3.055,0,0,0,.128.915,2.07,2.07,0,0,0,.363.7,1.594,1.594,0,0,0,.573.445,1.783,1.783,0,0,0,.758.157,1.8,1.8,0,0,0,.915-.231,2.156,2.156,0,0,0,.676-.609,2.841,2.841,0,0,0,.42-.869A3.507,3.507,0,0,0-13.9-11.532ZM8.128-9.351a4.061,4.061,0,0,1-.043.482q-.043.323-.11.69t-.134.726q-.067.36-.116.6L6.248,0h-2L5.772-7.324q.049-.208.1-.464t.092-.507q.043-.25.067-.464a3.14,3.14,0,0,0,.024-.336,2.324,2.324,0,0,0-.415-1.483A1.558,1.558,0,0,0,4.344-11.1a2.409,2.409,0,0,0-.958.214,4.431,4.431,0,0,0-.964.58,6.8,6.8,0,0,0-.9.854A8.7,8.7,0,0,0,.724-8.4,8.126,8.126,0,0,0,.108-7.269,5.952,5.952,0,0,0-.27-6.128L-1.577,0H-3.6l1.55-7.324q.049-.208.1-.464t.092-.507q.043-.25.067-.464a3.14,3.14,0,0,0,.024-.336A2.277,2.277,0,0,0-2.2-10.577,1.564,1.564,0,0,0-3.481-11.1a2.478,2.478,0,0,0-.977.214,4.378,4.378,0,0,0-.977.586,6.708,6.708,0,0,0-.909.867,9.1,9.1,0,0,0-.793,1.05,7.681,7.681,0,0,0-.61,1.135A6.214,6.214,0,0,0-8.12-6.1L-9.426,0h-2.026l1.929-8.923q.1-.476.2-.995t.183-1q.085-.482.146-.9t.1-.684h1.953q-.061.476-.146.995t-.146.958q-.073.513-.159,1h.049A10.556,10.556,0,0,1-6.4-10.852a6.963,6.963,0,0,1,1.086-1.031,5.03,5.03,0,0,1,1.2-.677,3.513,3.513,0,0,1,1.294-.244,3.51,3.51,0,0,1,1.343.232,2.5,2.5,0,0,1,.934.653A2.855,2.855,0,0,1,.023-10.9,5.1,5.1,0,0,1,.255-9.57a11.812,11.812,0,0,1,.97-1.276,6.89,6.89,0,0,1,1.111-1.025,5.253,5.253,0,0,1,1.257-.684A3.971,3.971,0,0,1,5-12.805a2.921,2.921,0,0,1,2.344.909A3.785,3.785,0,0,1,8.128-9.351Zm7.713-6.6a1.382,1.382,0,0,0-.409-1.064,1.6,1.6,0,0,0-1.136-.381,3.575,3.575,0,0,0-1.388.292,4.484,4.484,0,0,0-1.3.847l.292-1.31a3.783,3.783,0,0,1,1.235-.641,5.3,5.3,0,0,1,1.449-.178,2.632,2.632,0,0,1,1.816.6,2.059,2.059,0,0,1,.676,1.62,3.7,3.7,0,0,1-.3,1.527,4.06,4.06,0,0,1-.943,1.271,12.573,12.573,0,0,1-1.894,1.4q-1.132.7-1.72,1.161a4.586,4.586,0,0,0-.872.84,2.422,2.422,0,0,0-.406.919h5.041L15.763-8h-6.3l.107-.506a4.923,4.923,0,0,1,.552-1.481,5.077,5.077,0,0,1,1.029-1.2,17.551,17.551,0,0,1,2.044-1.467,12.131,12.131,0,0,0,1.57-1.139,3.69,3.69,0,0,0,.822-.99A2.45,2.45,0,0,0,15.842-15.946ZM24.392-9.07v-1.636H35.867V-9.07Zm0,5.2V-5.505H35.867V-3.87ZM50.881,0l3.259-15.247-4.321,1.172L50.247-16,56.668-17.8,52.908,0ZM72.146-12.622q0,.916-.085,1.91T71.792-8.7a20.227,20.227,0,0,1-.47,2.008,15.841,15.841,0,0,1-.69,1.923,13,13,0,0,1-.922,1.752,9.246,9.246,0,0,1-1.166,1.5A5.647,5.647,0,0,1,64.321.305a4.233,4.233,0,0,1-1.813-.385A3.873,3.873,0,0,1,61.1-1.2a5.372,5.372,0,0,1-.909-1.819,8.674,8.674,0,0,1-.323-2.484,18.653,18.653,0,0,1,.22-2.8,17.348,17.348,0,0,1,.671-2.82,15.264,15.264,0,0,1,1.123-2.594,9.673,9.673,0,0,1,1.587-2.148,6.452,6.452,0,0,1,1.941-1.422,5.628,5.628,0,0,1,2.429-.507,4.573,4.573,0,0,1,1.77.33,3.621,3.621,0,0,1,1.361.983,4.5,4.5,0,0,1,.873,1.617A7.46,7.46,0,0,1,72.146-12.622Zm-2.026.171a4.86,4.86,0,0,0-.635-2.679,2.067,2.067,0,0,0-1.843-.97,3.037,3.037,0,0,0-1.355.311,4.613,4.613,0,0,0-1.245.934,7.05,7.05,0,0,0-.9,1.19,12.173,12.173,0,0,0-.769,1.489,15.708,15.708,0,0,0-.616,1.678q-.269.879-.458,1.758t-.287,1.721a13.72,13.72,0,0,0-.1,1.575,7.222,7.222,0,0,0,.2,1.825,3.822,3.822,0,0,0,.555,1.257,2.206,2.206,0,0,0,.836.726,2.349,2.349,0,0,0,1.031.232A3.059,3.059,0,0,0,65.835-1.7a3.83,3.83,0,0,0,1.184-.879,7.87,7.87,0,0,0,1.208-1.8,16.074,16.074,0,0,0,.983-2.435A20.383,20.383,0,0,0,69.876-9.6,17.254,17.254,0,0,0,70.12-12.451Zm2.562,1.995a2.958,2.958,0,0,1,.719-1.955,3.379,3.379,0,0,1,1.88-1.129,2.466,2.466,0,0,1-.783-.812,2.223,2.223,0,0,1-.306-1.175,2.67,2.67,0,0,1,.42-1.46,2.8,2.8,0,0,1,1.178-1.029,3.935,3.935,0,0,1,1.734-.367,2.646,2.646,0,0,1,1.823.612,2.055,2.055,0,0,1,.691,1.616,2.605,2.605,0,0,1-.506,1.6,2.989,2.989,0,0,1-1.46,1.015,2.111,2.111,0,0,1,.99.869,2.554,2.554,0,0,1,.37,1.36,3.276,3.276,0,0,1-.5,1.759,3.458,3.458,0,0,1-1.374,1.26,4.072,4.072,0,0,1-1.908.456,3.271,3.271,0,0,1-2.19-.666A2.428,2.428,0,0,1,72.682-10.457Zm1.3-.043a1.579,1.579,0,0,0,.456,1.189,1.829,1.829,0,0,0,1.324.441,2.4,2.4,0,0,0,1.2-.32,2.412,2.412,0,0,0,.9-.9,2.434,2.434,0,0,0,.338-1.253,1.656,1.656,0,0,0-.459-1.214,1.618,1.618,0,0,0-1.207-.466,2.536,2.536,0,0,0-1.267.338,2.522,2.522,0,0,0-.943.919A2.427,2.427,0,0,0,73.978-10.5Zm1.4-4.877a1.362,1.362,0,0,0,.4,1.011,1.4,1.4,0,0,0,1.029.392,1.97,1.97,0,0,0,.965-.267,2.13,2.13,0,0,0,.776-.733,1.884,1.884,0,0,0,.3-1.029,1.356,1.356,0,0,0-.392-1.008,1.441,1.441,0,0,0-1.061-.388,1.938,1.938,0,0,0-1.424.584A1.955,1.955,0,0,0,75.374-15.377ZM91.079-3.845q-.085.391-.165.94t-.14,1.1q-.061.555-.1,1.044T90.627,0H88.552q0-.208.031-.555t.073-.726q.043-.378.092-.726t.085-.568h-.049A12.329,12.329,0,0,1,87.9-1.324a5.087,5.087,0,0,1-.928.9A3.727,3.727,0,0,1,85.94.122a3.8,3.8,0,0,1-1.208.183A3.734,3.734,0,0,1,83.193,0a3.134,3.134,0,0,1-1.166-.9,4.135,4.135,0,0,1-.739-1.465,7.14,7.14,0,0,1-.256-2.008,9.882,9.882,0,0,1,.189-1.88,9.627,9.627,0,0,1,.586-1.917,8.982,8.982,0,0,1,1.007-1.782,6.942,6.942,0,0,1,1.453-1.477A6.888,6.888,0,0,1,86.2-12.433a7.462,7.462,0,0,1,2.429-.372,8.239,8.239,0,0,1,1.27.092q.586.092,1.013.189l1.27-5.981h1.978ZM90.554-10.8a7.864,7.864,0,0,0-.97-.214A6.986,6.986,0,0,0,88.5-11.1a4.953,4.953,0,0,0-1.874.33,4.725,4.725,0,0,0-1.416.879A5.261,5.261,0,0,0,84.2-8.636a7.884,7.884,0,0,0-.659,1.44,8.2,8.2,0,0,0-.354,1.453,9.039,9.039,0,0,0-.1,1.288A6.171,6.171,0,0,0,83.2-3.21a2.78,2.78,0,0,0,.378.964,1.808,1.808,0,0,0,.677.623,2.114,2.114,0,0,0,1,.22A2.591,2.591,0,0,0,86.4-1.66a3.931,3.931,0,0,0,.995-.7,5.745,5.745,0,0,0,.842-1.013,9.829,9.829,0,0,0,.684-1.221A10.848,10.848,0,0,0,89.437-5.9q.214-.665.348-1.276Zm23.254,1.453a4.061,4.061,0,0,1-.043.482q-.043.323-.11.69t-.134.726q-.067.36-.116.6L111.928,0h-2l1.526-7.324q.049-.208.1-.464t.092-.507q.043-.25.067-.464a3.14,3.14,0,0,0,.024-.336,2.324,2.324,0,0,0-.415-1.483,1.558,1.558,0,0,0-1.294-.519,2.409,2.409,0,0,0-.958.214,4.431,4.431,0,0,0-.964.58,6.8,6.8,0,0,0-.9.854A8.7,8.7,0,0,0,106.4-8.4a8.126,8.126,0,0,0-.616,1.135,5.953,5.953,0,0,0-.378,1.141L104.1,0h-2.026l1.55-7.324q.049-.208.1-.464t.092-.507q.043-.25.067-.464a3.14,3.14,0,0,0,.024-.336,2.277,2.277,0,0,0-.427-1.483A1.564,1.564,0,0,0,102.2-11.1a2.478,2.478,0,0,0-.977.214,4.378,4.378,0,0,0-.977.586,6.708,6.708,0,0,0-.909.867,9.1,9.1,0,0,0-.793,1.05,7.681,7.681,0,0,0-.61,1.135A6.214,6.214,0,0,0,97.561-6.1L96.255,0H94.228l1.929-8.923q.1-.476.2-.995t.183-1q.085-.482.146-.9t.1-.684h1.953q-.061.476-.146.995t-.146.958q-.073.513-.159,1h.049a10.556,10.556,0,0,1,.952-1.306,6.963,6.963,0,0,1,1.086-1.031,5.03,5.03,0,0,1,1.2-.677,3.513,3.513,0,0,1,1.294-.244,3.51,3.51,0,0,1,1.343.232,2.5,2.5,0,0,1,.934.653A2.855,2.855,0,0,1,105.7-10.9a5.1,5.1,0,0,1,.232,1.331,11.812,11.812,0,0,1,.97-1.276,6.89,6.89,0,0,1,1.111-1.025,5.253,5.253,0,0,1,1.257-.684,3.971,3.971,0,0,1,1.41-.25,2.921,2.921,0,0,1,2.344.909A3.785,3.785,0,0,1,113.808-9.351Zm7.713-6.6a1.382,1.382,0,0,0-.409-1.064,1.6,1.6,0,0,0-1.136-.381,3.575,3.575,0,0,0-1.388.292,4.484,4.484,0,0,0-1.3.847l.292-1.31a3.783,3.783,0,0,1,1.235-.641,5.3,5.3,0,0,1,1.449-.178,2.632,2.632,0,0,1,1.816.6,2.059,2.059,0,0,1,.676,1.62,3.7,3.7,0,0,1-.3,1.527,4.06,4.06,0,0,1-.943,1.271,12.573,12.573,0,0,1-1.894,1.4q-1.132.7-1.72,1.161a4.586,4.586,0,0,0-.872.84,2.422,2.422,0,0,0-.406.919h5.041L121.443-8h-6.3l.107-.506a4.923,4.923,0,0,1,.552-1.481,5.077,5.077,0,0,1,1.029-1.2,17.551,17.551,0,0,1,2.044-1.467,12.13,12.13,0,0,0,1.57-1.139,3.69,3.69,0,0,0,.822-.99A2.45,2.45,0,0,0,121.522-15.946Zm8.551,6.876v-1.636h11.475V-9.07Zm0,5.2V-5.505h11.475V-3.87ZM156.562,0l3.259-15.247L155.5-14.075,155.927-16l6.421-1.794L158.588,0Zm21.265-12.622q0,.916-.085,1.91T177.472-8.7A20.229,20.229,0,0,1,177-6.7a15.839,15.839,0,0,1-.69,1.923,13,13,0,0,1-.922,1.752,9.246,9.246,0,0,1-1.166,1.5A5.647,5.647,0,0,1,170,.305a4.233,4.233,0,0,1-1.813-.385,3.873,3.873,0,0,1-1.41-1.123,5.372,5.372,0,0,1-.909-1.819,8.674,8.674,0,0,1-.323-2.484,18.653,18.653,0,0,1,.22-2.8,17.348,17.348,0,0,1,.671-2.82,15.264,15.264,0,0,1,1.123-2.594,9.673,9.673,0,0,1,1.587-2.148,6.452,6.452,0,0,1,1.941-1.422,5.628,5.628,0,0,1,2.429-.507,4.573,4.573,0,0,1,1.77.33,3.621,3.621,0,0,1,1.361.983,4.5,4.5,0,0,1,.873,1.617A7.46,7.46,0,0,1,177.826-12.622Zm-2.026.171a4.86,4.86,0,0,0-.635-2.679,2.067,2.067,0,0,0-1.843-.97,3.037,3.037,0,0,0-1.355.311,4.614,4.614,0,0,0-1.245.934,7.05,7.05,0,0,0-.9,1.19,12.173,12.173,0,0,0-.769,1.489,15.707,15.707,0,0,0-.616,1.678q-.269.879-.458,1.758t-.287,1.721a13.719,13.719,0,0,0-.1,1.575,7.222,7.222,0,0,0,.2,1.825,3.822,3.822,0,0,0,.555,1.257,2.206,2.206,0,0,0,.836.726,2.349,2.349,0,0,0,1.031.232,3.059,3.059,0,0,0,1.294-.293,3.83,3.83,0,0,0,1.184-.879,7.869,7.869,0,0,0,1.208-1.8,16.074,16.074,0,0,0,.983-2.435,20.384,20.384,0,0,0,.665-2.789A17.253,17.253,0,0,0,175.8-12.451ZM181.175-8l1.9-8.893-2.521.684.249-1.125,3.745-1.047L182.357-8Zm12.4-7.362q0,.534-.05,1.114t-.157,1.171a11.8,11.8,0,0,1-.274,1.171,9.241,9.241,0,0,1-.4,1.121,7.581,7.581,0,0,1-.538,1.022,5.393,5.393,0,0,1-.68.872,3.294,3.294,0,0,1-2.464,1.068,2.469,2.469,0,0,1-1.057-.224,2.259,2.259,0,0,1-.822-.655,3.133,3.133,0,0,1-.53-1.061,5.059,5.059,0,0,1-.189-1.449,10.882,10.882,0,0,1,.128-1.634,10.119,10.119,0,0,1,.392-1.645A8.9,8.9,0,0,1,187.59-16a5.643,5.643,0,0,1,.926-1.253,3.763,3.763,0,0,1,1.132-.83,3.283,3.283,0,0,1,1.417-.3,2.667,2.667,0,0,1,1.032.192,2.112,2.112,0,0,1,.794.573,2.624,2.624,0,0,1,.509.943A4.352,4.352,0,0,1,193.579-15.362Zm-1.182.1a2.835,2.835,0,0,0-.37-1.563,1.206,1.206,0,0,0-1.075-.566,1.771,1.771,0,0,0-.79.182,2.691,2.691,0,0,0-.726.545,4.112,4.112,0,0,0-.523.694,7.1,7.1,0,0,0-.449.869,9.163,9.163,0,0,0-.36.979q-.157.513-.267,1.025t-.167,1a8,8,0,0,0-.057.919,4.213,4.213,0,0,0,.117,1.064,2.23,2.23,0,0,0,.324.733,1.287,1.287,0,0,0,.488.424,1.37,1.37,0,0,0,.6.135,1.784,1.784,0,0,0,.755-.171,2.234,2.234,0,0,0,.691-.513,4.59,4.59,0,0,0,.7-1.05,9.375,9.375,0,0,0,.573-1.421,11.889,11.889,0,0,0,.388-1.627A10.065,10.065,0,0,0,192.4-15.263Zm11.772,5.241a4.6,4.6,0,0,0-1.239-.763,4.034,4.034,0,0,0-1.605-.311,3.792,3.792,0,0,0-1.52.293,4.194,4.194,0,0,0-1.2.781,5.068,5.068,0,0,0-.9,1.123,7.489,7.489,0,0,0-.623,1.318,8.114,8.114,0,0,0-.36,1.361,7.515,7.515,0,0,0-.116,1.263,3.987,3.987,0,0,0,.769,2.649,2.613,2.613,0,0,0,2.1.9,4.621,4.621,0,0,0,1.672-.336,8.049,8.049,0,0,0,1.636-.861l-.427,2a8.567,8.567,0,0,1-1.581.665A5.728,5.728,0,0,1,199.1.305a4.733,4.733,0,0,1-2-.391A3.911,3.911,0,0,1,195.7-1.16a4.6,4.6,0,0,1-.842-1.617,6.987,6.987,0,0,1-.281-2.02,9.867,9.867,0,0,1,.208-2.02A8.7,8.7,0,0,1,195.4-8.7a8.154,8.154,0,0,1,1.007-1.642,6.493,6.493,0,0,1,1.373-1.3,6.519,6.519,0,0,1,1.727-.854,6.6,6.6,0,0,1,2.063-.311,6.581,6.581,0,0,1,1,.073,5.941,5.941,0,0,1,.867.2,5.839,5.839,0,0,1,.7.262,2.858,2.858,0,0,1,.488.275Zm20.532.671a4.059,4.059,0,0,1-.043.482q-.043.323-.11.69t-.134.726q-.067.36-.116.6L222.821,0h-2l1.526-7.324q.049-.208.1-.464t.092-.507q.043-.25.067-.464a3.138,3.138,0,0,0,.024-.336,2.324,2.324,0,0,0-.415-1.483,1.558,1.558,0,0,0-1.294-.519,2.409,2.409,0,0,0-.958.214,4.431,4.431,0,0,0-.964.58,6.8,6.8,0,0,0-.9.854A8.7,8.7,0,0,0,217.3-8.4a8.127,8.127,0,0,0-.616,1.135,5.952,5.952,0,0,0-.378,1.141L215,0h-2.026l1.55-7.324q.049-.208.1-.464t.092-.507q.043-.25.067-.464a3.138,3.138,0,0,0,.024-.336,2.277,2.277,0,0,0-.427-1.483,1.564,1.564,0,0,0-1.282-.519,2.478,2.478,0,0,0-.977.214,4.378,4.378,0,0,0-.977.586,6.708,6.708,0,0,0-.909.867,9.1,9.1,0,0,0-.793,1.05,7.681,7.681,0,0,0-.61,1.135,6.214,6.214,0,0,0-.372,1.141L207.147,0H205.12l1.929-8.923q.1-.476.2-.995t.183-1q.085-.482.146-.9t.1-.684h1.953q-.061.476-.146.995t-.146.958q-.073.513-.159,1h.049a10.556,10.556,0,0,1,.952-1.306,6.963,6.963,0,0,1,1.086-1.031,5.03,5.03,0,0,1,1.2-.677,3.513,3.513,0,0,1,1.294-.244,3.51,3.51,0,0,1,1.343.232,2.5,2.5,0,0,1,.934.653,2.854,2.854,0,0,1,.568,1.019,5.1,5.1,0,0,1,.232,1.331,11.81,11.81,0,0,1,.97-1.276,6.89,6.89,0,0,1,1.111-1.025,5.253,5.253,0,0,1,1.257-.684,3.971,3.971,0,0,1,1.41-.25,2.921,2.921,0,0,1,2.344.909A3.785,3.785,0,0,1,224.7-9.351Zm7.713-6.6A1.382,1.382,0,0,0,232-17.011a1.6,1.6,0,0,0-1.136-.381,3.575,3.575,0,0,0-1.388.292,4.484,4.484,0,0,0-1.3.847l.292-1.31A3.782,3.782,0,0,1,229.7-18.2a5.3,5.3,0,0,1,1.449-.178,2.632,2.632,0,0,1,1.816.6,2.059,2.059,0,0,1,.676,1.62,3.7,3.7,0,0,1-.3,1.527,4.06,4.06,0,0,1-.943,1.271,12.574,12.574,0,0,1-1.894,1.4q-1.132.7-1.72,1.161a4.587,4.587,0,0,0-.872.84,2.422,2.422,0,0,0-.406.919h5.041L232.336-8h-6.3l.107-.506a4.924,4.924,0,0,1,.552-1.481,5.077,5.077,0,0,1,1.029-1.2,17.551,17.551,0,0,1,2.044-1.467,12.131,12.131,0,0,0,1.57-1.139,3.69,3.69,0,0,0,.822-.99A2.45,2.45,0,0,0,232.414-15.946Zm8.551,6.876v-1.636h11.475V-9.07Zm0,5.2V-5.505h11.475V-3.87ZM267.454,0l3.259-15.247-4.321,1.172L266.819-16,273.24-17.8,269.48,0Zm21.265-12.622q0,.916-.085,1.91T288.365-8.7a20.224,20.224,0,0,1-.47,2.008,15.842,15.842,0,0,1-.69,1.923,13,13,0,0,1-.922,1.752,9.246,9.246,0,0,1-1.166,1.5A5.647,5.647,0,0,1,280.894.305a4.233,4.233,0,0,1-1.813-.385,3.873,3.873,0,0,1-1.41-1.123,5.372,5.372,0,0,1-.909-1.819,8.673,8.673,0,0,1-.323-2.484,18.653,18.653,0,0,1,.22-2.8,17.347,17.347,0,0,1,.671-2.82,15.264,15.264,0,0,1,1.123-2.594,9.673,9.673,0,0,1,1.587-2.148,6.452,6.452,0,0,1,1.941-1.422,5.628,5.628,0,0,1,2.429-.507,4.573,4.573,0,0,1,1.77.33,3.622,3.622,0,0,1,1.361.983,4.5,4.5,0,0,1,.873,1.617A7.46,7.46,0,0,1,288.719-12.622Zm-2.026.171a4.86,4.86,0,0,0-.635-2.679,2.067,2.067,0,0,0-1.843-.97,3.037,3.037,0,0,0-1.355.311,4.613,4.613,0,0,0-1.245.934,7.05,7.05,0,0,0-.9,1.19,12.173,12.173,0,0,0-.769,1.489,15.71,15.71,0,0,0-.616,1.678q-.269.879-.458,1.758t-.287,1.721a13.722,13.722,0,0,0-.1,1.575,7.222,7.222,0,0,0,.2,1.825,3.822,3.822,0,0,0,.555,1.257,2.206,2.206,0,0,0,.836.726,2.349,2.349,0,0,0,1.031.232,3.059,3.059,0,0,0,1.294-.293,3.83,3.83,0,0,0,1.184-.879,7.87,7.87,0,0,0,1.208-1.8,16.073,16.073,0,0,0,.983-2.435,20.382,20.382,0,0,0,.665-2.789A17.255,17.255,0,0,0,286.692-12.451ZM292.067-8l1.9-8.893-2.521.684.249-1.125,3.745-1.047L293.249-8ZM303.1-15.946a1.382,1.382,0,0,0-.409-1.064,1.6,1.6,0,0,0-1.136-.381,3.575,3.575,0,0,0-1.388.292,4.484,4.484,0,0,0-1.3.847l.292-1.31a3.783,3.783,0,0,1,1.235-.641,5.3,5.3,0,0,1,1.449-.178,2.632,2.632,0,0,1,1.816.6,2.059,2.059,0,0,1,.676,1.62,3.7,3.7,0,0,1-.3,1.527,4.06,4.06,0,0,1-.943,1.271,12.573,12.573,0,0,1-1.894,1.4q-1.132.7-1.72,1.161a4.585,4.585,0,0,0-.872.84,2.422,2.422,0,0,0-.406.919h5.041L303.018-8h-6.3l.107-.506a4.923,4.923,0,0,1,.552-1.481,5.077,5.077,0,0,1,1.029-1.2,17.546,17.546,0,0,1,2.044-1.467,12.131,12.131,0,0,0,1.57-1.139,3.689,3.689,0,0,0,.822-.99A2.45,2.45,0,0,0,303.1-15.946Zm21.6,6.6a4.062,4.062,0,0,1-.043.482q-.043.323-.11.69t-.134.726q-.067.36-.116.6L322.812,0h-2l1.526-7.324q.049-.208.1-.464t.092-.507q.043-.25.067-.464a3.142,3.142,0,0,0,.024-.336,2.324,2.324,0,0,0-.415-1.483,1.558,1.558,0,0,0-1.294-.519,2.409,2.409,0,0,0-.958.214,4.432,4.432,0,0,0-.964.58,6.8,6.8,0,0,0-.9.854,8.7,8.7,0,0,0-.793,1.044,8.125,8.125,0,0,0-.616,1.135,5.953,5.953,0,0,0-.378,1.141L314.987,0h-2.026l1.55-7.324q.049-.208.1-.464t.092-.507q.043-.25.067-.464a3.142,3.142,0,0,0,.024-.336,2.277,2.277,0,0,0-.427-1.483,1.564,1.564,0,0,0-1.282-.519,2.478,2.478,0,0,0-.977.214,4.379,4.379,0,0,0-.977.586,6.709,6.709,0,0,0-.909.867,9.1,9.1,0,0,0-.793,1.05,7.681,7.681,0,0,0-.61,1.135,6.214,6.214,0,0,0-.372,1.141L307.138,0h-2.026l1.929-8.923q.1-.476.2-.995t.183-1q.085-.482.146-.9t.1-.684h1.953q-.061.476-.146.995t-.146.958q-.073.513-.159,1h.049a10.556,10.556,0,0,1,.952-1.306,6.964,6.964,0,0,1,1.086-1.031,5.03,5.03,0,0,1,1.2-.677,3.513,3.513,0,0,1,1.294-.244,3.51,3.51,0,0,1,1.343.232,2.5,2.5,0,0,1,.934.653,2.855,2.855,0,0,1,.568,1.019,5.1,5.1,0,0,1,.232,1.331,11.814,11.814,0,0,1,.97-1.276,6.89,6.89,0,0,1,1.111-1.025,5.253,5.253,0,0,1,1.257-.684,3.971,3.971,0,0,1,1.41-.25,2.921,2.921,0,0,1,2.344.909A3.785,3.785,0,0,1,324.692-9.351Zm21.448,0a4.062,4.062,0,0,1-.043.482q-.043.323-.11.69t-.134.726q-.067.36-.116.6L344.26,0h-2l1.526-7.324q.049-.208.1-.464t.092-.507q.043-.25.067-.464a3.142,3.142,0,0,0,.024-.336,2.324,2.324,0,0,0-.415-1.483,1.558,1.558,0,0,0-1.294-.519,2.409,2.409,0,0,0-.958.214,4.432,4.432,0,0,0-.964.58,6.8,6.8,0,0,0-.9.854,8.7,8.7,0,0,0-.793,1.044,8.125,8.125,0,0,0-.616,1.135,5.953,5.953,0,0,0-.378,1.141L336.435,0h-2.026l1.55-7.324q.049-.208.1-.464t.092-.507q.043-.25.067-.464a3.142,3.142,0,0,0,.024-.336,2.277,2.277,0,0,0-.427-1.483,1.564,1.564,0,0,0-1.282-.519,2.478,2.478,0,0,0-.977.214,4.379,4.379,0,0,0-.977.586,6.709,6.709,0,0,0-.909.867,9.1,9.1,0,0,0-.793,1.05,7.681,7.681,0,0,0-.61,1.135,6.214,6.214,0,0,0-.372,1.141L328.586,0h-2.026l1.929-8.923q.1-.476.2-.995t.183-1q.085-.482.146-.9t.1-.684h1.953q-.061.476-.146.995t-.146.958q-.073.513-.159,1h.049a10.556,10.556,0,0,1,.952-1.306,6.964,6.964,0,0,1,1.086-1.031,5.03,5.03,0,0,1,1.2-.677,3.513,3.513,0,0,1,1.294-.244,3.51,3.51,0,0,1,1.343.232,2.5,2.5,0,0,1,.934.653,2.855,2.855,0,0,1,.568,1.019,5.1,5.1,0,0,1,.232,1.331,11.814,11.814,0,0,1,.97-1.276,6.89,6.89,0,0,1,1.111-1.025,5.253,5.253,0,0,1,1.257-.684,3.971,3.971,0,0,1,1.41-.25,2.921,2.921,0,0,1,2.344.909A3.785,3.785,0,0,1,346.139-9.351Zm7.713-6.6a1.382,1.382,0,0,0-.409-1.064,1.6,1.6,0,0,0-1.136-.381,3.575,3.575,0,0,0-1.388.292,4.484,4.484,0,0,0-1.3.847l.292-1.31a3.783,3.783,0,0,1,1.235-.641,5.3,5.3,0,0,1,1.449-.178,2.632,2.632,0,0,1,1.816.6,2.059,2.059,0,0,1,.676,1.62,3.7,3.7,0,0,1-.3,1.527,4.06,4.06,0,0,1-.943,1.271,12.573,12.573,0,0,1-1.894,1.4q-1.132.7-1.72,1.161a4.585,4.585,0,0,0-.872.84,2.422,2.422,0,0,0-.406.919H354L353.775-8h-6.3l.107-.506a4.923,4.923,0,0,1,.552-1.481,5.077,5.077,0,0,1,1.029-1.2,17.546,17.546,0,0,1,2.044-1.467,12.131,12.131,0,0,0,1.57-1.139,3.689,3.689,0,0,0,.822-.99A2.45,2.45,0,0,0,353.853-15.946Z" transform="translate(4264 2636)"/>
  </g>
</svg>
