<svg xmlns="http://www.w3.org/2000/svg" width="930.211" height="117.848" viewBox="0 0 930.211 117.848">
  <g id="Grupo_14548" data-name="Grupo 14548" transform="translate(-3799 -2869)">
    <path id="Trazado_24070" data-name="Trazado 24070" d="M0,0H930.211V117.848H0Z" transform="translate(3799 2869)" fill="#d5f4fc"/>
    <path id="Trazado_24071" data-name="Trazado 24071" d="M5,0H8.115V-13.771H5.466L1.8-12.076l.53,2.415,2.627-1.25H5ZM17.437,0h3.2V-4.661l1.208-1.5L25.361,0h3.75L24.153-8.2l4.725-6.081H24.895l-3.22,4.746c-.339.508-.678,1.017-1,1.568h-.042V-14.28h-3.2Zm12.9,0h3.136V-6.017a2.179,2.179,0,0,1,.127-.826,1.648,1.648,0,0,1,1.5-1.144c1.038,0,1.5.89,1.5,2.182V0h3.136V-6.059a3.353,3.353,0,0,1,.106-.805,1.6,1.6,0,0,1,1.5-1.123c1.038,0,1.525.869,1.525,2.373V0h3.136V-6.1c0-3.093-1.5-4.492-3.5-4.492a3.945,3.945,0,0,0-1.97.508A4.506,4.506,0,0,0,39.2-8.814h-.042a2.932,2.932,0,0,0-2.839-1.78,3.585,3.585,0,0,0-3.136,1.653h-.064l-.127-1.42H30.255c.042.932.085,2.013.085,3.305Zm90.4,0h3.114V-13.771H121.21l-3.665,1.695.53,2.415,2.627-1.25h.042Zm12.627.233c3.475,0,5.191-2.945,5.191-7.182,0-3.771-1.462-7.055-5.127-7.055-3.559,0-5.233,3.136-5.233,7.14.021,3.9,1.589,7.1,5.148,7.1Zm.021-2.436c-1.229,0-1.992-1.525-1.97-4.7,0-3.114.763-4.661,1.97-4.661,1.292,0,1.949,1.61,1.949,4.661,0,3.136-.678,4.7-1.928,4.7Zm6.338-5.217a4.895,4.895,0,0,0,2.385.556c2.039,0,3.287-1.038,3.287-2.447a2,2,0,0,0-1.743-1.965V-11.3a1.914,1.914,0,0,0,1.471-1.866c0-1.1-.952-2-2.657-2a5,5,0,0,0-2.484.606l.383,1.359a3.565,3.565,0,0,1,1.668-.482c.8,0,1.186.358,1.186.84,0,.68-.791.927-1.421.927h-.729v1.347h.766c.816,0,1.607.358,1.607,1.162,0,.593-.494,1.063-1.471,1.063a4.252,4.252,0,0,1-1.866-.494ZM147.412,0h3.136V-6.017a2.179,2.179,0,0,1,.127-.826,1.648,1.648,0,0,1,1.5-1.144c1.038,0,1.5.89,1.5,2.182V0h3.136V-6.059a3.354,3.354,0,0,1,.106-.805,1.6,1.6,0,0,1,1.5-1.123c1.038,0,1.525.869,1.525,2.373V0h3.136V-6.1c0-3.093-1.5-4.492-3.5-4.492a3.945,3.945,0,0,0-1.97.508,4.506,4.506,0,0,0-1.356,1.271h-.042a2.932,2.932,0,0,0-2.839-1.78,3.585,3.585,0,0,0-3.136,1.653h-.064l-.127-1.42h-2.733c.042.932.085,2.013.085,3.305Z" transform="translate(3881 2920)"/>
    <path id="Trazado_24075" data-name="Trazado 24075" d="M10.678,0V-2.648H5.466v-.042L6.737-3.75C8.75-5.53,10.4-7.373,10.4-9.682,10.4-12.182,8.708-14,5.572-14a7.555,7.555,0,0,0-4.492,1.42L1.992-10.3A5.117,5.117,0,0,1,4.937-11.42c1.589,0,2.246.89,2.246,2.013C7.161-7.8,5.7-6.25,2.67-3.538L.911-1.949V0ZM14.7.233A1.847,1.847,0,0,0,16.61-1.716a1.848,1.848,0,0,0-1.886-1.97,1.853,1.853,0,0,0-1.907,1.97A1.849,1.849,0,0,0,14.682.233ZM18.072-.72a8.392,8.392,0,0,0,4.089.953c3.5,0,5.636-1.78,5.636-4.195A3.427,3.427,0,0,0,24.81-7.331v-.042a3.282,3.282,0,0,0,2.521-3.2C27.331-12.458,25.7-14,22.776-14a8.567,8.567,0,0,0-4.259,1.038l.657,2.331a6.112,6.112,0,0,1,2.86-.826c1.377,0,2.034.614,2.034,1.441,0,1.165-1.356,1.589-2.436,1.589h-1.25v2.309H21.7c1.4,0,2.754.614,2.754,1.992,0,1.017-.847,1.822-2.521,1.822a7.29,7.29,0,0,1-3.2-.847ZM34.7,0h3.2V-4.661l1.208-1.5L42.628,0h3.75L41.42-8.2l4.725-6.081H42.162l-3.22,4.746c-.339.508-.678,1.017-1,1.568H37.9V-14.28H34.7Zm12.9,0h3.136V-6.017a2.179,2.179,0,0,1,.127-.826,1.648,1.648,0,0,1,1.5-1.144c1.038,0,1.5.89,1.5,2.182V0h3.136V-6.059a3.353,3.353,0,0,1,.106-.805,1.6,1.6,0,0,1,1.5-1.123c1.038,0,1.525.869,1.525,2.373V0h3.136V-6.1c0-3.093-1.5-4.492-3.5-4.492a3.945,3.945,0,0,0-1.97.508,4.506,4.506,0,0,0-1.356,1.271H56.42a2.932,2.932,0,0,0-2.839-1.78,3.585,3.585,0,0,0-3.136,1.653h-.064l-.127-1.42H47.522c.042.932.085,2.013.085,3.305ZM74.853-14.513l-1.229,3.242h-.042l-1.165-3.242-1.886,1.081,2.225,2.67v.042L69.45-11.4v2.14l3.326-.593.021.042L70.531-7.161l1.822,1.1,1.208-3.263.042-.021,1.229,3.284,1.864-1.1L74.408-9.767v-.064l3.411.572V-11.4l-3.39.678v-.042L76.7-13.454ZM87.713,0h3.114V-13.771H88.179l-3.665,1.695.53,2.415,2.627-1.25h.042Zm12.627.233c3.475,0,5.191-2.945,5.191-7.182,0-3.771-1.462-7.055-5.127-7.055-3.559,0-5.233,3.136-5.233,7.14.021,3.9,1.589,7.1,5.148,7.1Zm.021-2.436c-1.229,0-1.992-1.525-1.97-4.7,0-3.114.763-4.661,1.97-4.661,1.292,0,1.949,1.61,1.949,4.661,0,3.136-.678,4.7-1.928,4.7ZM106.7-7.42a4.895,4.895,0,0,0,2.385.556c2.039,0,3.287-1.038,3.287-2.447a2,2,0,0,0-1.743-1.965V-11.3a1.914,1.914,0,0,0,1.471-1.866c0-1.1-.952-2-2.657-2a5,5,0,0,0-2.484.606l.383,1.359a3.565,3.565,0,0,1,1.668-.482c.8,0,1.186.358,1.186.84,0,.68-.791.927-1.421.927h-.729v1.347h.766c.816,0,1.607.358,1.607,1.162,0,.593-.494,1.063-1.471,1.063a4.252,4.252,0,0,1-1.866-.494ZM114.382,0h3.136V-6.017a2.179,2.179,0,0,1,.127-.826,1.648,1.648,0,0,1,1.5-1.144c1.038,0,1.5.89,1.5,2.182V0h3.136V-6.059a3.353,3.353,0,0,1,.106-.805,1.6,1.6,0,0,1,1.5-1.123c1.038,0,1.525.869,1.525,2.373V0h3.136V-6.1c0-3.093-1.5-4.492-3.5-4.492a3.945,3.945,0,0,0-1.97.508,4.506,4.506,0,0,0-1.356,1.271H123.2a2.932,2.932,0,0,0-2.839-1.78,3.585,3.585,0,0,0-3.136,1.653h-.064l-.127-1.42H114.3c.042.932.085,2.013.085,3.305Z" transform="translate(4124 2920)"/>
    <path id="Trazado_24079" data-name="Trazado 24079" d="M10.678,0V-2.648H5.466v-.042L6.737-3.75C8.75-5.53,10.4-7.373,10.4-9.682,10.4-12.182,8.708-14,5.572-14a7.555,7.555,0,0,0-4.492,1.42L1.992-10.3A5.117,5.117,0,0,1,4.937-11.42c1.589,0,2.246.89,2.246,2.013C7.161-7.8,5.7-6.25,2.67-3.538L.911-1.949V0ZM14.7.233A1.847,1.847,0,0,0,16.61-1.716a1.848,1.848,0,0,0-1.886-1.97,1.853,1.853,0,0,0-1.907,1.97A1.849,1.849,0,0,0,14.682.233ZM18.072-.72a8.392,8.392,0,0,0,4.089.953c3.5,0,5.636-1.78,5.636-4.195A3.427,3.427,0,0,0,24.81-7.331v-.042a3.282,3.282,0,0,0,2.521-3.2C27.331-12.458,25.7-14,22.776-14a8.567,8.567,0,0,0-4.259,1.038l.657,2.331a6.112,6.112,0,0,1,2.86-.826c1.377,0,2.034.614,2.034,1.441,0,1.165-1.356,1.589-2.436,1.589h-1.25v2.309H21.7c1.4,0,2.754.614,2.754,1.992,0,1.017-.847,1.822-2.521,1.822a7.29,7.29,0,0,1-3.2-.847ZM34.7,0h3.2V-4.661l1.208-1.5L42.628,0h3.75L41.42-8.2l4.725-6.081H42.162l-3.22,4.746c-.339.508-.678,1.017-1,1.568H37.9V-14.28H34.7Zm12.9,0h3.136V-6.017a2.179,2.179,0,0,1,.127-.826,1.648,1.648,0,0,1,1.5-1.144c1.038,0,1.5.89,1.5,2.182V0h3.136V-6.059a3.353,3.353,0,0,1,.106-.805,1.6,1.6,0,0,1,1.5-1.123c1.038,0,1.525.869,1.525,2.373V0h3.136V-6.1c0-3.093-1.5-4.492-3.5-4.492a3.945,3.945,0,0,0-1.97.508,4.506,4.506,0,0,0-1.356,1.271H56.42a2.932,2.932,0,0,0-2.839-1.78,3.585,3.585,0,0,0-3.136,1.653h-.064l-.127-1.42H47.522c.042.932.085,2.013.085,3.305ZM74.853-14.513l-1.229,3.242h-.042l-1.165-3.242-1.886,1.081,2.225,2.67v.042L69.45-11.4v2.14l3.326-.593.021.042L70.531-7.161l1.822,1.1,1.208-3.263.042-.021,1.229,3.284,1.864-1.1L74.408-9.767v-.064l3.411.572V-11.4l-3.39.678v-.042L76.7-13.454ZM87.713,0h3.114V-13.771H88.179l-3.665,1.695.53,2.415,2.627-1.25h.042Zm12.627.233c3.475,0,5.191-2.945,5.191-7.182,0-3.771-1.462-7.055-5.127-7.055-3.559,0-5.233,3.136-5.233,7.14.021,3.9,1.589,7.1,5.148,7.1Zm.021-2.436c-1.229,0-1.992-1.525-1.97-4.7,0-3.114.763-4.661,1.97-4.661,1.292,0,1.949,1.61,1.949,4.661,0,3.136-.678,4.7-1.928,4.7ZM112.1.233c3.475,0,5.191-2.945,5.191-7.182,0-3.771-1.462-7.055-5.127-7.055-3.559,0-5.233,3.136-5.233,7.14.021,3.9,1.589,7.1,5.148,7.1Zm.021-2.436c-1.229,0-1.992-1.525-1.97-4.7,0-3.114.763-4.661,1.97-4.661,1.292,0,1.949,1.61,1.949,4.661,0,3.136-.678,4.7-1.928,4.7ZM123.858.233c3.475,0,5.191-2.945,5.191-7.182,0-3.771-1.462-7.055-5.127-7.055-3.559,0-5.233,3.136-5.233,7.14.021,3.9,1.589,7.1,5.148,7.1Zm.021-2.436c-1.229,0-1.992-1.525-1.97-4.7,0-3.114.763-4.661,1.97-4.661,1.292,0,1.949,1.61,1.949,4.661,0,3.136-.678,4.7-1.928,4.7ZM131.04,0h3.136V-6.017a2.179,2.179,0,0,1,.127-.826,1.648,1.648,0,0,1,1.5-1.144c1.038,0,1.5.89,1.5,2.182V0h3.136V-6.059a3.354,3.354,0,0,1,.106-.805,1.6,1.6,0,0,1,1.5-1.123c1.038,0,1.525.869,1.525,2.373V0h3.136V-6.1c0-3.093-1.5-4.492-3.5-4.492a3.945,3.945,0,0,0-1.97.508A4.506,4.506,0,0,0,139.9-8.814h-.042a2.932,2.932,0,0,0-2.839-1.78,3.585,3.585,0,0,0-3.136,1.653h-.064l-.127-1.42h-2.733c.042.932.085,2.013.085,3.305Z" transform="translate(4350 2920)"/>
    <path id="Trazado_24076" data-name="Trazado 24076" d="M5.742-4.64v-.381A3.73,3.73,0,0,1,6.822-7.67,5.288,5.288,0,0,0,8.644-11.25c0-1.737-1.292-3.284-4.068-3.284a7.2,7.2,0,0,0-3.538.869l.7,2.309a3.889,3.889,0,0,1,2.119-.636c1.038.021,1.525.53,1.525,1.271a3.968,3.968,0,0,1-1.229,2.2A4.765,4.765,0,0,0,2.9-5.191l.042.551ZM4.28.233A1.824,1.824,0,0,0,6.165-1.695,1.83,1.83,0,0,0,4.259-3.623,1.824,1.824,0,0,0,2.373-1.695,1.836,1.836,0,0,0,4.259.233ZM25.488-6.886v-1.97H14.555v1.97Zm0,4.386V-4.47H14.555V-2.5Z" transform="translate(4085 2934)"/>
    <path id="Trazado_24078" data-name="Trazado 24078" d="M11.78-6.886v-1.97H.847v1.97Zm0,4.386V-4.47H.847V-2.5Z" transform="translate(4310 2934)"/>
    <path id="Trazado_24081" data-name="Trazado 24081" d="M11.78-6.886v-1.97H.847v1.97Zm0,4.386V-4.47H.847V-2.5ZM40.424,0V-2.648H35.212v-.042L36.484-3.75c2.013-1.78,3.665-3.623,3.665-5.932,0-2.5-1.695-4.322-4.831-4.322a7.555,7.555,0,0,0-4.492,1.42l.911,2.288a5.117,5.117,0,0,1,2.945-1.123c1.589,0,2.246.89,2.246,2.013-.021,1.61-1.483,3.157-4.513,5.869L30.657-1.949V0ZM42.31-.72A8.392,8.392,0,0,0,46.4.233c3.5,0,5.636-1.78,5.636-4.195a3.427,3.427,0,0,0-2.987-3.369v-.042a3.282,3.282,0,0,0,2.521-3.2c0-1.886-1.631-3.432-4.555-3.432a8.567,8.567,0,0,0-4.259,1.038l.657,2.331a6.112,6.112,0,0,1,2.86-.826c1.377,0,2.034.614,2.034,1.441,0,1.165-1.356,1.589-2.436,1.589h-1.25v2.309h1.314c1.4,0,2.754.614,2.754,1.992,0,1.017-.847,1.822-2.521,1.822a7.29,7.29,0,0,1-3.2-.847ZM59.132.233c3.475,0,5.191-2.945,5.191-7.182C64.323-10.721,62.861-14,59.2-14c-3.559,0-5.233,3.136-5.233,7.14.021,3.9,1.589,7.1,5.148,7.1ZM59.154-2.2c-1.229,0-1.992-1.525-1.97-4.7,0-3.114.763-4.661,1.97-4.661,1.292,0,1.949,1.61,1.949,4.661,0,3.136-.678,4.7-1.928,4.7ZM70.891.233c3.475,0,5.191-2.945,5.191-7.182,0-3.771-1.462-7.055-5.127-7.055-3.559,0-5.233,3.136-5.233,7.14.021,3.9,1.589,7.1,5.148,7.1ZM70.912-2.2c-1.229,0-1.992-1.525-1.97-4.7,0-3.114.763-4.661,1.97-4.661,1.292,0,1.949,1.61,1.949,4.661,0,3.136-.678,4.7-1.928,4.7ZM82.353,0h3.136V-6.017a2.179,2.179,0,0,1,.127-.826,1.648,1.648,0,0,1,1.5-1.144c1.038,0,1.5.89,1.5,2.182V0H91.76V-6.059a3.353,3.353,0,0,1,.106-.805,1.6,1.6,0,0,1,1.5-1.123c1.038,0,1.525.869,1.525,2.373V0h3.136V-6.1c0-3.093-1.5-4.492-3.5-4.492a3.945,3.945,0,0,0-1.97.508,4.506,4.506,0,0,0-1.356,1.271h-.042a2.932,2.932,0,0,0-2.839-1.78,3.585,3.585,0,0,0-3.136,1.653h-.064L85-10.36H82.268c.042.932.085,2.013.085,3.305Z" transform="translate(4548 2934)"/>
    <path id="Trazado_24072" data-name="Trazado 24072" d="M10.678,0V-2.648H5.466v-.042L6.737-3.75C8.75-5.53,10.4-7.373,10.4-9.682,10.4-12.182,8.708-14,5.572-14a7.555,7.555,0,0,0-4.492,1.42L1.992-10.3A5.117,5.117,0,0,1,4.937-11.42c1.589,0,2.246.89,2.246,2.013C7.161-7.8,5.7-6.25,2.67-3.538L.911-1.949V0ZM14.7.233A1.847,1.847,0,0,0,16.61-1.716a1.848,1.848,0,0,0-1.886-1.97,1.853,1.853,0,0,0-1.907,1.97A1.849,1.849,0,0,0,14.682.233ZM18.072-.72a8.392,8.392,0,0,0,4.089.953c3.5,0,5.636-1.78,5.636-4.195A3.427,3.427,0,0,0,24.81-7.331v-.042a3.282,3.282,0,0,0,2.521-3.2C27.331-12.458,25.7-14,22.776-14a8.567,8.567,0,0,0-4.259,1.038l.657,2.331a6.112,6.112,0,0,1,2.86-.826c1.377,0,2.034.614,2.034,1.441,0,1.165-1.356,1.589-2.436,1.589h-1.25v2.309H21.7c1.4,0,2.754.614,2.754,1.992,0,1.017-.847,1.822-2.521,1.822a7.29,7.29,0,0,1-3.2-.847ZM34.7,0h3.2V-4.661l1.208-1.5L42.628,0h3.75L41.42-8.2l4.725-6.081H42.162l-3.22,4.746c-.339.508-.678,1.017-1,1.568H37.9V-14.28H34.7Zm12.9,0h3.136V-6.017a2.179,2.179,0,0,1,.127-.826,1.648,1.648,0,0,1,1.5-1.144c1.038,0,1.5.89,1.5,2.182V0h3.136V-6.059a3.353,3.353,0,0,1,.106-.805,1.6,1.6,0,0,1,1.5-1.123c1.038,0,1.525.869,1.525,2.373V0h3.136V-6.1c0-3.093-1.5-4.492-3.5-4.492a3.945,3.945,0,0,0-1.97.508,4.506,4.506,0,0,0-1.356,1.271H56.42a2.932,2.932,0,0,0-2.839-1.78,3.585,3.585,0,0,0-3.136,1.653h-.064l-.127-1.42H47.522c.042.932.085,2.013.085,3.305Zm74.027-4.64v-.381a3.73,3.73,0,0,1,1.081-2.648,5.288,5.288,0,0,0,1.822-3.581c0-1.737-1.292-3.284-4.068-3.284a7.2,7.2,0,0,0-3.538.869l.7,2.309a3.889,3.889,0,0,1,2.119-.636c1.038.021,1.525.53,1.525,1.271a3.968,3.968,0,0,1-1.229,2.2,4.765,4.765,0,0,0-1.25,3.326l.042.551ZM120.172.233a1.824,1.824,0,0,0,1.886-1.928,1.83,1.83,0,0,0-1.907-1.928,1.824,1.824,0,0,0-1.886,1.928A1.836,1.836,0,0,0,120.15.233Z" transform="translate(3881 2949)"/>
    <path id="Trazado_24077" data-name="Trazado 24077" d="M5,0H8.115V-13.771H5.466L1.8-12.076l.53,2.415,2.627-1.25H5ZM17.437,0h3.2V-4.661l1.208-1.5L25.361,0h3.75L24.153-8.2l4.725-6.081H24.895l-3.22,4.746c-.339.508-.678,1.017-1,1.568h-.042V-14.28h-3.2Zm12.9,0h3.136V-6.017a2.179,2.179,0,0,1,.127-.826,1.648,1.648,0,0,1,1.5-1.144c1.038,0,1.5.89,1.5,2.182V0h3.136V-6.059a3.353,3.353,0,0,1,.106-.805,1.6,1.6,0,0,1,1.5-1.123c1.038,0,1.525.869,1.525,2.373V0h3.136V-6.1c0-3.093-1.5-4.492-3.5-4.492a3.945,3.945,0,0,0-1.97.508A4.506,4.506,0,0,0,39.2-8.814h-.042a2.932,2.932,0,0,0-2.839-1.78,3.585,3.585,0,0,0-3.136,1.653h-.064l-.127-1.42H30.255c.042.932.085,2.013.085,3.305Z" transform="translate(4166 2949)"/>
    <path id="Trazado_24080" data-name="Trazado 24080" d="M5,0H8.115V-13.771H5.466L1.8-12.076l.53,2.415,2.627-1.25H5ZM17.437,0h3.2V-4.661l1.208-1.5L25.361,0h3.75L24.153-8.2l4.725-6.081H24.895l-3.22,4.746c-.339.508-.678,1.017-1,1.568h-.042V-14.28h-3.2Zm12.9,0h3.136V-6.017a2.179,2.179,0,0,1,.127-.826,1.648,1.648,0,0,1,1.5-1.144c1.038,0,1.5.89,1.5,2.182V0h3.136V-6.059a3.353,3.353,0,0,1,.106-.805,1.6,1.6,0,0,1,1.5-1.123c1.038,0,1.525.869,1.525,2.373V0h3.136V-6.1c0-3.093-1.5-4.492-3.5-4.492a3.945,3.945,0,0,0-1.97.508A4.506,4.506,0,0,0,39.2-8.814h-.042a2.932,2.932,0,0,0-2.839-1.78,3.585,3.585,0,0,0-3.136,1.653h-.064l-.127-1.42H30.255c.042.932.085,2.013.085,3.305Z" transform="translate(4400 2949)"/>
    <path id="Trazado_24073" data-name="Trazado 24073" d="M0,0H30.98V1.766H0Z" transform="translate(3985.754 2915.665) rotate(180)" fill="#ff9100"/>
    <path id="Trazado_23503" data-name="Trazado 23503" d="M1448.356,221.492l1.2-1.293-6.377-5.926,6.377-5.928-1.2-1.293-7.765,7.221Z" transform="translate(5428.26 3129.054) rotate(180)" fill="#ff9100"/>
    <path id="Trazado_24074" data-name="Trazado 24074" d="M0,0H30.98V1.766H0Z" transform="translate(3985.754 2942.665) rotate(180)" fill="#ff9100"/>
    <path id="Trazado_23503-2" data-name="Trazado 23503" d="M1448.356,221.492l1.2-1.293-6.377-5.926,6.377-5.928-1.2-1.293-7.765,7.221Z" transform="translate(5428.26 3156.054) rotate(180)" fill="#ff9100"/>
    <path id="Trazado_24067" data-name="Trazado 24067" d="M4124,2212h132.875" transform="translate(0 716)" fill="none" stroke="#0d468f" stroke-width="2"/>
    <path id="Trazado_24068" data-name="Trazado 24068" d="M4124,2212h149.121" transform="translate(225.5 716)" fill="none" stroke="#0d468f" stroke-width="2"/>
    <path id="Trazado_24069" data-name="Trazado 24069" d="M4380.789,2154.316l39.585-39.585" transform="translate(-6 780)" fill="none" stroke="#ff9100" stroke-width="2"/>
    <path id="Trazado_24066" data-name="Trazado 24066" d="M4380.789,2154.316l39.585-39.585" transform="translate(31 809)" fill="none" stroke="#ff9100" stroke-width="2"/>
  </g>
</svg>
