<svg xmlns="http://www.w3.org/2000/svg" width="380.211" height="137.848" viewBox="0 0 380.211 137.848">
  <g id="Grupo_14551" data-name="Grupo 14551" transform="translate(-510 -1816)">
    <path id="Trazado_24108" data-name="Trazado 24108" d="M0,0H380.211V137.848H0Z" transform="translate(510 1816)" fill="#d5f4fc"/>
    <path id="Trazado_24110" data-name="Trazado 24110" d="M-25.94,0h3.114V-13.771h-2.648l-3.665,1.695.53,2.415,2.627-1.25h.042Zm12.627.233c3.475,0,5.191-2.945,5.191-7.182C-8.122-10.721-9.584-14-13.25-14c-3.559,0-5.233,3.136-5.233,7.14.021,3.9,1.589,7.1,5.148,7.1Zm.021-2.436c-1.229,0-1.992-1.525-1.97-4.7,0-3.114.763-4.661,1.97-4.661,1.292,0,1.949,1.61,1.949,4.661,0,3.136-.678,4.7-1.928,4.7ZM-1.195-7V-8.545h-3.04v-.025l.741-.618c1.174-1.038,2.138-2.113,2.138-3.46,0-1.458-.989-2.521-2.818-2.521a4.407,4.407,0,0,0-2.62.828l.531,1.335a2.985,2.985,0,0,1,1.718-.655c.927,0,1.31.519,1.31,1.174-.012.939-.865,1.841-2.632,3.423l-1.026.927V-7ZM5.114-.064A27.7,27.7,0,0,0,8.779.148c2.8,0,5.106-.593,6.61-1.843a7.3,7.3,0,0,0,2.352-5.784,6.291,6.291,0,0,0-2.415-5.381c-1.356-1.017-3.136-1.525-5.869-1.525a26.016,26.016,0,0,0-4.343.318ZM8.334-11.78A6.871,6.871,0,0,1,9.8-11.907c2.8,0,4.534,1.568,4.534,4.534,0,3.411-1.928,5.021-4.873,5a6.057,6.057,0,0,1-1.123-.064ZM29.648-7.267c0-1.547.042-2.415.085-3.093h-2.8L26.83-9.11h-.042a3.1,3.1,0,0,0-2.839-1.483c-2.564,0-4.7,2.119-4.7,5.466,0,2.966,1.822,5.042,4.386,5.042a3.351,3.351,0,0,0,2.8-1.335h.042v.657A2.463,2.463,0,0,1,23.779,1.97a6.3,6.3,0,0,1-3.009-.784l-.636,2.458a8.291,8.291,0,0,0,3.729.784,6.3,6.3,0,0,0,4.195-1.271C29.246,2.119,29.648.487,29.648-1.5Zm-3.22,2.648a2.961,2.961,0,0,1-.106.869,1.761,1.761,0,0,1-1.716,1.292c-1.335,0-2.1-1.208-2.1-2.754,0-1.886.932-2.945,2.119-2.945a1.766,1.766,0,0,1,1.737,1.42,2.824,2.824,0,0,1,.064.593ZM-5.35,15.064l3.432,5.064-3.517,5.3H-1.9l.975-1.864c.254-.508.53-1.017.784-1.589h.064A13.959,13.959,0,0,0,.731,23.56l1.038,1.864H5.413L1.96,20l3.411-4.937h-3.5L.964,16.738c-.275.53-.53,1.038-.805,1.61H.117c-.275-.508-.551-1.017-.847-1.547l-1.017-1.737Z" transform="translate(606 1879)"/>
    <path id="Trazado_24109" data-name="Trazado 24109" d="M-21.163,0h3.114V-13.771H-20.7l-3.665,1.695.53,2.415,2.627-1.25h.042ZM-8.535.233c3.475,0,5.191-2.945,5.191-7.182C-3.345-10.721-4.807-14-8.472-14c-3.559,0-5.233,3.136-5.233,7.14.021,3.9,1.589,7.1,5.148,7.1ZM-8.514-2.2c-1.229,0-1.992-1.525-1.97-4.7,0-3.114.763-4.661,1.97-4.661,1.292,0,1.949,1.61,1.949,4.661,0,3.136-.678,4.7-1.928,4.7ZM3.237-15.033H-1.187l-.519,4.214a6.661,6.661,0,0,1,1.075-.074c1.607,0,2.262.507,2.262,1.335C1.63-8.705.8-8.335.024-8.335a4.5,4.5,0,0,1-1.8-.4l-.346,1.409A5.105,5.105,0,0,0,.11-6.864c2.163,0,3.448-1.322,3.448-2.818A2.287,2.287,0,0,0,2.582-11.7a3.647,3.647,0,0,0-2.113-.581c-.2,0-.346.012-.519.025l.173-1.236H3.237ZM12.9-2.648a4.545,4.545,0,0,1-1.843.339,2.7,2.7,0,0,1-2.839-2.9,2.675,2.675,0,0,1,2.775-2.881,4.406,4.406,0,0,1,1.8.318L13.3-10.17a7.47,7.47,0,0,0-2.458-.4c-3.856,0-5.932,2.479-5.932,5.487,0,3.242,2.14,5.3,5.487,5.3a7.367,7.367,0,0,0,2.881-.487ZM24.87-7.267c0-1.547.042-2.415.085-3.093h-2.8l-.106,1.25H22.01a3.1,3.1,0,0,0-2.839-1.483c-2.564,0-4.7,2.119-4.7,5.466,0,2.966,1.822,5.042,4.386,5.042a3.351,3.351,0,0,0,2.8-1.335h.042v.657A2.463,2.463,0,0,1,19,1.97a6.3,6.3,0,0,1-3.009-.784l-.636,2.458a8.291,8.291,0,0,0,3.729.784,6.3,6.3,0,0,0,4.195-1.271C24.468,2.119,24.87.487,24.87-1.5ZM21.65-4.619a2.961,2.961,0,0,1-.106.869,1.761,1.761,0,0,1-1.716,1.292c-1.335,0-2.1-1.208-2.1-2.754,0-1.886.932-2.945,2.119-2.945a1.766,1.766,0,0,1,1.737,1.42,2.824,2.824,0,0,1,.064.593ZM-31.632,25.424h3.114V11.653h-2.648l-3.665,1.695.53,2.415,2.627-1.25h.042Zm7.564-.72a8.392,8.392,0,0,0,4.089.953c3.5,0,5.636-1.78,5.636-4.195a3.427,3.427,0,0,0-2.987-3.369v-.042a3.282,3.282,0,0,0,2.521-3.2c0-1.886-1.631-3.432-4.555-3.432a8.567,8.567,0,0,0-4.259,1.038l.657,2.331a6.112,6.112,0,0,1,2.86-.826c1.377,0,2.034.614,2.034,1.441,0,1.165-1.356,1.589-2.436,1.589h-1.25V19.3h1.314c1.4,0,2.754.614,2.754,1.992,0,1.017-.847,1.822-2.521,1.822a7.29,7.29,0,0,1-3.2-.847Zm16.822.953c3.475,0,5.191-2.945,5.191-7.182,0-3.771-1.462-7.055-5.127-7.055-3.559,0-5.233,3.136-5.233,7.14.021,3.9,1.589,7.1,5.148,7.1Zm.021-2.436c-1.229,0-1.992-1.525-1.97-4.7,0-3.114.763-4.661,1.97-4.661,1.292,0,1.949,1.61,1.949,4.661,0,3.136-.678,4.7-1.928,4.7ZM4.513,25.657c3.475,0,5.191-2.945,5.191-7.182,0-3.771-1.462-7.055-5.127-7.055-3.559,0-5.233,3.136-5.233,7.14.021,3.9,1.589,7.1,5.148,7.1Zm.021-2.436c-1.229,0-1.992-1.525-1.97-4.7,0-3.114.763-4.661,1.97-4.661,1.292,0,1.949,1.61,1.949,4.661,0,3.136-.678,4.7-1.928,4.7Zm18.835-.445a4.545,4.545,0,0,1-1.843.339,2.7,2.7,0,0,1-2.839-2.9,2.675,2.675,0,0,1,2.775-2.881,4.406,4.406,0,0,1,1.8.318l.508-2.394a7.47,7.47,0,0,0-2.458-.4c-3.856,0-5.932,2.479-5.932,5.487,0,3.242,2.14,5.3,5.487,5.3a7.367,7.367,0,0,0,2.881-.487ZM35.34,18.157c0-1.547.042-2.415.085-3.093h-2.8l-.106,1.25h-.042a3.1,3.1,0,0,0-2.839-1.483c-2.564,0-4.7,2.119-4.7,5.466,0,2.966,1.822,5.042,4.386,5.042A3.351,3.351,0,0,0,32.119,24h.042v.657a2.463,2.463,0,0,1-2.691,2.733,6.3,6.3,0,0,1-3.009-.784l-.636,2.458a8.291,8.291,0,0,0,3.729.784,6.3,6.3,0,0,0,4.195-1.271c1.186-1.038,1.589-2.67,1.589-4.661Zm-3.22,2.648a2.961,2.961,0,0,1-.106.869A1.761,1.761,0,0,1,30.3,22.967c-1.335,0-2.1-1.208-2.1-2.754,0-1.886.932-2.945,2.119-2.945a1.766,1.766,0,0,1,1.737,1.42,2.824,2.824,0,0,1,.064.593Z" transform="translate(789 1879)"/>
    <path id="Trazado_24111" data-name="Trazado 24111" d="M0,0H30.98V1.766H0Z" transform="translate(715.754 1874.665) rotate(180)" fill="#ff9100"/>
    <g id="Grupo_14118" data-name="Grupo 14118" transform="translate(717.668 1881.002) rotate(180)">
      <g id="Grupo_14117" data-name="Grupo 14117">
        <path id="Trazado_23503" data-name="Trazado 23503" d="M1448.356,221.492l1.2-1.293-6.377-5.926,6.377-5.928-1.2-1.293-7.765,7.221Z" transform="translate(-1440.591 -207.052)" fill="#ff9100"/>
      </g>
    </g>
    <path id="Trazado_24112" data-name="Trazado 24112" d="M0,0H30.98V1.766H0Z" transform="translate(715.754 1901.665) rotate(180)" fill="#ff9100"/>
    <g id="Grupo_14118-2" data-name="Grupo 14118" transform="translate(717.668 1908.002) rotate(180)">
      <g id="Grupo_14117-2" data-name="Grupo 14117">
        <path id="Trazado_23503-2" data-name="Trazado 23503" d="M1448.356,221.492l1.2-1.293-6.377-5.926,6.377-5.928-1.2-1.293-7.765,7.221Z" transform="translate(-1440.591 -207.052)" fill="#ff9100"/>
      </g>
    </g>
  </g>
</svg>
