<svg xmlns="http://www.w3.org/2000/svg" width="360.211" height="117.848" viewBox="0 0 360.211 117.848">
  <g id="Grupo_14555" data-name="Grupo 14555" transform="translate(-520 -2001)">
    <path id="Trazado_24120" data-name="Trazado 24120" d="M0,0H360.211V117.848H0Z" transform="translate(520 2001)" fill="#d5f4fc"/>
    <path id="Trazado_24121" data-name="Trazado 24121" d="M-4.651,0h3.114V-13.771H-4.184L-7.85-12.076l.53,2.415,2.627-1.25h.042ZM5.9-14.513a3.152,3.152,0,0,0-3.22,3.157,3.078,3.078,0,0,0,3.2,3.072A3.165,3.165,0,0,0,9.121-11.42a3.1,3.1,0,0,0-3.2-3.093Zm0,1.483A1.529,1.529,0,0,1,7.426-11.4,1.533,1.533,0,0,1,5.9-9.767a1.54,1.54,0,0,1-1.525-1.61,1.559,1.559,0,0,1,1.5-1.653ZM.434,11.653H-7.151l-.89,7.225A11.419,11.419,0,0,1-6.2,18.75c2.754,0,3.877.869,3.877,2.288,0,1.462-1.42,2.1-2.754,2.1a7.705,7.705,0,0,1-3.093-.678l-.593,2.415a8.752,8.752,0,0,0,3.835.784c3.708,0,5.911-2.267,5.911-4.831A3.92,3.92,0,0,0-.689,17.373a6.253,6.253,0,0,0-3.623-1c-.339,0-.593.021-.89.042l.3-2.119H.434ZM5.9,10.911a3.152,3.152,0,0,0-3.22,3.157,3.078,3.078,0,0,0,3.2,3.072A3.165,3.165,0,0,0,9.121,14a3.1,3.1,0,0,0-3.2-3.093Zm0,1.483a1.529,1.529,0,0,1,1.525,1.631,1.528,1.528,0,1,1-3.051.021,1.559,1.559,0,0,1,1.5-1.653Z" transform="translate(606 2052)"/>
    <path id="Trazado_24122" data-name="Trazado 24122" d="M-22.437-13.962a6.78,6.78,0,0,0-1.292.021,8.178,8.178,0,0,0-5.3,2.013,8.262,8.262,0,0,0-2.458,6.144c0,3.284,1.8,6.017,5.487,6.017a4.927,4.927,0,0,0,5.064-4.979,4.18,4.18,0,0,0-4.259-4.492,3.985,3.985,0,0,0-2.924,1.081h-.064c.36-1.589,1.631-3.072,4.492-3.284a8.852,8.852,0,0,1,1.25-.042ZM-26.06-2.14c-1.462,0-2.161-1.314-2.225-2.775a1.691,1.691,0,0,1,.148-.826A2.063,2.063,0,0,1-26.25-6.949,2.1,2.1,0,0,1-24.2-4.576c0,1.4-.72,2.436-1.843,2.436ZM-14.492.233C-11.017.233-9.3-2.712-9.3-6.949-9.3-10.721-10.763-14-14.428-14c-3.559,0-5.233,3.136-5.233,7.14.021,3.9,1.589,7.1,5.148,7.1Zm.021-2.436c-1.229,0-1.992-1.525-1.97-4.7,0-3.114.763-4.661,1.97-4.661,1.292,0,1.949,1.61,1.949,4.661,0,3.136-.678,4.7-1.928,4.7ZM-3.03,0H.106V-6.017a2.179,2.179,0,0,1,.127-.826,1.648,1.648,0,0,1,1.5-1.144c1.038,0,1.5.89,1.5,2.182V0H6.377V-6.059a3.353,3.353,0,0,1,.106-.805,1.6,1.6,0,0,1,1.5-1.123c1.038,0,1.525.869,1.525,2.373V0h3.136V-6.1c0-3.093-1.5-4.492-3.5-4.492a3.945,3.945,0,0,0-1.97.508A4.506,4.506,0,0,0,5.826-8.814H5.784a2.932,2.932,0,0,0-2.839-1.78A3.585,3.585,0,0,0-.191-8.941H-.254l-.127-1.42H-3.114c.042.932.085,2.013.085,3.305ZM18.411,0V-10.36h-3.22V0ZM16.8-11.632a1.6,1.6,0,0,0,1.716-1.61,1.593,1.593,0,0,0-1.695-1.61,1.6,1.6,0,0,0-1.716,1.61,1.587,1.587,0,0,0,1.674,1.61ZM21,0h3.22V-5.975a2.319,2.319,0,0,1,.106-.805,1.768,1.768,0,0,1,1.653-1.208c1.165,0,1.631.911,1.631,2.246V0h3.22V-6.123c0-3.051-1.589-4.47-3.708-4.47a3.721,3.721,0,0,0-3.2,1.674h-.064l-.148-1.441h-2.8c.042.932.085,2.013.085,3.305ZM-5.35,15.064l3.432,5.064-3.517,5.3H-1.9l.975-1.864c.254-.508.53-1.017.784-1.589h.064A13.959,13.959,0,0,0,.731,23.56l1.038,1.864H5.413L1.96,20l3.411-4.937h-3.5L.964,16.738c-.275.53-.53,1.038-.805,1.61H.117c-.275-.508-.551-1.017-.847-1.547l-1.017-1.737Z" transform="translate(775 2052)"/>
    <path id="Trazado_24123" data-name="Trazado 24123" d="M0,0H30.98V1.766H0Z" transform="translate(701.755 2047.665) rotate(180)" fill="#ff9100"/>
    <g id="Grupo_14118" data-name="Grupo 14118" transform="translate(703.669 2054.002) rotate(180)">
      <g id="Grupo_14117" data-name="Grupo 14117">
        <path id="Trazado_23503" data-name="Trazado 23503" d="M1448.356,221.492l1.2-1.293-6.377-5.926,6.377-5.928-1.2-1.293-7.765,7.221Z" transform="translate(-1440.591 -207.052)" fill="#ff9100"/>
      </g>
    </g>
    <path id="Trazado_24124" data-name="Trazado 24124" d="M0,0H30.98V1.766H0Z" transform="translate(701.755 2074.665) rotate(180)" fill="#ff9100"/>
    <g id="Grupo_14118-2" data-name="Grupo 14118" transform="translate(703.669 2081.002) rotate(180)">
      <g id="Grupo_14117-2" data-name="Grupo 14117">
        <path id="Trazado_23503-2" data-name="Trazado 23503" d="M1448.356,221.492l1.2-1.293-6.377-5.926,6.377-5.928-1.2-1.293-7.765,7.221Z" transform="translate(-1440.591 -207.052)" fill="#ff9100"/>
      </g>
    </g>
  </g>
</svg>
