<svg xmlns="http://www.w3.org/2000/svg" width="862" height="93" viewBox="0 0 862 93">
  <g id="Grupo_14551" data-name="Grupo 14551" transform="translate(-269 -1864)">
    <path id="Trazado_24104" data-name="Trazado 24104" d="M0,0H862V93H0Z" transform="translate(269 1864)" fill="#d5f4fc"/>
    <path id="Trazado_24105" data-name="Trazado 24105" d="M-301.462,0l3.39-15.856-4.494,1.219.444-2.006,6.678-1.866L-299.354,0Zm15.45-9.179L-279.689,0h-2.653l-5.51-8.29q-.076-.14-.19-.343t-.178-.343h-.051L-290.163,0h-2.184l3.847-18.205h2.209l-1.815,8.557h.051q.14-.152.3-.317t.3-.3l8.366-7.935h2.895Zm19.106,8.239a16.465,16.465,0,0,1-.838,2.812,7.443,7.443,0,0,1-1.377,2.234,5.868,5.868,0,0,1-2.114,1.473,7.913,7.913,0,0,1-3.06.527,7.183,7.183,0,0,1-2.165-.292,9.982,9.982,0,0,1-1.682-.7l.394-1.942a9.827,9.827,0,0,0,1.7.813,5.606,5.606,0,0,0,1.942.33,5.3,5.3,0,0,0,1.961-.33,3.939,3.939,0,0,0,1.435-.971,5.363,5.363,0,0,0,1-1.568,11.922,11.922,0,0,0,.667-2.12l.444-2.031h-.051a12.742,12.742,0,0,1-.946,1.339,5.456,5.456,0,0,1-.971.939,3.792,3.792,0,0,1-1.066.559,3.917,3.917,0,0,1-1.231.184,3.919,3.919,0,0,1-1.587-.311,3.226,3.226,0,0,1-1.212-.92,4.305,4.305,0,0,1-.774-1.523,7.379,7.379,0,0,1-.273-2.107,10.015,10.015,0,0,1,.248-2.222,9.727,9.727,0,0,1,.717-2.069,8.711,8.711,0,0,1,1.149-1.8,7.641,7.641,0,0,1,1.542-1.416,7.272,7.272,0,0,1,1.9-.933,7.122,7.122,0,0,1,2.215-.336,18.434,18.434,0,0,1,2.361.152q1.181.152,2.171.343Zm.1-10.347a10.043,10.043,0,0,0-1.047-.178,10.718,10.718,0,0,0-1.314-.076,4.407,4.407,0,0,0-2.184.552,5.48,5.48,0,0,0-1.708,1.5,7.245,7.245,0,0,0-1.117,2.2,8.7,8.7,0,0,0-.4,2.653,6.279,6.279,0,0,0,.121,1.27,3.059,3.059,0,0,0,.381,1,1.931,1.931,0,0,0,.673.66,1.969,1.969,0,0,0,1.009.241,2.866,2.866,0,0,0,1.289-.292,4.252,4.252,0,0,0,1.085-.774,5.94,5.94,0,0,0,.882-1.1,11.084,11.084,0,0,0,.686-1.263,11.514,11.514,0,0,0,.5-1.276q.2-.628.317-1.136Zm13.6,1.854v-1.7h11.934v1.7Zm0,5.408v-1.7h11.934v1.7ZM-225.658,0l3.39-15.856-4.494,1.219.444-2.006,6.678-1.866L-223.551,0Zm22.115-13.127q0,.952-.089,1.987t-.279,2.088a21.035,21.035,0,0,1-.489,2.088,16.475,16.475,0,0,1-.717,2,13.516,13.516,0,0,1-.958,1.822,9.616,9.616,0,0,1-1.212,1.555,5.872,5.872,0,0,1-4.393,1.9,4.4,4.4,0,0,1-1.885-.4,4.028,4.028,0,0,1-1.466-1.168,5.587,5.587,0,0,1-.946-1.892,9.02,9.02,0,0,1-.336-2.583,19.4,19.4,0,0,1,.229-2.914,18.041,18.041,0,0,1,.7-2.933,15.875,15.875,0,0,1,1.168-2.7,10.06,10.06,0,0,1,1.65-2.234,6.71,6.71,0,0,1,2.019-1.479,5.853,5.853,0,0,1,2.526-.527,4.756,4.756,0,0,1,1.841.343,3.766,3.766,0,0,1,1.416,1.022,4.679,4.679,0,0,1,.908,1.682A7.758,7.758,0,0,1-203.543-13.127Zm-2.107.178a5.055,5.055,0,0,0-.66-2.787,2.15,2.15,0,0,0-1.917-1.009,3.158,3.158,0,0,0-1.409.324,4.8,4.8,0,0,0-1.295.971,7.332,7.332,0,0,0-.933,1.238,12.66,12.66,0,0,0-.8,1.549,16.338,16.338,0,0,0-.641,1.746q-.279.914-.476,1.828t-.3,1.79a14.27,14.27,0,0,0-.1,1.638,7.511,7.511,0,0,0,.209,1.9,3.975,3.975,0,0,0,.578,1.308,2.3,2.3,0,0,0,.87.755,2.443,2.443,0,0,0,1.073.241,3.181,3.181,0,0,0,1.346-.3,3.983,3.983,0,0,0,1.231-.914,8.185,8.185,0,0,0,1.257-1.873A16.716,16.716,0,0,0-206.6-7.084a21.2,21.2,0,0,0,.692-2.9A17.944,17.944,0,0,0-205.65-12.949ZM-188.854,0h-2.184l1.739-8.214H-198.6L-200.318,0h-2.209l3.847-18.205h2.209l-1.714,7.985h9.306l1.714-7.985h2.184Zm14.587-.939a16.467,16.467,0,0,1-.838,2.812,7.443,7.443,0,0,1-1.377,2.234A5.868,5.868,0,0,1-178.6,5.58a7.913,7.913,0,0,1-3.06.527,7.183,7.183,0,0,1-2.165-.292,9.982,9.982,0,0,1-1.682-.7l.394-1.942a9.827,9.827,0,0,0,1.7.813,5.606,5.606,0,0,0,1.942.33,5.3,5.3,0,0,0,1.961-.33,3.939,3.939,0,0,0,1.435-.971,5.363,5.363,0,0,0,1-1.568,11.922,11.922,0,0,0,.667-2.12l.444-2.031h-.051a12.742,12.742,0,0,1-.946,1.339,5.455,5.455,0,0,1-.971.939,3.792,3.792,0,0,1-1.066.559,3.917,3.917,0,0,1-1.231.184,3.919,3.919,0,0,1-1.587-.311,3.226,3.226,0,0,1-1.212-.92,4.305,4.305,0,0,1-.774-1.523,7.38,7.38,0,0,1-.273-2.107,10.015,10.015,0,0,1,.248-2.222,9.727,9.727,0,0,1,.717-2.069,8.711,8.711,0,0,1,1.149-1.8,7.641,7.641,0,0,1,1.542-1.416,7.272,7.272,0,0,1,1.9-.933,7.122,7.122,0,0,1,2.215-.336,18.434,18.434,0,0,1,2.361.152q1.181.152,2.171.343Zm.1-10.347a10.045,10.045,0,0,0-1.047-.178,10.718,10.718,0,0,0-1.314-.076,4.407,4.407,0,0,0-2.184.552,5.48,5.48,0,0,0-1.708,1.5,7.245,7.245,0,0,0-1.117,2.2,8.7,8.7,0,0,0-.4,2.653,6.28,6.28,0,0,0,.121,1.27,3.059,3.059,0,0,0,.381,1,1.931,1.931,0,0,0,.673.66,1.969,1.969,0,0,0,1.009.241,2.866,2.866,0,0,0,1.289-.292,4.252,4.252,0,0,0,1.085-.774,5.939,5.939,0,0,0,.882-1.1,11.089,11.089,0,0,0,.686-1.263,11.514,11.514,0,0,0,.5-1.276q.2-.628.317-1.136Zm13.6,1.854v-1.7h11.934v1.7Zm0,5.408v-1.7h11.934v1.7ZM-133.02,0l3.39-15.856-4.494,1.219.444-2.006L-127-18.51-130.913,0Zm22.115-13.127q0,.952-.089,1.987t-.279,2.088a21.037,21.037,0,0,1-.489,2.088,16.473,16.473,0,0,1-.717,2,13.515,13.515,0,0,1-.958,1.822,9.616,9.616,0,0,1-1.212,1.555,5.872,5.872,0,0,1-4.393,1.9,4.4,4.4,0,0,1-1.885-.4,4.028,4.028,0,0,1-1.466-1.168,5.586,5.586,0,0,1-.946-1.892,9.021,9.021,0,0,1-.336-2.583,19.4,19.4,0,0,1,.229-2.914,18.042,18.042,0,0,1,.7-2.933,15.875,15.875,0,0,1,1.168-2.7,10.06,10.06,0,0,1,1.65-2.234,6.71,6.71,0,0,1,2.019-1.479,5.853,5.853,0,0,1,2.526-.527,4.756,4.756,0,0,1,1.841.343,3.766,3.766,0,0,1,1.416,1.022,4.679,4.679,0,0,1,.908,1.682A7.759,7.759,0,0,1-110.905-13.127Zm-2.107.178a5.055,5.055,0,0,0-.66-2.787,2.15,2.15,0,0,0-1.917-1.009,3.158,3.158,0,0,0-1.409.324,4.8,4.8,0,0,0-1.295.971,7.332,7.332,0,0,0-.933,1.238,12.66,12.66,0,0,0-.8,1.549,16.336,16.336,0,0,0-.641,1.746q-.279.914-.476,1.828t-.3,1.79a14.268,14.268,0,0,0-.1,1.638,7.511,7.511,0,0,0,.209,1.9,3.975,3.975,0,0,0,.578,1.308,2.3,2.3,0,0,0,.87.755,2.443,2.443,0,0,0,1.073.241,3.181,3.181,0,0,0,1.346-.3,3.983,3.983,0,0,0,1.231-.914,8.184,8.184,0,0,0,1.257-1.873,16.717,16.717,0,0,0,1.022-2.533,21.2,21.2,0,0,0,.692-2.9A17.944,17.944,0,0,0-113.013-12.949Zm8.885-4.315a1.438,1.438,0,0,0-.426-1.107,1.667,1.667,0,0,0-1.181-.4,3.718,3.718,0,0,0-1.444.3,4.663,4.663,0,0,0-1.355.881l.3-1.363a3.934,3.934,0,0,1,1.285-.666,5.508,5.508,0,0,1,1.507-.185,2.737,2.737,0,0,1,1.888.626,2.142,2.142,0,0,1,.7,1.685,3.847,3.847,0,0,1-.307,1.588,4.223,4.223,0,0,1-.981,1.322,13.075,13.075,0,0,1-1.97,1.451q-1.177.733-1.788,1.207a4.77,4.77,0,0,0-.907.874,2.519,2.519,0,0,0-.422.955h5.243L-104.209-9h-6.554l.111-.526a5.12,5.12,0,0,1,.574-1.54,5.28,5.28,0,0,1,1.07-1.251,18.252,18.252,0,0,1,2.125-1.525,12.617,12.617,0,0,0,1.633-1.185,3.837,3.837,0,0,0,.855-1.029A2.548,2.548,0,0,0-104.127-17.264Zm19.26,6.422a13.32,13.32,0,0,1-.273,2.679,11.313,11.313,0,0,1-.838,2.539A9.692,9.692,0,0,1-87.432-3.39a8.987,8.987,0,0,1-2.12,1.784A10.6,10.6,0,0,1-92.377-.425,13.865,13.865,0,0,1-95.95,0h-5.764l3.872-18.205h5.065a9.916,9.916,0,0,1,3.237.5,6.978,6.978,0,0,1,2.495,1.454,6.528,6.528,0,0,1,1.606,2.317A7.94,7.94,0,0,1-84.867-10.842Zm-2.234.152a5.372,5.372,0,0,0-1.562-4.126,6.559,6.559,0,0,0-4.634-1.46h-2.78L-99.15-1.93h3.39A9.591,9.591,0,0,0-92-2.615a7.6,7.6,0,0,0,2.7-1.879,7.969,7.969,0,0,0,1.638-2.787A10.337,10.337,0,0,0-87.1-10.689Zm13.749,9.75a16.466,16.466,0,0,1-.838,2.812,7.443,7.443,0,0,1-1.377,2.234A5.868,5.868,0,0,1-77.682,5.58a7.913,7.913,0,0,1-3.06.527,7.183,7.183,0,0,1-2.165-.292,9.982,9.982,0,0,1-1.682-.7l.394-1.942a9.827,9.827,0,0,0,1.7.813,5.606,5.606,0,0,0,1.942.33,5.3,5.3,0,0,0,1.961-.33,3.939,3.939,0,0,0,1.435-.971,5.363,5.363,0,0,0,1-1.568,11.922,11.922,0,0,0,.667-2.12l.444-2.031h-.051a12.742,12.742,0,0,1-.946,1.339,5.455,5.455,0,0,1-.971.939,3.792,3.792,0,0,1-1.066.559,3.917,3.917,0,0,1-1.231.184A3.919,3.919,0,0,1-80.894.006a3.226,3.226,0,0,1-1.212-.92,4.305,4.305,0,0,1-.774-1.523,7.38,7.38,0,0,1-.273-2.107,10.015,10.015,0,0,1,.248-2.222,9.727,9.727,0,0,1,.717-2.069,8.711,8.711,0,0,1,1.149-1.8A7.641,7.641,0,0,1-79.5-12.048a7.272,7.272,0,0,1,1.9-.933,7.122,7.122,0,0,1,2.215-.336,18.434,18.434,0,0,1,2.361.152q1.181.152,2.171.343Zm.1-10.347a10.044,10.044,0,0,0-1.047-.178,10.718,10.718,0,0,0-1.314-.076,4.407,4.407,0,0,0-2.184.552A5.48,5.48,0,0,0-79.5-9.49a7.245,7.245,0,0,0-1.117,2.2,8.7,8.7,0,0,0-.4,2.653,6.279,6.279,0,0,0,.121,1.27,3.059,3.059,0,0,0,.381,1,1.931,1.931,0,0,0,.673.66,1.969,1.969,0,0,0,1.009.241,2.866,2.866,0,0,0,1.289-.292,4.252,4.252,0,0,0,1.085-.774,5.94,5.94,0,0,0,.882-1.1A11.087,11.087,0,0,0-74.9-4.888a11.514,11.514,0,0,0,.5-1.276q.2-.628.317-1.136Zm13.6,1.854v-1.7h11.934v1.7Zm0,5.408v-1.7h11.934v1.7ZM-32.106,0l3.39-15.856-4.494,1.219.444-2.006,6.678-1.866L-30,0ZM-9.991-13.127q0,.952-.089,1.987t-.279,2.088a21.036,21.036,0,0,1-.489,2.088,16.474,16.474,0,0,1-.717,2,13.516,13.516,0,0,1-.958,1.822,9.616,9.616,0,0,1-1.212,1.555,5.872,5.872,0,0,1-4.393,1.9,4.4,4.4,0,0,1-1.885-.4A4.028,4.028,0,0,1-21.48-1.25a5.587,5.587,0,0,1-.946-1.892,9.02,9.02,0,0,1-.336-2.583,19.4,19.4,0,0,1,.229-2.914,18.042,18.042,0,0,1,.7-2.933,15.875,15.875,0,0,1,1.168-2.7,10.06,10.06,0,0,1,1.65-2.234A6.71,6.71,0,0,1-17-17.983a5.853,5.853,0,0,1,2.526-.527,4.756,4.756,0,0,1,1.841.343,3.766,3.766,0,0,1,1.416,1.022,4.679,4.679,0,0,1,.908,1.682A7.759,7.759,0,0,1-9.991-13.127Zm-2.107.178a5.055,5.055,0,0,0-.66-2.787,2.15,2.15,0,0,0-1.917-1.009,3.158,3.158,0,0,0-1.409.324,4.8,4.8,0,0,0-1.295.971,7.332,7.332,0,0,0-.933,1.238,12.66,12.66,0,0,0-.8,1.549,16.336,16.336,0,0,0-.641,1.746q-.279.914-.476,1.828t-.3,1.79a14.269,14.269,0,0,0-.1,1.638,7.511,7.511,0,0,0,.209,1.9,3.975,3.975,0,0,0,.578,1.308,2.3,2.3,0,0,0,.87.755A2.443,2.443,0,0,0-17.9-1.46a3.181,3.181,0,0,0,1.346-.3,3.983,3.983,0,0,0,1.231-.914,8.184,8.184,0,0,0,1.257-1.873,16.717,16.717,0,0,0,1.022-2.533,21.2,21.2,0,0,0,.692-2.9A17.944,17.944,0,0,0-12.1-12.949Zm9.966-4.47a3.11,3.11,0,0,1-.163,1.011,2.46,2.46,0,0,1-.511.863,3.074,3.074,0,0,1-.889.663,4.57,4.57,0,0,1-1.289.411v.03a2.471,2.471,0,0,1,.815.267,2.229,2.229,0,0,1,.633.5,2.228,2.228,0,0,1,.407.7,2.448,2.448,0,0,1,.144.852,3.343,3.343,0,0,1-.244,1.274A2.858,2.858,0,0,1-3.972-9.8a3.67,3.67,0,0,1-1.251.718,5.286,5.286,0,0,1-1.766.267,5.7,5.7,0,0,1-.8-.056,7.379,7.379,0,0,1-.737-.141A5.85,5.85,0,0,1-9.159-9.2a4.044,4.044,0,0,1-.5-.218l.259-1.155a3.937,3.937,0,0,0,.478.267,4.395,4.395,0,0,0,.6.233,5.6,5.6,0,0,0,.674.163,3.966,3.966,0,0,0,.7.063,3.889,3.889,0,0,0,1.3-.189,2.331,2.331,0,0,0,.844-.5,1.74,1.74,0,0,0,.452-.7,2.527,2.527,0,0,0,.133-.811,1.684,1.684,0,0,0-.652-1.4,3.146,3.146,0,0,0-1.97-.515h-.807l.23-1.044h.881a5.344,5.344,0,0,0,1.359-.156,3.015,3.015,0,0,0,.989-.441,1.876,1.876,0,0,0,.6-.692,2.008,2.008,0,0,0,.2-.911,1.752,1.752,0,0,0-.1-.6,1.3,1.3,0,0,0-.322-.5,1.6,1.6,0,0,0-.548-.337,2.211,2.211,0,0,0-.789-.126,4.531,4.531,0,0,0-.722.056,5.326,5.326,0,0,0-.648.144,4.981,4.981,0,0,0-.563.2,5.03,5.03,0,0,0-.459.222l.252-1.214q.193-.074.429-.152a5.34,5.34,0,0,1,.526-.141q.289-.063.637-.1a6.59,6.59,0,0,1,.763-.041,3.477,3.477,0,0,1,1.274.207,2.536,2.536,0,0,1,.866.544,2.058,2.058,0,0,1,.5.763A2.5,2.5,0,0,1-2.132-17.42ZM9.052-.939a16.467,16.467,0,0,1-.838,2.812A7.443,7.443,0,0,1,6.837,4.107,5.868,5.868,0,0,1,4.723,5.58a7.913,7.913,0,0,1-3.06.527A7.183,7.183,0,0,1-.5,5.814a9.982,9.982,0,0,1-1.682-.7l.394-1.942a9.827,9.827,0,0,0,1.7.813,5.606,5.606,0,0,0,1.942.33,5.3,5.3,0,0,0,1.961-.33A3.939,3.939,0,0,0,5.25,3.015a5.363,5.363,0,0,0,1-1.568,11.922,11.922,0,0,0,.667-2.12L7.363-2.7H7.313a12.743,12.743,0,0,1-.946,1.339A5.455,5.455,0,0,1,5.4-.425,3.792,3.792,0,0,1,4.329.133,3.917,3.917,0,0,1,3.1.317,3.919,3.919,0,0,1,1.511.006,3.226,3.226,0,0,1,.3-.914,4.305,4.305,0,0,1-.476-2.437,7.38,7.38,0,0,1-.749-4.545,10.015,10.015,0,0,1-.5-6.767,9.727,9.727,0,0,1,.216-8.836a8.711,8.711,0,0,1,1.149-1.8,7.641,7.641,0,0,1,1.542-1.416,7.272,7.272,0,0,1,1.9-.933,7.122,7.122,0,0,1,2.215-.336,18.434,18.434,0,0,1,2.361.152q1.181.152,2.171.343Zm.1-10.347a10.044,10.044,0,0,0-1.047-.178,10.718,10.718,0,0,0-1.314-.076,4.407,4.407,0,0,0-2.184.552A5.48,5.48,0,0,0,2.9-9.49a7.245,7.245,0,0,0-1.117,2.2,8.7,8.7,0,0,0-.4,2.653A6.279,6.279,0,0,0,1.5-3.364a3.059,3.059,0,0,0,.381,1,1.931,1.931,0,0,0,.673.66,1.969,1.969,0,0,0,1.009.241,2.866,2.866,0,0,0,1.289-.292,4.252,4.252,0,0,0,1.085-.774,5.94,5.94,0,0,0,.882-1.1,11.088,11.088,0,0,0,.686-1.263,11.515,11.515,0,0,0,.5-1.276q.2-.628.317-1.136Zm13.6,1.854v-1.7H34.684v1.7Zm0,5.408v-1.7H34.684v1.7ZM50.3,0l3.39-15.856-4.494,1.219.444-2.006,6.678-1.866L52.406,0ZM72.414-13.127q0,.952-.089,1.987t-.279,2.088a21.037,21.037,0,0,1-.489,2.088,16.473,16.473,0,0,1-.717,2,13.515,13.515,0,0,1-.958,1.822,9.616,9.616,0,0,1-1.212,1.555,5.872,5.872,0,0,1-4.393,1.9,4.4,4.4,0,0,1-1.885-.4A4.028,4.028,0,0,1,60.925-1.25a5.587,5.587,0,0,1-.946-1.892,9.02,9.02,0,0,1-.336-2.583,19.4,19.4,0,0,1,.229-2.914,18.042,18.042,0,0,1,.7-2.933,15.875,15.875,0,0,1,1.168-2.7,10.06,10.06,0,0,1,1.65-2.234,6.71,6.71,0,0,1,2.019-1.479,5.853,5.853,0,0,1,2.526-.527,4.756,4.756,0,0,1,1.841.343,3.766,3.766,0,0,1,1.416,1.022,4.679,4.679,0,0,1,.908,1.682A7.759,7.759,0,0,1,72.414-13.127Zm-2.107.178a5.055,5.055,0,0,0-.66-2.787,2.15,2.15,0,0,0-1.917-1.009,3.158,3.158,0,0,0-1.409.324,4.8,4.8,0,0,0-1.295.971,7.332,7.332,0,0,0-.933,1.238,12.66,12.66,0,0,0-.8,1.549,16.337,16.337,0,0,0-.641,1.746q-.279.914-.476,1.828t-.3,1.79a14.269,14.269,0,0,0-.1,1.638,7.511,7.511,0,0,0,.209,1.9,3.975,3.975,0,0,0,.578,1.308,2.3,2.3,0,0,0,.87.755,2.443,2.443,0,0,0,1.073.241,3.181,3.181,0,0,0,1.346-.3,3.983,3.983,0,0,0,1.231-.914,8.184,8.184,0,0,0,1.257-1.873,16.717,16.717,0,0,0,1.022-2.533,21.2,21.2,0,0,0,.692-2.9A17.944,17.944,0,0,0,70.307-12.949Zm9.989-6.67-1.488,7.013H80.2L79.962-11.5H78.57L78.037-9h-1.2l.533-2.5H72.387l.222-1.052a46.116,46.116,0,0,0,3.3-3.34q1.688-1.881,3.051-3.732Zm-2.688,7.013,1.081-5.087a53.71,53.71,0,0,1-4.636,5.087ZM92.1-4q-.089.406-.171.978t-.146,1.149q-.063.578-.108,1.085T91.635,0H89.476q0-.216.032-.578t.076-.755q.044-.394.1-.755t.089-.59h-.051a12.822,12.822,0,0,1-.914,1.3,5.291,5.291,0,0,1-.965.939A3.877,3.877,0,0,1,86.76.127,3.955,3.955,0,0,1,85.5.317,3.883,3.883,0,0,1,83.9,0a3.259,3.259,0,0,1-1.212-.933,4.3,4.3,0,0,1-.768-1.523,7.426,7.426,0,0,1-.267-2.088,10.277,10.277,0,0,1,.2-1.955,10.012,10.012,0,0,1,.609-1.993,9.341,9.341,0,0,1,1.047-1.854,7.219,7.219,0,0,1,1.511-1.536,7.164,7.164,0,0,1,2.006-1.047,7.76,7.76,0,0,1,2.526-.387,8.569,8.569,0,0,1,1.32.1q.609.1,1.054.2l1.32-6.221H95.3Zm-.546-7.236a8.178,8.178,0,0,0-1.009-.222,7.265,7.265,0,0,0-1.124-.083,5.151,5.151,0,0,0-1.949.343A4.914,4.914,0,0,0,86-10.283a5.471,5.471,0,0,0-1.054,1.3,8.2,8.2,0,0,0-.686,1.5A8.528,8.528,0,0,0,83.9-5.973a9.4,9.4,0,0,0-.108,1.339,6.417,6.417,0,0,0,.121,1.295,2.891,2.891,0,0,0,.394,1,1.88,1.88,0,0,0,.7.647,2.2,2.2,0,0,0,1.041.229,2.7,2.7,0,0,0,1.187-.267A4.088,4.088,0,0,0,88.27-2.45,5.974,5.974,0,0,0,89.146-3.5a10.222,10.222,0,0,0,.711-1.27,11.282,11.282,0,0,0,.54-1.365q.222-.692.362-1.327Zm13.99,10.3a16.466,16.466,0,0,1-.838,2.812,7.443,7.443,0,0,1-1.377,2.234,5.868,5.868,0,0,1-2.114,1.473,7.913,7.913,0,0,1-3.06.527A7.183,7.183,0,0,1,96,5.814a9.982,9.982,0,0,1-1.682-.7l.394-1.942a9.827,9.827,0,0,0,1.7.813,5.606,5.606,0,0,0,1.942.33,5.3,5.3,0,0,0,1.961-.33,3.939,3.939,0,0,0,1.435-.971,5.363,5.363,0,0,0,1-1.568,11.922,11.922,0,0,0,.667-2.12L103.86-2.7h-.051a12.742,12.742,0,0,1-.946,1.339,5.455,5.455,0,0,1-.971.939,3.792,3.792,0,0,1-1.066.559,3.917,3.917,0,0,1-1.231.184A3.919,3.919,0,0,1,98.008.006,3.226,3.226,0,0,1,96.8-.914a4.305,4.305,0,0,1-.774-1.523,7.38,7.38,0,0,1-.273-2.107A10.015,10.015,0,0,1,96-6.767a9.727,9.727,0,0,1,.717-2.069,8.711,8.711,0,0,1,1.149-1.8A7.641,7.641,0,0,1,99.4-12.048a7.272,7.272,0,0,1,1.9-.933,7.122,7.122,0,0,1,2.215-.336,18.434,18.434,0,0,1,2.361.152q1.181.152,2.171.343Zm.1-10.347a10.044,10.044,0,0,0-1.047-.178,10.718,10.718,0,0,0-1.314-.076,4.407,4.407,0,0,0-2.184.552A5.48,5.48,0,0,0,99.4-9.49a7.245,7.245,0,0,0-1.117,2.2,8.7,8.7,0,0,0-.4,2.653A6.279,6.279,0,0,0,98-3.364a3.059,3.059,0,0,0,.381,1,1.931,1.931,0,0,0,.673.66,1.969,1.969,0,0,0,1.009.241,2.866,2.866,0,0,0,1.289-.292,4.252,4.252,0,0,0,1.085-.774,5.94,5.94,0,0,0,.882-1.1,11.087,11.087,0,0,0,.686-1.263,11.514,11.514,0,0,0,.5-1.276q.2-.628.317-1.136Zm13.6,1.854v-1.7H131.18v1.7Zm0,5.408v-1.7H131.18v1.7ZM146.8,0l3.39-15.856-4.494,1.219.444-2.006,6.678-1.866L148.9,0Zm22.115-13.127q0,.952-.089,1.987t-.279,2.088a21.035,21.035,0,0,1-.489,2.088,16.475,16.475,0,0,1-.717,2,13.516,13.516,0,0,1-.958,1.822,9.616,9.616,0,0,1-1.212,1.555,5.872,5.872,0,0,1-4.393,1.9,4.4,4.4,0,0,1-1.885-.4,4.028,4.028,0,0,1-1.466-1.168,5.587,5.587,0,0,1-.946-1.892,9.02,9.02,0,0,1-.336-2.583,19.4,19.4,0,0,1,.229-2.914,18.041,18.041,0,0,1,.7-2.933,15.875,15.875,0,0,1,1.168-2.7,10.06,10.06,0,0,1,1.65-2.234,6.71,6.71,0,0,1,2.019-1.479,5.853,5.853,0,0,1,2.526-.527,4.756,4.756,0,0,1,1.841.343,3.766,3.766,0,0,1,1.416,1.022,4.679,4.679,0,0,1,.908,1.682A7.758,7.758,0,0,1,168.911-13.127Zm-2.107.178a5.055,5.055,0,0,0-.66-2.787,2.15,2.15,0,0,0-1.917-1.009,3.158,3.158,0,0,0-1.409.324,4.8,4.8,0,0,0-1.295.971,7.332,7.332,0,0,0-.933,1.238,12.66,12.66,0,0,0-.8,1.549,16.338,16.338,0,0,0-.641,1.746q-.279.914-.476,1.828t-.3,1.79a14.27,14.27,0,0,0-.1,1.638,7.511,7.511,0,0,0,.209,1.9,3.975,3.975,0,0,0,.578,1.308,2.3,2.3,0,0,0,.87.755A2.443,2.443,0,0,0,161-1.46a3.181,3.181,0,0,0,1.346-.3,3.983,3.983,0,0,0,1.231-.914,8.185,8.185,0,0,0,1.257-1.873,16.716,16.716,0,0,0,1.022-2.533,21.2,21.2,0,0,0,.692-2.9A17.944,17.944,0,0,0,166.8-12.949Zm9.981-5.559h-3.991l-.652,3.1.785-.03a3.382,3.382,0,0,1,2.31.729,2.592,2.592,0,0,1,.829,2.055,3.861,3.861,0,0,1-.541,2.022,3.44,3.44,0,0,1-1.5,1.363,5.116,5.116,0,0,1-2.233.459,7.941,7.941,0,0,1-1.314-.111,4.109,4.109,0,0,1-1.04-.289l.274-1.192a3.24,3.24,0,0,0,.977.4,4.794,4.794,0,0,0,1.192.156,3.417,3.417,0,0,0,1.585-.337,2.447,2.447,0,0,0,1-.926,2.541,2.541,0,0,0,.352-1.329,1.874,1.874,0,0,0-.533-1.448,2.446,2.446,0,0,0-1.7-.492q-1.029,0-1.844.074l1.118-5.31h5.139Zm11.346,8.085a4.778,4.778,0,0,0-1.289-.793,4.2,4.2,0,0,0-1.669-.324,3.944,3.944,0,0,0-1.581.3,4.362,4.362,0,0,0-1.25.813,5.271,5.271,0,0,0-.939,1.168,7.787,7.787,0,0,0-.647,1.371,8.439,8.439,0,0,0-.375,1.416,7.816,7.816,0,0,0-.121,1.314,4.147,4.147,0,0,0,.8,2.755,2.717,2.717,0,0,0,2.184.939,4.806,4.806,0,0,0,1.739-.349,8.371,8.371,0,0,0,1.7-.9L186.24-.622A8.909,8.909,0,0,1,184.6.07a5.957,5.957,0,0,1-1.733.248,4.923,4.923,0,0,1-2.076-.406,4.067,4.067,0,0,1-1.466-1.117,4.787,4.787,0,0,1-.876-1.682,7.267,7.267,0,0,1-.292-2.1,10.263,10.263,0,0,1,.216-2.1,9.049,9.049,0,0,1,.641-1.955,8.479,8.479,0,0,1,1.047-1.708,6.754,6.754,0,0,1,1.428-1.352,6.779,6.779,0,0,1,1.8-.889,6.867,6.867,0,0,1,2.146-.324,6.844,6.844,0,0,1,1.041.076,6.178,6.178,0,0,1,.9.2,6.074,6.074,0,0,1,.724.273,2.972,2.972,0,0,1,.508.286ZM199.29-.939a16.467,16.467,0,0,1-.838,2.812,7.443,7.443,0,0,1-1.377,2.234,5.868,5.868,0,0,1-2.114,1.473,7.913,7.913,0,0,1-3.06.527,7.183,7.183,0,0,1-2.165-.292,9.982,9.982,0,0,1-1.682-.7l.394-1.942a9.827,9.827,0,0,0,1.7.813,5.606,5.606,0,0,0,1.942.33,5.3,5.3,0,0,0,1.961-.33,3.939,3.939,0,0,0,1.435-.971,5.363,5.363,0,0,0,1-1.568,11.922,11.922,0,0,0,.667-2.12L197.6-2.7h-.051a12.742,12.742,0,0,1-.946,1.339,5.455,5.455,0,0,1-.971.939,3.792,3.792,0,0,1-1.066.559,3.917,3.917,0,0,1-1.231.184,3.919,3.919,0,0,1-1.587-.311,3.226,3.226,0,0,1-1.212-.92,4.305,4.305,0,0,1-.774-1.523,7.38,7.38,0,0,1-.273-2.107,10.015,10.015,0,0,1,.248-2.222,9.727,9.727,0,0,1,.717-2.069,8.711,8.711,0,0,1,1.149-1.8,7.641,7.641,0,0,1,1.542-1.416,7.272,7.272,0,0,1,1.9-.933,7.122,7.122,0,0,1,2.215-.336,18.434,18.434,0,0,1,2.361.152q1.181.152,2.171.343Zm.1-10.347a10.045,10.045,0,0,0-1.047-.178,10.718,10.718,0,0,0-1.314-.076,4.407,4.407,0,0,0-2.184.552,5.48,5.48,0,0,0-1.708,1.5,7.245,7.245,0,0,0-1.117,2.2,8.7,8.7,0,0,0-.4,2.653,6.28,6.28,0,0,0,.121,1.27,3.059,3.059,0,0,0,.381,1,1.931,1.931,0,0,0,.673.66,1.969,1.969,0,0,0,1.009.241,2.866,2.866,0,0,0,1.289-.292,4.252,4.252,0,0,0,1.085-.774,5.939,5.939,0,0,0,.882-1.1,11.089,11.089,0,0,0,.686-1.263,11.514,11.514,0,0,0,.5-1.276q.2-.628.317-1.136Zm13.6,1.854v-1.7h11.934v1.7Zm0,5.408v-1.7h11.934v1.7ZM240.537,0l3.39-15.856-4.494,1.219.444-2.006,6.678-1.866L242.645,0Zm22.115-13.127q0,.952-.089,1.987t-.279,2.088a21.039,21.039,0,0,1-.489,2.088,16.472,16.472,0,0,1-.717,2,13.514,13.514,0,0,1-.958,1.822,9.616,9.616,0,0,1-1.212,1.555,5.872,5.872,0,0,1-4.393,1.9,4.4,4.4,0,0,1-1.885-.4,4.028,4.028,0,0,1-1.466-1.168,5.587,5.587,0,0,1-.946-1.892,9.02,9.02,0,0,1-.336-2.583,19.4,19.4,0,0,1,.229-2.914,18.041,18.041,0,0,1,.7-2.933,15.875,15.875,0,0,1,1.168-2.7,10.06,10.06,0,0,1,1.65-2.234,6.71,6.71,0,0,1,2.019-1.479,5.853,5.853,0,0,1,2.526-.527,4.756,4.756,0,0,1,1.841.343,3.766,3.766,0,0,1,1.416,1.022,4.679,4.679,0,0,1,.908,1.682A7.759,7.759,0,0,1,262.653-13.127Zm-2.107.178a5.055,5.055,0,0,0-.66-2.787,2.15,2.15,0,0,0-1.917-1.009,3.158,3.158,0,0,0-1.409.324,4.8,4.8,0,0,0-1.295.971,7.332,7.332,0,0,0-.933,1.238,12.66,12.66,0,0,0-.8,1.549,16.338,16.338,0,0,0-.641,1.746q-.279.914-.476,1.828t-.3,1.79a14.27,14.27,0,0,0-.1,1.638,7.511,7.511,0,0,0,.209,1.9,3.975,3.975,0,0,0,.578,1.308,2.3,2.3,0,0,0,.87.755,2.443,2.443,0,0,0,1.073.241,3.181,3.181,0,0,0,1.346-.3,3.984,3.984,0,0,0,1.231-.914,8.184,8.184,0,0,0,1.257-1.873A16.718,16.718,0,0,0,259.6-7.084a21.2,21.2,0,0,0,.692-2.9A17.943,17.943,0,0,0,260.545-12.949Zm10.189-5.4a3.3,3.3,0,0,0-.748-.3,3.509,3.509,0,0,0-.948-.122,3.06,3.06,0,0,0-1.14.215,3.546,3.546,0,0,0-1,.607,4.11,4.11,0,0,0-.7.744,6.684,6.684,0,0,0-.574.937,8.021,8.021,0,0,0-.441,1.048,8.213,8.213,0,0,0-.289,1.077h.03a3.119,3.119,0,0,1,.467-.592,3.2,3.2,0,0,1,.611-.478,3.052,3.052,0,0,1,.733-.318,2.952,2.952,0,0,1,.826-.115,2.979,2.979,0,0,1,1.155.207,2.238,2.238,0,0,1,.829.585,2.52,2.52,0,0,1,.5.9,3.783,3.783,0,0,1,.17,1.17,4.627,4.627,0,0,1-.233,1.451,3.932,3.932,0,0,1-.689,1.27,3.457,3.457,0,0,1-1.122.9,3.305,3.305,0,0,1-1.525.341,3.265,3.265,0,0,1-1.244-.23,2.521,2.521,0,0,1-.966-.7,3.267,3.267,0,0,1-.626-1.17,5.5,5.5,0,0,1-.222-1.651,9.474,9.474,0,0,1,.181-1.862,8.948,8.948,0,0,1,.518-1.711,7.578,7.578,0,0,1,.815-1.474,5.552,5.552,0,0,1,1.077-1.144,4.694,4.694,0,0,1,1.448-.789,4.923,4.923,0,0,1,1.551-.255,5.053,5.053,0,0,1,1.048.1,5.3,5.3,0,0,1,.744.2Zm-1.755,5.672a2.587,2.587,0,0,0-.107-.759,1.679,1.679,0,0,0-.33-.611,1.52,1.52,0,0,0-.57-.407,2.11,2.11,0,0,0-.829-.148,2.208,2.208,0,0,0-1,.215,2.2,2.2,0,0,0-.718.563,2.449,2.449,0,0,0-.437.785,2.729,2.729,0,0,0-.148.881,3.177,3.177,0,0,0,.133.952,2.153,2.153,0,0,0,.378.726,1.658,1.658,0,0,0,.6.463,1.855,1.855,0,0,0,.789.163,1.874,1.874,0,0,0,.952-.241,2.242,2.242,0,0,0,.7-.633,2.955,2.955,0,0,0,.437-.9A3.647,3.647,0,0,0,268.979-12.673Zm22.911,2.948a4.22,4.22,0,0,1-.044.5q-.044.336-.114.717t-.14.755q-.07.375-.121.628L289.934,0h-2.082l1.587-7.617q.051-.216.1-.482t.1-.527q.044-.26.07-.482a3.263,3.263,0,0,0,.025-.349A2.417,2.417,0,0,0,289.3-11a1.62,1.62,0,0,0-1.346-.54,2.506,2.506,0,0,0-1,.222,4.608,4.608,0,0,0-1,.6,7.073,7.073,0,0,0-.939.889,9.047,9.047,0,0,0-.825,1.085,8.452,8.452,0,0,0-.641,1.181,6.19,6.19,0,0,0-.394,1.187L281.8,0h-2.107L281.3-7.617q.051-.216.1-.482t.1-.527q.044-.26.07-.482a3.263,3.263,0,0,0,.025-.349A2.368,2.368,0,0,0,281.149-11a1.627,1.627,0,0,0-1.333-.54,2.577,2.577,0,0,0-1.016.222,4.553,4.553,0,0,0-1.016.609,6.976,6.976,0,0,0-.946.9,9.468,9.468,0,0,0-.825,1.092,7.988,7.988,0,0,0-.635,1.181,6.463,6.463,0,0,0-.387,1.187L273.634,0h-2.107l2.006-9.28q.1-.5.2-1.035t.19-1.041q.089-.5.152-.933t.1-.711h2.031q-.063.5-.152,1.035t-.152,1q-.076.533-.165,1.041h.051a10.979,10.979,0,0,1,.99-1.358,7.241,7.241,0,0,1,1.13-1.073,5.232,5.232,0,0,1,1.244-.7,3.654,3.654,0,0,1,1.346-.254,3.65,3.65,0,0,1,1.4.241,2.6,2.6,0,0,1,.971.679,2.968,2.968,0,0,1,.59,1.06,5.3,5.3,0,0,1,.241,1.384,12.282,12.282,0,0,1,1.009-1.327,7.166,7.166,0,0,1,1.155-1.066,5.463,5.463,0,0,1,1.308-.711,4.13,4.13,0,0,1,1.466-.26,3.038,3.038,0,0,1,2.438.946A3.937,3.937,0,0,1,291.889-9.725ZM304-.939a16.465,16.465,0,0,1-.838,2.812,7.443,7.443,0,0,1-1.377,2.234,5.868,5.868,0,0,1-2.114,1.473,7.913,7.913,0,0,1-3.06.527,7.183,7.183,0,0,1-2.165-.292,9.982,9.982,0,0,1-1.682-.7l.394-1.942a9.827,9.827,0,0,0,1.7.813,5.606,5.606,0,0,0,1.942.33,5.3,5.3,0,0,0,1.961-.33,3.939,3.939,0,0,0,1.435-.971,5.363,5.363,0,0,0,1-1.568,11.922,11.922,0,0,0,.667-2.12l.444-2.031h-.051a12.742,12.742,0,0,1-.946,1.339,5.456,5.456,0,0,1-.971.939,3.792,3.792,0,0,1-1.066.559,3.917,3.917,0,0,1-1.231.184A3.919,3.919,0,0,1,296.46.006a3.226,3.226,0,0,1-1.212-.92,4.305,4.305,0,0,1-.774-1.523,7.379,7.379,0,0,1-.273-2.107,10.015,10.015,0,0,1,.248-2.222,9.727,9.727,0,0,1,.717-2.069,8.711,8.711,0,0,1,1.149-1.8,7.641,7.641,0,0,1,1.542-1.416,7.272,7.272,0,0,1,1.9-.933,7.122,7.122,0,0,1,2.215-.336,18.434,18.434,0,0,1,2.361.152q1.181.152,2.171.343Zm.1-10.347a10.043,10.043,0,0,0-1.047-.178,10.718,10.718,0,0,0-1.314-.076,4.407,4.407,0,0,0-2.184.552,5.48,5.48,0,0,0-1.708,1.5,7.245,7.245,0,0,0-1.117,2.2,8.7,8.7,0,0,0-.4,2.653,6.279,6.279,0,0,0,.121,1.27,3.059,3.059,0,0,0,.381,1,1.931,1.931,0,0,0,.673.66,1.969,1.969,0,0,0,1.009.241,2.866,2.866,0,0,0,1.289-.292,4.252,4.252,0,0,0,1.085-.774,5.94,5.94,0,0,0,.882-1.1,11.084,11.084,0,0,0,.686-1.263,11.514,11.514,0,0,0,.5-1.276q.2-.628.317-1.136Z" transform="translate(700 1921)"/>
  </g>
</svg>
