<svg xmlns="http://www.w3.org/2000/svg" width="838.211" height="147.848" viewBox="0 0 838.211 147.848">
  <g id="Grupo_14549" data-name="Grupo 14549" transform="translate(-281 -2166)">
    <path id="Trazado_24094" data-name="Trazado 24094" d="M0,0H838.211V147.848H0Z" transform="translate(281 2166)" fill="#d5f4fc"/>
    <path id="Trazado_24095" data-name="Trazado 24095" d="M9.682-13.962a6.78,6.78,0,0,0-1.292.021,8.178,8.178,0,0,0-5.3,2.013A8.262,8.262,0,0,0,.636-5.784C.636-2.5,2.436.233,6.123.233a4.927,4.927,0,0,0,5.064-4.979A4.18,4.18,0,0,0,6.928-9.237,3.985,3.985,0,0,0,4-8.157H3.941c.36-1.589,1.631-3.072,4.492-3.284a8.852,8.852,0,0,1,1.25-.042ZM6.059-2.14C4.6-2.14,3.9-3.453,3.835-4.915a1.691,1.691,0,0,1,.148-.826A2.063,2.063,0,0,1,5.869-6.949,2.1,2.1,0,0,1,7.924-4.576c0,1.4-.72,2.436-1.843,2.436Zm6.5,1.42a8.392,8.392,0,0,0,4.089.953c3.5,0,5.636-1.78,5.636-4.195A3.427,3.427,0,0,0,19.3-7.331v-.042a3.282,3.282,0,0,0,2.521-3.2c0-1.886-1.631-3.432-4.555-3.432a8.567,8.567,0,0,0-4.259,1.038l.657,2.331a6.112,6.112,0,0,1,2.86-.826c1.377,0,2.034.614,2.034,1.441,0,1.165-1.356,1.589-2.436,1.589h-1.25v2.309h1.314c1.4,0,2.754.614,2.754,1.992,0,1.017-.847,1.822-2.521,1.822a7.29,7.29,0,0,1-3.2-.847ZM29.386.233c3.475,0,5.191-2.945,5.191-7.182,0-3.771-1.462-7.055-5.127-7.055-3.559,0-5.233,3.136-5.233,7.14.021,3.9,1.589,7.1,5.148,7.1ZM29.407-2.2c-1.229,0-1.992-1.525-1.97-4.7,0-3.114.763-4.661,1.97-4.661,1.292,0,1.949,1.61,1.949,4.661,0,3.136-.678,4.7-1.928,4.7ZM41.145.233c3.475,0,5.191-2.945,5.191-7.182,0-3.771-1.462-7.055-5.127-7.055-3.559,0-5.233,3.136-5.233,7.14.021,3.9,1.589,7.1,5.148,7.1ZM41.166-2.2c-1.229,0-1.992-1.525-1.97-4.7,0-3.114.763-4.661,1.97-4.661,1.292,0,1.949,1.61,1.949,4.661,0,3.136-.678,4.7-1.928,4.7ZM52.9.233c3.475,0,5.191-2.945,5.191-7.182,0-3.771-1.462-7.055-5.127-7.055-3.559,0-5.233,3.136-5.233,7.14.021,3.9,1.589,7.1,5.148,7.1ZM52.925-2.2c-1.229,0-1.992-1.525-1.97-4.7,0-3.114.763-4.661,1.97-4.661,1.292,0,1.949,1.61,1.949,4.661,0,3.136-.678,4.7-1.928,4.7ZM60.086,0h3.136V-6.017a2.179,2.179,0,0,1,.127-.826,1.648,1.648,0,0,1,1.5-1.144c1.038,0,1.5.89,1.5,2.182V0h3.136V-6.059a3.353,3.353,0,0,1,.106-.805,1.6,1.6,0,0,1,1.5-1.123c1.038,0,1.525.869,1.525,2.373V0h3.136V-6.1c0-3.093-1.5-4.492-3.5-4.492a3.945,3.945,0,0,0-1.97.508,4.506,4.506,0,0,0-1.356,1.271H68.9a2.932,2.932,0,0,0-2.839-1.78,3.585,3.585,0,0,0-3.136,1.653h-.064l-.127-1.42H60c.042.932.085,2.013.085,3.305ZM83.243-7V-8.545H80.2v-.025l.742-.618c1.174-1.038,2.138-2.113,2.138-3.46,0-1.458-.989-2.521-2.818-2.521a4.407,4.407,0,0,0-2.62.828l.531,1.335a2.985,2.985,0,0,1,1.718-.655c.927,0,1.31.519,1.31,1.174-.012.939-.865,1.841-2.632,3.423l-1.026.927V-7ZM94.9-14.513l-1.229,3.242h-.042l-1.165-3.242-1.886,1.081,2.225,2.67v.042L89.5-11.4v2.14l3.326-.593.021.042L90.582-7.161l1.822,1.1,1.208-3.263.042-.021,1.229,3.284,1.864-1.1L94.459-9.767v-.064l3.411.572V-11.4l-3.39.678v-.042l2.267-2.691ZM107.764,0h3.114V-13.771H108.23l-3.665,1.695.53,2.415,2.627-1.25h.042Zm8.157,0h3.2V-4.661l1.208-1.5L123.845,0h3.75l-4.958-8.2,4.725-6.081h-3.983l-3.22,4.746c-.339.508-.678,1.017-1,1.568h-.042V-14.28h-3.2Zm12.9,0h3.136V-6.017a2.179,2.179,0,0,1,.127-.826,1.648,1.648,0,0,1,1.5-1.144c1.038,0,1.5.89,1.5,2.182V0h3.136V-6.059a3.354,3.354,0,0,1,.106-.805,1.6,1.6,0,0,1,1.5-1.123c1.038,0,1.525.869,1.525,2.373V0H144.5V-6.1c0-3.093-1.5-4.492-3.5-4.492a3.945,3.945,0,0,0-1.97.508,4.506,4.506,0,0,0-1.356,1.271h-.042a2.932,2.932,0,0,0-2.839-1.78,3.585,3.585,0,0,0-3.136,1.653H131.6l-.127-1.42h-2.733c.042.932.085,2.013.085,3.305Zm23.157-7V-8.545h-3.04v-.025l.742-.618c1.174-1.038,2.138-2.113,2.138-3.46,0-1.458-.989-2.521-2.818-2.521a4.407,4.407,0,0,0-2.62.828l.531,1.335a2.985,2.985,0,0,1,1.718-.655c.927,0,1.31.519,1.31,1.174-.012.939-.865,1.841-2.632,3.423l-1.026.927V-7Z" transform="translate(391 2232)"/>
    <path id="Trazado_24102" data-name="Trazado 24102" d="M9.682-13.962a6.78,6.78,0,0,0-1.292.021,8.178,8.178,0,0,0-5.3,2.013A8.262,8.262,0,0,0,.636-5.784C.636-2.5,2.436.233,6.123.233a4.927,4.927,0,0,0,5.064-4.979A4.18,4.18,0,0,0,6.928-9.237,3.985,3.985,0,0,0,4-8.157H3.941c.36-1.589,1.631-3.072,4.492-3.284a8.852,8.852,0,0,1,1.25-.042ZM6.059-2.14C4.6-2.14,3.9-3.453,3.835-4.915a1.691,1.691,0,0,1,.148-.826A2.063,2.063,0,0,1,5.869-6.949,2.1,2.1,0,0,1,7.924-4.576c0,1.4-.72,2.436-1.843,2.436Zm6.5,1.42a8.392,8.392,0,0,0,4.089.953c3.5,0,5.636-1.78,5.636-4.195A3.427,3.427,0,0,0,19.3-7.331v-.042a3.282,3.282,0,0,0,2.521-3.2c0-1.886-1.631-3.432-4.555-3.432a8.567,8.567,0,0,0-4.259,1.038l.657,2.331a6.112,6.112,0,0,1,2.86-.826c1.377,0,2.034.614,2.034,1.441,0,1.165-1.356,1.589-2.436,1.589h-1.25v2.309h1.314c1.4,0,2.754.614,2.754,1.992,0,1.017-.847,1.822-2.521,1.822a7.29,7.29,0,0,1-3.2-.847ZM24.916,0h3.2V-4.661l1.208-1.5L32.84,0h3.75L31.632-8.2l4.725-6.081H32.373l-3.22,4.746c-.339.508-.678,1.017-1,1.568h-.042V-14.28h-3.2Zm12.9,0h3.136V-6.017a2.179,2.179,0,0,1,.127-.826,1.648,1.648,0,0,1,1.5-1.144c1.038,0,1.5.89,1.5,2.182V0h3.136V-6.059a3.353,3.353,0,0,1,.106-.805,1.6,1.6,0,0,1,1.5-1.123c1.038,0,1.525.869,1.525,2.373V0H53.5V-6.1c0-3.093-1.5-4.492-3.5-4.492a3.945,3.945,0,0,0-1.97.508,4.506,4.506,0,0,0-1.356,1.271h-.042a2.932,2.932,0,0,0-2.839-1.78,3.585,3.585,0,0,0-3.136,1.653h-.064l-.127-1.42H37.734c.042.932.085,2.013.085,3.305ZM60.975-7V-8.545h-3.04v-.025l.741-.618c1.174-1.038,2.138-2.113,2.138-3.46,0-1.458-.989-2.521-2.818-2.521a4.407,4.407,0,0,0-2.62.828l.531,1.335a2.985,2.985,0,0,1,1.718-.655c.927,0,1.31.519,1.31,1.174-.012.939-.865,1.841-2.632,3.423l-1.026.927V-7Z" transform="translate(831.125 2232)"/>
    <path id="Trazado_24098" data-name="Trazado 24098" d="M9.682-13.962a6.78,6.78,0,0,0-1.292.021,8.178,8.178,0,0,0-5.3,2.013A8.262,8.262,0,0,0,.636-5.784C.636-2.5,2.436.233,6.123.233a4.927,4.927,0,0,0,5.064-4.979A4.18,4.18,0,0,0,6.928-9.237,3.985,3.985,0,0,0,4-8.157H3.941c.36-1.589,1.631-3.072,4.492-3.284a8.852,8.852,0,0,1,1.25-.042ZM6.059-2.14C4.6-2.14,3.9-3.453,3.835-4.915a1.691,1.691,0,0,1,.148-.826A2.063,2.063,0,0,1,5.869-6.949,2.1,2.1,0,0,1,7.924-4.576c0,1.4-.72,2.436-1.843,2.436Zm6.5,1.42a8.392,8.392,0,0,0,4.089.953c3.5,0,5.636-1.78,5.636-4.195A3.427,3.427,0,0,0,19.3-7.331v-.042a3.282,3.282,0,0,0,2.521-3.2c0-1.886-1.631-3.432-4.555-3.432a8.567,8.567,0,0,0-4.259,1.038l.657,2.331a6.112,6.112,0,0,1,2.86-.826c1.377,0,2.034.614,2.034,1.441,0,1.165-1.356,1.589-2.436,1.589h-1.25v2.309h1.314c1.4,0,2.754.614,2.754,1.992,0,1.017-.847,1.822-2.521,1.822a7.29,7.29,0,0,1-3.2-.847ZM29.386.233c3.475,0,5.191-2.945,5.191-7.182,0-3.771-1.462-7.055-5.127-7.055-3.559,0-5.233,3.136-5.233,7.14.021,3.9,1.589,7.1,5.148,7.1ZM29.407-2.2c-1.229,0-1.992-1.525-1.97-4.7,0-3.114.763-4.661,1.97-4.661,1.292,0,1.949,1.61,1.949,4.661,0,3.136-.678,4.7-1.928,4.7ZM41.145.233c3.475,0,5.191-2.945,5.191-7.182,0-3.771-1.462-7.055-5.127-7.055-3.559,0-5.233,3.136-5.233,7.14.021,3.9,1.589,7.1,5.148,7.1ZM41.166-2.2c-1.229,0-1.992-1.525-1.97-4.7,0-3.114.763-4.661,1.97-4.661,1.292,0,1.949,1.61,1.949,4.661,0,3.136-.678,4.7-1.928,4.7ZM52.9.233c3.475,0,5.191-2.945,5.191-7.182,0-3.771-1.462-7.055-5.127-7.055-3.559,0-5.233,3.136-5.233,7.14.021,3.9,1.589,7.1,5.148,7.1ZM52.925-2.2c-1.229,0-1.992-1.525-1.97-4.7,0-3.114.763-4.661,1.97-4.661,1.292,0,1.949,1.61,1.949,4.661,0,3.136-.678,4.7-1.928,4.7ZM60.086,0h3.136V-6.017a2.179,2.179,0,0,1,.127-.826,1.648,1.648,0,0,1,1.5-1.144c1.038,0,1.5.89,1.5,2.182V0h3.136V-6.059a3.353,3.353,0,0,1,.106-.805,1.6,1.6,0,0,1,1.5-1.123c1.038,0,1.525.869,1.525,2.373V0h3.136V-6.1c0-3.093-1.5-4.492-3.5-4.492a3.945,3.945,0,0,0-1.97.508,4.506,4.506,0,0,0-1.356,1.271H68.9a2.932,2.932,0,0,0-2.839-1.78,3.585,3.585,0,0,0-3.136,1.653h-.064l-.127-1.42H60c.042.932.085,2.013.085,3.305ZM83.243-7V-8.545H80.2v-.025l.742-.618c1.174-1.038,2.138-2.113,2.138-3.46,0-1.458-.989-2.521-2.818-2.521a4.407,4.407,0,0,0-2.62.828l.531,1.335a2.985,2.985,0,0,1,1.718-.655c.927,0,1.31.519,1.31,1.174-.012.939-.865,1.841-2.632,3.423l-1.026.927V-7Zm9.165-7.513-1.229,3.242h-.042l-1.165-3.242-1.886,1.081,2.225,2.67v.042L87-11.4v2.14l3.326-.593.021.042L88.085-7.161l1.822,1.1,1.208-3.263.042-.021,1.229,3.284,1.864-1.1L91.963-9.767v-.064l3.411.572V-11.4l-3.39.678v-.042l2.267-2.691ZM105.268,0h3.114V-13.771h-2.648l-3.665,1.695.53,2.415,2.627-1.25h.042Zm8.157,0h3.2V-4.661l1.208-1.5L121.349,0h3.75l-4.958-8.2,4.725-6.081h-3.983l-3.22,4.746c-.339.508-.678,1.017-1,1.568h-.042V-14.28h-3.2Zm12.9,0h3.136V-6.017a2.179,2.179,0,0,1,.127-.826,1.648,1.648,0,0,1,1.5-1.144c1.038,0,1.5.89,1.5,2.182V0h3.136V-6.059a3.354,3.354,0,0,1,.106-.805,1.6,1.6,0,0,1,1.5-1.123c1.038,0,1.525.869,1.525,2.373V0h3.136V-6.1c0-3.093-1.5-4.492-3.5-4.492a3.945,3.945,0,0,0-1.97.508,4.506,4.506,0,0,0-1.356,1.271h-.042a2.932,2.932,0,0,0-2.839-1.78,3.585,3.585,0,0,0-3.136,1.653H129.1l-.127-1.42h-2.733c.042.932.085,2.013.085,3.305Zm23.157-7V-8.545h-3.04v-.025l.742-.618c1.174-1.038,2.138-2.113,2.138-3.46,0-1.458-.989-2.521-2.818-2.521a4.407,4.407,0,0,0-2.62.828l.531,1.335a2.985,2.985,0,0,1,1.718-.655c.927,0,1.31.519,1.31,1.174-.012.939-.865,1.841-2.632,3.423l-1.026.927V-7Z" transform="translate(607 2232)"/>
    <path id="Trazado_24103" data-name="Trazado 24103" d="M11.78-6.886v-1.97H.847v1.97Zm0,4.386V-4.47H.847V-2.5ZM39.895.233c3.475,0,5.191-2.945,5.191-7.182,0-3.771-1.462-7.055-5.127-7.055-3.559,0-5.233,3.136-5.233,7.14.021,3.9,1.589,7.1,5.148,7.1ZM39.916-2.2c-1.229,0-1.992-1.525-1.97-4.7,0-3.114.763-4.661,1.97-4.661,1.292,0,1.949,1.61,1.949,4.661,0,3.136-.678,4.7-1.928,4.7ZM48.73.233a1.847,1.847,0,0,0,1.907-1.949,1.848,1.848,0,0,0-1.886-1.97,1.853,1.853,0,0,0-1.907,1.97A1.849,1.849,0,0,0,48.708.233Zm8.432,0c3.475,0,5.191-2.945,5.191-7.182,0-3.771-1.462-7.055-5.127-7.055-3.559,0-5.233,3.136-5.233,7.14.021,3.9,1.589,7.1,5.148,7.1ZM57.183-2.2c-1.229,0-1.992-1.525-1.97-4.7,0-3.114.763-4.661,1.97-4.661,1.292,0,1.949,1.61,1.949,4.661,0,3.136-.678,4.7-1.928,4.7ZM72.734-13.962a6.78,6.78,0,0,0-1.292.021,8.178,8.178,0,0,0-5.3,2.013,8.262,8.262,0,0,0-2.458,6.144c0,3.284,1.8,6.017,5.487,6.017a4.927,4.927,0,0,0,5.064-4.979A4.18,4.18,0,0,0,69.98-9.237a3.985,3.985,0,0,0-2.924,1.081h-.064c.36-1.589,1.631-3.072,4.492-3.284a8.852,8.852,0,0,1,1.25-.042ZM69.111-2.14c-1.462,0-2.161-1.314-2.225-2.775a1.691,1.691,0,0,1,.148-.826,2.063,2.063,0,0,1,1.886-1.208,2.1,2.1,0,0,1,2.055,2.373c0,1.4-.72,2.436-1.843,2.436Zm6.5,1.42A8.392,8.392,0,0,0,79.7.233c3.5,0,5.636-1.78,5.636-4.195a3.427,3.427,0,0,0-2.987-3.369v-.042a3.282,3.282,0,0,0,2.521-3.2c0-1.886-1.631-3.432-4.555-3.432a8.567,8.567,0,0,0-4.259,1.038l.657,2.331a6.112,6.112,0,0,1,2.86-.826c1.377,0,2.034.614,2.034,1.441,0,1.165-1.356,1.589-2.436,1.589h-1.25v2.309h1.314c1.4,0,2.754.614,2.754,1.992,0,1.017-.847,1.822-2.521,1.822a7.29,7.29,0,0,1-3.2-.847ZM87.968,0h3.2V-4.661l1.208-1.5L95.892,0h3.75L94.684-8.2l4.725-6.081H95.425L92.2-9.534c-.339.508-.678,1.017-1,1.568h-.042V-14.28h-3.2Zm12.9,0h3.136V-6.017a2.179,2.179,0,0,1,.127-.826,1.648,1.648,0,0,1,1.5-1.144c1.038,0,1.5.89,1.5,2.182V0h3.136V-6.059a3.353,3.353,0,0,1,.106-.805,1.6,1.6,0,0,1,1.5-1.123c1.038,0,1.525.869,1.525,2.373V0h3.136V-6.1c0-3.093-1.5-4.492-3.5-4.492a3.945,3.945,0,0,0-1.97.508,4.506,4.506,0,0,0-1.356,1.271h-.042a2.932,2.932,0,0,0-2.839-1.78,3.585,3.585,0,0,0-3.136,1.653h-.064l-.127-1.42h-2.733c.042.932.085,2.013.085,3.305Zm23.157-7V-8.545h-3.04v-.025l.742-.618c1.174-1.038,2.138-2.113,2.138-3.46,0-1.458-.989-2.521-2.818-2.521a4.407,4.407,0,0,0-2.62.828l.531,1.335a2.985,2.985,0,0,1,1.718-.655c.927,0,1.31.519,1.31,1.174-.012.939-.865,1.841-2.632,3.423l-1.026.927V-7Z" transform="translate(924 2246)"/>
    <path id="Trazado_24097" data-name="Trazado 24097" d="M11.78-6.886v-1.97H.847v1.97Zm0,4.386V-4.47H.847V-2.5Z" transform="translate(564 2246)"/>
    <path id="Trazado_24100" data-name="Trazado 24100" d="M11.78-6.886v-1.97H.847v1.97Zm0,4.386V-4.47H.847V-2.5Z" transform="translate(782 2246)"/>
    <path id="Trazado_24096" data-name="Trazado 24096" d="M5,0H8.115V-13.771H5.466L1.8-12.076l.53,2.415,2.627-1.25H5ZM17.627.233c3.475,0,5.191-2.945,5.191-7.182,0-3.771-1.462-7.055-5.127-7.055-3.559,0-5.233,3.136-5.233,7.14.021,3.9,1.589,7.1,5.148,7.1ZM17.649-2.2c-1.229,0-1.992-1.525-1.97-4.7,0-3.114.763-4.661,1.97-4.661,1.292,0,1.949,1.61,1.949,4.661,0,3.136-.678,4.7-1.928,4.7ZM29.165-15.144a3.955,3.955,0,0,0-.754.012,4.77,4.77,0,0,0-3.09,1.174,4.819,4.819,0,0,0-1.434,3.584c0,1.916,1.05,3.51,3.2,3.51a2.874,2.874,0,0,0,2.954-2.9,2.438,2.438,0,0,0-2.484-2.62,2.324,2.324,0,0,0-1.705.63h-.037a2.562,2.562,0,0,1,2.62-1.916,5.164,5.164,0,0,1,.729-.025Zm-2.113,6.9c-.853,0-1.261-.766-1.3-1.619a.986.986,0,0,1,.087-.482,1.2,1.2,0,0,1,1.1-.7,1.228,1.228,0,0,1,1.2,1.384c0,.816-.42,1.421-1.075,1.421ZM31.669,0H34.8V-6.017a2.179,2.179,0,0,1,.127-.826,1.648,1.648,0,0,1,1.5-1.144c1.038,0,1.5.89,1.5,2.182V0h3.136V-6.059a3.353,3.353,0,0,1,.106-.805,1.6,1.6,0,0,1,1.5-1.123c1.038,0,1.525.869,1.525,2.373V0h3.136V-6.1c0-3.093-1.5-4.492-3.5-4.492a3.945,3.945,0,0,0-1.97.508,4.506,4.506,0,0,0-1.356,1.271h-.042a2.932,2.932,0,0,0-2.839-1.78,3.585,3.585,0,0,0-3.136,1.653h-.064l-.127-1.42H31.584c.042.932.085,2.013.085,3.305ZM54.825-7V-8.545h-3.04v-.025l.741-.618c1.174-1.038,2.138-2.113,2.138-3.46,0-1.458-.989-2.521-2.818-2.521a4.407,4.407,0,0,0-2.62.828l.531,1.335a2.985,2.985,0,0,1,1.718-.655c.927,0,1.31.519,1.31,1.174-.012.939-.865,1.841-2.632,3.423l-1.026.927V-7Z" transform="translate(433 2261)"/>
    <path id="Trazado_24101" data-name="Trazado 24101" d="M5,0H8.115V-13.771H5.466L1.8-12.076l.53,2.415,2.627-1.25H5ZM17.627.233c3.475,0,5.191-2.945,5.191-7.182,0-3.771-1.462-7.055-5.127-7.055-3.559,0-5.233,3.136-5.233,7.14.021,3.9,1.589,7.1,5.148,7.1ZM17.649-2.2c-1.229,0-1.992-1.525-1.97-4.7,0-3.114.763-4.661,1.97-4.661,1.292,0,1.949,1.61,1.949,4.661,0,3.136-.678,4.7-1.928,4.7ZM29.386.233c3.475,0,5.191-2.945,5.191-7.182,0-3.771-1.462-7.055-5.127-7.055-3.559,0-5.233,3.136-5.233,7.14.021,3.9,1.589,7.1,5.148,7.1ZM29.407-2.2c-1.229,0-1.992-1.525-1.97-4.7,0-3.114.763-4.661,1.97-4.661,1.292,0,1.949,1.61,1.949,4.661,0,3.136-.678,4.7-1.928,4.7ZM41.145.233c3.475,0,5.191-2.945,5.191-7.182,0-3.771-1.462-7.055-5.127-7.055-3.559,0-5.233,3.136-5.233,7.14.021,3.9,1.589,7.1,5.148,7.1ZM41.166-2.2c-1.229,0-1.992-1.525-1.97-4.7,0-3.114.763-4.661,1.97-4.661,1.292,0,1.949,1.61,1.949,4.661,0,3.136-.678,4.7-1.928,4.7ZM48.327,0h3.136V-6.017a2.179,2.179,0,0,1,.127-.826,1.648,1.648,0,0,1,1.5-1.144c1.038,0,1.5.89,1.5,2.182V0h3.136V-6.059a3.353,3.353,0,0,1,.106-.805,1.6,1.6,0,0,1,1.5-1.123c1.038,0,1.525.869,1.525,2.373V0h3.136V-6.1c0-3.093-1.5-4.492-3.5-4.492a3.945,3.945,0,0,0-1.97.508,4.506,4.506,0,0,0-1.356,1.271h-.042a2.932,2.932,0,0,0-2.839-1.78,3.585,3.585,0,0,0-3.136,1.653H51.1l-.127-1.42H48.242c.042.932.085,2.013.085,3.305ZM71.484-7V-8.545h-3.04v-.025l.742-.618c1.174-1.038,2.138-2.113,2.138-3.46,0-1.458-.989-2.521-2.818-2.521a4.407,4.407,0,0,0-2.62.828l.531,1.335a2.985,2.985,0,0,1,1.718-.655c.927,0,1.31.519,1.31,1.174-.012.939-.865,1.841-2.632,3.423l-1.026.927V-7Z" transform="translate(826.125 2261)"/>
    <path id="Trazado_24099" data-name="Trazado 24099" d="M5,0H8.115V-13.771H5.466L1.8-12.076l.53,2.415,2.627-1.25H5ZM17.627.233c3.475,0,5.191-2.945,5.191-7.182,0-3.771-1.462-7.055-5.127-7.055-3.559,0-5.233,3.136-5.233,7.14.021,3.9,1.589,7.1,5.148,7.1ZM17.649-2.2c-1.229,0-1.992-1.525-1.97-4.7,0-3.114.763-4.661,1.97-4.661,1.292,0,1.949,1.61,1.949,4.661,0,3.136-.678,4.7-1.928,4.7ZM29.386.233c3.475,0,5.191-2.945,5.191-7.182,0-3.771-1.462-7.055-5.127-7.055-3.559,0-5.233,3.136-5.233,7.14.021,3.9,1.589,7.1,5.148,7.1ZM29.407-2.2c-1.229,0-1.992-1.525-1.97-4.7,0-3.114.763-4.661,1.97-4.661,1.292,0,1.949,1.61,1.949,4.661,0,3.136-.678,4.7-1.928,4.7ZM41.145.233c3.475,0,5.191-2.945,5.191-7.182,0-3.771-1.462-7.055-5.127-7.055-3.559,0-5.233,3.136-5.233,7.14.021,3.9,1.589,7.1,5.148,7.1ZM41.166-2.2c-1.229,0-1.992-1.525-1.97-4.7,0-3.114.763-4.661,1.97-4.661,1.292,0,1.949,1.61,1.949,4.661,0,3.136-.678,4.7-1.928,4.7ZM52.9.233c3.475,0,5.191-2.945,5.191-7.182,0-3.771-1.462-7.055-5.127-7.055-3.559,0-5.233,3.136-5.233,7.14.021,3.9,1.589,7.1,5.148,7.1ZM52.925-2.2c-1.229,0-1.992-1.525-1.97-4.7,0-3.114.763-4.661,1.97-4.661,1.292,0,1.949,1.61,1.949,4.661,0,3.136-.678,4.7-1.928,4.7ZM64.662.233c3.475,0,5.191-2.945,5.191-7.182,0-3.771-1.462-7.055-5.127-7.055-3.559,0-5.233,3.136-5.233,7.14.021,3.9,1.589,7.1,5.148,7.1ZM64.683-2.2c-1.229,0-1.992-1.525-1.97-4.7,0-3.114.763-4.661,1.97-4.661,1.292,0,1.949,1.61,1.949,4.661,0,3.136-.678,4.7-1.928,4.7ZM76.421.233c3.475,0,5.191-2.945,5.191-7.182,0-3.771-1.462-7.055-5.127-7.055-3.559,0-5.233,3.136-5.233,7.14.021,3.9,1.589,7.1,5.148,7.1ZM76.442-2.2c-1.229,0-1.992-1.525-1.97-4.7,0-3.114.763-4.661,1.97-4.661,1.292,0,1.949,1.61,1.949,4.661,0,3.136-.678,4.7-1.928,4.7ZM83.6,0h3.136V-6.017a2.179,2.179,0,0,1,.127-.826,1.648,1.648,0,0,1,1.5-1.144c1.038,0,1.5.89,1.5,2.182V0H93.01V-6.059a3.353,3.353,0,0,1,.106-.805,1.6,1.6,0,0,1,1.5-1.123c1.038,0,1.525.869,1.525,2.373V0h3.136V-6.1c0-3.093-1.5-4.492-3.5-4.492a3.945,3.945,0,0,0-1.97.508,4.506,4.506,0,0,0-1.356,1.271h-.042a2.932,2.932,0,0,0-2.839-1.78,3.585,3.585,0,0,0-3.136,1.653h-.064l-.127-1.42H83.518c.042.932.085,2.013.085,3.305ZM106.76-7V-8.545h-3.04v-.025l.742-.618c1.174-1.038,2.138-2.113,2.138-3.46,0-1.458-.989-2.521-2.818-2.521a4.407,4.407,0,0,0-2.62.828l.531,1.335a2.985,2.985,0,0,1,1.718-.655c.927,0,1.31.519,1.31,1.174-.012.939-.865,1.841-2.632,3.423l-1.026.927V-7Z" transform="translate(620 2261)"/>
    <path id="Trazado_24088" data-name="Trazado 24088" d="M4124,2212h132.875" transform="translate(-3733 28)" fill="none" stroke="#0d468f" stroke-width="2"/>
    <path id="Trazado_24082" data-name="Trazado 24082" d="M4124,2212h72.125" transform="translate(-3298 28)" fill="none" stroke="#0d468f" stroke-width="2"/>
    <path id="Trazado_24083" data-name="Trazado 24083" d="M4124,2212h132.875" transform="translate(-3516.5 28)" fill="none" stroke="#0d468f" stroke-width="2"/>
    <path id="Trazado_24085" data-name="Trazado 24085" d="M4380.789,2154.316l39.585-39.585" transform="translate(-3728 92)" fill="none" stroke="#ff9100" stroke-width="2"/>
    <path id="Trazado_24084" data-name="Trazado 24084" d="M4380.789,2154.316l39.585-39.585" transform="translate(-3689.375 121)" fill="none" stroke="#ff9100" stroke-width="2"/>
    <path id="Trazado_24087" data-name="Trazado 24087" d="M4380.789,2154.316l39.585-39.585" transform="matrix(0.259, 0.966, -0.966, 0.259, 1554.419, -2576.567)" fill="none" stroke="#ff9100" stroke-width="2"/>
    <path id="Trazado_24086" data-name="Trazado 24086" d="M4380.789,2154.316l39.585-39.585" transform="matrix(0.259, 0.966, -0.966, 0.259, 1572.419, -2547.567)" fill="none" stroke="#ff9100" stroke-width="2"/>
  </g>
</svg>
