<svg xmlns="http://www.w3.org/2000/svg" width="685" height="349.649" viewBox="0 0 685 349.649">
  <g id="Grupo_14474" data-name="Grupo 14474" transform="translate(-319 -2453)">
    <path id="Rectángulo_3494" data-name="Rectángulo 3494" d="M0,0H653V333.65H0Z" transform="translate(351 2469)" fill="#e6e6e6"/>
    <path id="Trazado_23916" data-name="Trazado 23916" d="M10.02,21H1.8V6.723H10.02V9.2h-5.2v3.135H9.658v2.48H4.824V18.5h5.2Zm1.865,4.8a6.934,6.934,0,0,1-1.963-.244V23.217a5.308,5.308,0,0,0,1.4.186,1.344,1.344,0,0,0,1.1-.42,1.91,1.91,0,0,0,.347-1.24V10.082h2.979v12.1a3.494,3.494,0,0,1-1.006,2.681A4.013,4.013,0,0,1,11.885,25.8ZM12.637,7.26q0-1.455,1.621-1.455T15.879,7.26a1.419,1.419,0,0,1-.405,1.079,1.7,1.7,0,0,1-1.216.386Q12.637,8.725,12.637,7.26ZM23.389,12a1.889,1.889,0,0,0-1.484.6,2.78,2.78,0,0,0-.615,1.7h4.18a2.483,2.483,0,0,0-.576-1.7A1.951,1.951,0,0,0,23.389,12Zm.42,9.2a5.635,5.635,0,0,1-4.121-1.455A5.509,5.509,0,0,1,18.2,15.619a6.06,6.06,0,0,1,1.372-4.243,4.886,4.886,0,0,1,3.794-1.5,4.809,4.809,0,0,1,3.6,1.318,4.988,4.988,0,0,1,1.289,3.643v1.445H21.221a2.867,2.867,0,0,0,.752,1.982,2.646,2.646,0,0,0,1.973.713,8.189,8.189,0,0,0,1.865-.205,9.333,9.333,0,0,0,1.836-.654v2.3a6.994,6.994,0,0,1-1.67.581A10.529,10.529,0,0,1,23.809,21.2ZM36.777,9.877a4.8,4.8,0,0,1,1.006.088l-.225,2.793a3.412,3.412,0,0,0-.879-.1,3.159,3.159,0,0,0-2.222.732,2.648,2.648,0,0,0-.8,2.051V21H30.684V10.082h2.256l.439,1.836h.146A4.1,4.1,0,0,1,34.9,10.438,3.383,3.383,0,0,1,36.777,9.877ZM44.2,21.2q-5.1,0-5.1-5.6a5.969,5.969,0,0,1,1.387-4.253,5.2,5.2,0,0,1,3.975-1.47,7.577,7.577,0,0,1,3.4.742l-.879,2.3q-.7-.283-1.309-.464a4.216,4.216,0,0,0-1.211-.181q-2.324,0-2.324,3.3,0,3.2,2.324,3.2a5.3,5.3,0,0,0,1.592-.229,5.747,5.747,0,0,0,1.465-.718v2.549a4.8,4.8,0,0,1-1.46.635A8.21,8.21,0,0,1,44.2,21.2ZM49.922,7.26q0-1.455,1.621-1.455T53.164,7.26a1.419,1.419,0,0,1-.405,1.079,1.7,1.7,0,0,1-1.216.386Q49.922,8.725,49.922,7.26ZM53.027,21H50.049V10.082h2.979Zm7.559.2q-5.1,0-5.1-5.6a5.969,5.969,0,0,1,1.387-4.253,5.2,5.2,0,0,1,3.975-1.47,7.577,7.577,0,0,1,3.4.742l-.879,2.3q-.7-.283-1.309-.464a4.216,4.216,0,0,0-1.211-.181q-2.324,0-2.324,3.3,0,3.2,2.324,3.2a5.3,5.3,0,0,0,1.592-.229,5.747,5.747,0,0,0,1.465-.718v2.549a4.8,4.8,0,0,1-1.46.635A8.21,8.21,0,0,1,60.586,21.2ZM66.309,7.26q0-1.455,1.621-1.455T69.551,7.26a1.419,1.419,0,0,1-.405,1.079,1.7,1.7,0,0,1-1.216.386Q66.309,8.725,66.309,7.26ZM69.414,21H66.436V10.082h2.979Zm5.5-5.479a4.582,4.582,0,0,0,.532,2.451,1.9,1.9,0,0,0,1.733.83,1.873,1.873,0,0,0,1.714-.825,4.648,4.648,0,0,0,.522-2.456,4.51,4.51,0,0,0-.527-2.432,2.242,2.242,0,0,0-3.447,0A4.506,4.506,0,0,0,74.912,15.521Zm7.549,0a5.867,5.867,0,0,1-1.406,4.17,5.1,5.1,0,0,1-3.916,1.5,5.478,5.478,0,0,1-2.773-.688,4.581,4.581,0,0,1-1.846-1.978,6.645,6.645,0,0,1-.645-3.008,5.835,5.835,0,0,1,1.4-4.16A5.128,5.128,0,0,1,77.2,9.877a5.509,5.509,0,0,1,2.773.684,4.563,4.563,0,0,1,1.846,1.963A6.584,6.584,0,0,1,82.461,15.521Zm10.078,2.236a3.006,3.006,0,0,1-1.167,2.559,5.766,5.766,0,0,1-3.491.879,10.965,10.965,0,0,1-2.031-.161,7.683,7.683,0,0,1-1.572-.474V18.1a10.383,10.383,0,0,0,1.87.654,7.572,7.572,0,0,0,1.831.264q1.621,0,1.621-.937a.782.782,0,0,0-.215-.571,3.115,3.115,0,0,0-.742-.5q-.527-.278-1.406-.649a8.834,8.834,0,0,1-1.851-.977,2.749,2.749,0,0,1-.859-1.03,3.4,3.4,0,0,1-.269-1.431,2.594,2.594,0,0,1,1.128-2.251,5.494,5.494,0,0,1,3.2-.8,9.078,9.078,0,0,1,3.838.859l-.9,2.148q-.82-.352-1.533-.576a4.815,4.815,0,0,0-1.455-.225q-1.318,0-1.318.713a.838.838,0,0,0,.425.693,11.552,11.552,0,0,0,1.86.869,8.642,8.642,0,0,1,1.875.967,2.859,2.859,0,0,1,.879,1.035A3.181,3.181,0,0,1,92.539,17.758ZM103.516,21.2a3.546,3.546,0,0,1-3.022-1.494,6.869,6.869,0,0,1-1.1-4.141,6.876,6.876,0,0,1,1.118-4.185,3.632,3.632,0,0,1,3.081-1.5,3.562,3.562,0,0,1,3.145,1.6h.1a12.176,12.176,0,0,1-.225-2.178V5.8H109.6V21h-2.285l-.576-1.416h-.127A3.408,3.408,0,0,1,103.516,21.2Zm1.045-2.373a2.018,2.018,0,0,0,1.675-.664,3.863,3.863,0,0,0,.581-2.256V15.58a4.464,4.464,0,0,0-.542-2.52,2.013,2.013,0,0,0-1.763-.762,1.748,1.748,0,0,0-1.548.845,4.507,4.507,0,0,0-.552,2.456,4.271,4.271,0,0,0,.557,2.417A1.819,1.819,0,0,0,104.561,18.822ZM117.236,12a1.889,1.889,0,0,0-1.484.6,2.78,2.78,0,0,0-.615,1.7h4.18a2.483,2.483,0,0,0-.576-1.7A1.951,1.951,0,0,0,117.236,12Zm.42,9.2a5.635,5.635,0,0,1-4.121-1.455,5.509,5.509,0,0,1-1.484-4.121,6.06,6.06,0,0,1,1.372-4.243,4.886,4.886,0,0,1,3.794-1.5,4.809,4.809,0,0,1,3.6,1.318,4.988,4.988,0,0,1,1.289,3.643v1.445h-7.041a2.867,2.867,0,0,0,.752,1.982,2.646,2.646,0,0,0,1.973.713,8.189,8.189,0,0,0,1.865-.205,9.333,9.333,0,0,0,1.836-.654v2.3a6.994,6.994,0,0,1-1.67.581A10.529,10.529,0,0,1,117.656,21.2Zm18.066,0a3.621,3.621,0,0,1-3.018-1.4h-.156q.156,1.367.156,1.582V25.8h-2.979V10.082h2.422l.42,1.416h.137a3.446,3.446,0,0,1,3.1-1.621,3.543,3.543,0,0,1,3.027,1.494,6.91,6.91,0,0,1,1.094,4.15,8.2,8.2,0,0,1-.513,3.037,4.26,4.26,0,0,1-1.46,1.963A3.741,3.741,0,0,1,135.723,21.2Zm-.879-8.936a1.881,1.881,0,0,0-1.611.679,3.9,3.9,0,0,0-.527,2.241V15.5a4.6,4.6,0,0,0,.522,2.52,1.865,1.865,0,0,0,1.655.762q2,0,2-3.3a4.713,4.713,0,0,0-.493-2.417A1.683,1.683,0,0,0,134.844,12.26Zm13.633-2.383a4.8,4.8,0,0,1,1.006.088l-.225,2.793a3.412,3.412,0,0,0-.879-.1,3.159,3.159,0,0,0-2.222.732,2.648,2.648,0,0,0-.8,2.051V21h-2.979V10.082h2.256l.439,1.836h.146a4.1,4.1,0,0,1,1.372-1.479A3.383,3.383,0,0,1,148.477,9.877ZM158.4,21l-.576-1.484h-.078a4.4,4.4,0,0,1-1.548,1.313,5,5,0,0,1-2.075.366,3.356,3.356,0,0,1-2.476-.9,3.45,3.45,0,0,1-.9-2.559,2.881,2.881,0,0,1,1.216-2.563,7.045,7.045,0,0,1,3.667-.913l1.895-.059v-.479a1.485,1.485,0,0,0-1.7-1.66,7.743,7.743,0,0,0-3.076.791l-.986-2.012a8.876,8.876,0,0,1,4.18-.986,5.206,5.206,0,0,1,3.369.957,3.537,3.537,0,0,1,1.172,2.91V21Zm-.879-5.059-1.152.039a3.69,3.69,0,0,0-1.934.469,1.472,1.472,0,0,0-.635,1.309q0,1.26,1.445,1.26a2.289,2.289,0,0,0,1.655-.6,2.092,2.092,0,0,0,.62-1.582Zm-3.311-7.061V8.617A27.493,27.493,0,0,0,156.5,5.678h3.34v.205q-.508.508-1.733,1.509t-1.919,1.489ZM167.979,21.2q-5.1,0-5.1-5.6a5.969,5.969,0,0,1,1.387-4.253,5.2,5.2,0,0,1,3.975-1.47,7.577,7.577,0,0,1,3.4.742l-.879,2.3q-.7-.283-1.309-.464a4.216,4.216,0,0,0-1.211-.181q-2.324,0-2.324,3.3,0,3.2,2.324,3.2a5.3,5.3,0,0,0,1.592-.229,5.747,5.747,0,0,0,1.465-.718v2.549a4.8,4.8,0,0,1-1.46.635A8.21,8.21,0,0,1,167.979,21.2Zm10.449-2.373a6.457,6.457,0,0,0,1.875-.342V20.7a6.685,6.685,0,0,1-2.734.5,3.347,3.347,0,0,1-2.6-.9,3.932,3.932,0,0,1-.815-2.71V12.318h-1.426v-1.26l1.641-1,.859-2.3h1.9v2.324h3.057v2.236h-3.057v5.264a1.163,1.163,0,0,0,.356.938A1.406,1.406,0,0,0,178.428,18.822ZM182.383,7.26Q182.383,5.8,184,5.8t1.621,1.455a1.419,1.419,0,0,1-.405,1.079A1.7,1.7,0,0,1,184,8.725Q182.383,8.725,182.383,7.26ZM185.488,21H182.51V10.082h2.979Zm7.559.2q-5.1,0-5.1-5.6a5.969,5.969,0,0,1,1.387-4.253,5.2,5.2,0,0,1,3.975-1.47,7.577,7.577,0,0,1,3.4.742l-.879,2.3q-.7-.283-1.309-.464a4.216,4.216,0,0,0-1.211-.181q-2.324,0-2.324,3.3,0,3.2,2.324,3.2a5.3,5.3,0,0,0,1.592-.229,5.747,5.747,0,0,0,1.465-.718v2.549a4.8,4.8,0,0,1-1.46.635A8.21,8.21,0,0,1,193.047,21.2ZM205.83,21l-.576-1.484h-.078a4.4,4.4,0,0,1-1.548,1.313,5,5,0,0,1-2.075.366,3.356,3.356,0,0,1-2.476-.9,3.45,3.45,0,0,1-.9-2.559,2.881,2.881,0,0,1,1.216-2.563,7.045,7.045,0,0,1,3.667-.913l1.895-.059v-.479a1.485,1.485,0,0,0-1.7-1.66,7.743,7.743,0,0,0-3.076.791l-.986-2.012a8.876,8.876,0,0,1,4.18-.986,5.206,5.206,0,0,1,3.369.957,3.537,3.537,0,0,1,1.172,2.91V21Zm-.879-5.059-1.152.039a3.69,3.69,0,0,0-1.934.469,1.472,1.472,0,0,0-.635,1.309q0,1.26,1.445,1.26a2.289,2.289,0,0,0,1.655-.6,2.092,2.092,0,0,0,.62-1.582Z" transform="translate(469 2491)" fill="#00223d"/>
    <path id="Trazado_23917" data-name="Trazado 23917" d="M13.359,13.725A7.208,7.208,0,0,1,11.44,19.13,7.592,7.592,0,0,1,5.918,21H1.963V6.723H6.338a7,7,0,0,1,5.176,1.846A6.97,6.97,0,0,1,13.359,13.725Zm-1.758.059a5.748,5.748,0,0,0-1.4-4.209A5.616,5.616,0,0,0,6.035,8.158H3.623V19.564H5.645a6.146,6.146,0,0,0,4.463-1.46A5.78,5.78,0,0,0,11.6,13.783ZM20.82,21.2a4.917,4.917,0,0,1-3.745-1.445A5.6,5.6,0,0,1,15.7,15.736a6.205,6.205,0,0,1,1.274-4.111A4.233,4.233,0,0,1,20.4,10.1a4.036,4.036,0,0,1,3.184,1.323,5.072,5.072,0,0,1,1.172,3.491v1.025H17.383a4.243,4.243,0,0,0,.952,2.861,3.293,3.293,0,0,0,2.544.977,8.621,8.621,0,0,0,3.418-.723V20.5a8.579,8.579,0,0,1-1.626.532A9.138,9.138,0,0,1,20.82,21.2Zm-.439-9.736a2.647,2.647,0,0,0-2.056.84,3.871,3.871,0,0,0-.9,2.324h5.6a3.564,3.564,0,0,0-.684-2.349A2.406,2.406,0,0,0,20.381,11.459ZM34.424,18.08a2.681,2.681,0,0,1-1.113,2.3,5.233,5.233,0,0,1-3.125.811,6.8,6.8,0,0,1-3.32-.674v-1.5a8.03,8.03,0,0,0,1.655.615,6.912,6.912,0,0,0,1.7.225,3.864,3.864,0,0,0,1.953-.405,1.4,1.4,0,0,0,.142-2.3,8.526,8.526,0,0,0-2.114-1.05,11.465,11.465,0,0,1-2.124-.972,2.9,2.9,0,0,1-.937-.942,2.458,2.458,0,0,1-.308-1.26A2.4,2.4,0,0,1,27.9,10.858a4.96,4.96,0,0,1,2.92-.757,8.544,8.544,0,0,1,3.379.7l-.576,1.318a7.756,7.756,0,0,0-2.92-.664,3.359,3.359,0,0,0-1.738.361,1.117,1.117,0,0,0-.586,1,1.213,1.213,0,0,0,.22.732,2.168,2.168,0,0,0,.708.576,15.822,15.822,0,0,0,1.875.791,7,7,0,0,1,2.573,1.4A2.463,2.463,0,0,1,34.424,18.08ZM41.338,21.2a4.568,4.568,0,0,1-3.6-1.431,5.883,5.883,0,0,1-1.274-4.048,6.067,6.067,0,0,1,1.294-4.15A4.659,4.659,0,0,1,41.445,10.1a7.316,7.316,0,0,1,1.543.166,5.083,5.083,0,0,1,1.211.391l-.5,1.377a7.623,7.623,0,0,0-1.172-.356,5.232,5.232,0,0,0-1.123-.142q-3.262,0-3.262,4.16a4.954,4.954,0,0,0,.8,3.027A2.769,2.769,0,0,0,41.3,19.779a7.211,7.211,0,0,0,2.744-.576v1.436A5.849,5.849,0,0,1,41.338,21.2ZM55.82,15.639A5.9,5.9,0,0,1,54.5,19.726a4.643,4.643,0,0,1-3.643,1.47,4.824,4.824,0,0,1-2.549-.674,4.447,4.447,0,0,1-1.719-1.934,6.739,6.739,0,0,1-.605-2.949,5.9,5.9,0,0,1,1.309-4.077,4.628,4.628,0,0,1,3.633-1.46A4.528,4.528,0,0,1,54.5,11.6,5.879,5.879,0,0,1,55.82,15.639Zm-8.154,0a5.08,5.08,0,0,0,.82,3.125,3.256,3.256,0,0,0,4.829,0,5.054,5.054,0,0,0,.825-3.13,4.973,4.973,0,0,0-.825-3.1,2.9,2.9,0,0,0-2.437-1.06,2.853,2.853,0,0,0-2.4,1.045A5.029,5.029,0,0,0,47.666,15.639ZM72.3,21V14.037a2.89,2.89,0,0,0-.547-1.919,2.115,2.115,0,0,0-1.7-.64,2.743,2.743,0,0,0-2.236.869,4.131,4.131,0,0,0-.723,2.676V21H65.479V14.037a2.89,2.89,0,0,0-.547-1.919,2.128,2.128,0,0,0-1.709-.64,2.647,2.647,0,0,0-2.231.913,4.942,4.942,0,0,0-.708,2.993V21H58.662V10.3H59.98l.264,1.465h.078a3.186,3.186,0,0,1,1.294-1.221,3.953,3.953,0,0,1,1.87-.439q2.51,0,3.281,1.816h.078a3.413,3.413,0,0,1,1.387-1.328A4.3,4.3,0,0,1,70.3,10.1a3.624,3.624,0,0,1,2.72.933,4.172,4.172,0,0,1,.9,2.983V21Zm9.941.2a4.632,4.632,0,0,1-1.909-.386,3.59,3.59,0,0,1-1.45-1.187H78.77a14.356,14.356,0,0,1,.117,1.777v4.4H77.266V10.3h1.318l.225,1.465h.078a3.765,3.765,0,0,1,1.455-1.27,4.423,4.423,0,0,1,1.9-.391,3.956,3.956,0,0,1,3.286,1.455,6.406,6.406,0,0,1,1.157,4.082,6.369,6.369,0,0,1-1.177,4.1A3.963,3.963,0,0,1,82.246,21.2Zm-.234-9.717a2.873,2.873,0,0,0-2.373.908,4.673,4.673,0,0,0-.752,2.891v.361a5.356,5.356,0,0,0,.752,3.228,2.86,2.86,0,0,0,2.412.972,2.508,2.508,0,0,0,2.173-1.123,5.325,5.325,0,0,0,.786-3.1,5.126,5.126,0,0,0-.786-3.071A2.586,2.586,0,0,0,82.012,11.479Zm16.748,4.16a5.9,5.9,0,0,1-1.318,4.087A4.643,4.643,0,0,1,93.8,21.2a4.824,4.824,0,0,1-2.549-.674,4.447,4.447,0,0,1-1.719-1.934,6.739,6.739,0,0,1-.605-2.949,5.9,5.9,0,0,1,1.309-4.077,4.628,4.628,0,0,1,3.633-1.46A4.528,4.528,0,0,1,97.437,11.6,5.879,5.879,0,0,1,98.76,15.639Zm-8.154,0a5.08,5.08,0,0,0,.82,3.125,3.256,3.256,0,0,0,4.829,0,5.054,5.054,0,0,0,.825-3.13,4.973,4.973,0,0,0-.825-3.1,2.9,2.9,0,0,0-2.437-1.06,2.853,2.853,0,0,0-2.4,1.045A5.029,5.029,0,0,0,90.605,15.639ZM108.926,21V14.076a2.793,2.793,0,0,0-.6-1.953,2.427,2.427,0,0,0-1.865-.645,3.076,3.076,0,0,0-2.461.908,4.585,4.585,0,0,0-.781,3V21H101.6V10.3h1.318l.264,1.465h.078a3.31,3.31,0,0,1,1.4-1.226,4.537,4.537,0,0,1,2-.435,4.065,4.065,0,0,1,2.91.933,3.969,3.969,0,0,1,.977,2.983V21Zm9.473.2a4.917,4.917,0,0,1-3.745-1.445,5.6,5.6,0,0,1-1.372-4.014,6.205,6.205,0,0,1,1.274-4.111,4.233,4.233,0,0,1,3.423-1.523,4.036,4.036,0,0,1,3.184,1.323,5.072,5.072,0,0,1,1.172,3.491v1.025h-7.373a4.243,4.243,0,0,0,.952,2.861,3.293,3.293,0,0,0,2.544.977,8.621,8.621,0,0,0,3.418-.723V20.5a8.579,8.579,0,0,1-1.626.532A9.138,9.138,0,0,1,118.4,21.2Zm-.439-9.736a2.647,2.647,0,0,0-2.056.84,3.871,3.871,0,0,0-.9,2.324h5.6a3.564,3.564,0,0,0-.684-2.349A2.406,2.406,0,0,0,117.959,11.459ZM129.98,10.1a6.343,6.343,0,0,1,1.279.117l-.225,1.5a5.522,5.522,0,0,0-1.172-.146,2.853,2.853,0,0,0-2.222,1.055,3.846,3.846,0,0,0-.923,2.627V21H125.1V10.3h1.338l.186,1.982h.078a4.7,4.7,0,0,1,1.436-1.611A3.232,3.232,0,0,1,129.98,10.1Zm13,11.094a4.918,4.918,0,0,1-3.745-1.445,5.6,5.6,0,0,1-1.372-4.014,6.205,6.205,0,0,1,1.274-4.111,4.233,4.233,0,0,1,3.423-1.523,4.036,4.036,0,0,1,3.184,1.323,5.072,5.072,0,0,1,1.172,3.491v1.025h-7.373a4.243,4.243,0,0,0,.952,2.861,3.293,3.293,0,0,0,2.544.977,8.621,8.621,0,0,0,3.418-.723V20.5a8.579,8.579,0,0,1-1.626.532A9.138,9.138,0,0,1,142.979,21.2Zm-.439-9.736a2.647,2.647,0,0,0-2.056.84,3.871,3.871,0,0,0-.9,2.324h5.6a3.564,3.564,0,0,0-.684-2.349A2.406,2.406,0,0,0,142.539,11.459ZM157,21V14.076a2.793,2.793,0,0,0-.6-1.953,2.427,2.427,0,0,0-1.865-.645,3.076,3.076,0,0,0-2.461.908,4.585,4.585,0,0,0-.781,3V21h-1.621V10.3H151l.264,1.465h.078a3.31,3.31,0,0,1,1.4-1.226,4.537,4.537,0,0,1,2-.435,4.065,4.065,0,0,1,2.91.933,3.969,3.969,0,0,1,.977,2.983V21Zm17.051-2.92a2.681,2.681,0,0,1-1.113,2.3,5.233,5.233,0,0,1-3.125.811,6.8,6.8,0,0,1-3.32-.674v-1.5a8.03,8.03,0,0,0,1.655.615,6.912,6.912,0,0,0,1.7.225,3.864,3.864,0,0,0,1.953-.405,1.4,1.4,0,0,0,.142-2.3,8.526,8.526,0,0,0-2.114-1.05,11.465,11.465,0,0,1-2.124-.972,2.9,2.9,0,0,1-.937-.942,2.458,2.458,0,0,1-.308-1.26,2.4,2.4,0,0,1,1.064-2.065,4.96,4.96,0,0,1,2.92-.757,8.544,8.544,0,0,1,3.379.7l-.576,1.318a7.756,7.756,0,0,0-2.92-.664,3.359,3.359,0,0,0-1.738.361,1.117,1.117,0,0,0-.586,1,1.213,1.213,0,0,0,.22.732,2.168,2.168,0,0,0,.708.576,15.821,15.821,0,0,0,1.875.791,7,7,0,0,1,2.573,1.4A2.463,2.463,0,0,1,174.053,18.08Zm4.16-7.783V17.24a2.793,2.793,0,0,0,.6,1.953,2.427,2.427,0,0,0,1.865.645,3.043,3.043,0,0,0,2.456-.918,4.631,4.631,0,0,0,.776-3V10.3h1.621V21h-1.338l-.234-1.436h-.088a3.231,3.231,0,0,1-1.382,1.211,4.644,4.644,0,0,1-2.017.42,4.091,4.091,0,0,1-2.925-.928,3.949,3.949,0,0,1-.972-2.969v-7Zm17.656,7.783a2.681,2.681,0,0,1-1.113,2.3,5.233,5.233,0,0,1-3.125.811,6.8,6.8,0,0,1-3.32-.674v-1.5a8.03,8.03,0,0,0,1.655.615,6.912,6.912,0,0,0,1.7.225,3.864,3.864,0,0,0,1.953-.405,1.4,1.4,0,0,0,.142-2.3,8.526,8.526,0,0,0-2.114-1.05,11.465,11.465,0,0,1-2.124-.972,2.9,2.9,0,0,1-.937-.942,2.458,2.458,0,0,1-.308-1.26,2.4,2.4,0,0,1,1.064-2.065,4.96,4.96,0,0,1,2.92-.757,8.544,8.544,0,0,1,3.379.7l-.576,1.318a7.756,7.756,0,0,0-2.92-.664,3.359,3.359,0,0,0-1.738.361,1.117,1.117,0,0,0-.586,1,1.213,1.213,0,0,0,.22.732,2.168,2.168,0,0,0,.708.576,15.821,15.821,0,0,0,1.875.791,7,7,0,0,1,2.573,1.4A2.463,2.463,0,0,1,195.869,18.08ZM211.025,21V14.076a2.793,2.793,0,0,0-.6-1.953,2.427,2.427,0,0,0-1.865-.645,3.076,3.076,0,0,0-2.461.908,4.585,4.585,0,0,0-.781,3V21H203.7V10.3h1.318l.264,1.465h.078a3.31,3.31,0,0,1,1.4-1.226,4.537,4.537,0,0,1,2-.435,4.065,4.065,0,0,1,2.91.933,3.969,3.969,0,0,1,.977,2.983V21ZM217.5,10.3V17.24a2.793,2.793,0,0,0,.6,1.953,2.427,2.427,0,0,0,1.865.645,3.043,3.043,0,0,0,2.456-.918,4.631,4.631,0,0,0,.776-3V10.3h1.621V21h-1.338l-.234-1.436h-.088a3.231,3.231,0,0,1-1.382,1.211,4.644,4.644,0,0,1-2.017.42,4.091,4.091,0,0,1-2.925-.928,3.949,3.949,0,0,1-.972-2.969v-7Zm1.7-1.66q.469-.605,1.011-1.465a16.763,16.763,0,0,0,.854-1.494h1.973v.205a14.435,14.435,0,0,1-1.279,1.563,14.524,14.524,0,0,1-1.475,1.436H219.2ZM241.895,21V14.037a2.89,2.89,0,0,0-.547-1.919,2.115,2.115,0,0,0-1.7-.64,2.743,2.743,0,0,0-2.236.869,4.131,4.131,0,0,0-.723,2.676V21h-1.621V14.037a2.89,2.89,0,0,0-.547-1.919,2.128,2.128,0,0,0-1.709-.64,2.647,2.647,0,0,0-2.231.913,4.942,4.942,0,0,0-.708,2.993V21h-1.621V10.3h1.318l.264,1.465h.078a3.186,3.186,0,0,1,1.294-1.221,3.953,3.953,0,0,1,1.87-.439q2.51,0,3.281,1.816h.078a3.413,3.413,0,0,1,1.387-1.328,4.3,4.3,0,0,1,2.07-.488,3.624,3.624,0,0,1,2.72.933,4.172,4.172,0,0,1,.9,2.983V21Zm9.482.2a4.918,4.918,0,0,1-3.745-1.445,5.6,5.6,0,0,1-1.372-4.014,6.205,6.205,0,0,1,1.274-4.111,4.233,4.233,0,0,1,3.423-1.523,4.036,4.036,0,0,1,3.184,1.323,5.072,5.072,0,0,1,1.172,3.491v1.025h-7.373a4.243,4.243,0,0,0,.952,2.861,3.293,3.293,0,0,0,2.544.977,8.621,8.621,0,0,0,3.418-.723V20.5a8.579,8.579,0,0,1-1.626.532A9.138,9.138,0,0,1,251.377,21.2Zm-.439-9.736a2.647,2.647,0,0,0-2.056.84,3.871,3.871,0,0,0-.9,2.324h5.6a3.564,3.564,0,0,0-.684-2.349A2.406,2.406,0,0,0,250.938,11.459ZM262.959,10.1a6.343,6.343,0,0,1,1.279.117l-.225,1.5a5.522,5.522,0,0,0-1.172-.146,2.853,2.853,0,0,0-2.222,1.055,3.846,3.846,0,0,0-.923,2.627V21h-1.621V10.3h1.338l.186,1.982h.078a4.7,4.7,0,0,1,1.436-1.611A3.232,3.232,0,0,1,262.959,10.1Zm12.52,5.537a5.9,5.9,0,0,1-1.318,4.087,4.643,4.643,0,0,1-3.643,1.47,4.824,4.824,0,0,1-2.549-.674,4.447,4.447,0,0,1-1.719-1.934,6.739,6.739,0,0,1-.605-2.949,5.9,5.9,0,0,1,1.309-4.077,4.628,4.628,0,0,1,3.633-1.46,4.528,4.528,0,0,1,3.569,1.494A5.879,5.879,0,0,1,275.479,15.639Zm-8.154,0a5.08,5.08,0,0,0,.82,3.125,3.256,3.256,0,0,0,4.829,0,5.054,5.054,0,0,0,.825-3.13,4.973,4.973,0,0,0-.825-3.1,2.9,2.9,0,0,0-2.437-1.06,2.853,2.853,0,0,0-2.4,1.045A5.029,5.029,0,0,0,267.324,15.639Zm17.9,2.441a2.681,2.681,0,0,1-1.113,2.3,5.233,5.233,0,0,1-3.125.811,6.8,6.8,0,0,1-3.32-.674v-1.5a8.029,8.029,0,0,0,1.655.615,6.912,6.912,0,0,0,1.7.225,3.864,3.864,0,0,0,1.953-.405,1.4,1.4,0,0,0,.142-2.3,8.525,8.525,0,0,0-2.114-1.05,11.465,11.465,0,0,1-2.124-.972,2.9,2.9,0,0,1-.937-.942,2.458,2.458,0,0,1-.308-1.26,2.4,2.4,0,0,1,1.064-2.065,4.96,4.96,0,0,1,2.92-.757,8.543,8.543,0,0,1,3.379.7l-.576,1.318a7.756,7.756,0,0,0-2.92-.664,3.359,3.359,0,0,0-1.738.361,1.117,1.117,0,0,0-.586,1,1.213,1.213,0,0,0,.22.732,2.168,2.168,0,0,0,.708.576,15.824,15.824,0,0,0,1.875.791,7,7,0,0,1,2.573,1.4A2.463,2.463,0,0,1,285.225,18.08ZM298.037,21.2a4.632,4.632,0,0,1-1.909-.386,3.59,3.59,0,0,1-1.45-1.187h-.117a14.356,14.356,0,0,1,.117,1.777v4.4h-1.621V10.3h1.318l.225,1.465h.078a3.765,3.765,0,0,1,1.455-1.27,4.423,4.423,0,0,1,1.9-.391,3.956,3.956,0,0,1,3.286,1.455,6.406,6.406,0,0,1,1.157,4.082,6.369,6.369,0,0,1-1.177,4.1A3.963,3.963,0,0,1,298.037,21.2Zm-.234-9.717a2.873,2.873,0,0,0-2.373.908,4.673,4.673,0,0,0-.752,2.891v.361a5.356,5.356,0,0,0,.752,3.228,2.86,2.86,0,0,0,2.412.972,2.508,2.508,0,0,0,2.173-1.123,5.325,5.325,0,0,0,.786-3.1,5.126,5.126,0,0,0-.786-3.071A2.586,2.586,0,0,0,297.8,11.479ZM310.2,10.1a6.343,6.343,0,0,1,1.279.117l-.225,1.5a5.522,5.522,0,0,0-1.172-.146,2.853,2.853,0,0,0-2.222,1.055,3.846,3.846,0,0,0-.923,2.627V21h-1.621V10.3h1.338l.186,1.982h.078a4.7,4.7,0,0,1,1.436-1.611A3.232,3.232,0,0,1,310.2,10.1ZM315.1,21h-1.621V10.3H315.1ZM313.34,7.4a1.077,1.077,0,0,1,.273-.815,1.012,1.012,0,0,1,1.357,0,1.057,1.057,0,0,1,.283.811,1.074,1.074,0,0,1-.283.815.992.992,0,0,1-1.357,0A1.1,1.1,0,0,1,313.34,7.4ZM332.178,21V14.037a2.89,2.89,0,0,0-.547-1.919,2.115,2.115,0,0,0-1.7-.64,2.743,2.743,0,0,0-2.236.869,4.131,4.131,0,0,0-.723,2.676V21h-1.621V14.037a2.89,2.89,0,0,0-.547-1.919,2.128,2.128,0,0,0-1.709-.64,2.647,2.647,0,0,0-2.231.913,4.942,4.942,0,0,0-.708,2.993V21h-1.621V10.3h1.318l.264,1.465h.078a3.186,3.186,0,0,1,1.294-1.221,3.953,3.953,0,0,1,1.87-.439q2.51,0,3.281,1.816h.078a3.413,3.413,0,0,1,1.387-1.328,4.3,4.3,0,0,1,2.07-.488,3.624,3.624,0,0,1,2.72.933,4.172,4.172,0,0,1,.9,2.983V21Zm14.2-5.361a5.9,5.9,0,0,1-1.318,4.087,4.643,4.643,0,0,1-3.643,1.47,4.824,4.824,0,0,1-2.549-.674,4.447,4.447,0,0,1-1.719-1.934,6.739,6.739,0,0,1-.605-2.949,5.9,5.9,0,0,1,1.309-4.077,4.628,4.628,0,0,1,3.633-1.46,4.528,4.528,0,0,1,3.569,1.494A5.879,5.879,0,0,1,346.377,15.639Zm-8.154,0a5.08,5.08,0,0,0,.82,3.125,3.256,3.256,0,0,0,4.829,0,5.054,5.054,0,0,0,.825-3.13,4.973,4.973,0,0,0-.825-3.1,2.9,2.9,0,0,0-2.437-1.06,2.853,2.853,0,0,0-2.4,1.045A5.029,5.029,0,0,0,338.223,15.639Zm17.9,2.441a2.681,2.681,0,0,1-1.113,2.3,5.233,5.233,0,0,1-3.125.811,6.8,6.8,0,0,1-3.32-.674v-1.5a8.029,8.029,0,0,0,1.655.615,6.912,6.912,0,0,0,1.7.225,3.864,3.864,0,0,0,1.953-.405,1.4,1.4,0,0,0,.142-2.3A8.525,8.525,0,0,0,351.9,16.1a11.465,11.465,0,0,1-2.124-.972,2.9,2.9,0,0,1-.937-.942,2.458,2.458,0,0,1-.308-1.26,2.4,2.4,0,0,1,1.064-2.065,4.96,4.96,0,0,1,2.92-.757,8.543,8.543,0,0,1,3.379.7l-.576,1.318a7.756,7.756,0,0,0-2.92-.664,3.359,3.359,0,0,0-1.738.361,1.117,1.117,0,0,0-.586,1,1.213,1.213,0,0,0,.22.732,2.168,2.168,0,0,0,.708.576,15.824,15.824,0,0,0,1.875.791,7,7,0,0,1,2.573,1.4A2.463,2.463,0,0,1,356.123,18.08ZM365.576,21h-1.621V5.8h1.621Zm12.676-5.361a5.9,5.9,0,0,1-1.318,4.087,4.643,4.643,0,0,1-3.643,1.47,4.824,4.824,0,0,1-2.549-.674,4.447,4.447,0,0,1-1.719-1.934,6.739,6.739,0,0,1-.605-2.949,5.9,5.9,0,0,1,1.309-4.077,4.628,4.628,0,0,1,3.633-1.46,4.528,4.528,0,0,1,3.569,1.494A5.879,5.879,0,0,1,378.252,15.639Zm-8.154,0a5.08,5.08,0,0,0,.82,3.125,3.256,3.256,0,0,0,4.829,0,5.054,5.054,0,0,0,.825-3.13,4.973,4.973,0,0,0-.825-3.1,2.9,2.9,0,0,0-2.437-1.06,2.853,2.853,0,0,0-2.4,1.045A5.029,5.029,0,0,0,370.1,15.639ZM388,18.08a2.681,2.681,0,0,1-1.113,2.3,5.233,5.233,0,0,1-3.125.811,6.8,6.8,0,0,1-3.32-.674v-1.5a8.029,8.029,0,0,0,1.655.615,6.912,6.912,0,0,0,1.7.225,3.864,3.864,0,0,0,1.953-.405,1.4,1.4,0,0,0,.142-2.3,8.525,8.525,0,0,0-2.114-1.05,11.465,11.465,0,0,1-2.124-.972,2.9,2.9,0,0,1-.937-.942,2.458,2.458,0,0,1-.308-1.26,2.4,2.4,0,0,1,1.064-2.065,4.96,4.96,0,0,1,2.92-.757,8.543,8.543,0,0,1,3.379.7l-.576,1.318a7.756,7.756,0,0,0-2.92-.664,3.359,3.359,0,0,0-1.738.361,1.117,1.117,0,0,0-.586,1,1.213,1.213,0,0,0,.22.732,2.168,2.168,0,0,0,.708.576,15.824,15.824,0,0,0,1.875.791,7,7,0,0,1,2.573,1.4A2.463,2.463,0,0,1,388,18.08Zm14.736,0a2.681,2.681,0,0,1-1.113,2.3,5.233,5.233,0,0,1-3.125.811,6.8,6.8,0,0,1-3.32-.674v-1.5a8.029,8.029,0,0,0,1.655.615,6.912,6.912,0,0,0,1.7.225,3.864,3.864,0,0,0,1.953-.405,1.4,1.4,0,0,0,.142-2.3,8.525,8.525,0,0,0-2.114-1.05,11.465,11.465,0,0,1-2.124-.972,2.9,2.9,0,0,1-.937-.942,2.458,2.458,0,0,1-.308-1.26,2.4,2.4,0,0,1,1.064-2.065,4.96,4.96,0,0,1,2.92-.757,8.543,8.543,0,0,1,3.379.7l-.576,1.318a7.756,7.756,0,0,0-2.92-.664,3.359,3.359,0,0,0-1.738.361,1.117,1.117,0,0,0-.586,1,1.213,1.213,0,0,0,.22.732,2.168,2.168,0,0,0,.708.576,15.824,15.824,0,0,0,1.875.791,7,7,0,0,1,2.573,1.4A2.463,2.463,0,0,1,402.734,18.08ZM406.992,21h-1.621V10.3h1.621ZM405.234,7.4a1.077,1.077,0,0,1,.273-.815,1.012,1.012,0,0,1,1.357,0,1.057,1.057,0,0,1,.283.811,1.074,1.074,0,0,1-.283.815.992.992,0,0,1-1.357,0A1.1,1.1,0,0,1,405.234,7.4Zm13.955,2.9v1.025l-1.982.234a3.481,3.481,0,0,1,.7,2.139,3.164,3.164,0,0,1-1.074,2.51,4.333,4.333,0,0,1-2.949.938,4.911,4.911,0,0,1-.9-.078,1.6,1.6,0,0,0-1.035,1.377.7.7,0,0,0,.361.649,2.639,2.639,0,0,0,1.24.21h1.895a4.242,4.242,0,0,1,2.671.732,2.545,2.545,0,0,1,.933,2.129,3.039,3.039,0,0,1-1.426,2.71,7.631,7.631,0,0,1-4.16.933,5.684,5.684,0,0,1-3.237-.781,2.522,2.522,0,0,1-1.138-2.207,2.479,2.479,0,0,1,.625-1.689,3.182,3.182,0,0,1,1.758-.967,1.7,1.7,0,0,1-.688-.576,1.525,1.525,0,0,1-.278-.908,1.724,1.724,0,0,1,.313-1.025,3.286,3.286,0,0,1,.986-.85,2.891,2.891,0,0,1-1.353-1.162,3.415,3.415,0,0,1-.522-1.875,3.463,3.463,0,0,1,1.055-2.71,4.306,4.306,0,0,1,2.988-.952,5.434,5.434,0,0,1,1.514.2Zm-8.535,12.5a1.453,1.453,0,0,0,.732,1.318,4.042,4.042,0,0,0,2.1.449,5.859,5.859,0,0,0,3.022-.61,1.869,1.869,0,0,0,.981-1.655,1.31,1.31,0,0,0-.537-1.206,4.172,4.172,0,0,0-2.021-.337h-1.943a2.56,2.56,0,0,0-1.719.527A1.884,1.884,0,0,0,410.654,22.8Zm.879-9.072a2.179,2.179,0,0,0,.635,1.7,2.535,2.535,0,0,0,1.768.576,2.068,2.068,0,0,0,2.373-2.3,2.128,2.128,0,0,0-2.4-2.412,2.378,2.378,0,0,0-1.758.615A2.478,2.478,0,0,0,411.533,13.725ZM422.91,10.3V17.24a2.794,2.794,0,0,0,.6,1.953,2.427,2.427,0,0,0,1.865.645,3.043,3.043,0,0,0,2.456-.918,4.631,4.631,0,0,0,.776-3V10.3h1.621V21h-1.338l-.234-1.436h-.088a3.231,3.231,0,0,1-1.382,1.211,4.644,4.644,0,0,1-2.017.42,4.091,4.091,0,0,1-2.925-.928,3.949,3.949,0,0,1-.972-2.969v-7ZM435.283,21h-1.621V10.3h1.621ZM433.525,7.4a1.077,1.077,0,0,1,.273-.815,1.012,1.012,0,0,1,1.357,0,1.057,1.057,0,0,1,.283.811,1.074,1.074,0,0,1-.283.815.992.992,0,0,1-1.357,0A1.1,1.1,0,0,1,433.525,7.4Zm9.717,13.8A4.917,4.917,0,0,1,439.5,19.75a5.6,5.6,0,0,1-1.372-4.014,6.205,6.205,0,0,1,1.274-4.111,4.233,4.233,0,0,1,3.423-1.523,4.036,4.036,0,0,1,3.184,1.323,5.072,5.072,0,0,1,1.172,3.491v1.025H439.8a4.243,4.243,0,0,0,.952,2.861,3.293,3.293,0,0,0,2.544.977,8.621,8.621,0,0,0,3.418-.723V20.5a8.578,8.578,0,0,1-1.626.532A9.138,9.138,0,0,1,443.242,21.2Zm-.439-9.736a2.647,2.647,0,0,0-2.056.84,3.871,3.871,0,0,0-.9,2.324h5.6a3.564,3.564,0,0,0-.684-2.349A2.406,2.406,0,0,0,442.8,11.459ZM457.266,21V14.076a2.794,2.794,0,0,0-.6-1.953,2.427,2.427,0,0,0-1.865-.645,3.076,3.076,0,0,0-2.461.908,4.585,4.585,0,0,0-.781,3V21h-1.621V10.3h1.318l.264,1.465h.078a3.31,3.31,0,0,1,1.4-1.226,4.537,4.537,0,0,1,2-.435,4.065,4.065,0,0,1,2.91.933,3.969,3.969,0,0,1,.977,2.983V21Zm8.408-1.143a5.3,5.3,0,0,0,.83-.063,5.373,5.373,0,0,0,.635-.132V20.9a2.963,2.963,0,0,1-.776.21,5.83,5.83,0,0,1-.923.083q-3.105,0-3.105-3.271V11.557H460.8v-.781l1.533-.674.684-2.285h.938V10.3h3.105v1.26h-3.105v6.3a2.167,2.167,0,0,0,.459,1.484A1.6,1.6,0,0,0,465.674,19.857ZM473.8,21.2a4.917,4.917,0,0,1-3.745-1.445,5.6,5.6,0,0,1-1.372-4.014,6.205,6.205,0,0,1,1.274-4.111,4.233,4.233,0,0,1,3.423-1.523,4.036,4.036,0,0,1,3.184,1.323,5.072,5.072,0,0,1,1.172,3.491v1.025h-7.373a4.243,4.243,0,0,0,.952,2.861,3.293,3.293,0,0,0,2.544.977,8.621,8.621,0,0,0,3.418-.723V20.5a8.578,8.578,0,0,1-1.626.532A9.138,9.138,0,0,1,473.8,21.2Zm-.439-9.736a2.647,2.647,0,0,0-2.056.84,3.871,3.871,0,0,0-.9,2.324H476a3.564,3.564,0,0,0-.684-2.349A2.406,2.406,0,0,0,473.359,11.459ZM487.4,18.08a2.681,2.681,0,0,1-1.113,2.3,5.233,5.233,0,0,1-3.125.811,6.8,6.8,0,0,1-3.32-.674v-1.5a8.029,8.029,0,0,0,1.655.615,6.912,6.912,0,0,0,1.7.225,3.864,3.864,0,0,0,1.953-.405,1.4,1.4,0,0,0,.142-2.3,8.525,8.525,0,0,0-2.114-1.05,11.465,11.465,0,0,1-2.124-.972,2.9,2.9,0,0,1-.937-.942,2.458,2.458,0,0,1-.308-1.26,2.4,2.4,0,0,1,1.064-2.065,4.96,4.96,0,0,1,2.92-.757,8.543,8.543,0,0,1,3.379.7l-.576,1.318a7.756,7.756,0,0,0-2.92-.664,3.359,3.359,0,0,0-1.738.361,1.117,1.117,0,0,0-.586,1,1.213,1.213,0,0,0,.22.732,2.168,2.168,0,0,0,.708.576,15.824,15.824,0,0,0,1.875.791,7,7,0,0,1,2.573,1.4A2.463,2.463,0,0,1,487.4,18.08ZM9.043,48V41.076a2.793,2.793,0,0,0-.6-1.953,2.427,2.427,0,0,0-1.865-.645,3.076,3.076,0,0,0-2.461.908,4.585,4.585,0,0,0-.781,3V48H1.719V37.3H3.037L3.3,38.762h.078a3.31,3.31,0,0,1,1.4-1.226,4.537,4.537,0,0,1,2-.435,4.065,4.065,0,0,1,2.91.933,3.969,3.969,0,0,1,.977,2.983V48Zm6.475-10.7V44.24a2.793,2.793,0,0,0,.6,1.953,2.427,2.427,0,0,0,1.865.645,3.043,3.043,0,0,0,2.456-.918,4.631,4.631,0,0,0,.776-3V37.3h1.621V48H21.494l-.234-1.436h-.088a3.231,3.231,0,0,1-1.382,1.211,4.644,4.644,0,0,1-2.017.42,4.091,4.091,0,0,1-2.925-.928,3.949,3.949,0,0,1-.972-2.969v-7Zm1.7-1.66q.469-.605,1.011-1.465a16.765,16.765,0,0,0,.854-1.494h1.973v.205a14.436,14.436,0,0,1-1.279,1.563A14.525,14.525,0,0,1,18.3,35.881H17.217ZM39.912,48V41.037a2.89,2.89,0,0,0-.547-1.919,2.115,2.115,0,0,0-1.7-.64,2.743,2.743,0,0,0-2.236.869,4.131,4.131,0,0,0-.723,2.676V48H33.086V41.037a2.89,2.89,0,0,0-.547-1.919,2.128,2.128,0,0,0-1.709-.64,2.647,2.647,0,0,0-2.231.913,4.942,4.942,0,0,0-.708,2.993V48H26.27V37.3h1.318l.264,1.465h.078a3.186,3.186,0,0,1,1.294-1.221,3.953,3.953,0,0,1,1.87-.439q2.51,0,3.281,1.816h.078A3.413,3.413,0,0,1,35.84,37.59a4.3,4.3,0,0,1,2.07-.488,3.624,3.624,0,0,1,2.72.933,4.172,4.172,0,0,1,.9,2.983V48Zm9.482.2a4.917,4.917,0,0,1-3.745-1.445,5.6,5.6,0,0,1-1.372-4.014,6.205,6.205,0,0,1,1.274-4.111A4.233,4.233,0,0,1,48.975,37.1a4.036,4.036,0,0,1,3.184,1.323,5.072,5.072,0,0,1,1.172,3.491v1.025H45.957a4.243,4.243,0,0,0,.952,2.861,3.293,3.293,0,0,0,2.544.977,8.621,8.621,0,0,0,3.418-.723V47.5a8.579,8.579,0,0,1-1.626.532A9.138,9.138,0,0,1,49.395,48.2Zm-.439-9.736a2.647,2.647,0,0,0-2.056.84,3.871,3.871,0,0,0-.9,2.324h5.6a3.564,3.564,0,0,0-.684-2.349A2.406,2.406,0,0,0,48.955,38.459ZM60.977,37.1a6.343,6.343,0,0,1,1.279.117l-.225,1.5a5.522,5.522,0,0,0-1.172-.146,2.853,2.853,0,0,0-2.222,1.055,3.846,3.846,0,0,0-.923,2.627V48H56.094V37.3h1.338l.186,1.982H57.7a4.7,4.7,0,0,1,1.436-1.611A3.232,3.232,0,0,1,60.977,37.1ZM73.5,42.639a5.9,5.9,0,0,1-1.318,4.087,4.643,4.643,0,0,1-3.643,1.47,4.824,4.824,0,0,1-2.549-.674,4.447,4.447,0,0,1-1.719-1.934,6.739,6.739,0,0,1-.605-2.949,5.9,5.9,0,0,1,1.309-4.077A4.628,4.628,0,0,1,68.6,37.1,4.528,4.528,0,0,1,72.173,38.6,5.879,5.879,0,0,1,73.5,42.639Zm-8.154,0a5.08,5.08,0,0,0,.82,3.125,3.256,3.256,0,0,0,4.829,0,5.054,5.054,0,0,0,.825-3.13,4.973,4.973,0,0,0-.825-3.1,2.9,2.9,0,0,0-2.437-1.06,2.853,2.853,0,0,0-2.4,1.045A5.029,5.029,0,0,0,65.342,42.639Zm17.9,2.441a2.681,2.681,0,0,1-1.113,2.3A5.233,5.233,0,0,1,79,48.2a6.8,6.8,0,0,1-3.32-.674v-1.5a8.029,8.029,0,0,0,1.655.615,6.912,6.912,0,0,0,1.7.225A3.864,3.864,0,0,0,81,46.452a1.4,1.4,0,0,0,.142-2.3,8.525,8.525,0,0,0-2.114-1.05,11.465,11.465,0,0,1-2.124-.972,2.9,2.9,0,0,1-.937-.942,2.458,2.458,0,0,1-.308-1.26,2.4,2.4,0,0,1,1.064-2.065,4.96,4.96,0,0,1,2.92-.757,8.544,8.544,0,0,1,3.379.7l-.576,1.318a7.756,7.756,0,0,0-2.92-.664,3.359,3.359,0,0,0-1.738.361,1.117,1.117,0,0,0-.586,1,1.213,1.213,0,0,0,.22.732,2.168,2.168,0,0,0,.708.576A15.822,15.822,0,0,0,80,41.916a7,7,0,0,1,2.573,1.4A2.463,2.463,0,0,1,83.242,45.08ZM95.352,48.2a4.568,4.568,0,0,1-3.6-1.431,5.883,5.883,0,0,1-1.274-4.048,6.067,6.067,0,0,1,1.294-4.15A4.659,4.659,0,0,1,95.459,37.1,7.316,7.316,0,0,1,97,37.268a5.083,5.083,0,0,1,1.211.391l-.5,1.377a7.622,7.622,0,0,0-1.172-.356,5.232,5.232,0,0,0-1.123-.142q-3.262,0-3.262,4.16a4.954,4.954,0,0,0,.8,3.027,2.769,2.769,0,0,0,2.358,1.055,7.211,7.211,0,0,0,2.744-.576v1.436A5.849,5.849,0,0,1,95.352,48.2Zm14.482-5.557a5.9,5.9,0,0,1-1.318,4.087,4.643,4.643,0,0,1-3.643,1.47,4.824,4.824,0,0,1-2.549-.674,4.447,4.447,0,0,1-1.719-1.934A6.739,6.739,0,0,1,100,42.639a5.9,5.9,0,0,1,1.309-4.077,4.628,4.628,0,0,1,3.633-1.46,4.528,4.528,0,0,1,3.569,1.494A5.879,5.879,0,0,1,109.834,42.639Zm-8.154,0a5.08,5.08,0,0,0,.82,3.125,3.256,3.256,0,0,0,4.829,0,5.054,5.054,0,0,0,.825-3.13,4.973,4.973,0,0,0-.825-3.1,2.9,2.9,0,0,0-2.437-1.06,2.853,2.853,0,0,0-2.4,1.045A5.029,5.029,0,0,0,101.68,42.639ZM126.318,48V41.037a2.89,2.89,0,0,0-.547-1.919,2.115,2.115,0,0,0-1.7-.64,2.743,2.743,0,0,0-2.236.869,4.131,4.131,0,0,0-.723,2.676V48h-1.621V41.037a2.89,2.89,0,0,0-.547-1.919,2.128,2.128,0,0,0-1.709-.64,2.647,2.647,0,0,0-2.231.913,4.942,4.942,0,0,0-.708,2.993V48h-1.621V37.3h1.318l.264,1.465h.078a3.186,3.186,0,0,1,1.294-1.221,3.953,3.953,0,0,1,1.87-.439q2.51,0,3.281,1.816h.078a3.413,3.413,0,0,1,1.387-1.328,4.3,4.3,0,0,1,2.07-.488,3.624,3.624,0,0,1,2.72.933,4.172,4.172,0,0,1,.9,2.983V48Zm9.941.2a4.632,4.632,0,0,1-1.909-.386,3.59,3.59,0,0,1-1.45-1.187h-.117A14.356,14.356,0,0,1,132.9,48.4v4.4h-1.621V37.3H132.6l.225,1.465h.078a3.765,3.765,0,0,1,1.455-1.27,4.423,4.423,0,0,1,1.9-.391,3.956,3.956,0,0,1,3.286,1.455,6.406,6.406,0,0,1,1.157,4.082,6.369,6.369,0,0,1-1.177,4.1A3.963,3.963,0,0,1,136.26,48.2Zm-.234-9.717a2.873,2.873,0,0,0-2.373.908,4.673,4.673,0,0,0-.752,2.891v.361a5.356,5.356,0,0,0,.752,3.228,2.86,2.86,0,0,0,2.412.972,2.508,2.508,0,0,0,2.173-1.123,5.325,5.325,0,0,0,.786-3.1,5.126,5.126,0,0,0-.786-3.071A2.586,2.586,0,0,0,136.025,38.479Zm9.033-1.182V44.24a2.793,2.793,0,0,0,.6,1.953,2.427,2.427,0,0,0,1.865.645,3.043,3.043,0,0,0,2.456-.918,4.631,4.631,0,0,0,.776-3V37.3h1.621V48h-1.338l-.234-1.436h-.088a3.231,3.231,0,0,1-1.382,1.211,4.644,4.644,0,0,1-2.017.42,4.091,4.091,0,0,1-2.925-.928,3.949,3.949,0,0,1-.972-2.969v-7Zm15.273,10.9a4.917,4.917,0,0,1-3.745-1.445,5.6,5.6,0,0,1-1.372-4.014,6.205,6.205,0,0,1,1.274-4.111,4.233,4.233,0,0,1,3.423-1.523,4.036,4.036,0,0,1,3.184,1.323,5.072,5.072,0,0,1,1.172,3.491v1.025h-7.373a4.243,4.243,0,0,0,.952,2.861,3.293,3.293,0,0,0,2.544.977,8.621,8.621,0,0,0,3.418-.723V47.5a8.579,8.579,0,0,1-1.626.532A9.138,9.138,0,0,1,160.332,48.2Zm-.439-9.736a2.647,2.647,0,0,0-2.056.84,3.871,3.871,0,0,0-.9,2.324h5.6a3.564,3.564,0,0,0-.684-2.349A2.406,2.406,0,0,0,159.893,38.459Zm14.043,6.621a2.681,2.681,0,0,1-1.113,2.3,5.233,5.233,0,0,1-3.125.811,6.8,6.8,0,0,1-3.32-.674v-1.5a8.03,8.03,0,0,0,1.655.615,6.912,6.912,0,0,0,1.7.225,3.864,3.864,0,0,0,1.953-.405,1.4,1.4,0,0,0,.142-2.3,8.526,8.526,0,0,0-2.114-1.05,11.465,11.465,0,0,1-2.124-.972,2.9,2.9,0,0,1-.937-.942,2.458,2.458,0,0,1-.308-1.26,2.4,2.4,0,0,1,1.064-2.065,4.96,4.96,0,0,1,2.92-.757,8.544,8.544,0,0,1,3.379.7l-.576,1.318a7.756,7.756,0,0,0-2.92-.664,3.359,3.359,0,0,0-1.738.361,1.117,1.117,0,0,0-.586,1,1.213,1.213,0,0,0,.22.732,2.168,2.168,0,0,0,.708.576,15.821,15.821,0,0,0,1.875.791,7,7,0,0,1,2.573,1.4A2.463,2.463,0,0,1,173.936,45.08Zm6.094,1.777a5.3,5.3,0,0,0,.83-.063,5.373,5.373,0,0,0,.635-.132V47.9a2.963,2.963,0,0,1-.776.21,5.83,5.83,0,0,1-.923.083q-3.105,0-3.105-3.271V38.557h-1.533v-.781l1.533-.674.684-2.285h.938V37.3h3.105v1.26h-3.105v6.3a2.167,2.167,0,0,0,.459,1.484A1.6,1.6,0,0,0,180.029,46.857Zm12.842-4.219a5.9,5.9,0,0,1-1.318,4.087,4.643,4.643,0,0,1-3.643,1.47,4.824,4.824,0,0,1-2.549-.674,4.447,4.447,0,0,1-1.719-1.934,6.739,6.739,0,0,1-.605-2.949,5.9,5.9,0,0,1,1.309-4.077,4.628,4.628,0,0,1,3.633-1.46,4.528,4.528,0,0,1,3.569,1.494A5.879,5.879,0,0,1,192.871,42.639Zm-8.154,0a5.08,5.08,0,0,0,.82,3.125,3.256,3.256,0,0,0,4.829,0,5.054,5.054,0,0,0,.825-3.13,4.973,4.973,0,0,0-.825-3.1,2.9,2.9,0,0,0-2.437-1.06,2.853,2.853,0,0,0-2.4,1.045A5.029,5.029,0,0,0,184.717,42.639Zm17.9,2.441a2.681,2.681,0,0,1-1.113,2.3,5.233,5.233,0,0,1-3.125.811,6.8,6.8,0,0,1-3.32-.674v-1.5a8.03,8.03,0,0,0,1.655.615,6.912,6.912,0,0,0,1.7.225,3.864,3.864,0,0,0,1.953-.405,1.4,1.4,0,0,0,.142-2.3A8.526,8.526,0,0,0,198.4,43.1a11.465,11.465,0,0,1-2.124-.972,2.9,2.9,0,0,1-.937-.942,2.458,2.458,0,0,1-.308-1.26,2.4,2.4,0,0,1,1.064-2.065,4.96,4.96,0,0,1,2.92-.757,8.544,8.544,0,0,1,3.379.7l-.576,1.318a7.756,7.756,0,0,0-2.92-.664,3.359,3.359,0,0,0-1.738.361,1.117,1.117,0,0,0-.586,1,1.213,1.213,0,0,0,.22.732,2.168,2.168,0,0,0,.708.576,15.821,15.821,0,0,0,1.875.791,7,7,0,0,1,2.573,1.4A2.463,2.463,0,0,1,202.617,45.08Zm2.4,1.885a1.455,1.455,0,0,1,.3-.991,1.08,1.08,0,0,1,.854-.337,1.155,1.155,0,0,1,.884.337,1.4,1.4,0,0,1,.317.991,1.37,1.37,0,0,1-.322.977,1.281,1.281,0,0,1-1.7.034A1.337,1.337,0,0,1,205.02,46.965Zm0-8.623q0-1.318,1.152-1.318,1.2,0,1.2,1.318a1.37,1.37,0,0,1-.322.977,1.281,1.281,0,0,1-1.7.034A1.337,1.337,0,0,1,205.02,38.342Z" transform="translate(469 2533)" fill="#00223d"/>
    <path id="Trazado_23918" data-name="Trazado 23918" d="M.957,13.7a3.308,3.308,0,0,1,.723-2.3,2.666,2.666,0,0,1,2.08-.8,2.664,2.664,0,0,1,2.07.8A3.283,3.283,0,0,1,6.563,13.7a3.291,3.291,0,0,1-.737,2.295A2.65,2.65,0,0,1,3.76,16.8a2.644,2.644,0,0,1-2.075-.811A3.319,3.319,0,0,1,.957,13.7ZM20.127,21,25.488,9.281H18.447V6.742H28.691V8.637L23.291,21Zm19.98,0h-9.98V18.9l3.584-3.623q1.592-1.631,2.08-2.261a4.972,4.972,0,0,0,.7-1.167,2.971,2.971,0,0,0,.215-1.113,1.622,1.622,0,0,0-.474-1.279,1.837,1.837,0,0,0-1.265-.42,3.637,3.637,0,0,0-1.611.381A8.316,8.316,0,0,0,31.729,10.5L30.088,8.559a10.7,10.7,0,0,1,1.748-1.27,6.417,6.417,0,0,1,1.514-.571,7.756,7.756,0,0,1,1.836-.2,5.436,5.436,0,0,1,2.363.488,3.77,3.77,0,0,1,1.592,1.367,3.632,3.632,0,0,1,.566,2.012,4.924,4.924,0,0,1-.347,1.851,7.105,7.105,0,0,1-1.074,1.772A26.262,26.262,0,0,1,35.723,16.6l-1.836,1.729v.137h6.221ZM.957,40.7a3.308,3.308,0,0,1,.723-2.3,2.666,2.666,0,0,1,2.08-.8,2.664,2.664,0,0,1,2.07.8A3.283,3.283,0,0,1,6.563,40.7a3.291,3.291,0,0,1-.737,2.295A2.65,2.65,0,0,1,3.76,43.8a2.644,2.644,0,0,1-2.075-.811A3.319,3.319,0,0,1,.957,40.7Zm27.676-.879q0,4.219-1.777,6.3a6.689,6.689,0,0,1-5.381,2.08,10.1,10.1,0,0,1-1.924-.137V45.637a7.062,7.062,0,0,0,1.719.205,6.036,6.036,0,0,0,2.49-.444A3.141,3.141,0,0,0,25.254,44a6.151,6.151,0,0,0,.6-2.622h-.117a3.337,3.337,0,0,1-1.309,1.289,4.131,4.131,0,0,1-1.855.371,3.75,3.75,0,0,1-2.939-1.2,4.8,4.8,0,0,1-1.074-3.325,4.965,4.965,0,0,1,1.3-3.628,4.737,4.737,0,0,1,3.55-1.333,5.111,5.111,0,0,1,2.769.742A4.764,4.764,0,0,1,28,36.452,8.153,8.153,0,0,1,28.633,39.816Zm-5.166-3.838A1.788,1.788,0,0,0,22,36.623a2.864,2.864,0,0,0-.527,1.855,2.576,2.576,0,0,0,.479,1.641,1.741,1.741,0,0,0,1.455.605,2.244,2.244,0,0,0,1.572-.6,1.829,1.829,0,0,0,.654-1.382,3.143,3.143,0,0,0-.61-1.963A1.878,1.878,0,0,0,23.467,35.979Zm6.563,5.957q0-4.238,1.792-6.309a6.713,6.713,0,0,1,5.366-2.07A9.737,9.737,0,0,1,39.1,33.7v2.412a7.821,7.821,0,0,0-1.719-.2,5.9,5.9,0,0,0-2.534.469,3.152,3.152,0,0,0-1.47,1.387,6.368,6.368,0,0,0-.576,2.607h.127a3.315,3.315,0,0,1,3.1-1.66,3.833,3.833,0,0,1,3,1.2,4.776,4.776,0,0,1,1.084,3.32,4.985,4.985,0,0,1-1.289,3.618A4.74,4.74,0,0,1,35.244,48.2a5.113,5.113,0,0,1-2.759-.732,4.757,4.757,0,0,1-1.816-2.139A8.144,8.144,0,0,1,30.029,41.936Zm5.156,3.848a1.787,1.787,0,0,0,1.484-.649,2.906,2.906,0,0,0,.518-1.851,2.554,2.554,0,0,0-.483-1.646,1.762,1.762,0,0,0-1.46-.6,2.237,2.237,0,0,0-1.567.6,1.83,1.83,0,0,0-.649,1.387,3.143,3.143,0,0,0,.61,1.963A1.869,1.869,0,0,0,35.186,45.783ZM.957,67.7a3.308,3.308,0,0,1,.723-2.3,2.666,2.666,0,0,1,2.08-.8,2.664,2.664,0,0,1,2.07.8,3.951,3.951,0,0,1,0,4.59A2.65,2.65,0,0,1,3.76,70.8a2.644,2.644,0,0,1-2.075-.811A3.319,3.319,0,0,1,.957,67.7ZM28.691,75h-9.98V72.9l3.584-3.623q1.592-1.631,2.08-2.261a4.972,4.972,0,0,0,.7-1.167,2.971,2.971,0,0,0,.215-1.113,1.622,1.622,0,0,0-.474-1.279,1.837,1.837,0,0,0-1.265-.42,3.637,3.637,0,0,0-1.611.381A8.316,8.316,0,0,0,20.313,64.5l-1.641-1.943a10.7,10.7,0,0,1,1.748-1.27,6.417,6.417,0,0,1,1.514-.571,7.756,7.756,0,0,1,1.836-.2,5.436,5.436,0,0,1,2.363.488,3.77,3.77,0,0,1,1.592,1.367,3.632,3.632,0,0,1,.566,2.012,4.924,4.924,0,0,1-.347,1.851,7.105,7.105,0,0,1-1.074,1.772A26.261,26.261,0,0,1,24.307,70.6l-1.836,1.729v.137h6.221Zm8.9,0H34.57V66.738l.029-1.357.049-1.484q-.752.752-1.045.986L31.963,66.2l-1.455-1.816,4.6-3.662h2.48Zm13.857-7.139A9.952,9.952,0,0,1,50.22,73.4a4.253,4.253,0,0,1-3.774,1.8A4.2,4.2,0,0,1,42.72,73.34a9.811,9.811,0,0,1-1.255-5.479,10.047,10.047,0,0,1,1.221-5.571,4.234,4.234,0,0,1,3.76-1.792,4.214,4.214,0,0,1,3.735,1.875A9.83,9.83,0,0,1,51.445,67.861Zm-6.982,0a11.108,11.108,0,0,0,.454,3.765,1.573,1.573,0,0,0,1.528,1.138,1.589,1.589,0,0,0,1.523-1.152,10.8,10.8,0,0,0,.469-3.75,10.769,10.769,0,0,0-.474-3.774,1.582,1.582,0,0,0-3.042,0A11.089,11.089,0,0,0,44.463,67.861ZM.957,94.7a3.308,3.308,0,0,1,.723-2.3,2.666,2.666,0,0,1,2.08-.8,2.664,2.664,0,0,1,2.07.8,3.951,3.951,0,0,1,0,4.59A2.65,2.65,0,0,1,3.76,97.8a2.644,2.644,0,0,1-2.075-.811A3.319,3.319,0,0,1,.957,94.7Zm22.676-7.158a5.408,5.408,0,0,1,3.306.933,2.972,2.972,0,0,1,1.255,2.515,3.286,3.286,0,0,1-.605,1.948,5.158,5.158,0,0,1-1.953,1.528,6.921,6.921,0,0,1,2.3,1.792,3.338,3.338,0,0,1,.7,2.046,3.4,3.4,0,0,1-1.377,2.827,5.744,5.744,0,0,1-3.623,1.069,6.045,6.045,0,0,1-3.682-1,3.311,3.311,0,0,1-1.338-2.822,3.742,3.742,0,0,1,.649-2.168,5.394,5.394,0,0,1,2.085-1.67,5.35,5.35,0,0,1-1.758-1.65,3.62,3.62,0,0,1-.537-1.924,2.953,2.953,0,0,1,1.27-2.48A5.4,5.4,0,0,1,23.633,87.537ZM21.406,98.2a1.582,1.582,0,0,0,.586,1.309,2.5,2.5,0,0,0,1.6.469,2.5,2.5,0,0,0,1.68-.483,1.606,1.606,0,0,0,.557-1.274A1.744,1.744,0,0,0,25.278,97a7.093,7.093,0,0,0-1.792-1.216Q21.406,96.736,21.406,98.2Zm2.207-8.457a1.879,1.879,0,0,0-1.245.4,1.31,1.31,0,0,0-.474,1.06,1.623,1.623,0,0,0,.376,1.05,4.133,4.133,0,0,0,1.362.952,3.814,3.814,0,0,0,1.338-.918,1.669,1.669,0,0,0,.381-1.084,1.29,1.29,0,0,0-.488-1.064A1.939,1.939,0,0,0,23.613,89.744Zm16.816,9.3H38.711V102H35.762V99.041H29.668v-2.1l6.26-9.219h2.783V96.7H40.43ZM35.762,96.7V94.275q0-.605.049-1.758t.078-1.338h-.078a10.891,10.891,0,0,1-.869,1.563L32.324,96.7Zm15.684-1.836A9.952,9.952,0,0,1,50.22,100.4a4.253,4.253,0,0,1-3.774,1.8,4.2,4.2,0,0,1-3.726-1.855,9.811,9.811,0,0,1-1.255-5.479,10.047,10.047,0,0,1,1.221-5.571,4.234,4.234,0,0,1,3.76-1.792,4.214,4.214,0,0,1,3.735,1.875A9.83,9.83,0,0,1,51.445,94.861Zm-6.982,0a11.108,11.108,0,0,0,.454,3.765,1.573,1.573,0,0,0,1.528,1.138,1.589,1.589,0,0,0,1.523-1.152,10.8,10.8,0,0,0,.469-3.75,10.769,10.769,0,0,0-.474-3.774,1.582,1.582,0,0,0-3.042,0A11.089,11.089,0,0,0,44.463,94.861ZM.957,121.7a3.308,3.308,0,0,1,.723-2.3,2.666,2.666,0,0,1,2.08-.8,2.664,2.664,0,0,1,2.07.8,3.951,3.951,0,0,1,0,4.59,2.65,2.65,0,0,1-2.065.811,2.644,2.644,0,0,1-2.075-.811A3.319,3.319,0,0,1,.957,121.7ZM28.691,129h-9.98v-2.1l3.584-3.623q1.592-1.631,2.08-2.261a4.972,4.972,0,0,0,.7-1.167,2.971,2.971,0,0,0,.215-1.113,1.622,1.622,0,0,0-.474-1.279,1.837,1.837,0,0,0-1.265-.42,3.637,3.637,0,0,0-1.611.381,8.316,8.316,0,0,0-1.631,1.084l-1.641-1.943a10.7,10.7,0,0,1,1.748-1.27,6.416,6.416,0,0,1,1.514-.571,7.756,7.756,0,0,1,1.836-.2,5.436,5.436,0,0,1,2.363.488,3.77,3.77,0,0,1,1.592,1.367,3.632,3.632,0,0,1,.566,2.012,4.924,4.924,0,0,1-.347,1.851,7.105,7.105,0,0,1-1.074,1.772,26.261,26.261,0,0,1-2.563,2.588l-1.836,1.729v.137h6.221Zm11.357-8.184q0,4.219-1.777,6.3a6.689,6.689,0,0,1-5.381,2.08,10.1,10.1,0,0,1-1.924-.137v-2.422a7.062,7.062,0,0,0,1.719.205,6.036,6.036,0,0,0,2.49-.444A3.141,3.141,0,0,0,36.67,125a6.151,6.151,0,0,0,.6-2.622h-.117a3.337,3.337,0,0,1-1.309,1.289,4.131,4.131,0,0,1-1.855.371,3.75,3.75,0,0,1-2.939-1.2,4.8,4.8,0,0,1-1.074-3.325,4.965,4.965,0,0,1,1.3-3.628,4.737,4.737,0,0,1,3.55-1.333,5.111,5.111,0,0,1,2.769.742,4.764,4.764,0,0,1,1.821,2.153A8.153,8.153,0,0,1,40.049,120.816Zm-5.166-3.838a1.788,1.788,0,0,0-1.465.645,2.864,2.864,0,0,0-.527,1.855,2.576,2.576,0,0,0,.479,1.641,1.741,1.741,0,0,0,1.455.605,2.244,2.244,0,0,0,1.572-.6,1.829,1.829,0,0,0,.654-1.382,3.143,3.143,0,0,0-.61-1.963A1.878,1.878,0,0,0,34.883,116.979Zm16.963,9.063H50.127V129H47.178v-2.959H41.084v-2.1l6.26-9.219h2.783V123.7h1.719ZM47.178,123.7v-2.422q0-.605.049-1.758t.078-1.338h-.078a10.891,10.891,0,0,1-.869,1.563L43.74,123.7Zm15.684-1.836a9.952,9.952,0,0,1-1.226,5.537,4.253,4.253,0,0,1-3.774,1.8,4.2,4.2,0,0,1-3.726-1.855,9.811,9.811,0,0,1-1.255-5.479A10.047,10.047,0,0,1,54.1,116.29a4.747,4.747,0,0,1,7.5.083A9.83,9.83,0,0,1,62.861,121.861Zm-6.982,0a11.108,11.108,0,0,0,.454,3.765,1.573,1.573,0,0,0,1.528,1.138,1.589,1.589,0,0,0,1.523-1.152,15.255,15.255,0,0,0,0-7.524,1.582,1.582,0,0,0-3.042,0A11.089,11.089,0,0,0,55.879,121.861Zm18.4,0a9.952,9.952,0,0,1-1.226,5.537,4.253,4.253,0,0,1-3.774,1.8,4.2,4.2,0,0,1-3.726-1.855,9.811,9.811,0,0,1-1.255-5.479,10.047,10.047,0,0,1,1.221-5.571,4.747,4.747,0,0,1,7.5.083A9.83,9.83,0,0,1,74.277,121.861Zm-6.982,0a11.108,11.108,0,0,0,.454,3.765,1.573,1.573,0,0,0,1.528,1.138,1.589,1.589,0,0,0,1.523-1.152,15.255,15.255,0,0,0,0-7.524,1.582,1.582,0,0,0-3.042,0A11.088,11.088,0,0,0,67.295,121.861ZM.957,148.7a3.308,3.308,0,0,1,.723-2.3,2.666,2.666,0,0,1,2.08-.8,2.664,2.664,0,0,1,2.07.8,3.951,3.951,0,0,1,0,4.59,2.65,2.65,0,0,1-2.065.811,2.644,2.644,0,0,1-2.075-.811A3.319,3.319,0,0,1,.957,148.7Zm27.178-3.779a3.36,3.36,0,0,1-.811,2.275,4.2,4.2,0,0,1-2.275,1.289v.059a4.547,4.547,0,0,1,2.617,1.05,2.941,2.941,0,0,1,.889,2.251,3.814,3.814,0,0,1-1.494,3.208,6.887,6.887,0,0,1-4.268,1.147,10.362,10.362,0,0,1-4.121-.771v-2.568a9.314,9.314,0,0,0,1.826.684,7.685,7.685,0,0,0,1.973.264,3.836,3.836,0,0,0,2.207-.508,1.864,1.864,0,0,0,.713-1.631,1.473,1.473,0,0,0-.82-1.426,6.069,6.069,0,0,0-2.617-.42H20.869V147.5h1.1a5.132,5.132,0,0,0,2.427-.435,1.569,1.569,0,0,0,.767-1.489q0-1.621-2.031-1.621a4.649,4.649,0,0,0-1.431.234,6.989,6.989,0,0,0-1.616.811l-1.4-2.08a7.759,7.759,0,0,1,4.658-1.406,6.015,6.015,0,0,1,3.5.9A2.881,2.881,0,0,1,28.135,144.916Zm11.895,3.945A9.952,9.952,0,0,1,38.8,154.4a4.253,4.253,0,0,1-3.774,1.8A4.2,4.2,0,0,1,31.3,154.34a9.811,9.811,0,0,1-1.255-5.479,10.047,10.047,0,0,1,1.221-5.571,4.234,4.234,0,0,1,3.76-1.792,4.214,4.214,0,0,1,3.735,1.875A9.83,9.83,0,0,1,40.029,148.861Zm-6.982,0a11.108,11.108,0,0,0,.454,3.765,1.573,1.573,0,0,0,1.528,1.138,1.589,1.589,0,0,0,1.523-1.152,15.255,15.255,0,0,0,0-7.524,1.582,1.582,0,0,0-3.042,0A11.089,11.089,0,0,0,33.047,148.861Zm18.4,0A9.952,9.952,0,0,1,50.22,154.4a4.253,4.253,0,0,1-3.774,1.8,4.2,4.2,0,0,1-3.726-1.855,9.811,9.811,0,0,1-1.255-5.479,10.047,10.047,0,0,1,1.221-5.571,4.234,4.234,0,0,1,3.76-1.792,4.214,4.214,0,0,1,3.735,1.875A9.83,9.83,0,0,1,51.445,148.861Zm-6.982,0a11.108,11.108,0,0,0,.454,3.765,1.573,1.573,0,0,0,1.528,1.138,1.589,1.589,0,0,0,1.523-1.152,15.255,15.255,0,0,0,0-7.524,1.582,1.582,0,0,0-3.042,0A11.089,11.089,0,0,0,44.463,148.861Zm17.92-3.945a3.36,3.36,0,0,1-.811,2.275A4.2,4.2,0,0,1,59.3,148.48v.059a4.547,4.547,0,0,1,2.617,1.05,2.941,2.941,0,0,1,.889,2.251,3.814,3.814,0,0,1-1.494,3.208,6.887,6.887,0,0,1-4.268,1.147,10.362,10.362,0,0,1-4.121-.771v-2.568a9.314,9.314,0,0,0,1.826.684,7.685,7.685,0,0,0,1.973.264,3.836,3.836,0,0,0,2.207-.508,1.864,1.864,0,0,0,.713-1.631,1.473,1.473,0,0,0-.82-1.426,6.069,6.069,0,0,0-2.617-.42H55.117V147.5h1.1a5.132,5.132,0,0,0,2.427-.435,1.569,1.569,0,0,0,.767-1.489q0-1.621-2.031-1.621a4.649,4.649,0,0,0-1.431.234,6.989,6.989,0,0,0-1.616.811l-1.4-2.08a7.759,7.759,0,0,1,4.658-1.406,6.015,6.015,0,0,1,3.5.9A2.881,2.881,0,0,1,62.383,144.916Zm11.895,3.945a9.952,9.952,0,0,1-1.226,5.537,4.253,4.253,0,0,1-3.774,1.8,4.2,4.2,0,0,1-3.726-1.855,9.811,9.811,0,0,1-1.255-5.479,10.047,10.047,0,0,1,1.221-5.571,4.747,4.747,0,0,1,7.5.083A9.83,9.83,0,0,1,74.277,148.861Zm-6.982,0a11.108,11.108,0,0,0,.454,3.765,1.573,1.573,0,0,0,1.528,1.138,1.589,1.589,0,0,0,1.523-1.152,15.255,15.255,0,0,0,0-7.524,1.582,1.582,0,0,0-3.042,0A11.088,11.088,0,0,0,67.295,148.861Z" transform="translate(469 2605)" fill="#00223d"/>
    <path id="Trazado_23511" data-name="Trazado 23511" d="M2352.739,121.012a7.877,7.877,0,1,1,15.745-.095q.023,27.6,0,55.2c0,.23-.021.461-.039.8-5.232-3.727-10.375-3.792-15.615-.013-.034-.35-.089-.647-.089-.945Q2352.731,148.488,2352.739,121.012Z" transform="translate(-1934.673 2344.188)" fill="#bcbec0"/>
    <path id="Trazado_23512" data-name="Trazado 23512" d="M2065.311,176.091q0-27.464-.006-54.928a7.876,7.876,0,1,1,15.743-.289c.046,6.515.011,13.031.011,19.546q0,14.1,0,28.206c0,.549.171,1.148-.626,1.408-.726.238-1.328.748-2.132.024a39.377,39.377,0,0,0-3.24-2.477,2.037,2.037,0,0,0-3.077.229c-1.593,1.556-3.12,3.18-4.741,4.705-1.144,1.076-1.788,2.175-.72,3.682l-1.209.882Z" transform="translate(-1742.296 2344.128)" fill="#bcbec0"/>
    <path id="Trazado_23513" data-name="Trazado 23513" d="M2112.736,299.564c.035.258-.42.778-.726.85a27.668,27.668,0,0,1-3.285.513,2.778,2.778,0,0,0-2.672,2.141,39.53,39.53,0,0,1-1.6,3.872c-.863,1.95,1.731,5.265,2.4,6.073a1.016,1.016,0,0,1-.144,1.312,21.742,21.742,0,0,1-2.032,1.7c-.761.563-1.208-.058-1.6-.324-3.14-2.168-4.161-2.612-5.361-2.106-1.723.76-3.261,1.314-4.8,2.125-.6.317-.908,1.385-1.131,2.172a16.155,16.155,0,0,0-.465,3.04c-.067.783-.391,1.03-1.171,1.043-2.962.051-2.963.077-3.453-2.813-.075-.445-.147-.892-.2-1.341a2.622,2.622,0,0,0-2.1-2.565,13.957,13.957,0,0,1-1.638-.55c-4.266-1.6-4.673-.937-4.673-.937l-3.916,2.792-3.152-3.086c.827-1.1,1.616-2.2,2.459-3.256a2.785,2.785,0,0,0,.265-3.411,26.7,26.7,0,0,1-1.432-2.828h0c-1.239-2.447-4.095-3.119-5.264-3.3a2.647,2.647,0,0,1-.514-.059h0a2.164,2.164,0,0,1-.695-.274.847.847,0,0,1-.343-.592,20.934,20.934,0,0,1,.018-2.839,1.126,1.126,0,0,1,.745-.725,32.4,32.4,0,0,1,3.282-.506,2.785,2.785,0,0,0,2.662-2.151,24.583,24.583,0,0,1,1.619-3.857,2.644,2.644,0,0,0-.213-3.1c-.882-1.128-1.722-2.29-2.59-3.451l3.036-2.852c1.058.791,2.219,1.631,3.349,2.512a2.644,2.644,0,0,0,3.1.209,24.578,24.578,0,0,1,3.857-1.617,2.778,2.778,0,0,0,2.146-2.665c.1-.979.348-1.946.4-2.925.053-1.021.585-1.237,1.454-1.143.326.035.669-.045.986.017.632.123,1.662.148,1.8.5a5.228,5.228,0,0,1,.3.983h0c.785,4.7,2.2,5.1,2.2,5.1l0,.007a2.927,2.927,0,0,1,.555.194c1.151.539,2.372.938,3.5,1.524a2.668,2.668,0,0,0,3.2-.211c.9-.719,1.854-1.371,2.749-2.1a.821.821,0,0,1,1.34.118c.686.76,1.451,1.448,2.157,2.141a17.058,17.058,0,0,1-2.37,3.4h0a2.494,2.494,0,0,0-.457,2.376l.8,2.213.018-.018c.365,1.017.733,1.822.939,2.668a2.643,2.643,0,0,0,2.552,2.116c1.059.131,2.113.3,3.17.457.163.024.382-.014.481.079C2113.326,297.192,2112.584,298.447,2112.736,299.564Z" transform="translate(-1742.402 2235.885)" fill="#ff9811"/>
    <path id="Trazado_23514" data-name="Trazado 23514" d="M2208.33,214.082q-24.751.032-49.5,0h-1.82v-5.91h7.414c4.35,0,4.363-.013,4.364-4.3V202.32h5.916c0,1.124-.011,2.3,0,3.476.02,1.632.721,2.367,2.323,2.374q5.63.025,11.262,0a2.015,2.015,0,0,0,2.274-2.3q.026-5.631,0-11.261a2.012,2.012,0,0,0-2.273-2.3q-5.692-.03-11.385-.006a1.993,1.993,0,0,0-2.205,2.237c-.023,1.187,0,2.375,0,3.632h-5.909c0-.938,0-1.87,0-2.8,0-2.592-.487-3.068-3.123-3.068h-2.754v-5.915h2.315c3.258,0,3.561-.309,3.562-3.622v-2.256h5.916c0,1.156-.009,2.3,0,3.434.016,1.708.709,2.433,2.384,2.439q5.569.02,11.138,0c1.608-.007,2.333-.738,2.339-2.358q.022-5.569,0-11.138c-.006-1.625-.727-2.34-2.334-2.362-1.148-.017-2.3,0-3.6,0V164.61c1.222,0,2.4.013,3.577,0,1.62-.021,2.352-.731,2.359-2.34q.024-5.569,0-11.138c-.006-1.637-.718-2.373-2.315-2.381q-5.631-.026-11.262,0a2.014,2.014,0,0,0-2.286,2.277c-.016,1.154,0,2.308,0,3.562h-5.913c0-1.189.018-2.372,0-3.555a2.02,2.02,0,0,0-2.292-2.279q-5.631-.026-11.262,0c-1.6.006-2.288.731-2.309,2.377-.014,1.072-.014,2.145-.026,3.217a1.459,1.459,0,0,1-.142.343H2147c0-1.274.018-2.455,0-3.635-.03-1.553-.743-2.291-2.272-2.3q-5.693-.028-11.386,0a1.976,1.976,0,0,0-2.2,2.237q-.028,5.693,0,11.385a1.983,1.983,0,0,0,2.213,2.229q5.755.036,11.509,0a1.974,1.974,0,0,0,2.131-2.188c.028-1.19.006-2.382.006-3.657h5.917c0,1.123-.011,2.3,0,3.475.02,1.633.718,2.368,2.322,2.375q5.63.026,11.261,0a2.024,2.024,0,0,0,2.277-2.3c.02-1.151,0-2.3,0-3.546h5.917c0,1.2-.017,2.387,0,3.572a2.033,2.033,0,0,0,2.3,2.275c1.113.023,2.226.027,3.34.042a1.106,1.106,0,0,1,.2.071v5.8h-3.218c-1.995,0-2.638.654-2.635,2.683,0,1.027,0,2.055,0,3.173h-5.911c0-1.18.011-2.324,0-3.469-.021-1.634-.721-2.368-2.322-2.376q-5.631-.026-11.262,0a2.008,2.008,0,0,0-2.28,2.282q-.019,5.631,0,11.262c.008,1.6.742,2.3,2.377,2.32,1.144.015,2.288,0,3.493,0V192.3c-1.083,0-2.142,0-3.2,0-2.027,0-2.68.64-2.681,2.637q0,4.269-.011,8.539a1.42,1.42,0,0,1-.084.3,4.531,4.531,0,0,1-.548,0c-2.278-.271-3.085-.991-3.509-3.239a1.491,1.491,0,0,1,.326-.983c.814-1.14,1.694-2.233,2.51-3.371a2.021,2.021,0,0,0-.225-3.074q-2.56-2.6-5.167-5.158a2.015,2.015,0,0,0-3.071-.225c-1.1.8-2.208,1.6-3.257,2.46a1.565,1.565,0,0,1-1.671.186,3.246,3.246,0,0,1-2.732-3.573,13.121,13.121,0,0,0-.348-2.444,2.015,2.015,0,0,0-2.266-1.94c-2.5-.019-5.01-.005-7.577-.005v-39.5h71.2v61.644c0,.248,0,.5,0,.743,0,1.917.63,2.841,1.948,2.871,1.254.028,1.889-.79,2.062-2.659a7.909,7.909,0,1,1,7.835,8.574Z" transform="translate(-1782.439 2324.05)" fill="#e6e7e8"/>
    <path id="Trazado_23515" data-name="Trazado 23515" d="M2221.365,312.328V304.68H2229v7.648Z" transform="translate(-1846.748 2215.775)" fill="#5aaae7"/>
    <path id="Trazado_23516" data-name="Trazado 23516" d="M2287.179,312.436v-7.681h7.675c0,2.4.018,4.767-.034,7.133,0,.188-.483.519-.745.523C2291.819,312.454,2289.563,312.436,2287.179,312.436Z" transform="translate(-1890.798 2215.725)" fill="#00ccb3"/>
    <path id="Trazado_23517" data-name="Trazado 23517" d="M2221.311,246.421v-7.692h7.624v7.692Z" transform="translate(-1846.712 2259.917)" fill="#5aaae7"/>
    <path id="Trazado_23518" data-name="Trazado 23518" d="M2287.179,246.511v-7.694h7.6v7.694Z" transform="translate(-1890.798 2259.857)" fill="#5aaae7"/>
    <path id="Trazado_23519" data-name="Trazado 23519" d="M2287.228,180.67v-7.675h7.637v7.675Z" transform="translate(-1890.83 2303.913)" fill="#5aaae7"/>
    <path id="Trazado_23520" data-name="Trazado 23520" d="M2228.918,172.9v7.648h-7.654V172.9Z" transform="translate(-1846.682 2303.975)" fill="#5aaae7"/>
    <path id="Trazado_23521" data-name="Trazado 23521" d="M2163.1,172.976v7.644h-7.637v-7.644Z" transform="translate(-1802.643 2303.926)" fill="#ffd422"/>
    <g id="Grupo_14190" data-name="Grupo 14190" transform="translate(319 2453)">
      <path id="Trazado_23522" data-name="Trazado 23522" d="M2111.542,333.983a12.369,12.369,0,0,0,1.278-.024l1-.109a11.769,11.769,0,0,0,9.7-8.518,14.175,14.175,0,0,0,.325-3.634h0c0-.467,0-.934.014-1.4a10.609,10.609,0,0,0-1.683-5.021,12.235,12.235,0,0,0-11.719-5.316,13.856,13.856,0,0,0-6.721,3c-3.474,3.06-6.727,10.569-.784,16.942A13.006,13.006,0,0,0,2111.542,333.983Zm.43-19.929a7.848,7.848,0,1,1-7.809,7.829A7.93,7.93,0,0,1,2111.972,314.055Z" transform="translate(-2084.289 -240.715)"/>
      <path id="Trazado_23523" data-name="Trazado 23523" d="M2172.005,166.039q0-26.672-.011-53.343a11.806,11.806,0,0,0-7.788-11.254,11.538,11.538,0,0,0-13.088,3.5,39.78,39.78,0,0,0-3.159,5.61h-71.154c-.128-.459-.24-.891-.369-1.319a11.878,11.878,0,0,0-23.246,3.7q-.021,30.384-.008,60.769c0,3.919-.006,7.839.007,11.758a2.061,2.061,0,0,0,2.076,2.392,13.515,13.515,0,0,0,2.324.318c1.983-.065,3.038.866,3.56,2.74a1.662,1.662,0,0,1-.242,1.769c-.888,1.083-1.7,2.232-2.528,3.361a1.9,1.9,0,0,0,.168,2.688q2.723,2.789,5.508,5.519a1.9,1.9,0,0,0,2.686.194,14.454,14.454,0,0,0,1.968-1.494c1.4-1.444,2.839-1.8,4.657-.7a1.694,1.694,0,0,1,1.023,1.334c.175,1.39.373,2.778.581,4.164a1.96,1.96,0,0,0,2.088,1.86c2.558.022,5.116.018,7.673,0a1.973,1.973,0,0,0,2.111-1.837,13.319,13.319,0,0,0,.352-2.568c-.068-2,.877-3.025,2.744-3.551a1.677,1.677,0,0,1,1.771.258c1.023.832,2.095,1.606,3.163,2.38a2,2,0,0,0,3.069-.223q2.607-2.557,5.16-5.166c1.025-1.047,1.061-1.857.183-3.071a31.532,31.532,0,0,0-2.244-2.953c-.776-.843-.543-1.543-.154-2.44s1.083-.6,1.672-.605q28.59-.026,57.18-.024A11.863,11.863,0,0,0,2172,177.55C2172.016,173.713,2172.005,169.876,2172.005,166.039Zm-19.758-53.14a7.877,7.877,0,1,1,15.745-.095q.023,27.6,0,55.2c0,.23-.021.461-.039.8-5.232-3.727-10.375-3.792-15.615-.013-.034-.35-.089-.647-.089-.945Q2152.24,140.376,2152.247,112.9Zm-95.05,55.019q0-27.464-.006-54.928a7.876,7.876,0,1,1,15.743-.289c.046,6.515.011,13.031.011,19.546q0,14.1,0,28.206c0,.549.171,1.148-.626,1.408-.726.238-1.328.748-2.132.024a39.339,39.339,0,0,0-3.24-2.477,2.037,2.037,0,0,0-3.077.229c-1.593,1.556-3.12,3.18-4.741,4.705-1.143,1.076-1.788,2.175-.72,3.682l-1.209.882Zm3.022,6.845c-.277.558-1.573.611-2.48.746a7.113,7.113,0,0,1,3.323-4.366C2061.754,172.685,2060.715,173.763,2060.22,174.764Zm44.295,8.383c.035.258-.42.778-.726.85a27.659,27.659,0,0,1-3.285.513,2.779,2.779,0,0,0-2.672,2.141,39.532,39.532,0,0,1-1.6,3.872c-.863,1.95,1.731,5.265,2.4,6.073a1.016,1.016,0,0,1-.144,1.312,21.737,21.737,0,0,1-2.032,1.7c-.761.563-1.208-.058-1.6-.324-3.14-2.168-4.161-2.612-5.361-2.106-1.723.76-3.261,1.314-4.8,2.125-.6.317-.908,1.385-1.131,2.172a16.155,16.155,0,0,0-.465,3.04c-.067.783-.391,1.03-1.171,1.043-2.962.051-2.963.077-3.453-2.813-.075-.445-.147-.892-.2-1.341a2.622,2.622,0,0,0-2.1-2.565,13.957,13.957,0,0,1-1.638-.55c-4.266-1.6-4.673-.937-4.673-.937l-3.916,2.792-3.152-3.086c.827-1.1,1.616-2.2,2.459-3.256a2.785,2.785,0,0,0,.265-3.411,26.7,26.7,0,0,1-1.432-2.828h0c-1.239-2.447-4.095-3.119-5.264-3.3a2.647,2.647,0,0,1-.514-.059h0a2.164,2.164,0,0,1-.695-.274.847.847,0,0,1-.343-.592,20.933,20.933,0,0,1,.018-2.839,1.126,1.126,0,0,1,.745-.725,32.4,32.4,0,0,1,3.282-.506,2.785,2.785,0,0,0,2.662-2.151,24.583,24.583,0,0,1,1.619-3.857,2.644,2.644,0,0,0-.213-3.1c-.882-1.128-1.722-2.29-2.59-3.451l3.036-2.852c1.058.791,2.219,1.631,3.349,2.512a2.644,2.644,0,0,0,3.1.209,24.579,24.579,0,0,1,3.857-1.617,2.778,2.778,0,0,0,2.146-2.665c.1-.979.348-1.946.4-2.925.053-1.021.585-1.237,1.454-1.143.326.035.669-.045.986.017.632.123,1.662.148,1.8.5a5.229,5.229,0,0,1,.3.983h0c.785,4.7,2.2,5.1,2.2,5.1l0,.007a2.927,2.927,0,0,1,.555.194c1.151.539,2.372.938,3.5,1.524a2.668,2.668,0,0,0,3.2-.211c.9-.719,1.854-1.371,2.749-2.1a.821.821,0,0,1,1.34.118c.686.76,1.451,1.448,2.157,2.141a17.058,17.058,0,0,1-2.37,3.4h0a2.494,2.494,0,0,0-.457,2.376l.8,2.213.018-.018c.365,1.017.733,1.822.939,2.668a2.643,2.643,0,0,0,2.552,2.116c1.059.131,2.113.3,3.17.457.163.024.382-.014.481.079C2105.1,180.775,2104.363,182.031,2104.514,183.147Zm55.557,2.684q-24.751.032-49.5,0h-1.82v-5.91h7.414c4.35,0,4.363-.013,4.364-4.3v-1.553h5.916c0,1.124-.012,2.3,0,3.476.02,1.632.721,2.367,2.322,2.374q5.631.025,11.262,0a2.015,2.015,0,0,0,2.274-2.3q.025-5.631,0-11.261a2.012,2.012,0,0,0-2.273-2.3q-5.692-.03-11.385-.006a1.994,1.994,0,0,0-2.205,2.237c-.022,1.187,0,2.375,0,3.632h-5.909c0-.938,0-1.87,0-2.8,0-2.592-.487-3.068-3.123-3.068h-2.754v-5.915h2.315c3.258,0,3.561-.309,3.562-3.622v-2.256h5.915c0,1.156-.009,2.3,0,3.434.016,1.708.709,2.433,2.384,2.439q5.569.02,11.138,0c1.608-.007,2.333-.738,2.339-2.359q.022-5.569,0-11.138c-.006-1.625-.727-2.34-2.335-2.362-1.148-.017-2.3,0-3.6,0v-5.916c1.222,0,2.4.013,3.577,0,1.619-.021,2.352-.732,2.358-2.34q.024-5.569,0-11.138c-.006-1.637-.718-2.373-2.315-2.381q-5.631-.026-11.262,0a2.014,2.014,0,0,0-2.286,2.276c-.015,1.154,0,2.308,0,3.562h-5.913c0-1.189.018-2.372,0-3.555a2.021,2.021,0,0,0-2.292-2.279q-5.631-.026-11.262,0c-1.6.006-2.288.731-2.309,2.377-.013,1.072-.013,2.145-.026,3.217a1.447,1.447,0,0,1-.142.343h-5.748c0-1.273.018-2.455,0-3.635-.03-1.553-.743-2.291-2.272-2.3q-5.692-.028-11.385,0a1.975,1.975,0,0,0-2.2,2.237q-.029,5.693,0,11.385a1.983,1.983,0,0,0,2.213,2.229q5.755.036,11.509,0a1.974,1.974,0,0,0,2.131-2.188c.028-1.19.006-2.382.006-3.657h5.917c0,1.123-.011,2.3,0,3.475.019,1.633.718,2.368,2.322,2.375q5.63.026,11.261,0a2.024,2.024,0,0,0,2.277-2.3c.019-1.151,0-2.3,0-3.546h5.917c0,1.2-.017,2.387,0,3.571a2.034,2.034,0,0,0,2.3,2.275c1.113.023,2.226.027,3.34.042a1.1,1.1,0,0,1,.2.071v5.8h-3.219c-1.995,0-2.638.654-2.635,2.683,0,1.027,0,2.055,0,3.173h-5.911c0-1.18.012-2.324,0-3.469-.021-1.634-.721-2.368-2.322-2.376q-5.631-.026-11.262,0a2.007,2.007,0,0,0-2.28,2.282q-.019,5.631,0,11.262c.008,1.6.742,2.3,2.377,2.32,1.144.015,2.288,0,3.493,0v5.911c-1.083,0-2.141,0-3.2,0-2.028,0-2.681.64-2.681,2.637q0,4.269-.011,8.539a1.431,1.431,0,0,1-.084.3,4.53,4.53,0,0,1-.548,0c-2.278-.272-3.085-.991-3.51-3.239a1.493,1.493,0,0,1,.326-.983c.814-1.14,1.694-2.233,2.51-3.371a2.021,2.021,0,0,0-.225-3.074q-2.559-2.6-5.167-5.158a2.016,2.016,0,0,0-3.071-.225c-1.1.8-2.208,1.6-3.257,2.46a1.565,1.565,0,0,1-1.671.186,3.246,3.246,0,0,1-2.733-3.573,13.121,13.121,0,0,0-.348-2.444,2.014,2.014,0,0,0-2.266-1.94c-2.505-.019-5.011-.005-7.577-.005v-39.5h71.2V176.3q0,.372,0,.743c0,1.917.63,2.841,1.948,2.871,1.254.028,1.889-.79,2.062-2.659a7.909,7.909,0,1,1,7.835,8.574ZM2108.8,175.8v-7.648h7.632V175.8Zm21.764.058v-7.681h7.675c0,2.4.018,4.767-.034,7.133,0,.188-.483.519-.745.523C2135.2,175.878,2132.947,175.86,2130.563,175.86Zm-21.782-21.823v-7.692h7.624v7.692Zm21.782.031v-7.694h7.6v7.694Zm.016-21.785v-7.675h7.637v7.675Zm-14.16-7.705v7.648h-7.654v-7.648Zm-21.775.024v7.644h-7.637V124.6Z" transform="translate(-2053.181 -100.699)"/>
    </g>
    <path id="Trazado_23524" data-name="Trazado 23524" d="M2121.089,322.475a7.848,7.848,0,1,1-7.808,7.828A7.93,7.93,0,0,1,2121.089,322.475Z" transform="translate(-1774.407 2203.865)" fill="#ffd422"/>
    <path id="Trazado_23525" data-name="Trazado 23525" d="M2069.445,317.341c-.276.558-1.573.611-2.48.746a7.113,7.113,0,0,1,3.323-4.366C2070.979,315.261,2069.941,316.34,2069.445,317.341Z" transform="translate(-1743.407 2209.724)" fill="#e6e7e8"/>
  </g>
</svg>
