<svg xmlns="http://www.w3.org/2000/svg" width="740" height="318" viewBox="0 0 740 318">
  <g id="Grupo_14473" data-name="Grupo 14473" transform="translate(-330 -2501)">
    <path id="Trazado_23916" data-name="Trazado 23916" d="M0,0H740V318H0Z" transform="translate(330 2501)" fill="#d5f4fc"/>
    <path id="Trazado_23917" data-name="Trazado 23917" d="M-26.564-3.514h8.422V0H-32.074V-2.967l7.861-8.025A4.947,4.947,0,0,0-22.5-14.4a2.408,2.408,0,0,0-.7-1.832A2.772,2.772,0,0,0-25.2-16.9q-2.8,0-2.8,3.186v1.463l-3.924-.4v-.984a6.161,6.161,0,0,1,1.8-4.751,6.912,6.912,0,0,1,4.895-1.675,7.24,7.24,0,0,1,4.765,1.518,5.115,5.115,0,0,1,1.839,4.17,5.913,5.913,0,0,1-.622,2.707,11.315,11.315,0,0,1-1.976,2.639ZM-.711-7.26v3.514H-3.09V0H-7.027V-3.746h-9.092V-7.273l7-12.482H-3.09v12.5Zm-11.758,0h5.441V-17.391Zm-13.152,23.5h3.746V36H-25.8V20.291l-4.539,4.225V20.469ZM-9.844,32.486h8.422V36H-15.354V33.033l7.861-8.025a4.947,4.947,0,0,0,1.709-3.4,2.408,2.408,0,0,0-.7-1.832,2.772,2.772,0,0,0-1.989-.67q-2.8,0-2.8,3.186V23.75l-3.924-.4v-.984a6.161,6.161,0,0,1,1.8-4.751A6.912,6.912,0,0,1-8.5,15.943a7.24,7.24,0,0,1,4.765,1.518A5.115,5.115,0,0,1-1.9,21.631a5.913,5.913,0,0,1-.622,2.707A11.315,11.315,0,0,1-4.5,26.977Zm8.75,32.883a6.441,6.441,0,0,1-.581,2.775,6.549,6.549,0,0,1-1.6,2.194,7.532,7.532,0,0,1-2.345,1.408,7.776,7.776,0,0,1-2.8.513,7.76,7.76,0,0,1-2.851-.526,7.02,7.02,0,0,1-2.311-1.442A6.7,6.7,0,0,1-15.107,68.1a6.684,6.684,0,0,1-.561-2.714,8.211,8.211,0,0,1,1.75-4.826l6.152-8.312h4.471L-8.422,58.93a6.661,6.661,0,0,1,.9-.055,6.44,6.44,0,0,1,2.427.465,6.571,6.571,0,0,1,2.044,1.292,5.978,5.978,0,0,1,1.415,2.058A6.911,6.911,0,0,1-1.094,65.369Zm-3.855-.1a3.375,3.375,0,0,0-.957-2.55,3.481,3.481,0,0,0-2.584-.991,3.337,3.337,0,0,0-2.5,1,3.525,3.525,0,0,0-1,2.488,3.381,3.381,0,0,0,.916,2.536,3.4,3.4,0,0,0,2.543.964,3.561,3.561,0,0,0,2.57-.957A3.336,3.336,0,0,0-4.949,65.273Zm-3.445,43q-3.691,0-5.387-1.8t-1.7-5.523l4.033-.178a14.282,14.282,0,0,0,.062,1.449,5.009,5.009,0,0,0,.246,1.121,2.006,2.006,0,0,0,.52.841,2.361,2.361,0,0,0,.889.485,4.391,4.391,0,0,0,1.333.178,3.2,3.2,0,0,0,2.331-.793,2.772,2.772,0,0,0,.813-2.078,2.794,2.794,0,0,0-.779-2.14A2.933,2.933,0,0,0-8.121,99.1h-.766V96.037h.711a2.138,2.138,0,0,0,1.634-.7,2.486,2.486,0,0,0,.649-1.764A1.987,1.987,0,0,0-6.6,91.936a2.89,2.89,0,0,0-1.873-.574,2.807,2.807,0,0,0-1.066.185,1.989,1.989,0,0,0-.718.472,2.086,2.086,0,0,0-.424.725,3.808,3.808,0,0,0-.205.861,8.6,8.6,0,0,0-.048.957l-3.979-.191a6.324,6.324,0,0,1,1.7-4.751,6.464,6.464,0,0,1,4.7-1.647,6.723,6.723,0,0,1,4.512,1.511,4.731,4.731,0,0,1,1.777,3.753,4.271,4.271,0,0,1-.759,2.543,4.344,4.344,0,0,1-1.729,1.5,4.868,4.868,0,0,1,1.258.561,5.156,5.156,0,0,1,1.1.943,4.21,4.21,0,0,1,.813,1.436,5.776,5.776,0,0,1,.3,1.914A5.583,5.583,0,0,1-3.2,106.6,7.712,7.712,0,0,1-8.395,108.273ZM-8.9,124.244h3.746V144H-9.078V128.291l-4.539,4.225v-4.047Zm-2.9,50.123v-3.295H-2v3.295Z" transform="translate(504 2584)" fill="#002b45"/>
    <path id="Trazado_23508" data-name="Trazado 23508" d="M0,0V198.922" transform="translate(520.409 2562.36)" fill="none" stroke="blue" stroke-width="3.666"/>
    <path id="Trazado_23918" data-name="Trazado 23918" d="M6.877-3.514H15.3V0H1.367V-2.967l7.861-8.025a4.947,4.947,0,0,0,1.709-3.4,2.408,2.408,0,0,0-.7-1.832,2.772,2.772,0,0,0-1.989-.67q-2.8,0-2.8,3.186v1.463l-3.924-.4v-.984a6.161,6.161,0,0,1,1.8-4.751,6.912,6.912,0,0,1,4.895-1.675,7.24,7.24,0,0,1,4.765,1.518,5.115,5.115,0,0,1,1.839,4.17,5.913,5.913,0,0,1-.622,2.707,11.315,11.315,0,0,1-1.976,2.639Zm0,36H15.3V36H1.367V33.033l7.861-8.025a4.947,4.947,0,0,0,1.709-3.4,2.408,2.408,0,0,0-.7-1.832,2.772,2.772,0,0,0-1.989-.67q-2.8,0-2.8,3.186V23.75l-3.924-.4v-.984a6.161,6.161,0,0,1,1.8-4.751,6.912,6.912,0,0,1,4.895-1.675,7.24,7.24,0,0,1,4.765,1.518,5.115,5.115,0,0,1,1.839,4.17,5.913,5.913,0,0,1-.622,2.707,11.315,11.315,0,0,1-1.976,2.639Zm0,36H15.3V72H1.367V69.033l7.861-8.025a4.947,4.947,0,0,0,1.709-3.4,2.408,2.408,0,0,0-.7-1.832,2.772,2.772,0,0,0-1.989-.67q-2.8,0-2.8,3.186V59.75l-3.924-.4v-.984a6.161,6.161,0,0,1,1.8-4.751,6.912,6.912,0,0,1,4.895-1.675,7.24,7.24,0,0,1,4.765,1.518,5.115,5.115,0,0,1,1.839,4.17,5.913,5.913,0,0,1-.622,2.707,11.315,11.315,0,0,1-1.976,2.639Zm1.449,39.787q-3.691,0-5.387-1.8t-1.7-5.523l4.033-.178a14.282,14.282,0,0,0,.062,1.449,5.009,5.009,0,0,0,.246,1.121,2.006,2.006,0,0,0,.52.841,2.361,2.361,0,0,0,.889.485,4.391,4.391,0,0,0,1.333.178,3.2,3.2,0,0,0,2.331-.793,3.19,3.19,0,0,0,.034-4.218A2.933,2.933,0,0,0,8.6,99.1H7.834V96.037h.711a2.138,2.138,0,0,0,1.634-.7,2.486,2.486,0,0,0,.649-1.764,1.987,1.987,0,0,0-.711-1.641,2.89,2.89,0,0,0-1.873-.574,2.807,2.807,0,0,0-1.066.185,1.989,1.989,0,0,0-.718.472,2.086,2.086,0,0,0-.424.725,3.808,3.808,0,0,0-.205.861,8.6,8.6,0,0,0-.048.957L1.8,94.369a6.324,6.324,0,0,1,1.7-4.751,6.464,6.464,0,0,1,4.7-1.647,6.723,6.723,0,0,1,4.512,1.511,4.731,4.731,0,0,1,1.777,3.753,4.271,4.271,0,0,1-.759,2.543A4.344,4.344,0,0,1,12,97.281a4.868,4.868,0,0,1,1.258.561,5.156,5.156,0,0,1,1.1.943,4.21,4.21,0,0,1,.813,1.436,5.776,5.776,0,0,1,.3,1.914,5.583,5.583,0,0,1-1.955,4.464A7.712,7.712,0,0,1,8.326,108.273Z" transform="translate(541 2584)" fill="#f91623"/>
    <path id="Trazado_23919" data-name="Trazado 23919" d="M6.877-3.514H15.3V0H1.367V-2.967l7.861-8.025a4.947,4.947,0,0,0,1.709-3.4,2.408,2.408,0,0,0-.7-1.832,2.772,2.772,0,0,0-1.989-.67q-2.8,0-2.8,3.186v1.463l-3.924-.4v-.984a6.161,6.161,0,0,1,1.8-4.751,6.912,6.912,0,0,1,4.895-1.675,7.24,7.24,0,0,1,4.765,1.518,5.115,5.115,0,0,1,1.839,4.17,5.913,5.913,0,0,1-.622,2.707,11.315,11.315,0,0,1-1.976,2.639ZM32.73-7.26v3.514H30.352V0H26.414V-3.746H17.322V-7.273l7-12.482h6.029v12.5Zm-11.758,0h5.441V-17.391Zm22.8-3.869v-2.994H55.85v2.994Zm0,6V-8.121H55.85v2.994ZM73.049-3.514h8.422V0H67.539V-2.967L75.4-10.992a4.947,4.947,0,0,0,1.709-3.4,2.408,2.408,0,0,0-.7-1.832,2.772,2.772,0,0,0-1.989-.67q-2.8,0-2.8,3.186v1.463l-3.924-.4v-.984a6.161,6.161,0,0,1,1.8-4.751,6.912,6.912,0,0,1,4.895-1.675,7.24,7.24,0,0,1,4.765,1.518,5.115,5.115,0,0,1,1.839,4.17,5.913,5.913,0,0,1-.622,2.707,11.315,11.315,0,0,1-1.976,2.639Zm31.268,0h8.422V0H98.807V-2.967l7.861-8.025a4.947,4.947,0,0,0,1.709-3.4,2.408,2.408,0,0,0-.7-1.832,2.772,2.772,0,0,0-1.989-.67q-2.8,0-2.8,3.186v1.463l-3.924-.4v-.984a6.161,6.161,0,0,1,1.8-4.751,6.912,6.912,0,0,1,4.895-1.675,7.24,7.24,0,0,1,4.765,1.518,5.115,5.115,0,0,1,1.839,4.17,5.913,5.913,0,0,1-.622,2.707,11.315,11.315,0,0,1-1.976,2.639Zm31.268,0h8.422V0H130.074V-2.967l7.861-8.025a4.947,4.947,0,0,0,1.709-3.4,2.408,2.408,0,0,0-.7-1.832,2.772,2.772,0,0,0-1.989-.67q-2.8,0-2.8,3.186v1.463l-3.924-.4v-.984a6.161,6.161,0,0,1,1.8-4.751,6.912,6.912,0,0,1,4.895-1.675,7.24,7.24,0,0,1,4.765,1.518,5.115,5.115,0,0,1,1.839,4.17,5.913,5.913,0,0,1-.622,2.707,11.315,11.315,0,0,1-1.976,2.639ZM168.3.273q-3.691,0-5.387-1.8t-1.7-5.523l4.033-.178a14.282,14.282,0,0,0,.062,1.449,5.009,5.009,0,0,0,.246,1.121,2.006,2.006,0,0,0,.52.841,2.361,2.361,0,0,0,.889.485,4.391,4.391,0,0,0,1.333.178,3.2,3.2,0,0,0,2.331-.793,2.772,2.772,0,0,0,.813-2.078,2.794,2.794,0,0,0-.779-2.14,2.933,2.933,0,0,0-2.092-.731h-.766v-3.062h.711a2.138,2.138,0,0,0,1.634-.7,2.486,2.486,0,0,0,.649-1.764,1.987,1.987,0,0,0-.711-1.641,2.89,2.89,0,0,0-1.873-.574,2.807,2.807,0,0,0-1.066.185,1.989,1.989,0,0,0-.718.472,2.086,2.086,0,0,0-.424.725,3.809,3.809,0,0,0-.205.861,8.6,8.6,0,0,0-.048.957l-3.979-.191a6.324,6.324,0,0,1,1.7-4.751,6.464,6.464,0,0,1,4.7-1.647,6.723,6.723,0,0,1,4.512,1.511,4.731,4.731,0,0,1,1.777,3.753,4.271,4.271,0,0,1-.759,2.543,4.344,4.344,0,0,1-1.729,1.5,4.869,4.869,0,0,1,1.258.561,5.156,5.156,0,0,1,1.1.943,4.209,4.209,0,0,1,.813,1.436,5.776,5.776,0,0,1,.3,1.914A5.583,5.583,0,0,1,173.5-1.4,7.712,7.712,0,0,1,168.3.273Zm18.73-11.4v-2.994H199.1v2.994Zm0,6V-8.121H199.1v2.994ZM216.3-3.514h8.422V0H210.793V-2.967l7.861-8.025a4.947,4.947,0,0,0,1.709-3.4,2.408,2.408,0,0,0-.7-1.832,2.772,2.772,0,0,0-1.989-.67q-2.8,0-2.8,3.186v1.463l-3.924-.4v-.984a6.161,6.161,0,0,1,1.8-4.751,6.912,6.912,0,0,1,4.895-1.675,7.24,7.24,0,0,1,4.765,1.518,5.115,5.115,0,0,1,1.839,4.17,5.913,5.913,0,0,1-.622,2.707,11.315,11.315,0,0,1-1.976,2.639ZM231-8.841a4.135,4.135,0,0,1-3.142-1.053,4.565,4.565,0,0,1-.989-3.222l2.353-.1a8.33,8.33,0,0,0,.036.845,2.923,2.923,0,0,0,.144.654,1.17,1.17,0,0,0,.3.49,1.377,1.377,0,0,0,.518.283,2.562,2.562,0,0,0,.778.1,1.868,1.868,0,0,0,1.36-.463,1.617,1.617,0,0,0,.475-1.212,1.63,1.63,0,0,0-.455-1.248,1.711,1.711,0,0,0-1.22-.427h-.447v-1.786h.415a1.247,1.247,0,0,0,.953-.407,1.45,1.45,0,0,0,.379-1.029,1.159,1.159,0,0,0-.415-.957,1.686,1.686,0,0,0-1.093-.335,1.637,1.637,0,0,0-.622.108,1.16,1.16,0,0,0-.419.275,1.216,1.216,0,0,0-.247.423,2.221,2.221,0,0,0-.12.5,5.015,5.015,0,0,0-.028.558l-2.321-.112a3.689,3.689,0,0,1,.989-2.771,3.771,3.771,0,0,1,2.743-.961,3.922,3.922,0,0,1,2.632.881,2.76,2.76,0,0,1,1.037,2.189,2.492,2.492,0,0,1-.443,1.483,2.534,2.534,0,0,1-1.009.877,2.84,2.84,0,0,1,.734.327,3.008,3.008,0,0,1,.642.55,2.455,2.455,0,0,1,.475.837,3.369,3.369,0,0,1,.175,1.116,3.257,3.257,0,0,1-1.14,2.6A4.5,4.5,0,0,1,231-8.841ZM261.2.273q-3.691,0-5.387-1.8t-1.7-5.523l4.033-.178a14.282,14.282,0,0,0,.062,1.449,5.009,5.009,0,0,0,.246,1.121,2.006,2.006,0,0,0,.52.841,2.36,2.36,0,0,0,.889.485,4.391,4.391,0,0,0,1.333.178,3.2,3.2,0,0,0,2.331-.793,2.772,2.772,0,0,0,.813-2.078,2.794,2.794,0,0,0-.779-2.14A2.933,2.933,0,0,0,261.47-8.9H260.7v-3.062h.711a2.138,2.138,0,0,0,1.634-.7,2.486,2.486,0,0,0,.649-1.764,1.987,1.987,0,0,0-.711-1.641,2.89,2.89,0,0,0-1.873-.574,2.807,2.807,0,0,0-1.066.185,1.989,1.989,0,0,0-.718.472,2.086,2.086,0,0,0-.424.725,3.807,3.807,0,0,0-.205.861,8.6,8.6,0,0,0-.048.957l-3.979-.191a6.324,6.324,0,0,1,1.7-4.751,6.464,6.464,0,0,1,4.7-1.647,6.723,6.723,0,0,1,4.512,1.511,4.731,4.731,0,0,1,1.777,3.753,4.271,4.271,0,0,1-.759,2.543,4.344,4.344,0,0,1-1.729,1.5,4.869,4.869,0,0,1,1.258.561,5.156,5.156,0,0,1,1.1.943,4.21,4.21,0,0,1,.813,1.436,5.776,5.776,0,0,1,.3,1.914A5.583,5.583,0,0,1,266.392-1.4,7.712,7.712,0,0,1,261.2.273Z" transform="translate(671 2652.36)" fill="#f91623"/>
    <path id="Trazado_23920" data-name="Trazado 23920" d="M4.371-9.469,2.777-10.43l1.875-2.309q.27-.328.141-.551t-.539-.152l-2.977.457v-1.852l2.977.445q.41.07.539-.152t-.141-.551L2.777-17.426l1.594-.926,1.1,2.8q.141.41.41.41t.41-.41l1.09-2.8,1.629.926L7.1-15.094q-.27.328-.141.551t.551.152l2.965-.445v1.852l-2.965-.457q-.422-.07-.551.152t.152.551l1.9,2.309-1.629.961-1.09-2.789q-.141-.41-.41-.41t-.41.41Z" transform="translate(755 2657.36)" fill="#002b45"/>
    <path id="Trazado_23921" data-name="Trazado 23921" d="M4.371-9.469,2.777-10.43l1.875-2.309q.27-.328.141-.551t-.539-.152l-2.977.457v-1.852l2.977.445q.41.07.539-.152t-.141-.551L2.777-17.426l1.594-.926,1.1,2.8q.141.41.41.41t.41-.41l1.09-2.8,1.629.926L7.1-15.094q-.27.328-.141.551t.551.152l2.965-.445v1.852l-2.965-.457q-.422-.07-.551.152t.152.551l1.9,2.309-1.629.961-1.09-2.789q-.141-.41-.41-.41t-.41.41Z" transform="translate(788 2657.36)" fill="#002b45"/>
    <path id="Trazado_23922" data-name="Trazado 23922" d="M4.371-9.469,2.777-10.43l1.875-2.309q.27-.328.141-.551t-.539-.152l-2.977.457v-1.852l2.977.445q.41.07.539-.152t-.141-.551L2.777-17.426l1.594-.926,1.1,2.8q.141.41.41.41t.41-.41l1.09-2.8,1.629.926L7.1-15.094q-.27.328-.141.551t.551.152l2.965-.445v1.852l-2.965-.457q-.422-.07-.551.152t.152.551l1.9,2.309-1.629.961-1.09-2.789q-.141-.41-.41-.41t-.41.41Z" transform="translate(818 2657.36)" fill="#002b45"/>
    <path id="Trazado_23923" data-name="Trazado 23923" d="M4.371-9.469,2.777-10.43l1.875-2.309q.27-.328.141-.551t-.539-.152l-2.977.457v-1.852l2.977.445q.41.07.539-.152t-.141-.551L2.777-17.426l1.594-.926,1.1,2.8q.141.41.41.41t.41-.41l1.09-2.8,1.629.926L7.1-15.094q-.27.328-.141.551t.551.152l2.965-.445v1.852l-2.965-.457q-.422-.07-.551.152t.152.551l1.9,2.309-1.629.961-1.09-2.789q-.141-.41-.41-.41t-.41.41Z" transform="translate(909 2657.36)" fill="#002b45"/>
  </g>
</svg>
