<svg xmlns="http://www.w3.org/2000/svg" width="632" height="341.649" viewBox="0 0 632 341.649">
  <g id="Grupo_14487" data-name="Grupo 14487" transform="translate(-15610 3122)">
    <path id="Rectángulo_3494" data-name="Rectángulo 3494" d="M0,0H632V341.65H0Z" transform="translate(15610 -3122)" fill="#d5f4fc"/>
    <path id="Trazado_24008" data-name="Trazado 24008" d="M6.877-3.514H15.3V0H1.367V-2.967l7.861-8.025a4.947,4.947,0,0,0,1.709-3.4,2.408,2.408,0,0,0-.7-1.832,2.772,2.772,0,0,0-1.989-.67q-2.8,0-2.8,3.186v1.463l-3.924-.4v-.984a6.161,6.161,0,0,1,1.8-4.751,6.912,6.912,0,0,1,4.895-1.675,7.24,7.24,0,0,1,4.765,1.518,5.115,5.115,0,0,1,1.839,4.17,5.913,5.913,0,0,1-.622,2.707,11.315,11.315,0,0,1-1.976,2.639ZM25.1.273A6.162,6.162,0,0,1,19.79-2.283q-1.853-2.557-1.853-7.6t1.846-7.6A6.169,6.169,0,0,1,25.1-20.029a6.155,6.155,0,0,1,5.3,2.543q1.846,2.543,1.846,7.6T30.4-2.283A6.148,6.148,0,0,1,25.1.273Zm0-3.555A2.6,2.6,0,0,0,27.474-4.9a11.28,11.28,0,0,0,.841-4.983,11.2,11.2,0,0,0-.848-4.983,2.6,2.6,0,0,0-2.365-1.62q-3.227,0-3.227,6.6T25.1-3.281Z" transform="translate(15839.181 -3047)" fill="#002b45"/>
    <path id="Trazado_24009" data-name="Trazado 24009" d="M7.82-19.756h3.746V0H7.643V-15.709L3.1-11.484v-4.047ZM25.1.273A6.162,6.162,0,0,1,19.79-2.283q-1.853-2.557-1.853-7.6t1.846-7.6A6.169,6.169,0,0,1,25.1-20.029a6.155,6.155,0,0,1,5.3,2.543q1.846,2.543,1.846,7.6T30.4-2.283A6.148,6.148,0,0,1,25.1.273Zm0-3.555A2.6,2.6,0,0,0,27.474-4.9a11.28,11.28,0,0,0,.841-4.983,11.2,11.2,0,0,0-.848-4.983,2.6,2.6,0,0,0-2.365-1.62q-3.227,0-3.227,6.6T25.1-3.281Z" transform="translate(15839.181 -3002)" fill="#002b45"/>
    <path id="Trazado_24010" data-name="Trazado 24010" d="M7.971-12.811q7.588,0,7.588,6.234a6.66,6.66,0,0,1-1.914,5A6.918,6.918,0,0,1,8.6.287,8.369,8.369,0,0,1,5.065-.444,6.1,6.1,0,0,1,2.5-2.618a5.822,5.822,0,0,1-.971-3.329,6.147,6.147,0,0,1,.082-.984l3.91-.178a5.779,5.779,0,0,0-.1.875,2.66,2.66,0,0,0,.889,2.181,3.349,3.349,0,0,0,2.2.731,3.034,3.034,0,0,0,2.3-.841,3.132,3.132,0,0,0,.807-2.263,2.816,2.816,0,0,0-.984-2.311,5.271,5.271,0,0,0-3.309-.807H2.146l.82-10.213H14.629v3.514H6.508l-.26,3.432Z" transform="translate(15851.181 -2964)" fill="#002b45"/>
    <path id="Trazado_24011" data-name="Trazado 24011" d="M7.971-12.811q7.588,0,7.588,6.234a6.66,6.66,0,0,1-1.914,5A6.918,6.918,0,0,1,8.6.287,8.369,8.369,0,0,1,5.065-.444,6.1,6.1,0,0,1,2.5-2.618a5.822,5.822,0,0,1-.971-3.329,6.147,6.147,0,0,1,.082-.984l3.91-.178a5.779,5.779,0,0,0-.1.875,2.66,2.66,0,0,0,.889,2.181,3.349,3.349,0,0,0,2.2.731,3.034,3.034,0,0,0,2.3-.841,3.132,3.132,0,0,0,.807-2.263,2.816,2.816,0,0,0-.984-2.311,5.271,5.271,0,0,0-3.309-.807H2.146l.82-10.213H14.629v3.514H6.508l-.26,3.432Z" transform="translate(15854.57 -2930)" fill="#002b45"/>
    <path id="Trazado_24012" data-name="Trazado 24012" d="M7.82-19.756h3.746V0H7.643V-15.709L3.1-11.484v-4.047Z" transform="translate(15854.57 -2888)" fill="#002b45"/>
    <path id="Trazado_24013" data-name="Trazado 24013" d="M-.342,5.564,13.289-21h3.705L3.377,5.564Z" transform="translate(15856.67 -2846)" fill="#002b45"/>
    <path id="Trazado_24014" data-name="Trazado 24014" d="M8.326.273q-3.691,0-5.387-1.8t-1.7-5.523l4.033-.178a14.282,14.282,0,0,0,.062,1.449,5.009,5.009,0,0,0,.246,1.121,2.006,2.006,0,0,0,.52.841,2.361,2.361,0,0,0,.889.485,4.391,4.391,0,0,0,1.333.178,3.2,3.2,0,0,0,2.331-.793,2.772,2.772,0,0,0,.813-2.078,2.794,2.794,0,0,0-.779-2.14A2.933,2.933,0,0,0,8.6-8.9H7.834v-3.062h.711a2.138,2.138,0,0,0,1.634-.7,2.486,2.486,0,0,0,.649-1.764,1.987,1.987,0,0,0-.711-1.641,2.89,2.89,0,0,0-1.873-.574,2.807,2.807,0,0,0-1.066.185,1.989,1.989,0,0,0-.718.472,2.086,2.086,0,0,0-.424.725,3.808,3.808,0,0,0-.205.861,8.6,8.6,0,0,0-.048.957L1.8-13.631a6.324,6.324,0,0,1,1.7-4.751,6.464,6.464,0,0,1,4.7-1.647,6.723,6.723,0,0,1,4.512,1.511,4.731,4.731,0,0,1,1.777,3.753,4.271,4.271,0,0,1-.759,2.543A4.344,4.344,0,0,1,12-10.719a4.869,4.869,0,0,1,1.258.561,5.156,5.156,0,0,1,1.1.943,4.21,4.21,0,0,1,.813,1.436,5.776,5.776,0,0,1,.3,1.914A5.583,5.583,0,0,1,13.521-1.4,7.712,7.712,0,0,1,8.326.273ZM25.1.273A6.162,6.162,0,0,1,19.79-2.283q-1.853-2.557-1.853-7.6t1.846-7.6A6.169,6.169,0,0,1,25.1-20.029a6.155,6.155,0,0,1,5.3,2.543q1.846,2.543,1.846,7.6T30.4-2.283A6.148,6.148,0,0,1,25.1.273Zm0-3.555A2.6,2.6,0,0,0,27.474-4.9a11.28,11.28,0,0,0,.841-4.983,11.2,11.2,0,0,0-.848-4.983,2.6,2.6,0,0,0-2.365-1.62q-3.227,0-3.227,6.6T25.1-3.281Z" transform="translate(15919.908 -3047)" fill="#002b45"/>
    <path id="Trazado_24015" data-name="Trazado 24015" d="M7.82-19.756h3.746V0H7.643V-15.709L3.1-11.484v-4.047Zm16.871,6.945q7.588,0,7.588,6.234a6.66,6.66,0,0,1-1.914,5A6.918,6.918,0,0,1,25.32.287a8.369,8.369,0,0,1-3.534-.731,6.1,6.1,0,0,1-2.563-2.174,5.822,5.822,0,0,1-.971-3.329,6.147,6.147,0,0,1,.082-.984l3.91-.178a5.779,5.779,0,0,0-.1.875,2.66,2.66,0,0,0,.889,2.181,3.349,3.349,0,0,0,2.2.731,3.034,3.034,0,0,0,2.3-.841,3.132,3.132,0,0,0,.807-2.263,2.816,2.816,0,0,0-.984-2.311,5.271,5.271,0,0,0-3.309-.807H18.867l.82-10.213H31.35v3.514H23.229l-.26,3.432Z" transform="translate(15918.908 -3002)" fill="#002b45"/>
    <path id="Trazado_24016" data-name="Trazado 24016" d="M7.82-19.756h3.746V0H7.643V-15.709L3.1-11.484v-4.047Zm16.871,6.945q7.588,0,7.588,6.234a6.66,6.66,0,0,1-1.914,5A6.918,6.918,0,0,1,25.32.287a8.369,8.369,0,0,1-3.534-.731,6.1,6.1,0,0,1-2.563-2.174,5.822,5.822,0,0,1-.971-3.329,6.147,6.147,0,0,1,.082-.984l3.91-.178a5.779,5.779,0,0,0-.1.875,2.66,2.66,0,0,0,.889,2.181,3.349,3.349,0,0,0,2.2.731,3.034,3.034,0,0,0,2.3-.841,3.132,3.132,0,0,0,.807-2.263,2.816,2.816,0,0,0-.984-2.311,5.271,5.271,0,0,0-3.309-.807H18.867l.82-10.213H31.35v3.514H23.229l-.26,3.432Z" transform="translate(15918.908 -2966)" fill="#002b45"/>
    <path id="Trazado_24017" data-name="Trazado 24017" d="M7.971-12.811q7.588,0,7.588,6.234a6.66,6.66,0,0,1-1.914,5A6.918,6.918,0,0,1,8.6.287,8.369,8.369,0,0,1,5.065-.444,6.1,6.1,0,0,1,2.5-2.618a5.822,5.822,0,0,1-.971-3.329,6.147,6.147,0,0,1,.082-.984l3.91-.178a5.779,5.779,0,0,0-.1.875,2.66,2.66,0,0,0,.889,2.181,3.349,3.349,0,0,0,2.2.731,3.034,3.034,0,0,0,2.3-.841,3.132,3.132,0,0,0,.807-2.263,2.816,2.816,0,0,0-.984-2.311,5.271,5.271,0,0,0-3.309-.807H2.146l.82-10.213H14.629v3.514H6.508l-.26,3.432Z" transform="translate(15934.908 -2930)" fill="#002b45"/>
    <path id="Trazado_24018" data-name="Trazado 24018" d="M7.82-19.756h3.746V0H7.643V-15.709L3.1-11.484v-4.047Z" transform="translate(15934.908 -2888)" fill="#002b45"/>
    <path id="Trazado_24019" data-name="Trazado 24019" d="M-.342,5.564,13.289-21h3.705L3.377,5.564Z" transform="translate(15935.67 -2846)" fill="#002b45"/>
    <path id="Trazado_24020" data-name="Trazado 24020" d="M6.877-3.514H15.3V0H1.367V-2.967l7.861-8.025a4.947,4.947,0,0,0,1.709-3.4,2.408,2.408,0,0,0-.7-1.832,2.772,2.772,0,0,0-1.989-.67q-2.8,0-2.8,3.186v1.463l-3.924-.4v-.984a6.161,6.161,0,0,1,1.8-4.751,6.912,6.912,0,0,1,4.895-1.675,7.24,7.24,0,0,1,4.765,1.518,5.115,5.115,0,0,1,1.839,4.17,5.913,5.913,0,0,1-.622,2.707,11.315,11.315,0,0,1-1.976,2.639Z" transform="translate(16006.57 -3047)" fill="#f91623"/>
    <path id="Trazado_24021" data-name="Trazado 24021" d="M6.877-3.514H15.3V0H1.367V-2.967l7.861-8.025a4.947,4.947,0,0,0,1.709-3.4,2.408,2.408,0,0,0-.7-1.832,2.772,2.772,0,0,0-1.989-.67q-2.8,0-2.8,3.186v1.463l-3.924-.4v-.984a6.161,6.161,0,0,1,1.8-4.751,6.912,6.912,0,0,1,4.895-1.675,7.24,7.24,0,0,1,4.765,1.518,5.115,5.115,0,0,1,1.839,4.17,5.913,5.913,0,0,1-.622,2.707,11.315,11.315,0,0,1-1.976,2.639Z" transform="translate(16006.57 -3002)" fill="#f91623"/>
    <path id="Trazado_24022" data-name="Trazado 24022" d="M8.326.273q-3.691,0-5.387-1.8t-1.7-5.523l4.033-.178a14.282,14.282,0,0,0,.062,1.449,5.009,5.009,0,0,0,.246,1.121,2.006,2.006,0,0,0,.52.841,2.361,2.361,0,0,0,.889.485,4.391,4.391,0,0,0,1.333.178,3.2,3.2,0,0,0,2.331-.793,2.772,2.772,0,0,0,.813-2.078,2.794,2.794,0,0,0-.779-2.14A2.933,2.933,0,0,0,8.6-8.9H7.834v-3.062h.711a2.138,2.138,0,0,0,1.634-.7,2.486,2.486,0,0,0,.649-1.764,1.987,1.987,0,0,0-.711-1.641,2.89,2.89,0,0,0-1.873-.574,2.807,2.807,0,0,0-1.066.185,1.989,1.989,0,0,0-.718.472,2.086,2.086,0,0,0-.424.725,3.808,3.808,0,0,0-.205.861,8.6,8.6,0,0,0-.048.957L1.8-13.631a6.324,6.324,0,0,1,1.7-4.751,6.464,6.464,0,0,1,4.7-1.647,6.723,6.723,0,0,1,4.512,1.511,4.731,4.731,0,0,1,1.777,3.753,4.271,4.271,0,0,1-.759,2.543A4.344,4.344,0,0,1,12-10.719a4.869,4.869,0,0,1,1.258.561,5.156,5.156,0,0,1,1.1.943,4.21,4.21,0,0,1,.813,1.436,5.776,5.776,0,0,1,.3,1.914A5.583,5.583,0,0,1,13.521-1.4,7.712,7.712,0,0,1,8.326.273Z" transform="translate(16006.57 -2966)" fill="#f91623"/>
    <path id="Trazado_24023" data-name="Trazado 24023" d="M7.971-12.811q7.588,0,7.588,6.234a6.66,6.66,0,0,1-1.914,5A6.918,6.918,0,0,1,8.6.287,8.369,8.369,0,0,1,5.065-.444,6.1,6.1,0,0,1,2.5-2.618a5.822,5.822,0,0,1-.971-3.329,6.147,6.147,0,0,1,.082-.984l3.91-.178a5.779,5.779,0,0,0-.1.875,2.66,2.66,0,0,0,.889,2.181,3.349,3.349,0,0,0,2.2.731,3.034,3.034,0,0,0,2.3-.841,3.132,3.132,0,0,0,.807-2.263,2.816,2.816,0,0,0-.984-2.311,5.271,5.271,0,0,0-3.309-.807H2.146l.82-10.213H14.629v3.514H6.508l-.26,3.432Z" transform="translate(16006.57 -2928)" fill="#f91623"/>
    <path id="Trazado_23511" data-name="Trazado 23511" d="M1120.2,225.6V463.1" transform="translate(14772.166 -3291.235)" fill="none" stroke="blue" stroke-width="3.666"/>
    <path id="Trazado_23512" data-name="Trazado 23512" d="M1193.2,225.6V463.1" transform="translate(14772.166 -3291.235)" fill="none" stroke="blue" stroke-width="3.666"/>
    <path id="Trazado_23513" data-name="Trazado 23513" d="M972.742,255.057h227.907" transform="translate(14839.259 -3291.235)" fill="none" stroke="blue" stroke-width="3.666"/>
  </g>
</svg>
