<?xml version="1.0" encoding="utf-8"?>
<!-- Generator: Adobe Illustrator 24.3.0, SVG Export Plug-In . SVG Version: 6.00 Build 0)  -->
<svg version="1.1" id="Capa_1" xmlns="http://www.w3.org/2000/svg" xmlns:xlink="http://www.w3.org/1999/xlink" x="0px" y="0px"
	 viewBox="0 0 685 327.6" style="enable-background:new 0 0 685 327.6;" xml:space="preserve">
<style type="text/css">
	.st0{fill:#E6E6E6;}
	.st1{fill:#00223D;}
	.st2{fill:#BCBEC0;}
	.st3{fill:#FF9811;}
	.st4{fill:#E6E7E8;}
	.st5{fill:#5AAAE7;}
	.st6{fill:#00CCB3;}
	.st7{fill:none;}
	.st8{font-family:'MyriadPro-Regular';}
	.st9{font-size:22px;}
</style>
<g id="Grupo_14477" transform="translate(-319 -3113)">
	<path id="Rectángulo_3494" class="st0" d="M351,3129h653v311.6H351V3129z"/>
	<path id="Trazado_24010" class="st1" d="M479,3172h-8.2v-14.3h8.2v2.5h-5.2v3.1h4.8v2.5h-4.8v3.7h5.2L479,3172z M480.9,3176.8
		c-0.7,0-1.3-0.1-2-0.2v-2.3c0.5,0.1,0.9,0.2,1.4,0.2c0.4,0,0.8-0.1,1.1-0.4c0.3-0.4,0.4-0.8,0.3-1.2v-11.7h3v12.1
		c0.1,1-0.3,2-1,2.7C482.9,3176.5,481.9,3176.9,480.9,3176.8z M481.6,3158.3c0-1,0.5-1.5,1.6-1.5s1.6,0.5,1.6,1.5
		c0,0.4-0.1,0.8-0.4,1.1c-0.3,0.3-0.8,0.4-1.2,0.4C482.2,3159.7,481.6,3159.2,481.6,3158.3z M492.4,3163c-0.6,0-1.1,0.2-1.5,0.6
		c-0.4,0.5-0.6,1.1-0.6,1.7h4.2c0-0.6-0.2-1.2-0.6-1.7C493.5,3163.2,493,3163,492.4,3163z M492.8,3172.2c-1.5,0.1-3-0.4-4.1-1.5
		c-1-1.1-1.6-2.6-1.5-4.1c-0.1-1.5,0.4-3.1,1.4-4.2c1-1,2.4-1.6,3.8-1.5c1.3-0.1,2.6,0.4,3.6,1.3c0.9,1,1.4,2.3,1.3,3.6v1.4h-7
		c0,0.7,0.3,1.4,0.8,2c0.5,0.5,1.2,0.8,2,0.7c0.6,0,1.3-0.1,1.9-0.2c0.6-0.2,1.2-0.4,1.8-0.7v2.3c-0.5,0.3-1.1,0.5-1.7,0.6
		C494.3,3172.1,493.5,3172.2,492.8,3172.2z M505.8,3160.9c0.3,0,0.7,0,1,0.1l-0.2,2.8c-0.3-0.1-0.6-0.1-0.9-0.1
		c-0.8,0-1.6,0.2-2.2,0.7c-0.6,0.5-0.8,1.3-0.8,2.1v5.6h-3v-10.9h2.3l0.4,1.8h0.1c0.3-0.6,0.8-1.1,1.4-1.5
		C504.5,3161.1,505.1,3160.9,505.8,3160.9z M513.2,3172.2c-3.4,0-5.1-1.9-5.1-5.6c-0.1-1.5,0.4-3.1,1.4-4.3c1.1-1,2.5-1.6,4-1.5
		c1.2,0,2.3,0.2,3.4,0.7l-0.9,2.3c-0.5-0.2-0.9-0.3-1.3-0.5c-0.4-0.1-0.8-0.2-1.2-0.2c-1.5,0-2.3,1.1-2.3,3.3c0,2.1,0.8,3.2,2.3,3.2
		c0.5,0,1.1-0.1,1.6-0.2c0.5-0.2,1-0.4,1.5-0.7v2.5c-0.4,0.3-0.9,0.5-1.5,0.6C514.4,3172.1,513.8,3172.2,513.2,3172.2z
		 M518.9,3158.3c0-1,0.5-1.5,1.6-1.5c1.1,0,1.6,0.5,1.6,1.5c0,0.4-0.1,0.8-0.4,1.1c-0.3,0.3-0.8,0.4-1.2,0.4
		C519.5,3159.7,518.9,3159.2,518.9,3158.3z M522,3172h-3v-10.9h3L522,3172z M529.6,3172.2c-3.4,0-5.1-1.9-5.1-5.6
		c-0.1-1.5,0.4-3.1,1.4-4.3c1.1-1,2.5-1.6,4-1.5c1.2,0,2.3,0.2,3.4,0.7l-0.9,2.3c-0.5-0.2-0.9-0.3-1.3-0.5c-0.4-0.1-0.8-0.2-1.2-0.2
		c-1.5,0-2.3,1.1-2.3,3.3c0,2.1,0.8,3.2,2.3,3.2c0.5,0,1.1-0.1,1.6-0.2c0.5-0.2,1-0.4,1.5-0.7v2.5c-0.4,0.3-0.9,0.5-1.5,0.6
		C530.8,3172.1,530.2,3172.2,529.6,3172.2z M535.3,3158.3c0-1,0.5-1.5,1.6-1.5c1.1,0,1.6,0.5,1.6,1.5c0,0.4-0.1,0.8-0.4,1.1
		c-0.3,0.3-0.8,0.4-1.2,0.4C535.8,3159.7,535.3,3159.2,535.3,3158.3z M538.4,3172h-3v-10.9h3L538.4,3172z M543.9,3166.5
		c-0.1,0.9,0.1,1.7,0.5,2.5c0.4,0.6,1,0.9,1.7,0.8c0.7,0.1,1.3-0.3,1.7-0.8c0.4-0.8,0.6-1.6,0.5-2.5c0.1-0.8-0.1-1.7-0.5-2.4
		c-0.8-1-2.2-1.1-3.2-0.3c-0.1,0.1-0.2,0.2-0.3,0.3C544,3164.8,543.9,3165.7,543.9,3166.5L543.9,3166.5z M551.5,3166.5
		c0.1,1.5-0.4,3-1.4,4.2c-1,1-2.5,1.6-3.9,1.5c-1,0-1.9-0.2-2.8-0.7c-0.8-0.5-1.4-1.1-1.8-2c-0.4-0.9-0.7-2-0.6-3
		c-0.1-1.5,0.4-3,1.4-4.2c1-1,2.5-1.6,3.9-1.5c1,0,1.9,0.2,2.8,0.7c0.8,0.5,1.4,1.1,1.8,2C551.3,3164.5,551.5,3165.5,551.5,3166.5
		L551.5,3166.5z M561.5,3168.8c0.1,1-0.4,2-1.2,2.6c-1,0.7-2.3,1-3.5,0.9c-0.7,0-1.4,0-2-0.2c-0.5-0.1-1.1-0.3-1.6-0.5v-2.5
		c0.6,0.3,1.2,0.5,1.9,0.7c0.6,0.2,1.2,0.3,1.8,0.3c1.1,0,1.6-0.3,1.6-0.9c0-0.2-0.1-0.4-0.2-0.6c-0.2-0.2-0.5-0.4-0.7-0.5
		c-0.4-0.2-0.8-0.4-1.4-0.6c-0.7-0.3-1.3-0.6-1.9-1c-0.4-0.3-0.7-0.6-0.9-1c-0.2-0.5-0.3-0.9-0.3-1.4c0-0.9,0.4-1.7,1.1-2.3
		c1-0.6,2.1-0.9,3.2-0.8c1.3,0,2.6,0.3,3.8,0.9l-0.9,2.1c-0.5-0.2-1.1-0.4-1.5-0.6c-0.5-0.1-1-0.2-1.5-0.2c-0.9,0-1.3,0.2-1.3,0.7
		c0,0.3,0.2,0.6,0.4,0.7c0.6,0.3,1.2,0.6,1.9,0.9c0.7,0.2,1.3,0.6,1.9,1c0.4,0.3,0.7,0.6,0.9,1
		C561.5,3167.8,561.6,3168.3,561.5,3168.8L561.5,3168.8z M572.5,3172.2c-1.2,0-2.3-0.5-3-1.5c-0.8-1.2-1.2-2.7-1.1-4.1
		c-0.1-1.5,0.3-2.9,1.1-4.2c0.7-1,1.9-1.5,3.1-1.5c1.3-0.1,2.5,0.5,3.1,1.6h0.1c-0.1-0.7-0.2-1.4-0.2-2.2v-3.5h3v15.2h-2.3l-0.6-1.4
		h-0.1C575,3171.7,573.8,3172.3,572.5,3172.2z M573.6,3169.8c0.6,0.1,1.3-0.2,1.7-0.7c0.4-0.7,0.6-1.5,0.6-2.3v-0.3
		c0.1-0.9-0.1-1.8-0.5-2.5c-0.4-0.5-1.1-0.8-1.8-0.8c-0.6,0-1.2,0.3-1.5,0.8c-0.4,0.7-0.6,1.6-0.6,2.5c-0.1,0.8,0.1,1.7,0.6,2.4
		C572.3,3169.5,572.9,3169.8,573.6,3169.8L573.6,3169.8z M586.2,3163c-0.6,0-1.1,0.2-1.5,0.6c-0.4,0.5-0.6,1.1-0.6,1.7h4.2
		c0-0.6-0.2-1.2-0.6-1.7C587.4,3163.2,586.8,3163,586.2,3163z M586.7,3172.2c-1.5,0.1-3-0.4-4.1-1.5c-1-1.1-1.6-2.6-1.5-4.1
		c-0.1-1.5,0.4-3.1,1.4-4.2c1-1,2.4-1.6,3.8-1.5c1.3-0.1,2.6,0.4,3.6,1.3c0.9,1,1.4,2.3,1.3,3.6v1.4h-7c0,0.7,0.3,1.4,0.8,2
		c0.5,0.5,1.2,0.8,2,0.7c0.6,0,1.3-0.1,1.9-0.2c0.6-0.2,1.2-0.4,1.8-0.7v2.3c-0.5,0.3-1.1,0.5-1.7,0.6
		C588.1,3172.1,587.4,3172.2,586.7,3172.2z M604.7,3172.2c-1.2,0.1-2.3-0.5-3-1.4h-0.2c0.1,0.9,0.2,1.4,0.2,1.6v4.4h-3v-15.7h2.4
		l0.4,1.4h0.1c0.7-1.1,1.8-1.7,3.1-1.6c1.2,0,2.3,0.5,3,1.5c0.8,1.2,1.2,2.7,1.1,4.1c0,1-0.2,2.1-0.5,3c-0.3,0.8-0.8,1.5-1.5,2
		C606.3,3172,605.5,3172.2,604.7,3172.2L604.7,3172.2z M603.8,3163.3c-0.6-0.1-1.2,0.2-1.6,0.7c-0.4,0.7-0.6,1.5-0.5,2.2v0.3
		c-0.1,0.9,0.1,1.7,0.5,2.5c0.4,0.5,1,0.8,1.7,0.8c1.3,0,2-1.1,2-3.3c0.1-0.8-0.1-1.7-0.5-2.4
		C605.1,3163.5,604.5,3163.2,603.8,3163.3L603.8,3163.3z M617.5,3160.9c0.3,0,0.7,0,1,0.1l-0.2,2.8c-0.3-0.1-0.6-0.1-0.9-0.1
		c-0.8,0-1.6,0.2-2.2,0.7c-0.6,0.5-0.8,1.3-0.8,2.1v5.6h-3v-10.9h2.3l0.4,1.8h0.1c0.3-0.6,0.8-1.1,1.4-1.5
		C616.1,3161.1,616.8,3160.9,617.5,3160.9L617.5,3160.9z M627.4,3172l-0.6-1.5h-0.1c-0.4,0.6-0.9,1-1.5,1.3
		c-0.7,0.3-1.4,0.4-2.1,0.4c-0.9,0.1-1.8-0.3-2.5-0.9c-0.6-0.7-1-1.6-0.9-2.6c-0.1-1,0.4-2,1.2-2.6c1.1-0.6,2.4-0.9,3.7-0.9l1.9-0.1
		v-0.5c0.1-0.8-0.5-1.6-1.3-1.7c-0.1,0-0.3,0-0.4,0c-1.1,0-2.1,0.3-3.1,0.8l-1-2c1.3-0.7,2.7-1,4.2-1c1.2-0.1,2.4,0.3,3.4,1
		c0.8,0.7,1.3,1.8,1.2,2.9v7.3H627.4z M626.5,3166.9l-1.2,0c-0.7,0-1.3,0.1-1.9,0.5c-0.4,0.3-0.7,0.8-0.6,1.3c0,0.8,0.5,1.3,1.4,1.3
		c0.6,0,1.2-0.2,1.7-0.6c0.4-0.4,0.6-1,0.6-1.6L626.5,3166.9z M623.2,3159.9v-0.3c0.8-0.9,1.6-1.9,2.3-2.9h3.3v0.2
		c-0.3,0.3-0.9,0.8-1.7,1.5c-0.8,0.7-1.5,1.2-1.9,1.5L623.2,3159.9z M637,3172.2c-3.4,0-5.1-1.9-5.1-5.6c-0.1-1.5,0.4-3.1,1.4-4.3
		c1.1-1,2.5-1.6,4-1.5c1.2,0,2.3,0.2,3.4,0.7l-0.9,2.3c-0.5-0.2-0.9-0.3-1.3-0.5c-0.4-0.1-0.8-0.2-1.2-0.2c-1.5,0-2.3,1.1-2.3,3.3
		c0,2.1,0.8,3.2,2.3,3.2c0.5,0,1.1-0.1,1.6-0.2c0.5-0.2,1-0.4,1.5-0.7v2.5c-0.4,0.3-0.9,0.5-1.5,0.6
		C638.2,3172.1,637.6,3172.2,637,3172.2z M647.4,3169.8c0.6,0,1.3-0.1,1.9-0.3v2.2c-0.9,0.4-1.8,0.5-2.7,0.5c-1,0.1-1.9-0.2-2.6-0.9
		c-0.6-0.8-0.9-1.7-0.8-2.7v-5.3h-1.4v-1.3l1.6-1l0.9-2.3h1.9v2.3h3.1v2.2h-3.1v5.3c0,0.4,0.1,0.7,0.4,0.9
		C646.8,3169.7,647.1,3169.8,647.4,3169.8L647.4,3169.8z M651.4,3158.3c0-1,0.5-1.5,1.6-1.5s1.6,0.5,1.6,1.5c0,0.4-0.1,0.8-0.4,1.1
		c-0.3,0.3-0.8,0.4-1.2,0.4C651.9,3159.7,651.4,3159.2,651.4,3158.3z M654.5,3172h-3v-10.9h3L654.5,3172z M662,3172.2
		c-3.4,0-5.1-1.9-5.1-5.6c-0.1-1.5,0.4-3.1,1.4-4.3c1.1-1,2.5-1.6,4-1.5c1.2,0,2.3,0.2,3.4,0.7l-0.9,2.3c-0.5-0.2-0.9-0.3-1.3-0.5
		c-0.4-0.1-0.8-0.2-1.2-0.2c-1.5,0-2.3,1.1-2.3,3.3c0,2.1,0.8,3.2,2.3,3.2c0.5,0,1.1-0.1,1.6-0.2c0.5-0.2,1-0.4,1.5-0.7v2.5
		c-0.4,0.3-0.9,0.5-1.5,0.6C663.3,3172.1,662.7,3172.2,662,3172.2L662,3172.2z M674.8,3172l-0.6-1.5h-0.1c-0.4,0.6-0.9,1-1.5,1.3
		c-0.7,0.3-1.4,0.4-2.1,0.4c-0.9,0.1-1.8-0.3-2.5-0.9c-0.6-0.7-1-1.6-0.9-2.6c-0.1-1,0.4-2,1.2-2.6c1.1-0.6,2.4-0.9,3.7-0.9l1.9-0.1
		v-0.5c0.1-0.8-0.5-1.6-1.3-1.7c-0.1,0-0.3,0-0.4,0c-1.1,0-2.1,0.3-3.1,0.8l-1-2c1.3-0.7,2.7-1,4.2-1c1.2-0.1,2.4,0.3,3.4,1
		c0.8,0.7,1.3,1.8,1.2,2.9v7.3H674.8z M674,3166.9l-1.2,0c-0.7,0-1.3,0.1-1.9,0.5c-0.4,0.3-0.7,0.8-0.6,1.3c0,0.8,0.5,1.3,1.4,1.3
		c0.6,0,1.2-0.2,1.7-0.6c0.4-0.4,0.6-1,0.6-1.6L674,3166.9z"/>
	<path id="Trazado_24009" class="st1" d="M477.1,3201c-1.4-0.1-2.8,0.5-3.7,1.6c-1,1.2-1.4,2.7-1.4,4.3c-0.1,1.6,0.4,3.1,1.3,4.3
		c1,1.1,2.3,1.6,3.7,1.5c1.2,0,2.3-0.2,3.4-0.5v1.5c-1.2,0.4-2.4,0.6-3.7,0.6c-1.8,0.1-3.6-0.6-4.9-1.9c-1.2-1.5-1.8-3.5-1.7-5.4
		c0-1.3,0.3-2.7,0.8-3.9c0.5-1.1,1.4-2,2.4-2.6c1.1-0.6,2.4-0.9,3.7-0.9c1.4,0,2.7,0.2,3.9,0.8l-0.7,1.4
		C479.3,3201.3,478.2,3201,477.1,3201z M489.9,3214l-0.3-1.5h-0.1c-0.4,0.6-1,1-1.6,1.4c-0.6,0.3-1.3,0.4-2,0.4
		c-0.9,0.1-1.8-0.2-2.5-0.8c-0.6-0.6-1-1.5-0.9-2.3c0-2.2,1.7-3.3,5.2-3.4l1.8-0.1v-0.7c0.1-0.7-0.1-1.3-0.5-1.9
		c-0.5-0.4-1.1-0.7-1.7-0.6c-1.1,0-2.1,0.3-3,0.8l-0.5-1.2c0.5-0.3,1.1-0.5,1.7-0.7c0.6-0.2,1.3-0.2,1.9-0.2c1-0.1,2,0.2,2.8,0.8
		c0.7,0.7,1,1.7,0.9,2.7v7.3H489.9z M486.3,3212.9c0.9,0,1.7-0.2,2.4-0.8c0.6-0.6,0.9-1.5,0.9-2.3v-1l-1.6,0.1c-1,0-1.9,0.2-2.8,0.6
		c-0.6,0.4-0.9,1-0.9,1.7c0,0.5,0.2,1,0.5,1.3C485.2,3212.7,485.7,3212.9,486.3,3212.9z M496.1,3214h-1.6v-15.2h1.6V3214z
		 M503.8,3214.2c-1.4,0.1-2.7-0.4-3.6-1.4c-0.9-1.1-1.4-2.6-1.3-4c-0.1-1.5,0.4-3,1.3-4.1c0.9-1,2.3-1.6,3.7-1.5
		c0.5,0,1,0.1,1.5,0.2c0.4,0.1,0.8,0.2,1.2,0.4l-0.5,1.4c-0.4-0.1-0.8-0.3-1.2-0.4c-0.4-0.1-0.7-0.1-1.1-0.1c-2.2,0-3.3,1.4-3.3,4.2
		c-0.1,1.1,0.2,2.1,0.8,3c0.6,0.7,1.4,1.1,2.4,1.1c0.9,0,1.9-0.2,2.7-0.6v1.4C505.7,3214,504.7,3214.2,503.8,3214.2z M510.6,3203.3
		v6.9c-0.1,0.7,0.2,1.4,0.6,2c0.5,0.5,1.2,0.7,1.9,0.6c0.9,0.1,1.8-0.3,2.5-0.9c0.6-0.9,0.9-1.9,0.8-3v-5.6h1.6v10.7h-1.3l-0.2-1.4
		h-0.1c-0.3,0.5-0.8,0.9-1.4,1.2c-0.6,0.3-1.3,0.4-2,0.4c-1.1,0.1-2.1-0.3-2.9-0.9c-0.7-0.8-1.1-1.9-1-3v-7L510.6,3203.3z
		 M522.9,3214h-1.6v-15.2h1.6L522.9,3214z M533,3214l-0.3-1.5h-0.1c-0.4,0.6-1,1-1.6,1.4c-0.6,0.3-1.3,0.4-2,0.4
		c-0.9,0.1-1.8-0.2-2.5-0.8c-0.6-0.6-1-1.5-0.9-2.3c0-2.2,1.7-3.3,5.2-3.4l1.8-0.1v-0.7c0.1-0.7-0.1-1.3-0.5-1.9
		c-0.5-0.4-1.1-0.7-1.7-0.6c-1.1,0-2.1,0.3-3,0.8l-0.5-1.2c0.5-0.3,1.1-0.5,1.7-0.7c0.6-0.2,1.3-0.2,1.9-0.2c1-0.1,2,0.2,2.8,0.8
		c0.7,0.7,1,1.7,0.9,2.7v7.3H533z M529.3,3212.9c0.9,0,1.7-0.2,2.4-0.8c0.6-0.6,0.9-1.5,0.9-2.3v-1l-1.6,0.1c-1,0-1.9,0.2-2.8,0.6
		c-0.6,0.4-0.9,1-0.9,1.7c0,0.5,0.2,1,0.5,1.3C528.2,3212.7,528.8,3212.9,529.3,3212.9L529.3,3212.9z M542.4,3203.1
		c0.4,0,0.9,0,1.3,0.1l-0.2,1.5c-0.4-0.1-0.8-0.1-1.2-0.1c-0.9,0-1.7,0.4-2.2,1.1c-0.6,0.7-1,1.7-0.9,2.6v5.7h-1.6v-10.7h1.3l0.2,2
		h0.1c0.3-0.6,0.8-1.2,1.4-1.6C541.1,3203.3,541.7,3203.1,542.4,3203.1z M555.4,3214.2c-1.4,0.1-2.8-0.5-3.7-1.4
		c-1-1.1-1.5-2.5-1.4-4c-0.1-1.5,0.4-2.9,1.3-4.1c0.8-1,2.1-1.6,3.4-1.5c1.2-0.1,2.4,0.4,3.2,1.3c0.8,1,1.2,2.2,1.2,3.5v1h-7.4
		c0,1,0.3,2.1,1,2.9c0.7,0.7,1.6,1,2.5,1c1.2,0,2.3-0.3,3.4-0.7v1.4c-0.5,0.2-1.1,0.4-1.6,0.5C556.6,3214.2,556,3214.2,555.4,3214.2
		L555.4,3214.2z M554.9,3204.5c-0.8,0-1.5,0.3-2.1,0.8c-0.5,0.7-0.9,1.5-0.9,2.3h5.6c0.1-0.8-0.2-1.7-0.7-2.3
		C556.4,3204.7,555.7,3204.4,554.9,3204.5L554.9,3204.5z M563.7,3214h-1.6v-15.2h1.6V3214z M644.2,3212.6L644.2,3212.6
		c-0.8,1.1-2.1,1.7-3.4,1.6c-1.3,0.1-2.5-0.5-3.3-1.4c-0.8-1.2-1.3-2.6-1.2-4.1c-0.1-1.5,0.3-2.9,1.2-4.1c0.8-1,2-1.5,3.3-1.5
		c1.3-0.1,2.6,0.5,3.3,1.6h0.1l-0.1-0.8l0-0.8v-4.4h1.6v15.2h-1.3L644.2,3212.6z M640.9,3212.8c0.9,0.1,1.8-0.2,2.4-0.9
		c0.6-0.9,0.8-1.9,0.7-2.9v-0.3c0.1-1.1-0.2-2.3-0.8-3.2c-0.6-0.7-1.5-1.1-2.4-1c-0.9,0-1.7,0.4-2.2,1.1c-0.6,0.9-0.8,2-0.8,3.1
		c-0.1,1.1,0.2,2.2,0.8,3.1C639.2,3212.5,640.1,3212.9,640.9,3212.8L640.9,3212.8z M653.7,3214.2c-1.4,0.1-2.8-0.5-3.7-1.4
		c-1-1.1-1.5-2.5-1.4-4c-0.1-1.5,0.4-2.9,1.3-4.1c0.8-1,2.1-1.6,3.4-1.5c1.2-0.1,2.4,0.4,3.2,1.3c0.8,1,1.2,2.2,1.2,3.5v1h-7.4
		c0,1,0.3,2.1,1,2.9c0.7,0.7,1.6,1,2.5,1c1.2,0,2.3-0.3,3.4-0.7v1.4c-0.5,0.2-1.1,0.4-1.6,0.5
		C654.9,3214.2,654.3,3214.2,653.7,3214.2z M653.2,3204.5c-0.8,0-1.5,0.3-2.1,0.8c-0.5,0.7-0.9,1.5-0.9,2.3h5.6
		c0.1-0.8-0.2-1.7-0.7-2.3C654.7,3204.7,654,3204.4,653.2,3204.5L653.2,3204.5z M667.2,3214h-1.6v-15.2h1.6V3214z M679.9,3208.6
		c0.1,1.5-0.4,2.9-1.3,4.1c-0.9,1-2.3,1.5-3.6,1.5c-0.9,0-1.8-0.2-2.5-0.7c-0.8-0.5-1.4-1.1-1.7-1.9c-0.4-0.9-0.6-1.9-0.6-2.9
		c-0.1-1.5,0.4-2.9,1.3-4.1c0.9-1,2.3-1.5,3.6-1.5c1.4-0.1,2.7,0.5,3.6,1.5C679.5,3205.7,679.9,3207.2,679.9,3208.6L679.9,3208.6z
		 M671.7,3208.6c-0.1,1.1,0.2,2.2,0.8,3.1c1.2,1.3,3.3,1.4,4.6,0.2c0.1-0.1,0.2-0.1,0.2-0.2c0.6-0.9,0.9-2,0.8-3.1
		c0.1-1.1-0.2-2.2-0.8-3.1c-0.6-0.7-1.5-1.1-2.4-1.1c-0.9-0.1-1.8,0.3-2.4,1C671.9,3206.4,671.6,3207.5,671.7,3208.6L671.7,3208.6z
		 M689.6,3211.1c0,0.9-0.4,1.8-1.1,2.3c-0.9,0.6-2,0.9-3.1,0.8c-1.1,0.1-2.3-0.2-3.3-0.7v-1.5c0.5,0.3,1.1,0.5,1.7,0.6
		c0.6,0.1,1.1,0.2,1.7,0.2c0.7,0,1.3-0.1,2-0.4c0.7-0.4,0.9-1.3,0.5-1.9c-0.1-0.1-0.2-0.3-0.3-0.4c-0.7-0.4-1.4-0.8-2.1-1.1
		c-0.7-0.3-1.5-0.6-2.1-1c-0.4-0.2-0.7-0.6-0.9-0.9c-0.2-0.4-0.3-0.8-0.3-1.3c0-0.8,0.4-1.6,1.1-2.1c0.9-0.5,1.9-0.8,2.9-0.8
		c1.2,0,2.3,0.2,3.4,0.7l-0.6,1.3c-0.9-0.4-1.9-0.6-2.9-0.7c-0.6,0-1.2,0.1-1.7,0.4c-0.4,0.2-0.6,0.6-0.6,1c0,0.3,0.1,0.5,0.2,0.7
		c0.2,0.2,0.4,0.4,0.7,0.6c0.6,0.3,1.2,0.6,1.9,0.8c0.9,0.3,1.8,0.8,2.6,1.4C689.4,3209.8,689.6,3210.4,689.6,3211.1L689.6,3211.1z
		 M704.4,3211.1c0,0.9-0.4,1.8-1.1,2.3c-0.9,0.6-2,0.9-3.1,0.8c-1.1,0.1-2.3-0.2-3.3-0.7v-1.5c0.5,0.3,1.1,0.5,1.7,0.6
		c0.6,0.1,1.1,0.2,1.7,0.2c0.7,0,1.3-0.1,2-0.4c0.7-0.4,0.9-1.3,0.5-1.9c-0.1-0.1-0.2-0.3-0.3-0.4c-0.7-0.4-1.4-0.8-2.1-1.1
		c-0.7-0.3-1.5-0.6-2.1-1c-0.4-0.2-0.7-0.6-0.9-0.9c-0.2-0.4-0.3-0.8-0.3-1.3c0-0.8,0.4-1.6,1.1-2.1c0.9-0.5,1.9-0.8,2.9-0.8
		c1.2,0,2.3,0.2,3.4,0.7l-0.6,1.3c-0.9-0.4-1.9-0.6-2.9-0.7c-0.6,0-1.2,0.1-1.7,0.4c-0.4,0.2-0.6,0.6-0.6,1c0,0.3,0.1,0.5,0.2,0.7
		c0.2,0.2,0.4,0.4,0.7,0.6c0.6,0.3,1.2,0.6,1.9,0.8c0.9,0.3,1.8,0.8,2.6,1.4C704.1,3209.8,704.4,3210.4,704.4,3211.1L704.4,3211.1z
		 M708.6,3214H707v-10.7h1.6V3214z M706.9,3200.4c0-0.3,0.1-0.6,0.3-0.8c0.4-0.3,1-0.3,1.4,0c0.2,0.2,0.3,0.5,0.3,0.8
		c0,0.3-0.1,0.6-0.3,0.8c-0.4,0.4-1,0.4-1.4,0C706.9,3201,706.8,3200.7,706.9,3200.4z M720.8,3203.3v1l-2,0.2
		c0.5,0.6,0.7,1.4,0.7,2.1c0,1-0.4,1.9-1.1,2.5c-0.8,0.7-1.9,1-2.9,0.9c-0.3,0-0.6,0-0.9-0.1c-0.6,0.2-1,0.8-1,1.4
		c0,0.3,0.1,0.5,0.4,0.6c0.4,0.2,0.8,0.2,1.2,0.2h1.9c0.9-0.1,1.9,0.2,2.7,0.7c0.6,0.5,1,1.3,0.9,2.1c0,1.1-0.5,2.1-1.4,2.7
		c-1.3,0.7-2.7,1-4.2,0.9c-1.1,0.1-2.3-0.2-3.2-0.8c-0.7-0.5-1.2-1.3-1.1-2.2c0-0.6,0.2-1.2,0.6-1.7c0.5-0.5,1.1-0.8,1.8-1
		c-0.3-0.1-0.5-0.3-0.7-0.6c-0.2-0.3-0.3-0.6-0.3-0.9c0-0.4,0.1-0.7,0.3-1c0.3-0.3,0.6-0.6,1-0.9c-0.6-0.2-1-0.6-1.4-1.2
		c-0.4-0.6-0.5-1.2-0.5-1.9c-0.1-1,0.3-2,1.1-2.7c0.8-0.7,1.9-1,3-1c0.5,0,1,0.1,1.5,0.2L720.8,3203.3z M712.3,3215.8
		c0,0.5,0.3,1,0.7,1.3c0.6,0.3,1.4,0.5,2.1,0.4c1,0.1,2.1-0.1,3-0.6c0.6-0.3,1-1,1-1.7c0.1-0.5-0.2-0.9-0.5-1.2
		c-0.6-0.3-1.3-0.4-2-0.3h-1.9c-0.6,0-1.2,0.1-1.7,0.5C712.5,3214.7,712.2,3215.2,712.3,3215.8L712.3,3215.8z M713.2,3206.7
		c0,0.6,0.2,1.3,0.6,1.7c0.5,0.4,1.1,0.6,1.8,0.6c1.1,0.2,2.2-0.6,2.4-1.7c0-0.2,0-0.4,0-0.6c0.2-1.2-0.6-2.2-1.8-2.4
		c-0.2,0-0.4,0-0.6,0c-0.6,0-1.3,0.2-1.8,0.6C713.3,3205.4,713.1,3206.1,713.2,3206.7L713.2,3206.7z M724.5,3203.3v6.9
		c-0.1,0.7,0.2,1.4,0.6,2c0.5,0.5,1.2,0.7,1.9,0.6c0.9,0.1,1.8-0.3,2.5-0.9c0.6-0.9,0.9-1.9,0.8-3v-5.6h1.6v10.7h-1.3l-0.2-1.4h-0.1
		c-0.3,0.5-0.8,0.9-1.4,1.2c-0.6,0.3-1.3,0.4-2,0.4c-1.1,0.1-2.1-0.3-2.9-0.9c-0.7-0.8-1.1-1.9-1-3v-7L724.5,3203.3z M736.9,3214
		h-1.6v-10.7h1.6V3214z M735.1,3200.4c0-0.3,0.1-0.6,0.3-0.8c0.4-0.3,1-0.3,1.4,0c0.2,0.2,0.3,0.5,0.3,0.8c0,0.3-0.1,0.6-0.3,0.8
		c-0.4,0.4-1,0.4-1.4,0C735.2,3201,735.1,3200.7,735.1,3200.4z M744.9,3214.2c-1.4,0.1-2.8-0.5-3.7-1.4c-1-1.1-1.5-2.5-1.4-4
		c-0.1-1.5,0.4-2.9,1.3-4.1c0.8-1,2.1-1.6,3.4-1.5c1.2-0.1,2.4,0.4,3.2,1.3c0.8,1,1.2,2.2,1.2,3.5v1h-7.4c0,1,0.3,2.1,1,2.9
		c0.7,0.7,1.6,1,2.5,1c1.2,0,2.3-0.3,3.4-0.7v1.4c-0.5,0.2-1.1,0.4-1.6,0.5C746.1,3214.2,745.5,3214.2,744.9,3214.2L744.9,3214.2z
		 M744.4,3204.5c-0.8,0-1.5,0.3-2.1,0.8c-0.5,0.7-0.9,1.5-0.9,2.3h5.6c0.1-0.8-0.2-1.7-0.7-2.3
		C745.9,3204.7,745.2,3204.4,744.4,3204.5L744.4,3204.5z M758.9,3214v-6.9c0.1-0.7-0.2-1.4-0.6-2c-0.5-0.5-1.2-0.7-1.9-0.6
		c-0.9-0.1-1.8,0.3-2.5,0.9c-0.6,0.9-0.9,1.9-0.8,3v5.6h-1.6v-10.7h1.3l0.3,1.5h0.1c0.3-0.5,0.8-1,1.4-1.2c0.6-0.3,1.3-0.4,2-0.4
		c1.1-0.1,2.1,0.3,2.9,0.9c0.7,0.8,1.1,1.9,1,3v7H758.9z M767.3,3212.9c0.3,0,0.6,0,0.8-0.1c0.2,0,0.4-0.1,0.6-0.1v1.2
		c-0.2,0.1-0.5,0.2-0.8,0.2c-0.3,0.1-0.6,0.1-0.9,0.1c-2.1,0-3.1-1.1-3.1-3.3v-6.4h-1.5v-0.8l1.5-0.7l0.7-2.3h0.9v2.5h3.1v1.3h-3.1
		v6.3c0,0.5,0.1,1.1,0.5,1.5C766.4,3212.7,766.8,3212.9,767.3,3212.9z M775.4,3214.2c-1.4,0.1-2.8-0.5-3.7-1.4c-1-1.1-1.5-2.5-1.4-4
		c-0.1-1.5,0.4-2.9,1.3-4.1c0.8-1,2.1-1.6,3.4-1.5c1.2-0.1,2.4,0.4,3.2,1.3c0.8,1,1.2,2.2,1.2,3.5v1H772c0,1,0.3,2.1,1,2.9
		c0.7,0.7,1.6,1,2.5,1c1.2,0,2.3-0.3,3.4-0.7v1.4c-0.5,0.2-1.1,0.4-1.6,0.5C776.7,3214.2,776,3214.2,775.4,3214.2L775.4,3214.2z
		 M775,3204.5c-0.8,0-1.5,0.3-2.1,0.8c-0.5,0.7-0.9,1.5-0.9,2.3h5.6c0.1-0.8-0.2-1.7-0.7-2.3C776.4,3204.7,775.7,3204.4,775,3204.5z
		 M789,3211.1c0,0.9-0.4,1.8-1.1,2.3c-0.9,0.6-2,0.9-3.1,0.8c-1.1,0.1-2.3-0.2-3.3-0.7v-1.5c0.5,0.3,1.1,0.5,1.7,0.6
		c0.6,0.1,1.1,0.2,1.7,0.2c0.7,0,1.3-0.1,2-0.4c0.7-0.4,0.9-1.3,0.5-1.9c-0.1-0.1-0.2-0.3-0.3-0.4c-0.7-0.4-1.4-0.8-2.1-1.1
		c-0.7-0.3-1.5-0.6-2.1-1c-0.4-0.2-0.7-0.6-0.9-0.9c-0.2-0.4-0.3-0.8-0.3-1.3c0-0.8,0.4-1.6,1.1-2.1c0.9-0.5,1.9-0.8,2.9-0.8
		c1.2,0,2.3,0.2,3.4,0.7l-0.6,1.3c-0.9-0.4-1.9-0.6-2.9-0.7c-0.6,0-1.2,0.1-1.7,0.4c-0.4,0.2-0.6,0.6-0.6,1c0,0.3,0.1,0.5,0.2,0.7
		c0.2,0.2,0.4,0.4,0.7,0.6c0.6,0.3,1.2,0.6,1.9,0.8c0.9,0.3,1.8,0.8,2.6,1.4C788.8,3209.8,789,3210.4,789,3211.1z M804.2,3214v-6.9
		c0.1-0.7-0.2-1.4-0.6-2c-0.5-0.5-1.2-0.7-1.9-0.6c-0.9-0.1-1.8,0.3-2.5,0.9c-0.6,0.9-0.9,1.9-0.8,3v5.6h-1.6v-10.7h1.3l0.3,1.5h0.1
		c0.3-0.5,0.8-1,1.4-1.2c0.6-0.3,1.3-0.4,2-0.4c1.1-0.1,2.1,0.3,2.9,0.9c0.7,0.8,1.1,1.9,1,3v7H804.2z M810.7,3203.3v6.9
		c-0.1,0.7,0.2,1.4,0.6,2c0.5,0.5,1.2,0.7,1.9,0.6c0.9,0.1,1.8-0.3,2.5-0.9c0.6-0.9,0.9-1.9,0.8-3v-5.6h1.6v10.7h-1.3l-0.2-1.4h-0.1
		c-0.3,0.5-0.8,0.9-1.4,1.2c-0.6,0.3-1.3,0.4-2,0.4c-1.1,0.1-2.1-0.3-2.9-0.9c-0.7-0.8-1.1-1.9-1-3v-7L810.7,3203.3z M812.4,3201.6
		c0.3-0.4,0.6-0.9,1-1.5c0.3-0.5,0.6-1,0.9-1.5h2v0.2c-0.4,0.6-0.8,1.1-1.3,1.6c-0.5,0.5-1,1-1.5,1.4h-1.1L812.4,3201.6z M835,3214
		v-7c0.1-0.7-0.1-1.4-0.5-1.9c-0.4-0.5-1.1-0.7-1.7-0.6c-0.8-0.1-1.7,0.3-2.2,0.9c-0.5,0.8-0.8,1.7-0.7,2.7v6h-1.6v-7
		c0.1-0.7-0.1-1.4-0.5-1.9c-0.4-0.5-1.1-0.7-1.7-0.6c-0.8-0.1-1.7,0.3-2.2,0.9c-0.5,0.9-0.8,1.9-0.7,3v5.6h-1.6v-10.7h1.3l0.3,1.5
		h0.1c0.3-0.5,0.8-0.9,1.3-1.2c0.6-0.3,1.2-0.4,1.9-0.4c1.7,0,2.8,0.6,3.3,1.8h0.1c0.3-0.6,0.8-1,1.4-1.3c0.6-0.3,1.4-0.5,2.1-0.5
		c1-0.1,2,0.3,2.7,0.9c0.7,0.8,1,1.9,0.9,3v7H835z M844.5,3214.2c-1.4,0.1-2.8-0.5-3.7-1.4c-1-1.1-1.5-2.5-1.4-4
		c-0.1-1.5,0.4-2.9,1.3-4.1c0.8-1,2.1-1.6,3.4-1.5c1.2-0.1,2.4,0.4,3.2,1.3c0.8,1,1.2,2.2,1.2,3.5v1h-7.4c0,1,0.3,2.1,1,2.9
		c0.7,0.7,1.6,1,2.5,1c1.2,0,2.3-0.3,3.4-0.7v1.4c-0.5,0.2-1.1,0.4-1.6,0.5C845.8,3214.2,845.1,3214.2,844.5,3214.2z M844.1,3204.5
		c-0.8,0-1.5,0.3-2.1,0.8c-0.5,0.7-0.9,1.5-0.9,2.3h5.6c0.1-0.8-0.2-1.7-0.7-2.3C845.6,3204.7,844.8,3204.4,844.1,3204.5
		L844.1,3204.5z M856.1,3203.1c0.4,0,0.9,0,1.3,0.1l-0.2,1.5c-0.4-0.1-0.8-0.1-1.2-0.1c-0.9,0-1.7,0.4-2.2,1.1
		c-0.6,0.7-1,1.7-0.9,2.6v5.7h-1.6v-10.7h1.3l0.2,2h0.1c0.3-0.6,0.8-1.2,1.4-1.6C854.8,3203.3,855.4,3203.1,856.1,3203.1z
		 M868.6,3208.6c0.1,1.5-0.4,2.9-1.3,4.1c-0.9,1-2.3,1.5-3.6,1.5c-0.9,0-1.8-0.2-2.5-0.7c-0.8-0.5-1.4-1.1-1.7-1.9
		c-0.4-0.9-0.6-1.9-0.6-2.9c-0.1-1.5,0.4-2.9,1.3-4.1c0.9-1,2.3-1.5,3.6-1.5c1.4-0.1,2.7,0.5,3.6,1.5
		C868.2,3205.7,868.7,3207.2,868.6,3208.6L868.6,3208.6z M860.5,3208.6c-0.1,1.1,0.2,2.2,0.8,3.1c1.2,1.3,3.3,1.4,4.6,0.2
		c0.1-0.1,0.2-0.1,0.2-0.2c0.6-0.9,0.9-2,0.8-3.1c0.1-1.1-0.2-2.2-0.8-3.1c-0.6-0.7-1.5-1.1-2.4-1.1c-0.9-0.1-1.8,0.3-2.4,1
		C860.7,3206.4,860.4,3207.5,860.5,3208.6L860.5,3208.6z M878.4,3211.1c0,0.9-0.4,1.8-1.1,2.3c-0.9,0.6-2,0.9-3.1,0.8
		c-1.1,0.1-2.3-0.2-3.3-0.7v-1.5c0.5,0.3,1.1,0.5,1.7,0.6c0.6,0.1,1.1,0.2,1.7,0.2c0.7,0,1.3-0.1,2-0.4c0.7-0.4,0.9-1.3,0.5-1.9
		c-0.1-0.1-0.2-0.3-0.3-0.4c-0.7-0.4-1.4-0.8-2.1-1c-0.7-0.3-1.5-0.6-2.1-1c-0.4-0.2-0.7-0.6-0.9-0.9c-0.2-0.4-0.3-0.8-0.3-1.3
		c0-0.8,0.4-1.6,1.1-2.1c0.9-0.5,1.9-0.8,2.9-0.8c1.2,0,2.3,0.2,3.4,0.7l-0.6,1.3c-0.9-0.4-1.9-0.6-2.9-0.7c-0.6,0-1.2,0.1-1.7,0.4
		c-0.4,0.2-0.6,0.6-0.6,1c0,0.3,0.1,0.5,0.2,0.7c0.2,0.2,0.4,0.4,0.7,0.6c0.6,0.3,1.2,0.6,1.9,0.8c0.9,0.3,1.8,0.8,2.6,1.4
		C878.2,3209.8,878.4,3210.4,878.4,3211.1L878.4,3211.1z M880.8,3213c0-0.4,0.1-0.7,0.3-1c0.2-0.2,0.5-0.4,0.9-0.3
		c0.3,0,0.7,0.1,0.9,0.3c0.2,0.3,0.3,0.6,0.3,1c0,0.4-0.1,0.7-0.3,1c-0.5,0.4-1.2,0.5-1.7,0C880.9,3213.7,880.7,3213.3,880.8,3213
		L880.8,3213z M880.8,3204.3c0-0.9,0.4-1.3,1.2-1.3c0.8,0,1.2,0.4,1.2,1.3c0,0.4-0.1,0.7-0.3,1c-0.5,0.4-1.2,0.5-1.7,0
		C880.9,3205.1,880.7,3204.7,880.8,3204.3L880.8,3204.3z"/>
	<path id="Trazado_24008" class="st1" d="M470,3267.7c-0.1-0.8,0.2-1.7,0.7-2.3c0.5-0.6,1.3-0.8,2.1-0.8c0.8,0,1.5,0.2,2.1,0.8
		c0.5,0.6,0.8,1.5,0.7,2.3c0.1,0.8-0.2,1.7-0.7,2.3c-0.5,0.6-1.3,0.9-2.1,0.8c-0.8,0-1.5-0.2-2.1-0.8
		C470.2,3269.3,469.9,3268.5,470,3267.7z M495.2,3275h-3v-8.3l0-1.4l0-1.5c-0.5,0.5-0.8,0.8-1,1l-1.6,1.3l-1.5-1.8l4.6-3.7h2.5V3275
		z M504,3260.5c1.2-0.1,2.3,0.3,3.3,0.9c0.8,0.6,1.3,1.5,1.3,2.5c0,0.7-0.2,1.4-0.6,1.9c-0.5,0.7-1.2,1.2-2,1.5
		c0.9,0.4,1.7,1,2.3,1.8c0.5,0.6,0.7,1.3,0.7,2c0,1.1-0.5,2.2-1.4,2.8c-1.1,0.8-2.3,1.1-3.6,1.1c-1.3,0.1-2.6-0.3-3.7-1
		c-0.9-0.7-1.4-1.7-1.3-2.8c0-0.8,0.2-1.5,0.6-2.2c0.5-0.7,1.3-1.3,2.1-1.7c-0.7-0.4-1.3-1-1.8-1.7c-0.4-0.6-0.5-1.2-0.5-1.9
		c0-1,0.5-1.9,1.3-2.5C501.7,3260.8,502.9,3260.5,504,3260.5z M501.8,3271.2c0,0.5,0.2,1,0.6,1.3c1,0.6,2.3,0.6,3.3,0
		c0.4-0.3,0.6-0.8,0.6-1.3c0-0.5-0.2-0.9-0.6-1.2c-0.5-0.5-1.1-0.9-1.8-1.2C502.5,3269.4,501.8,3270.2,501.8,3271.2z M504,3262.7
		c-0.4,0-0.9,0.1-1.2,0.4c-0.3,0.3-0.5,0.7-0.5,1.1c0,0.4,0.1,0.8,0.4,1.1c0.4,0.4,0.8,0.7,1.4,1c0.5-0.2,1-0.5,1.3-0.9
		c0.3-0.3,0.4-0.7,0.4-1.1c0-0.4-0.2-0.8-0.5-1.1C504.9,3262.9,504.5,3262.7,504,3262.7L504,3262.7z M514.2,3272.9
		c-0.4,1.6-1,3.2-1.7,4.7h-2.1c0.4-1.7,0.8-3.4,1-4.9h2.7L514.2,3272.9z M531.8,3272h-1.7v3h-2.9v-3h-6.1v-2.1l6.3-9.2h2.8v9h1.7
		V3272z M527.2,3269.7v-2.4c0-0.4,0-1,0-1.8c0-0.8,0.1-1.2,0.1-1.3h-0.1c-0.2,0.5-0.5,1.1-0.9,1.6l-2.6,4H527.2z M538.2,3265.9
		c1.2-0.1,2.4,0.4,3.3,1.2c0.8,0.8,1.3,2,1.2,3.2c0.1,1.4-0.5,2.7-1.5,3.7c-1.2,0.9-2.7,1.4-4.2,1.3c-1.3,0.1-2.6-0.2-3.8-0.8v-2.6
		c1.2,0.6,2.4,0.9,3.7,0.9c1.8,0,2.8-0.8,2.8-2.3c0-1.4-1-2.2-2.9-2.2c-0.4,0-0.8,0-1.1,0.1c-0.3,0.1-0.7,0.1-1,0.2l-1.2-0.6
		l0.5-7.3h7.7v2.6h-5.1l-0.3,2.8l0.3-0.1C537.2,3265.9,537.7,3265.9,538.2,3265.9z M470,3294.7c-0.1-0.8,0.2-1.7,0.7-2.3
		c0.5-0.6,1.3-0.8,2.1-0.8c0.8,0,1.5,0.2,2.1,0.8c0.5,0.6,0.8,1.5,0.7,2.3c0.1,0.8-0.2,1.7-0.7,2.3c-0.5,0.6-1.3,0.9-2.1,0.8
		c-0.8,0-1.5-0.2-2.1-0.8C470.2,3296.3,469.9,3295.5,470,3294.7z M497.7,3302h-10v-2.1l3.6-3.6c1.1-1.1,1.8-1.8,2.1-2.3
		c0.3-0.4,0.5-0.7,0.7-1.2c0.1-0.4,0.2-0.7,0.2-1.1c0-0.5-0.1-0.9-0.5-1.3c-0.4-0.3-0.8-0.4-1.3-0.4c-0.6,0-1.1,0.1-1.6,0.4
		c-0.6,0.3-1.1,0.7-1.6,1.1l-1.6-1.9c0.5-0.5,1.1-0.9,1.7-1.3c0.5-0.3,1-0.4,1.5-0.6c0.6-0.1,1.2-0.2,1.8-0.2c0.8,0,1.6,0.2,2.4,0.5
		c0.6,0.3,1.2,0.8,1.6,1.4c0.4,0.6,0.6,1.3,0.6,2c0,0.6-0.1,1.3-0.3,1.9c-0.3,0.6-0.6,1.2-1.1,1.8c-0.8,0.9-1.6,1.8-2.6,2.6
		l-1.8,1.7v0.1h6.2L497.7,3302z M500.5,3302l5.4-11.7h-7v-2.5h10.2v1.9l-5.4,12.4H500.5z M514.2,3299.9c-0.4,1.6-1,3.2-1.7,4.7h-2.1
		c0.4-1.7,0.8-3.4,1-4.9h2.7L514.2,3299.9z M523.8,3302h-3v-8.3l0-1.4l0-1.5c-0.5,0.5-0.8,0.8-1,1l-1.6,1.3l-1.5-1.8l4.6-3.7h2.5
		V3302z M527.7,3295.9c0-2.8,0.6-4.9,1.8-6.3c1.4-1.5,3.4-2.2,5.4-2.1c0.6,0,1.3,0,1.9,0.1v2.4c-0.6-0.1-1.1-0.2-1.7-0.2
		c-0.9,0-1.7,0.1-2.5,0.5c-0.6,0.3-1.1,0.8-1.5,1.4c-0.4,0.8-0.6,1.7-0.6,2.6h0.1c0.6-1.1,1.8-1.7,3.1-1.7c1.1-0.1,2.2,0.4,3,1.2
		c0.8,0.9,1.2,2.1,1.1,3.3c0.1,1.3-0.4,2.6-1.3,3.6c-1,0.9-2.2,1.4-3.6,1.3c-1,0-1.9-0.2-2.8-0.7c-0.8-0.5-1.4-1.3-1.8-2.1
		C527.8,3298.3,527.6,3297.1,527.7,3295.9L527.7,3295.9z M532.8,3299.8c0.6,0,1.1-0.2,1.5-0.6c0.4-0.5,0.6-1.2,0.5-1.9
		c0-0.6-0.1-1.2-0.5-1.6c-0.4-0.4-0.9-0.6-1.5-0.6c-0.6,0-1.1,0.2-1.6,0.6c-0.4,0.3-0.6,0.9-0.6,1.4c0,0.7,0.2,1.4,0.6,2
		C531.6,3299.5,532.2,3299.8,532.8,3299.8L532.8,3299.8z M470,3321.7c-0.1-0.8,0.2-1.7,0.7-2.3c0.5-0.6,1.3-0.8,2.1-0.8
		c0.8,0,1.5,0.2,2.1,0.8c1,1.4,1,3.2,0,4.6c-0.5,0.6-1.3,0.9-2.1,0.8c-0.8,0-1.5-0.2-2.1-0.8C470.2,3323.3,469.9,3322.5,470,3321.7z
		 M497.1,3317.9c0,0.8-0.3,1.6-0.8,2.3c-0.6,0.7-1.4,1.1-2.3,1.3v0.1c1,0.1,1.9,0.4,2.6,1.1c0.6,0.6,0.9,1.4,0.9,2.3
		c0.1,1.2-0.5,2.4-1.5,3.2c-1.3,0.8-2.8,1.2-4.3,1.1c-1.4,0-2.8-0.2-4.1-0.8v-2.6c0.6,0.3,1.2,0.5,1.8,0.7c0.6,0.2,1.3,0.3,2,0.3
		c0.8,0.1,1.5-0.1,2.2-0.5c0.5-0.4,0.8-1,0.7-1.6c0-0.6-0.3-1.2-0.8-1.4c-0.8-0.3-1.7-0.5-2.6-0.4h-1.1v-2.3h1.1
		c0.8,0.1,1.7-0.1,2.4-0.4c0.5-0.3,0.8-0.9,0.8-1.5c0-1.1-0.7-1.6-2-1.6c-0.5,0-1,0.1-1.4,0.2c-0.6,0.2-1.1,0.5-1.6,0.8l-1.4-2.1
		c1.4-1,3-1.4,4.7-1.4c1.2-0.1,2.5,0.2,3.5,0.9C496.7,3316,497.2,3316.9,497.1,3317.9L497.1,3317.9z M499,3322.9
		c0-2.8,0.6-4.9,1.8-6.3c1.4-1.5,3.4-2.2,5.4-2.1c0.6,0,1.3,0,1.9,0.1v2.4c-0.6-0.1-1.1-0.2-1.7-0.2c-0.9,0-1.7,0.1-2.5,0.5
		c-0.6,0.3-1.1,0.8-1.5,1.4c-0.4,0.8-0.6,1.7-0.6,2.6h0.1c0.6-1.1,1.8-1.7,3.1-1.7c1.1-0.1,2.2,0.4,3,1.2c0.8,0.9,1.2,2.1,1.1,3.3
		c0.1,1.3-0.4,2.6-1.3,3.6c-1,0.9-2.2,1.4-3.6,1.3c-1,0-1.9-0.2-2.8-0.7c-0.8-0.5-1.4-1.3-1.8-2.1
		C499.2,3325.3,499,3324.1,499,3322.9L499,3322.9z M504.2,3326.8c0.6,0,1.1-0.2,1.5-0.6c0.4-0.5,0.6-1.2,0.5-1.9
		c0-0.6-0.1-1.2-0.5-1.6c-0.4-0.4-0.9-0.6-1.5-0.6c-0.6,0-1.1,0.2-1.6,0.6c-0.4,0.3-0.6,0.9-0.6,1.4c0,0.7,0.2,1.4,0.6,2
		C503,3326.5,503.6,3326.8,504.2,3326.8L504.2,3326.8z M514.2,3326.9c-0.4,1.6-1,3.2-1.7,4.7h-2.1c0.4-1.7,0.8-3.4,1-4.9h2.7
		L514.2,3326.9z M531.5,3329h-10v-2.1l3.6-3.6c1.1-1.1,1.8-1.8,2.1-2.3c0.3-0.4,0.5-0.7,0.7-1.2c0.1-0.4,0.2-0.7,0.2-1.1
		c0-0.5-0.1-0.9-0.5-1.3c-0.4-0.3-0.8-0.4-1.3-0.4c-0.6,0-1.1,0.1-1.6,0.4c-0.6,0.3-1.1,0.7-1.6,1.1l-1.6-1.9
		c0.5-0.5,1.1-0.9,1.7-1.3c0.5-0.3,1-0.4,1.5-0.6c0.6-0.1,1.2-0.2,1.8-0.2c0.8,0,1.6,0.2,2.4,0.5c0.6,0.3,1.2,0.8,1.6,1.4
		c0.4,0.6,0.6,1.3,0.6,2c0,0.6-0.1,1.3-0.3,1.9c-0.3,0.6-0.6,1.2-1.1,1.8c-0.8,0.9-1.7,1.8-2.6,2.6l-1.8,1.7v0.1h6.2V3329z
		 M542.9,3321.9c0.1,1.9-0.3,3.9-1.2,5.5c-0.9,1.2-2.3,1.9-3.8,1.8c-1.5,0.1-2.9-0.6-3.7-1.9c-0.9-1.7-1.4-3.6-1.3-5.5
		c-0.1-1.9,0.3-3.9,1.2-5.6c1.6-2.1,4.6-2.4,6.7-0.8c0.3,0.2,0.6,0.5,0.8,0.8C542.5,3318,543,3319.9,542.9,3321.9L542.9,3321.9z
		 M535.9,3321.9c-0.1,1.3,0.1,2.5,0.5,3.8c0.2,0.7,0.8,1.1,1.5,1.1c0.7,0,1.3-0.5,1.5-1.2c0.4-1.2,0.5-2.5,0.5-3.8
		c0.1-1.3-0.1-2.6-0.5-3.8c-0.2-0.8-1.1-1.3-2-1.1c-0.5,0.2-0.9,0.6-1.1,1.1C536,3319.3,535.8,3320.6,535.9,3321.9L535.9,3321.9z
		 M548.1,3326.9c-0.4,1.6-1,3.2-1.7,4.7h-2.1c0.4-1.7,0.8-3.4,1-4.9h2.7L548.1,3326.9z M565.3,3320.8c0,2.8-0.6,4.9-1.8,6.3
		c-1.4,1.5-3.4,2.2-5.4,2.1c-0.6,0-1.3,0-1.9-0.1v-2.4c0.6,0.1,1.1,0.2,1.7,0.2c0.9,0,1.7-0.1,2.5-0.4c0.6-0.3,1.2-0.8,1.5-1.4
		c0.4-0.8,0.6-1.7,0.6-2.6h-0.1c-0.3,0.5-0.8,1-1.3,1.3c-0.6,0.3-1.2,0.4-1.9,0.4c-1.1,0.1-2.2-0.4-2.9-1.2
		c-0.8-0.9-1.1-2.1-1.1-3.3c-0.1-1.3,0.4-2.6,1.3-3.6c0.9-0.9,2.2-1.4,3.6-1.3c1,0,1.9,0.2,2.8,0.7c0.8,0.5,1.4,1.3,1.8,2.2
		C565.1,3318.5,565.3,3319.7,565.3,3320.8z M560.1,3317c-0.6,0-1.1,0.2-1.5,0.6c-0.4,0.5-0.6,1.2-0.5,1.9c0,0.6,0.1,1.2,0.5,1.6
		c0.4,0.4,0.9,0.6,1.5,0.6c0.6,0,1.1-0.2,1.6-0.6c0.4-0.3,0.6-0.8,0.7-1.4c0-0.7-0.2-1.4-0.6-2C561.3,3317.3,560.7,3317,560.1,3317
		L560.1,3317z M576.7,3321.9c0.1,1.9-0.3,3.9-1.2,5.5c-0.9,1.2-2.3,1.9-3.8,1.8c-1.5,0.1-2.9-0.6-3.7-1.9c-0.9-1.7-1.4-3.6-1.3-5.5
		c-0.1-1.9,0.3-3.9,1.2-5.6c1.6-2.1,4.6-2.4,6.7-0.8c0.3,0.2,0.6,0.5,0.8,0.8C576.4,3318,576.8,3319.9,576.7,3321.9z M569.7,3321.9
		c-0.1,1.3,0.1,2.5,0.5,3.8c0.2,0.7,0.8,1.1,1.5,1.1c0.7,0,1.3-0.5,1.5-1.2c0.4-1.2,0.5-2.5,0.5-3.8c0.1-1.3-0.1-2.6-0.5-3.8
		c-0.2-0.8-1.1-1.3-2-1.1c-0.5,0.2-0.9,0.6-1.1,1.1C569.8,3319.3,569.6,3320.6,569.7,3321.9L569.7,3321.9z M470,3348.7
		c-0.1-0.8,0.2-1.7,0.7-2.3c0.5-0.6,1.3-0.8,2.1-0.8c0.8,0,1.5,0.2,2.1,0.8c1,1.4,1,3.2,0,4.6c-0.5,0.6-1.3,0.9-2.1,0.8
		c-0.8,0-1.5-0.2-2.1-0.8C470.2,3350.3,469.9,3349.5,470,3348.7z M498,3353h-1.7v3h-2.9v-3h-6.1v-2.1l6.3-9.2h2.8v9h1.7V3353z
		 M493.3,3350.7v-2.4c0-0.4,0-1,0-1.8c0-0.8,0.1-1.2,0.1-1.3h-0.1c-0.2,0.5-0.5,1.1-0.9,1.6l-2.6,4H493.3z M504.3,3346.9
		c1.2-0.1,2.4,0.4,3.3,1.2c0.8,0.8,1.3,2,1.2,3.2c0.1,1.4-0.5,2.7-1.5,3.7c-1.2,0.9-2.7,1.4-4.2,1.3c-1.3,0.1-2.6-0.2-3.8-0.8v-2.6
		c1.2,0.6,2.4,0.9,3.7,0.9c1.8,0,2.8-0.8,2.8-2.3c0-1.4-1-2.2-2.9-2.2c-0.4,0-0.8,0-1.1,0.1c-0.3,0.1-0.7,0.1-1,0.2l-1.2-0.6
		l0.5-7.3h7.7v2.6h-5.1l-0.3,2.8l0.3-0.1C503.3,3346.9,503.8,3346.9,504.3,3346.9L504.3,3346.9z M514.2,3353.9
		c-0.4,1.6-1,3.2-1.7,4.7h-2.1c0.4-1.7,0.8-3.4,1-4.9h2.7L514.2,3353.9z M526.7,3346.9c1.2-0.1,2.4,0.4,3.3,1.2
		c0.8,0.8,1.3,2,1.2,3.2c0.1,1.4-0.5,2.7-1.5,3.7c-1.2,0.9-2.7,1.4-4.2,1.3c-1.3,0.1-2.6-0.2-3.8-0.8v-2.6c1.2,0.6,2.4,0.9,3.7,0.9
		c1.8,0,2.8-0.8,2.8-2.3c0-1.4-1-2.2-2.9-2.2c-0.4,0-0.8,0-1.1,0.1c-0.3,0.1-0.7,0.1-1,0.2l-1.2-0.6l0.5-7.3h7.7v2.6h-5.1l-0.3,2.8
		l0.3-0.1C525.7,3346.9,526.2,3346.9,526.7,3346.9L526.7,3346.9z M543.3,3353h-1.7v3h-2.9v-3h-6.1v-2.1l6.3-9.2h2.8v9h1.7
		L543.3,3353z M538.6,3350.7v-2.4c0-0.4,0-1,0-1.8c0-0.8,0.1-1.2,0.1-1.3h-0.1c-0.2,0.5-0.5,1.1-0.9,1.6l-2.6,4H538.6z
		 M548.1,3353.9c-0.4,1.6-1,3.2-1.7,4.7h-2.1c0.4-1.7,0.8-3.4,1-4.9h2.7L548.1,3353.9z M555.3,3349.9c0-2.8,0.6-4.9,1.8-6.3
		c1.4-1.5,3.4-2.2,5.4-2.1c0.6,0,1.3,0,1.9,0.1v2.4c-0.6-0.1-1.1-0.2-1.7-0.2c-0.9,0-1.7,0.1-2.5,0.5c-0.6,0.3-1.1,0.8-1.5,1.4
		c-0.4,0.8-0.6,1.7-0.6,2.6h0.1c0.6-1.1,1.8-1.7,3.1-1.7c1.1-0.1,2.2,0.4,3,1.2c0.8,0.9,1.2,2.1,1.1,3.3c0.1,1.3-0.4,2.6-1.3,3.6
		c-1,0.9-2.2,1.4-3.6,1.3c-1,0-1.9-0.2-2.8-0.7c-0.8-0.5-1.4-1.3-1.8-2.1C555.5,3352.2,555.2,3351.1,555.3,3349.9L555.3,3349.9z
		 M560.4,3353.8c0.6,0,1.1-0.2,1.5-0.6c0.4-0.5,0.6-1.2,0.5-1.9c0-0.6-0.1-1.2-0.5-1.6c-0.4-0.4-0.9-0.6-1.5-0.6
		c-0.6,0-1.1,0.2-1.6,0.6c-0.4,0.3-0.6,0.9-0.6,1.4c0,0.7,0.2,1.4,0.6,2C559.2,3353.5,559.8,3353.8,560.4,3353.8z M576.7,3348.9
		c0.1,1.9-0.3,3.8-1.2,5.5c-0.9,1.2-2.3,1.9-3.8,1.8c-1.5,0.1-2.9-0.6-3.7-1.9c-0.9-1.7-1.4-3.6-1.3-5.5c-0.1-1.9,0.3-3.9,1.2-5.6
		c1.6-2.1,4.6-2.4,6.7-0.8c0.3,0.2,0.6,0.5,0.8,0.8C576.4,3345,576.8,3346.9,576.7,3348.9z M569.7,3348.9c-0.1,1.3,0.1,2.5,0.5,3.8
		c0.2,0.7,0.8,1.1,1.5,1.1c0.7,0,1.3-0.5,1.5-1.2c0.4-1.2,0.5-2.5,0.5-3.8c0.1-1.3-0.1-2.6-0.5-3.8c-0.2-0.8-1.1-1.3-2-1.1
		c-0.5,0.2-0.9,0.6-1.1,1.1C569.8,3346.3,569.6,3347.6,569.7,3348.9L569.7,3348.9z M470,3375.7c-0.1-0.8,0.2-1.7,0.7-2.3
		c0.5-0.6,1.3-0.8,2.1-0.8c0.8,0,1.5,0.2,2.1,0.8c1,1.4,1,3.2,0,4.6c-0.5,0.6-1.3,0.9-2.1,0.8c-0.8,0-1.5-0.2-2.1-0.8
		C470.2,3377.3,469.9,3376.5,470,3375.7z M489.1,3383l5.4-11.7h-7v-2.5h10.2v1.9l-5.4,12.4H489.1z M509.1,3383h-10v-2.1l3.6-3.6
		c1.1-1.1,1.8-1.8,2.1-2.3c0.3-0.4,0.5-0.7,0.7-1.2c0.1-0.4,0.2-0.7,0.2-1.1c0-0.5-0.1-0.9-0.5-1.3c-0.4-0.3-0.8-0.4-1.3-0.4
		c-0.6,0-1.1,0.1-1.6,0.4c-0.6,0.3-1.1,0.7-1.6,1.1l-1.6-1.9c0.5-0.5,1.1-0.9,1.7-1.3c0.5-0.3,1-0.4,1.5-0.6
		c0.6-0.1,1.2-0.2,1.8-0.2c0.8,0,1.6,0.2,2.4,0.5c0.6,0.3,1.2,0.8,1.6,1.4c0.4,0.6,0.6,1.3,0.6,2c0,0.6-0.1,1.3-0.3,1.9
		c-0.3,0.6-0.6,1.2-1.1,1.8c-0.8,0.9-1.6,1.8-2.6,2.6l-1.8,1.7v0.1h6.2L509.1,3383z M520.4,3375.9c0.1,1.9-0.3,3.9-1.2,5.5
		c-0.9,1.2-2.3,1.9-3.8,1.8c-1.5,0.1-2.9-0.6-3.7-1.9c-0.9-1.7-1.4-3.6-1.3-5.5c-0.1-1.9,0.3-3.9,1.2-5.6c0.9-1.2,2.3-1.9,3.8-1.8
		c1.5-0.1,2.9,0.6,3.7,1.9C520.1,3372,520.6,3373.9,520.4,3375.9z M513.5,3375.9c-0.1,1.3,0.1,2.5,0.5,3.8c0.2,0.7,0.8,1.1,1.5,1.1
		c0.7,0,1.3-0.5,1.5-1.2c0.6-2.5,0.6-5.1,0-7.5c-0.2-0.8-1.1-1.3-2-1.1c-0.5,0.2-0.9,0.6-1.1,1.1
		C513.6,3373.3,513.4,3374.6,513.5,3375.9z M525.6,3380.9c-0.4,1.6-1,3.2-1.7,4.7h-2.1c0.4-1.7,0.8-3.4,1-4.9h2.7L525.6,3380.9z
		 M532.9,3376.9c0-2.8,0.6-4.9,1.8-6.3c1.4-1.5,3.4-2.2,5.4-2.1c0.6,0,1.3,0,1.9,0.1v2.4c-0.6-0.1-1.1-0.2-1.7-0.2
		c-0.9,0-1.7,0.1-2.5,0.5c-0.6,0.3-1.1,0.8-1.5,1.4c-0.4,0.8-0.6,1.7-0.6,2.6h0.1c0.6-1.1,1.8-1.7,3.1-1.7c1.1-0.1,2.2,0.4,3,1.2
		c0.8,0.9,1.2,2.1,1.1,3.3c0.1,1.3-0.4,2.6-1.3,3.6c-1,0.9-2.2,1.4-3.6,1.3c-1,0-1.9-0.2-2.8-0.7c-0.8-0.5-1.4-1.3-1.8-2.1
		C533,3379.2,532.8,3378.1,532.9,3376.9L532.9,3376.9z M538,3380.8c0.6,0,1.1-0.2,1.5-0.6c0.4-0.5,0.6-1.2,0.5-1.9
		c0-0.6-0.1-1.2-0.5-1.6c-0.4-0.4-0.9-0.6-1.5-0.6c-0.6,0-1.1,0.2-1.6,0.6c-0.4,0.3-0.6,0.9-0.6,1.4c0,0.7,0.2,1.4,0.6,2
		C536.8,3380.5,537.4,3380.8,538,3380.8z M554.3,3375.9c0.1,1.9-0.3,3.8-1.2,5.5c-0.9,1.2-2.3,1.9-3.8,1.8c-1.5,0.1-2.9-0.6-3.7-1.9
		c-0.9-1.7-1.4-3.6-1.3-5.5c-0.1-1.9,0.3-3.9,1.2-5.6c1.6-2.1,4.6-2.4,6.7-0.8c0.3,0.2,0.6,0.5,0.8,0.8
		C554,3372,554.4,3373.9,554.3,3375.9L554.3,3375.9z M547.3,3375.9c-0.1,1.3,0.1,2.5,0.5,3.8c0.2,0.7,0.8,1.1,1.5,1.1
		c0.7,0,1.3-0.5,1.5-1.2c0.6-2.5,0.6-5.1,0-7.5c-0.2-0.8-1.1-1.3-2-1.1c-0.5,0.2-0.9,0.6-1.1,1.1
		C547.4,3373.3,547.2,3374.6,547.3,3375.9L547.3,3375.9z M565.7,3375.9c0.1,1.9-0.3,3.8-1.2,5.5c-0.9,1.2-2.3,1.9-3.8,1.8
		c-1.5,0.1-2.9-0.6-3.7-1.9c-0.9-1.7-1.4-3.6-1.3-5.5c-0.1-1.9,0.3-3.9,1.2-5.6c1.6-2.1,4.6-2.4,6.7-0.8c0.3,0.2,0.6,0.5,0.8,0.8
		C565.4,3372,565.8,3373.9,565.7,3375.9L565.7,3375.9z M558.7,3375.9c-0.1,1.3,0.1,2.5,0.5,3.8c0.2,0.7,0.8,1.1,1.5,1.1
		c0.7,0,1.3-0.5,1.5-1.2c0.6-2.5,0.6-5.1,0-7.5c-0.2-0.8-1.1-1.3-2-1.1c-0.5,0.2-0.9,0.6-1.1,1.1
		C558.8,3373.3,558.6,3374.6,558.7,3375.9L558.7,3375.9z M570.9,3380.9c-0.4,1.6-1,3.2-1.7,4.7H567c0.4-1.7,0.8-3.4,1-4.9h2.7
		L570.9,3380.9z M583.4,3373.9c1.2-0.1,2.4,0.4,3.3,1.2c0.8,0.8,1.3,2,1.2,3.2c0.1,1.4-0.5,2.7-1.5,3.7c-1.2,0.9-2.7,1.4-4.2,1.3
		c-1.3,0.1-2.6-0.2-3.8-0.8v-2.6c1.2,0.6,2.4,0.9,3.7,0.9c1.8,0,2.8-0.8,2.8-2.3c0-1.4-1-2.2-2.9-2.2c-0.4,0-0.8,0-1.1,0.1
		c-0.3,0.1-0.7,0.1-1,0.2l-1.2-0.6l0.5-7.3h7.7v2.6h-5.1l-0.3,2.8l0.3-0.1C582.4,3373.9,582.9,3373.9,583.4,3373.9L583.4,3373.9z
		 M599.9,3380h-1.7v3h-3v-3h-6.1v-2.1l6.3-9.2h2.8v9h1.7L599.9,3380z M595.3,3377.7v-2.4c0-0.4,0-1,0-1.8c0-0.8,0.1-1.2,0.1-1.3
		h-0.1c-0.2,0.5-0.5,1.1-0.9,1.6l-2.6,4H595.3z M610.9,3375.9c0.1,1.9-0.3,3.8-1.2,5.5c-0.9,1.2-2.3,1.9-3.8,1.8
		c-1.5,0.1-2.9-0.6-3.7-1.9c-0.9-1.7-1.4-3.6-1.3-5.5c-0.1-1.9,0.3-3.9,1.2-5.6c1.6-2.1,4.6-2.4,6.7-0.8c0.3,0.2,0.6,0.5,0.8,0.8
		C610.6,3372,611.1,3373.9,610.9,3375.9L610.9,3375.9z M604,3375.9c-0.1,1.3,0.1,2.5,0.5,3.8c0.2,0.7,0.8,1.1,1.5,1.1
		c0.7,0,1.3-0.5,1.5-1.2c0.6-2.5,0.6-5.1,0-7.5c-0.2-0.8-1.1-1.3-2-1.1c-0.5,0.2-0.9,0.6-1.1,1.1
		C604,3373.3,603.9,3374.6,604,3375.9L604,3375.9z"/>
	<path id="Trazado_24001" class="st2" d="M418.1,3125.2c-0.2-4.3,3.2-8,7.6-8.2c4.3-0.2,8,3.2,8.2,7.6c0,0.2,0,0.3,0,0.5
		c0,18.4,0,36.8,0,55.2c0,0.2,0,0.5,0,0.8c-5.2-3.7-10.4-3.8-15.6,0c0-0.4-0.1-0.6-0.1-0.9C418.1,3161.8,418.1,3143.5,418.1,3125.2z
		"/>
	<path id="Trazado_24002" class="st3" d="M370.3,3195.4c0,0.3-0.4,0.8-0.7,0.9c-1.1,0.2-2.2,0.4-3.3,0.5c-1.3,0-2.4,0.9-2.7,2.1
		c-0.5,1.3-1,2.6-1.6,3.9c-0.9,1.9,1.7,5.3,2.4,6.1c0.3,0.4,0.2,1-0.1,1.3c-0.6,0.6-1.3,1.2-2,1.7c-0.8,0.6-1.2-0.1-1.6-0.3
		c-3.1-2.2-4.2-2.6-5.4-2.1c-1.7,0.8-3.3,1.3-4.8,2.1c-0.6,0.3-0.9,1.4-1.1,2.2c-0.3,1-0.4,2-0.5,3c-0.1,0.8-0.4,1-1.2,1
		c-3,0.1-3,0.1-3.5-2.8c-0.1-0.4-0.1-0.9-0.2-1.3c0-1.2-0.9-2.3-2.1-2.6c-0.6-0.1-1.1-0.3-1.6-0.6c-4.3-1.6-4.7-0.9-4.7-0.9
		l-3.9,2.8l-3.2-3.1c0.8-1.1,1.6-2.2,2.5-3.3c0.9-0.9,1-2.3,0.3-3.4c-0.5-0.9-1-1.9-1.4-2.8l0,0c-1.2-2.4-4.1-3.1-5.3-3.3
		c-0.2,0-0.3,0-0.5-0.1l0,0c-0.2-0.1-0.5-0.1-0.7-0.3c-0.2-0.1-0.3-0.4-0.3-0.6c-0.1-0.9-0.1-1.9,0-2.8c0.1-0.3,0.4-0.6,0.7-0.7
		c1.1-0.2,2.2-0.4,3.3-0.5c1.3,0,2.4-0.9,2.7-2.2c0.4-1.3,1-2.6,1.6-3.9c0.6-1,0.5-2.2-0.2-3.1c-0.9-1.1-1.7-2.3-2.6-3.5l3-2.9
		c1.1,0.8,2.2,1.6,3.3,2.5c0.9,0.7,2.1,0.8,3.1,0.2c1.2-0.6,2.5-1.2,3.9-1.6c1.2-0.3,2.1-1.4,2.1-2.7c0.1-1,0.3-1.9,0.4-2.9
		c0.1-1,0.6-1.2,1.5-1.1c0.3,0,0.7,0,1,0c0.6,0.1,1.7,0.1,1.8,0.5c0.1,0.3,0.2,0.6,0.3,1l0,0c0.8,4.7,2.2,5.1,2.2,5.1v0
		c0.2,0,0.4,0.1,0.6,0.2c1.2,0.5,2.4,0.9,3.5,1.5c1,0.7,2.3,0.6,3.2-0.2c0.9-0.7,1.9-1.4,2.7-2.1c0.3-0.3,0.8-0.4,1.2-0.1
		c0.1,0.1,0.1,0.1,0.2,0.2c0.7,0.8,1.5,1.4,2.2,2.1c-0.6,1.2-1.4,2.4-2.4,3.4l0,0c-0.6,0.7-0.7,1.6-0.5,2.4l0.8,2.2l0,0
		c0.4,1,0.7,1.8,0.9,2.7c0.2,1.2,1.3,2.1,2.6,2.1c1.1,0.1,2.1,0.3,3.2,0.5c0.2,0,0.4,0,0.5,0.1
		C370.9,3193.1,370.2,3194.3,370.3,3195.4z"/>
	<path id="Trazado_24003" class="st4" d="M425.9,3198.1c-16.5,0-33,0-49.5,0h-1.8v-5.9h7.4c4.4,0,4.4,0,4.4-4.3v-1.6h5.9
		c0,1.1,0,2.3,0,3.5c0,1.6,0.7,2.4,2.3,2.4c3.8,0,7.5,0,11.3,0c1.1,0.2,2.1-0.6,2.3-1.7c0-0.2,0-0.4,0-0.6c0-3.8,0-7.5,0-11.3
		c0.2-1.1-0.6-2.1-1.7-2.3c-0.2,0-0.4,0-0.6,0c-3.8,0-7.6,0-11.4,0c-1.1-0.1-2.1,0.7-2.2,1.8c0,0.2,0,0.3,0,0.5c0,1.2,0,2.4,0,3.6
		h-5.9c0-0.9,0-1.9,0-2.8c0-2.6-0.5-3.1-3.1-3.1h-2.8v-5.9h2.3c3.3,0,3.6-0.3,3.6-3.6v-2.3h5.9c0,1.2,0,2.3,0,3.4
		c0,1.7,0.7,2.4,2.4,2.4c3.7,0,7.4,0,11.1,0c1.6,0,2.3-0.7,2.3-2.4c0-3.7,0-7.4,0-11.1c0-1.6-0.7-2.3-2.3-2.4c-1.1,0-2.3,0-3.6,0
		v-5.9c1.2,0,2.4,0,3.6,0c1.6,0,2.4-0.7,2.4-2.3c0-3.7,0-7.4,0-11.1c0-1.6-0.7-2.4-2.3-2.4c-3.8,0-7.5,0-11.3,0
		c-1.1-0.2-2.1,0.6-2.3,1.7c0,0.2,0,0.4,0,0.6c0,1.2,0,2.3,0,3.6h-5.9c0-1.2,0-2.4,0-3.6c0.2-1.1-0.6-2.1-1.7-2.3
		c-0.2,0-0.4,0-0.6,0c-3.8,0-7.5,0-11.3,0c-1.6,0-2.3,0.7-2.3,2.4c0,1.1,0,2.1,0,3.2c0,0.1-0.1,0.2-0.1,0.3h-5.8c0-1.3,0-2.5,0-3.6
		c0-1.6-0.7-2.3-2.3-2.3c-3.8,0-7.6,0-11.4,0c-1.1-0.1-2.1,0.6-2.2,1.7c0,0.2,0,0.3,0,0.5c0,3.8,0,7.6,0,11.4
		c-0.1,1.1,0.6,2.1,1.7,2.2c0.2,0,0.3,0,0.5,0c3.8,0,7.7,0,11.5,0c1.1,0.1,2-0.7,2.1-1.8c0-0.1,0-0.3,0-0.4c0-1.2,0-2.4,0-3.7h5.9
		c0,1.1,0,2.3,0,3.5c0,1.6,0.7,2.4,2.3,2.4c3.8,0,7.5,0,11.3,0c1.1,0.2,2.1-0.6,2.3-1.7c0-0.2,0-0.4,0-0.6c0-1.2,0-2.3,0-3.5h5.9
		c0,1.2,0,2.4,0,3.6c-0.1,1.1,0.6,2.1,1.8,2.3c0.2,0,0.4,0,0.5,0c1.1,0,2.2,0,3.3,0c0.1,0,0.1,0,0.2,0.1v5.8h-3.2
		c-2,0-2.6,0.7-2.6,2.7c0,1,0,2.1,0,3.2h-5.9c0-1.2,0-2.3,0-3.5c0-1.6-0.7-2.4-2.3-2.4c-3.8,0-7.5,0-11.3,0
		c-1.1-0.2-2.1,0.6-2.3,1.7c0,0.2,0,0.4,0,0.6c0,3.8,0,7.5,0,11.3c0,1.6,0.7,2.3,2.4,2.3c1.1,0,2.3,0,3.5,0v5.9c-1.1,0-2.1,0-3.2,0
		c-2,0-2.7,0.6-2.7,2.6c0,2.8,0,5.7,0,8.5c0,0.1,0,0.2-0.1,0.3c-0.2,0-0.4,0-0.5,0c-2.3-0.3-3.1-1-3.5-3.2c0-0.4,0.1-0.7,0.3-1
		c0.8-1.1,1.7-2.2,2.5-3.4c0.8-0.8,0.8-2.1,0-2.9c-0.1-0.1-0.2-0.2-0.3-0.2c-1.7-1.7-3.4-3.5-5.2-5.2c-0.7-0.9-1.9-1.1-2.8-0.4
		c-0.1,0.1-0.2,0.1-0.3,0.2c-1.1,0.8-2.2,1.6-3.3,2.5c-0.5,0.4-1.1,0.5-1.7,0.2c-1.7-0.3-2.9-1.8-2.7-3.6c0-0.8-0.2-1.6-0.3-2.4
		c0-1.1-1-2-2.1-2c-0.1,0-0.1,0-0.2,0c-2.5,0-5,0-7.6,0V3127H414v61.6c0,0.2,0,0.5,0,0.7c0,1.9,0.6,2.8,1.9,2.9
		c1.3,0,1.9-0.8,2.1-2.7c0.4-4.4,4.2-7.6,8.5-7.2c4.4,0.4,7.6,4.2,7.2,8.5C433.5,3195,430,3198.2,425.9,3198.1L425.9,3198.1z"/>
	<path id="Trazado_24004" class="st5" d="M374.6,3188.1v-7.6h7.6v7.6H374.6z"/>
	<path id="Trazado_24005" class="st6" d="M396.4,3188.2v-7.7h7.7c0,2.4,0,4.8,0,7.1c0,0.2-0.5,0.5-0.7,0.5
		C401,3188.2,398.8,3188.2,396.4,3188.2z"/>
	<path id="Trazado_24006" class="st5" d="M374.6,3166.3v-7.7h7.6v7.7H374.6z"/>
	<path id="Trazado_24007" class="st5" d="M396.4,3166.4v-7.7h7.6v7.7H396.4z"/>
	<path id="Trazado_24000" d="M437.8,3178.3c0-17.8,0-35.6,0-53.3c0.1-5-3.1-9.5-7.8-11.3c-4.7-1.8-9.9-0.4-13.1,3.5
		c-1.2,1.8-2.3,3.7-3.2,5.6h-71.2c-0.1-0.5-0.2-0.9-0.4-1.3c-1.9-6.3-8.5-9.8-14.8-7.9c-5.1,1.5-8.6,6.3-8.4,11.6
		c0,20.3,0,40.5,0,60.8c0,3.9,0,7.8,0,11.8c-0.2,1.1,0.6,2.2,1.7,2.4c0.1,0,0.2,0,0.4,0c0.8,0.2,1.5,0.3,2.3,0.3
		c2-0.1,3,0.9,3.6,2.7c0.3,0.6,0.2,1.3-0.2,1.8c-0.9,1.1-1.7,2.2-2.5,3.4c-0.7,0.8-0.6,2,0.2,2.7c0,0,0,0,0,0
		c1.8,1.9,3.7,3.7,5.5,5.5c0.7,0.8,1.9,0.9,2.7,0.2c0,0,0,0,0,0c0.7-0.4,1.4-0.9,2-1.5c1.4-1.4,2.8-1.8,4.7-0.7
		c0.6,0.2,0.9,0.7,1,1.3c0.2,1.4,0.4,2.8,0.6,4.2c0.1,1.1,1,1.9,2.1,1.9c0,0,0,0,0,0c2.6,0,5.1,0,7.7,0c1.1,0.1,2-0.7,2.1-1.8
		c0,0,0,0,0,0c0.2-0.8,0.3-1.7,0.4-2.6c-0.1-2,0.9-3,2.7-3.6c0.6-0.3,1.3-0.2,1.8,0.3c1,0.8,2.1,1.6,3.2,2.4c0.8,0.8,2,0.8,2.8,0.1
		c0.1-0.1,0.2-0.2,0.2-0.3c1.7-1.7,3.5-3.4,5.2-5.2c1-1,1.1-1.9,0.2-3.1c-0.7-1-1.4-2-2.2-3c-0.8-0.8-0.5-1.5-0.2-2.4
		c0.4-0.9,1.1-0.6,1.7-0.6c19.1,0,38.1,0,57.2,0c6.5,0.2,12-4.9,12.3-11.5c0-0.3,0-0.5,0-0.8C437.8,3186,437.8,3182.2,437.8,3178.3z
		 M418.1,3125.2c-0.2-4.3,3.2-8,7.6-8.2c4.3-0.2,8,3.2,8.2,7.6c0,0.2,0,0.3,0,0.5c0,18.4,0,36.8,0,55.2c0,0.2,0,0.5,0,0.8
		c-5.2-3.7-10.4-3.8-15.6,0c0-0.4-0.1-0.6-0.1-0.9C418.1,3161.8,418.1,3143.5,418.1,3125.2L418.1,3125.2z M323,3180.2
		c0-18.3,0-36.6,0-54.9c-0.2-4.3,3.2-8,7.5-8.2c4.3-0.2,8,3.2,8.2,7.5c0,0.1,0,0.3,0,0.4c0,6.5,0,13,0,19.5c0,9.4,0,18.8,0,28.2
		c0,0.5,0.2,1.1-0.6,1.4c-0.7,0.2-1.3,0.7-2.1,0c-1-0.9-2.1-1.7-3.2-2.5c-0.8-0.8-2.1-0.8-2.9,0c-0.1,0.1-0.1,0.1-0.2,0.2
		c-1.6,1.6-3.1,3.2-4.7,4.7c-1.1,1.1-1.8,2.2-0.7,3.7l-1.2,0.9L323,3180.2z M326,3187.1c-0.3,0.6-1.6,0.6-2.5,0.7
		c0.5-1.8,1.7-3.4,3.3-4.4C327.6,3185,326.5,3186.1,326,3187.1L326,3187.1z M370.3,3195.4c0,0.3-0.4,0.8-0.7,0.9
		c-1.1,0.2-2.2,0.4-3.3,0.5c-1.3,0-2.4,0.9-2.7,2.1c-0.5,1.3-1,2.6-1.6,3.9c-0.9,1.9,1.7,5.3,2.4,6.1c0.3,0.4,0.2,1-0.1,1.3
		c-0.6,0.6-1.3,1.2-2,1.7c-0.8,0.6-1.2-0.1-1.6-0.3c-3.1-2.2-4.2-2.6-5.4-2.1c-1.7,0.8-3.3,1.3-4.8,2.1c-0.6,0.3-0.9,1.4-1.1,2.2
		c-0.3,1-0.4,2-0.5,3c-0.1,0.8-0.4,1-1.2,1c-3,0.1-3,0.1-3.5-2.8c-0.1-0.4-0.1-0.9-0.2-1.3c0-1.2-0.9-2.3-2.1-2.6
		c-0.6-0.1-1.1-0.3-1.6-0.6c-4.3-1.6-4.7-0.9-4.7-0.9l-3.9,2.8l-3.2-3.1c0.8-1.1,1.6-2.2,2.5-3.3c0.9-0.9,1-2.3,0.3-3.4
		c-0.5-0.9-1-1.9-1.4-2.8l0,0c-1.2-2.4-4.1-3.1-5.3-3.3c-0.2,0-0.3,0-0.5-0.1l0,0c-0.2-0.1-0.5-0.1-0.7-0.3
		c-0.2-0.1-0.3-0.4-0.3-0.6c-0.1-0.9-0.1-1.9,0-2.8c0.1-0.3,0.4-0.6,0.7-0.7c1.1-0.2,2.2-0.4,3.3-0.5c1.3,0,2.4-0.9,2.7-2.2
		c0.4-1.3,1-2.6,1.6-3.9c0.6-1,0.5-2.2-0.2-3.1c-0.9-1.1-1.7-2.3-2.6-3.5l3-2.9c1.1,0.8,2.2,1.6,3.3,2.5c0.9,0.7,2.1,0.8,3.1,0.2
		c1.2-0.6,2.5-1.2,3.9-1.6c1.2-0.3,2.1-1.4,2.1-2.7c0.1-1,0.3-1.9,0.4-2.9c0.1-1,0.6-1.2,1.5-1.1c0.3,0,0.7,0,1,0
		c0.6,0.1,1.7,0.1,1.8,0.5c0.1,0.3,0.2,0.6,0.3,1l0,0c0.8,4.7,2.2,5.1,2.2,5.1v0c0.2,0,0.4,0.1,0.6,0.2c1.2,0.5,2.4,0.9,3.5,1.5
		c1,0.6,2.3,0.6,3.2-0.2c0.9-0.7,1.9-1.4,2.7-2.1c0.3-0.3,0.8-0.4,1.2-0.1c0.1,0.1,0.1,0.1,0.2,0.2c0.7,0.8,1.5,1.4,2.2,2.1
		c-0.6,1.2-1.4,2.4-2.4,3.4l0,0c-0.6,0.7-0.7,1.6-0.5,2.4l0.8,2.2l0,0c0.4,1,0.7,1.8,0.9,2.7c0.2,1.2,1.3,2.1,2.6,2.1
		c1.1,0.1,2.1,0.3,3.2,0.5c0.2,0,0.4,0,0.5,0.1C370.9,3193.1,370.2,3194.3,370.3,3195.4L370.3,3195.4z M425.9,3198.1
		c-16.5,0-33,0-49.5,0h-1.8v-5.9h7.4c4.4,0,4.4,0,4.4-4.3v-1.6h5.9c0,1.1,0,2.3,0,3.5c0,1.6,0.7,2.4,2.3,2.4c3.8,0,7.5,0,11.3,0
		c1.1,0.2,2.1-0.6,2.3-1.7c0-0.2,0-0.4,0-0.6c0-3.8,0-7.5,0-11.3c0.2-1.1-0.6-2.1-1.7-2.3c-0.2,0-0.4,0-0.6,0c-3.8,0-7.6,0-11.4,0
		c-1.1-0.1-2.1,0.7-2.2,1.8c0,0.2,0,0.3,0,0.5c0,1.2,0,2.4,0,3.6h-5.9c0-0.9,0-1.9,0-2.8c0-2.6-0.5-3.1-3.1-3.1h-2.8v-5.9h2.3
		c3.3,0,3.6-0.3,3.6-3.6v-2.3h5.9c0,1.2,0,2.3,0,3.4c0,1.7,0.7,2.4,2.4,2.4c3.7,0,7.4,0,11.1,0c1.6,0,2.3-0.7,2.3-2.4
		c0-3.7,0-7.4,0-11.1c0-1.6-0.7-2.3-2.3-2.4c-1.1,0-2.3,0-3.6,0v-5.9c1.2,0,2.4,0,3.6,0c1.6,0,2.4-0.7,2.4-2.3c0-3.7,0-7.4,0-11.1
		c0-1.6-0.7-2.4-2.3-2.4c-3.8,0-7.5,0-11.3,0c-1.1-0.2-2.1,0.6-2.3,1.7c0,0.2,0,0.4,0,0.6c0,1.2,0,2.3,0,3.6h-5.9c0-1.2,0-2.4,0-3.6
		c0.2-1.1-0.6-2.1-1.7-2.3c-0.2,0-0.4,0-0.6,0c-3.8,0-7.5,0-11.3,0c-1.6,0-2.3,0.7-2.3,2.4c0,1.1,0,2.1,0,3.2c0,0.1-0.1,0.2-0.1,0.3
		h-5.7c0-1.3,0-2.5,0-3.6c0-1.6-0.7-2.3-2.3-2.3c-3.8,0-7.6,0-11.4,0c-1.1-0.1-2.1,0.6-2.2,1.7c0,0.2,0,0.3,0,0.5
		c0,3.8,0,7.6,0,11.4c-0.1,1.1,0.6,2.1,1.7,2.2c0.2,0,0.3,0,0.5,0c3.8,0,7.7,0,11.5,0c1.1,0.1,2-0.7,2.1-1.8c0-0.1,0-0.3,0-0.4
		c0-1.2,0-2.4,0-3.7h5.9c0,1.1,0,2.3,0,3.5c0,1.6,0.7,2.4,2.3,2.4c3.8,0,7.5,0,11.3,0c1.1,0.2,2.1-0.6,2.3-1.7c0-0.2,0-0.4,0-0.6
		c0-1.2,0-2.3,0-3.5h5.9c0,1.2,0,2.4,0,3.6c-0.1,1.1,0.6,2.1,1.8,2.3c0.2,0,0.4,0,0.5,0c1.1,0,2.2,0,3.3,0c0.1,0,0.1,0,0.2,0.1v5.8
		h-3.2c-2,0-2.6,0.7-2.6,2.7c0,1,0,2.1,0,3.2h-5.9c0-1.2,0-2.3,0-3.5c0-1.6-0.7-2.4-2.3-2.4c-3.8,0-7.5,0-11.3,0
		c-1.1-0.2-2.1,0.6-2.3,1.7c0,0.2,0,0.4,0,0.6c0,3.8,0,7.5,0,11.3c0,1.6,0.7,2.3,2.4,2.3c1.1,0,2.3,0,3.5,0v5.9c-1.1,0-2.1,0-3.2,0
		c-2,0-2.7,0.6-2.7,2.6c0,2.8,0,5.7,0,8.5c0,0.1,0,0.2-0.1,0.3c-0.2,0-0.4,0-0.5,0c-2.3-0.3-3.1-1-3.5-3.2c0-0.4,0.1-0.7,0.3-1
		c0.8-1.1,1.7-2.2,2.5-3.4c0.8-0.8,0.8-2.1,0-2.9c-0.1-0.1-0.2-0.2-0.3-0.2c-1.7-1.7-3.4-3.5-5.2-5.2c-0.7-0.9-1.9-1.1-2.8-0.4
		c-0.1,0.1-0.2,0.1-0.3,0.2c-1.1,0.8-2.2,1.6-3.3,2.5c-0.5,0.4-1.1,0.5-1.7,0.2c-1.7-0.3-2.9-1.8-2.7-3.6c0-0.8-0.2-1.6-0.3-2.4
		c0-1.1-1-2-2.1-2c-0.1,0-0.1,0-0.2,0c-2.5,0-5,0-7.6,0V3127H414v61.6c0,0.2,0,0.5,0,0.7c0,1.9,0.6,2.8,1.9,2.9
		c1.3,0,1.9-0.8,2.1-2.7c0.4-4.4,4.2-7.6,8.5-7.2c4.4,0.4,7.6,4.2,7.2,8.5C433.5,3195,430,3198.2,425.9,3198.1L425.9,3198.1z
		 M374.6,3188.1v-7.6h7.6v7.6H374.6z M396.4,3188.2v-7.7h7.7c0,2.4,0,4.8,0,7.1c0,0.2-0.5,0.5-0.7,0.5
		C401,3188.2,398.8,3188.2,396.4,3188.2L396.4,3188.2z M374.6,3166.3v-7.7h7.6v7.7H374.6z M396.4,3166.4v-7.7h7.6v7.7H396.4z
		 M396.4,3144.6v-7.7h7.6v7.7H396.4z M382.2,3136.9v7.6h-7.7v-7.6H382.2z M360.5,3136.9v7.6h-7.6v-7.6H360.5z"/>
</g>
<rect x="254" y="85.4" class="st7" width="55.6" height="18.5"/>
<text transform="matrix(1 0 0 1 254.0015 101.0123)" class="st8 st9">m.c.</text>
</svg>
