<?xml version="1.0" encoding="utf-8"?>
<!-- Generator: Adobe Illustrator 24.3.0, SVG Export Plug-In . SVG Version: 6.00 Build 0)  -->
<svg version="1.1" id="Capa_1" xmlns="http://www.w3.org/2000/svg" xmlns:xlink="http://www.w3.org/1999/xlink" x="0px" y="0px"
	 viewBox="0 0 454 414" style="enable-background:new 0 0 454 414;" xml:space="preserve">
<style type="text/css">
	.st0{fill:#D5F4FC;}
	.st1{fill:#00223D;}
	.st2{fill:none;stroke:#0000FF;stroke-width:3.666;}
	.st3{fill:none;stroke:#0000FF;stroke-width:3.554;}
	.st4{fill:none;stroke:#FF8D00;stroke-width:1.777;stroke-miterlimit:10;}
	.st5{fill:#002B45;}
	.st6{fill:none;}
	.st7{fill:#FF8D00;}
	.st8{font-family:'MyriadPro-Regular';}
	.st9{font-size:21px;}
</style>
<g id="Grupo_14472" transform="translate(-786 -1516)">
	<path id="Trazado_23916" class="st0" d="M786,1516h454v414H786V1516z"/>
	<path id="Trazado_23917" class="st1" d="M838.6,1566.7c1.2-0.1,2.4,0.3,3.4,1c0.8,0.8,1.2,1.8,1.1,2.9c0,1.1-0.4,2.2-1.1,3
		c-0.8,0.8-1.9,1.2-3,1.2c-0.5,0-1.1-0.1-1.6-0.3c-0.5-0.2-0.9-0.4-1.3-0.7c-0.4-0.3-0.7-0.7-0.9-1.2c-0.2-0.5-0.3-1.1-0.3-1.7
		c0-0.2,0-0.4,0-0.6l1.6-0.1c0,0.2-0.1,0.5-0.1,0.7c0,0.4,0.1,0.8,0.2,1.2c0.1,0.3,0.3,0.6,0.6,0.8c0.2,0.2,0.5,0.3,0.8,0.4
		c0.3,0.1,0.6,0.1,0.9,0.1c0.7,0,1.4-0.2,1.9-0.8c0.5-0.5,0.8-1.2,0.7-1.9c0-0.7-0.2-1.4-0.8-2c-0.7-0.5-1.5-0.8-2.4-0.7h-3.1
		l0.8-5.7h6.5v1.4h-5.2l-0.4,3H838.6z M853.8,1570.8v1.4h-1.9v2.5h-1.5v-2.5h-5.9v-1.4l5.1-8.5h2.3v8.5H853.8z M846,1570.8h4.3v-7.4
		L846,1570.8z M844,1622.8c-1.2,0-2.4-0.6-3-1.6c-0.8-1.4-1.2-3.1-1.1-4.8c-0.1-1.6,0.3-3.3,1.1-4.7c0.7-1,1.8-1.7,3.1-1.6
		c1.2,0,2.4,0.6,3,1.6c0.8,1.4,1.2,3.1,1.1,4.7c0.1,1.7-0.3,3.3-1.1,4.7C846.4,1622.2,845.2,1622.8,844,1622.8z M844,1621.4
		c0.8,0,1.6-0.5,1.9-1.2c0.5-1.2,0.7-2.4,0.7-3.7c0.1-1.3-0.2-2.5-0.7-3.7c-0.3-0.7-1.1-1.2-1.9-1.2c-0.8,0-1.6,0.5-1.9,1.2
		c-0.5,1.2-0.8,2.4-0.7,3.7c-0.1,1.3,0.2,2.6,0.7,3.7C842.4,1620.9,843.2,1621.4,844,1621.4z"/>
	<path id="Trazado_23918" class="st1" d="M901.1,1571.5c0,0.8-0.2,1.5-0.6,2.2c-0.4,0.6-0.9,1.2-1.6,1.5c-0.7,0.4-1.4,0.5-2.1,0.5
		c-1.1,0-2.2-0.4-3.1-1.2c-0.8-0.8-1.3-1.9-1.2-3c0-1.1,0.4-2.1,1.1-3l4.1-5.4h1.8l-3.4,4.3c0.3-0.1,0.7-0.2,1.1-0.1
		c0.7,0,1.3,0.2,1.9,0.5c0.6,0.3,1.1,0.8,1.4,1.4C900.9,1570,901.1,1570.8,901.1,1571.5z M896.8,1574.4c0.8,0,1.5-0.3,2-0.8
		c0.5-0.6,0.8-1.3,0.8-2.1c0-0.8-0.3-1.5-0.8-2.1c-0.5-0.5-1.3-0.8-2-0.8c-0.8,0-1.5,0.3-2,0.8c-0.5,0.6-0.8,1.3-0.8,2.1
		c0,0.8,0.3,1.5,0.8,2.1C895.3,1574.1,896,1574.4,896.8,1574.4L896.8,1574.4z M896.8,1611.1c1.1,0,2.2,0.4,3.1,1.2
		c0.8,0.8,1.3,1.9,1.2,3c0,1.1-0.4,2.1-1.1,3l-4.1,5.4H894l3.4-4.3c-0.3,0.1-0.7,0.1-1,0.1c-0.7,0-1.3-0.2-1.9-0.5
		c-0.6-0.3-1.1-0.8-1.5-1.4c-0.4-0.7-0.6-1.4-0.6-2.2c0-0.6,0.1-1.2,0.3-1.7c0.2-0.5,0.5-1,0.9-1.4c0.4-0.4,0.9-0.7,1.4-0.9
		C895.6,1611.2,896.2,1611.1,896.8,1611.1L896.8,1611.1z M894.8,1617.5c0.5,0.5,1.3,0.8,2,0.8c0.8,0,1.5-0.3,2-0.8
		c0.5-0.6,0.8-1.3,0.8-2.1c0-0.8-0.3-1.5-0.8-2.1c-0.5-0.5-1.3-0.8-2-0.7c-0.8,0-1.5,0.3-2,0.8c-0.5,0.6-0.8,1.3-0.8,2.1
		C894,1616.2,894.3,1616.9,894.8,1617.5L894.8,1617.5z"/>
	<path id="Trazado_23919" class="st2" d="M871.4,1553v82.8"/>
	<path id="Trazado_23920" class="st2" d="M918,1594.4h-46.6"/>
	<path id="Trazado_23926" class="st1" d="M1037.3,1573.2h6.2v1.4h-8.3v-1.2l5-5.1c0.4-0.4,0.8-0.9,1.1-1.5c0.2-0.4,0.3-0.8,0.3-1.3
		c0-0.6-0.2-1.2-0.6-1.6c-0.4-0.4-1-0.6-1.6-0.6c-0.6,0-1.2,0.2-1.7,0.6c-0.5,0.6-0.7,1.3-0.6,2v0.9l-1.5-0.1v-0.8
		c-0.1-1.1,0.3-2.1,1-2.9c0.8-0.7,1.8-1.1,2.8-1c1,0,1.9,0.3,2.7,0.9c0.7,0.7,1.1,1.6,1.1,2.6c0,0.6-0.1,1.2-0.4,1.8
		c-0.4,0.7-0.8,1.3-1.3,1.8L1037.3,1573.2z M1049.4,1574.8c-1.2,0-2.4-0.6-3.1-1.6c-0.8-1.4-1.2-3.1-1.1-4.8
		c-0.1-1.6,0.3-3.3,1.1-4.7c0.7-1,1.8-1.7,3.1-1.6c1.2,0,2.4,0.6,3,1.6c0.8,1.4,1.2,3.1,1.1,4.7c0.1,1.7-0.3,3.3-1.1,4.7
		C1051.8,1574.2,1050.6,1574.8,1049.4,1574.8z M1049.4,1573.4c0.8,0,1.6-0.5,1.9-1.2c0.5-1.2,0.7-2.4,0.7-3.7
		c0.1-1.3-0.2-2.5-0.7-3.7c-0.3-0.7-1.1-1.2-1.9-1.2c-0.8,0-1.6,0.5-1.9,1.2c-0.5,1.2-0.8,2.4-0.7,3.7c-0.1,1.3,0.2,2.6,0.7,3.7
		C1047.8,1572.9,1048.6,1573.4,1049.4,1573.4z M1044.3,1622.8c-1.2,0-2.4-0.6-3.1-1.6c-0.8-1.4-1.2-3.1-1.1-4.8
		c-0.1-1.6,0.3-3.3,1.1-4.7c0.7-1,1.8-1.7,3.1-1.6c1.2,0,2.4,0.6,3.1,1.6c0.8,1.4,1.2,3.1,1.1,4.7c0.1,1.7-0.3,3.3-1.1,4.7
		C1046.7,1622.2,1045.6,1622.8,1044.3,1622.8z M1044.3,1621.4c0.8,0,1.6-0.5,1.9-1.2c0.5-1.2,0.7-2.4,0.7-3.7
		c0.1-1.3-0.2-2.5-0.7-3.7c-0.3-0.7-1.1-1.2-1.9-1.2c-0.8,0-1.6,0.5-1.9,1.2c-0.5,1.2-0.8,2.4-0.7,3.7c-0.1,1.3,0.2,2.6,0.7,3.7
		C1042.7,1620.9,1043.5,1621.4,1044.3,1621.4z"/>
	<path id="Trazado_23928" class="st1" d="M1092.1,1562.3h1.4v12.4h-1.5v-10.7l-3,2.6v-1.6L1092.1,1562.3z M1102.2,1574.8
		c-1.2,0-2.4-0.6-3.1-1.6c-0.8-1.4-1.2-3.1-1.1-4.8c-0.1-1.6,0.3-3.3,1.1-4.7c0.7-1,1.8-1.7,3.1-1.6c1.2,0,2.4,0.6,3,1.6
		c0.8,1.4,1.2,3.1,1.1,4.7c0.1,1.7-0.3,3.3-1.1,4.7C1104.6,1574.2,1103.4,1574.8,1102.2,1574.8z M1102.2,1573.4
		c0.8,0,1.6-0.5,1.9-1.2c0.5-1.2,0.7-2.4,0.7-3.7c0.1-1.3-0.2-2.5-0.7-3.7c-0.3-0.7-1.1-1.2-1.9-1.2c-0.8,0-1.6,0.5-1.9,1.2
		c-0.5,1.2-0.8,2.4-0.7,3.7c-0.1,1.3,0.2,2.6,0.7,3.7C1100.6,1572.9,1101.3,1573.4,1102.2,1573.4z M1095.1,1621.2h6.2v1.4h-8.3v-1.2
		l5-5.1c0.4-0.4,0.8-0.9,1.1-1.5c0.2-0.4,0.3-0.8,0.3-1.3c0-0.6-0.2-1.2-0.6-1.6c-0.4-0.4-1-0.6-1.6-0.6c-0.6,0-1.2,0.2-1.7,0.6
		c-0.5,0.6-0.7,1.3-0.6,2v0.9l-1.5-0.1v-0.8c-0.1-1.1,0.3-2.1,1-2.9c0.8-0.7,1.8-1.1,2.8-1c1,0,1.9,0.3,2.7,0.9
		c0.7,0.7,1.1,1.6,1.1,2.6c0,0.6-0.1,1.2-0.4,1.8c-0.4,0.7-0.8,1.3-1.3,1.8L1095.1,1621.2z"/>
	<path id="Trazado_23927" class="st2" d="M1071.7,1553v82.8"/>
	<path id="Trazado_23929" class="st2" d="M1118.4,1594.4h-46.6"/>
	<path id="Trazado_23921" class="st1" d="M936.7,1760.5c-2.7,0-4.1-1.5-4.1-4.4l1.5-0.1c-0.1,0.8,0.1,1.6,0.6,2.3
		c0.5,0.6,1.2,0.9,2,0.8c0.7,0,1.4-0.2,1.9-0.7c0.5-0.4,0.8-1.1,0.7-1.7c0-0.7-0.2-1.3-0.7-1.7c-0.5-0.4-1.1-0.7-1.8-0.6h-0.6v-1.3
		h0.6c0.5,0,1-0.2,1.4-0.6c0.4-0.4,0.6-0.9,0.6-1.4c0-0.5-0.2-1-0.6-1.4c-0.4-0.4-1-0.5-1.5-0.5c-0.3,0-0.7,0.1-1,0.2
		c-0.3,0.1-0.5,0.3-0.6,0.5c-0.1,0.2-0.3,0.5-0.3,0.8c-0.1,0.3-0.1,0.7-0.1,1l-1.5-0.1c-0.1-1,0.3-2,0.9-2.8c0.7-0.7,1.7-1.1,2.6-1
		c0.9,0,1.8,0.3,2.5,0.9c0.7,0.6,1,1.4,1,2.2c0,0.6-0.2,1.1-0.5,1.6c-0.3,0.4-0.7,0.8-1.2,1c0.7,0.2,1.3,0.6,1.7,1.1
		c0.5,0.6,0.7,1.3,0.7,2.1c0,1-0.4,2-1.2,2.7C938.9,1760.2,937.8,1760.6,936.7,1760.5z M949.9,1759.5c-0.8,0.7-1.9,1.1-3,1
		c-1.1,0-2.2-0.3-3-1c-0.8-0.7-1.2-1.7-1.2-2.7c0-0.7,0.2-1.4,0.6-2c0.4-0.6,1-1,1.7-1.2c-0.5-0.2-0.9-0.6-1.2-1.1
		c-0.3-0.4-0.5-1-0.5-1.5c0-0.9,0.4-1.7,1-2.3c0.7-0.6,1.6-0.9,2.5-0.9c0.9,0,1.8,0.3,2.5,0.9c0.7,0.6,1,1.4,1,2.2
		c0,0.5-0.1,1.1-0.4,1.5c-0.3,0.5-0.7,0.8-1.2,1.1c0.7,0.2,1.3,0.7,1.7,1.2c0.4,0.6,0.6,1.3,0.6,2
		C951.2,1757.9,950.7,1758.9,949.9,1759.5z M946.9,1753.1c0.6,0,1.1-0.2,1.5-0.6c0.4-0.4,0.6-0.9,0.6-1.4c0-0.5-0.2-1-0.6-1.4
		c-0.4-0.4-0.9-0.6-1.5-0.6c-0.6,0-1.1,0.2-1.5,0.6c-0.4,0.4-0.6,0.9-0.6,1.4c0,0.5,0.2,1.1,0.6,1.4
		C945.8,1752.9,946.4,1753.1,946.9,1753.1L946.9,1753.1z M946.9,1759.1c0.7,0,1.4-0.2,1.9-0.7c0.5-0.5,0.8-1.1,0.8-1.8
		c0-0.7-0.3-1.3-0.8-1.8c-0.5-0.5-1.2-0.7-1.9-0.7c-0.7,0-1.4,0.2-1.9,0.7c-0.5,0.4-0.8,1.1-0.8,1.8c0,0.7,0.3,1.3,0.8,1.8
		C945.6,1758.9,946.2,1759.2,946.9,1759.1L946.9,1759.1z M957.1,1760.5c-1.2,0-2.4-0.6-3-1.6c-0.8-1.4-1.2-3.1-1.1-4.8
		c-0.1-1.6,0.3-3.3,1.1-4.7c0.7-1,1.8-1.7,3.1-1.6c1.2,0,2.4,0.6,3,1.6c0.8,1.4,1.2,3.1,1.1,4.7c0.1,1.7-0.3,3.3-1.1,4.7
		C959.5,1760,958.3,1760.6,957.1,1760.5z M957.1,1759.1c0.8,0,1.6-0.5,1.9-1.2c0.5-1.2,0.7-2.4,0.7-3.7c0.1-1.3-0.2-2.5-0.7-3.7
		c-0.3-0.7-1.1-1.2-1.9-1.2c-0.8,0-1.6,0.5-1.9,1.2c-0.5,1.2-0.8,2.4-0.7,3.7c-0.1,1.3,0.2,2.6,0.7,3.7
		C955.5,1758.7,956.2,1759.1,957.1,1759.1z M949.9,1807.5c-0.8,0.7-1.9,1.1-3,1c-1.1,0-2.2-0.3-3-1c-0.8-0.7-1.2-1.7-1.2-2.7
		c0-0.7,0.2-1.4,0.6-2c0.4-0.6,1-1,1.7-1.2c-0.5-0.2-0.9-0.6-1.2-1.1c-0.3-0.4-0.5-1-0.5-1.5c0-0.9,0.4-1.7,1-2.3
		c0.7-0.6,1.6-0.9,2.5-0.9c0.9,0,1.8,0.3,2.5,0.9c0.7,0.6,1,1.4,1,2.2c0,0.5-0.1,1.1-0.4,1.5c-0.3,0.5-0.7,0.8-1.2,1.1
		c0.7,0.2,1.3,0.7,1.7,1.3c0.4,0.6,0.6,1.3,0.6,2C951.2,1805.9,950.7,1806.9,949.9,1807.5z M946.9,1801.1c0.6,0,1.1-0.2,1.5-0.6
		c0.4-0.4,0.6-0.9,0.6-1.4c0-0.5-0.2-1-0.6-1.4c-0.4-0.4-0.9-0.6-1.5-0.6c-0.6,0-1.1,0.2-1.5,0.6c-0.4,0.4-0.6,0.9-0.6,1.4
		c0,0.5,0.2,1.1,0.6,1.4C945.8,1800.9,946.4,1801.1,946.9,1801.1L946.9,1801.1z M946.9,1807.1c0.7,0,1.4-0.2,1.9-0.7
		c0.5-0.5,0.8-1.1,0.8-1.8c0-0.7-0.3-1.3-0.8-1.8c-0.5-0.5-1.2-0.7-1.9-0.7c-0.7,0-1.4,0.2-1.9,0.7c-0.5,0.4-0.8,1.1-0.8,1.8
		c0,0.7,0.3,1.3,0.8,1.8C945.6,1806.9,946.2,1807.2,946.9,1807.1L946.9,1807.1z"/>
	<path id="Trazado_23922" class="st1" d="M991.1,1747h1.4v12.4H991v-10.7l-3,2.6v-1.6L991.1,1747z M999.1,1758h6.2v1.4h-8.3v-1.2
		l5-5.1c0.4-0.4,0.8-0.9,1.1-1.5c0.2-0.4,0.3-0.8,0.3-1.3c0-0.6-0.2-1.2-0.6-1.6c-0.4-0.4-1-0.6-1.6-0.6c-0.6,0-1.2,0.2-1.7,0.6
		c-0.5,0.6-0.7,1.3-0.6,2v0.9l-1.5-0.1v-0.8c-0.1-1.1,0.3-2.1,1-2.9c0.8-0.7,1.8-1.1,2.8-1c1,0,1.9,0.3,2.7,0.9
		c0.7,0.7,1.1,1.6,1.1,2.6c0,0.6-0.1,1.2-0.4,1.8c-0.4,0.7-0.8,1.3-1.3,1.8L999.1,1758z M990.9,1807.5c-2.7,0-4.1-1.5-4.1-4.4
		l1.5-0.1c-0.1,0.8,0.1,1.6,0.6,2.3c0.5,0.6,1.2,0.9,2,0.8c0.7,0,1.4-0.2,1.9-0.7c0.5-0.4,0.8-1.1,0.7-1.8c0-0.7-0.2-1.3-0.7-1.7
		c-0.5-0.4-1.1-0.7-1.8-0.6h-0.6v-1.3h0.6c0.5,0,1-0.2,1.4-0.6c0.4-0.4,0.6-0.9,0.6-1.4c0-0.5-0.2-1-0.6-1.4c-0.4-0.4-1-0.5-1.5-0.5
		c-0.3,0-0.7,0.1-1,0.2c-0.3,0.1-0.5,0.3-0.6,0.5c-0.1,0.2-0.3,0.5-0.3,0.8c-0.1,0.3-0.1,0.7-0.1,1l-1.5-0.1c-0.1-1,0.3-2,0.9-2.8
		c0.7-0.7,1.7-1.1,2.6-1c0.9,0,1.8,0.3,2.5,0.9c0.7,0.6,1,1.4,1,2.3c0,0.6-0.2,1.1-0.5,1.6c-0.3,0.4-0.7,0.8-1.2,1
		c0.7,0.2,1.3,0.6,1.7,1.1c0.5,0.6,0.7,1.3,0.7,2.1c0,1-0.4,2-1.2,2.7C993.1,1807.2,992,1807.6,990.9,1807.5z M1001.2,1795h1.4v12.4
		h-1.5v-10.7l-3,2.6v-1.6L1001.2,1795z"/>
	<path id="Trazado_23923" class="st3" d="M973.8,1737.7v82.8"/>
	<path id="Trazado_23924" class="st2" d="M1019.1,1779.1h-46.6"/>
	<path id="Trazado_23505" class="st4" d="M845,1647.2v52.8H908"/>
	<path id="Trazado_23915" class="st4" d="M1044,1647.2v52.8h62.9"/>
	<path id="Trazado_23507" class="st4" d="M950.6,1831.9v52.8h62.4"/>
	<path id="Trazado_23925" class="st5" d="M930.1,1703.6l-3.7-6.2h-0.9v6.2h-2.9v-14.1h5.1c0.7,0,1.4,0.1,2.1,0.3
		c0.5,0.2,1,0.5,1.4,0.9c0.4,0.4,0.6,0.8,0.8,1.3c0.2,0.5,0.3,1.1,0.3,1.6c0,0.8-0.2,1.7-0.8,2.3c-0.6,0.6-1.4,1.1-2.2,1.2l4.2,6.4
		H930.1z M925.6,1691.9v3.4h1.7c1.5,0,2.2-0.6,2.2-1.7c0-0.5-0.2-0.9-0.5-1.2c-0.5-0.3-1.1-0.5-1.7-0.4H925.6z M944.2,1698.4l0,0.7
		h-7.4c0,0.7,0.3,1.4,0.8,1.8c0.5,0.4,1.1,0.7,1.8,0.6c0.5,0,0.9-0.1,1.3-0.3c0.4-0.2,0.7-0.6,0.8-1l2.6,0.4c-0.3,1-0.9,1.8-1.8,2.4
		c-0.9,0.6-1.9,0.9-3,0.8c-1.4,0.1-2.8-0.4-3.9-1.4c-1-1-1.5-2.4-1.5-3.8c-0.1-1.4,0.5-2.8,1.5-3.8c1-1,2.4-1.5,3.8-1.4
		c1.3-0.1,2.6,0.4,3.6,1.3C943.8,1695.6,944.3,1697,944.2,1698.4z M939.2,1695.3c-1.2-0.1-2.3,0.7-2.4,1.9h4.6
		c0-0.6-0.3-1.1-0.7-1.4C940.3,1695.5,939.8,1695.3,939.2,1695.3L939.2,1695.3z M949.8,1703.8c-1,0-2-0.2-2.9-0.7
		c-0.8-0.4-1.3-1.2-1.4-2.1l2.4-0.7c0.2,0.9,1.1,1.6,2,1.5c0.4,0,0.7-0.1,1-0.2c0.3-0.2,0.4-0.5,0.4-0.8c0-0.2-0.1-0.4-0.2-0.5
		c-0.1-0.2-0.3-0.3-0.5-0.4c-0.2-0.1-0.5-0.2-0.7-0.3c-0.2-0.1-0.5-0.2-0.9-0.3s-0.7-0.2-0.9-0.3c-0.3-0.1-0.6-0.2-0.9-0.4
		c-0.3-0.1-0.5-0.3-0.7-0.5c-0.2-0.2-0.4-0.5-0.5-0.8c-0.1-0.3-0.2-0.7-0.2-1.1c-0.1-0.9,0.4-1.7,1.1-2.2c0.8-0.5,1.8-0.8,2.8-0.8
		c0.9,0,1.8,0.2,2.6,0.6c0.7,0.4,1.2,1.2,1.4,2l-2.2,0.5c-0.2-0.8-1-1.3-1.8-1.3c-0.3,0-0.7,0.1-1,0.2c-0.2,0.1-0.4,0.4-0.4,0.7
		c0,0.1,0,0.2,0.1,0.3c0,0.1,0.1,0.2,0.2,0.2c0.1,0.1,0.2,0.1,0.3,0.2c0.1,0.1,0.3,0.1,0.4,0.2c0.2,0.1,0.3,0.1,0.4,0.1l0.5,0.1
		l0.5,0.1c0.4,0.1,0.7,0.2,0.9,0.3c0.3,0.1,0.6,0.2,0.9,0.4c0.3,0.2,0.5,0.4,0.8,0.6c0.2,0.2,0.4,0.5,0.5,0.8
		c0.1,0.4,0.2,0.7,0.2,1.1c0,0.5-0.1,1-0.3,1.5c-0.2,0.4-0.5,0.7-0.9,1c-0.4,0.2-0.8,0.4-1.3,0.5
		C950.9,1703.7,950.4,1703.8,949.8,1703.8z M957.4,1692c-0.4,0-0.8-0.2-1.2-0.5c-0.3-0.3-0.5-0.7-0.5-1.1c0-0.4,0.2-0.8,0.5-1.1
		c0.3-0.3,0.7-0.5,1.1-0.5c0.4,0,0.8,0.2,1.1,0.5c0.3,0.3,0.5,0.7,0.5,1.1c0,0.4-0.2,0.8-0.5,1.1
		C958.3,1691.9,957.9,1692,957.4,1692L957.4,1692z M956,1703.6v-10h2.8v10H956z M968.9,1688.6h2.8v15H969l-0.1-1.3
		c-0.3,0.5-0.7,0.9-1.3,1.1c-0.6,0.3-1.2,0.4-1.9,0.4c-0.6,0-1.3-0.1-1.9-0.4c-0.6-0.2-1.1-0.6-1.5-1c-0.5-0.5-0.8-1-1-1.7
		c-0.3-0.7-0.4-1.4-0.4-2.2c0-1,0.2-1.9,0.7-2.8c0.4-0.8,1-1.4,1.8-1.8c0.7-0.4,1.6-0.6,2.4-0.6c0.6,0,1.2,0.1,1.8,0.4
		c0.5,0.2,0.9,0.6,1.3,1V1688.6z M966.4,1701.5c0.7,0,1.4-0.3,1.9-0.8c0.5-0.6,0.8-1.3,0.8-2.1c0-0.8-0.2-1.5-0.8-2.1
		c-0.5-0.5-1.2-0.8-1.9-0.8c-0.7,0-1.4,0.3-1.9,0.8c-0.5,0.6-0.8,1.3-0.8,2.1c0,0.8,0.2,1.5,0.8,2.1
		C965,1701.2,965.7,1701.5,966.4,1701.5z M981.2,1693.5h2.8v10h-2.7l-0.1-1.2c-0.8,1-2,1.5-3.2,1.4c-1,0.1-2-0.3-2.8-0.9
		c-0.7-0.7-1-1.6-1-2.6v-6.8h2.8v6.2c0,0.5,0.1,1,0.5,1.4c0.4,0.3,0.8,0.5,1.3,0.4c0.6,0,1.2-0.2,1.6-0.6c0.5-0.5,0.7-1.2,0.6-1.9
		L981.2,1693.5z M991.6,1703.8c-1,0-2-0.2-2.8-0.6c-0.8-0.4-1.5-1-1.9-1.8c-0.5-0.9-0.7-1.8-0.7-2.8c-0.1-1.4,0.5-2.8,1.5-3.8
		c1.1-1,2.5-1.5,4-1.4c1.5-0.1,2.9,0.4,4,1.4c1,1,1.6,2.4,1.5,3.8c0.1,1.4-0.5,2.8-1.5,3.8C994.5,1703.3,993.1,1703.8,991.6,1703.8z
		 M991.6,1701.5c0.8,0,1.5-0.3,2-0.8c0.5-0.6,0.8-1.4,0.8-2.2c0-0.8-0.2-1.6-0.8-2.2c-0.5-0.5-1.2-0.8-2-0.8c-0.7,0-1.4,0.3-1.9,0.8
		c-0.5,0.6-0.8,1.4-0.7,2.2c0,0.8,0.2,1.6,0.7,2.2C990.2,1701.3,990.9,1701.6,991.6,1701.5L991.6,1701.5z"/>
	<path id="Trazado_23931" class="st5" d="M1134.9,1703.6l-3.7-6.2h-0.8v6.2h-2.9v-14.1h5.1c0.7,0,1.4,0.1,2.1,0.3
		c0.5,0.2,1,0.5,1.4,0.9c0.4,0.4,0.6,0.8,0.8,1.3c0.2,0.5,0.3,1.1,0.3,1.6c0,0.8-0.2,1.7-0.8,2.3c-0.6,0.6-1.4,1.1-2.2,1.2l4.2,6.4
		H1134.9z M1130.4,1691.9v3.4h1.7c1.5,0,2.2-0.6,2.2-1.7c0-0.5-0.2-0.9-0.5-1.2c-0.5-0.3-1.1-0.5-1.7-0.4H1130.4z M1149,1698.4
		l0,0.7h-7.4c0,0.7,0.3,1.4,0.8,1.8c0.5,0.4,1.1,0.7,1.8,0.6c0.5,0,0.9-0.1,1.3-0.3c0.4-0.2,0.7-0.6,0.8-1l2.6,0.4
		c-0.3,1-0.9,1.8-1.8,2.4c-0.9,0.6-1.9,0.9-3,0.8c-1.4,0.1-2.8-0.4-3.9-1.4c-1-1-1.5-2.4-1.4-3.8c-0.1-1.4,0.5-2.8,1.5-3.8
		c1-1,2.4-1.5,3.8-1.4c1.3-0.1,2.6,0.4,3.6,1.3C1148.6,1695.6,1149.1,1697,1149,1698.4z M1144.1,1695.3c-1.2-0.1-2.3,0.7-2.4,1.9
		h4.6c0-0.6-0.3-1.1-0.7-1.4C1145.1,1695.5,1144.6,1695.3,1144.1,1695.3L1144.1,1695.3z M1154.7,1703.8c-1,0-2-0.2-2.9-0.7
		c-0.8-0.4-1.3-1.2-1.4-2.1l2.4-0.7c0.2,0.9,1.1,1.6,2,1.5c0.4,0,0.7-0.1,1-0.2c0.3-0.2,0.4-0.5,0.4-0.8c0-0.2-0.1-0.4-0.2-0.5
		c-0.1-0.2-0.3-0.3-0.5-0.4c-0.2-0.1-0.5-0.2-0.7-0.3c-0.2-0.1-0.5-0.2-0.9-0.3s-0.7-0.2-0.9-0.3c-0.3-0.1-0.6-0.2-0.9-0.4
		c-0.3-0.1-0.5-0.3-0.7-0.5c-0.2-0.2-0.4-0.5-0.5-0.8c-0.1-0.3-0.2-0.7-0.2-1.1c-0.1-0.9,0.4-1.7,1.1-2.2c0.8-0.5,1.8-0.8,2.8-0.8
		c0.9,0,1.8,0.2,2.6,0.6c0.7,0.4,1.2,1.2,1.4,2l-2.2,0.5c-0.2-0.8-1-1.3-1.8-1.3c-0.3,0-0.7,0.1-1,0.2c-0.2,0.1-0.4,0.4-0.4,0.7
		c0,0.1,0,0.2,0.1,0.3c0,0.1,0.1,0.2,0.2,0.2c0.1,0.1,0.2,0.1,0.3,0.2c0.1,0.1,0.3,0.1,0.4,0.2c0.2,0.1,0.3,0.1,0.4,0.1l0.5,0.1
		l0.5,0.1c0.4,0.1,0.7,0.2,0.9,0.3c0.3,0.1,0.6,0.2,0.9,0.4c0.3,0.2,0.5,0.4,0.8,0.6c0.2,0.2,0.4,0.5,0.5,0.8
		c0.1,0.4,0.2,0.7,0.2,1.1c0,0.5-0.1,1-0.3,1.5c-0.2,0.4-0.5,0.7-0.9,1c-0.4,0.2-0.8,0.4-1.3,0.5
		C1155.8,1703.7,1155.2,1703.8,1154.7,1703.8z M1162.3,1692c-0.4,0-0.8-0.2-1.2-0.5c-0.3-0.3-0.5-0.7-0.5-1.1c0-0.4,0.2-0.8,0.5-1.1
		c0.3-0.3,0.7-0.5,1.1-0.5c0.4,0,0.8,0.2,1.1,0.5c0.3,0.3,0.5,0.7,0.5,1.1c0,0.4-0.2,0.8-0.5,1.1
		C1163.1,1691.9,1162.7,1692,1162.3,1692L1162.3,1692z M1160.9,1703.6v-10h2.8v10H1160.9z M1173.7,1688.6h2.8v15h-2.7l-0.1-1.3
		c-0.3,0.5-0.7,0.9-1.3,1.1c-0.6,0.3-1.2,0.4-1.9,0.4c-0.6,0-1.3-0.1-1.9-0.4c-0.6-0.2-1.1-0.6-1.5-1c-0.5-0.5-0.8-1-1-1.7
		c-0.3-0.7-0.4-1.4-0.4-2.2c0-1,0.2-1.9,0.7-2.8c0.4-0.8,1-1.4,1.8-1.8c0.7-0.4,1.6-0.6,2.4-0.6c0.6,0,1.2,0.1,1.8,0.4
		c0.5,0.2,0.9,0.6,1.3,1V1688.6z M1171.3,1701.5c0.7,0,1.4-0.3,1.9-0.8c0.5-0.6,0.8-1.3,0.8-2.1c0-0.8-0.2-1.5-0.8-2.1
		c-0.5-0.5-1.2-0.8-1.9-0.8c-0.7,0-1.4,0.3-1.9,0.8c-0.5,0.6-0.8,1.3-0.8,2.1c0,0.8,0.2,1.5,0.8,2.1
		C1169.9,1701.2,1170.6,1701.5,1171.3,1701.5z M1186.1,1693.5h2.8v10h-2.7l-0.1-1.2c-0.8,1-2,1.5-3.2,1.4c-1,0.1-2-0.3-2.8-0.9
		c-0.7-0.7-1-1.6-1-2.6v-6.8h2.8v6.2c0,0.5,0.1,1,0.5,1.4c0.4,0.3,0.8,0.5,1.3,0.4c0.6,0,1.2-0.2,1.6-0.6c0.5-0.5,0.7-1.2,0.6-1.9
		L1186.1,1693.5z M1196.5,1703.8c-1,0-2-0.2-2.8-0.6c-0.8-0.4-1.5-1-1.9-1.8c-0.5-0.9-0.7-1.8-0.7-2.8c-0.1-1.4,0.5-2.8,1.5-3.8
		c1.1-1,2.5-1.5,4-1.4c1.5-0.1,2.9,0.4,4,1.4c1,1,1.6,2.4,1.5,3.8c0.1,1.4-0.5,2.8-1.5,3.8C1199.4,1703.3,1198,1703.8,1196.5,1703.8
		z M1196.5,1701.5c0.8,0,1.5-0.3,2-0.8c0.5-0.6,0.8-1.4,0.8-2.2c0-0.8-0.2-1.6-0.8-2.2c-0.5-0.5-1.2-0.8-2-0.8
		c-0.7,0-1.4,0.3-1.9,0.8c-0.5,0.6-0.8,1.4-0.7,2.2c0,0.8,0.2,1.6,0.7,2.2C1195,1701.3,1195.7,1701.6,1196.5,1701.5L1196.5,1701.5z"
		/>
	<path id="Trazado_23930" class="st5" d="M1035.2,1888.3l-3.7-6.2h-0.8v6.2h-2.9v-14.1h5.1c0.7,0,1.4,0.1,2.1,0.3
		c0.5,0.2,1,0.5,1.4,0.9c0.4,0.4,0.6,0.8,0.8,1.3c0.2,0.5,0.3,1.1,0.3,1.6c0,0.8-0.2,1.7-0.8,2.3c-0.6,0.6-1.4,1.1-2.2,1.2l4.2,6.4
		H1035.2z M1030.7,1876.7v3.4h1.7c1.5,0,2.2-0.6,2.2-1.7c0-0.5-0.2-0.9-0.5-1.2c-0.5-0.3-1.1-0.5-1.7-0.4H1030.7z M1049.3,1883.2
		l0,0.7h-7.4c0,0.7,0.3,1.4,0.8,1.8c0.5,0.4,1.1,0.7,1.8,0.6c0.5,0,0.9-0.1,1.3-0.3c0.4-0.2,0.7-0.6,0.8-1l2.6,0.4
		c-0.3,1-0.9,1.8-1.8,2.4c-0.9,0.6-1.9,0.9-3,0.8c-1.4,0.1-2.8-0.4-3.9-1.4c-1-1-1.5-2.4-1.4-3.8c-0.1-1.4,0.5-2.8,1.5-3.8
		c1-1,2.4-1.5,3.8-1.4c1.3-0.1,2.6,0.4,3.6,1.3C1048.9,1880.4,1049.4,1881.8,1049.3,1883.2z M1044.4,1880.1
		c-1.2-0.1-2.3,0.7-2.4,1.9h4.6c0-0.6-0.3-1.1-0.7-1.4C1045.4,1880.2,1044.9,1880.1,1044.4,1880.1L1044.4,1880.1z M1055,1888.5
		c-1,0-2-0.2-2.9-0.7c-0.8-0.4-1.3-1.2-1.4-2.1l2.4-0.7c0.2,0.9,1.1,1.6,2,1.5c0.4,0,0.7-0.1,1-0.2c0.3-0.2,0.4-0.5,0.4-0.8
		c0-0.2-0.1-0.4-0.2-0.5c-0.1-0.2-0.3-0.3-0.5-0.4c-0.2-0.1-0.5-0.2-0.7-0.3c-0.2-0.1-0.5-0.2-0.9-0.3s-0.7-0.2-0.9-0.3
		c-0.3-0.1-0.6-0.2-0.9-0.4c-0.3-0.1-0.5-0.3-0.7-0.5c-0.2-0.2-0.4-0.5-0.5-0.8c-0.1-0.3-0.2-0.7-0.2-1.1c-0.1-0.9,0.4-1.7,1.1-2.2
		c0.8-0.5,1.8-0.8,2.8-0.8c0.9,0,1.8,0.2,2.6,0.6c0.7,0.4,1.2,1.2,1.4,2l-2.2,0.5c-0.2-0.8-1-1.3-1.8-1.3c-0.3,0-0.7,0.1-1,0.2
		c-0.2,0.1-0.4,0.4-0.4,0.7c0,0.1,0,0.2,0.1,0.3c0,0.1,0.1,0.2,0.2,0.2c0.1,0.1,0.2,0.1,0.3,0.2c0.1,0.1,0.3,0.1,0.4,0.2
		c0.2,0.1,0.3,0.1,0.4,0.1l0.5,0.1l0.5,0.1c0.4,0.1,0.7,0.2,0.9,0.3c0.3,0.1,0.6,0.2,0.9,0.4c0.3,0.2,0.5,0.4,0.8,0.6
		c0.2,0.2,0.4,0.5,0.5,0.8c0.1,0.4,0.2,0.7,0.2,1.1c0,0.5-0.1,1-0.3,1.5c-0.2,0.4-0.5,0.7-0.9,1c-0.4,0.2-0.8,0.4-1.3,0.5
		C1056,1888.5,1055.5,1888.5,1055,1888.5z M1062.6,1876.8c-0.4,0-0.8-0.2-1.2-0.5c-0.3-0.3-0.5-0.7-0.5-1.1c0-0.4,0.2-0.8,0.5-1.1
		c0.3-0.3,0.7-0.5,1.1-0.5c0.4,0,0.8,0.2,1.1,0.5c0.3,0.3,0.5,0.7,0.5,1.1c0,0.4-0.2,0.8-0.5,1.1
		C1063.4,1876.6,1063,1876.8,1062.6,1876.8L1062.6,1876.8z M1061.1,1888.3v-10h2.8v10H1061.1z M1074,1873.3h2.8v15h-2.7l-0.1-1.3
		c-0.3,0.5-0.7,0.9-1.3,1.1c-0.6,0.3-1.2,0.4-1.9,0.4c-0.6,0-1.3-0.1-1.9-0.4c-0.6-0.2-1.1-0.6-1.5-1c-0.5-0.5-0.8-1-1-1.7
		c-0.3-0.7-0.4-1.4-0.4-2.2c0-1,0.2-1.9,0.7-2.8c0.4-0.8,1-1.4,1.8-1.8c0.7-0.4,1.6-0.6,2.4-0.6c0.6,0,1.2,0.1,1.8,0.4
		c0.5,0.2,0.9,0.6,1.3,1V1873.3z M1071.6,1886.2c0.7,0,1.4-0.3,1.9-0.8c0.5-0.6,0.8-1.3,0.8-2.1c0-0.8-0.2-1.5-0.8-2.1
		c-0.5-0.5-1.2-0.8-1.9-0.8c-0.7,0-1.4,0.3-1.9,0.8c-0.5,0.6-0.8,1.3-0.8,2.1c0,0.8,0.2,1.5,0.8,2.1
		C1070.2,1886,1070.8,1886.3,1071.6,1886.2z M1086.4,1878.3h2.8v10h-2.7l-0.1-1.2c-0.8,1-2,1.5-3.2,1.4c-1,0.1-2-0.3-2.8-0.9
		c-0.7-0.7-1-1.6-1-2.6v-6.8h2.8v6.2c0,0.5,0.1,1,0.5,1.4c0.4,0.3,0.8,0.5,1.3,0.4c0.6,0,1.2-0.2,1.6-0.6c0.5-0.5,0.7-1.2,0.6-1.9
		L1086.4,1878.3z M1096.8,1888.5c-1,0-2-0.2-2.8-0.6c-0.8-0.4-1.5-1-1.9-1.8c-0.5-0.9-0.7-1.8-0.7-2.8c-0.1-1.4,0.5-2.8,1.5-3.8
		c1.1-1,2.5-1.5,4-1.4c1.5-0.1,2.9,0.4,4,1.4c1,1,1.6,2.4,1.5,3.8c0.1,1.4-0.5,2.8-1.5,3.8
		C1099.7,1888.1,1098.2,1888.6,1096.8,1888.5z M1096.7,1886.3c0.8,0,1.5-0.3,2-0.8c0.5-0.6,0.8-1.4,0.8-2.2c0-0.8-0.2-1.6-0.8-2.2
		c-0.5-0.5-1.2-0.8-2-0.8c-0.7,0-1.4,0.3-1.9,0.8c-0.5,0.6-0.8,1.4-0.7,2.2c0,0.8,0.2,1.6,0.7,2.2
		C1095.3,1886,1096,1886.3,1096.7,1886.3L1096.7,1886.3z"/>
</g>
<rect x="112.1" y="174.8" class="st6" width="26.1" height="18.4"/>
<text transform="matrix(1 0 0 1 112.0851 189.667)" class="st7 st8 st9">&gt;</text>
<rect x="311.3" y="174.8" class="st6" width="26.1" height="18.4"/>
<text transform="matrix(1 0 0 1 311.269 189.667)" class="st7 st8 st9">&gt;</text>
<rect x="217.9" y="359" class="st6" width="26.1" height="18.4"/>
<text transform="matrix(1 0 0 1 217.8723 373.9065)" class="st7 st8 st9">&gt;</text>
</svg>
