<svg xmlns="http://www.w3.org/2000/svg" width="1071.858" height="334.756" viewBox="0 0 1071.858 334.756">
  <g id="Grupo_14474" data-name="Grupo 14474" transform="translate(-14377 2404.298)">
    <path id="Trazado_23928" data-name="Trazado 23928" d="M451.946,212.734V284.1h873.463v-71.37Z" transform="translate(14123.449 -2617.032)" fill="#c7c6c5"/>
    <path id="Trazado_23926" data-name="Trazado 23926" d="M451.946,212.734V338.12h873.463V212.734Z" transform="translate(14123.449 -2540.662)" fill="#d6d6d6"/>
    <path id="Trazado_23924" data-name="Trazado 23924" d="M451.946,212.734V338.12h873.463V212.734Z" transform="translate(14123.449 -2407.662)" fill="#d6d6d6"/>
    <path id="Trazado_23946" data-name="Trazado 23946" d="M0,0H54V334H0Z" transform="translate(14949 -2404)" fill="#67b53e"/>
    <path id="Trazado_23927" data-name="Trazado 23927" d="M451.946,212.734V338.12H643.709V212.734Z" transform="translate(13925.449 -2540.662)" fill="#ffb500"/>
    <path id="Trazado_23925" data-name="Trazado 23925" d="M451.946,212.734V338.12H643.709V212.734Z" transform="translate(13925.054 -2407.734)" fill="#ffb500"/>
    <path id="Trazado_23929" data-name="Trazado 23929" d="M-44.092,0V-19.756h7.15a11.147,11.147,0,0,1,4.122.711,7.592,7.592,0,0,1,2.953,2.017,8.773,8.773,0,0,1,1.75,3.11,12.841,12.841,0,0,1,.595,4.033,12.889,12.889,0,0,1-.595,4.047,8.773,8.773,0,0,1-1.75,3.11A7.592,7.592,0,0,1-32.819-.711,11.147,11.147,0,0,1-36.941,0Zm4.1-3.623h2.844a4.853,4.853,0,0,0,3.992-1.606,7.2,7.2,0,0,0,1.313-4.655,7.2,7.2,0,0,0-1.312-4.655,4.853,4.853,0,0,0-3.992-1.606H-39.99Zm17.8-12.537a2.211,2.211,0,0,1-1.613-.663,2.177,2.177,0,0,1-.67-1.606,2.15,2.15,0,0,1,.677-1.593,2.217,2.217,0,0,1,1.606-.663,2.179,2.179,0,0,1,1.586.663,2.161,2.161,0,0,1,.67,1.593,2.177,2.177,0,0,1-.67,1.606A2.179,2.179,0,0,1-22.189-16.16ZM-24.2,0V-14.055h3.965V0ZM-7.014-14.055h4.17L-8.832,0H-12.25l-5.92-14.055h4.143l3.5,9.611ZM1.23-16.16a2.211,2.211,0,0,1-1.613-.663,2.177,2.177,0,0,1-.67-1.606,2.15,2.15,0,0,1,.677-1.593,2.217,2.217,0,0,1,1.606-.663,2.179,2.179,0,0,1,1.586.663,2.161,2.161,0,0,1,.67,1.593,2.177,2.177,0,0,1-.67,1.606A2.179,2.179,0,0,1,1.23-16.16ZM-.779,0V-14.055H3.186V0ZM12.209.273a7.855,7.855,0,0,1-4.1-.984A4.161,4.161,0,0,1,6.1-3.637l3.295-.93a2.648,2.648,0,0,0,2.816,2.092A2.909,2.909,0,0,0,13.645-2.8a1.118,1.118,0,0,0,.561-1.087,1.15,1.15,0,0,0-.232-.725,1.841,1.841,0,0,0-.718-.52A8.942,8.942,0,0,0,12.3-5.5q-.472-.15-1.251-.362t-1.3-.4a8.7,8.7,0,0,1-1.237-.526,5.278,5.278,0,0,1-1.025-.725,2.921,2.921,0,0,1-.766-1.1,3.97,3.97,0,0,1-.267-1.5,3.591,3.591,0,0,1,1.524-3.145,6.811,6.811,0,0,1,3.985-1.066,6.983,6.983,0,0,1,3.678.9,4.084,4.084,0,0,1,1.887,2.816l-3.049.684a2.388,2.388,0,0,0-2.5-1.777,2.74,2.74,0,0,0-1.381.314,1.01,1.01,0,0,0-.547.93,1.065,1.065,0,0,0,.082.424.839.839,0,0,0,.287.342,4.187,4.187,0,0,0,.4.26,2.991,2.991,0,0,0,.561.226q.369.116.615.178t.718.185l.731.191q.752.205,1.319.41a7.727,7.727,0,0,1,1.21.574,4.343,4.343,0,0,1,1.06.827,3.689,3.689,0,0,1,.69,1.162,4.292,4.292,0,0,1,.273,1.565,4.228,4.228,0,0,1-.472,2.037A3.541,3.541,0,0,1,16.229-.7,6.288,6.288,0,0,1,14.4.034,9.468,9.468,0,0,1,12.209.273Zm15.162,0a8.838,8.838,0,0,1-3.979-.861,6.437,6.437,0,0,1-2.728-2.529,7.538,7.538,0,0,1-.991-3.924,6.875,6.875,0,0,1,2.133-5.332,7.912,7.912,0,0,1,5.564-1.955,7.932,7.932,0,0,1,5.578,1.955,6.875,6.875,0,0,1,2.133,5.332,6.913,6.913,0,0,1-2.133,5.353A7.915,7.915,0,0,1,27.371.273ZM27.33-2.857a3.608,3.608,0,0,0,2.782-1.148,4.3,4.3,0,0,0,1.06-3.035,4.3,4.3,0,0,0-1.06-3.035,3.608,3.608,0,0,0-2.782-1.148,3.476,3.476,0,0,0-2.7,1.155,4.339,4.339,0,0,0-1.046,3.028A4.339,4.339,0,0,0,24.63-4.013,3.476,3.476,0,0,0,27.33-2.857Zm14.451-8.969a4.562,4.562,0,0,1,1.846-1.688,5.632,5.632,0,0,1,2.748-.7v3.514a5.324,5.324,0,0,0-3.363.848A3.7,3.7,0,0,0,41.973-6.85V0H38.008V-14.055h3.773ZM-18.177,15h3.938V36h-3.732l-.1-1.832a4.014,4.014,0,0,1-1.784,1.593,6.006,6.006,0,0,1-2.632.567,6.836,6.836,0,0,1-2.625-.506,6.516,6.516,0,0,1-2.153-1.429,6.512,6.512,0,0,1-1.456-2.317A8.548,8.548,0,0,1-29.251,29a7.99,7.99,0,0,1,.93-3.917,6.37,6.37,0,0,1,2.454-2.55,6.758,6.758,0,0,1,3.384-.861,6.156,6.156,0,0,1,2.55.513,3.981,3.981,0,0,1,1.757,1.456Zm-3.4,18.061a3.505,3.505,0,0,0,2.659-1.121A4.1,4.1,0,0,0-17.862,29a4.113,4.113,0,0,0-1.066-2.946,3.5,3.5,0,0,0-2.652-1.128,3.542,3.542,0,0,0-2.673,1.107A4.112,4.112,0,0,0-25.313,29a4.093,4.093,0,0,0,1.06,2.953A3.542,3.542,0,0,0-21.581,33.061ZM3.056,28.768l-.041.943H-7.4a3.639,3.639,0,0,0,1.121,2.57,3.585,3.585,0,0,0,2.475.889,3.455,3.455,0,0,0,1.853-.485A2.983,2.983,0,0,0-.772,31.27l3.609.533A6.136,6.136,0,0,1,.376,35.1,7.317,7.317,0,0,1-3.78,36.273a7.609,7.609,0,0,1-5.476-1.935,7.059,7.059,0,0,1-2.03-5.366,7.1,7.1,0,0,1,2.037-5.366A7.383,7.383,0,0,1-3.9,21.645a7.055,7.055,0,0,1,5.045,1.791A7.026,7.026,0,0,1,3.056,28.768Zm-6.932-4.334a3.111,3.111,0,0,0-3.418,2.707H-.841a2.96,2.96,0,0,0-.971-2.01A3.077,3.077,0,0,0-3.876,24.434Zm15.709-8.189h3.746V36H11.655V20.291L7.116,24.516V20.469ZM27.61,32.486h8.422V36H22.1V33.033l7.861-8.025a4.947,4.947,0,0,0,1.709-3.4,2.408,2.408,0,0,0-.7-1.832,2.772,2.772,0,0,0-1.989-.67q-2.8,0-2.8,3.186V23.75l-3.924-.4v-.984a6.161,6.161,0,0,1,1.8-4.751,6.912,6.912,0,0,1,4.895-1.675,7.24,7.24,0,0,1,4.765,1.518,5.115,5.115,0,0,1,1.839,4.17,5.913,5.913,0,0,1-.622,2.707,11.315,11.315,0,0,1-1.976,2.639Z" transform="translate(14471.223 -2271.59)" fill="#002b45"/>
    <path id="Trazado_23932" data-name="Trazado 23932" d="M-47.729,0V-19.756h7.15a11.147,11.147,0,0,1,4.122.711A7.593,7.593,0,0,1-33.5-17.028a8.773,8.773,0,0,1,1.75,3.11,12.841,12.841,0,0,1,.595,4.033,12.889,12.889,0,0,1-.595,4.047,8.773,8.773,0,0,1-1.75,3.11A7.592,7.592,0,0,1-36.456-.711,11.147,11.147,0,0,1-40.578,0Zm4.1-3.623h2.844a4.853,4.853,0,0,0,3.992-1.606,7.2,7.2,0,0,0,1.313-4.655,7.2,7.2,0,0,0-1.312-4.655,4.853,4.853,0,0,0-3.992-1.606h-2.844Zm17.8-12.537a2.211,2.211,0,0,1-1.613-.663,2.177,2.177,0,0,1-.67-1.606,2.15,2.15,0,0,1,.677-1.593,2.217,2.217,0,0,1,1.606-.663,2.179,2.179,0,0,1,1.586.663,2.161,2.161,0,0,1,.67,1.593,2.177,2.177,0,0,1-.67,1.606A2.179,2.179,0,0,1-25.826-16.16ZM-27.836,0V-14.055h3.965V0ZM-10.65-14.055h4.17L-12.469,0h-3.418l-5.92-14.055h4.143l3.5,9.611Zm8.244-2.105a2.211,2.211,0,0,1-1.613-.663,2.177,2.177,0,0,1-.67-1.606,2.15,2.15,0,0,1,.677-1.593,2.217,2.217,0,0,1,1.606-.663,2.179,2.179,0,0,1,1.586.663A2.161,2.161,0,0,1-.15-18.43a2.177,2.177,0,0,1-.67,1.606A2.179,2.179,0,0,1-2.406-16.16ZM-4.416,0V-14.055H-.451V0ZM8.572.273a7.855,7.855,0,0,1-4.1-.984,4.161,4.161,0,0,1-2.01-2.926l3.295-.93A2.648,2.648,0,0,0,8.572-2.475,2.909,2.909,0,0,0,10.008-2.8a1.118,1.118,0,0,0,.561-1.087,1.15,1.15,0,0,0-.232-.725,1.841,1.841,0,0,0-.718-.52A8.942,8.942,0,0,0,8.661-5.5q-.472-.15-1.251-.362t-1.3-.4a8.7,8.7,0,0,1-1.237-.526,5.278,5.278,0,0,1-1.025-.725,2.921,2.921,0,0,1-.766-1.1,3.97,3.97,0,0,1-.267-1.5,3.591,3.591,0,0,1,1.524-3.145,6.811,6.811,0,0,1,3.985-1.066,6.983,6.983,0,0,1,3.678.9,4.084,4.084,0,0,1,1.887,2.816l-3.049.684A2.388,2.388,0,0,0,8.34-11.7a2.74,2.74,0,0,0-1.381.314,1.01,1.01,0,0,0-.547.93,1.065,1.065,0,0,0,.082.424.839.839,0,0,0,.287.342,4.187,4.187,0,0,0,.4.26,2.991,2.991,0,0,0,.561.226q.369.116.615.178t.718.185l.731.191q.752.205,1.319.41a7.727,7.727,0,0,1,1.21.574,4.343,4.343,0,0,1,1.06.827,3.689,3.689,0,0,1,.69,1.162,4.292,4.292,0,0,1,.273,1.565,4.228,4.228,0,0,1-.472,2.037A3.541,3.541,0,0,1,12.592-.7a6.288,6.288,0,0,1-1.825.738A9.468,9.468,0,0,1,8.572.273Zm15.162,0a8.838,8.838,0,0,1-3.979-.861,6.437,6.437,0,0,1-2.728-2.529,7.538,7.538,0,0,1-.991-3.924,6.875,6.875,0,0,1,2.133-5.332,7.912,7.912,0,0,1,5.564-1.955,7.932,7.932,0,0,1,5.578,1.955,6.875,6.875,0,0,1,2.133,5.332,6.913,6.913,0,0,1-2.133,5.353A7.915,7.915,0,0,1,23.734.273Zm-.041-3.131a3.608,3.608,0,0,0,2.782-1.148,4.3,4.3,0,0,0,1.06-3.035,4.3,4.3,0,0,0-1.06-3.035,3.608,3.608,0,0,0-2.782-1.148,3.476,3.476,0,0,0-2.7,1.155,4.339,4.339,0,0,0-1.046,3.028,4.339,4.339,0,0,0,1.046,3.028A3.476,3.476,0,0,0,23.693-2.857Zm14.451-8.969a4.562,4.562,0,0,1,1.846-1.688,5.632,5.632,0,0,1,2.748-.7v3.514a5.324,5.324,0,0,0-3.363.848A3.7,3.7,0,0,0,38.336-6.85V0H34.371V-14.055h3.773ZM-21.813,15h3.938V36h-3.732l-.1-1.832a4.014,4.014,0,0,1-1.784,1.593,6.006,6.006,0,0,1-2.632.567,6.836,6.836,0,0,1-2.625-.506A6.516,6.516,0,0,1-30.9,34.394a6.512,6.512,0,0,1-1.456-2.317A8.548,8.548,0,0,1-32.888,29a7.99,7.99,0,0,1,.93-3.917,6.37,6.37,0,0,1,2.454-2.55,6.758,6.758,0,0,1,3.384-.861,6.156,6.156,0,0,1,2.55.513,3.981,3.981,0,0,1,1.757,1.456Zm-3.4,18.061a3.505,3.505,0,0,0,2.659-1.121A4.1,4.1,0,0,0-21.5,29a4.113,4.113,0,0,0-1.066-2.946,3.5,3.5,0,0,0-2.652-1.128,3.542,3.542,0,0,0-2.673,1.107A4.112,4.112,0,0,0-28.95,29a4.093,4.093,0,0,0,1.06,2.953A3.542,3.542,0,0,0-25.218,33.061ZM-.581,28.768l-.041.943H-11.04a3.639,3.639,0,0,0,1.121,2.57,3.585,3.585,0,0,0,2.475.889,3.455,3.455,0,0,0,1.853-.485A2.983,2.983,0,0,0-4.409,31.27L-.8,31.8A6.136,6.136,0,0,1-3.261,35.1a7.317,7.317,0,0,1-4.156,1.176,7.609,7.609,0,0,1-5.476-1.935,7.059,7.059,0,0,1-2.03-5.366,7.1,7.1,0,0,1,2.037-5.366A7.383,7.383,0,0,1-7.54,21.645,7.055,7.055,0,0,1-2.5,23.436,7.026,7.026,0,0,1-.581,28.768Zm-6.932-4.334a3.111,3.111,0,0,0-3.418,2.707h6.453a2.96,2.96,0,0,0-.971-2.01A3.077,3.077,0,0,0-7.513,24.434ZM8.2,16.244h3.746V36H8.019V20.291L3.479,24.516V20.469ZM25.491,36.273a7.905,7.905,0,0,1-5.161-1.654,5.435,5.435,0,0,1-2.03-4.443,5.537,5.537,0,0,1,.827-3.028,5.669,5.669,0,0,1,2.29-2.044,5,5,0,0,1-1.634-1.682,4.343,4.343,0,0,1-.595-2.242,4.634,4.634,0,0,1,1.764-3.767,6.938,6.938,0,0,1,4.539-1.442,6.824,6.824,0,0,1,4.478,1.442,4.641,4.641,0,0,1,1.757,3.767,4.425,4.425,0,0,1-.574,2.235A5.046,5.046,0,0,1,29.565,25.1a5.641,5.641,0,0,1,2.27,2.044,5.572,5.572,0,0,1,.82,3.028,5.677,5.677,0,0,1-.943,3.247,5.938,5.938,0,0,1-2.563,2.126A8.865,8.865,0,0,1,25.491,36.273Zm0-12.318a2.627,2.627,0,0,0,1.873-.738,2.391,2.391,0,0,0,.779-1.8,2.333,2.333,0,0,0-.779-1.777,2.81,2.81,0,0,0-3.767,0,2.342,2.342,0,0,0-.772,1.777,2.394,2.394,0,0,0,.772,1.812A2.651,2.651,0,0,0,25.491,23.955Zm0,8.791a3.3,3.3,0,0,0,2.311-.834,2.883,2.883,0,0,0,.916-2.242,2.8,2.8,0,0,0-.923-2.194,3.324,3.324,0,0,0-2.3-.827,3.362,3.362,0,0,0-2.331.827,2.8,2.8,0,0,0-.923,2.194,2.873,2.873,0,0,0,.923,2.242A3.345,3.345,0,0,0,25.491,32.746Z" transform="translate(14473 -2141)" fill="#002b45"/>
    <path id="Trazado_23930" data-name="Trazado 23930" d="M-4.348.273A9.545,9.545,0,0,1-9.83-1.237,6.059,6.059,0,0,1-12.5-5.469l4.238-.971a3.6,3.6,0,0,0,1.306,2.5,4.332,4.332,0,0,0,2.769.868,3.576,3.576,0,0,0,2.16-.608,2.052,2.052,0,0,0,.82-1.8,1.917,1.917,0,0,0-.7-1.463,4.556,4.556,0,0,0-1.388-.9q-.69-.267-2.222-.731-.205-.068-.3-.1-.779-.246-1.258-.41t-1.183-.458A7.875,7.875,0,0,1-9.4-10.11a8.408,8.408,0,0,1-.95-.711,3.724,3.724,0,0,1-.793-.909,4.83,4.83,0,0,1-.479-1.135,5.008,5.008,0,0,1-.191-1.408,5.289,5.289,0,0,1,.923-3.11A5.652,5.652,0,0,1-8.4-19.366a9.056,9.056,0,0,1,3.562-.663,11.251,11.251,0,0,1,2.577.287,9.027,9.027,0,0,1,2.3.882A5.643,5.643,0,0,1,1.88-17.233a6.117,6.117,0,0,1,1.046,2.4l-3.965.984a3.212,3.212,0,0,0-3.555-2.83,3.892,3.892,0,0,0-2.2.574,1.946,1.946,0,0,0-.861,1.736q0,1.08,1.436,1.75a21.392,21.392,0,0,0,2.748.943q.807.246,1.313.41t1.271.479a8.835,8.835,0,0,1,1.244.608,9.207,9.207,0,0,1,1.039.759,4.086,4.086,0,0,1,.882.984,5.323,5.323,0,0,1,.54,1.224,5.114,5.114,0,0,1,.219,1.524,5.989,5.989,0,0,1-.4,2.229A4.85,4.85,0,0,1,1.552-1.777,6.312,6.312,0,0,1-.082-.622a7.926,7.926,0,0,1-2.01.684A11.559,11.559,0,0,1-4.348.273ZM6.822,0V-19.756h4.1V0Z" transform="translate(14612 -2257)" fill="#002b45"/>
    <path id="Trazado_23937" data-name="Trazado 23937" d="M-4.348.273A9.545,9.545,0,0,1-9.83-1.237,6.059,6.059,0,0,1-12.5-5.469l4.238-.971a3.6,3.6,0,0,0,1.306,2.5,4.332,4.332,0,0,0,2.769.868,3.576,3.576,0,0,0,2.16-.608,2.052,2.052,0,0,0,.82-1.8,1.917,1.917,0,0,0-.7-1.463,4.556,4.556,0,0,0-1.388-.9q-.69-.267-2.222-.731-.205-.068-.3-.1-.779-.246-1.258-.41t-1.183-.458A7.875,7.875,0,0,1-9.4-10.11a8.408,8.408,0,0,1-.95-.711,3.724,3.724,0,0,1-.793-.909,4.83,4.83,0,0,1-.479-1.135,5.008,5.008,0,0,1-.191-1.408,5.289,5.289,0,0,1,.923-3.11A5.652,5.652,0,0,1-8.4-19.366a9.056,9.056,0,0,1,3.562-.663,11.251,11.251,0,0,1,2.577.287,9.027,9.027,0,0,1,2.3.882A5.643,5.643,0,0,1,1.88-17.233a6.117,6.117,0,0,1,1.046,2.4l-3.965.984a3.212,3.212,0,0,0-3.555-2.83,3.892,3.892,0,0,0-2.2.574,1.946,1.946,0,0,0-.861,1.736q0,1.08,1.436,1.75a21.392,21.392,0,0,0,2.748.943q.807.246,1.313.41t1.271.479a8.835,8.835,0,0,1,1.244.608,9.207,9.207,0,0,1,1.039.759,4.086,4.086,0,0,1,.882.984,5.323,5.323,0,0,1,.54,1.224,5.114,5.114,0,0,1,.219,1.524,5.989,5.989,0,0,1-.4,2.229A4.85,4.85,0,0,1,1.552-1.777,6.312,6.312,0,0,1-.082-.622a7.926,7.926,0,0,1-2.01.684A11.559,11.559,0,0,1-4.348.273ZM6.822,0V-19.756h4.1V0Z" transform="translate(14612 -2122)" fill="#002b45"/>
    <path id="Trazado_23931" data-name="Trazado 23931" d="M-.54-19.756H3.206V0H-.718V-15.709l-4.539,4.225v-4.047Z" transform="translate(14612 -2354)" fill="#002b45"/>
    <path id="Trazado_23933" data-name="Trazado 23933" d="M-4.348.273A9.545,9.545,0,0,1-9.83-1.237,6.059,6.059,0,0,1-12.5-5.469l4.238-.971a3.6,3.6,0,0,0,1.306,2.5,4.332,4.332,0,0,0,2.769.868,3.576,3.576,0,0,0,2.16-.608,2.052,2.052,0,0,0,.82-1.8,1.917,1.917,0,0,0-.7-1.463,4.556,4.556,0,0,0-1.388-.9q-.69-.267-2.222-.731-.205-.068-.3-.1-.779-.246-1.258-.41t-1.183-.458A7.875,7.875,0,0,1-9.4-10.11a8.408,8.408,0,0,1-.95-.711,3.724,3.724,0,0,1-.793-.909,4.83,4.83,0,0,1-.479-1.135,5.008,5.008,0,0,1-.191-1.408,5.289,5.289,0,0,1,.923-3.11A5.652,5.652,0,0,1-8.4-19.366a9.056,9.056,0,0,1,3.562-.663,11.251,11.251,0,0,1,2.577.287,9.027,9.027,0,0,1,2.3.882A5.643,5.643,0,0,1,1.88-17.233a6.117,6.117,0,0,1,1.046,2.4l-3.965.984a3.212,3.212,0,0,0-3.555-2.83,3.892,3.892,0,0,0-2.2.574,1.946,1.946,0,0,0-.861,1.736q0,1.08,1.436,1.75a21.392,21.392,0,0,0,2.748.943q.807.246,1.313.41t1.271.479a8.835,8.835,0,0,1,1.244.608,9.207,9.207,0,0,1,1.039.759,4.086,4.086,0,0,1,.882.984,5.323,5.323,0,0,1,.54,1.224,5.114,5.114,0,0,1,.219,1.524,5.989,5.989,0,0,1-.4,2.229A4.85,4.85,0,0,1,1.552-1.777,6.312,6.312,0,0,1-.082-.622a7.926,7.926,0,0,1-2.01.684A11.559,11.559,0,0,1-4.348.273ZM6.822,0V-19.756h4.1V0Z" transform="translate(14685 -2257)" fill="#002b45"/>
    <path id="Trazado_23938" data-name="Trazado 23938" d="M-4.348.273A9.545,9.545,0,0,1-9.83-1.237,6.059,6.059,0,0,1-12.5-5.469l4.238-.971a3.6,3.6,0,0,0,1.306,2.5,4.332,4.332,0,0,0,2.769.868,3.576,3.576,0,0,0,2.16-.608,2.052,2.052,0,0,0,.82-1.8,1.917,1.917,0,0,0-.7-1.463,4.556,4.556,0,0,0-1.388-.9q-.69-.267-2.222-.731-.205-.068-.3-.1-.779-.246-1.258-.41t-1.183-.458A7.875,7.875,0,0,1-9.4-10.11a8.408,8.408,0,0,1-.95-.711,3.724,3.724,0,0,1-.793-.909,4.83,4.83,0,0,1-.479-1.135,5.008,5.008,0,0,1-.191-1.408,5.289,5.289,0,0,1,.923-3.11A5.652,5.652,0,0,1-8.4-19.366a9.056,9.056,0,0,1,3.562-.663,11.251,11.251,0,0,1,2.577.287,9.027,9.027,0,0,1,2.3.882A5.643,5.643,0,0,1,1.88-17.233a6.117,6.117,0,0,1,1.046,2.4l-3.965.984a3.212,3.212,0,0,0-3.555-2.83,3.892,3.892,0,0,0-2.2.574,1.946,1.946,0,0,0-.861,1.736q0,1.08,1.436,1.75a21.392,21.392,0,0,0,2.748.943q.807.246,1.313.41t1.271.479a8.835,8.835,0,0,1,1.244.608,9.207,9.207,0,0,1,1.039.759,4.086,4.086,0,0,1,.882.984,5.323,5.323,0,0,1,.54,1.224,5.114,5.114,0,0,1,.219,1.524,5.989,5.989,0,0,1-.4,2.229A4.85,4.85,0,0,1,1.552-1.777,6.312,6.312,0,0,1-.082-.622a7.926,7.926,0,0,1-2.01.684A11.559,11.559,0,0,1-4.348.273ZM6.822,0V-19.756h4.1V0Z" transform="translate(14685 -2122)" fill="#002b45"/>
    <path id="Trazado_23934" data-name="Trazado 23934" d="M-1.483-3.514H6.938V0H-6.993V-2.967L.868-10.992a4.947,4.947,0,0,0,1.709-3.4,2.408,2.408,0,0,0-.7-1.832A2.772,2.772,0,0,0-.116-16.9q-2.8,0-2.8,3.186v1.463l-3.924-.4v-.984a6.161,6.161,0,0,1,1.8-4.751A6.912,6.912,0,0,1-.144-20.057a7.24,7.24,0,0,1,4.765,1.518,5.115,5.115,0,0,1,1.839,4.17,5.913,5.913,0,0,1-.622,2.707A11.315,11.315,0,0,1,3.862-9.023Z" transform="translate(14685 -2354)" fill="#002b45"/>
    <path id="Trazado_23935" data-name="Trazado 23935" d="M-4.348.273A9.545,9.545,0,0,1-9.83-1.237,6.059,6.059,0,0,1-12.5-5.469l4.238-.971a3.6,3.6,0,0,0,1.306,2.5,4.332,4.332,0,0,0,2.769.868,3.576,3.576,0,0,0,2.16-.608,2.052,2.052,0,0,0,.82-1.8,1.917,1.917,0,0,0-.7-1.463,4.556,4.556,0,0,0-1.388-.9q-.69-.267-2.222-.731-.205-.068-.3-.1-.779-.246-1.258-.41t-1.183-.458A7.875,7.875,0,0,1-9.4-10.11a8.408,8.408,0,0,1-.95-.711,3.724,3.724,0,0,1-.793-.909,4.83,4.83,0,0,1-.479-1.135,5.008,5.008,0,0,1-.191-1.408,5.289,5.289,0,0,1,.923-3.11A5.652,5.652,0,0,1-8.4-19.366a9.056,9.056,0,0,1,3.562-.663,11.251,11.251,0,0,1,2.577.287,9.027,9.027,0,0,1,2.3.882A5.643,5.643,0,0,1,1.88-17.233a6.117,6.117,0,0,1,1.046,2.4l-3.965.984a3.212,3.212,0,0,0-3.555-2.83,3.892,3.892,0,0,0-2.2.574,1.946,1.946,0,0,0-.861,1.736q0,1.08,1.436,1.75a21.392,21.392,0,0,0,2.748.943q.807.246,1.313.41t1.271.479a8.835,8.835,0,0,1,1.244.608,9.207,9.207,0,0,1,1.039.759,4.086,4.086,0,0,1,.882.984,5.323,5.323,0,0,1,.54,1.224,5.114,5.114,0,0,1,.219,1.524,5.989,5.989,0,0,1-.4,2.229A4.85,4.85,0,0,1,1.552-1.777,6.312,6.312,0,0,1-.082-.622a7.926,7.926,0,0,1-2.01.684A11.559,11.559,0,0,1-4.348.273ZM6.822,0V-19.756h4.1V0Z" transform="translate(14757 -2257)" fill="#002b45"/>
    <path id="Trazado_23939" data-name="Trazado 23939" d="M-4.348.273A9.545,9.545,0,0,1-9.83-1.237,6.059,6.059,0,0,1-12.5-5.469l4.238-.971a3.6,3.6,0,0,0,1.306,2.5,4.332,4.332,0,0,0,2.769.868,3.576,3.576,0,0,0,2.16-.608,2.052,2.052,0,0,0,.82-1.8,1.917,1.917,0,0,0-.7-1.463,4.556,4.556,0,0,0-1.388-.9q-.69-.267-2.222-.731-.205-.068-.3-.1-.779-.246-1.258-.41t-1.183-.458A7.875,7.875,0,0,1-9.4-10.11a8.408,8.408,0,0,1-.95-.711,3.724,3.724,0,0,1-.793-.909,4.83,4.83,0,0,1-.479-1.135,5.008,5.008,0,0,1-.191-1.408,5.289,5.289,0,0,1,.923-3.11A5.652,5.652,0,0,1-8.4-19.366a9.056,9.056,0,0,1,3.562-.663,11.251,11.251,0,0,1,2.577.287,9.027,9.027,0,0,1,2.3.882A5.643,5.643,0,0,1,1.88-17.233a6.117,6.117,0,0,1,1.046,2.4l-3.965.984a3.212,3.212,0,0,0-3.555-2.83,3.892,3.892,0,0,0-2.2.574,1.946,1.946,0,0,0-.861,1.736q0,1.08,1.436,1.75a21.392,21.392,0,0,0,2.748.943q.807.246,1.313.41t1.271.479a8.835,8.835,0,0,1,1.244.608,9.207,9.207,0,0,1,1.039.759,4.086,4.086,0,0,1,.882.984,5.323,5.323,0,0,1,.54,1.224,5.114,5.114,0,0,1,.219,1.524,5.989,5.989,0,0,1-.4,2.229A4.85,4.85,0,0,1,1.552-1.777,6.312,6.312,0,0,1-.082-.622a7.926,7.926,0,0,1-2.01.684A11.559,11.559,0,0,1-4.348.273ZM6.822,0V-19.756h4.1V0Z" transform="translate(14757 -2122)" fill="#002b45"/>
    <path id="Trazado_23936" data-name="Trazado 23936" d="M-.034.273q-3.691,0-5.387-1.8t-1.7-5.523l4.033-.178a14.282,14.282,0,0,0,.062,1.449,5.009,5.009,0,0,0,.246,1.121,2.006,2.006,0,0,0,.52.841,2.361,2.361,0,0,0,.889.485,4.391,4.391,0,0,0,1.333.178A3.2,3.2,0,0,0,2.3-3.951,2.772,2.772,0,0,0,3.11-6.029a2.794,2.794,0,0,0-.779-2.14A2.933,2.933,0,0,0,.239-8.9H-.526v-3.062H.185a2.138,2.138,0,0,0,1.634-.7,2.486,2.486,0,0,0,.649-1.764,1.987,1.987,0,0,0-.711-1.641,2.89,2.89,0,0,0-1.873-.574,2.807,2.807,0,0,0-1.066.185,1.989,1.989,0,0,0-.718.472,2.086,2.086,0,0,0-.424.725,3.808,3.808,0,0,0-.205.861,8.6,8.6,0,0,0-.048.957l-3.979-.191a6.324,6.324,0,0,1,1.7-4.751,6.464,6.464,0,0,1,4.7-1.647,6.723,6.723,0,0,1,4.512,1.511,4.731,4.731,0,0,1,1.777,3.753,4.271,4.271,0,0,1-.759,2.543,4.344,4.344,0,0,1-1.729,1.5,4.869,4.869,0,0,1,1.258.561A5.156,5.156,0,0,1,6-9.215a4.21,4.21,0,0,1,.813,1.436,5.776,5.776,0,0,1,.3,1.914A5.583,5.583,0,0,1,5.161-1.4,7.712,7.712,0,0,1-.034.273Z" transform="translate(14757 -2354)" fill="#002b45"/>
    <path id="Trazado_23940" data-name="Trazado 23940" d="M-4.348.273A9.545,9.545,0,0,1-9.83-1.237,6.059,6.059,0,0,1-12.5-5.469l4.238-.971a3.6,3.6,0,0,0,1.306,2.5,4.332,4.332,0,0,0,2.769.868,3.576,3.576,0,0,0,2.16-.608,2.052,2.052,0,0,0,.82-1.8,1.917,1.917,0,0,0-.7-1.463,4.556,4.556,0,0,0-1.388-.9q-.69-.267-2.222-.731-.205-.068-.3-.1-.779-.246-1.258-.41t-1.183-.458A7.875,7.875,0,0,1-9.4-10.11a8.408,8.408,0,0,1-.95-.711,3.724,3.724,0,0,1-.793-.909,4.83,4.83,0,0,1-.479-1.135,5.008,5.008,0,0,1-.191-1.408,5.289,5.289,0,0,1,.923-3.11A5.652,5.652,0,0,1-8.4-19.366a9.056,9.056,0,0,1,3.562-.663,11.251,11.251,0,0,1,2.577.287,9.027,9.027,0,0,1,2.3.882A5.643,5.643,0,0,1,1.88-17.233a6.117,6.117,0,0,1,1.046,2.4l-3.965.984a3.212,3.212,0,0,0-3.555-2.83,3.892,3.892,0,0,0-2.2.574,1.946,1.946,0,0,0-.861,1.736q0,1.08,1.436,1.75a21.392,21.392,0,0,0,2.748.943q.807.246,1.313.41t1.271.479a8.835,8.835,0,0,1,1.244.608,9.207,9.207,0,0,1,1.039.759,4.086,4.086,0,0,1,.882.984,5.323,5.323,0,0,1,.54,1.224,5.114,5.114,0,0,1,.219,1.524,5.989,5.989,0,0,1-.4,2.229A4.85,4.85,0,0,1,1.552-1.777,6.312,6.312,0,0,1-.082-.622a7.926,7.926,0,0,1-2.01.684A11.559,11.559,0,0,1-4.348.273ZM6.822,0V-19.756h4.1V0Z" transform="translate(14830 -2257)" fill="#002b45"/>
    <path id="Trazado_23941" data-name="Trazado 23941" d="M-6.6-19.756h4.088V0H-7.26l-8.75-14.123V0H-20.1V-19.756h4.689L-6.6-5.715ZM11.348.273A10.739,10.739,0,0,1,6.159-.964a8.969,8.969,0,0,1-3.6-3.562A10.711,10.711,0,0,1,1.244-9.885a10.7,10.7,0,0,1,1.313-5.366,8.935,8.935,0,0,1,3.6-3.548,10.787,10.787,0,0,1,5.188-1.23,10.747,10.747,0,0,1,5.182,1.23,8.947,8.947,0,0,1,3.6,3.548,10.7,10.7,0,0,1,1.313,5.366,10.711,10.711,0,0,1-1.312,5.359,8.969,8.969,0,0,1-3.6,3.562A10.71,10.71,0,0,1,11.348.273ZM7.027-5.216a5.791,5.791,0,0,0,4.32,1.729,5.791,5.791,0,0,0,4.32-1.729,6.381,6.381,0,0,0,1.7-4.669,6.339,6.339,0,0,0-1.7-4.648,5.8,5.8,0,0,0-4.32-1.723,5.8,5.8,0,0,0-4.32,1.723,6.339,6.339,0,0,0-1.7,4.648A6.381,6.381,0,0,0,7.027-5.216Z" transform="translate(14830 -2122)" fill="#002b45"/>
    <path id="Trazado_23942" data-name="Trazado 23942" d="M7.649-7.26v3.514H5.271V0H1.333V-3.746H-7.759V-7.273l7-12.482H5.271v12.5Zm-11.758,0H1.333V-17.391Z" transform="translate(14830 -2354)" fill="#002b45"/>
    <path id="Trazado_23943" data-name="Trazado 23943" d="M-.39-12.811q7.588,0,7.588,6.234a6.66,6.66,0,0,1-1.914,5A6.918,6.918,0,0,1,.239.287,8.369,8.369,0,0,1-3.295-.444,6.1,6.1,0,0,1-5.858-2.618a5.822,5.822,0,0,1-.971-3.329,6.147,6.147,0,0,1,.082-.984l3.91-.178a5.779,5.779,0,0,0-.1.875,2.66,2.66,0,0,0,.889,2.181,3.349,3.349,0,0,0,2.2.731,3.034,3.034,0,0,0,2.3-.841,3.132,3.132,0,0,0,.807-2.263,2.816,2.816,0,0,0-.984-2.311,5.271,5.271,0,0,0-3.309-.807H-6.214l.82-10.213H6.269v3.514H-1.853l-.26,3.432Z" transform="translate(14903 -2354)" fill="#002b45"/>
    <path id="Trazado_23944" data-name="Trazado 23944" d="M-4.348.273A9.545,9.545,0,0,1-9.83-1.237,6.059,6.059,0,0,1-12.5-5.469l4.238-.971a3.6,3.6,0,0,0,1.306,2.5,4.332,4.332,0,0,0,2.769.868,3.576,3.576,0,0,0,2.16-.608,2.052,2.052,0,0,0,.82-1.8,1.917,1.917,0,0,0-.7-1.463,4.556,4.556,0,0,0-1.388-.9q-.69-.267-2.222-.731-.205-.068-.3-.1-.779-.246-1.258-.41t-1.183-.458A7.875,7.875,0,0,1-9.4-10.11a8.408,8.408,0,0,1-.95-.711,3.724,3.724,0,0,1-.793-.909,4.83,4.83,0,0,1-.479-1.135,5.008,5.008,0,0,1-.191-1.408,5.289,5.289,0,0,1,.923-3.11A5.652,5.652,0,0,1-8.4-19.366a9.056,9.056,0,0,1,3.562-.663,11.251,11.251,0,0,1,2.577.287,9.027,9.027,0,0,1,2.3.882A5.643,5.643,0,0,1,1.88-17.233a6.117,6.117,0,0,1,1.046,2.4l-3.965.984a3.212,3.212,0,0,0-3.555-2.83,3.892,3.892,0,0,0-2.2.574,1.946,1.946,0,0,0-.861,1.736q0,1.08,1.436,1.75a21.392,21.392,0,0,0,2.748.943q.807.246,1.313.41t1.271.479a8.835,8.835,0,0,1,1.244.608,9.207,9.207,0,0,1,1.039.759,4.086,4.086,0,0,1,.882.984,5.323,5.323,0,0,1,.54,1.224,5.114,5.114,0,0,1,.219,1.524,5.989,5.989,0,0,1-.4,2.229A4.85,4.85,0,0,1,1.552-1.777,6.312,6.312,0,0,1-.082-.622a7.926,7.926,0,0,1-2.01.684A11.559,11.559,0,0,1-4.348.273ZM6.822,0V-19.756h4.1V0Z" transform="translate(14903 -2122)" fill="#002b45"/>
    <path id="Trazado_23945" data-name="Trazado 23945" d="M-6.6-19.756h4.088V0H-7.26l-8.75-14.123V0H-20.1V-19.756h4.689L-6.6-5.715ZM11.348.273A10.739,10.739,0,0,1,6.159-.964a8.969,8.969,0,0,1-3.6-3.562A10.711,10.711,0,0,1,1.244-9.885a10.7,10.7,0,0,1,1.313-5.366,8.935,8.935,0,0,1,3.6-3.548,10.787,10.787,0,0,1,5.188-1.23,10.747,10.747,0,0,1,5.182,1.23,8.947,8.947,0,0,1,3.6,3.548,10.7,10.7,0,0,1,1.313,5.366,10.711,10.711,0,0,1-1.312,5.359,8.969,8.969,0,0,1-3.6,3.562A10.71,10.71,0,0,1,11.348.273ZM7.027-5.216a5.791,5.791,0,0,0,4.32,1.729,5.791,5.791,0,0,0,4.32-1.729,6.381,6.381,0,0,0,1.7-4.669,6.339,6.339,0,0,0-1.7-4.648,5.8,5.8,0,0,0-4.32-1.723,5.8,5.8,0,0,0-4.32,1.723,6.339,6.339,0,0,0-1.7,4.648A6.381,6.381,0,0,0,7.027-5.216Z" transform="translate(14903 -2257)" fill="#002b45"/>
    <path id="Trazado_23947" data-name="Trazado 23947" d="M-4.348.273A9.545,9.545,0,0,1-9.83-1.237,6.059,6.059,0,0,1-12.5-5.469l4.238-.971a3.6,3.6,0,0,0,1.306,2.5,4.332,4.332,0,0,0,2.769.868,3.576,3.576,0,0,0,2.16-.608,2.052,2.052,0,0,0,.82-1.8,1.917,1.917,0,0,0-.7-1.463,4.556,4.556,0,0,0-1.388-.9q-.69-.267-2.222-.731-.205-.068-.3-.1-.779-.246-1.258-.41t-1.183-.458A7.875,7.875,0,0,1-9.4-10.11a8.408,8.408,0,0,1-.95-.711,3.724,3.724,0,0,1-.793-.909,4.83,4.83,0,0,1-.479-1.135,5.008,5.008,0,0,1-.191-1.408,5.289,5.289,0,0,1,.923-3.11A5.652,5.652,0,0,1-8.4-19.366a9.056,9.056,0,0,1,3.562-.663,11.251,11.251,0,0,1,2.577.287,9.027,9.027,0,0,1,2.3.882A5.643,5.643,0,0,1,1.88-17.233a6.117,6.117,0,0,1,1.046,2.4l-3.965.984a3.212,3.212,0,0,0-3.555-2.83,3.892,3.892,0,0,0-2.2.574,1.946,1.946,0,0,0-.861,1.736q0,1.08,1.436,1.75a21.392,21.392,0,0,0,2.748.943q.807.246,1.313.41t1.271.479a8.835,8.835,0,0,1,1.244.608,9.207,9.207,0,0,1,1.039.759,4.086,4.086,0,0,1,.882.984,5.323,5.323,0,0,1,.54,1.224,5.114,5.114,0,0,1,.219,1.524,5.989,5.989,0,0,1-.4,2.229A4.85,4.85,0,0,1,1.552-1.777,6.312,6.312,0,0,1-.082-.622a7.926,7.926,0,0,1-2.01.684A11.559,11.559,0,0,1-4.348.273ZM6.822,0V-19.756h4.1V0Z" transform="translate(14976 -2122)" fill="#002b45"/>
    <path id="Trazado_23948" data-name="Trazado 23948" d="M-4.348.273A9.545,9.545,0,0,1-9.83-1.237,6.059,6.059,0,0,1-12.5-5.469l4.238-.971a3.6,3.6,0,0,0,1.306,2.5,4.332,4.332,0,0,0,2.769.868,3.576,3.576,0,0,0,2.16-.608,2.052,2.052,0,0,0,.82-1.8,1.917,1.917,0,0,0-.7-1.463,4.556,4.556,0,0,0-1.388-.9q-.69-.267-2.222-.731-.205-.068-.3-.1-.779-.246-1.258-.41t-1.183-.458A7.875,7.875,0,0,1-9.4-10.11a8.408,8.408,0,0,1-.95-.711,3.724,3.724,0,0,1-.793-.909,4.83,4.83,0,0,1-.479-1.135,5.008,5.008,0,0,1-.191-1.408,5.289,5.289,0,0,1,.923-3.11A5.652,5.652,0,0,1-8.4-19.366a9.056,9.056,0,0,1,3.562-.663,11.251,11.251,0,0,1,2.577.287,9.027,9.027,0,0,1,2.3.882A5.643,5.643,0,0,1,1.88-17.233a6.117,6.117,0,0,1,1.046,2.4l-3.965.984a3.212,3.212,0,0,0-3.555-2.83,3.892,3.892,0,0,0-2.2.574,1.946,1.946,0,0,0-.861,1.736q0,1.08,1.436,1.75a21.392,21.392,0,0,0,2.748.943q.807.246,1.313.41t1.271.479a8.835,8.835,0,0,1,1.244.608,9.207,9.207,0,0,1,1.039.759,4.086,4.086,0,0,1,.882.984,5.323,5.323,0,0,1,.54,1.224,5.114,5.114,0,0,1,.219,1.524,5.989,5.989,0,0,1-.4,2.229A4.85,4.85,0,0,1,1.552-1.777,6.312,6.312,0,0,1-.082-.622a7.926,7.926,0,0,1-2.01.684A11.559,11.559,0,0,1-4.348.273ZM6.822,0V-19.756h4.1V0Z" transform="translate(14976 -2257)" fill="#002b45"/>
    <path id="Trazado_23949" data-name="Trazado 23949" d="M7.267-6.631a6.441,6.441,0,0,1-.581,2.775,6.549,6.549,0,0,1-1.6,2.194A7.532,7.532,0,0,1,2.741-.253,7.776,7.776,0,0,1-.062.26,7.76,7.76,0,0,1-2.912-.267,7.02,7.02,0,0,1-5.223-1.709,6.7,6.7,0,0,1-6.747-3.9a6.684,6.684,0,0,1-.561-2.714,8.211,8.211,0,0,1,1.75-4.826L.595-19.756H5.065L-.062-13.07a6.661,6.661,0,0,1,.9-.055,6.44,6.44,0,0,1,2.427.465,6.571,6.571,0,0,1,2.044,1.292A5.978,5.978,0,0,1,6.727-9.311,6.911,6.911,0,0,1,7.267-6.631Zm-3.855-.1a3.375,3.375,0,0,0-.957-2.55A3.481,3.481,0,0,0-.13-10.268a3.337,3.337,0,0,0-2.5,1,3.525,3.525,0,0,0-1,2.488,3.381,3.381,0,0,0,.916,2.536,3.4,3.4,0,0,0,2.543.964A3.561,3.561,0,0,0,2.4-4.238,3.336,3.336,0,0,0,3.411-6.727Z" transform="translate(14976 -2354)" fill="#002b45"/>
    <path id="Trazado_23950" data-name="Trazado 23950" d="M-6.6-19.756h4.088V0H-7.26l-8.75-14.123V0H-20.1V-19.756h4.689L-6.6-5.715ZM11.348.273A10.739,10.739,0,0,1,6.159-.964a8.969,8.969,0,0,1-3.6-3.562A10.711,10.711,0,0,1,1.244-9.885a10.7,10.7,0,0,1,1.313-5.366,8.935,8.935,0,0,1,3.6-3.548,10.787,10.787,0,0,1,5.188-1.23,10.747,10.747,0,0,1,5.182,1.23,8.947,8.947,0,0,1,3.6,3.548,10.7,10.7,0,0,1,1.313,5.366,10.711,10.711,0,0,1-1.312,5.359,8.969,8.969,0,0,1-3.6,3.562A10.71,10.71,0,0,1,11.348.273ZM7.027-5.216a5.791,5.791,0,0,0,4.32,1.729,5.791,5.791,0,0,0,4.32-1.729,6.381,6.381,0,0,0,1.7-4.669,6.339,6.339,0,0,0-1.7-4.648,5.8,5.8,0,0,0-4.32-1.723,5.8,5.8,0,0,0-4.32,1.723,6.339,6.339,0,0,0-1.7,4.648A6.381,6.381,0,0,0,7.027-5.216Z" transform="translate(15048 -2257)" fill="#002b45"/>
    <path id="Trazado_23951" data-name="Trazado 23951" d="M-6.6-19.756h4.088V0H-7.26l-8.75-14.123V0H-20.1V-19.756h4.689L-6.6-5.715ZM11.348.273A10.739,10.739,0,0,1,6.159-.964a8.969,8.969,0,0,1-3.6-3.562A10.711,10.711,0,0,1,1.244-9.885a10.7,10.7,0,0,1,1.313-5.366,8.935,8.935,0,0,1,3.6-3.548,10.787,10.787,0,0,1,5.188-1.23,10.747,10.747,0,0,1,5.182,1.23,8.947,8.947,0,0,1,3.6,3.548,10.7,10.7,0,0,1,1.313,5.366,10.711,10.711,0,0,1-1.312,5.359,8.969,8.969,0,0,1-3.6,3.562A10.71,10.71,0,0,1,11.348.273ZM7.027-5.216a5.791,5.791,0,0,0,4.32,1.729,5.791,5.791,0,0,0,4.32-1.729,6.381,6.381,0,0,0,1.7-4.669,6.339,6.339,0,0,0-1.7-4.648,5.8,5.8,0,0,0-4.32-1.723,5.8,5.8,0,0,0-4.32,1.723,6.339,6.339,0,0,0-1.7,4.648A6.381,6.381,0,0,0,7.027-5.216Z" transform="translate(15048 -2122)" fill="#002b45"/>
    <path id="Trazado_23952" data-name="Trazado 23952" d="M-6.843-19.756h13.9v3.035L-1.866,0H-6.323L2.632-16.256H-6.843Z" transform="translate(15048 -2354)" fill="#002b45"/>
    <path id="Trazado_23953" data-name="Trazado 23953" d="M-6.6-19.756h4.088V0H-7.26l-8.75-14.123V0H-20.1V-19.756h4.689L-6.6-5.715ZM11.348.273A10.739,10.739,0,0,1,6.159-.964a8.969,8.969,0,0,1-3.6-3.562A10.711,10.711,0,0,1,1.244-9.885a10.7,10.7,0,0,1,1.313-5.366,8.935,8.935,0,0,1,3.6-3.548,10.787,10.787,0,0,1,5.188-1.23,10.747,10.747,0,0,1,5.182,1.23,8.947,8.947,0,0,1,3.6,3.548,10.7,10.7,0,0,1,1.313,5.366,10.711,10.711,0,0,1-1.312,5.359,8.969,8.969,0,0,1-3.6,3.562A10.71,10.71,0,0,1,11.348.273ZM7.027-5.216a5.791,5.791,0,0,0,4.32,1.729,5.791,5.791,0,0,0,4.32-1.729,6.381,6.381,0,0,0,1.7-4.669,6.339,6.339,0,0,0-1.7-4.648,5.8,5.8,0,0,0-4.32-1.723,5.8,5.8,0,0,0-4.32,1.723,6.339,6.339,0,0,0-1.7,4.648A6.381,6.381,0,0,0,7.027-5.216Z" transform="translate(15121 -2257)" fill="#002b45"/>
    <path id="Trazado_23954" data-name="Trazado 23954" d="M-6.6-19.756h4.088V0H-7.26l-8.75-14.123V0H-20.1V-19.756h4.689L-6.6-5.715ZM11.348.273A10.739,10.739,0,0,1,6.159-.964a8.969,8.969,0,0,1-3.6-3.562A10.711,10.711,0,0,1,1.244-9.885a10.7,10.7,0,0,1,1.313-5.366,8.935,8.935,0,0,1,3.6-3.548,10.787,10.787,0,0,1,5.188-1.23,10.747,10.747,0,0,1,5.182,1.23,8.947,8.947,0,0,1,3.6,3.548,10.7,10.7,0,0,1,1.313,5.366,10.711,10.711,0,0,1-1.312,5.359,8.969,8.969,0,0,1-3.6,3.562A10.71,10.71,0,0,1,11.348.273ZM7.027-5.216a5.791,5.791,0,0,0,4.32,1.729,5.791,5.791,0,0,0,4.32-1.729,6.381,6.381,0,0,0,1.7-4.669,6.339,6.339,0,0,0-1.7-4.648,5.8,5.8,0,0,0-4.32-1.723,5.8,5.8,0,0,0-4.32,1.723,6.339,6.339,0,0,0-1.7,4.648A6.381,6.381,0,0,0,7.027-5.216Z" transform="translate(15121 -2122)" fill="#002b45"/>
    <path id="Trazado_23955" data-name="Trazado 23955" d="M.034.273A7.905,7.905,0,0,1-5.127-1.381a5.435,5.435,0,0,1-2.03-4.443A5.537,5.537,0,0,1-6.33-8.853,5.669,5.669,0,0,1-4.04-10.9a5,5,0,0,1-1.634-1.682,4.343,4.343,0,0,1-.595-2.242A4.634,4.634,0,0,1-4.5-18.587,6.938,6.938,0,0,1,.034-20.029a6.824,6.824,0,0,1,4.478,1.442A4.641,4.641,0,0,1,6.269-14.82a4.425,4.425,0,0,1-.574,2.235A5.046,5.046,0,0,1,4.108-10.9a5.641,5.641,0,0,1,2.27,2.044A5.572,5.572,0,0,1,7.2-5.824a5.677,5.677,0,0,1-.943,3.247A5.938,5.938,0,0,1,3.691-.451,8.865,8.865,0,0,1,.034.273Zm0-12.318a2.627,2.627,0,0,0,1.873-.738,2.391,2.391,0,0,0,.779-1.8,2.333,2.333,0,0,0-.779-1.777A2.654,2.654,0,0,0,.034-17.09a2.664,2.664,0,0,0-1.894.725,2.342,2.342,0,0,0-.772,1.777,2.394,2.394,0,0,0,.772,1.812A2.651,2.651,0,0,0,.034-12.045Zm0,8.791a3.3,3.3,0,0,0,2.311-.834A2.883,2.883,0,0,0,3.261-6.33a2.8,2.8,0,0,0-.923-2.194,3.324,3.324,0,0,0-2.3-.827A3.362,3.362,0,0,0-2.3-8.524,2.8,2.8,0,0,0-3.22-6.33,2.873,2.873,0,0,0-2.3-4.088,3.345,3.345,0,0,0,.034-3.254Z" transform="translate(15121 -2354)" fill="#002b45"/>
    <path id="Trazado_23956" data-name="Trazado 23956" d="M-4.348.273A9.545,9.545,0,0,1-9.83-1.237,6.059,6.059,0,0,1-12.5-5.469l4.238-.971a3.6,3.6,0,0,0,1.306,2.5,4.332,4.332,0,0,0,2.769.868,3.576,3.576,0,0,0,2.16-.608,2.052,2.052,0,0,0,.82-1.8,1.917,1.917,0,0,0-.7-1.463,4.556,4.556,0,0,0-1.388-.9q-.69-.267-2.222-.731-.205-.068-.3-.1-.779-.246-1.258-.41t-1.183-.458A7.875,7.875,0,0,1-9.4-10.11a8.408,8.408,0,0,1-.95-.711,3.724,3.724,0,0,1-.793-.909,4.83,4.83,0,0,1-.479-1.135,5.008,5.008,0,0,1-.191-1.408,5.289,5.289,0,0,1,.923-3.11A5.652,5.652,0,0,1-8.4-19.366a9.056,9.056,0,0,1,3.562-.663,11.251,11.251,0,0,1,2.577.287,9.027,9.027,0,0,1,2.3.882A5.643,5.643,0,0,1,1.88-17.233a6.117,6.117,0,0,1,1.046,2.4l-3.965.984a3.212,3.212,0,0,0-3.555-2.83,3.892,3.892,0,0,0-2.2.574,1.946,1.946,0,0,0-.861,1.736q0,1.08,1.436,1.75a21.392,21.392,0,0,0,2.748.943q.807.246,1.313.41t1.271.479a8.835,8.835,0,0,1,1.244.608,9.207,9.207,0,0,1,1.039.759,4.086,4.086,0,0,1,.882.984,5.323,5.323,0,0,1,.54,1.224,5.114,5.114,0,0,1,.219,1.524,5.989,5.989,0,0,1-.4,2.229A4.85,4.85,0,0,1,1.552-1.777,6.312,6.312,0,0,1-.082-.622a7.926,7.926,0,0,1-2.01.684A11.559,11.559,0,0,1-4.348.273ZM6.822,0V-19.756h4.1V0Z" transform="translate(15194 -2122)" fill="#002b45"/>
    <path id="Trazado_23957" data-name="Trazado 23957" d="M-6.6-19.756h4.088V0H-7.26l-8.75-14.123V0H-20.1V-19.756h4.689L-6.6-5.715ZM11.348.273A10.739,10.739,0,0,1,6.159-.964a8.969,8.969,0,0,1-3.6-3.562A10.711,10.711,0,0,1,1.244-9.885a10.7,10.7,0,0,1,1.313-5.366,8.935,8.935,0,0,1,3.6-3.548,10.787,10.787,0,0,1,5.188-1.23,10.747,10.747,0,0,1,5.182,1.23,8.947,8.947,0,0,1,3.6,3.548,10.7,10.7,0,0,1,1.313,5.366,10.711,10.711,0,0,1-1.312,5.359,8.969,8.969,0,0,1-3.6,3.562A10.71,10.71,0,0,1,11.348.273ZM7.027-5.216a5.791,5.791,0,0,0,4.32,1.729,5.791,5.791,0,0,0,4.32-1.729,6.381,6.381,0,0,0,1.7-4.669,6.339,6.339,0,0,0-1.7-4.648,5.8,5.8,0,0,0-4.32-1.723,5.8,5.8,0,0,0-4.32,1.723,6.339,6.339,0,0,0-1.7,4.648A6.381,6.381,0,0,0,7.027-5.216Z" transform="translate(15194 -2257)" fill="#002b45"/>
    <path id="Trazado_23958" data-name="Trazado 23958" d="M.034-20.016a7.639,7.639,0,0,1,3.685.9,6.741,6.741,0,0,1,2.618,2.475,6.635,6.635,0,0,1,.957,3.507A8.071,8.071,0,0,1,5.53-8.326L-.622,0H-5.106L.007-6.686a6.545,6.545,0,0,1-.889.055,6.463,6.463,0,0,1-3.131-.786,6.173,6.173,0,0,1-2.358-2.29,6.476,6.476,0,0,1-.909-3.418,6.334,6.334,0,0,1,2.146-4.929A7.422,7.422,0,0,1,.034-20.016Zm3.555,7.027a3.376,3.376,0,0,0-.909-2.522,3.373,3.373,0,0,0-2.536-.964,3.552,3.552,0,0,0-2.563.964,3.331,3.331,0,0,0-1.019,2.481,3.379,3.379,0,0,0,.957,2.543,3.468,3.468,0,0,0,2.584,1,3.309,3.309,0,0,0,2.5-1A3.571,3.571,0,0,0,3.589-12.988Z" transform="translate(15194 -2354)" fill="#002b45"/>
    <path id="Trazado_23959" data-name="Trazado 23959" d="M-6.6-19.756h4.088V0H-7.26l-8.75-14.123V0H-20.1V-19.756h4.689L-6.6-5.715ZM11.348.273A10.739,10.739,0,0,1,6.159-.964a8.969,8.969,0,0,1-3.6-3.562A10.711,10.711,0,0,1,1.244-9.885a10.7,10.7,0,0,1,1.313-5.366,8.935,8.935,0,0,1,3.6-3.548,10.787,10.787,0,0,1,5.188-1.23,10.747,10.747,0,0,1,5.182,1.23,8.947,8.947,0,0,1,3.6,3.548,10.7,10.7,0,0,1,1.313,5.366,10.711,10.711,0,0,1-1.312,5.359,8.969,8.969,0,0,1-3.6,3.562A10.71,10.71,0,0,1,11.348.273ZM7.027-5.216a5.791,5.791,0,0,0,4.32,1.729,5.791,5.791,0,0,0,4.32-1.729,6.381,6.381,0,0,0,1.7-4.669,6.339,6.339,0,0,0-1.7-4.648,5.8,5.8,0,0,0-4.32-1.723,5.8,5.8,0,0,0-4.32,1.723,6.339,6.339,0,0,0-1.7,4.648A6.381,6.381,0,0,0,7.027-5.216Z" transform="translate(15267 -2257)" fill="#002b45"/>
    <path id="Trazado_23960" data-name="Trazado 23960" d="M-6.6-19.756h4.088V0H-7.26l-8.75-14.123V0H-20.1V-19.756h4.689L-6.6-5.715ZM11.348.273A10.739,10.739,0,0,1,6.159-.964a8.969,8.969,0,0,1-3.6-3.562A10.711,10.711,0,0,1,1.244-9.885a10.7,10.7,0,0,1,1.313-5.366,8.935,8.935,0,0,1,3.6-3.548,10.787,10.787,0,0,1,5.188-1.23,10.747,10.747,0,0,1,5.182,1.23,8.947,8.947,0,0,1,3.6,3.548,10.7,10.7,0,0,1,1.313,5.366,10.711,10.711,0,0,1-1.312,5.359,8.969,8.969,0,0,1-3.6,3.562A10.71,10.71,0,0,1,11.348.273ZM7.027-5.216a5.791,5.791,0,0,0,4.32,1.729,5.791,5.791,0,0,0,4.32-1.729,6.381,6.381,0,0,0,1.7-4.669,6.339,6.339,0,0,0-1.7-4.648,5.8,5.8,0,0,0-4.32-1.723,5.8,5.8,0,0,0-4.32,1.723,6.339,6.339,0,0,0-1.7,4.648A6.381,6.381,0,0,0,7.027-5.216Z" transform="translate(15267 -2122)" fill="#002b45"/>
    <path id="Trazado_23961" data-name="Trazado 23961" d="M-8.9-19.756h3.746V0H-9.078V-15.709l-4.539,4.225v-4.047ZM8.381.273A6.162,6.162,0,0,1,3.069-2.283Q1.217-4.84,1.217-9.885t1.846-7.6a6.169,6.169,0,0,1,5.318-2.543,6.155,6.155,0,0,1,5.3,2.543q1.846,2.543,1.846,7.6t-1.853,7.6A6.148,6.148,0,0,1,8.381.273Zm0-3.555A2.6,2.6,0,0,0,10.753-4.9a11.28,11.28,0,0,0,.841-4.983,11.2,11.2,0,0,0-.848-4.983,2.6,2.6,0,0,0-2.365-1.62q-3.227,0-3.227,6.6T8.381-3.281Z" transform="translate(15267 -2354)" fill="#002b45"/>
    <path id="Trazado_23962" data-name="Trazado 23962" d="M-6.6-19.756h4.088V0H-7.26l-8.75-14.123V0H-20.1V-19.756h4.689L-6.6-5.715ZM11.348.273A10.739,10.739,0,0,1,6.159-.964a8.969,8.969,0,0,1-3.6-3.562A10.711,10.711,0,0,1,1.244-9.885a10.7,10.7,0,0,1,1.313-5.366,8.935,8.935,0,0,1,3.6-3.548,10.787,10.787,0,0,1,5.188-1.23,10.747,10.747,0,0,1,5.182,1.23,8.947,8.947,0,0,1,3.6,3.548,10.7,10.7,0,0,1,1.313,5.366,10.711,10.711,0,0,1-1.312,5.359,8.969,8.969,0,0,1-3.6,3.562A10.71,10.71,0,0,1,11.348.273ZM7.027-5.216a5.791,5.791,0,0,0,4.32,1.729,5.791,5.791,0,0,0,4.32-1.729,6.381,6.381,0,0,0,1.7-4.669,6.339,6.339,0,0,0-1.7-4.648,5.8,5.8,0,0,0-4.32-1.723,5.8,5.8,0,0,0-4.32,1.723,6.339,6.339,0,0,0-1.7,4.648A6.381,6.381,0,0,0,7.027-5.216Z" transform="translate(15339 -2257)" fill="#002b45"/>
    <path id="Trazado_23963" data-name="Trazado 23963" d="M-6.6-19.756h4.088V0H-7.26l-8.75-14.123V0H-20.1V-19.756h4.689L-6.6-5.715ZM11.348.273A10.739,10.739,0,0,1,6.159-.964a8.969,8.969,0,0,1-3.6-3.562A10.711,10.711,0,0,1,1.244-9.885a10.7,10.7,0,0,1,1.313-5.366,8.935,8.935,0,0,1,3.6-3.548,10.787,10.787,0,0,1,5.188-1.23,10.747,10.747,0,0,1,5.182,1.23,8.947,8.947,0,0,1,3.6,3.548,10.7,10.7,0,0,1,1.313,5.366,10.711,10.711,0,0,1-1.312,5.359,8.969,8.969,0,0,1-3.6,3.562A10.71,10.71,0,0,1,11.348.273ZM7.027-5.216a5.791,5.791,0,0,0,4.32,1.729,5.791,5.791,0,0,0,4.32-1.729,6.381,6.381,0,0,0,1.7-4.669,6.339,6.339,0,0,0-1.7-4.648,5.8,5.8,0,0,0-4.32-1.723,5.8,5.8,0,0,0-4.32,1.723,6.339,6.339,0,0,0-1.7,4.648A6.381,6.381,0,0,0,7.027-5.216Z" transform="translate(15339 -2122)" fill="#002b45"/>
    <path id="Trazado_23964" data-name="Trazado 23964" d="M-8.9-19.756h3.746V0H-9.078V-15.709l-4.539,4.225v-4.047Zm16.721,0h3.746V0H7.643V-15.709L3.1-11.484v-4.047Z" transform="translate(15339 -2354)" fill="#002b45"/>
    <path id="Trazado_23967" data-name="Trazado 23967" d="M-4.348.273A9.545,9.545,0,0,1-9.83-1.237,6.059,6.059,0,0,1-12.5-5.469l4.238-.971a3.6,3.6,0,0,0,1.306,2.5,4.332,4.332,0,0,0,2.769.868,3.576,3.576,0,0,0,2.16-.608,2.052,2.052,0,0,0,.82-1.8,1.917,1.917,0,0,0-.7-1.463,4.556,4.556,0,0,0-1.388-.9q-.69-.267-2.222-.731-.205-.068-.3-.1-.779-.246-1.258-.41t-1.183-.458A7.875,7.875,0,0,1-9.4-10.11a8.408,8.408,0,0,1-.95-.711,3.724,3.724,0,0,1-.793-.909,4.83,4.83,0,0,1-.479-1.135,5.008,5.008,0,0,1-.191-1.408,5.289,5.289,0,0,1,.923-3.11A5.652,5.652,0,0,1-8.4-19.366a9.056,9.056,0,0,1,3.562-.663,11.251,11.251,0,0,1,2.577.287,9.027,9.027,0,0,1,2.3.882A5.643,5.643,0,0,1,1.88-17.233a6.117,6.117,0,0,1,1.046,2.4l-3.965.984a3.212,3.212,0,0,0-3.555-2.83,3.892,3.892,0,0,0-2.2.574,1.946,1.946,0,0,0-.861,1.736q0,1.08,1.436,1.75a21.392,21.392,0,0,0,2.748.943q.807.246,1.313.41t1.271.479a8.835,8.835,0,0,1,1.244.608,9.207,9.207,0,0,1,1.039.759,4.086,4.086,0,0,1,.882.984,5.323,5.323,0,0,1,.54,1.224,5.114,5.114,0,0,1,.219,1.524,5.989,5.989,0,0,1-.4,2.229A4.85,4.85,0,0,1,1.552-1.777,6.312,6.312,0,0,1-.082-.622a7.926,7.926,0,0,1-2.01.684A11.559,11.559,0,0,1-4.348.273ZM6.822,0V-19.756h4.1V0Z" transform="translate(15412 -2257)" fill="#002b45"/>
    <path id="Trazado_23965" data-name="Trazado 23965" d="M-6.6-19.756h4.088V0H-7.26l-8.75-14.123V0H-20.1V-19.756h4.689L-6.6-5.715ZM11.348.273A10.739,10.739,0,0,1,6.159-.964a8.969,8.969,0,0,1-3.6-3.562A10.711,10.711,0,0,1,1.244-9.885a10.7,10.7,0,0,1,1.313-5.366,8.935,8.935,0,0,1,3.6-3.548,10.787,10.787,0,0,1,5.188-1.23,10.747,10.747,0,0,1,5.182,1.23,8.947,8.947,0,0,1,3.6,3.548,10.7,10.7,0,0,1,1.313,5.366,10.711,10.711,0,0,1-1.312,5.359,8.969,8.969,0,0,1-3.6,3.562A10.71,10.71,0,0,1,11.348.273ZM7.027-5.216a5.791,5.791,0,0,0,4.32,1.729,5.791,5.791,0,0,0,4.32-1.729,6.381,6.381,0,0,0,1.7-4.669,6.339,6.339,0,0,0-1.7-4.648,5.8,5.8,0,0,0-4.32-1.723,5.8,5.8,0,0,0-4.32,1.723,6.339,6.339,0,0,0-1.7,4.648A6.381,6.381,0,0,0,7.027-5.216Z" transform="translate(15412 -2122)" fill="#002b45"/>
    <path id="Trazado_23966" data-name="Trazado 23966" d="M-8.9-19.756h3.746V0H-9.078V-15.709l-4.539,4.225v-4.047ZM6.877-3.514H15.3V0H1.367V-2.967l7.861-8.025a4.947,4.947,0,0,0,1.709-3.4,2.408,2.408,0,0,0-.7-1.832,2.772,2.772,0,0,0-1.989-.67q-2.8,0-2.8,3.186v1.463l-3.924-.4v-.984a6.161,6.161,0,0,1,1.8-4.751,6.912,6.912,0,0,1,4.895-1.675,7.24,7.24,0,0,1,4.765,1.518,5.115,5.115,0,0,1,1.839,4.17,5.913,5.913,0,0,1-.622,2.707,11.315,11.315,0,0,1-1.976,2.639Z" transform="translate(15412 -2354)" fill="#002b45"/>
  </g>
</svg>
