<svg xmlns="http://www.w3.org/2000/svg" width="632" height="341.649" viewBox="0 0 632 341.649">
  <g id="Grupo_14488" data-name="Grupo 14488" transform="translate(-15610 2658)">
    <path id="Rectángulo_3494" data-name="Rectángulo 3494" d="M0,0H632V341.65H0Z" transform="translate(15610 -2658)" fill="#d5f4fc"/>
    <path id="Trazado_24024" data-name="Trazado 24024" d="M6.877-3.514H15.3V0H1.367V-2.967l7.861-8.025a4.947,4.947,0,0,0,1.709-3.4,2.408,2.408,0,0,0-.7-1.832,2.772,2.772,0,0,0-1.989-.67q-2.8,0-2.8,3.186v1.463l-3.924-.4v-.984a6.161,6.161,0,0,1,1.8-4.751,6.912,6.912,0,0,1,4.895-1.675,7.24,7.24,0,0,1,4.765,1.518,5.115,5.115,0,0,1,1.839,4.17,5.913,5.913,0,0,1-.622,2.707,11.315,11.315,0,0,1-1.976,2.639ZM25.1.273A6.162,6.162,0,0,1,19.79-2.283q-1.853-2.557-1.853-7.6t1.846-7.6A6.169,6.169,0,0,1,25.1-20.029a6.155,6.155,0,0,1,5.3,2.543q1.846,2.543,1.846,7.6T30.4-2.283A6.148,6.148,0,0,1,25.1.273Zm0-3.555A2.6,2.6,0,0,0,27.474-4.9a11.28,11.28,0,0,0,.841-4.983,11.2,11.2,0,0,0-.848-4.983,2.6,2.6,0,0,0-2.365-1.62q-3.227,0-3.227,6.6T25.1-3.281Z" transform="translate(15837 -2551)" fill="#002b45"/>
    <path id="Trazado_24025" data-name="Trazado 24025" d="M15.627-6.631a6.441,6.441,0,0,1-.581,2.775,6.549,6.549,0,0,1-1.6,2.194A7.532,7.532,0,0,1,11.1-.253,7.776,7.776,0,0,1,8.3.26,7.76,7.76,0,0,1,5.448-.267,7.02,7.02,0,0,1,3.138-1.709,6.7,6.7,0,0,1,1.613-3.9a6.684,6.684,0,0,1-.561-2.714A8.211,8.211,0,0,1,2.8-11.443l6.152-8.312h4.471L8.3-13.07a6.661,6.661,0,0,1,.9-.055,6.44,6.44,0,0,1,2.427.465,6.571,6.571,0,0,1,2.044,1.292,5.978,5.978,0,0,1,1.415,2.058A6.911,6.911,0,0,1,15.627-6.631Zm-3.855-.1a3.375,3.375,0,0,0-.957-2.55,3.481,3.481,0,0,0-2.584-.991,3.337,3.337,0,0,0-2.5,1,3.525,3.525,0,0,0-1,2.488,3.381,3.381,0,0,0,.916,2.536,3.4,3.4,0,0,0,2.543.964,3.561,3.561,0,0,0,2.57-.957A3.336,3.336,0,0,0,11.771-6.727Z" transform="translate(15853 -2506)" fill="#002b45"/>
    <path id="Trazado_24026" data-name="Trazado 24026" d="M6.877-3.514H15.3V0H1.367V-2.967l7.861-8.025a4.947,4.947,0,0,0,1.709-3.4,2.408,2.408,0,0,0-.7-1.832,2.772,2.772,0,0,0-1.989-.67q-2.8,0-2.8,3.186v1.463l-3.924-.4v-.984a6.161,6.161,0,0,1,1.8-4.751,6.912,6.912,0,0,1,4.895-1.675,7.24,7.24,0,0,1,4.765,1.518,5.115,5.115,0,0,1,1.839,4.17,5.913,5.913,0,0,1-.622,2.707,11.315,11.315,0,0,1-1.976,2.639Z" transform="translate(15853 -2468)" fill="#002b45"/>
    <path id="Trazado_24027" data-name="Trazado 24027" d="M-.342,5.564,13.289-21h3.705L3.377,5.564Z" transform="translate(15853 -2424)" fill="#002b45"/>
    <path id="Trazado_24028" data-name="Trazado 24028" d="M7.82-19.756h3.746V0H7.643V-15.709L3.1-11.484v-4.047ZM25.115.273a7.905,7.905,0,0,1-5.161-1.654,5.435,5.435,0,0,1-2.03-4.443,5.537,5.537,0,0,1,.827-3.028,5.669,5.669,0,0,1,2.29-2.044,5,5,0,0,1-1.634-1.682,4.343,4.343,0,0,1-.595-2.242,4.634,4.634,0,0,1,1.764-3.767,6.938,6.938,0,0,1,4.539-1.442,6.824,6.824,0,0,1,4.478,1.442A4.641,4.641,0,0,1,31.35-14.82a4.425,4.425,0,0,1-.574,2.235A5.046,5.046,0,0,1,29.189-10.9a5.641,5.641,0,0,1,2.27,2.044,5.572,5.572,0,0,1,.82,3.028,5.677,5.677,0,0,1-.943,3.247A5.938,5.938,0,0,1,28.772-.451,8.865,8.865,0,0,1,25.115.273Zm0-12.318a2.627,2.627,0,0,0,1.873-.738,2.391,2.391,0,0,0,.779-1.8,2.333,2.333,0,0,0-.779-1.777,2.654,2.654,0,0,0-1.873-.725,2.664,2.664,0,0,0-1.894.725,2.342,2.342,0,0,0-.772,1.777,2.394,2.394,0,0,0,.772,1.812A2.651,2.651,0,0,0,25.115-12.045Zm0,8.791a3.3,3.3,0,0,0,2.311-.834,2.883,2.883,0,0,0,.916-2.242,2.8,2.8,0,0,0-.923-2.194,3.324,3.324,0,0,0-2.3-.827,3.362,3.362,0,0,0-2.331.827,2.8,2.8,0,0,0-.923,2.194,2.873,2.873,0,0,0,.923,2.242A3.345,3.345,0,0,0,25.115-3.254Z" transform="translate(15914 -2551)" fill="#002b45"/>
    <path id="Trazado_24029" data-name="Trazado 24029" d="M8.395-20.016a7.639,7.639,0,0,1,3.685.9A6.741,6.741,0,0,1,14.7-16.646a6.635,6.635,0,0,1,.957,3.507,8.071,8.071,0,0,1-1.764,4.813L7.738,0H3.254L8.367-6.686a6.545,6.545,0,0,1-.889.055,6.463,6.463,0,0,1-3.131-.786,6.173,6.173,0,0,1-2.358-2.29,6.476,6.476,0,0,1-.909-3.418,6.334,6.334,0,0,1,2.146-4.929A7.422,7.422,0,0,1,8.395-20.016Zm3.555,7.027a3.376,3.376,0,0,0-.909-2.522A3.373,3.373,0,0,0,8.5-16.475a3.552,3.552,0,0,0-2.563.964,3.331,3.331,0,0,0-1.019,2.481,3.379,3.379,0,0,0,.957,2.543,3.468,3.468,0,0,0,2.584,1,3.309,3.309,0,0,0,2.5-1A3.571,3.571,0,0,0,11.949-12.988Z" transform="translate(15930 -2506)" fill="#002b45"/>
    <path id="Trazado_24030" data-name="Trazado 24030" d="M8.326.273q-3.691,0-5.387-1.8t-1.7-5.523l4.033-.178a14.282,14.282,0,0,0,.062,1.449,5.009,5.009,0,0,0,.246,1.121,2.006,2.006,0,0,0,.52.841,2.361,2.361,0,0,0,.889.485,4.391,4.391,0,0,0,1.333.178,3.2,3.2,0,0,0,2.331-.793,2.772,2.772,0,0,0,.813-2.078,2.794,2.794,0,0,0-.779-2.14A2.933,2.933,0,0,0,8.6-8.9H7.834v-3.062h.711a2.138,2.138,0,0,0,1.634-.7,2.486,2.486,0,0,0,.649-1.764,1.987,1.987,0,0,0-.711-1.641,2.89,2.89,0,0,0-1.873-.574,2.807,2.807,0,0,0-1.066.185,1.989,1.989,0,0,0-.718.472,2.086,2.086,0,0,0-.424.725,3.808,3.808,0,0,0-.205.861,8.6,8.6,0,0,0-.048.957L1.8-13.631a6.324,6.324,0,0,1,1.7-4.751,6.464,6.464,0,0,1,4.7-1.647,6.723,6.723,0,0,1,4.512,1.511,4.731,4.731,0,0,1,1.777,3.753,4.271,4.271,0,0,1-.759,2.543A4.344,4.344,0,0,1,12-10.719a4.869,4.869,0,0,1,1.258.561,5.156,5.156,0,0,1,1.1.943,4.21,4.21,0,0,1,.813,1.436,5.776,5.776,0,0,1,.3,1.914A5.583,5.583,0,0,1,13.521-1.4,7.712,7.712,0,0,1,8.326.273Z" transform="translate(15930 -2470)" fill="#002b45"/>
    <path id="Trazado_24031" data-name="Trazado 24031" d="M-.342,5.564,13.289-21h3.705L3.377,5.564Z" transform="translate(15930 -2424)" fill="#002b45"/>
    <path id="Trazado_24032" data-name="Trazado 24032" d="M6.877-3.514H15.3V0H1.367V-2.967l7.861-8.025a4.947,4.947,0,0,0,1.709-3.4,2.408,2.408,0,0,0-.7-1.832,2.772,2.772,0,0,0-1.989-.67q-2.8,0-2.8,3.186v1.463l-3.924-.4v-.984a6.161,6.161,0,0,1,1.8-4.751,6.912,6.912,0,0,1,4.895-1.675,7.24,7.24,0,0,1,4.765,1.518,5.115,5.115,0,0,1,1.839,4.17,5.913,5.913,0,0,1-.622,2.707,11.315,11.315,0,0,1-1.976,2.639Z" transform="translate(15987.57 -2551)" fill="#f91623"/>
    <path id="Trazado_24033" data-name="Trazado 24033" d="M8.326.273q-3.691,0-5.387-1.8t-1.7-5.523l4.033-.178a14.282,14.282,0,0,0,.062,1.449,5.009,5.009,0,0,0,.246,1.121,2.006,2.006,0,0,0,.52.841,2.361,2.361,0,0,0,.889.485,4.391,4.391,0,0,0,1.333.178,3.2,3.2,0,0,0,2.331-.793,2.772,2.772,0,0,0,.813-2.078,2.794,2.794,0,0,0-.779-2.14A2.933,2.933,0,0,0,8.6-8.9H7.834v-3.062h.711a2.138,2.138,0,0,0,1.634-.7,2.486,2.486,0,0,0,.649-1.764,1.987,1.987,0,0,0-.711-1.641,2.89,2.89,0,0,0-1.873-.574,2.807,2.807,0,0,0-1.066.185,1.989,1.989,0,0,0-.718.472,2.086,2.086,0,0,0-.424.725,3.808,3.808,0,0,0-.205.861,8.6,8.6,0,0,0-.048.957L1.8-13.631a6.324,6.324,0,0,1,1.7-4.751,6.464,6.464,0,0,1,4.7-1.647,6.723,6.723,0,0,1,4.512,1.511,4.731,4.731,0,0,1,1.777,3.753,4.271,4.271,0,0,1-.759,2.543A4.344,4.344,0,0,1,12-10.719a4.869,4.869,0,0,1,1.258.561,5.156,5.156,0,0,1,1.1.943,4.21,4.21,0,0,1,.813,1.436,5.776,5.776,0,0,1,.3,1.914A5.583,5.583,0,0,1,13.521-1.4,7.712,7.712,0,0,1,8.326.273Z" transform="translate(15987.57 -2506)" fill="#f91623"/>
    <path id="Trazado_23511" data-name="Trazado 23511" d="M1120.2,225.6V398.41" transform="translate(14772.166 -2795.235)" fill="none" stroke="blue" stroke-width="3.666"/>
    <path id="Trazado_23512" data-name="Trazado 23512" d="M1193.2,225.6V398.41" transform="translate(14772.166 -2795.235)" fill="none" stroke="blue" stroke-width="3.666"/>
    <path id="Trazado_23513" data-name="Trazado 23513" d="M972.742,255.057h227.907" transform="translate(14839.259 -2795.235)" fill="none" stroke="blue" stroke-width="3.666"/>
  </g>
</svg>
